<svg width="170" height="266" viewBox="0 0 170 266" fill="none" xmlns="http://www.w3.org/2000/svg">
<g clip-path="url(#clip0_396_12710)">
<path fill-rule="evenodd" clip-rule="evenodd" d="M169.184 197.438C169.184 199.471 169.881 201.732 169.184 203.664C169.115 204.637 169.289 206.905 169.115 208.902C169.115 208.966 169.115 209.038 169.059 209.102C169.003 209.31 168.941 209.517 168.885 209.725C168.746 210.204 168.613 210.691 168.481 211.156L168.293 211.871C168.223 212.122 168.153 212.372 168.091 212.587C167.897 212.638 167.698 212.665 167.499 212.666C167.262 212.669 167.027 212.633 166.802 212.558C165.527 212.122 164.315 211.485 163.075 210.934C162.225 210.476 160.901 210.29 160.685 209.167C156.366 208.315 152.103 207.02 147.721 206.605C145.13 206.433 142.573 207.02 140.058 207.478H139.87C138.045 211.549 135.453 215.478 131.51 217.603C131.453 217.885 131.33 218.148 131.151 218.37C130.973 218.592 130.745 218.766 130.486 218.877C128.529 220.057 126.251 220.43 124.084 220.988C121.995 221.534 119.865 221.9 117.717 222.082C115.077 221.903 112.5 221.173 110.145 219.936C105.721 219.406 101.666 217.474 97.6469 215.642C93.063 213.496 88.5419 211.106 84.6477 207.771C83.0454 206.419 81.471 205.031 79.8618 203.693C79.879 203.526 79.8577 203.357 79.7996 203.201C79.7415 203.044 79.6482 202.904 79.5274 202.791C78.9608 202.261 78.4035 201.725 77.8555 201.181C77.6793 201.004 77.5118 200.817 77.3539 200.623L77.1797 200.372V200.286C77.535 200.286 77.8764 200.286 78.2526 200.286C78.6533 200.277 79.0532 200.246 79.4507 200.193C79.6546 200.176 79.8571 200.145 80.0568 200.1L80.2101 200.057C80.4679 200.251 80.7256 200.465 80.9764 200.673C81.1623 200.787 81.3372 200.919 81.4989 201.066C82.105 200.251 83.345 200.072 83.7003 198.984C84.3969 195.879 82.9549 192.73 83.0037 189.596C82.8783 181.532 80.6698 173.811 78.573 166.111C78.3668 166.048 78.1772 165.938 78.018 165.789C77.8588 165.641 77.7343 165.457 77.6535 165.252C75.3197 154.769 72.8955 156.086 82.9131 150.87C87.0929 148.616 91.1194 145.574 93.6064 141.41C94.4633 139.778 96.8528 140.83 96.5741 142.576C96.5741 143.292 96.6298 144.007 96.6716 144.666C96.9266 145.029 97.2084 145.371 97.5145 145.689C100.301 149.267 105.073 148.265 108.988 148.215C111.419 147.256 114.213 146.92 116.407 145.274C118.044 144.437 118.664 141.303 120.803 141.911C121.15 142.092 121.43 142.384 121.601 142.742C121.772 143.101 121.824 143.508 121.751 143.9C121.995 144.429 122.269 144.943 122.573 145.438C123.799 148.422 126.021 148.551 128.794 148.859C132.033 149.345 135.237 150.011 138.477 150.476C141.072 150.816 143.585 151.636 145.896 152.895C146.259 153.046 146.55 153.338 146.706 153.707C146.863 154.076 146.872 154.494 146.732 154.87C146.653 155.069 146.532 155.247 146.377 155.392C146.885 155.886 147.366 156.415 147.867 156.823C149.358 156.73 155.607 162.705 158.317 166.97C159.456 168.418 160.492 169.948 161.417 171.549C161.737 172.098 162.037 172.656 162.316 173.224C164.423 176.265 165.891 179.723 166.628 183.378C166.895 184.005 167.128 184.648 167.324 185.303C168.425 189.217 168.801 193.345 169.184 197.438Z" fill="#9D85F4"/>
<path fill-rule="evenodd" clip-rule="evenodd" d="M78.4347 223.556C79.3055 224.551 82.9768 227.485 81.7786 227.485C81.7019 227.485 101.821 242.998 128.989 242.791C132.473 242.791 140.777 239.299 140.923 242.018C141.292 248.78 140.923 264.415 141.132 267.857C141.132 268.165 131.149 267.857 130.856 267.857C122.936 267.32 72.0395 266.834 70.7647 266.776C70.0263 266.855 70.4303 227.048 70.4373 225.818C70.2144 223.828 69.7894 222.955 69.6152 221.617C69.6736 221.487 69.7067 221.346 69.7128 221.202C69.7128 220.351 69.7128 219.499 69.7128 218.648C69.7128 217.796 69.7128 217.145 69.7128 216.386C69.9774 216.221 70.2883 216.151 70.5962 216.187C70.904 216.223 71.1913 216.364 71.4126 216.587C72.1928 217.453 73.0218 218.268 73.8508 219.084C75.3486 220.608 76.9648 222.039 78.4347 223.556Z" fill="#9D85F4"/>
<path fill-rule="evenodd" clip-rule="evenodd" d="M119.313 102.712C119.125 102.938 118.92 103.148 118.7 103.342C118.299 103.611 117.866 103.825 117.411 103.979C117.015 104.184 116.645 104.438 116.311 104.737C116.115 104.93 115.927 105.124 115.746 105.324L115.433 105.675C115.09 106.073 114.727 106.453 114.346 106.812C113.898 107.217 113.474 107.649 113.078 108.108C113.291 107.067 113.65 106.065 114.144 105.131C114.786 104.047 115.72 103.177 116.833 102.626C117.205 102.377 117.642 102.252 118.086 102.267C118.53 102.282 118.958 102.438 119.313 102.712Z" fill="black"/>
<path fill-rule="evenodd" clip-rule="evenodd" d="M116.115 106.598C115.738 106.261 115.557 105.71 115.16 105.403C115.16 105.446 115.16 105.403 115.16 105.403C115.435 105.326 115.726 105.333 115.998 105.421C116.27 105.51 116.511 105.678 116.693 105.904C116.807 106.018 116.885 106.166 116.915 106.327C116.944 106.489 116.925 106.655 116.86 106.805C116.729 106.837 116.592 106.835 116.462 106.799C116.331 106.763 116.212 106.693 116.115 106.598Z" fill="black"/>
<path fill-rule="evenodd" clip-rule="evenodd" d="M87.7555 113.36C86.0417 113.231 82.6631 112.58 82.879 110.247C83.0638 109.643 83.3835 109.091 83.8125 108.637C84.1269 108.228 84.4132 107.798 84.6693 107.349C85.3036 106.063 85.7989 104.71 86.1462 103.313C86.4388 102.483 86.6617 101.581 86.9404 100.766C87.1437 101.947 87.1812 103.151 87.0519 104.343C86.7162 106.301 85.9091 108.141 84.7042 109.696C84.5306 109.925 84.3701 110.163 84.2236 110.411C84.195 110.457 84.1799 110.511 84.1799 110.565C84.1799 110.62 84.195 110.673 84.2236 110.719C84.753 111.685 86.4667 111.964 87.4559 112.15C87.9505 112.215 88.5218 112.15 88.9955 112.207L89.504 112.265C89.3599 112.612 89.1139 112.903 88.8004 113.1C88.4869 113.296 88.1216 113.387 87.7555 113.36Z" fill="black"/>
<path fill-rule="evenodd" clip-rule="evenodd" d="M90.0329 120.973C88.9162 120.802 87.8919 120.238 87.1349 119.378C87.0304 119.227 87.1349 119.127 87.3369 119.249H87.2811C87.2811 119.249 87.3439 119.249 87.33 119.249C87.9678 119.375 88.6172 119.431 89.2666 119.413C90.0544 119.488 90.8473 119.488 91.6351 119.413C92.7764 119.25 93.858 118.789 94.7769 118.075C95.122 117.756 95.49 117.464 95.8777 117.202C96.2219 117.008 96.6067 116.903 96.9993 116.895C97.0062 117.023 97.0062 117.152 96.9993 117.281C96.9157 118.454 95.808 119.141 94.9651 119.757C93.5112 120.745 91.765 121.176 90.0329 120.973Z" fill="black"/>
<path fill-rule="evenodd" clip-rule="evenodd" d="M21.9509 121.925C21.2543 121.732 21.3169 120.937 21.4702 120.379C21.6235 119.821 21.7141 119.249 21.8743 118.698C22.4525 116.837 22.752 114.898 23.4486 113.08C22.9749 112.365 23.4487 111.535 23.8527 110.891C24.3264 110.089 24.828 109.317 25.3226 108.529C27.299 105.198 29.4841 102.002 31.864 98.9623C33.529 97.0231 35.1103 95.0053 36.7405 93.0303C37.5388 92.0897 38.3975 91.2052 39.311 90.3827C39.9589 89.8675 40.4814 88.9087 41.4009 88.9516C41.9791 89.097 42.4996 89.4218 42.8917 89.8818C43.9297 90.8621 44.8354 91.9713 45.8803 92.9444C46.5073 93.5527 47.0785 93.982 47.6637 94.5759C48.2767 95.2915 47.5731 96.1788 47.1342 96.7942C44.8771 99.7924 42.4529 102.662 40.2237 105.681C38.7468 107.771 37.3048 109.889 35.7931 111.957C34.6924 113.474 33.5569 114.969 32.3099 116.372C31.9465 116.856 31.5032 117.27 31.0002 117.596C30.6742 117.788 30.3035 117.887 29.9274 117.882C29.9373 117.654 29.9748 117.428 30.0388 117.209C30.2314 116.657 30.5574 116.165 30.9863 115.778C31.6063 115.113 32.1357 114.454 32.693 113.753C33.8982 112.243 35.0198 110.662 36.1205 109.08C38.1802 105.913 40.4178 102.871 42.8221 99.9713C44.0482 98.4257 45.4206 96.9945 46.5143 95.3416C45.6852 94.6708 44.8921 93.9541 44.1387 93.1949C43.1913 92.2289 42.4042 91.0482 41.2965 90.2754C40.2028 91.406 39.0602 92.4936 38.0153 93.6743C36.3852 95.6206 34.7829 97.5813 33.1388 99.4918C30.9056 102.302 28.8331 105.243 26.9318 108.3C26.1585 109.581 25.232 110.776 24.5841 112.136C25.6012 113.023 26.5348 113.989 27.5101 114.919C28.2067 115.692 30.5613 116.816 29.2795 117.982C27.8115 119.146 26.2284 120.149 24.5563 120.973C23.926 121.317 23.2744 121.618 22.6057 121.875C22.4087 121.955 22.1926 121.973 21.9857 121.925H21.9509ZM24.1384 114.834C23.7761 116.758 23.2606 118.64 22.7451 120.515C24.6147 119.57 26.4124 118.481 28.1231 117.259C26.7527 116.27 25.46 115.172 24.2567 113.975C24.2319 114.263 24.1924 114.55 24.1384 114.834Z" fill="black"/>
<path fill-rule="evenodd" clip-rule="evenodd" d="M48.563 96.4503C48.3044 96.4177 48.0616 96.3054 47.8664 96.1283C47.739 96.0065 47.6391 95.8575 47.5737 95.6918C48.0528 95.4532 48.5059 95.163 48.9253 94.8259C48.6986 94.069 48.3476 93.3575 47.8873 92.7222C47.3328 91.8323 46.6858 91.0069 45.9576 90.2606C44.7942 89.2803 43.5333 88.2213 42.0355 87.8921C41.2344 87.7776 41.2623 88.3286 41.1717 88.9583C41.1717 89.2732 40.907 89.953 41.2623 90.1032C40.6632 90.275 40.0432 88.393 40.1267 87.885C40.1955 87.4382 40.433 87.0373 40.7878 86.7693C41.1425 86.5014 41.5859 86.388 42.0216 86.4538C42.9029 86.581 43.7442 86.9139 44.4807 87.427C45.5335 88.0311 46.4994 88.7825 47.3509 89.6596C48.2913 90.8259 51.0361 94.1533 50.1792 95.6274C50.014 95.9083 49.7742 96.135 49.4879 96.2807C49.2016 96.4265 48.8807 96.4853 48.563 96.4503Z" fill="black"/>
<path fill-rule="evenodd" clip-rule="evenodd" d="M48.6397 92.0713C48.4888 92.0465 48.3398 92.0107 48.1939 91.964C48.2802 91.6323 48.43 91.3216 48.6345 91.0501C48.8391 90.7786 49.0943 90.5516 49.3852 90.3826C50.0784 89.9043 50.6765 89.2947 51.1476 88.5865C51.4349 88.1024 51.5994 87.5521 51.6262 86.9858C51.653 86.4195 51.5412 85.8554 51.3009 85.345C51.1994 85.0906 51.0322 84.8696 50.8174 84.7056C50.6026 84.5417 50.3482 84.4411 50.0818 84.4148C48.6756 84.2582 47.2566 84.5532 46.0204 85.2591C45.2541 85.7243 44.3206 86.0534 43.826 86.8405C43.8417 86.8631 43.8635 86.8805 43.8887 86.8906C43.8887 86.8906 43.9514 86.8906 43.9444 86.8906C43.826 86.8906 43.7076 86.8906 43.6797 86.7761C43.7354 85.7672 44.5296 84.9729 45.268 84.3861C46.3637 83.6528 47.6268 83.2261 48.9323 83.1482C49.8635 83.0192 50.8086 83.2403 51.5935 83.7708C52.1553 84.4095 52.5335 85.1959 52.686 86.0423C52.8385 86.8888 52.7593 87.7621 52.4573 88.565C51.9487 89.896 50.1375 92.1572 48.6397 92.0713Z" fill="black"/>
<path fill-rule="evenodd" clip-rule="evenodd" d="M26.9805 115.521C27.071 114.455 27.8304 113.718 28.4922 112.981C30.0457 111.185 31.5295 109.331 32.9994 107.464C35.5839 104.179 38.0987 100.837 40.8713 97.7248C42.1672 96.1656 43.5964 94.7288 45.1417 93.4314C45.1905 93.3885 45.2811 93.3455 45.3298 93.4314C45.3786 93.5173 45.3298 93.4314 45.3298 93.4314H45.2881C44.7857 94.4334 44.2031 95.3907 43.5465 96.2937C42.8498 97.1237 42.1532 97.8965 41.4078 98.698C39.2761 101.095 37.3395 103.635 35.354 106.154C33.3686 108.673 31.5504 111.092 29.5232 113.446C28.7917 114.24 28.1439 115.349 26.9805 115.521Z" fill="black"/>
<path fill-rule="evenodd" clip-rule="evenodd" d="M24.8633 114.146C24.8868 113.165 25.2758 112.23 25.9501 111.535C27.1065 109.86 28.2768 108.193 29.489 106.526C31.9253 103.053 34.5317 99.7092 37.2982 96.5078C38.5209 95.0337 39.8234 93.6314 41.1994 92.3075C41.5617 91.9425 41.9796 91.6492 42.3001 91.2699C42.3046 91.2652 42.31 91.2614 42.316 91.2588C42.322 91.2562 42.3285 91.2549 42.335 91.2549C42.3414 91.2549 42.3479 91.2562 42.3538 91.2588C42.3598 91.2614 42.3652 91.2652 42.3697 91.2699C42.4046 91.3343 42.3698 91.4345 42.328 91.4917C42.1778 91.8682 42.0033 92.234 41.8055 92.5866C40.9277 93.962 39.9247 95.2486 38.8099 96.4291C35.6542 100.086 32.6447 103.878 29.8442 107.842C28.7505 109.367 27.6638 110.891 26.6118 112.451C26.2595 113.223 25.6345 113.829 24.8633 114.146Z" fill="black"/>
<path fill-rule="evenodd" clip-rule="evenodd" d="M19.4844 123.814C19.4426 123.814 19.4427 123.814 19.4287 123.757C19.3596 123.408 19.4023 123.045 19.5504 122.722C19.6986 122.4 19.9442 122.135 20.2507 121.968C20.613 121.725 21.3654 121.152 21.7834 121.417C21.9505 121.589 21.7415 121.768 21.637 121.911C21.1215 122.755 20.599 123.929 19.4844 123.814Z" fill="black"/>
<path fill-rule="evenodd" clip-rule="evenodd" d="M86.7367 41.5549C86.2265 40.8072 85.8405 39.9779 85.5943 39.1005C84.771 36.9457 84.1051 34.7308 83.6019 32.4744C83.1142 30.1345 82.55 27.8089 81.9578 25.4905C81.3657 23.1721 80.7736 20.6819 80.056 18.3349C79.6854 17.1962 79.5087 16.0004 79.5336 14.8C79.5336 14.6354 79.5335 14.4207 79.645 14.2991C79.688 14.2849 79.7343 14.2849 79.7774 14.2991C79.4639 14.2562 79.9515 15.0147 79.9515 15.1292C80.2371 15.766 80.5088 16.3885 80.7387 17.0397C81.6861 19.9521 82.4245 22.9216 83.1212 25.9055C84.194 29.7767 84.7374 33.7767 86.1864 37.5549C86.4999 38.4207 86.8204 39.2866 87.1896 40.1309C87.3707 40.6032 87.5796 40.9753 88.0882 41.0111C89.7183 41.0111 91.2858 40.4887 92.8602 40.1238C94.0723 39.8232 95.3333 39.5227 96.5245 39.1578C99.7848 38.0987 103.017 36.9324 106.354 36.1596C110.062 35.3375 113.722 34.3055 117.319 33.0683C118.392 32.7105 119.493 32.4386 120.572 32.1095C121.13 31.9234 121.701 31.7588 122.244 31.537C122.348 31.4988 122.435 31.4254 122.492 31.3291C122.549 31.2327 122.572 31.1193 122.558 31.0075C122.739 27.9592 121.582 25.054 120.83 22.156C120.133 20.0093 119.534 17.7767 118.74 15.6444C117.507 12.3027 115.8 9.16135 114.623 5.81252C113.015 5.9672 111.418 6.23256 109.844 6.60679C106.827 7.26562 103.852 8.11153 100.934 9.13989C98.3218 9.96994 95.7024 10.7642 93.1318 11.7231C90.0527 12.7606 86.9388 13.698 83.79 14.478C83.1352 14.6783 82.5082 14.9216 81.8742 15.1936C81.3011 15.3935 80.6833 15.4159 80.0978 15.258C80.3698 14.8262 80.75 14.4776 81.1985 14.249C82.7358 13.6277 84.3201 13.137 85.9356 12.7821C90.3662 11.6658 94.6296 9.96994 98.9905 8.61752C103.289 7.06142 107.698 5.84617 112.178 4.98246C113.06 4.75902 113.965 4.64136 114.874 4.63184C115.619 4.63184 115.87 5.46905 116.065 6.06296C116.372 6.91448 116.762 7.65151 117.075 8.46726C118.218 11.1578 119.416 13.834 120.377 16.6032C121.032 18.7499 121.708 20.8465 122.265 22.9932C123.038 25.7839 123.951 28.6461 123.568 31.58C123.261 32.9252 121.478 32.961 120.44 33.3689C118.204 33.9342 116.072 34.8429 113.864 35.5156C111.077 36.2454 108.305 36.9419 105.546 37.605C103.01 38.1846 100.544 38.986 98.0919 39.8161C95.9463 40.5317 93.7588 41.0612 91.5783 41.6193C90.1711 41.834 87.928 42.6712 86.7367 41.5549Z" fill="black"/>
<path fill-rule="evenodd" clip-rule="evenodd" d="M85.5811 15.7727C84.9367 15.3733 84.4025 14.8112 84.0293 14.1399C83.6562 13.4685 83.4566 12.7103 83.4495 11.9372C83.3101 10.5991 83.3519 8.81022 84.7661 8.20915C86.5983 7.43634 88.4722 8.72435 89.0573 10.5419C89.1872 11.015 89.1577 11.5192 88.9737 11.973C88.0472 11.422 87.7616 10.27 86.8838 9.64027C86.6517 9.47482 86.3834 9.37065 86.1027 9.33695C85.8221 9.30326 85.5377 9.34108 85.2746 9.44707C84.4596 9.91934 84.7522 11.4864 84.8218 12.3093C84.8915 13.1322 85.1423 13.9337 85.3582 14.7351C85.4482 15.1464 85.6294 15.5309 85.8877 15.8585C85.8877 15.8585 85.6787 15.8156 85.5811 15.7727Z" fill="black"/>
<path fill-rule="evenodd" clip-rule="evenodd" d="M94.4694 12.8465C92.8602 12.3671 92.0661 10.5352 92.0521 8.91805C91.9894 7.75884 92.1636 6.33487 93.306 5.76957C95.0198 4.9753 96.8659 6.62109 97.3744 8.24542C97.4895 8.63742 97.4895 9.05557 97.3744 9.44757C97.0766 9.26213 96.8047 9.03584 96.5663 8.77494C95.9672 8.1524 95.591 7.2007 94.7411 6.90016C92.5467 6.1846 93.7241 10.7714 93.9958 11.8304C94.1254 12.1855 94.2987 12.5221 94.5113 12.8322V12.868L94.4694 12.8465Z" fill="black"/>
<path fill-rule="evenodd" clip-rule="evenodd" d="M101.876 10.7709C101.21 10.3041 100.687 9.65281 100.368 8.89277C100.049 8.13273 99.9459 7.29516 100.072 6.47748C100.302 5.04635 100.852 3.2002 102.433 2.8138C103.058 2.72986 103.694 2.79962 104.287 3.01733C104.88 3.23505 105.415 3.59448 105.847 4.06603C106.124 4.31221 106.317 4.64273 106.398 5.00952C106.48 5.3763 106.445 5.76021 106.3 6.10539C105.694 5.67605 105.199 5.16084 104.642 4.67426C102.552 3.18589 101.751 4.6027 101.458 6.67068C101.401 8.08819 101.597 9.50439 102.036 10.8496C101.994 10.8925 101.911 10.7995 101.876 10.7709Z" fill="black"/>
<path fill-rule="evenodd" clip-rule="evenodd" d="M110.34 8.96082C109.767 8.7145 109.269 8.31273 108.901 7.79848C108.533 7.28422 108.308 6.67684 108.25 6.04132C108.153 4.50286 108.773 2.57799 110.34 2.13434C110.64 2.02753 110.957 1.98368 111.274 2.00541C111.591 2.02715 111.9 2.11401 112.183 2.26085C112.467 2.40769 112.718 2.61151 112.923 2.86021C113.128 3.1089 113.283 3.39741 113.377 3.70858C113.481 4.09393 113.448 4.50427 113.287 4.86779C112.834 4.48431 112.408 4.06823 112.012 3.62271C110.667 2.51359 109.692 4.06636 109.567 5.37584C109.524 6.68422 109.877 7.97402 110.577 9.06815C110.494 9.04106 110.415 9.00508 110.34 8.96082Z" fill="black"/>
<path fill-rule="evenodd" clip-rule="evenodd" d="M106.167 6.41351C106.167 6.14876 105.902 5.86969 106.056 5.59777C106.209 5.32586 106.411 5.72657 106.383 5.90546C106.387 6.00146 106.37 6.09715 106.332 6.18521C106.295 6.27328 106.238 6.35137 106.167 6.41351Z" fill="black"/>
<path fill-rule="evenodd" clip-rule="evenodd" d="M86.0625 19.4156C88.452 17.6267 91.5102 17.2117 94.3106 16.4317C97.283 15.6494 100.26 14.8861 103.241 14.1419C105.185 13.6195 107.115 13.0042 109.079 12.5533C109.999 12.3673 110.911 11.9237 111.866 12.0381C112.152 12.0846 112.431 12.1712 112.695 12.2957C112.368 12.6609 111.962 12.9426 111.511 13.1186C109.044 13.6982 106.578 14.285 104.14 14.9791C100.176 15.9809 96.2264 17.0256 92.2974 18.0489C90.289 18.7037 88.2247 19.1613 86.1321 19.4156C86.1321 19.4156 86.0625 19.4299 86.0625 19.4156Z" fill="black"/>
<path fill-rule="evenodd" clip-rule="evenodd" d="M91.7806 33.7839C91.1782 33.2288 90.7289 32.5205 90.4779 31.7302C89.8231 30.2276 89.1822 28.7177 88.6597 27.1578C87.9213 24.7106 86.4653 22.385 86.5698 19.7446C86.5698 19.7016 86.5697 19.2866 86.6951 19.4011C86.8205 19.5156 86.6951 19.4011 86.6951 19.4011C87.0853 20.4744 87.7819 21.4619 88.2138 22.5424C88.8408 24.0666 89.3494 25.6408 89.8928 27.2007C90.4361 28.7607 91.077 30.2276 91.6622 31.6372C91.8312 32.1333 92.1244 32.575 92.5121 32.9181C95.0409 33.9485 102.787 31.3295 105.602 30.478C108.416 29.6265 111.273 28.732 114.101 27.8734C114.519 27.7783 114.917 27.6088 115.278 27.3725C115.482 26.8056 115.507 26.1869 115.348 25.605C115.136 24.1774 114.786 22.775 114.303 21.419C113.815 19.8447 113.202 18.3206 112.603 16.7893C112.199 15.6014 111.21 14.3277 111.823 13.0469C112.735 13.605 113.028 14.6927 113.411 15.6515C114.024 17.2258 114.707 18.7785 115.188 20.4029C115.76 22.0521 116.169 23.7567 116.407 25.4905C116.63 26.6784 116.706 28.1882 115.327 28.6032C113.711 29.1399 112.032 29.5478 110.45 30.0344C108.521 30.6998 106.487 31.2508 104.557 31.8304C101.756 32.6819 94.0934 35.2794 91.7806 33.7839Z" fill="black"/>
<path fill-rule="evenodd" clip-rule="evenodd" d="M87.9141 23.2724C88.5271 22.2778 91.6829 21.7769 92.8324 21.4477C96.831 20.4245 100.879 19.6231 104.87 18.5855C106.821 18.0918 108.778 17.6338 110.715 17.0757C111.391 16.8289 112.129 16.8289 112.805 17.0757C112.343 17.6609 111.689 18.0528 110.966 18.1776C108.799 18.7572 106.605 19.2438 104.424 19.802C101.429 20.6892 98.3636 21.2331 95.3193 21.9486C93.7935 22.3804 92.2443 22.7197 90.6798 22.9647C89.795 23.1222 88.8546 23.0649 87.9908 23.2653C87.9908 23.2653 88.0465 23.3011 88.0534 23.3225C88.0604 23.344 87.921 23.3154 87.9141 23.2724Z" fill="black"/>
<path fill-rule="evenodd" clip-rule="evenodd" d="M97.5294 33.0328C96.7166 32.4777 96.1313 31.6345 95.8853 30.6643C95.2305 28.9254 94.6871 27.1437 94.1994 25.3405C93.5028 22.8217 92.3046 20.3888 92.2559 17.734C92.2559 17.6768 92.2558 17.455 92.3742 17.5695C92.4927 17.6839 92.3743 17.5695 92.3325 17.5695C92.944 18.4729 93.4755 19.4309 93.9207 20.4317C94.6877 22.5982 95.3412 24.8053 95.8783 27.0435C96.1849 28.0381 96.5749 29.0113 96.8954 29.9988C97.2158 30.9863 97.9334 31.9809 97.5294 33.0328Z" fill="black"/>
<path fill-rule="evenodd" clip-rule="evenodd" d="M19.2409 138.627C19.0319 137.102 20.6341 136.48 21.5467 135.6C22.0135 135.113 22.6613 134.534 22.2434 133.811C20.3346 130.355 16.2105 131.807 14.4271 129.26C13.417 127.564 14.6222 125.754 16.0085 124.759C16.9265 124.242 17.945 123.941 18.9901 123.879C18.9692 123.832 18.9392 123.79 18.9021 123.756C18.865 123.721 18.8215 123.695 18.7741 123.679C18.8799 123.663 18.9878 123.675 19.0877 123.714C19.3663 123.786 19.3732 124.101 19.1921 124.287C18.0217 125.496 16.0085 125.997 15.4442 127.75C15.3188 129.732 18.2795 129.603 19.5544 130.183C20.4491 130.501 21.287 130.967 22.0344 131.564C23.4277 132.816 24.4517 134.469 23.0166 136.136C22.4322 136.831 21.7516 137.434 20.9964 137.925C20.4696 138.291 19.8697 138.53 19.2409 138.627Z" fill="black"/>
<path fill-rule="evenodd" clip-rule="evenodd" d="M105.83 94.3364C105.889 94.3677 105.935 94.4069 105.964 94.4509C105.993 94.4949 106.005 94.5425 105.998 94.5897C105.991 94.6369 105.966 94.6825 105.925 94.7227C105.883 94.763 105.826 94.7968 105.759 94.8214C105.279 94.9701 104.736 95.028 104.201 94.9874C102.882 94.9533 101.563 94.9065 100.237 94.9406C97.9589 94.9746 93.8895 94.9406 94.0023 93.6216C94.0023 93.5535 94.0023 93.494 94.228 93.3365C95.166 92.8643 96.7599 93.0217 98.0153 93.0387C99.6093 93.1122 101.187 93.2804 102.727 93.5408C103.219 93.6181 103.703 93.7162 104.172 93.8343C104.766 93.9469 105.326 94.1165 105.83 94.3364Z" fill="black"/>
<path fill-rule="evenodd" clip-rule="evenodd" d="M89.733 44.8105C89.6425 44.3526 90.1649 44.3025 90.4784 44.2023C92.4847 43.4868 94.5607 42.8284 96.574 42.1987C98.5873 41.569 100.601 40.925 102.607 40.2882C102.899 40.188 103.304 39.9805 103.492 40.3812C103.528 40.478 103.526 40.5858 103.485 40.6809C103.445 40.7761 103.37 40.851 103.276 40.8893C100.176 41.9268 97.0756 42.8571 93.9755 43.8589C92.7077 44.2596 91.4746 44.739 90.1997 45.1039C90.1 45.1277 89.9952 45.1103 89.9079 45.0554C89.8206 45.0005 89.7578 44.9126 89.733 44.8105Z" fill="black"/>
<path fill-rule="evenodd" clip-rule="evenodd" d="M106.612 39.9595C106.264 39.2439 107.406 39.1652 107.817 38.972C108.988 38.5927 110.193 38.3208 111.391 38.0346C111.725 37.9774 112.255 37.7126 112.394 38.192C112.415 38.2924 112.398 38.3974 112.347 38.4853C112.295 38.5732 112.212 38.6373 112.115 38.6643C110.722 38.9791 109.406 39.3083 108.075 39.7162C107.755 39.8113 107.441 39.926 107.134 40.0596C107.051 40.1139 106.951 40.1337 106.854 40.1151C106.757 40.0965 106.671 40.0409 106.612 39.9595Z" fill="black"/>
<path fill-rule="evenodd" clip-rule="evenodd" d="M47.5741 139.091C46.9611 138.784 47.7274 137.997 47.8807 137.574C48.4868 136.465 49.1346 135.37 49.7616 134.276C50.0054 133.947 50.1657 133.181 50.6881 133.431C50.7786 133.483 50.8455 133.569 50.8742 133.671C50.9029 133.773 50.8912 133.882 50.8414 133.975C50.0263 135.471 49.1137 136.916 48.3196 138.426C48.1524 138.719 47.9991 139.256 47.5741 139.091Z" fill="black"/>
<path fill-rule="evenodd" clip-rule="evenodd" d="M41.9105 136.659C41.9732 134.977 41.9942 133.288 42.022 131.607C42.022 130.934 42.0221 130.262 42.0778 129.632C42.0778 129.331 42.0778 128.974 42.245 128.73C42.2875 128.682 42.3412 128.645 42.4011 128.623C42.4611 128.601 42.5254 128.594 42.5883 128.604C42.6512 128.614 42.7108 128.64 42.7615 128.68C42.8123 128.719 42.8525 128.771 42.8789 128.83C42.9625 129.038 42.8371 129.274 42.8789 129.482C42.7604 131.886 42.8231 134.29 42.6977 136.694C42.6931 136.802 42.6473 136.903 42.5702 136.975C42.4931 137.048 42.3911 137.086 42.2868 137.081C42.1824 137.076 42.0841 137.029 42.0135 136.95C41.943 136.871 41.9059 136.766 41.9105 136.659Z" fill="black"/>
<path fill-rule="evenodd" clip-rule="evenodd" d="M35.8842 137.03C35.3966 135.892 34.9646 134.719 34.5467 133.545C34.4422 133.094 33.7804 131.985 34.5467 131.878C34.5966 131.877 34.6463 131.886 34.6927 131.905C34.7392 131.924 34.7815 131.953 34.8172 131.989C34.8528 132.025 34.8812 132.068 34.9005 132.115C34.9198 132.162 34.9298 132.213 34.9298 132.264C35.0224 132.619 35.134 132.968 35.2642 133.309C35.6752 134.461 36.1141 135.585 36.5739 136.715C36.5957 136.805 36.586 136.9 36.5464 136.983C36.5069 137.066 36.4401 137.132 36.3577 137.17C36.2754 137.208 36.1827 137.214 36.0961 137.189C36.0095 137.163 35.9345 137.107 35.8842 137.03Z" fill="black"/>
<path d="M96.2245 102.645C96.6409 100.878 96.2449 99.2634 95.34 99.0384C94.4351 98.8134 93.3639 100.063 92.9474 101.83C92.531 103.597 92.9269 105.212 93.8319 105.437C94.7368 105.662 95.808 104.412 96.2245 102.645Z" fill="black"/>
<path d="M83.533 101.139C83.9495 99.3724 83.5535 97.7577 82.6486 97.5326C81.7437 97.3076 80.6725 98.5574 80.256 100.324C79.8396 102.091 80.2355 103.706 81.1405 103.931C82.0454 104.156 83.1166 102.906 83.533 101.139Z" fill="black"/>
<path d="M169.568 192.108C168.815 187.072 167.448 182.153 165.5 177.467C163.899 173.559 161.803 169.884 159.265 166.54C157.138 163.951 154.841 161.515 152.389 159.249C151.414 158.39 150.343 157.652 149.198 157.052V157.009C150.327 156.616 150.731 155.07 151.212 154.025C152.251 151.19 152.834 148.201 152.939 145.174C153.111 143.03 153.09 140.874 152.877 138.734C152.722 135.92 152.293 133.13 151.595 130.405C151.059 128.399 150.338 126.451 149.442 124.587C148.496 122.791 147.452 121.052 146.314 119.378C144.064 115.95 140.922 112.673 140.574 108.351C140.511 105.424 141.271 102.555 141.765 99.6925C142.359 96.646 142.523 93.5277 142.253 90.4332C141.923 83.0952 139.252 76.0726 134.653 70.4475C132.112 67.4449 128.999 65.0095 125.506 63.2918C121.865 61.6317 117.833 61.0947 113.9 61.7462C114.353 60.6586 115.042 58.748 114.276 57.7033C114.048 57.4682 113.748 57.3218 113.426 57.2892C113.105 57.2565 112.782 57.3397 112.514 57.5244C111.262 58.4502 110.169 59.5845 109.281 60.8804C108.828 59.9573 108.459 58.8768 107.574 58.29C106.181 57.6389 105.659 59.4278 105.645 60.5298C105.629 61.0084 105.657 61.4876 105.728 61.9609C105.506 61.8229 105.273 61.7033 105.032 61.6031C103.462 61.0356 101.818 60.7101 100.155 60.6371C96.4731 60.2456 92.7522 60.7078 89.2669 61.9895C86.703 62.9732 84.2945 64.3403 82.1194 66.0467C79.2085 68.34 76.7516 71.1843 74.8814 74.426C73.8566 76.0176 72.9261 77.6712 72.0948 79.3777C71.3186 81.1291 70.739 82.9656 70.3672 84.8518C69.8461 87.6419 69.8013 90.5038 70.2348 93.3097C70.5065 95.0915 71.0011 96.8231 71.3494 98.5906C71.6324 99.7609 71.6823 100.978 71.4957 102.168C70.9245 104.566 69.6635 106.705 68.6464 108.916C66.9587 112.227 65.9622 115.863 65.7206 119.592C65.6422 123.32 66.5757 126.997 68.4166 130.211C69.7262 132.651 71.245 134.998 72.1158 137.66C72.9796 140.215 72.7636 143.006 72.2411 145.617C72.0356 146.562 71.8821 147.517 71.7813 148.48C71.7382 148.856 71.8036 149.236 71.9694 149.574C71.216 149.342 70.4509 149.151 69.6775 149.002C63.1292 147.664 56.6295 146.09 50.0463 144.988C46.1939 144.415 42.3346 143.95 38.4822 143.378C34.1491 142.848 29.7951 142.383 25.4412 142.125C24.0479 142.083 22.5849 142.125 21.1568 142.125C18.9915 142.062 16.8425 142.528 14.8871 143.485C13.4242 144.201 12.9713 147.349 13.1176 149.925C12.8242 149.733 12.5016 149.593 12.1632 149.51C11.8771 149.414 11.5743 149.383 11.2753 149.418C10.9763 149.454 10.6882 149.555 10.4309 149.716C10.1736 149.876 9.95301 150.091 9.78429 150.347C9.61557 150.603 9.50268 150.894 9.45332 151.199C9.39771 152.026 9.52639 152.856 9.82953 153.625C9.70102 153.8 9.59557 153.993 9.51599 154.197C8.61733 156.458 9.20252 158.934 10.3102 161.031C10.0315 161.703 10.2475 163.693 10.3102 164.251C10.6102 165.888 11.1579 167.467 11.9334 168.93C11.9123 169.056 11.9123 169.184 11.9334 169.31C12.4108 171.167 13.0113 172.989 13.7307 174.762C14.227 176.45 15.0334 178.024 16.1062 179.399C16.5992 180.152 17.2398 180.79 17.9871 181.274C18.1011 181.315 18.2219 181.332 18.3424 181.324C18.1878 182.464 18.2208 183.623 18.4399 184.752C18.5923 185.545 18.7876 186.328 19.0251 187.099C19.1305 187.377 19.3031 187.623 19.5267 187.814C19.6003 188.065 19.7032 188.305 19.8332 188.53C20.5298 189.868 22.3829 190.92 24.5006 191.743C24.5656 192.861 24.8007 193.962 25.1973 195.006C25.8357 196.909 26.6015 198.764 27.4892 200.558C30.4354 206.62 34.0616 212.307 38.2941 217.503C39.7078 219.06 41.2105 220.53 42.7943 221.904C45.546 223.886 48.0051 223.664 52.2755 224.05C56.655 224.451 61.0392 224.845 65.428 225.231L69.4406 225.589H69.6357C70.0328 225.625 70.3323 225.675 70.7433 225.71C70.7433 225.71 70.7851 224.415 70.7433 224.415C70.7433 223.857 70.7433 223.292 70.7433 222.762C70.7851 220.778 70.5505 218.797 70.0467 216.88C70.4159 217.181 70.7852 217.467 71.1614 217.746L72.0043 218.591C74.0315 220.601 76.0726 222.612 78.0719 224.659L78.5944 225.124C79.1873 225.643 79.8133 226.121 80.4684 226.555C81.2347 227.099 82.0149 227.628 82.7673 228.201C86.6754 231.063 90.5696 234.032 94.8887 236.236C98.3395 237.927 101.909 239.348 105.568 240.487C111.243 242.131 117.091 243.061 122.984 243.256C128.125 243.465 133.272 243.028 138.31 241.954C141.125 241.457 143.892 240.708 146.579 239.714C148.309 239.022 149.968 238.157 151.532 237.131C152.041 236.794 152.57 236.473 153.1 236.136C153.41 235.998 153.71 235.838 153.998 235.657C155.112 235.03 156.156 234.282 157.112 233.424L158.331 232.272C158.924 231.671 159.488 231.041 160.024 230.39C161.657 228.549 163.074 226.517 164.246 224.337C166.144 220.528 167.634 216.519 168.69 212.379C169.436 209.044 169.847 205.64 169.916 202.218C170.106 198.844 169.989 195.46 169.568 192.108ZM96.0103 144.351C96.2005 144.957 96.5275 145.509 96.9647 145.961C98.9571 147.907 102.182 148.823 104.892 148.866C107.408 148.907 109.911 148.51 112.298 147.693C113.484 147.321 114.647 146.877 115.781 146.362C116.843 145.826 117.812 145.115 118.651 144.258C118.929 143.889 119.066 143.428 119.034 142.963C119.187 143.12 119.334 143.278 119.48 143.442C120.804 145.088 121.431 147.22 122.831 148.809C122.236 149.061 121.702 149.442 121.263 149.925C119.039 151.881 116.444 153.343 113.642 154.218C109.765 155.586 105.596 155.834 101.59 154.934C98.0747 154.315 94.7844 152.741 92.0604 150.376C91.1634 149.607 90.5147 148.576 90.2004 147.421C90.3429 146.855 90.6071 146.329 90.9736 145.882C91.7896 144.615 92.7228 143.431 93.7602 142.347C94.1958 141.739 94.7899 141.271 95.4739 140.995C95.4739 141.281 95.4739 141.567 95.4739 141.854C95.3765 142.724 95.5653 143.603 96.0103 144.351ZM76.7902 109.696C76.9504 107.607 78.4721 95.3741 78.5 94.0002C79.6425 93.6711 80 93.0002 81.5 93.0002C82.2733 92.7069 85.6169 93.7945 86 93.0002C86 92.5367 83.6444 91.7784 82.5 91.5002C81.4759 91.4502 79.9877 91.6639 78.6014 91.7784C78.5141 90.6749 78.3605 89.578 78.1416 88.494C80.7679 88.3437 83.2967 87.3849 85.8046 86.7122C87.5744 86.1743 89.3062 85.5121 90.9876 84.7301C92.1436 84.2524 93.2366 83.6273 94.2409 82.8696C95.3212 82.1561 96.206 81.1709 96.8115 80.0074C97.4414 81.2343 98.3232 82.3061 99.3959 83.1487C101.423 84.9877 104.07 85.8035 106.718 86.1326C107.251 86.1602 107.782 86.2272 108.306 86.333C108.661 86.6407 108.724 87.1917 108.905 87.6138C109.086 88.036 109.177 88.494 109.302 88.9305C110.187 92.0289 111.538 95.1273 113.879 97.3741C114.297 97.8299 114.796 98.1991 115.349 98.4618L115.258 98.519C114.547 98.9536 113.943 99.5498 113.491 100.262C113.039 100.974 112.753 101.783 112.653 102.626C112.643 102.721 112.643 102.817 112.653 102.913C113.461 101.938 114.342 101.029 115.286 100.193C115.827 99.6809 116.492 99.3274 117.211 99.17C117.931 99.0126 118.678 99.0571 119.375 99.299C120.358 99.7641 120.602 100.981 120.873 101.954C121.179 103.879 120.772 105.853 119.731 107.485C118.63 109.009 117.146 110.433 115.293 110.862C114.297 111.084 113.294 110.669 112.284 110.82C112.329 111.266 112.531 111.68 112.851 111.986C113.171 112.291 113.589 112.466 114.025 112.48C114.257 112.493 114.49 112.493 114.722 112.48C113.329 114.29 112.82 116.637 112.312 118.862C112.026 120.079 111.768 121.303 111.552 122.54C111.247 124.367 111.133 126.221 111.211 128.072C111.377 129.971 111.729 131.848 112.263 133.675C112.748 135.841 113.74 137.852 115.154 139.535C116.255 140.608 117.515 141.503 118.637 142.562C118.244 142.693 117.882 142.905 117.571 143.184C117.341 143.406 117.16 143.671 116.916 143.9C115.696 144.948 114.271 145.715 112.737 146.147C106.697 148.179 101.716 148.451 96.5188 144.251C96.8813 143.688 97.0323 143.009 96.9438 142.34C96.9438 141.489 96.902 140.644 96.8254 139.793C96.6751 137.627 96.1687 135.502 95.3276 133.51C95.0728 132.974 94.7622 132.468 94.4011 132C95.2396 131.852 96.0644 131.631 96.8671 131.342C99.85 130.212 102.614 128.547 105.032 126.426C106.625 125.119 108.097 123.663 109.428 122.075C110.068 121.231 110.64 120.365 110.472 119.213C109.912 119.461 109.429 119.865 109.079 120.379C107.856 122.072 106.439 123.608 104.858 124.952C102.096 127.62 98.7515 129.569 95.1047 130.634C94.6589 130.741 94.206 130.848 93.7462 130.934C93.7492 130.924 93.7546 130.915 93.7619 130.907C93.7692 130.9 93.7782 130.894 93.7881 130.891C93.7463 130.891 93.7184 130.891 93.6975 130.948C92.1425 131.285 90.5429 131.348 88.9673 131.134C86.7934 130.8 84.7121 130 82.8578 128.787C80.6659 127.198 78.9716 124.987 77.9814 122.426C76.4975 118.419 76.5185 113.99 76.7902 109.696ZM72.8054 152.215L72.9587 152.093C73.6553 152.966 74.1987 154.354 74.7908 156.78C75.8845 161.074 77.1246 165.367 78.2183 169.66C78.9706 172.05 79.6116 174.469 80.134 176.916C81.3837 181.572 82.2276 186.332 82.6559 191.142C82.7812 192.623 82.9624 194.104 83.0808 195.585C83.1365 196.63 83.3803 197.732 83.0389 198.741C82.9722 198.897 82.883 199.042 82.7742 199.17C82.794 198.576 82.7544 197.981 82.6559 197.396C82.5096 196.244 82.3842 195.07 82.21 193.925C81.6875 190.762 81.3113 187.571 80.5938 184.444C78.4133 175.213 75.8636 166.061 73.1398 156.981C72.7714 155.543 72.1811 154.176 71.3912 152.93C71.8969 152.781 72.3749 152.547 72.8054 152.236V152.215ZM16.4615 144.48C19.0112 143.464 21.8674 143.657 24.5564 143.607C27.9003 143.7 31.2302 144.079 34.5671 144.322C38.8862 144.787 43.2123 145.474 47.5384 146.032C53.9614 146.97 60.3913 148.437 66.7307 149.868C69.7053 150.526 71.3703 150.676 72.5058 151.614C72.3386 151.657 72.1854 151.693 72.053 151.714C71.292 151.835 70.524 151.902 69.7541 151.914C68.0613 151.664 66.4381 151.041 64.7732 150.634C61.1716 149.574 57.4445 149.202 53.7733 148.487C46.5022 146.929 39.1427 145.844 31.7387 145.238C29.3074 145.009 26.8623 144.787 24.438 144.651C23.177 144.544 21.8534 144.372 20.5159 144.365C19.3595 144.365 18.2031 144.422 17.0327 144.444L16.4197 144.48H16.4615ZM12.1493 150.92C12.5859 151.167 12.9887 151.473 13.3475 151.828C13.148 151.739 12.9608 151.624 12.7902 151.485C12.7853 151.476 12.7827 151.466 12.7827 151.456C12.7827 151.446 12.7853 151.436 12.7902 151.428C12.7872 151.442 12.7872 151.457 12.7902 151.471C12.9349 151.817 13.1273 152.14 13.3614 152.43L13.7167 152.945V152.988C13.8349 153.193 13.9802 153.381 14.1486 153.546C14.8453 154.44 15.5767 155.292 16.2385 156.201C16.7192 156.916 20.9269 162.297 19.2271 162.505C16.3431 162.304 12.6161 156.78 11.4109 154.276C11.0128 153.393 10.7766 152.442 10.7143 151.471C10.8745 150.784 11.5572 150.676 12.1493 150.941V150.92ZM10.2684 156.852C10.2057 155.986 9.99674 155.077 10.0176 154.183C10.1361 154.483 10.2684 154.777 10.4007 155.063C11.7104 157.467 14.1487 161.238 16.7889 162.934C17.0118 163.292 17.2487 163.65 17.4856 164.015C17.9732 164.952 18.7534 166.34 18.1822 167.378C16.6496 167.049 14.8174 165.002 13.7446 163.8C12.0379 161.932 10.5401 159.542 10.2684 156.873V156.852ZM11.9125 165.932C11.599 164.981 11.3691 164.007 11.0347 163.07C10.8466 162.505 10.6168 161.954 10.4635 161.381C10.6767 161.761 10.9093 162.129 11.1601 162.483C12.421 164.407 13.9868 166.1 15.7927 167.492C15.8489 167.622 15.9166 167.747 15.9947 167.864C16.1619 168.093 16.3431 168.322 16.5172 168.544C17.4597 169.581 18.0973 170.871 18.3563 172.265C18.3563 172.68 18.4539 173.195 18.1265 173.503C17.4299 173.904 15.1936 171.585 14.7269 170.991C13.4969 169.503 12.543 167.795 11.9125 165.954V165.932ZM11.9612 169.002C12.0634 169.202 12.1749 169.403 12.2956 169.603C12.1716 169.418 12.0599 169.224 11.9612 169.023V169.002ZM18.3215 180.193C17.4157 179.367 16.6403 178.402 16.0226 177.331C15.326 175.979 14.8662 174.469 14.2532 173.038C13.9789 172.334 13.6528 171.652 13.2778 170.998C14.1277 172.234 15.1816 173.307 16.3919 174.168C16.4608 174.394 16.5567 174.611 16.6774 174.812C17.3532 176.286 18.6419 178.655 18.3215 180.215V180.193ZM21.4355 188.63C21.0124 188.115 20.665 187.538 20.4044 186.92C20.4012 186.703 20.3636 186.488 20.293 186.283C20.0489 185.114 19.7349 183.963 19.3526 182.834C19.1714 182.319 18.9206 181.818 18.7813 181.288C18.9298 181.211 19.0606 181.102 19.1651 180.969C19.2695 180.835 19.3453 180.681 19.3874 180.515C19.7705 178.82 18.9067 176.544 18.0289 174.827C18.2241 174.82 18.4154 174.769 18.5898 174.679C18.7642 174.589 18.9174 174.461 19.039 174.304C20.1537 172.966 19.3386 170.526 18.5445 169.188C18.4124 168.974 18.2682 168.769 18.1125 168.573C19.9377 168.573 19.7217 165.675 19.1017 164.408C19.0251 164.201 18.9415 164 18.8579 163.8C19.2907 163.892 19.7414 163.807 20.1137 163.562C20.486 163.317 20.7503 162.933 20.8503 162.49C20.9224 161.763 20.7818 161.031 20.4463 160.387C19.5588 158.679 18.5088 157.066 17.3114 155.571C16.5569 154.495 15.6614 153.532 14.6503 152.709C14.6503 152.709 14.6503 152.673 14.6503 152.651C14.6469 152.623 14.6469 152.594 14.6503 152.566C14.7273 152.239 14.7128 151.897 14.6084 151.578V151.199C14.4621 149.925 14.4621 148.637 14.6084 147.363C14.6727 146.849 14.7823 146.341 14.9358 145.846C15.1923 145.862 15.4495 145.83 15.6952 145.753C16.573 145.625 17.3741 145.625 18.3006 145.56C20.5371 145.474 22.7768 145.553 25.0023 145.796C27.0922 145.904 29.1472 146.09 31.2232 146.283C38.6312 146.869 45.9956 147.937 53.2717 149.481C55.7308 149.947 58.2178 150.276 60.663 150.798C63.5401 151.392 66.5078 152.272 69.3849 153.038C70.0088 153.146 70.6481 153.115 71.2588 152.945C71.3962 154.521 71.6975 156.078 72.1575 157.589C74.6724 166.333 77.3544 175.027 79.4443 183.893C80.3917 188 80.8933 192.201 81.4785 196.372C81.5551 197.088 81.6317 197.803 81.7153 198.519C81.7304 198.89 81.8231 199.254 81.987 199.585C81.1398 199.646 80.2891 199.632 79.4443 199.542C78.8452 199.542 78.2531 199.542 77.647 199.542C77.5564 199.542 77.4659 199.542 77.3753 199.542C77.2708 199.27 77.1733 198.984 77.0758 198.712C76.3785 196.945 75.7944 195.133 75.3272 193.288C74.6067 190.419 73.4876 187.672 72.0043 185.131C71.058 183.673 69.9577 182.326 68.7231 181.117C67.6503 180.029 65.1563 178.104 64.8568 180.852C64.7244 182.347 65.2469 183.793 65.637 185.21C66.0098 186.405 66.2254 187.647 66.2779 188.902V189.002C66.069 188.694 65.846 188.387 65.5813 188.086C64.0835 186.405 62.6345 184.68 61.081 183.077C59.9106 181.904 58.6985 180.773 57.5072 179.621C55.9189 178.075 54.3654 176.494 52.798 174.92C52.1214 174.126 51.3434 173.431 50.4852 172.852C50.1756 172.659 49.8326 172.53 49.4751 172.472H48.9526C48.6994 172.513 48.4653 172.635 48.2847 172.822C48.1042 173.008 47.9866 173.25 47.9494 173.51C47.8752 173.858 47.8541 174.215 47.8867 174.569C47.7627 174.394 47.6228 174.231 47.4688 174.083C46.5771 173.217 45.56 173.596 45.1002 174.691C45.0603 174.815 45.0278 174.942 45.0027 175.07V176.286C45.0533 176.605 45.1208 176.92 45.2047 177.231C45.0461 177.064 44.8476 176.943 44.629 176.88C44.4104 176.816 44.1795 176.813 43.9594 176.87C43.7393 176.928 43.5376 177.043 43.3747 177.206C43.2118 177.368 43.0934 177.572 43.0312 177.796C42.453 179.392 43.1636 181.131 43.7278 182.641C43.7836 182.769 43.8393 182.898 43.902 183.02C43.6143 183.245 43.3827 183.536 43.2265 183.871C43.0702 184.206 42.9937 184.574 43.0033 184.945C43.0033 186.376 43.9437 187.528 44.6264 188.694C45.6296 190.211 46.7164 191.678 47.7265 193.167C48.5486 194.269 49.4054 195.313 50.2831 196.394C49.4332 196.172 48.5416 196.072 47.7056 195.836C45.6157 195.328 43.4701 194.984 41.3453 194.569C39.2206 194.154 36.9913 193.646 34.8109 193.202C31.0003 192.473 24.3614 191.313 21.4355 188.651V188.63ZM69.35 221.682C69.3954 222.528 69.3954 223.376 69.35 224.222C69.35 224.222 69.35 224.265 69.35 224.286C61.2366 223.547 53.1091 222.812 44.9678 222.083H44.8285C43.6512 221.095 42.5296 220.043 41.408 218.991C40.3515 217.991 39.3754 216.904 38.4891 215.743C36.2282 212.922 34.1743 209.932 32.3448 206.798C30.6025 203.926 29.0299 200.948 27.6355 197.882C26.9389 196.251 26.3816 194.54 25.6989 192.873C25.5944 192.616 25.476 192.365 25.3576 192.158C27.8869 192.975 30.4592 193.644 33.0623 194.161C36.5455 194.877 39.952 195.635 43.4073 196.308C43.5118 196.558 43.6372 196.802 43.7557 197.023C45.1489 199.671 47.6081 201.453 49.8164 203.328C52.8329 205.803 56.0861 208.165 59.7922 209.345C60.3457 209.471 60.9235 209.413 61.4432 209.181C61.2621 209.009 61.0601 208.837 60.8581 208.673C60.6261 208.492 60.3705 208.345 60.0988 208.236C59.1179 207.866 58.1594 207.436 57.2287 206.948C55.4065 205.935 53.6744 204.76 52.0526 203.435C50.2553 202.004 48.4788 200.573 46.7999 198.991C45.9292 198.118 45.1141 197.281 44.2155 196.458L46.0337 196.809C47.5872 197.117 49.1128 197.61 50.6803 197.861C50.9397 197.883 51.2009 197.861 51.4535 197.796C53.3205 199.979 55.2432 202.09 57.0962 204.301C58.6637 206.147 60.4749 207.75 62.1329 209.51C63.7909 211.27 65.4559 212.802 67.2044 214.347C67.9011 215.063 68.6674 215.7 69.4198 216.337C69.239 218.12 69.2156 219.916 69.35 221.703V221.682ZM163.514 222.948C161.592 226.69 159.035 230.048 155.963 232.866L155.58 233.21L155.482 233.281C155.224 233.51 154.96 233.725 154.688 233.939C151.602 235.9 148.474 237.868 145.019 239.063C141.63 240.114 138.166 240.889 134.66 241.381C131.288 241.942 127.875 242.194 124.461 242.133C120.33 242.015 116.212 241.599 112.137 240.888C108.065 240.084 104.079 238.869 100.239 237.26C94.1155 234.948 88.6957 231.12 83.5197 227.12C82.7394 226.512 81.9243 225.947 81.1232 225.36C80.3772 224.829 79.6587 224.258 78.9706 223.65C75.9821 220.709 73.0771 217.696 69.977 214.884L67.8871 212.909C67.3014 212.272 66.622 211.734 65.8738 211.313C65.0727 210.598 64.2855 209.789 63.5401 208.973C61.9448 207.227 60.2033 205.632 58.6149 203.879C56.734 201.732 54.8461 199.585 53.0419 197.403C51.4471 195.625 49.9538 193.755 48.5694 191.8C47.218 189.789 45.6854 187.886 44.6543 185.66C44.4196 185.132 44.319 184.551 44.3617 183.972C44.3647 183.936 44.3647 183.9 44.3617 183.864C45.4451 185.937 46.7237 187.895 48.1793 189.71C49.0029 190.795 49.8844 191.832 50.8195 192.816C51.3217 193.494 52.043 193.966 52.8538 194.147C52.6726 192.823 51.4605 192.043 50.7639 191.049C50.109 190.269 49.4611 189.453 48.8272 188.63C47.3016 186.748 42.9824 180.379 44.32 178.054C44.9351 178.232 45.4929 178.576 45.9361 179.049C46.7864 180.795 47.7693 182.47 48.8759 184.057C50.103 185.928 51.4604 187.705 52.9373 189.374C53.6827 190.197 54.3306 191.22 55.4871 191.471C55.3199 190.147 54.1913 189.324 53.3972 188.315C52.0013 186.646 50.7144 184.885 49.5447 183.041C48.3047 180.973 46.807 178.934 46.3402 176.508C46.2823 176.168 46.245 175.823 46.2287 175.478C46.2497 175.241 46.3566 175.022 46.5283 174.862C46.6745 174.769 46.8906 174.948 47.0438 174.998C47.42 175.213 47.7822 175.435 48.1445 175.671C48.7227 177.947 50.4852 180.558 51.5232 182.111C52.8317 183.972 54.3234 185.688 55.9747 187.235C56.5375 187.884 57.1817 188.455 57.8904 188.93C58.134 189.045 58.3885 189.134 58.6497 189.195C58.5396 188.665 58.2999 188.173 57.9531 187.764C56.6016 186.333 55.1666 184.902 53.8778 183.406C52.4845 181.732 48.1236 175.75 49.1337 173.653H49.1755H49.2242C49.9792 173.829 50.65 174.273 51.1191 174.905C52.6657 176.465 54.2192 178.011 55.7448 179.592C58.0994 181.932 60.5446 184.165 62.7112 186.698C63.9003 188.143 65.2679 189.423 66.7795 190.505C66.9151 190.721 67.0874 190.91 67.288 191.063L67.3925 190.855C67.4488 190.876 67.5104 190.876 67.5667 190.855C67.5157 190.833 67.4704 190.799 67.4343 190.755C67.5356 190.546 67.6128 190.325 67.6642 190.097C67.734 189.707 67.734 189.306 67.6642 188.916C67.6303 187.768 67.4475 186.63 67.1208 185.532C66.7168 184.007 65.9435 182.476 66.1316 180.866C67.6781 181.667 68.8276 183.07 69.984 184.365C71.5287 186.394 72.6783 188.709 73.3696 191.184C73.9061 192.802 74.345 194.447 74.8048 196.093C75.1197 197.587 75.7499 198.991 76.6509 200.208C77.0688 201.331 78.0441 202.097 78.8034 202.991C80.5134 204.731 82.3158 206.372 84.2024 207.907C88.8211 211.485 93.4746 215.099 98.8317 217.417C105.269 219.864 111.928 222.376 118.874 222.383C126.718 222.526 135.029 218.805 138.923 211.571C139.499 210.427 139.965 209.229 140.316 207.993H140.456C142.19 207.993 143.939 207.642 145.66 207.75C150.926 207.994 156.125 209.065 161.076 210.927C162.661 211.477 164.201 212.156 165.681 212.959C166.174 213.151 166.706 213.21 167.227 213.131C166.287 216.521 165.044 219.814 163.514 222.97V222.948ZM168.642 203.499C168.502 205.923 168.209 208.335 167.764 210.719C167.597 211.492 167.409 212.272 167.2 213.038C167.062 212.57 166.815 212.143 166.482 211.794C166.148 211.445 165.737 211.184 165.284 211.034C164.339 210.54 163.359 210.121 162.351 209.782C160.491 209.117 158.638 208.387 156.722 207.914C151.846 206.769 146.767 205.768 141.765 206.483C141.359 206.569 140.959 206.681 140.567 206.82C141.576 202.018 141.442 197.038 140.177 192.301C139.908 191.412 139.48 190.582 138.916 189.854C138.874 189.811 138.812 189.718 138.749 189.703C138.836 189.931 138.879 190.174 138.874 190.419C138.937 191.328 138.965 192.301 139.104 193.217C139.372 194.551 139.575 195.898 139.71 197.252C140.056 200.75 139.763 204.284 138.846 207.671C138.742 207.742 138.643 207.818 138.547 207.9H138.777C138.328 209.365 137.688 210.761 136.875 212.05C132.103 219.256 123.019 221.811 114.924 220.637C110.097 219.824 105.37 218.478 100.824 216.623C98.6047 215.799 96.462 214.771 94.422 213.553C92.6276 212.497 90.9011 211.323 89.253 210.04C87.379 208.673 85.4981 207.328 83.7495 205.789C82.7673 204.909 81.7641 204.043 80.7749 203.17C79.7857 202.297 78.8034 201.231 77.7097 200.387C77.6835 200.333 77.6603 200.278 77.64 200.222C78.8039 200.794 80.0707 201.11 81.36 201.152C83.8052 201.238 84.8433 199.313 84.6622 197.031C84.5786 195.499 84.3765 193.975 84.2163 192.444C83.9553 189.114 83.5087 185.803 82.8787 182.526C82.405 180.337 81.9034 178.233 81.381 176.086C80.8585 173.939 80.3081 171.65 79.6324 169.467C78.9567 167.285 78.5247 165.174 77.9047 163.027C77.2081 160.458 76.6021 157.868 75.9263 155.299C76.2679 155.254 76.6056 155.182 76.9364 155.084C77.9396 154.576 78.8452 153.653 79.8344 153.074C81.0625 152.246 82.3398 151.498 83.659 150.834C84.7945 150.254 86.0066 149.71 87.1421 149.059C87.8057 148.625 88.4161 148.111 88.9604 147.528C88.9735 147.777 89.0351 148.02 89.1415 148.244C90.1377 150.834 92.4993 152.537 94.833 153.782C98.0211 155.423 101.495 156.396 105.053 156.644C109.885 156.796 114.671 155.639 118.93 153.288C120.415 152.402 121.796 151.343 123.047 150.133C123.219 149.902 123.351 149.643 123.437 149.367C125.171 151.034 127.617 151.614 129.909 151.9C132.333 152.158 134.785 151.743 137.202 151.864C138.424 151.932 139.616 152.284 140.686 152.895C141.995 153.61 143.284 154.326 144.524 155.177C145.442 155.861 146.419 156.458 147.443 156.959C147.737 157.108 148.063 157.179 148.39 157.167C148.822 157.617 149.219 158.104 149.665 158.533C150.675 159.485 151.818 160.265 152.793 161.252C155.092 163.493 157.249 165.884 159.251 168.408C162.089 172.533 164.347 177.047 165.96 181.818C167.139 185.552 168.009 189.382 168.558 193.267C168.852 196.677 168.88 200.106 168.642 203.521V203.499Z" fill="black"/>
<path d="M70.7646 223.764H69.3574V266.769H70.7646V223.764Z" fill="black"/>
<path d="M141.416 240.529H140.42V267.857H141.416V240.529Z" fill="black"/>
<path d="M14.7694 23.3901C15.2705 23.0256 15.4601 21.9759 15.6876 21.5045C16.0596 20.7408 16.4388 19.9798 16.8252 19.2215C17.6731 17.5771 18.5507 15.9327 19.5123 14.3404C20.0086 13.4842 20.5653 12.6653 21.1781 11.8902C21.4165 11.5997 21.8959 10.9364 22.3428 11.0049C23.0715 11.1146 23.4805 14.5048 22.8683 25.6457C25.577 25.9033 28.6243 27.3175 32.6196 28.6139C34.7432 29.3045 36 29.4114 36 29.9404C36 31.678 27.9986 33.5965 23.0769 33.5033C24.7021 41.7007 24.5287 44.6113 23.6024 44.9621C22.8927 45.2362 21.8065 43.9864 20.4549 42.416C18.2879 39.8918 16.14 33.1333 15.1865 33.9199C14.3739 34.6023 13.8484 35.5012 13.1875 36.3262C11.513 38.4251 9.46749 40.1909 7.15526 41.5335C6.23702 42.0679 4.39511 43.3615 3.44165 42.2077C3.32354 42.0485 3.24004 41.8659 3.19662 41.6718C3.15321 41.4776 3.15087 41.2764 3.18975 41.0813C3.26794 40.6914 3.40305 40.3155 3.59063 39.9658C5.37836 36.1919 6.42391 33.7417 8.6044 30.187C8.91048 29.6882 9.48472 29.2086 9.2301 28.5618C9.05889 28.2138 8.80591 27.9136 8.49334 27.6875L2.24983 22.3459C1.91105 22.0808 1.60784 21.7722 1.34785 21.4278C1.08527 21.0809 0.964095 20.6454 1.00926 20.2109C1.22596 18.7995 2.87283 19.5532 3.73419 19.7395C4.8899 19.9917 6.03386 20.2931 7.16609 20.6439C9.40306 21.3379 11.5778 22.2227 13.6669 23.2887C13.8578 23.4012 14.0655 23.4817 14.2818 23.5272C14.368 23.5384 14.4555 23.5321 14.5393 23.5086C14.623 23.4851 14.7013 23.4448 14.7694 23.3901Z" fill="#FDEE93" stroke="black" stroke-miterlimit="10"/>
</g>
<defs>
<clipPath id="clip0_396_12710">
<rect width="170" height="266" fill="white"/>
</clipPath>
</defs>
</svg>
