<svg width="135" height="129" viewBox="0 0 135 129" fill="none" xmlns="http://www.w3.org/2000/svg">
<g clip-path="url(#clip0_599_5045)">
<path d="M60.9207 56.8875C65.7074 59.4381 69.3955 63.1323 73.6115 66.5362C77.8275 69.9402 82.0684 73.3583 86.2628 76.8137C89.4001 79.3902 92.7134 84.0862 96.718 85.3177C98.8013 85.9525 99.4351 84.9516 100.364 83.2069C100.716 82.5437 98.7173 82.2993 98.3938 82.9129C97.3189 84.9472 96.6894 84.059 94.893 82.5559C93.4188 81.3157 92.1377 79.8493 90.6882 78.5729C87.4886 75.756 84.1052 73.132 80.7902 70.4696C74.7922 65.5882 69.1559 59.802 62.3502 56.1817C61.7801 55.878 59.8912 56.347 60.9006 56.8818L60.9207 56.8875Z" fill="black"/>
<path d="M95.2687 19.5906C95.1779 19.7089 95.0804 19.8253 94.9829 19.9417L96.7055 19.7063C92.3191 17.9364 88.0127 15.8296 83.1551 15.7388C78.7088 15.692 74.3359 16.8612 70.5103 19.1195C65.89 21.7763 61.7567 25.5471 57.8845 29.1828C54.161 32.6734 49.2451 36.6919 47.5409 41.6618C47.5113 41.7291 47.505 41.8043 47.5227 41.8756C47.5405 41.9469 47.5815 42.0103 47.6392 42.056C49.8584 43.9006 52.8271 44.1011 55.5108 44.8038C56.9462 45.2065 58.3816 45.6093 59.8563 45.8721C62.133 46.3313 64.6375 46.1068 66.8245 46.7061C67.5389 46.9065 69.1321 46.182 67.8684 45.8346C64.9909 45.0272 62.0076 45.2898 59.0897 44.6005C56.7935 44.1738 54.5217 43.6252 52.2839 42.9568C49.8526 42.0733 49.5872 41.0429 50.8453 39.0743C51.8706 37.6106 53.0404 36.2533 54.3372 35.0229C56.3624 32.9389 58.382 30.8749 60.4963 28.9095C64.7227 25.0641 69.2535 20.801 74.6041 18.4929C81.9302 15.3304 88.2859 17.6025 95.2292 20.3989C95.5022 20.5408 95.8117 20.5975 96.1172 20.5614C96.4228 20.5254 96.7103 20.3983 96.9423 20.1968C97.0398 20.0804 97.1306 19.9621 97.2262 19.8524C97.6445 19.3372 95.7056 19.0088 95.258 19.5517L95.2687 19.5906Z" fill="black"/>
<path d="M69.8078 63.126C67.3962 65.2963 64.8221 67.2796 62.1078 69.0586C60.8702 69.8757 56.5966 72.3494 56.5995 74.1615C56.5981 75.7064 59.6028 76.7795 60.6387 77.4511C64.1527 79.7381 67.5891 82.147 71.0785 84.4702C73.81 86.286 76.3521 88.3146 79.0389 90.161C79.9336 90.7714 80.9476 91.6238 82.0805 91.1798C83.8396 90.4803 84.6294 86.9212 85.2464 85.4412C86.4218 82.5869 87.8853 79.8351 88.4005 76.7668C88.5141 76.0799 86.6294 76.0974 86.3997 76.6079L86.3511 76.7811C86.0253 77.4803 88.033 77.6915 88.3145 77.0733L88.3632 76.9001L86.3624 76.7412C85.9152 79.541 84.633 82.006 83.5447 84.5756C83.0725 85.6937 82.6785 86.841 82.1681 87.9412C82.1681 87.9412 80.4233 90.6429 81.732 90.1117C81.0734 90.3797 76.8582 86.5879 75.9972 86.0372C73.5716 84.415 71.1346 82.8328 68.7565 81.1952C66.6549 79.7526 64.5452 78.3221 62.4273 76.9036C61.7353 76.4435 60.2841 75.7632 59.7292 75.0972C59.0736 75.021 58.9031 74.6785 59.2247 74.0716C59.1743 73.8063 59.2169 73.5319 59.3452 73.2944C59.4734 73.0569 59.6797 72.8707 59.9293 72.7671C61.3402 70.8701 63.8207 69.7046 65.7214 68.3979C67.788 66.9507 69.7536 65.365 71.6048 63.6518C72.273 63.0415 70.3217 62.6808 69.8468 63.1154L69.8078 63.126Z" fill="black"/>
<path d="M64.0175 84.2497C59.3328 80.6424 50.884 86.1636 47.8402 89.773C47.5459 90.1289 48.3901 90.3801 48.5474 90.4099C49.2393 90.5215 49.9435 90.5352 50.639 90.4505C50.341 90.4603 54.3696 90.297 54.5587 90.5728C55.3553 91.7379 51.2232 97.0185 50.6741 98.1798C49.6071 100.468 49.3972 102.731 49.0788 105.2C48.9105 106.518 47.867 110.366 48.665 111.603C50.0334 113.734 53.5183 110.528 54.4997 109.905C56.7815 108.447 59.2508 106.962 61.4013 105.33C63.3383 103.868 64.6234 101.957 66.1767 100.143L64.3115 100.245C66.5657 101.863 64.5672 105.392 66.2822 106.98C66.5164 107.137 66.7875 107.232 67.0689 107.254C67.3504 107.277 67.6328 107.226 67.8886 107.107C69.7821 106.057 70.7618 103.105 71.1141 101.105C71.8016 97.1145 71.2051 92.3615 68.9111 88.9866C67.86 87.4194 65.7612 84.2214 63.6819 84.1627C61.3283 84.106 59.1826 87.5434 58.4789 89.3584C58.3229 89.7603 58.8859 89.9614 59.186 89.9953C60.8784 90.1004 62.5755 89.897 64.1942 89.3952L62.6969 88.8026C61.6659 92.3227 57.1037 94.0542 55.693 97.6187C55.6425 97.7986 55.6791 97.8735 55.7913 98.0128C59.2672 102.129 70.6507 91.2572 66.9835 87.1807C66.5476 86.7062 64.5853 86.975 65.21 87.6749C67.9996 90.7721 58.9212 98.6395 57.8803 97.3699C57.3435 96.7161 64.2057 90.6635 64.6632 89.1099C64.8614 88.4037 63.5606 88.4196 63.1659 88.5173C62.0431 88.7781 60.899 88.9382 59.7474 88.9956L60.4479 89.6306C61.0699 88.0298 62.5586 85.5222 64.3287 85.0917L62.9429 84.8969C66.2928 87.6913 68.7276 91.2063 69.1355 95.6046C69.4012 98.4823 69.5776 104.656 66.458 106.353L68.0662 106.474C67.4365 105.895 67.6292 103.412 67.4724 102.584C67.2481 101.407 67.1261 100.482 66.1089 99.7435C65.8326 99.5457 65.4971 99.448 65.1579 99.4666C64.8187 99.4851 64.4962 99.6188 64.2437 99.8454C62.2643 102.292 59.9396 104.438 57.3422 106.218C54.945 107.831 52.3048 110.49 49.5655 111.345L50.9513 111.54C50.1269 110.885 50.8179 107.729 50.8999 106.847C51.1283 104.467 51.3451 101.717 52.1971 99.4768C53.3338 96.5039 56.6438 93.537 56.9091 90.3842C56.9539 90.2243 56.7305 90.0969 56.6148 90.0213C54.4485 88.63 51.4883 89.8623 49.1251 89.4292L49.8323 90.066C51.851 87.6712 59.0863 82.291 62.2726 84.7448C62.7765 85.1305 64.7376 84.7895 64.0395 84.2487L64.0175 84.2497Z" fill="#9D85F4"/>
<path d="M117.266 7.82362C118.552 10.5278 120.358 12.9539 122.58 14.964C124.331 16.4256 126.558 17.2158 128.101 18.7989C128.257 18.9049 128.438 18.9685 128.625 18.9834C128.813 18.9983 129.002 18.9639 129.172 18.8837L129.506 18.7473C130.19 18.4649 128.967 18.1002 128.549 18.256L128.215 18.3924L129.28 18.4754C127.821 16.9737 125.749 16.2485 124.099 14.9158C121.665 12.939 120.033 10.4113 118.586 7.66214C118.369 7.25614 117.038 7.37869 117.266 7.82362Z" fill="black"/>
<path d="M36.1634 99.3553C28.4545 107.219 19.5906 114.579 13.7097 123.961C13.3574 124.524 14.7066 124.644 14.9684 124.609C15.6307 124.508 15.9113 124.457 16.1736 123.805C16.4359 123.152 14.4564 122.891 14.2102 123.512L14.4393 123.62L15.698 124.268C21.5156 114.982 30.3245 107.664 37.9519 99.8858C38.6065 99.2214 36.6494 98.8807 36.1938 99.3494L36.1634 99.3553Z" fill="black"/>
<path d="M92.5949 57.9076L92.6784 58.4006C97.3834 57.6035 101.5 54.4989 101.5 49.5274C101.5 47.0697 100.563 45.1283 98.9746 43.662C97.4003 42.2089 95.2082 41.2414 92.7089 40.6561L92.7084 40.656C90.2095 40.0736 88.239 41.1784 86.7787 42.9406C85.3321 44.6864 84.3369 47.1234 83.712 49.3948C83.0353 51.855 84.0404 54.332 85.79 56.0595C87.5402 57.7877 90.1045 58.8394 92.6789 58.4005L92.5949 57.9076ZM92.5949 57.9076C97.1708 57.1324 101 54.1571 101 49.5274C101 44.8978 97.4964 42.2906 92.5949 41.143C88.0798 40.0906 85.4271 45.045 84.1941 49.5274C82.9612 54.0098 87.8193 58.7218 92.5949 57.9076Z" fill="#9D85F4" stroke="black"/>
<path d="M113.442 37.392C111.98 38.3689 109.958 38.5 108.076 38.5C105.873 38.5 103.668 37.4555 102.214 35.9319C100.76 34.4069 99.9878 32.3119 100.878 30.253C101.934 27.7779 102.853 26.3079 103.987 25.4787C105.143 24.6339 106.446 24.5102 108.073 24.5002L113.442 37.392ZM113.442 37.392C114.974 36.3682 115.76 34.5215 115.422 31.4474M113.442 37.392L115.422 31.4474M115.422 31.4474C115.008 27.6718 112.159 24.4743 108.073 24.5002L115.422 31.4474Z" fill="#9D85F4" stroke="black"/>
<path d="M63.3914 56.3448C63.2323 53.9857 65.7665 51.6277 67.0388 49.8141C68.7214 47.4112 70.5188 45.1124 72.4403 42.8844C76.2824 38.2362 80.4717 33.8855 84.9724 29.8694C93.7656 22.2742 103.65 16.6671 113.806 11.1215C118.381 8.6247 123.005 6.08393 127.757 3.93146C128.483 3.60326 130.561 2.56202 130.955 2.67255C132.097 2.9929 131.722 2.99542 131.676 4.03191C131.51 5.00264 131.259 5.95684 130.926 6.88343C130.242 9.73183 129.66 12.6017 128.934 15.4455C125.971 27.1348 121.411 38.3545 116.375 49.2967C113.768 54.9407 110.99 60.2203 107.888 65.6031C104.69 71.1745 102.26 77.0906 99.1263 82.6874C98.7724 83.3069 100.755 83.5828 101.096 82.9815C104.228 77.3914 106.668 71.4419 109.858 65.8972C113.049 60.3524 115.918 54.8252 118.625 48.9507C124.152 36.953 128.908 24.624 131.892 11.7043C132.218 10.2864 132.509 8.86571 132.848 7.4515C133.187 6.03729 133.969 4.48146 133.992 3.09331C134.002 2.00373 133.833 1.55379 132.69 1.2905C131.217 0.942068 129.342 1.90355 128.05 2.42522C125.063 3.59957 122.229 5.20491 119.378 6.662C108.239 12.3267 97.324 18.191 87.4265 25.8718C81.7708 30.3723 76.5675 35.4116 71.8899 40.9187C69.6351 43.5132 67.4499 46.1416 65.4562 48.9603C64.0004 51.0172 61.2142 53.6063 61.3853 56.2562C61.432 56.9881 63.4747 56.9719 63.4302 56.2838L63.3914 56.3448Z" fill="black"/>
<path d="M122.136 38.4933C126.221 44.4695 129.881 51.3688 130.899 58.5976C131.917 65.8265 129.025 72.7704 126.298 79.4084C125.001 82.5174 123.46 85.5193 121.691 88.3865C121.33 89.0041 120.465 91.4711 119.823 91.9092C118.03 93.1669 116.71 90.1729 115.974 89.1255C111.99 83.5082 108.389 77.6536 106.43 71.059C106.239 70.4304 104.224 70.5264 104.453 71.3022C105.706 75.3708 107.468 79.2656 109.699 82.8942C111.668 86.1421 113.775 89.9533 116.288 92.7787C120.48 97.4482 123.628 88.7719 125.206 86.1242C127.364 82.3752 129.136 78.4173 130.494 74.311C131.804 70.5169 133.327 66.0639 133.257 62.0265C133.111 53.461 128.822 45.185 124.088 38.236C123.7 37.6672 121.718 37.9018 122.116 38.4877L122.136 38.4933Z" fill="black"/>
<path d="M124.251 6.16038C123.014 6.25876 122.317 6.78934 121.33 7.56168L122.512 7.89327C123.35 7.06138 124.25 6.2927 125.202 5.59355C125.707 5.23205 124.402 5.03123 124.141 5.16638C122.719 5.84007 121.333 6.5885 119.99 7.40853L121.165 7.73825C121.9 7.14305 122.758 6.71625 123.677 6.48794L122.678 6.09282C122.529 6.73109 122.146 7.29033 121.605 7.66036C121.108 8.14636 122.448 8.17019 122.668 8.08085C123.77 7.67121 124.635 6.7425 125.708 6.33202L124.567 6.01168C123.75 7.09673 122.819 8.09097 121.79 8.97727C121.307 9.4385 122.673 9.52689 122.972 9.30886C124.731 8.17105 126.076 6.58623 127.784 5.45529L126.536 5.17721C126.138 6.59642 125.084 7.35004 124.18 8.44052C123.276 9.531 122.668 10.7258 121.533 11.5358L122.715 11.8674C124.026 10.5033 125.378 9.17896 126.693 7.80152C127.697 6.78953 128.869 4.97632 130.021 4.20709L128.78 3.93088C127.441 7.2422 124.524 9.50009 122.601 12.425C122.579 12.469 122.573 12.5196 122.585 12.5677C122.596 12.6157 122.625 12.6581 122.665 12.6871C125.172 14.5838 129.516 6.41585 130.797 5.54625L129.559 5.26339C128.701 8.32169 125.316 10.1176 124.104 13.0766C123.89 13.6061 125.113 13.561 125.342 13.3594C127.643 11.3456 128.873 8.47783 131.051 6.33619L129.81 6.05998C128.855 7.71826 127.746 9.26122 126.789 10.8976L128.096 11.0918C128.724 9.95969 132.136 5.93614 129.229 5.51578C128.136 5.35305 126.98 6.26489 126.131 6.80278C124.309 7.93039 122.912 9.49355 121.207 10.7471L122.388 11.0787C123.455 10.1777 124.711 8.93457 124.137 7.41487C124.089 7.22057 124.003 7.03757 123.884 6.87636C123.765 6.71515 123.616 6.57886 123.444 6.47531C123.272 6.37176 123.082 6.30297 122.884 6.27285C122.686 6.24274 122.484 6.2519 122.289 6.29982C118.729 7.33493 124.112 13.6394 124.951 14.7805L126.201 14.5347C124.572 12.6401 123.314 9.57745 121.046 8.34439C120.791 8.20095 120.054 8.13082 119.906 8.4775C119.229 10.07 121.909 12.7122 123.552 11.6566C125.362 10.49 121.972 7.94307 120.882 7.56546C120.729 7.51258 120.565 7.49523 120.403 7.51468C120.242 7.53413 120.087 7.5899 119.951 7.67777C117.857 9.49106 121.325 11.7363 122.895 12.3781C123.166 12.4901 123.868 12.6079 124.035 12.245C125.216 9.70157 116.736 7.12086 120.619 13.0979C121.324 14.1797 122.849 15.8799 124.238 14.832C125.756 13.6838 124.071 8.85549 122.78 8.04044C121.206 7.0526 120.51 8.43124 120.666 9.87664C120.88 11.9635 122.777 15.7014 125.235 15.8736C129.08 16.1332 127.929 8.83832 125.378 11.436C124.27 12.5625 124.38 15.3248 126.289 15.3501C128.873 15.3563 129.859 10.9684 129.483 9.1018C129.412 8.76554 128.867 8.72788 128.619 8.766C126.741 9.01538 125.354 13.5999 126.955 14.696C127.13 14.81 127.333 14.8719 127.542 14.8743C127.75 14.8768 127.955 14.8199 128.132 14.7101C129.835 13.3406 130.992 10.5748 131.194 8.44621C131.231 8.00397 129.985 7.97782 129.856 8.33679C129.427 9.62623 129.097 10.9466 128.87 12.2864C128.636 13.5072 127.949 14.9029 128.174 16.1018C128.254 16.534 129.043 16.4965 129.334 16.3555C130.174 15.9299 130.436 15.306 129.864 14.4699C129.636 14.1257 129.052 14.1776 128.729 14.3026C127.991 14.5985 127.037 15.2005 126.289 14.8614L125.328 15.3104C126.539 15.8444 127.756 15.9486 129.001 16.413C129.335 16.5067 130.49 16.2413 129.867 15.8941C128.54 15.1838 127.618 13.926 126.261 13.3442C126.034 13.2805 124.881 13.1294 125.12 13.6637C125.652 15.0276 128.898 17.6779 130.497 16.7537C130.626 16.6819 130.746 16.5863 130.677 16.4231C130.066 15.03 128.28 13.4146 126.633 14.3827C124.744 15.4916 126.818 16.8282 127.961 17.35C128.13 17.4317 128.318 17.4692 128.506 17.4591C128.694 17.449 128.876 17.3916 129.036 17.2923C129.639 16.7859 129.71 15.8643 130.055 15.1203C130.238 14.726 129.431 14.6504 129.225 14.6931C128.056 14.9044 126.24 15.2933 125.453 14.0445C124.778 12.9568 127.238 10.3767 127.629 9.93292C128.911 8.49574 130.406 7.24781 130.631 5.24083C130.685 4.73861 129.572 4.90774 129.366 5.05122C127.884 6.07283 127.296 7.70486 126.448 9.26382C126.188 9.72982 127.463 9.77863 127.689 9.54001C129.53 7.59848 131.488 5.52432 132.54 3.03089C132.711 2.62611 131.944 2.59036 131.703 2.60183C129.125 2.85606 127.294 5.76349 124.968 6.68502L126.031 7.10552C127.052 6.12486 128.198 5.28401 129.441 4.60503C130.186 4.31946 130.871 3.89741 131.461 3.36058C131.879 2.89582 130.789 2.80533 130.536 2.8853C128.612 3.50281 126.798 4.55339 124.816 4.96768L125.742 5.44294C126.614 4.67593 127.631 4.08912 128.732 3.71624L127.597 3.39775C126.885 4.10241 126.028 4.64415 125.085 4.98558C124.379 5.3194 125.68 5.61246 126.042 5.47688C126.989 5.10307 127.751 4.51896 128.626 4.09601C129.887 3.52978 130.772 2.86529 130.091 4.80193C129.611 6.15494 128.743 7.29852 128.374 8.69004C128.256 9.1098 129.534 9.12344 129.707 8.79091C130.389 7.48745 131.148 6.21978 131.851 4.92194L130.538 4.72589C129.754 6.89413 129.229 9.1469 128.971 11.438C128.915 11.8965 130.145 11.8751 130.309 11.5474C130.937 10.286 132.721 7.31508 131.926 5.78395C131.72 5.38836 130.845 5.48044 130.613 5.76759C129.117 7.68389 128.683 10.2575 127.719 12.4881C127.51 12.9758 128.813 13.0539 129.032 12.6841C130.2 10.7045 131.962 8.27373 131.067 5.84459C130.957 5.54082 130.289 5.56169 130.068 5.62917C129.079 5.94803 128.995 6.47793 128.401 7.3608C127.088 9.32102 125.931 11.2891 124.787 13.3618C124.549 13.7982 125.879 13.9628 126.101 13.5578C126.907 12.0951 127.658 10.5736 128.576 9.17786C129.004 8.52196 129.958 6.48243 130.749 6.23001L129.753 6.00793C130.556 8.28154 128.812 10.6458 127.719 12.4881L129.032 12.6841C129.982 10.4782 130.432 7.87325 131.918 5.9684L130.604 5.95208C131.257 7.22046 129.512 10.2815 128.984 11.3409L130.322 11.4504C130.595 9.22552 131.103 7.03598 131.838 4.91819C132.03 4.41159 130.732 4.34195 130.524 4.72217C129.817 6.01148 129.085 7.28661 128.387 8.593L129.718 8.70054C130.011 7.65446 132.885 3.70256 131.343 2.60145C129.707 1.42373 126.228 4.53012 125.072 4.98183L126.028 5.47313C127.113 5.07357 128.092 4.43101 128.889 3.59482C129.234 3.15983 127.91 3.18348 127.747 3.27448C126.562 3.66676 125.472 4.30073 124.546 5.13616C124.103 5.60863 125.241 5.66185 125.471 5.61144C127.453 5.19715 129.259 4.15135 131.19 3.52906L130.265 3.05378C129.541 3.86399 128.469 4.06626 127.578 4.62143C126.575 5.26065 125.643 6.00357 124.796 6.83788C124.311 7.33429 125.637 7.35436 125.864 7.26689C127.873 6.47219 129.834 3.56518 132.003 3.3545L131.172 2.92731C130.152 5.35786 128.251 7.38332 126.46 9.27424L127.7 9.55042C128.501 8.10766 129.06 6.50334 130.472 5.52671L129.205 5.34377C128.885 8.22963 122.702 11.4254 124.162 14.6669C125.084 16.7442 127.925 15.7587 129.523 15.4525L128.685 15.0234L127.927 16.0325C127.862 16.086 127.782 16.2147 127.854 16.2923C127.835 16.5386 127.823 16.7868 127.805 17.0331L128.871 16.9802C127.982 16.5799 129.222 16.4748 129.167 16.129C129.181 16.0824 128.381 15.5704 128.059 15.3293C127.361 14.9072 126.784 14.3119 126.384 13.6013L125.244 13.9141C126.531 14.4621 127.597 15.7962 128.85 16.464L129.705 15.9851C128.589 15.5715 127.399 15.4747 126.302 14.9944C125.923 14.8306 124.651 15.1564 125.341 15.4434C127.112 16.2422 128.034 15.5738 129.703 14.9136L128.569 14.7463C128.505 15.1525 128.448 15.5606 128.383 15.9735L129.543 16.2272C129.383 15.3342 129.834 14.3683 130.021 13.5223C130.3 11.8747 130.684 10.2468 131.173 8.6488L129.835 8.53938C129.658 10.452 128.526 13.2034 126.963 14.4612L128.141 14.4752C127.264 13.8771 127.836 9.68201 128.959 9.52992L128.104 9.18936C128.38 10.5055 128.167 11.8763 127.505 13.0461C126.887 14.1164 125.871 15.1969 126.123 13.1974C126.345 11.5061 126.583 11.8892 126.343 13.1299C126.244 13.4831 126.301 14.4621 125.977 14.7163C124.802 15.6444 123.619 13.7023 123.149 12.9884C122.914 12.6205 121.637 9.08535 121.994 9.07054C122.488 9.07987 123.416 12.3949 123.417 12.7762C123.402 15.2443 121.755 13.0285 121.329 11.9027C120.276 9.16333 123.285 10.9133 122.705 12.1308L123.845 11.9976C123.765 11.9752 119.349 9.25564 120.897 8.71958C121.257 8.97025 121.592 9.25439 121.898 9.56817C122.859 11.2754 120.581 10.205 121.197 8.7535L120.056 8.8933C122.243 10.082 123.438 13.1127 125.005 14.9467C125.249 15.2309 126.526 15.0715 126.255 14.7009C125.223 13.2468 123.911 11.966 123.173 10.2854C122.81 9.42173 122.582 8.33697 122.739 8.00735C123.185 8.29069 123.124 8.74065 122.563 9.35243C122.187 9.9143 121.719 10.4097 121.18 10.8185C120.707 11.2179 122.027 11.4158 122.361 11.1501C123.535 10.2791 126.412 6.72363 127.946 6.85218C128.355 6.37034 128.576 6.40364 128.631 6.97956C128.686 7.04128 128.728 7.11434 128.753 7.1937C128.778 7.27306 128.785 7.35682 128.774 7.4392C128.763 7.52159 128.735 7.60062 128.69 7.67088C128.646 7.74113 128.587 7.80093 128.517 7.84613C128.302 8.84245 127.282 10.0656 126.788 10.9547C126.543 11.3892 127.868 11.5453 128.095 11.1489C129.051 9.51243 130.165 7.97801 131.122 6.31307C131.383 5.84707 130.104 5.81158 129.875 6.03501C127.727 8.17082 126.469 11.0378 124.173 13.0601L125.414 13.3363C126.602 10.385 129.991 8.62619 130.869 5.52312C131.029 4.95011 129.881 5.06619 129.628 5.24694C128.338 6.12133 127.633 7.63403 126.684 8.83403C126.105 9.56282 124.372 10.8878 124.042 11.7297C123.616 12.8391 124.671 11.6186 125.118 11.2336C125.708 10.5848 126.246 9.88949 126.724 9.15428C128 7.58592 129.32 6.08772 130.092 4.18397C130.313 3.62782 129.075 3.75473 128.845 3.90591C127.523 4.79279 126.627 6.36714 125.524 7.50219C124.199 8.86255 122.851 10.2021 121.539 11.5662C121.073 12.0464 122.416 12.1358 122.72 11.8978C123.766 11.149 124.285 10.1447 125.074 9.15836C126.121 7.86382 127.402 7.04461 127.883 5.38262C128.044 4.80961 126.898 4.94089 126.643 5.10644C124.941 6.21739 123.558 7.83467 121.831 8.95999L123.012 9.29158C124.096 8.35862 125.074 7.30976 125.928 6.16378C126.239 5.69757 124.954 5.76098 124.787 5.84344C123.685 6.25309 122.871 7.15304 121.746 7.59225L122.808 8.01941C123.346 7.55002 123.76 6.9553 124.014 6.28782C124.195 5.8212 123.25 5.85083 123.015 5.8927C121.922 6.15809 120.905 6.66899 120.04 7.38648C119.554 7.73173 120.873 7.95816 121.215 7.71619C122.491 6.94734 123.806 6.244 125.155 5.60895L124.092 5.18846C123.135 5.88464 122.233 6.6528 121.394 7.48628C120.936 7.93981 122.264 8.08254 122.576 7.81788C123.169 7.2758 123.893 6.89699 124.678 6.71855C125.592 6.64435 124.957 6.00623 124.323 6.05833L124.251 6.16038Z" fill="black"/>
<path d="M44.9883 75.7834C37.5444 77.9282 32.0332 84.9924 26.9696 90.4357C21.0196 96.8306 15.1583 103.423 9.64171 110.198C7.94129 112.28 -2.942 125.707 1.64954 127.362C2.0301 127.469 2.92368 127.518 3.17179 127.07C3.26046 126.908 3.34911 126.746 3.43297 126.576C3.77803 125.911 1.78445 125.675 1.46289 126.282C1.41428 126.455 1.29034 126.614 1.20835 126.778L2.73061 126.487C0.570368 125.715 10.5892 111.801 11.7844 110.339C17.0635 103.871 22.654 97.5767 28.3236 91.4625C33.2091 86.1921 38.8584 78.764 46.0493 76.6992C47.3246 76.3383 45.7473 75.5939 45.0265 75.8013L44.9883 75.7834Z" fill="black"/>
</g>
<defs>
<clipPath id="clip0_599_5045">
<rect width="135" height="129" fill="white"/>
</clipPath>
</defs>
</svg>
