<svg width="156" height="116" viewBox="0 0 156 116" fill="none" xmlns="http://www.w3.org/2000/svg">
<g clip-path="url(#clip0_396_12941)">
<path d="M155.551 63.2788C155.581 61.9127 155.47 60.5472 155.22 59.204C154.993 57.896 154.623 56.617 154.116 55.3902C153.791 54.2418 153.082 53.2393 152.108 52.5499C151.657 51.6753 151.119 50.8482 150.503 50.081C149.247 48.4312 147.799 46.9385 146.187 45.6349C142.708 42.8942 138.872 40.6388 134.786 38.9306C127.111 35.4476 118.846 33.4486 110.427 33.0393C106.962 32.9419 103.495 33.1265 100.06 33.5913C97.2224 33.8791 94.4273 34.492 91.7297 35.4179C91.6555 35.3151 91.5481 35.2411 91.4256 35.2082C91.3031 35.1753 91.173 35.1855 91.0573 35.2372C89.7206 34.0717 88.2559 33.0616 86.6915 32.2263C84.905 31.0521 83.0985 29.928 81.2418 28.8742C78.0201 27.0376 74.7181 25.3414 71.3359 23.856C65.8619 21.3045 60.0943 19.4371 54.1637 18.2959C49.7348 17.4362 45.1947 17.3108 40.7251 17.9246C37.5184 18.3339 34.4075 19.2984 31.5317 20.7749C29.5677 21.8041 27.9435 23.3796 26.8548 25.3113C26.7101 25.369 26.5872 25.4709 26.5035 25.6023C24.416 28.9545 22.489 32.4471 20.562 35.8595C18.2871 39.7937 16.0457 43.7514 13.8377 47.7325C11.6799 51.6266 9.52209 55.5307 7.30406 59.4047C6.19003 61.3317 5.05586 63.2486 3.92176 65.1656C2.69849 66.9935 1.60523 68.9051 0.649963 70.8863C0.612869 70.9758 0.60552 71.0748 0.629014 71.1688C0.652507 71.2628 0.705602 71.3467 0.780441 71.4082C0.705137 71.4768 0.648429 71.5634 0.615721 71.6599C0.583012 71.7564 0.575373 71.8596 0.593423 71.9599C0.611473 72.0602 0.654635 72.1543 0.718939 72.2333C0.783242 72.3123 0.866577 72.3737 0.961087 72.4118C1.18189 73.9674 1.64355 75.4227 1.89446 77.0085C2.03506 77.8675 2.09553 78.7377 2.07511 79.6079C2.03233 80.2051 1.94849 80.7986 1.8242 81.3843C1.493 81.3843 1.17184 81.4646 0.820564 81.5248C0.238456 81.6252 0.389016 82.5285 0.961087 82.5285H1.7238C1.74802 82.5616 1.77973 82.5886 1.81636 82.6072C1.85298 82.6258 1.8935 82.6355 1.93458 82.6355C1.97566 82.6355 2.01618 82.6258 2.05281 82.6072C2.08943 82.5886 2.12115 82.5616 2.14537 82.5285C9.60015 82.6818 17.0207 83.5829 24.2956 85.2182C31.8574 86.6971 39.327 88.614 46.6665 90.959C48.0817 91.4206 49.4566 91.9626 50.8416 92.5447C52.046 93.0465 53.2604 93.5484 54.4347 94.1606C55.6089 94.7728 56.8735 95.7664 58.1682 96.4288C58.203 96.504 58.2545 96.5703 58.3188 96.6225C58.3832 96.6747 58.4588 96.7114 58.5396 96.7299C61.42 97.3822 64.3606 97.5529 67.3816 98.2454C75.7203 100.25 83.8805 102.935 91.7799 106.274C95.1421 107.659 98.4741 109.145 101.816 110.67C103.723 111.554 105.613 112.457 107.487 113.38C109.384 114.314 111.321 115.598 113.418 115.98C113.55 116.003 113.686 115.985 113.808 115.93C113.93 115.874 114.032 115.783 114.101 115.668C114.158 115.637 114.208 115.594 114.248 115.542C114.287 115.49 114.316 115.431 114.332 115.367C114.352 115.214 114.352 115.059 114.332 114.906C116.118 112.627 118.075 110.49 119.922 108.272C123.174 104.371 126.442 100.49 129.727 96.6295C136.532 88.6004 143.236 80.5714 150.021 72.5423L153.574 68.3371C153.976 67.8892 154.355 67.4202 154.708 66.932C154.777 66.8766 154.835 66.8085 154.878 66.7313C154.949 66.6108 154.989 66.4804 155.049 66.3499C155.109 66.2194 155.27 65.9886 155.139 66.1391C155.426 65.2133 155.565 64.2479 155.551 63.2788ZM152.189 56.1429C152.299 55.9781 152.399 55.8072 152.49 55.6311L152.56 55.5207C152.56 55.6411 152.67 55.7515 152.721 55.8719C153.012 56.5697 153.254 57.2875 153.443 58.0197C151.024 60.7697 148.877 63.7505 146.508 66.5506C143.678 69.8927 140.978 73.3352 138.268 76.7776C135.558 80.2201 132.728 83.4518 129.908 86.7638C127.088 90.0758 124.498 93.3275 121.598 96.4388C118.384 99.6564 115.368 103.065 112.565 106.646C112.334 105.783 112.093 104.92 111.853 104.056C113.619 101.808 115.566 99.6805 117.393 97.4826C120.638 93.5818 123.906 89.7011 127.198 85.8404C134.003 77.8114 140.707 69.7823 147.482 61.7532L151.044 57.5279C151.45 57.0864 151.831 56.6241 152.189 56.1429ZM91.4688 37.1241C91.5692 36.9349 91.6596 36.7406 91.7397 36.5419C94.2187 36.1606 96.6776 35.6186 99.1767 35.3075C102.113 34.9378 105.069 34.7534 108.029 34.7555C112.492 34.7363 116.943 35.245 121.287 36.271C128.944 38.1377 136.693 41.0182 143.156 45.6048C145.002 46.8937 146.687 48.3999 148.174 50.091C148.901 50.9299 149.549 51.8336 150.111 52.7908C150.463 53.4948 150.876 54.1664 151.346 54.798C151.255 54.8783 151.145 54.9486 151.055 55.0389C150.696 55.37 150.361 55.7255 150.051 56.1028L147.11 59.5954L138.078 70.3744C131.052 78.7146 124.097 87.0649 117.312 95.5857C115.305 98.0948 113.298 100.654 111.552 103.344C111.497 103.304 111.435 103.276 111.37 103.261C111.304 103.245 111.237 103.243 111.17 103.253C110.312 102.312 109.356 101.465 108.32 100.724C107.015 99.7207 105.69 98.6569 104.305 97.7134C101.323 95.5438 98.108 93.7126 94.7206 92.2537C91.0699 90.694 87.2556 89.5493 83.3494 88.8413C79.208 87.977 74.9839 87.5731 70.7538 87.6369C67.9837 87.7674 64.6416 87.8076 62.0422 89.1123C63.1469 87.5023 64.1524 85.8265 65.0531 84.0941C67.4418 79.909 69.7903 75.7038 72.1388 71.4985C77.2975 62.245 82.4728 52.9982 87.665 43.7581C88.5984 42.092 89.5418 40.426 90.5153 38.7399C90.8264 38.1779 91.1777 37.666 91.4688 37.1241ZM111.19 106.214C110.204 105.484 109.175 104.814 108.109 104.207C105.423 102.524 102.646 100.993 99.7889 99.6203C92.1014 95.7752 83.8529 93.1736 75.3504 91.9124C70.5238 91.2297 65.6224 91.2703 60.8078 92.0329C60.9483 91.6916 61.0687 91.3504 61.2293 91.0292L61.3798 90.7382C64.1498 89.2528 67.3414 89.0721 70.4125 88.9417C74.4333 88.8741 78.4499 89.2307 82.3959 90.0055C89.6516 91.258 96.5385 94.1067 102.559 98.3457C104.034 99.3996 105.48 100.504 106.905 101.638C108.059 102.733 109.328 103.702 110.688 104.528H110.799C110.899 105.1 111.06 105.702 111.19 106.214ZM5.1061 66.0689C6.27032 64.172 7.39433 62.235 8.49833 60.308C10.7565 56.3737 12.9545 52.3893 15.1524 48.415C19.2573 40.978 23.5328 33.6415 27.7581 26.2647C27.8427 26.123 27.8747 25.956 27.8484 25.793C30.5281 21.7785 35.185 19.711 39.9522 19.2293C49.6373 18.2256 59.6435 21.0458 68.4855 24.7492C72.0952 26.2814 75.6197 28.0068 79.0438 29.918C80.9507 30.9718 82.8275 32.0758 84.7043 33.1898C85.7079 33.7619 86.6012 34.344 87.5245 34.9462C88.2731 35.4905 89.0577 35.9834 89.873 36.4215C89.6923 36.6925 89.5218 36.9735 89.3511 37.2545C88.5616 38.5927 87.7855 39.9309 87.0227 41.2691C84.6541 45.4141 82.3558 49.5892 80.0575 53.7744C74.949 63.0981 69.9208 72.472 64.8223 81.8058C63.4674 84.2949 62.1025 86.7738 60.8078 89.303C59.6168 87.5387 58.1295 85.9937 56.4119 84.7364C54.7165 83.357 52.9255 82.0993 51.0524 80.9728C47.4388 78.7715 43.6164 76.9326 39.6411 75.483C30.9037 72.316 21.7213 70.5479 12.4326 70.244C8.99711 69.9662 5.53949 70.1825 2.1654 70.8863C2.11632 70.8559 2.06179 70.8355 2.00484 70.8261C3.15003 69.3229 4.18644 67.7398 5.1061 66.0889V66.0689ZM2.67726 72.0004C5.40897 71.5467 8.18196 71.3919 10.9472 71.5387C15.739 71.6331 20.5153 72.1164 25.2289 72.9839C33.4509 74.3401 41.3803 77.0929 48.6738 81.1234C50.7731 82.3254 52.7584 83.7161 54.6053 85.2784C55.6089 86.0913 56.4921 86.9444 57.3753 87.8276C58.2585 88.7108 59.0413 89.7647 60.0149 90.5575C60.0649 90.5935 60.1188 90.6238 60.1755 90.6479C60.0684 90.8553 59.968 91.066 59.8743 91.2801C58.1911 89.8006 56.3922 88.4582 54.4949 87.2656C52.4876 85.9274 50.4369 84.6461 48.3426 83.4217C44.0913 81.056 39.6041 79.142 34.9542 77.711C26.7821 75.1302 18.2722 73.7773 9.7027 73.6965C7.45614 73.6595 5.20962 73.7736 2.97834 74.0377C2.86794 73.3553 2.76759 72.6828 2.67726 72.0204V72.0004ZM58.8808 94.5921C57.1114 93.1523 55.1133 92.0192 52.9694 91.24C51.4539 90.5876 49.9585 89.9353 48.3727 89.3833C45.2715 88.2993 42.1 87.4262 38.9185 86.6032C30.3448 84.3637 21.6256 82.7238 12.824 81.6954C9.56163 81.2214 6.26204 81.0534 2.96836 81.1936C3.25434 80.3472 3.39017 79.4573 3.36977 78.5641C7.30689 78.3741 11.2531 78.5319 15.1625 79.0358C24.4451 79.8974 33.5753 81.9691 42.3208 85.1981C48.1836 87.4145 53.8116 90.2083 59.1216 93.5383C59.026 93.9083 58.9523 94.2837 58.9008 94.6624L58.8808 94.5921ZM59.483 92.1734C59.3926 92.4544 59.2923 92.7455 59.212 93.0465C44.2478 82.7894 25.1988 78.263 7.21371 78.0623C5.92906 78.0623 4.61429 78.0121 3.3196 78.0623C3.3196 77.7411 3.31961 77.44 3.26943 77.149C3.20922 76.2658 3.10883 75.3926 2.99843 74.5094C8.34307 73.9342 13.7392 74.0421 19.0566 74.8306C28.5996 75.8679 37.8722 78.6435 46.4156 83.0202C48.8068 84.2963 51.1315 85.6932 53.3809 87.2054C55.5086 88.6205 57.4958 90.2966 59.6536 91.6515L59.483 92.1734ZM109.143 112.246C107.366 111.393 105.58 110.56 103.793 109.727C100.749 108.322 97.6813 106.964 94.5901 105.652C89.5719 103.545 84.5537 101.537 79.4151 99.801C73.7562 97.7483 67.8905 96.3181 61.9218 95.5355C61.2258 95.4491 60.5255 95.4022 59.8242 95.3951C59.9872 94.4584 60.2221 93.5357 60.5267 92.6351C60.5267 92.5748 60.5267 92.5246 60.597 92.4644C76.5849 89.9754 93.2352 96.1478 106.694 104.438C108.356 105.446 109.961 106.545 111.501 107.73L111.983 109.737C112.083 110.169 112.164 110.6 112.254 111.032C111.622 110.55 110.951 110.124 110.247 109.757C108.671 108.854 107.085 107.991 105.5 107.138C102.017 105.271 98.4742 103.494 94.9213 101.768C89.9613 99.3879 84.7546 97.5603 79.395 96.3184C73.1672 94.9 66.8265 94.0336 60.4464 93.729C60.2056 93.729 60.2056 94.0903 60.4464 94.1104C69.9339 94.6987 79.2954 96.5899 88.2672 99.7307C93.7069 101.738 98.7652 104.699 103.864 107.429C105.67 108.432 107.487 109.366 109.273 110.379C110.305 111.017 111.375 111.594 112.475 112.106C112.475 112.306 112.565 112.497 112.595 112.688C112.686 113.159 112.766 113.691 112.836 114.123C111.658 113.407 110.431 112.777 109.163 112.236L109.143 112.246ZM113.278 109.486C113.077 108.653 112.856 107.82 112.635 106.997C112.668 107.002 112.7 106.998 112.73 106.985C112.76 106.973 112.787 106.953 112.806 106.927C115.467 103.614 118.297 100.442 121.287 97.4224C124.207 94.3412 126.877 91.0593 129.617 87.8176C135.237 81.1836 140.546 74.2886 146.177 67.6646C148.696 64.7039 151.195 61.7031 153.564 58.6319C153.624 58.9029 153.704 59.1739 153.764 59.4549C153.951 60.3647 154.068 61.2874 154.116 62.2149C152.419 63.8609 150.884 65.7075 149.348 67.494C147.542 69.5816 145.715 71.639 143.979 73.7868C140.205 78.4638 136.542 83.2009 132.578 87.7273C127.73 93.2573 123.043 98.9881 118.607 104.859C116.971 107.027 115.185 109.145 113.689 111.423C113.569 110.721 113.448 110.108 113.298 109.476L113.278 109.486ZM153.935 65.557L153.544 65.8681C153.19 66.208 152.855 66.5664 152.54 66.942L149.599 70.4347L140.516 81.2137C133.491 89.5539 126.536 97.9041 119.751 106.425C117.814 108.864 115.857 111.353 114.141 113.962C114.061 113.47 113.98 112.959 113.89 112.477C113.89 112.266 113.79 112.055 113.749 111.845C117.443 106.967 121.377 102.25 125.211 97.4826C127.349 94.823 129.507 92.2035 131.745 89.6342C135.659 85.1379 139.422 80.6015 143.106 75.8744C146.588 71.4483 150.372 67.2632 154.146 63.078C154.147 63.9089 154.076 64.7382 153.935 65.557Z" fill="#222221"/>
<path d="M32.7462 28.2824C34.3319 26.3755 38.8382 23.8463 40.5946 26.8171C40.6318 26.8751 40.6653 26.9354 40.6949 26.9977C40.2232 27.2228 39.7815 27.506 39.3802 27.8408C38.768 28.3727 37.7744 29.5169 38.0855 30.4302C38.2184 30.7027 38.4499 30.9145 38.7332 31.0226C39.0165 31.1307 39.3303 31.127 39.611 31.0123C39.9854 30.9193 40.3367 30.7505 40.6433 30.5163C40.9498 30.2821 41.2051 29.9875 41.3932 29.6507C41.5813 29.3139 41.6984 28.9421 41.7371 28.5583C41.7758 28.1745 41.7353 27.7868 41.6183 27.4193C42.8557 26.893 44.1649 26.5547 45.5024 26.4156C46.9275 26.2751 48.3828 26.3554 49.0953 27.8007C49.1737 27.9619 49.2375 28.1299 49.286 28.3025C48.7043 28.783 48.2545 29.4036 47.9789 30.1059C47.7032 30.8082 47.6108 31.5691 47.7103 32.317C47.726 32.3687 47.753 32.4162 47.7895 32.456C47.8259 32.4959 47.8708 32.5271 47.9209 32.5473C47.9709 32.5675 48.0249 32.5763 48.0788 32.5729C48.1327 32.5695 48.1851 32.5541 48.2322 32.5278C48.9245 32.1383 49.4771 31.5413 49.812 30.8211C50.1469 30.1008 50.2473 29.2936 50.099 28.5132C51.1531 27.7036 52.4255 27.2282 53.7522 27.1483C54.3455 27.1103 54.9361 27.2555 55.4441 27.5642C55.9522 27.873 56.3531 28.3304 56.5925 28.8746C56.9114 29.4927 57.0472 30.1891 56.9839 30.8818C56.4797 31.4179 56.0873 32.0491 55.8297 32.7385C55.7495 32.9593 56.0204 33.1099 56.191 33.0195C56.6035 32.8259 56.9567 32.5257 57.2143 32.1499C57.4719 31.7741 57.6245 31.3363 57.6564 30.8818C58.0841 30.5203 58.5828 30.2522 59.1204 30.0949C59.658 29.9377 60.2225 29.8946 60.7776 29.9685C61.5798 30.0266 62.3535 30.2897 63.0248 30.7325C63.6961 31.1753 64.2425 31.7831 64.6115 32.4977C64.695 32.7234 64.7458 32.96 64.7621 33.2002C64.4163 33.2776 64.0798 33.392 63.7585 33.5414C63.0158 33.8927 61.8013 35.0569 62.3232 35.9803C62.8451 36.9036 64.1398 35.9803 64.5914 35.4684C65.0318 34.9789 65.3211 34.3724 65.4245 33.7221C66.4302 33.545 67.4641 33.6174 68.4354 33.9328C69.439 34.3243 70.3824 35.0569 70.4426 35.8699C69.5795 36.4118 69.0878 37.0642 69.3286 37.6764C69.3421 37.7211 69.3655 37.7623 69.3971 37.7967C69.4286 37.8312 69.4675 37.8581 69.5109 37.8755C69.5543 37.8928 69.6011 37.9002 69.6477 37.897C69.6943 37.8938 69.7397 37.8801 69.7803 37.8571C70.1526 37.7065 70.4741 37.4527 70.707 37.1255C70.94 36.7984 71.0746 36.4115 71.095 36.0104C71.9755 35.663 72.8959 35.4269 73.8349 35.3078C75.9727 35.1472 77.7892 35.9803 77.6588 38.3187C77.6588 38.7001 78.1807 38.67 78.2309 38.3187C78.8029 33.9529 73.7948 34.1637 71.0248 35.5086C70.7363 34.86 70.2872 34.2957 69.72 33.869C69.1528 33.4422 68.4861 33.1672 67.783 33.0697C67.0142 32.9588 66.2334 32.9588 65.4646 33.0697V33.0095C65.2237 31.1026 63.2365 29.838 61.4501 29.4868C60.7915 29.3367 60.1085 29.3299 59.447 29.4667C58.7856 29.6034 58.1612 29.8807 57.6162 30.2796C57.5485 29.389 57.1957 28.5439 56.61 27.8696C56.0242 27.1953 55.2368 26.7277 54.3644 26.5361C52.7679 26.4119 51.1798 26.8641 49.8882 27.8107C49.743 27.3858 49.5096 26.9962 49.2035 26.6676C48.8974 26.3391 48.5254 26.0787 48.1118 25.9038C46.6649 25.4884 45.1266 25.5163 43.6958 25.9841C42.8831 26.1676 42.0874 26.4194 41.3172 26.7368C41.2423 26.57 41.155 26.4089 41.0562 26.2551C38.9084 23.1438 34.0308 25.6428 32.2544 27.8709C32.0236 28.1419 32.4752 28.6136 32.7462 28.2824ZM64.4108 34.5451C64.1298 35.0168 62.8752 36.2011 63.0358 35.067C63.1462 34.3644 64.0394 33.973 64.7119 33.8024C64.6546 34.0653 64.5528 34.3165 64.4108 34.5451ZM69.8204 36.9839C69.8533 36.8486 69.9141 36.7216 69.9987 36.611C70.0834 36.5004 70.1901 36.4087 70.3122 36.3416C70.198 36.5896 70.03 36.809 69.8204 36.9839ZM48.3527 31.5843C48.3714 30.6432 48.7567 29.7466 49.4266 29.0853C49.4562 29.5569 49.3745 30.0289 49.1879 30.463C49.0013 30.8971 48.7152 31.2813 48.3527 31.5843ZM40.3938 29.7477C40.1229 29.9986 39.0089 30.7513 38.7881 30.1291C38.6475 29.7477 39.3601 28.9347 39.5508 28.724C39.9592 28.3126 40.4343 27.9732 40.9559 27.7203C41.0589 28.0772 41.061 28.4556 40.9618 28.8136C40.8625 29.1715 40.6659 29.4949 40.3938 29.7477Z" fill="#222221"/>
<path d="M27.7079 39.7843C29.1531 37.1749 33.2881 34.6758 36.2488 36.3318C36.8693 36.7556 37.3648 37.3378 37.684 38.0179C36.9829 38.4592 36.4147 39.0824 36.04 39.8213C35.6652 40.5601 35.4981 41.3868 35.5563 42.2131C35.5761 42.2829 35.6183 42.3443 35.6763 42.3878C35.7343 42.4313 35.805 42.4546 35.8775 42.454C38.6174 42.7953 39.1895 40.3464 38.5372 38.2789C39.2511 37.859 40.0267 37.5542 40.8355 37.3756C41.4645 37.1737 42.1411 37.1745 42.7696 37.378C43.3982 37.5815 43.9468 37.9774 44.3381 38.5097C44.5714 38.8503 44.7477 39.2266 44.86 39.6238C44.3277 40.0588 43.8904 40.5985 43.5754 41.2095C43.5459 41.2625 43.5306 41.3223 43.5311 41.383C43.5316 41.4436 43.5478 41.5032 43.5781 41.5557C43.6084 41.6083 43.6519 41.6521 43.7042 41.6829C43.7565 41.7136 43.8158 41.7304 43.8764 41.7314C44.1158 41.7603 44.3587 41.7336 44.586 41.6533C44.8134 41.5729 45.0191 41.4412 45.1871 41.2683C45.3552 41.0954 45.481 40.8859 45.5549 40.6564C45.6287 40.4269 45.6485 40.1834 45.6128 39.9449C46.8824 39.0147 48.4538 38.5923 50.0187 38.7606C50.6989 38.846 51.3177 39.1966 51.7407 39.736C52.1636 40.2755 52.3563 40.9602 52.2769 41.6411C51.7035 41.8409 51.2262 42.2491 50.9398 42.7846C50.6535 43.3201 50.579 43.9437 50.7313 44.5315C50.7455 44.5817 50.7711 44.628 50.8061 44.6668C50.841 44.7056 50.8844 44.7359 50.9329 44.7553C50.9813 44.7746 51.0336 44.7826 51.0856 44.7787C51.1377 44.7747 51.1881 44.7588 51.2331 44.7323C51.7333 44.4591 52.1626 44.0726 52.4868 43.6038C52.8109 43.135 53.0208 42.5969 53.0998 42.0325C54.502 41.6189 55.985 41.5603 57.4155 41.8619C57.9341 42.0762 58.4006 42.3995 58.7832 42.8099C59.1659 43.2203 59.4559 43.7082 59.6335 44.2405C58.6593 44.8907 57.9644 45.8827 57.6864 47.0205C57.6728 47.0647 57.6682 47.1111 57.673 47.1571C57.6778 47.2031 57.6919 47.2476 57.7144 47.288C57.737 47.3283 57.7674 47.3637 57.804 47.3919C57.8406 47.4201 57.8825 47.4406 57.9273 47.4521C59.5432 47.7933 60.9382 46.9804 60.7275 45.224C60.7019 44.9647 60.6481 44.7089 60.5669 44.4613C60.9263 44.2548 61.3064 44.0867 61.701 43.9595C62.0723 43.8132 62.4697 43.7448 62.8685 43.7586C63.2674 43.7724 63.6591 43.8681 64.0194 44.0397C64.9226 44.5416 65.8862 46.047 64.7521 46.88C64.4108 47.1109 64.7521 47.6629 65.0732 47.432C65.4341 47.1984 65.6979 46.8418 65.8159 46.4284C66.4267 46.2075 67.0543 46.0363 67.6927 45.9165C68.4354 45.776 69.1881 45.8062 69.9308 45.6857C69.9615 45.6743 69.988 45.6538 70.0067 45.6269C70.0255 45.5999 70.0355 45.5679 70.0355 45.5351C70.0355 45.5024 70.0255 45.4704 70.0067 45.4435C69.988 45.4166 69.9615 45.396 69.9308 45.3846C69.1719 45.2542 68.3934 45.2954 67.6525 45.505C67.0477 45.6413 66.454 45.8225 65.8761 46.047C65.82 45.3679 65.5466 44.725 65.0965 44.2134C64.6463 43.7019 64.0435 43.3489 63.3771 43.2067C62.3316 43.0886 61.2759 43.3103 60.3662 43.839C59.9315 42.7855 59.1437 41.9162 58.1381 41.3801C56.5383 40.8245 54.8009 40.8069 53.1902 41.3299C53.1802 40.6974 52.9935 40.0802 52.6512 39.5481C52.309 39.0161 51.8247 38.5903 51.2532 38.319C49.5871 37.5362 47.2387 38.0782 45.4923 39.2424C45.2849 38.6375 44.9334 38.0922 44.4684 37.6533C44.0033 37.2145 43.4385 36.8953 42.8226 36.7232C41.248 36.4858 39.6414 36.8436 38.3163 37.7269C38.1456 37.3665 37.9297 37.0292 37.674 36.7232C34.6631 33.2206 29.0728 36.5024 27.3968 39.7341C27.2362 39.8144 27.5975 40.0152 27.7079 39.7843ZM51.2833 43.7989C51.2855 43.5212 51.3645 43.2495 51.5115 43.014C51.6585 42.7784 51.8678 42.5881 52.1163 42.464C51.9544 42.9715 51.668 43.4304 51.2833 43.7989ZM59.8543 46.037C59.6235 46.6191 59.0615 46.7395 58.4894 46.7596C58.7672 46.0393 59.2398 45.4103 59.8543 44.943C59.9648 45.2993 59.9648 45.6807 59.8543 46.037ZM37.3428 41.621C37.096 41.7819 36.804 41.8594 36.5098 41.8418C36.0883 41.7615 36.0983 41.8418 36.1485 41.2998C36.2509 40.5379 36.604 39.8317 37.1521 39.2925C37.3986 39.0382 37.6673 38.8065 37.955 38.6001C38.3464 39.7844 38.3264 41.0288 37.3428 41.621Z" fill="#222221"/>
<path d="M24.4561 49.7903C25.3996 47.8432 28.7216 46.3378 30.8192 47.0102C31.1201 47.0827 31.3992 47.2263 31.6332 47.4288C31.8672 47.6314 32.0492 47.887 32.164 48.1744C30.1568 48.8468 28.4807 50.1817 28.5309 52.3897C28.5334 52.5007 28.5787 52.6064 28.6572 52.6849C28.7357 52.7634 28.8414 52.8086 28.9524 52.8112C30.0037 52.7211 30.9925 52.2735 31.754 51.5431C32.5155 50.8126 33.0038 49.8433 33.1376 48.7967C33.7525 48.6433 34.3813 48.5525 35.0144 48.5257C36.0927 48.4073 37.1807 48.6353 38.1208 49.1767C39.061 49.718 39.8043 50.5445 40.2433 51.5366C38.9486 52.4499 38.1156 53.6543 38.9285 55.0192C38.9652 55.0788 39.0204 55.1247 39.0856 55.1501C39.1508 55.1755 39.2226 55.1789 39.2899 55.1597C41.0964 54.7984 41.4477 53.3632 41.0362 51.8076C41.5216 51.5186 42.0282 51.267 42.5517 51.0548C43.756 50.553 45.1712 50.1315 46.3655 50.9043C46.8595 51.1992 47.2519 51.6377 47.4903 52.1613C47.7288 52.6848 47.8021 53.2687 47.7003 53.8349C47.1607 54.2649 46.7851 54.8672 46.6364 55.5411C46.5862 55.792 46.8673 56.0931 47.1182 55.9124C47.7344 55.4767 48.1699 54.8305 48.3426 54.0958C49.5435 53.328 50.9321 52.9045 52.3571 52.8714C53.1169 52.8683 53.8654 53.0549 54.5349 53.4142C55.2043 53.7734 55.7736 54.2941 56.191 54.9289C55.1874 55.782 54.3443 56.9361 54.9867 57.8394C55.4383 58.4316 56.3315 58.0803 56.8032 57.7089C57.1107 57.4878 57.3326 57.1674 57.4313 56.8017C57.53 56.4361 57.4996 56.0475 57.3452 55.7017C57.2858 55.5398 57.2153 55.3822 57.1345 55.23C57.6247 54.8893 58.1981 54.688 58.7937 54.6473C59.3893 54.6067 59.9847 54.7283 60.5167 54.9991C61.4738 55.6341 62.1523 56.6106 62.4136 57.729C62.4349 57.8062 62.4859 57.8718 62.5556 57.9113C62.6252 57.9508 62.7077 57.9611 62.7849 57.9398C62.8621 57.9185 62.9277 57.8674 62.9672 57.7978C63.0067 57.7281 63.017 57.6456 62.9957 57.5684C62.6344 55.0794 60.5468 53.2026 57.9173 53.8851C57.4702 54.0344 57.0499 54.2547 56.6728 54.5374C56.2613 53.9395 55.7323 53.4318 55.1179 53.0453C54.5036 52.6587 53.8169 52.4015 53.0998 52.2893C51.4787 52.1935 49.862 52.5404 48.4229 53.2929C48.4037 52.7956 48.2825 52.3075 48.0669 51.859C47.8512 51.4104 47.5457 51.011 47.1693 50.6854C46.7929 50.3598 46.3536 50.115 45.8787 49.9662C45.4037 49.8174 44.9033 49.7678 44.4084 49.8204C43.1517 50.042 41.9449 50.4873 40.8455 51.1351C40.5898 50.35 40.1476 49.6386 39.5568 49.0618C38.966 48.485 38.2442 48.0599 37.4532 47.8231C35.9869 47.4992 34.4658 47.5164 33.0071 47.8733C32.8413 47.4273 32.5567 47.0352 32.1841 46.7392C29.7252 44.732 25.0583 46.8597 23.9543 49.5093C23.8138 49.8706 24.3156 50.0813 24.4561 49.7903ZM56.5724 55.7218C56.7581 56.0211 56.8227 56.38 56.7531 56.7254C56.6728 56.9763 55.8297 57.6487 55.5788 57.3577C55.3279 57.0666 56.0706 56.2436 56.6125 55.7218H56.5724ZM40.4541 52.2592C40.5853 52.5771 40.622 52.9262 40.5597 53.2645C40.4974 53.6027 40.3387 53.9158 40.1028 54.1661C39.32 54.8486 39.039 54.3267 39.34 53.5338C39.5683 52.9953 39.9484 52.535 40.434 52.209C40.434 52.209 40.4942 52.2391 40.4942 52.2592H40.4541ZM32.164 49.0978C31.9961 49.7783 31.6472 50.4007 31.1542 50.8989C30.6612 51.3972 30.0426 51.7528 29.3639 51.928C29.6048 50.5029 30.8192 49.6096 32.2042 49.0978H32.164Z" fill="#222221"/>
<path d="M17.5611 60.7801C18.2938 58.843 23.0008 55.7619 24.5866 58.3111C24.8613 58.8169 25.0093 59.3816 25.0181 59.9571C23.2417 60.8102 21.7965 62.2855 21.676 63.9716C21.6761 64.0659 21.7064 64.1577 21.7623 64.2335C21.8183 64.3094 21.8971 64.3653 21.9871 64.3931C24.3256 64.9351 25.6805 62.7572 25.8411 60.5794C26.7567 60.2338 27.7344 60.0834 28.7115 60.1378C29.2718 60.2014 29.8022 60.4243 30.2397 60.7801C30.6773 61.1358 31.0038 61.6095 31.1805 62.145C31.235 62.2658 31.2819 62.3898 31.321 62.5164C30.7151 63.0632 30.2561 63.7534 29.9861 64.5236C29.9578 64.638 29.9742 64.7588 30.032 64.8614C30.0899 64.964 30.1848 65.0407 30.2973 65.0756C31.6221 65.447 32.4752 64.634 32.3748 63.2891C32.364 63.1342 32.3439 62.98 32.3146 62.8275C34.2215 61.3923 37.3327 60.9607 39.1995 61.9343C40.0554 62.4796 40.6833 63.318 40.9659 64.2928C40.2317 64.5574 39.6026 65.0521 39.1722 65.7031C38.7418 66.3541 38.5332 67.1267 38.5772 67.9059C38.5772 68.0765 38.7077 68.3073 38.8984 68.3274C41.4978 68.6787 42.3308 66.7818 42.0297 64.8046C44.5388 64.1724 48.172 65.1057 49.4767 66.571C49.7878 66.9123 50.4001 66.4606 50.1291 66.0692C48.7039 64.062 44.7295 63.1687 41.8391 63.9817C41.5561 63.0303 41.0056 62.1802 40.2533 61.5328C38.1657 59.8768 34.4523 60.2983 32.0637 61.9543C31.6973 60.9666 30.9837 60.146 30.0564 59.646C28.6894 59.0876 27.158 59.0876 25.791 59.646C25.7392 59.0391 25.5578 58.4505 25.259 57.9197C23.312 54.6981 17.9024 58.0301 17.1296 60.6697C16.979 60.9507 17.4106 61.051 17.5611 60.7801ZM22.5793 63.6304C22.7508 63.0439 23.0505 62.5029 23.4566 62.0465C23.8628 61.59 24.3653 61.2294 24.9278 60.9908C24.5866 62.406 23.8439 63.7006 22.5091 63.6304H22.5793ZM39.4705 67.4643C39.4981 66.9529 39.6689 66.4597 39.9635 66.0409C40.2582 65.622 40.6646 65.2945 41.1365 65.0957C41.2469 66.3302 40.8254 67.4241 39.4002 67.4643H39.4705ZM31.0399 64.2225C31.1627 63.9957 31.3109 63.7836 31.4815 63.5903C31.4885 63.74 31.4401 63.8872 31.3458 64.0037C31.2515 64.1203 31.1176 64.1981 30.9697 64.2225H31.0399Z" fill="#222221"/>
<path d="M92.2516 43.7689C94.4495 41.9724 98.6949 40.0253 101.505 41.4003C101.942 41.6675 102.309 42.0357 102.575 42.474C102.84 42.9124 102.997 43.4081 103.031 43.9194C101.515 44.4915 100.391 45.4851 100.612 47.111C100.612 47.1998 100.646 47.2851 100.708 47.3488C100.77 47.4125 100.854 47.4496 100.943 47.4522C102.81 47.5526 103.663 46.0371 103.703 44.4413C105.01 44.0864 106.368 43.9608 107.718 44.07C108.93 44.2588 110.028 44.8921 110.799 45.8464C111.521 46.5305 112.03 47.4089 112.264 48.3756C111.839 48.7681 111.528 49.2671 111.361 49.8208C111.342 49.8891 111.344 49.9614 111.367 50.0286C111.389 50.0958 111.43 50.1551 111.486 50.1989C111.541 50.2427 111.609 50.2692 111.679 50.2752C111.75 50.2811 111.821 50.2662 111.883 50.2323C112.222 50.1087 112.515 49.8852 112.725 49.5914C112.935 49.2976 113.05 48.9472 113.057 48.5863C113.763 48.0366 114.539 47.5842 115.365 47.2415C116.55 46.6995 118.587 45.8565 119.872 46.4988C120.611 46.956 121.155 47.6712 121.397 48.506C120.153 49.4595 119.45 50.7642 120.394 52.2496C120.423 52.3007 120.468 52.3404 120.523 52.3623C120.578 52.3841 120.638 52.3868 120.695 52.37C122.331 51.9385 122.702 50.2724 122.27 48.7068C124.358 47.3719 127.941 46.5891 128.292 49.5799C128.378 50.3557 128.306 51.1409 128.081 51.8883C128.031 52.0489 127.971 52.2094 127.911 52.37C127.391 52.7404 126.961 53.2243 126.656 53.7851C126.656 53.8454 126.656 53.9257 126.736 53.9056C127.45 53.6392 128.044 53.1266 128.413 52.4604C128.972 52.1758 129.566 51.9633 130.179 51.8281C132.949 51.2058 136.672 52.0188 136.572 55.4612C136.572 55.8526 137.214 55.963 137.285 55.5616C137.977 51.0252 132.176 50.0617 128.714 51.8682C129.527 49.8609 128.914 47.0608 126.465 46.85C124.921 46.8437 123.406 47.2677 122.09 48.0745C121.929 47.5715 121.668 47.1061 121.323 46.7061C120.978 46.306 120.556 45.9796 120.082 45.7461C118.597 45.184 116.62 45.9468 115.265 46.549C114.482 46.8829 113.735 47.2966 113.037 47.7834C112.62 46.7851 112.002 45.8832 111.222 45.1339C110.441 44.3846 109.515 43.8038 108.5 43.4277C106.912 43.1885 105.292 43.2842 103.743 43.7087C103.651 42.8672 103.3 42.0749 102.74 41.4405C101.505 40.1458 99.3975 40.2461 97.7816 40.5573C95.6217 40.9933 93.6001 41.9474 91.8903 43.3373C91.529 43.5882 91.9605 44.0098 92.2516 43.7689ZM127.539 52.9923C127.409 53.183 126.867 53.6045 126.847 53.7049C126.897 53.4439 127.228 53.1629 127.569 52.922L127.539 52.9923ZM121.738 50.2524C121.738 50.5735 121.277 52.1392 120.735 51.7779C120.193 51.4166 120.905 49.9011 121.217 49.5498C121.347 49.4094 121.488 49.2786 121.638 49.1584C121.713 49.518 121.747 49.8851 121.738 50.2524ZM101.274 46.7597C101.319 46.2688 101.514 45.8036 101.831 45.4267C102.149 45.0498 102.575 44.7794 103.051 44.6521C103.08 45.1638 102.912 45.6671 102.581 46.059C102.251 46.4509 101.783 46.7016 101.274 46.7597Z" fill="#222221"/>
<path d="M88.0264 55.601C89.9533 53.9851 93.4259 54.1156 94.9213 56.2935C95.0432 56.4756 95.1442 56.6709 95.2224 56.8756C94.5501 57.1719 93.9431 57.5986 93.4366 58.1309C92.9302 58.6632 92.5342 59.2906 92.2717 59.9768C92.2469 60.0752 92.2613 60.1795 92.3118 60.2675C92.3624 60.3555 92.4452 60.4204 92.5427 60.4485C93.6768 60.6493 94.9012 60.6493 95.6339 59.5954C96.0357 58.9677 96.1796 58.209 96.0353 57.4778C97.32 56.9064 98.7479 56.7384 100.13 56.996C101.592 57.5326 102.792 58.6105 103.482 60.0069C103.683 59.7661 103.894 59.5252 104.115 59.3044C103.484 58.034 102.483 56.9843 101.244 56.2935C99.4541 55.6816 97.4981 55.7749 95.7744 56.5544C95.7536 56.4917 95.7267 56.4312 95.6941 56.3738C94.2689 53.5235 89.9834 53.3629 87.7854 55.2898C87.6249 55.5207 87.8658 55.7415 88.0264 55.601ZM93.2452 59.8363C93.7887 58.993 94.5383 58.3021 95.4231 57.829C95.4553 58.1157 95.4195 58.4058 95.3186 58.676C95.2178 58.9462 95.0547 59.1889 94.8427 59.3844C94.6306 59.5798 94.3754 59.7226 94.0979 59.8011C93.8204 59.8797 93.5283 59.8917 93.2452 59.8363Z" fill="#222221"/>
<path d="M17.4909 20.6046C18.6139 21.1133 19.763 21.5622 20.9334 21.9495C21.044 21.9913 21.1621 22.0096 21.2802 22.0034C21.3982 21.9972 21.5137 21.9664 21.6192 21.9132C21.7248 21.8599 21.8181 21.7853 21.8933 21.6941C21.9685 21.6028 22.0239 21.497 22.056 21.3832C22.0882 21.2694 22.0963 21.1502 22.0799 21.0331C22.0635 20.916 22.0229 20.8036 21.9607 20.703C21.8986 20.6025 21.8162 20.5159 21.7188 20.4489C21.6214 20.3818 21.5112 20.3357 21.3951 20.3136C20.2409 19.9221 19.1269 19.4002 17.9627 19.0389C17.4056 18.8558 16.8395 18.7018 16.2665 18.5773C15.6594 18.422 15.0257 18.4015 14.4098 18.5171C14.3344 18.5418 14.2676 18.5872 14.2169 18.6482C14.1662 18.7092 14.1337 18.7833 14.1233 18.8619C14.1128 18.9405 14.1247 19.0205 14.1576 19.0927C14.1906 19.1648 14.2432 19.2262 14.3094 19.2698C15.3457 19.7703 16.4077 20.2158 17.4909 20.6046Z" fill="#222221"/>
<path d="M22.479 11.6625C22.5066 11.7107 22.53 11.761 22.5492 11.8131V11.8833V12.0038C22.5764 12.0673 22.61 12.1278 22.6496 12.1844L22.8202 12.4554C22.8202 12.5357 22.9106 12.616 22.9607 12.6963L23.021 12.8267C22.9407 12.6662 23.021 12.8267 23.021 12.8267C23.1213 13.0676 23.2317 13.2985 23.3421 13.5393L23.4626 13.8103V13.8906C23.5429 14.0913 23.6231 14.292 23.6833 14.4928C23.8165 14.9133 23.9205 15.3425 23.9945 15.7774C24.0269 15.8963 24.0827 16.0076 24.1584 16.1049C24.2341 16.2022 24.3283 16.2835 24.4356 16.3441C24.5429 16.4048 24.6612 16.4436 24.7836 16.4583C24.906 16.473 25.03 16.4633 25.1487 16.4298C25.381 16.3515 25.5766 16.1909 25.6986 15.9783C25.8207 15.7657 25.8606 15.5157 25.811 15.2756C25.6332 14.3336 25.3153 13.4236 24.8677 12.5758C24.6313 12.1692 24.352 11.789 24.0346 11.4417C23.7348 11.1015 23.3696 10.825 22.9607 10.6288C22.8569 10.5757 22.7388 10.5569 22.6236 10.5751C22.5083 10.5933 22.4018 10.6475 22.3193 10.73C22.2368 10.8125 22.1826 10.9191 22.1644 11.0343C22.1462 11.1495 22.165 11.2676 22.2181 11.3715L22.479 11.6625Z" fill="#222221"/>
<path d="M124.709 27.7806C124.709 27.7806 112.154 42.8351 111.843 43.5577C110.864 44.8055 109.572 45.7717 108.099 46.3578C106.955 46.669 105.299 47.0905 105.299 47.0905C105.299 47.0905 104.988 56.4344 104.155 58.2007C103.743 59.032 103.407 59.8986 103.151 60.7901C103.151 60.7901 108.651 57.0566 111.552 56.5347C113.557 56.1473 115.536 55.6276 117.473 54.9791C117.473 54.9791 116.018 50.5129 117.262 49.0576C118.507 47.6024 131.494 31.3033 131.494 31.3033C131.494 31.3033 128.061 30.1692 126.817 28.9147C125.572 27.6601 125.472 27.0479 125.472 27.0479L124.709 27.7806Z" fill="#9D85F4"/>
<path d="M152.911 5.89169C152.843 5.05884 152.571 4.25561 152.118 3.55322C150.513 1.07424 147.1 -0.842702 144.17 0.381731C141.831 1.38537 140.055 3.87438 138.64 5.90172C137.224 7.92906 135.769 10.2776 134.304 12.4354C132.236 15.4463 130.209 18.5576 128.172 21.6287C127.319 22.9334 126.466 24.2682 125.663 25.6432C125.605 25.6251 125.544 25.6198 125.485 25.6278C125.425 25.6358 125.368 25.6568 125.317 25.6893C125.266 25.7219 125.223 25.7652 125.191 25.8162C125.159 25.8672 125.138 25.9246 125.131 25.9844C125.086 26.2091 125.066 26.4379 125.07 26.6669C124.571 26.9311 124.144 27.3136 123.826 27.7809C123.204 28.5336 122.642 29.3366 121.999 30.0793C120.514 31.8055 119.069 33.5619 117.634 35.3283C116.379 36.8839 115.114 38.4194 113.79 39.9249C112.663 40.9761 111.752 42.2376 111.11 43.6384C111.013 43.6685 110.929 43.7329 110.876 43.8196C110.822 43.9064 110.802 44.0095 110.819 44.1101C109.183 45.2843 107.005 45.5754 105.118 46.1173C104.965 46.1609 104.831 46.253 104.735 46.3797C104.639 46.5064 104.587 46.6609 104.586 46.8199C104.786 49.4319 104.688 52.0582 104.295 54.6482C104.106 55.8657 103.769 57.0554 103.292 58.191C103.083 58.7154 102.905 59.2516 102.76 59.7969C102.609 60.3689 102.569 60.9811 102.388 61.5432C102.376 61.6069 102.384 61.6729 102.412 61.7318C102.439 61.7907 102.484 61.8396 102.54 61.8717C102.597 61.9038 102.662 61.9174 102.726 61.9107C102.791 61.904 102.852 61.8773 102.9 61.8342C104.506 59.9374 106.915 58.9337 109.113 58.0204C111.709 56.8158 114.506 56.1046 117.363 55.9228C117.456 55.9228 117.549 55.9044 117.635 55.8686C117.722 55.8328 117.8 55.7803 117.866 55.7141C117.933 55.648 117.985 55.5694 118.021 55.4829C118.057 55.3965 118.075 55.3038 118.075 55.2103C117.975 54.1364 117.784 53.0825 117.744 52.0087C117.763 51.1582 117.881 50.3128 118.095 49.4895C118.73 49.1848 119.277 48.7216 119.681 48.1447C120.474 47.141 121.247 46.1374 122.06 45.1338C123.695 43.1265 125.291 41.059 126.877 38.9915C128.332 37.0846 129.888 35.258 131.293 33.2909C131.712 32.8167 132.051 32.2778 132.297 31.6951C132.746 31.5382 133.159 31.2925 133.511 30.9725C134.103 30.4506 134.515 29.7882 135.117 29.2563C135.87 28.5336 136.682 27.8713 137.435 27.1386C140.446 24.1277 143.126 20.7856 146.006 17.6342C148.029 15.6442 149.854 13.4628 151.456 11.1206C152.027 10.2079 152.463 9.21745 152.751 8.17997C152.947 8.54366 153.082 8.93689 153.152 9.34419C153.317 10.5136 153.249 11.704 152.951 12.8469C152.146 15.2947 150.801 17.5307 149.017 19.3906C147.341 21.3276 145.695 23.2646 143.909 25.1012C142.122 26.9379 139.894 28.6641 138.891 30.9323C138.822 31.0614 138.796 31.2092 138.818 31.3539C138.839 31.4987 138.907 31.6326 139.01 31.7361C139.114 31.8396 139.247 31.907 139.392 31.9285C139.537 31.9501 139.685 31.9246 139.814 31.8557C141.068 31.05 142.22 30.0964 143.246 29.0154C144.34 28.0118 145.394 26.9379 146.438 25.8841C148.458 23.7327 150.251 21.3784 151.787 18.8586C153.358 16.6902 154.39 14.1787 154.798 11.5321C154.939 9.7356 154.818 6.6143 152.911 5.89169ZM108.44 56.8261C107.341 57.3289 106.283 57.9196 105.279 58.5925C106.062 57.5889 106.834 56.5852 107.607 55.5816C108.38 54.578 109.183 53.494 109.976 52.4603L110.879 51.286C111.11 50.995 111.421 50.6738 111.341 50.2824C111.327 50.2311 111.298 50.1856 111.256 50.1529C111.214 50.1203 111.163 50.1023 111.11 50.1018C110.708 50.1018 110.458 50.5133 110.237 50.7943L109.344 51.9685C108.561 52.9721 107.798 54.0561 107.025 55.0998C106.473 55.8325 105.921 56.5551 105.379 57.2878C105.591 56.6054 105.749 55.9073 105.851 55.2002C106.212 52.661 105.59 50.0616 105.941 47.5325C107.863 47.3992 109.675 46.5842 111.05 45.2341C111.51 46.5794 112.417 47.7268 113.619 48.4859C114.515 49.1125 115.547 49.5184 116.63 49.6702C116.511 50.3325 116.454 51.0045 116.459 51.6775C116.429 52.6292 116.469 53.5819 116.58 54.5278C113.751 54.7998 110.994 55.5783 108.44 56.8261ZM125.944 36.7534C124.428 38.7607 122.933 40.6776 121.538 42.7752L119.089 46.3883C118.426 47.3418 117.884 48.5562 116.54 48.3052C115.472 48.1101 114.478 47.6262 113.666 46.9061C112.854 46.186 112.254 45.2571 111.933 44.2205C112.375 43.6885 112.726 43.0763 113.167 42.5544C113.78 41.8418 114.432 41.1794 115.094 40.5471C116.452 39.194 117.742 37.7738 118.958 36.2917C120.353 34.6358 121.768 32.9998 123.184 31.3639C123.786 30.6614 124.328 29.8986 124.91 29.176C125.111 28.9351 125.351 28.7043 125.582 28.4734C126.624 29.9619 128.115 31.077 129.838 31.655L130.048 31.7152C128.593 33.2307 127.278 35.0071 125.954 36.7233L125.944 36.7534ZM150.713 7.31684C150.201 9.72557 148.355 11.8232 146.749 13.5896C144.742 15.7875 142.734 17.9554 140.878 20.2637C139.613 21.8193 138.409 23.4151 137.154 24.9708C136.048 26.515 134.809 27.9591 133.451 29.2864C132.962 29.8243 132.348 30.2343 131.664 30.4807C130.812 30.5345 129.966 30.2975 129.266 29.8083C128.021 29.2387 127 28.2713 126.365 27.0583C128.684 24.1277 130.641 20.8659 132.678 17.8048C135.257 13.9308 137.887 10.1672 140.707 6.5039C141.982 4.86798 143.718 2.01766 146.117 2.14814C148.706 2.25854 151.265 4.66725 150.713 7.28674V7.31684Z" fill="#222221"/>
</g>
<defs>
<clipPath id="clip0_396_12941">
<rect width="155.122" height="116" fill="white" transform="translate(0.439178)"/>
</clipPath>
</defs>
</svg>
