<svg width="152" height="116" viewBox="0 0 152 116" fill="none" xmlns="http://www.w3.org/2000/svg">
<g clip-path="url(#clip0_396_12896)">
<path d="M25.123 59.2193C24.8156 59.0982 24.5456 58.8986 24.3398 58.6407C24.1341 58.3827 23.9999 58.0754 23.9506 57.7494C23.8499 57.0287 24.0166 56.2961 24.4196 55.6894C24.4792 55.5962 24.511 55.4881 24.511 55.3776C24.511 55.2671 24.4792 55.1589 24.4196 55.0658C24.3526 54.9765 24.2609 54.9088 24.1556 54.8711C24.0504 54.8335 23.9364 54.8276 23.8278 54.8542C23.5849 54.8976 23.3348 54.8738 23.1045 54.7855C22.8742 54.6972 22.6726 54.5476 22.5214 54.3531C22.1541 53.8647 21.909 53.2958 21.8068 52.6939C21.545 51.7275 21.545 50.7092 21.8068 49.7429C21.9189 49.3083 22.1426 48.9103 22.4559 48.5881C22.7691 48.2659 23.1612 48.0307 23.5933 47.9055C24.038 47.848 24.4901 47.8957 24.913 48.0446C25.3358 48.1936 25.7176 48.4396 26.0275 48.763C26.7163 49.5078 27.2817 50.3573 27.7023 51.2796L27.7805 51.3798C27.9859 54.3054 28.5445 57.1956 29.4442 59.9877C29.0713 59.9682 28.7125 59.8395 28.4126 59.6177C28.1127 59.3959 27.8851 59.0907 27.7582 58.7405C27.7249 58.6339 27.6602 58.5398 27.5726 58.4703C27.485 58.4008 27.3785 58.3591 27.2669 58.3508C27.1562 58.3409 27.0451 58.3656 26.9491 58.4215C26.853 58.4773 26.7768 58.5616 26.7309 58.6626C26.5755 58.9334 26.3271 59.139 26.0315 59.2413C25.736 59.3437 25.4133 59.3359 25.123 59.2193Z" fill="#9D85F4"/>
<path d="M18.3231 58.9298C18.1309 59.0704 17.9058 59.1595 17.6693 59.1888C17.4328 59.218 17.1928 59.1864 16.972 59.0969C16.596 58.9573 16.2599 58.7281 15.9933 58.4291C15.7266 58.1302 15.5375 57.7707 15.4423 57.382C15.152 55.9009 15.9894 54.3754 16.838 53.0836C16.9129 52.9724 16.9451 52.838 16.9287 52.7051C16.9123 52.5721 16.8484 52.4495 16.7487 52.3598C16.6466 52.2756 16.5183 52.2296 16.3858 52.2296C16.2534 52.2296 16.125 52.2756 16.0229 52.3598C15.5139 52.843 14.9144 53.2214 14.2587 53.4734C14.0002 53.562 13.722 53.5767 13.4555 53.5157C13.1891 53.4547 12.9452 53.3204 12.7513 53.1282C12.6185 52.8263 12.5499 52.5002 12.5499 52.1705C12.5499 51.8408 12.6185 51.5147 12.7513 51.2128C13.6822 47.9772 15.3873 45.0156 17.7201 42.5827C18.4335 41.7254 19.3853 41.0977 20.4557 40.7787C22.2981 40.4113 24.0735 41.8923 25.2459 43.0949C26.2012 44.1208 27.0503 45.24 27.7805 46.4356C27.7023 47.3042 27.6465 48.1839 27.6465 49.0637C27.3839 48.6626 27.0809 48.2895 26.7421 47.9501C26.3023 47.5004 25.7595 47.164 25.1603 46.9701C24.5612 46.7761 23.9238 46.7302 23.303 46.8365C22.6784 46.9971 22.1064 47.3164 21.6426 47.7634C21.1787 48.2103 20.839 48.7696 20.6567 49.3866C20.3432 50.5425 20.3432 51.7607 20.6567 52.9166C20.8046 53.691 21.1336 54.4197 21.617 55.0435C21.981 55.4807 22.4794 55.786 23.035 55.9121C22.7898 56.5502 22.7166 57.2413 22.8229 57.9165C22.9093 58.4387 23.1324 58.9288 23.4696 59.3375C23.8068 59.7461 24.2462 60.0588 24.7434 60.2438C25.119 60.3622 25.5175 60.3896 25.9058 60.3238C26.2942 60.2579 26.6613 60.1008 26.9766 59.8652C27.2592 60.2411 27.6247 60.547 28.0448 60.7594C28.465 60.9718 28.9285 61.085 29.3995 61.0901H29.6787C29.8127 61.5133 29.9578 61.9364 30.1253 62.3596L31.6885 66.0344C31.2165 66.8207 30.4913 67.4244 29.6311 67.7469C28.7709 68.0693 27.8265 68.0915 26.952 67.8098C26.0775 67.5282 25.3246 66.9593 24.816 66.1959C24.3074 65.4326 24.0732 64.5199 24.1516 63.6068C24.1604 63.4807 24.1267 63.3552 24.0559 63.2503C23.9851 63.1454 23.8813 63.0671 23.7608 63.0277C23.6398 62.9887 23.509 62.993 23.3908 63.0397C23.2726 63.0865 23.1745 63.1728 23.1132 63.2839C22.8693 63.7997 22.4765 64.2311 21.9851 64.5228C21.4937 64.8145 20.9262 64.9531 20.3553 64.9208C19.8988 64.7656 19.4979 64.4803 19.2022 64.1003C18.9065 63.7203 18.729 63.2623 18.6916 62.7828C18.6215 61.6491 18.781 60.513 19.1605 59.4421C19.1914 59.3284 19.1853 59.2078 19.1432 59.0978C19.1011 58.9877 19.025 58.8938 18.926 58.8296C18.8263 58.7874 18.7167 58.7745 18.6099 58.7922C18.5031 58.81 18.4036 58.8577 18.3231 58.9298Z" fill="#9D85F4"/>
<path d="M17.2177 77.5489C16.8347 78.013 16.3087 78.3379 15.7215 78.4732C15.3592 78.4808 14.9995 78.4113 14.6664 78.2692C14.3333 78.1271 14.0344 77.9157 13.7898 77.6492C11.646 75.5779 11.646 72.0813 11.8246 68.9299C11.8322 68.7943 11.7899 68.6606 11.7056 68.554C11.6213 68.4474 11.5008 68.3751 11.3668 68.3509C11.2315 68.3285 11.0925 68.3556 10.9756 68.4272C10.8586 68.4988 10.7716 68.6101 10.7304 68.7406C10.1837 70.6356 9.0789 72.3232 7.55926 73.5847C7.43644 73.6849 7.06794 73.9744 6.83346 73.9299C6.59898 73.8853 6.42035 73.5512 6.29752 72.9833C5.53171 69.5407 5.768 65.9515 6.97862 62.6383C7.0166 62.5313 7.02096 62.4154 6.99102 62.3059C6.96109 62.1965 6.89834 62.0988 6.81117 62.0258C6.7273 61.9504 6.62169 61.9034 6.5094 61.8914C6.39712 61.8794 6.28389 61.903 6.18589 61.959C5.42586 62.4578 4.81297 63.1497 4.4105 63.9634C4.29884 64.1639 4.17601 64.3532 4.05319 64.5425C3.60656 65.2106 2.83614 65.9233 2.12153 65.6561C1.40692 65.3888 1.12774 64.3977 1.11658 63.4289C1.11658 60.3778 2.36715 57.3489 3.4949 54.6874C6.45383 47.6609 9.80357 39.71 15.5651 33.9752C15.7761 33.6173 16.0695 33.3146 16.421 33.0921C16.7724 32.8696 17.1719 32.7337 17.5865 32.6956C18.001 32.6575 18.4187 32.7184 18.805 32.8731C19.1913 33.0278 19.5352 33.272 19.8082 33.5854C23.0866 35.9148 26.0446 38.6627 28.6068 41.759C28.347 42.701 28.1383 43.6564 27.9815 44.6208C27.394 43.7655 26.7447 42.9542 26.0386 42.1933C24.0846 40.0886 22.0748 39.1755 20.2101 39.543C18.9033 39.8911 17.7345 40.6293 16.8604 41.6587C14.4091 44.2291 12.6131 47.3493 11.6236 50.7566C11.4366 51.2232 11.3576 51.7258 11.3924 52.2271C11.4272 52.7284 11.5749 53.2154 11.8246 53.6518C12.1523 54.0263 12.583 54.2967 13.0634 54.4293C13.5437 54.5619 14.0525 54.551 14.5267 54.3979L14.7836 54.32C14.2951 55.3019 14.1309 56.4129 14.3146 57.4936C14.4427 58.0713 14.7144 58.6075 15.1046 59.0531C15.4948 59.4987 15.991 59.8393 16.5477 60.0437C16.9466 60.1924 17.3749 60.2458 17.7983 60.1996C17.5646 61.0625 17.4927 61.961 17.5861 62.8499C17.6483 63.557 17.9221 64.2293 18.3721 64.7793C18.8221 65.3293 19.4274 65.7318 20.1096 65.9344C20.6604 66.0268 21.2254 65.9827 21.755 65.806C22.2847 65.6293 22.7626 65.3254 23.1467 64.9211C23.3652 65.8588 23.8314 66.721 24.4971 67.4182C25.1627 68.1153 26.0035 68.622 26.9319 68.8854C27.2966 68.9798 27.6717 69.0284 28.0485 69.0302C28.8423 69.0467 29.6304 68.892 30.3589 68.5768C31.0873 68.2617 31.7389 67.7934 32.2692 67.2039L37.6176 76.1124C37.8186 76.3908 38.0084 76.6804 38.2206 76.9587C37.8521 78.5957 35.7753 79.4531 34.1786 79.1302C32.3755 78.6412 30.829 77.4814 29.8574 75.8897C29.7916 75.7948 29.6978 75.7227 29.589 75.6832C29.4803 75.6438 29.3619 75.639 29.2503 75.6696C29.1387 75.7002 29.0395 75.7646 28.9662 75.8539C28.8929 75.9432 28.8492 76.053 28.8413 76.1681C28.8114 77.2678 28.6001 78.3551 28.216 79.3863C28.0396 79.8421 27.759 80.2505 27.3965 80.5792C27.0341 80.9078 26.5997 81.1476 26.128 81.2794C24.5313 81.58 23.0239 80.0099 22.2423 78.3173C21.3674 76.3921 20.9399 74.2946 20.9918 72.1815C20.9976 72.1084 20.989 72.0349 20.9663 71.9651C20.9437 71.8953 20.9075 71.8306 20.8598 71.7748C20.7635 71.662 20.6262 71.592 20.4781 71.5802C20.33 71.5684 20.1833 71.6157 20.0702 71.7118C19.9571 71.8079 19.887 71.9448 19.8752 72.0925C19.612 74.1523 18.6784 76.0692 17.2177 77.5489Z" fill="#9D85F4"/>
<path d="M124.13 57.1815C124.011 57.5629 123.776 57.8981 123.458 58.1413C123.14 58.3845 122.755 58.5238 122.355 58.5401C123.167 55.7663 123.566 52.8885 123.538 49.999C123.607 49.9772 123.671 49.9411 123.724 49.8931C123.778 49.8451 123.821 49.7864 123.851 49.7206C124.232 48.7824 124.759 47.9104 125.414 47.1372C125.706 46.7974 126.075 46.5322 126.491 46.3636C126.907 46.1951 127.357 46.1282 127.804 46.1684C128.241 46.2731 128.644 46.4892 128.973 46.7957C129.302 47.1021 129.545 47.4883 129.68 47.9167C129.968 48.8755 129.999 49.8932 129.769 50.8676C129.685 51.4737 129.464 52.0527 129.121 52.5602C128.978 52.7587 128.785 52.9159 128.562 53.0157C128.338 53.1155 128.092 53.1543 127.848 53.1281C127.739 53.0996 127.623 53.1057 127.517 53.1456C127.411 53.1855 127.32 53.2572 127.257 53.3509C127.197 53.444 127.165 53.5522 127.165 53.6627C127.165 53.7732 127.197 53.8813 127.257 53.9745C127.685 54.5674 127.884 55.2955 127.815 56.0234C127.782 56.3524 127.66 56.6664 127.464 56.9327C127.268 57.1991 127.003 57.4081 126.698 57.5379C126.424 57.6466 126.12 57.6584 125.838 57.5713C125.555 57.4842 125.311 57.3034 125.146 57.059C125.095 56.9623 125.015 56.8837 124.917 56.8339C124.819 56.7841 124.708 56.7655 124.599 56.7806C124.491 56.7954 124.389 56.8411 124.305 56.9122C124.222 56.9833 124.161 57.0768 124.13 57.1815Z" fill="#9D85F4"/>
<path d="M120.222 64.3858C120.922 62.8467 121.526 61.2661 122.031 59.6532H122.087H122.344C122.836 59.6485 123.32 59.5245 123.754 59.2917C124.188 59.0589 124.558 58.7243 124.834 58.3169C125.166 58.5397 125.547 58.681 125.945 58.7294C126.342 58.7778 126.746 58.7318 127.123 58.5953C127.611 58.3884 128.035 58.0554 128.351 57.6306C128.667 57.2059 128.863 56.7047 128.92 56.1789C128.999 55.5006 128.899 54.8134 128.63 54.1856C129.174 54.0366 129.653 53.7115 129.992 53.2613C130.46 52.6007 130.759 51.8362 130.863 51.0342C131.13 49.87 131.084 48.656 130.729 47.5153C130.528 46.8985 130.169 46.3448 129.687 45.9092C129.205 45.4736 128.618 45.1712 127.982 45.0321C127.361 44.9627 126.732 45.044 126.149 45.2688C125.566 45.4937 125.046 45.8556 124.633 46.3238C124.186 46.8271 123.81 47.3891 123.516 47.9942C123.449 47.2147 123.337 46.424 123.192 45.6445C123.192 45.6445 123.192 45.5666 123.192 45.5221C123.228 45.4861 123.258 45.4448 123.282 45.3996C124.018 43.9525 124.921 42.596 125.973 41.3573C127.089 40.0544 128.786 38.5511 130.651 38.8295C131.731 39.0954 132.707 39.677 133.454 40.4999C135.893 42.8263 137.732 45.707 138.813 48.8961C138.958 49.1949 139.039 49.5206 139.051 49.8523C139.062 50.1841 139.004 50.5146 138.88 50.8226C138.696 51.0224 138.459 51.1668 138.196 51.2396C137.934 51.3123 137.657 51.3106 137.395 51.2346C136.727 51.0211 136.108 50.6765 135.575 50.2213C135.468 50.1409 135.335 50.1018 135.201 50.1113C135.067 50.1208 134.94 50.1782 134.845 50.273C134.75 50.3678 134.693 50.4936 134.683 50.6273C134.674 50.7609 134.713 50.8936 134.794 51.0008C135.709 52.2591 136.614 53.7402 136.39 55.2323C136.313 55.6269 136.139 55.9962 135.884 56.3072C135.629 56.6181 135.3 56.861 134.928 57.014C134.713 57.1163 134.476 57.1609 134.239 57.1433C134.002 57.1257 133.773 57.0466 133.576 56.9138C133.481 56.8442 133.366 56.8067 133.248 56.8065C133.129 56.8064 133.014 56.8437 132.919 56.913C132.823 56.9824 132.752 57.0802 132.716 57.1924C132.679 57.3046 132.68 57.4254 132.717 57.5374C133.137 58.5735 133.346 59.6827 133.331 60.8002C133.317 61.2831 133.162 61.7514 132.884 62.1473C132.606 62.5431 132.218 62.849 131.768 63.0273C131.196 63.0823 130.622 62.9666 130.117 62.6949C129.612 62.4233 129.199 62.0079 128.931 61.5017C128.862 61.3977 128.758 61.3202 128.639 61.2818C128.519 61.2434 128.39 61.2464 128.273 61.2901C128.154 61.3325 128.054 61.4143 127.989 61.5218C127.924 61.6293 127.898 61.756 127.915 61.8803C128.048 62.8235 127.843 63.7832 127.336 64.5901C126.828 65.3971 126.052 65.9994 125.143 66.291C124.233 66.5826 123.25 66.5447 122.366 66.1839C121.482 65.8231 120.755 65.1627 120.311 64.319L120.222 64.3858Z" fill="#9D85F4"/>
<path d="M121.316 40.1997C123.582 37.5626 126.174 35.2239 129.032 33.2399L130.863 31.8368C131.412 31.3044 132.115 30.9577 132.873 30.8457C133.736 30.9645 134.528 31.3871 135.106 32.0372C141.124 37.5048 144.832 45.2998 148.103 52.1816C149.354 54.7985 150.761 57.7494 150.872 60.8117C150.872 61.7249 150.682 62.7827 149.979 63.0389C149.276 63.295 148.46 62.6157 147.991 61.9253L147.601 61.3574C147.165 60.5659 146.525 59.9048 145.747 59.4421C145.645 59.3897 145.529 59.3702 145.415 59.3861C145.301 59.4021 145.195 59.4527 145.111 59.5311C145.028 59.6098 144.972 59.7112 144.948 59.8224C144.924 59.9336 144.934 60.0494 144.977 60.1547C146.323 63.4125 146.711 66.9857 146.093 70.4552C145.993 71.0231 145.814 71.3795 145.602 71.424C145.39 71.4686 144.988 71.2013 144.865 71.1122C143.308 69.9145 142.142 68.2829 141.515 66.4241C141.484 66.2764 141.396 66.1471 141.269 66.0647C141.142 65.9822 140.988 65.9532 140.84 65.9842C140.692 66.0153 140.562 66.1037 140.479 66.23C140.397 66.3563 140.368 66.5103 140.399 66.658C140.711 69.7759 140.879 73.3393 138.824 75.4551C138.593 75.7319 138.305 75.9557 137.979 76.1114C137.654 76.267 137.298 76.3508 136.937 76.3571C136.348 76.2496 135.811 75.9523 135.408 75.5108C133.867 74.0962 132.838 72.213 132.482 70.1545C132.458 70.0147 132.38 69.8896 132.266 69.8047C132.152 69.7198 132.01 69.6816 131.868 69.698C131.726 69.7148 131.596 69.7854 131.504 69.8952C131.413 70.0051 131.367 70.1457 131.377 70.2882C131.533 72.3953 131.201 74.5102 130.405 76.4685C129.702 78.2056 128.273 79.8091 126.665 79.6198C126.175 79.5192 125.717 79.3028 125.328 78.9889C124.94 78.675 124.632 78.2728 124.432 77.8159C124.006 76.8016 123.742 75.7269 123.65 74.6311C123.638 74.5183 123.591 74.4122 123.514 74.3282C123.438 74.2441 123.337 74.1864 123.226 74.1634C123.115 74.1376 122.999 74.1462 122.893 74.188C122.787 74.2297 122.697 74.3028 122.634 74.3972C121.733 76.0264 120.244 77.2526 118.469 77.827C116.85 78.2279 114.494 76.4016 114.059 74.8204C116.141 71.8769 117.989 68.7754 119.586 65.5444C120.093 66.183 120.738 66.6997 121.472 67.0563C122.206 67.4129 123.012 67.6002 123.829 67.6045C124.298 67.605 124.764 67.5374 125.213 67.404C126.129 67.1001 126.946 66.5563 127.578 65.8295C128.211 65.1026 128.636 64.2196 128.809 63.2727C129.208 63.6646 129.699 63.9504 130.237 64.1041C130.776 64.2578 131.344 64.2744 131.89 64.1524C132.563 63.9179 133.149 63.4884 133.575 62.9189C134.001 62.3494 134.246 61.6661 134.28 60.9565C134.329 60.0638 134.216 59.1696 133.945 58.3174C134.369 58.3387 134.792 58.2665 135.184 58.1058C135.735 57.8776 136.22 57.5155 136.594 57.0526C136.969 56.5896 137.221 56.0406 137.328 55.4555C137.453 54.3671 137.238 53.2668 136.714 52.3041L136.96 52.3709C137.441 52.5059 137.951 52.4955 138.426 52.3409C138.901 52.1862 139.32 51.8944 139.628 51.5023C139.86 51.0551 139.988 50.5614 140.001 50.0581C140.015 49.5548 139.914 49.0549 139.706 48.5959C138.584 45.2446 136.669 42.212 134.124 39.7542C133.209 38.77 132.018 38.0831 130.707 37.7832C128.842 37.5048 126.866 38.507 125.012 40.7008C124.145 41.7179 123.375 42.814 122.712 43.9747C122.366 42.6757 121.898 41.4119 121.316 40.1997Z" fill="#9D85F4"/>
<path d="M123.449 48.0723C123.505 48.7293 123.538 49.3863 123.538 50.0433C123.472 50.0734 123.399 50.089 123.326 50.089C123.253 50.089 123.181 50.0734 123.114 50.0433C123.047 50.0133 122.987 49.9704 122.938 49.917C122.888 49.8635 122.85 49.8007 122.825 49.7322C122.8 49.6637 122.789 49.5909 122.792 49.5181C122.796 49.4453 122.814 49.3739 122.846 49.3083C123.036 48.8963 123.226 48.4843 123.449 48.0723Z" fill="#231431"/>
<path d="M122.444 45.723C122.374 45.6882 122.312 45.6381 122.264 45.5764C122.216 45.5147 122.182 45.443 122.165 45.3666C122.138 45.3032 122.124 45.2351 122.124 45.1662C122.124 45.0973 122.138 45.0291 122.165 44.9657C122.336 44.6465 122.515 44.3236 122.701 43.9969C122.842 44.524 122.965 45.0585 123.069 45.6005C122.99 45.6821 122.888 45.7375 122.776 45.7594C122.664 45.7813 122.548 45.7686 122.444 45.723Z" fill="#231431"/>
<path d="M122.031 59.6536C122.154 59.2973 122.265 58.941 122.355 58.5401C122.755 58.5238 123.14 58.3845 123.458 58.1413C123.776 57.8981 124.011 57.5629 124.13 57.1815C124.162 57.0752 124.225 56.9806 124.31 56.9094C124.395 56.8381 124.5 56.7934 124.61 56.7806C124.719 56.7655 124.83 56.7841 124.928 56.8339C125.026 56.8837 125.106 56.9623 125.157 57.059C125.323 57.3034 125.566 57.4842 125.849 57.5713C126.131 57.6584 126.435 57.6466 126.709 57.5379C127.014 57.4081 127.279 57.1991 127.475 56.9327C127.672 56.6664 127.793 56.3524 127.826 56.0234C127.895 55.2955 127.697 54.5674 127.268 53.9745C127.208 53.8813 127.176 53.7732 127.176 53.6627C127.176 53.5522 127.208 53.444 127.268 53.3509C127.331 53.2572 127.422 53.1855 127.528 53.1456C127.634 53.1057 127.75 53.0996 127.86 53.1282C128.103 53.1543 128.349 53.1155 128.573 53.0157C128.797 52.9159 128.99 52.7587 129.132 52.5602C129.475 52.0527 129.697 51.4737 129.78 50.8676C130.01 49.8932 129.979 48.8755 129.691 47.9167C129.556 47.4883 129.313 47.1021 128.984 46.7957C128.655 46.4892 128.252 46.2731 127.815 46.1684C127.368 46.1282 126.918 46.1951 126.502 46.3636C126.087 46.5322 125.717 46.7974 125.425 47.1372C124.771 47.9104 124.243 48.7824 123.862 49.7206C123.833 49.7864 123.79 49.8451 123.736 49.8931C123.682 49.9411 123.618 49.9772 123.55 49.999C123.55 49.342 123.55 48.685 123.46 48.028C123.754 47.423 124.13 46.861 124.577 46.3577C124.99 45.8895 125.51 45.5276 126.093 45.3027C126.676 45.0778 127.305 44.9966 127.927 45.0659C128.562 45.2051 129.149 45.5075 129.631 45.9431C130.113 46.3787 130.472 46.9324 130.673 47.5492C131.028 48.6898 131.075 49.9038 130.807 51.068C130.703 51.8701 130.404 52.6346 129.936 53.2952C129.598 53.7453 129.118 54.0705 128.574 54.2194C128.843 54.8473 128.943 55.5344 128.864 56.2127C128.818 56.7268 128.638 57.22 128.342 57.6437C128.047 58.0674 127.646 58.407 127.178 58.6292C126.802 58.7657 126.398 58.8116 126.001 58.7632C125.603 58.7149 125.222 58.5735 124.889 58.3508C124.614 58.7582 124.244 59.0927 123.81 59.3255C123.376 59.5583 122.892 59.6824 122.399 59.687H122.143L122.031 59.6536Z" fill="#231431"/>
<path d="M122.198 58.5735H122.355C122.265 58.9298 122.154 59.2862 122.031 59.687C121.897 59.6651 121.776 59.593 121.693 59.4855C121.61 59.378 121.571 59.243 121.584 59.108C121.585 59.0313 121.603 58.9556 121.635 58.886C121.667 58.8164 121.714 58.7543 121.772 58.7039C121.83 58.6535 121.898 58.6158 121.971 58.5933C122.045 58.5708 122.122 58.5641 122.198 58.5735Z" fill="#231431"/>
<path d="M121.294 40.2335C121.25 40.292 121.195 40.3413 121.132 40.3785C121.069 40.4158 120.999 40.4403 120.926 40.4506C120.854 40.461 120.78 40.4569 120.709 40.4388C120.638 40.4206 120.571 40.3887 120.513 40.3449C120.454 40.301 120.404 40.246 120.367 40.1831C120.33 40.1202 120.305 40.0505 120.295 39.9782C120.284 39.9058 120.288 39.8321 120.307 39.7612C120.325 39.6904 120.357 39.6238 120.401 39.5654L120.769 39.0977C120.97 39.454 121.149 39.8215 121.316 40.2112L121.294 40.2335Z" fill="#231431"/>
<path d="M119.664 65.5669C119.854 65.1772 120.044 64.7874 120.222 64.3866C120.665 65.2302 121.393 65.8906 122.277 66.2514C123.161 66.6122 124.144 66.6501 125.053 66.3586C125.962 66.067 126.739 65.4646 127.246 64.6576C127.754 63.8507 127.959 62.891 127.826 61.9478C127.808 61.8235 127.834 61.6969 127.899 61.5893C127.964 61.4818 128.065 61.4 128.183 61.3577C128.301 61.3139 128.43 61.311 128.55 61.3494C128.669 61.3878 128.772 61.4652 128.842 61.5692C129.11 62.0755 129.522 62.4908 130.027 62.7625C130.532 63.0341 131.107 63.1498 131.678 63.0948C132.129 62.9166 132.517 62.6106 132.794 62.2148C133.072 61.819 133.228 61.3506 133.241 60.8677C133.256 59.7502 133.047 58.641 132.627 57.605C132.59 57.493 132.59 57.3722 132.626 57.2599C132.663 57.1477 132.734 57.0499 132.829 56.9805C132.925 56.9112 133.04 56.8739 133.158 56.8741C133.277 56.8742 133.392 56.9118 133.487 56.9814C133.684 57.1142 133.912 57.1933 134.149 57.2109C134.386 57.2284 134.624 57.1839 134.838 57.0816C135.211 56.9286 135.54 56.6857 135.795 56.3747C136.05 56.0637 136.224 55.6944 136.301 55.2999C136.524 53.8077 135.62 52.3266 134.704 51.0683C134.624 50.9611 134.584 50.8285 134.594 50.6948C134.603 50.5611 134.661 50.4353 134.756 50.3406C134.851 50.2458 134.977 50.1884 135.111 50.1789C135.245 50.1694 135.378 50.2084 135.486 50.2888C136.019 50.7441 136.638 51.0886 137.306 51.3022C137.567 51.3782 137.845 51.3799 138.107 51.3071C138.37 51.2343 138.606 51.0899 138.791 50.8902C138.915 50.5821 138.973 50.2516 138.961 49.9199C138.95 49.5881 138.869 49.2624 138.724 48.9637C137.643 45.7746 135.804 42.8938 133.364 40.5674C132.618 39.7446 131.642 39.1629 130.562 38.8971C128.697 38.6187 126.989 40.122 125.883 41.4249C124.832 42.6635 123.929 44.0201 123.192 45.4671C123.169 45.5123 123.139 45.5536 123.103 45.5896C122.999 45.0477 122.876 44.5131 122.734 43.9861C123.397 42.8254 124.167 41.7294 125.035 40.7122C126.888 38.4851 128.864 37.5162 130.729 37.7946C132.041 38.0945 133.231 38.7814 134.146 39.7657C136.691 42.2234 138.606 45.256 139.729 48.6074C139.936 49.0664 140.037 49.5662 140.023 50.0695C140.01 50.5728 139.882 51.0665 139.651 51.5138C139.342 51.9058 138.924 52.1976 138.449 52.3523C137.973 52.5069 137.463 52.5174 136.982 52.3823L136.736 52.3155C137.261 53.2782 137.475 54.3785 137.35 55.4669C137.243 56.052 136.991 56.601 136.617 57.064C136.242 57.5269 135.757 57.889 135.207 58.1172C134.814 58.2779 134.391 58.3501 133.967 58.3288C134.238 59.181 134.352 60.0752 134.302 60.9679C134.269 61.6775 134.023 62.3608 133.598 62.9303C133.172 63.4998 132.585 63.9293 131.913 64.1638C131.366 64.2858 130.798 64.2692 130.259 64.1155C129.721 63.9618 129.23 63.676 128.831 63.2841C128.658 64.231 128.233 65.114 127.601 65.8409C126.968 66.5677 126.151 67.1115 125.236 67.4155C124.786 67.5489 124.32 67.6164 123.851 67.6159C123.045 67.6047 122.251 67.4151 121.527 67.0608C120.802 66.7065 120.166 66.1962 119.664 65.5669Z" fill="#231431"/>
<path d="M119.362 64.0072C119.428 63.9749 119.5 63.9559 119.573 63.9513C119.647 63.9467 119.72 63.9566 119.79 63.9804C119.859 64.0041 119.923 64.0414 119.978 64.0899C120.033 64.1385 120.078 64.1974 120.11 64.2633C120.13 64.3081 120.156 64.3494 120.189 64.3858C120.01 64.7867 119.82 65.1765 119.63 65.5662C119.422 65.318 119.246 65.0449 119.106 64.7533C119.062 64.6711 119.039 64.5793 119.039 64.486C119.039 64.3928 119.062 64.301 119.106 64.2188C119.166 64.1229 119.256 64.0487 119.362 64.0072Z" fill="#231431"/>
<path d="M113.378 75.9228C113.634 75.5665 113.891 75.2101 114.137 74.8092C114.572 76.3905 116.928 78.2168 118.547 77.8159C120.322 77.2415 121.811 76.0153 122.712 74.3861C122.775 74.2916 122.866 74.2186 122.971 74.1768C123.077 74.135 123.193 74.1264 123.304 74.1522C123.415 74.1752 123.516 74.233 123.593 74.317C123.669 74.4011 123.716 74.5072 123.728 74.6199C123.82 75.7158 124.084 76.7904 124.51 77.8047C124.71 78.2616 125.018 78.6639 125.406 78.9778C125.795 79.2917 126.253 79.5081 126.743 79.6087C128.351 79.8426 129.78 78.1945 130.484 76.4573C131.279 74.499 131.611 72.3842 131.455 70.2771C131.445 70.1346 131.491 69.9939 131.582 69.8841C131.674 69.7743 131.804 69.7037 131.946 69.6869C132.088 69.6705 132.23 69.7087 132.344 69.7935C132.458 69.8784 132.536 70.0036 132.56 70.1434C132.916 72.2019 133.945 74.0851 135.486 75.4997C135.889 75.9412 136.426 76.2384 137.015 76.346C137.377 76.3397 137.732 76.2559 138.058 76.1002C138.383 75.9446 138.671 75.7207 138.902 75.444C140.957 73.2837 140.789 69.7648 140.477 66.6468C140.446 66.4992 140.475 66.3452 140.557 66.2189C140.64 66.0925 140.77 66.0041 140.918 65.9731C141.066 65.9421 141.22 65.971 141.347 66.0535C141.474 66.136 141.562 66.2653 141.593 66.413C142.22 68.2718 143.386 69.9033 144.943 71.1011C145.066 71.1902 145.446 71.4686 145.68 71.4129C145.915 71.3572 146.071 71.012 146.171 70.4441C146.789 66.9746 146.402 63.4014 145.055 60.1436C145.012 60.0382 145.002 59.9225 145.026 59.8113C145.05 59.7001 145.106 59.5986 145.189 59.52C145.273 59.4416 145.379 59.3909 145.493 59.375C145.607 59.359 145.723 59.3786 145.825 59.4309C146.603 59.8936 147.243 60.5548 147.679 61.3463L148.07 61.9142C148.539 62.56 149.343 63.2282 150.057 63.0277C150.772 62.8273 150.984 61.7249 150.95 60.8006C150.839 57.7494 149.432 54.7874 148.181 52.1705C144.91 45.2887 141.203 37.4937 135.184 32.0261C134.606 31.3759 133.814 30.9533 132.951 30.8346C132.194 30.9466 131.49 31.2933 130.941 31.8257L129.11 33.2288C126.252 35.2127 123.66 37.5515 121.395 40.1885C121.227 39.8099 121.048 39.4425 120.847 39.075C123.107 36.5633 125.651 34.3212 128.429 32.3936L130.249 30.9905C130.987 30.3055 131.927 29.876 132.929 29.7656C134.086 29.8591 135.164 30.3887 135.944 31.2466C142.129 36.8144 145.892 44.7653 149.209 51.7362C150.493 54.4533 151.955 57.5267 152.078 60.8006C152.078 62.4932 151.52 63.7293 150.437 64.1413C149.153 64.5979 147.913 63.6847 147.176 62.6825L146.964 62.3819C147.685 65.1153 147.806 67.9713 147.321 70.7559C147.132 71.8138 146.685 72.4485 145.993 72.6155C145.693 72.6562 145.388 72.6315 145.099 72.5431C144.81 72.4546 144.543 72.3046 144.318 72.1033C143.298 71.3673 142.41 70.4636 141.694 69.4307C141.694 71.9585 141.359 74.4752 139.628 76.3014C139.28 76.7024 138.847 77.0219 138.361 77.2374C137.874 77.4529 137.347 77.5592 136.814 77.5486C135.987 77.421 135.224 77.0304 134.637 76.4351C133.724 75.5776 132.968 74.5676 132.404 73.4507C132.239 74.6664 131.92 75.8563 131.455 76.9918C130.707 78.8292 129.121 80.8559 126.989 80.8559C126.829 80.8674 126.668 80.8674 126.508 80.8559C125.846 80.7271 125.224 80.4399 124.697 80.0191C124.17 79.5982 123.753 79.0562 123.483 78.4395C123.157 77.751 122.932 77.0199 122.813 76.268C121.816 77.6089 120.403 78.5836 118.793 79.0408C116.828 79.4528 114.349 77.7825 113.378 75.9228Z" fill="#231431"/>
<path d="M113.377 75.9228C113.245 75.6753 113.14 75.4139 113.065 75.1433C113.045 75.0618 113.042 74.9769 113.058 74.8943C113.073 74.8117 113.106 74.7334 113.154 74.6645C113.229 74.5632 113.335 74.4889 113.456 74.4529C113.598 74.4154 113.749 74.4352 113.876 74.5082C114.004 74.5811 114.098 74.7013 114.137 74.8426C113.891 75.2101 113.634 75.5665 113.377 75.9228Z" fill="#231431"/>
<path d="M115.521 58.997C115.4 58.5537 115.162 58.1508 114.832 57.8298C114.502 57.5088 114.093 57.2813 113.645 57.1708C113.219 57.0661 112.772 57.0758 112.35 57.1991C111.929 57.3223 111.547 57.5546 111.245 57.8723C109.213 60.0104 108.509 64.1194 108.297 65.7898C108.229 66.052 108.215 66.3252 108.255 66.5931C108.295 66.8609 108.389 67.1179 108.532 67.3488C108.945 67.7942 109.827 67.6271 110.519 67.3488C111.679 66.8171 112.713 66.0459 113.553 65.0861C114.392 64.1263 115.017 62.9997 115.387 61.7809C115.7 60.8852 115.747 59.9185 115.521 58.997ZM107.192 65.6784C107.362 64.3053 107.649 62.9492 108.051 61.625C108.5 59.9815 109.313 58.4593 110.43 57.1708C110.862 56.704 111.414 56.3624 112.025 56.1821C112.636 56.0018 113.285 55.9894 113.902 56.1463C114.541 56.3018 115.127 56.6241 115.6 57.08C116.073 57.536 116.416 58.1092 116.593 58.7409C116.863 59.8451 116.816 61.0024 116.459 62.0816C116.049 63.4571 115.347 64.7287 114.401 65.8104C113.455 66.892 112.287 67.7584 110.977 68.351C110.449 68.601 109.875 68.7376 109.291 68.7519C109 68.7641 108.71 68.716 108.439 68.6106C108.168 68.5052 107.922 68.3447 107.716 68.1394C107.447 67.7916 107.26 67.3876 107.169 66.9576C107.078 66.5277 107.086 66.0827 107.192 65.6561V65.6784Z" fill="#231431"/>
<path d="M89.2705 31.9148C91.6592 30.4725 94.3523 29.6059 97.1357 29.3835C99.9191 29.1612 102.716 29.5895 105.305 30.6342C105.379 30.6568 105.448 30.6947 105.507 30.7454C105.566 30.7961 105.613 30.8586 105.647 30.9288C105.68 30.9989 105.698 31.0753 105.7 31.1529C105.702 31.2305 105.688 31.3076 105.658 31.3794C105.628 31.4511 105.584 31.5158 105.527 31.5695C105.471 31.6231 105.404 31.6643 105.331 31.6906C105.258 31.7169 105.18 31.7277 105.102 31.7222C105.025 31.7167 104.949 31.695 104.88 31.6586C102.457 30.6753 99.836 30.2719 97.228 30.4808C94.6201 30.6896 92.0974 31.5049 89.8623 32.8613C89.7704 32.9132 89.6664 32.94 89.5608 32.9392C89.4659 32.9401 89.3725 32.9158 89.2901 32.8688C89.2077 32.8219 89.1393 32.754 89.0919 32.672C89.0532 32.6107 89.027 32.5424 89.0151 32.471C89.0031 32.3996 89.0055 32.3265 89.0222 32.2561C89.0388 32.1856 89.0693 32.1191 89.1119 32.0605C89.1546 32.0019 89.2085 31.9524 89.2705 31.9148Z" fill="#231431"/>
<path d="M92.9552 17.1716C91.0428 18.4007 89.0593 19.5162 87.0151 20.5123C86.9378 20.5282 86.8579 20.5282 86.7806 20.5123C86.6835 20.5128 86.5877 20.4898 86.5015 20.4455C86.4253 20.4013 86.3604 20.3401 86.3119 20.2666C86.2635 20.1932 86.2328 20.1096 86.2223 20.0223C85.5412 13.8198 85.195 7.36109 88.9021 2.50595C89.8532 1.32067 91.1539 0.463645 92.6203 0.0561067C93.4168 -0.160515 94.2596 -0.138776 95.0438 0.118619C95.828 0.376014 96.519 0.857703 97.0308 1.50374C97.3553 1.98978 97.5771 2.53667 97.6827 3.11103C97.7883 3.6854 97.7754 4.2752 97.6449 4.84444C98.2214 4.38093 98.9127 4.0814 99.6459 3.97751C100.379 3.87362 101.127 3.96923 101.81 4.25425C102.422 4.6303 102.905 5.18335 103.194 5.83981C103.483 6.49626 103.565 7.22499 103.429 7.92902C103.147 9.20749 102.486 10.3716 101.531 11.2697C99.7872 12.9417 97.8178 14.3623 95.6797 15.4901C94.7306 16.0692 93.8485 16.6148 92.9552 17.1716ZM89.7842 3.27431C86.4345 7.60607 86.6578 13.4746 87.2495 19.1983C88.9914 18.3297 90.6998 17.2607 92.3747 16.2251C93.2679 15.6683 94.1612 15.1115 95.0544 14.5881C97.0876 13.4991 98.9652 12.1434 100.637 10.557C101.441 9.80784 101.997 8.83326 102.234 7.76197C102.33 7.28594 102.282 6.79212 102.095 6.34376C101.908 5.8954 101.591 5.51292 101.184 5.24532C100.068 4.6774 98.7057 5.18965 96.8298 6.81545C96.7304 6.89592 96.6062 6.93983 96.4781 6.93983C96.35 6.93983 96.2258 6.89592 96.1264 6.81545C96.0239 6.7365 95.9515 6.62508 95.921 6.49958C95.8906 6.37407 95.9039 6.24196 95.9589 6.12503C96.2268 5.55711 97.0754 3.56384 96.037 2.17189C95.6582 1.71887 95.1571 1.38367 94.593 1.20603C94.029 1.0284 93.4258 1.01578 92.8548 1.16967C91.6348 1.53172 90.5603 2.26818 89.7842 3.27431Z" fill="#231431"/>
<path d="M82.2026 100.165C81.2586 101.471 80.1304 102.633 78.8528 103.617C78.7955 103.667 78.7285 103.705 78.6559 103.728C78.5834 103.752 78.5068 103.76 78.431 103.752C78.3551 103.745 78.2816 103.722 78.2149 103.686C78.1482 103.649 78.0898 103.599 78.0432 103.539C77.9966 103.478 77.9629 103.409 77.944 103.336C77.9252 103.262 77.9218 103.185 77.9338 103.11C77.9459 103.035 77.9732 102.963 78.0141 102.899C78.055 102.835 78.1086 102.78 78.1717 102.737C79.347 101.82 80.3815 100.735 81.2423 99.5192C81.2818 99.4528 81.3347 99.3953 81.3976 99.3504C81.4605 99.3054 81.532 99.274 81.6077 99.2581C81.6835 99.2422 81.7617 99.2422 81.8375 99.2581C81.9132 99.2739 81.9848 99.3053 82.0477 99.3503C82.1107 99.3952 82.1635 99.4527 82.203 99.5191C82.2424 99.5855 82.2676 99.6594 82.2769 99.736C82.2862 99.8126 82.2795 99.8903 82.2571 99.9642C82.2347 100.038 82.1971 100.106 82.1468 100.165H82.2026Z" fill="#231431"/>
<path d="M42.5975 11.1909C42.6969 10.2329 43.0741 9.32468 43.6828 8.57713C44.2916 7.82957 45.1057 7.27513 46.0254 6.98159C45.1779 6.17039 44.6474 5.08486 44.5291 3.91929C44.4558 3.06922 44.6823 2.22026 45.1695 1.5189C45.6567 0.817538 46.374 0.30776 47.1978 0.0774988C48.694 -0.25657 50.3465 0.522924 51.8539 2.30463C54.3662 5.43374 55.2037 8.52944 56.0746 12.5605C56.2531 13.1145 56.2531 13.7104 56.0746 14.2643C55.829 14.8211 55.226 15.4447 53.7297 15.4447C53.4609 15.4413 53.1926 15.4227 52.9258 15.389L46.2264 14.5761C45.3554 14.4648 43.7252 14.2754 42.966 13.0505C42.6468 12.4859 42.5176 11.8341 42.5975 11.1909ZM45.6457 3.84135C45.7264 4.46581 45.9495 5.06352 46.2979 5.58859C46.6463 6.11365 47.1108 6.55209 47.6556 6.87025C47.7589 6.93352 47.8386 7.02856 47.883 7.14106C47.9273 7.25356 47.9337 7.37739 47.9012 7.49384C47.8653 7.61039 47.7927 7.71229 47.6941 7.78448C47.5956 7.85668 47.4764 7.89534 47.3541 7.89473C46.4502 7.92449 45.5874 8.27892 44.9247 8.89276C44.262 9.50661 43.844 10.3386 43.7476 11.2354C43.7149 11.6215 43.7964 12.0086 43.982 12.349C44.4175 13.0617 45.4782 13.2398 46.4273 13.3623L53.1268 14.1752C53.7633 14.2532 54.8687 14.2866 55.1144 13.7075C55.2124 13.373 55.2124 13.0175 55.1144 12.683C54.2323 8.68534 53.4841 5.83463 51.1282 2.89482C50.4135 2.07078 49.0066 0.756766 47.5551 1.0797C46.9635 1.24251 46.4491 1.6095 46.1036 2.11526C45.758 2.62101 45.6036 3.23271 45.6681 3.84135H45.6457Z" fill="#231431"/>
<path d="M43.5913 75.4885C51.8987 86.6242 60.4852 98.0493 71.9413 106.312C72.2091 106.547 72.5314 106.711 72.8792 106.791C73.2876 106.766 73.678 106.614 73.9957 106.357C74.7519 105.858 75.4487 105.275 76.0726 104.619C76.1245 104.567 76.1862 104.526 76.2543 104.497C76.3223 104.469 76.3953 104.455 76.469 104.455C76.5427 104.455 76.6156 104.469 76.6837 104.497C76.7517 104.526 76.8135 104.567 76.8654 104.619C76.9174 104.67 76.9587 104.731 76.9869 104.798C77.0151 104.865 77.0296 104.937 77.0296 105.009C77.0296 105.082 77.0151 105.154 76.9869 105.221C76.9587 105.287 76.9174 105.348 76.8654 105.399C76.1938 106.111 75.4448 106.746 74.6322 107.292C74.1476 107.66 73.565 107.877 72.9573 107.916H72.7675C72.2201 107.827 71.7069 107.592 71.2825 107.236C59.6924 98.8734 51.0501 87.3368 42.6981 76.1789C42.6092 76.0608 42.571 75.9123 42.5919 75.7661C42.6129 75.6199 42.6912 75.488 42.8097 75.3994C42.9281 75.3108 43.0771 75.2728 43.2236 75.2937C43.3702 75.3145 43.5025 75.3926 43.5913 75.5108V75.4885Z" fill="#231431"/>
<path d="M39.2031 76.7131C39.2542 76.7786 39.2906 76.8542 39.3099 76.9349C39.3292 77.0156 39.3308 77.0994 39.3147 77.1808C39.2526 77.4696 39.1473 77.7474 39.0021 78.0049C38.7453 77.6485 38.4884 77.2922 38.2428 76.8913C38.2586 76.8209 38.2883 76.7544 38.33 76.6955C38.3718 76.6366 38.4248 76.5865 38.486 76.5482C38.5473 76.5099 38.6156 76.4841 38.6869 76.4722C38.7583 76.4604 38.8312 76.4628 38.9016 76.4792C38.9655 76.495 39.0254 76.5239 39.0773 76.5642C39.1292 76.6045 39.1721 76.6552 39.2031 76.7131Z" fill="#231431"/>
<path d="M44.3282 41.9146C43.4414 42.4443 42.4712 42.8208 41.4586 43.0281C41.2353 43.0281 41.0232 43.0281 40.8111 43.0281C40.3458 43.0436 39.8823 42.9648 39.4485 42.7963C39.0148 42.6279 38.6198 42.3734 38.2876 42.0482C37.6096 41.2508 37.2516 40.2313 37.2826 39.1863C37.2826 39.0527 37.2826 38.9191 37.2826 38.7855C37.2826 35.055 39.4041 31.4137 42.3184 30.2221C44.6521 29.2645 47.0862 29.9994 49.1854 32.2934C50.0526 33.1245 50.5646 34.2575 50.6146 35.4559C50.5293 36.6808 49.9734 37.8257 49.0625 38.6518C47.6749 39.9914 46.0754 41.0938 44.3282 41.9146ZM41.2912 41.9146C42.181 41.7297 43.0338 41.3986 43.8147 40.9346C45.4572 40.176 46.9655 39.1569 48.281 37.9169C48.9896 37.2904 49.4327 36.4185 49.5204 35.4782C49.4519 34.5682 49.0553 33.7137 48.4038 33.0729C47.92 32.4588 47.3121 31.9531 46.6196 31.5886C45.9271 31.224 45.1654 31.0089 44.3841 30.9571C43.836 30.962 43.294 31.0716 42.7874 31.28C40.2192 32.3936 38.321 35.8011 38.455 39.1752C38.4217 39.9476 38.6674 40.7062 39.1473 41.3132C39.4391 41.5629 39.7826 41.7452 40.1531 41.8472C40.5237 41.9492 40.9123 41.9684 41.2912 41.9034V41.9146Z" fill="#231431"/>
<path d="M32.995 66.09C32.8498 65.8117 32.7269 65.5444 32.6041 65.266C32.6445 65.2561 32.6866 65.2561 32.7269 65.266C32.8615 65.327 32.967 65.4378 33.0212 65.5749C33.0754 65.7121 33.074 65.8648 33.0173 66.001L32.995 66.09Z" fill="#231431"/>
<path d="M32.6041 65.2656C32.7269 65.544 32.8498 65.8113 32.9949 66.0897C32.8135 66.4917 32.5767 66.8664 32.2915 67.2032C32.0905 66.8246 31.9119 66.446 31.7444 66.0897C31.8395 65.941 31.9216 65.7846 31.99 65.622C32.0331 65.4994 32.1186 65.3962 32.2312 65.3309C32.3438 65.2655 32.476 65.2424 32.6041 65.2656Z" fill="#231431"/>
<path d="M29.7345 61.1128C29.5916 60.7485 29.4687 60.3768 29.3661 59.9993C29.4696 60.0159 29.5751 60.0159 29.6787 59.9993C29.7515 59.9883 29.8257 59.9921 29.897 60.0105C29.9683 60.0288 30.0351 60.0613 30.0935 60.106C30.1518 60.1507 30.2006 60.2067 30.2368 60.2707C30.273 60.3346 30.2958 60.4052 30.304 60.4781C30.3232 60.6226 30.2849 60.7688 30.1972 60.8854C30.1095 61.002 29.9795 61.0796 29.835 61.1017L29.7345 61.1128Z" fill="#231431"/>
<path d="M29.4665 41.1462C29.5611 41.2606 29.607 41.4074 29.5945 41.5551C29.5819 41.7028 29.512 41.8398 29.3995 41.9368C29.2824 42.0271 29.135 42.0693 28.9876 42.0548C28.8403 42.0403 28.704 41.9702 28.6068 41.8589C28.7184 41.4246 28.8413 41.0014 28.9752 40.5783L29.4665 41.1462Z" fill="#231431"/>
<path d="M29.0529 46.413C29.0905 46.4755 29.1153 46.5451 29.1256 46.6174C29.1359 46.6897 29.1316 46.7634 29.1129 46.834C29.0942 46.9046 29.0615 46.9707 29.0168 47.0285C28.972 47.0862 28.9161 47.1344 28.8524 47.1702C28.8524 46.8361 28.8859 46.502 28.9527 46.168L29.0529 46.413Z" fill="#231431"/>
<path d="M28.9194 46.1795C28.8748 46.5136 28.8412 46.8476 28.8189 47.1817C28.6939 47.2464 28.5487 47.2605 28.4135 47.2211C28.2783 47.1817 28.1636 47.0918 28.0932 46.9701C27.9922 46.7819 27.8804 46.5997 27.7582 46.4245C27.8252 45.8454 27.8921 45.3109 27.9815 44.7207C28.3164 45.1884 28.6291 45.6784 28.9194 46.1795Z" fill="#231431"/>
<mask id="path-30-outside-1_396_12896" maskUnits="userSpaceOnUse" x="26.6242" y="23.3965" width="98" height="93" fill="black">
<rect fill="white" x="26.6242" y="23.3965" width="98" height="93"/>
<path fill-rule="evenodd" clip-rule="evenodd" d="M28.6067 41.8594C28.704 41.9708 28.8403 42.0409 28.9876 42.0554C29.135 42.0698 29.2823 42.0276 29.3995 41.9373C29.512 41.8404 29.5819 41.7034 29.5944 41.5556C29.607 41.4079 29.561 41.2612 29.4665 41.1467L28.9752 40.5788C31.1414 33.8974 35.7529 28.3296 41.6484 25.8909C47.9571 23.2963 55.9406 24.1203 62.5061 28.0512C68.1889 31.6625 72.7481 36.7841 75.6706 42.8393C77.1184 38.213 79.9174 34.1226 83.7094 31.0917C87.5014 28.0608 92.1139 26.2271 96.9567 25.8253C101.8 25.4235 106.653 26.4719 110.895 28.8363C115.137 31.2007 118.575 34.7736 120.769 39.0978L120.401 39.5654C120.357 39.6239 120.325 39.6905 120.307 39.7613C120.288 39.8322 120.284 39.9059 120.295 39.9783C120.305 40.0506 120.33 40.1203 120.367 40.1832C120.404 40.2461 120.454 40.3011 120.512 40.345C120.571 40.3888 120.638 40.4207 120.709 40.4389C120.78 40.457 120.854 40.4611 120.926 40.4507C120.999 40.4404 121.069 40.4159 121.132 40.3786C121.195 40.3414 121.25 40.2921 121.294 40.2336C121.885 41.4522 122.36 42.7235 122.712 44.0308C122.526 44.3501 122.347 44.673 122.176 44.9996C122.149 45.063 122.135 45.1312 122.135 45.2001C122.135 45.269 122.149 45.3371 122.176 45.4005H121.942C120.865 40.2292 118.059 35.5756 113.985 32.2017C109.91 28.8278 104.808 26.9333 99.5128 26.8286C94.2179 26.7238 89.0441 28.4148 84.8385 31.6249C80.6329 34.835 77.6446 39.3739 76.3629 44.4985C76.3376 44.6105 76.2776 44.7116 76.1914 44.7876C76.1052 44.8635 75.9972 44.9105 75.8827 44.9217C75.7684 44.9365 75.6524 44.9142 75.5518 44.858C75.4512 44.8018 75.3715 44.7148 75.3245 44.6099C71.9747 37.6501 67.3744 32.2493 61.9255 29.02C55.6726 25.2673 48.0688 24.4767 42.0727 26.9376C35.0048 29.844 29.8797 37.5054 28.9194 46.1912C28.6291 45.6901 28.3164 45.2001 27.9814 44.7324C28.1379 43.7642 28.3466 42.8051 28.6067 41.8594ZM120.222 64.387C120.922 62.8479 121.526 61.2673 122.031 59.6544C121.906 59.6389 121.791 59.5803 121.705 59.4887C121.62 59.3971 121.569 59.2784 121.562 59.1533C121.567 59.0795 121.588 59.0075 121.622 58.9418C121.656 58.8761 121.704 58.8181 121.761 58.7712C121.819 58.7244 121.885 58.6896 121.956 58.6692C122.028 58.6487 122.103 58.6429 122.176 58.6522H122.332C123.145 55.8785 123.544 53.0006 123.516 50.1111C123.449 50.1413 123.377 50.1569 123.304 50.1569C123.231 50.1569 123.158 50.1413 123.092 50.1111C123.025 50.0812 122.965 50.0383 122.915 49.9848C122.866 49.9314 122.827 49.8686 122.802 49.8001C122.777 49.7316 122.766 49.6588 122.77 49.586C122.774 49.5132 122.792 49.4418 122.824 49.3762L122.901 49.2134C123.065 48.8642 123.234 48.5077 123.427 48.1513C123.36 47.3718 123.248 46.5811 123.103 45.8016V45.6792C123.021 45.7679 122.913 45.8278 122.794 45.8499C122.675 45.872 122.552 45.8551 122.444 45.8016C122.374 45.7668 122.312 45.7168 122.264 45.6551C122.216 45.5934 122.182 45.5217 122.165 45.4453H121.93L122.031 45.9575C123.201 52.2702 121.724 58.4609 119.099 64.1863H119.083C117.373 67.8035 115.339 71.2597 113.008 74.5133L112.987 74.4979C112.049 75.8342 111.1 77.1148 110.162 78.3397C100.009 91.6739 88.445 103.878 75.6706 114.742C62.5955 105.221 51.0277 93.0611 39.3706 76.6026L39.2031 76.7028C39.2543 76.7682 39.2907 76.8438 39.3099 76.9245C39.3292 77.0052 39.3308 77.0891 39.3148 77.1705C39.2527 77.4593 39.1473 77.7371 39.0022 77.9945C50.6593 94.2971 62.2493 106.368 75.3691 115.856C75.464 115.922 75.5772 115.957 75.693 115.956C75.8243 115.956 75.9511 115.908 76.0503 115.822C89.0221 104.857 100.759 92.5163 111.055 79.019L111.318 78.6738C112.003 77.7744 112.695 76.866 113.378 75.8788C113.245 75.6313 113.14 75.3698 113.065 75.0993C113.045 75.0177 113.042 74.9328 113.058 74.8502C113.071 74.7795 113.097 74.7118 113.134 74.6506L113.154 74.665C113.229 74.5637 113.335 74.4894 113.456 74.4534C113.598 74.4159 113.749 74.4357 113.877 74.5087C114.004 74.5816 114.098 74.7018 114.137 74.8431C116.219 71.8997 118.067 68.7982 119.664 65.5672C119.461 65.3074 119.292 65.023 119.161 64.7209C119.117 64.6386 119.094 64.5468 119.094 64.4536C119.094 64.3729 119.112 64.2933 119.145 64.22H119.161C119.216 64.1276 119.298 64.0538 119.396 64.0084C119.462 63.9761 119.534 63.9571 119.607 63.9525C119.68 63.9479 119.754 63.9578 119.823 63.9816C119.893 64.0054 119.957 64.0426 120.012 64.0912C120.067 64.1397 120.112 64.1986 120.144 64.2645C120.163 64.3093 120.19 64.3506 120.222 64.387ZM32.2692 67.2044L37.6399 76.1129C37.7398 76.2282 37.8323 76.3535 37.9243 76.4781C38.0277 76.6182 38.1306 76.7575 38.2428 76.8813C38.2586 76.8109 38.2883 76.7443 38.3301 76.6855C38.3718 76.6266 38.4248 76.5765 38.4861 76.5382C38.5473 76.4999 38.6156 76.4741 38.687 76.4622C38.7583 76.4504 38.8313 76.4528 38.9017 76.4692C38.9627 76.481 39.0208 76.5048 39.0726 76.5393C39.1243 76.5737 39.1687 76.618 39.2031 76.6697L39.3706 76.5583L38.5555 75.4448C36.4446 72.4821 34.5775 69.3539 32.9726 66.0908C32.7912 66.4928 32.5544 66.8676 32.2692 67.2044ZM27.6242 49.053C27.9851 49.6049 28.3132 50.1776 28.6067 50.7679V50.779C28.6614 50.898 28.6724 51.0323 28.6377 51.1585C28.6029 51.2847 28.5247 51.3947 28.4168 51.4691C28.3089 51.5435 28.1781 51.5776 28.0474 51.5655C27.9168 51.5533 27.7946 51.4957 27.7023 51.4026C27.9077 54.3282 28.4664 57.2184 29.3661 60.0105C29.4696 60.0271 29.5751 60.0271 29.6787 60.0105C29.7515 59.9995 29.8257 60.0034 29.897 60.0217C29.9682 60.04 30.0351 60.0725 30.0934 60.1172C30.1518 60.162 30.2006 60.2179 30.2368 60.2819C30.2729 60.3458 30.2958 60.4164 30.304 60.4893C30.3232 60.6338 30.2848 60.78 30.1972 60.8966C30.1095 61.0132 29.9795 61.0909 29.835 61.1129H29.7345C29.8685 61.5361 30.0137 61.9592 30.1811 62.3824L31.7444 66.0571C31.8395 65.9085 31.9216 65.752 31.99 65.5894C32.0391 65.4731 32.1271 65.3773 32.2391 65.3184C32.3511 65.2595 32.4801 65.2412 32.6041 65.2665C30.202 60.3459 28.8847 54.9693 28.7408 49.4984C28.7276 48.7255 28.7536 47.9525 28.8189 47.1822C28.6939 47.2469 28.5486 47.261 28.4135 47.2216C28.2783 47.1822 28.1636 47.0923 28.0932 46.9706C27.9922 46.7824 27.8804 46.6002 27.7582 46.425C27.6242 47.2935 27.6242 48.1732 27.6242 49.0529V49.053Z"/>
</mask>
<path fill-rule="evenodd" clip-rule="evenodd" d="M28.6067 41.8594C28.704 41.9708 28.8403 42.0409 28.9876 42.0554C29.135 42.0698 29.2823 42.0276 29.3995 41.9373C29.512 41.8404 29.5819 41.7034 29.5944 41.5556C29.607 41.4079 29.561 41.2612 29.4665 41.1467L28.9752 40.5788C31.1414 33.8974 35.7529 28.3296 41.6484 25.8909C47.9571 23.2963 55.9406 24.1203 62.5061 28.0512C68.1889 31.6625 72.7481 36.7841 75.6706 42.8393C77.1184 38.213 79.9174 34.1226 83.7094 31.0917C87.5014 28.0608 92.1139 26.2271 96.9567 25.8253C101.8 25.4235 106.653 26.4719 110.895 28.8363C115.137 31.2007 118.575 34.7736 120.769 39.0978L120.401 39.5654C120.357 39.6239 120.325 39.6905 120.307 39.7613C120.288 39.8322 120.284 39.9059 120.295 39.9783C120.305 40.0506 120.33 40.1203 120.367 40.1832C120.404 40.2461 120.454 40.3011 120.512 40.345C120.571 40.3888 120.638 40.4207 120.709 40.4389C120.78 40.457 120.854 40.4611 120.926 40.4507C120.999 40.4404 121.069 40.4159 121.132 40.3786C121.195 40.3414 121.25 40.2921 121.294 40.2336C121.885 41.4522 122.36 42.7235 122.712 44.0308C122.526 44.3501 122.347 44.673 122.176 44.9996C122.149 45.063 122.135 45.1312 122.135 45.2001C122.135 45.269 122.149 45.3371 122.176 45.4005H121.942C120.865 40.2292 118.059 35.5756 113.985 32.2017C109.91 28.8278 104.808 26.9333 99.5128 26.8286C94.2179 26.7238 89.0441 28.4148 84.8385 31.6249C80.6329 34.835 77.6446 39.3739 76.3629 44.4985C76.3376 44.6105 76.2776 44.7116 76.1914 44.7876C76.1052 44.8635 75.9972 44.9105 75.8827 44.9217C75.7684 44.9365 75.6524 44.9142 75.5518 44.858C75.4512 44.8018 75.3715 44.7148 75.3245 44.6099C71.9747 37.6501 67.3744 32.2493 61.9255 29.02C55.6726 25.2673 48.0688 24.4767 42.0727 26.9376C35.0048 29.844 29.8797 37.5054 28.9194 46.1912C28.6291 45.6901 28.3164 45.2001 27.9814 44.7324C28.1379 43.7642 28.3466 42.8051 28.6067 41.8594ZM120.222 64.387C120.922 62.8479 121.526 61.2673 122.031 59.6544C121.906 59.6389 121.791 59.5803 121.705 59.4887C121.62 59.3971 121.569 59.2784 121.562 59.1533C121.567 59.0795 121.588 59.0075 121.622 58.9418C121.656 58.8761 121.704 58.8181 121.761 58.7712C121.819 58.7244 121.885 58.6896 121.956 58.6692C122.028 58.6487 122.103 58.6429 122.176 58.6522H122.332C123.145 55.8785 123.544 53.0006 123.516 50.1111C123.449 50.1413 123.377 50.1569 123.304 50.1569C123.231 50.1569 123.158 50.1413 123.092 50.1111C123.025 50.0812 122.965 50.0383 122.915 49.9848C122.866 49.9314 122.827 49.8686 122.802 49.8001C122.777 49.7316 122.766 49.6588 122.77 49.586C122.774 49.5132 122.792 49.4418 122.824 49.3762L122.901 49.2134C123.065 48.8642 123.234 48.5077 123.427 48.1513C123.36 47.3718 123.248 46.5811 123.103 45.8016V45.6792C123.021 45.7679 122.913 45.8278 122.794 45.8499C122.675 45.872 122.552 45.8551 122.444 45.8016C122.374 45.7668 122.312 45.7168 122.264 45.6551C122.216 45.5934 122.182 45.5217 122.165 45.4453H121.93L122.031 45.9575C123.201 52.2702 121.724 58.4609 119.099 64.1863H119.083C117.373 67.8035 115.339 71.2597 113.008 74.5133L112.987 74.4979C112.049 75.8342 111.1 77.1148 110.162 78.3397C100.009 91.6739 88.445 103.878 75.6706 114.742C62.5955 105.221 51.0277 93.0611 39.3706 76.6026L39.2031 76.7028C39.2543 76.7682 39.2907 76.8438 39.3099 76.9245C39.3292 77.0052 39.3308 77.0891 39.3148 77.1705C39.2527 77.4593 39.1473 77.7371 39.0022 77.9945C50.6593 94.2971 62.2493 106.368 75.3691 115.856C75.464 115.922 75.5772 115.957 75.693 115.956C75.8243 115.956 75.9511 115.908 76.0503 115.822C89.0221 104.857 100.759 92.5163 111.055 79.019L111.318 78.6738C112.003 77.7744 112.695 76.866 113.378 75.8788C113.245 75.6313 113.14 75.3698 113.065 75.0993C113.045 75.0177 113.042 74.9328 113.058 74.8502C113.071 74.7795 113.097 74.7118 113.134 74.6506L113.154 74.665C113.229 74.5637 113.335 74.4894 113.456 74.4534C113.598 74.4159 113.749 74.4357 113.877 74.5087C114.004 74.5816 114.098 74.7018 114.137 74.8431C116.219 71.8997 118.067 68.7982 119.664 65.5672C119.461 65.3074 119.292 65.023 119.161 64.7209C119.117 64.6386 119.094 64.5468 119.094 64.4536C119.094 64.3729 119.112 64.2933 119.145 64.22H119.161C119.216 64.1276 119.298 64.0538 119.396 64.0084C119.462 63.9761 119.534 63.9571 119.607 63.9525C119.68 63.9479 119.754 63.9578 119.823 63.9816C119.893 64.0054 119.957 64.0426 120.012 64.0912C120.067 64.1397 120.112 64.1986 120.144 64.2645C120.163 64.3093 120.19 64.3506 120.222 64.387ZM32.2692 67.2044L37.6399 76.1129C37.7398 76.2282 37.8323 76.3535 37.9243 76.4781C38.0277 76.6182 38.1306 76.7575 38.2428 76.8813C38.2586 76.8109 38.2883 76.7443 38.3301 76.6855C38.3718 76.6266 38.4248 76.5765 38.4861 76.5382C38.5473 76.4999 38.6156 76.4741 38.687 76.4622C38.7583 76.4504 38.8313 76.4528 38.9017 76.4692C38.9627 76.481 39.0208 76.5048 39.0726 76.5393C39.1243 76.5737 39.1687 76.618 39.2031 76.6697L39.3706 76.5583L38.5555 75.4448C36.4446 72.4821 34.5775 69.3539 32.9726 66.0908C32.7912 66.4928 32.5544 66.8676 32.2692 67.2044ZM27.6242 49.053C27.9851 49.6049 28.3132 50.1776 28.6067 50.7679V50.779C28.6614 50.898 28.6724 51.0323 28.6377 51.1585C28.6029 51.2847 28.5247 51.3947 28.4168 51.4691C28.3089 51.5435 28.1781 51.5776 28.0474 51.5655C27.9168 51.5533 27.7946 51.4957 27.7023 51.4026C27.9077 54.3282 28.4664 57.2184 29.3661 60.0105C29.4696 60.0271 29.5751 60.0271 29.6787 60.0105C29.7515 59.9995 29.8257 60.0034 29.897 60.0217C29.9682 60.04 30.0351 60.0725 30.0934 60.1172C30.1518 60.162 30.2006 60.2179 30.2368 60.2819C30.2729 60.3458 30.2958 60.4164 30.304 60.4893C30.3232 60.6338 30.2848 60.78 30.1972 60.8966C30.1095 61.0132 29.9795 61.0909 29.835 61.1129H29.7345C29.8685 61.5361 30.0137 61.9592 30.1811 62.3824L31.7444 66.0571C31.8395 65.9085 31.9216 65.752 31.99 65.5894C32.0391 65.4731 32.1271 65.3773 32.2391 65.3184C32.3511 65.2595 32.4801 65.2412 32.6041 65.2665C30.202 60.3459 28.8847 54.9693 28.7408 49.4984C28.7276 48.7255 28.7536 47.9525 28.8189 47.1822C28.6939 47.2469 28.5486 47.261 28.4135 47.2216C28.2783 47.1822 28.1636 47.0923 28.0932 46.9706C27.9922 46.7824 27.8804 46.6002 27.7582 46.425C27.6242 47.2935 27.6242 48.1732 27.6242 49.0529V49.053Z" fill="#231431"/>
<path d="M28.6067 41.8594L28.8327 41.6621L28.4655 41.2416L28.3175 41.7798L28.6067 41.8594ZM29.3995 41.9373L29.5826 42.175L29.5892 42.1699L29.5955 42.1645L29.3995 41.9373ZM29.5944 41.5556L29.2955 41.5303L29.5944 41.5556ZM29.4665 41.1467L29.6979 40.9556L29.6934 40.9505L29.4665 41.1467ZM28.9752 40.5788L28.6898 40.4863L28.6377 40.6472L28.7483 40.7751L28.9752 40.5788ZM41.6484 25.8909L41.5343 25.6134L41.5338 25.6137L41.6484 25.8909ZM62.5061 28.0512L62.6671 27.7979L62.6602 27.7938L62.5061 28.0512ZM75.6706 42.8393L75.4004 42.9697L75.7303 43.6531L75.9569 42.9289L75.6706 42.8393ZM83.7094 31.0917L83.5221 30.8574L83.7094 31.0917ZM96.9567 25.8253L96.9319 25.5263L96.9567 25.8253ZM110.895 28.8363L110.749 29.0984V29.0984L110.895 28.8363ZM120.769 39.0978L121.005 39.2834L121.124 39.1329L121.037 38.962L120.769 39.0978ZM120.401 39.5654L120.165 39.3797L120.161 39.3851L120.401 39.5654ZM120.512 40.345L120.692 40.1047L120.692 40.1047L120.512 40.345ZM120.709 40.4389L120.783 40.1482L120.783 40.1482L120.709 40.4389ZM120.926 40.4507L120.884 40.1537L120.884 40.1537L120.926 40.4507ZM121.132 40.3786L120.979 40.1203L120.979 40.1203L121.132 40.3786ZM121.294 40.2336L121.564 40.1027L121.35 39.6606L121.054 40.0533L121.294 40.2336ZM122.712 44.0308L122.971 44.1819L123.034 44.0737L123.002 43.9528L122.712 44.0308ZM122.176 44.9996L121.91 44.8604L121.905 44.871L121.9 44.882L122.176 44.9996ZM122.176 45.4005V45.7005H122.63L122.452 45.2829L122.176 45.4005ZM121.942 45.4005L121.648 45.4617L121.698 45.7005H121.942V45.4005ZM113.985 32.2017L113.793 32.4328L113.985 32.2017ZM99.5128 26.8286L99.5069 27.1285L99.5128 26.8286ZM84.8385 31.6249L84.6565 31.3864L84.8385 31.6249ZM76.3629 44.4985L76.0718 44.4257L76.0702 44.4325L76.3629 44.4985ZM76.1914 44.7876L76.3898 45.0126L76.3898 45.0126L76.1914 44.7876ZM75.8827 44.9217L75.8534 44.623L75.8442 44.6242L75.8827 44.9217ZM75.5518 44.858L75.6981 44.5961L75.6981 44.5961L75.5518 44.858ZM75.3245 44.6099L75.5983 44.4871L75.5948 44.4798L75.3245 44.6099ZM61.9255 29.02L61.7711 29.2772L61.7725 29.2781L61.9255 29.02ZM42.0727 26.9376L41.9588 26.6601L41.9587 26.6602L42.0727 26.9376ZM28.9194 46.1912L28.6598 46.3416L29.1173 47.1312L29.2176 46.2241L28.9194 46.1912ZM27.9814 44.7324L27.6853 44.6845L27.6656 44.8066L27.7375 44.9071L27.9814 44.7324ZM122.031 59.6544L122.317 59.7441L122.425 59.401L122.068 59.3567L122.031 59.6544ZM120.222 64.387L119.998 64.5866L120.305 64.9306L120.495 64.5111L120.222 64.387ZM121.705 59.4887L121.924 59.2837L121.924 59.2837L121.705 59.4887ZM121.562 59.1533L121.263 59.1311L121.261 59.1504L121.262 59.1698L121.562 59.1533ZM121.761 58.7712L121.572 58.5388L121.572 58.5388L121.761 58.7712ZM122.176 58.6522L122.139 58.9498L122.157 58.9522H122.176V58.6522ZM122.332 58.6522V58.9522H122.557L122.62 58.7365L122.332 58.6522ZM123.516 50.1111L123.816 50.1083L123.812 49.6482L123.392 49.8378L123.516 50.1111ZM123.092 50.1111L123.215 49.8378L123.215 49.8375L123.092 50.1111ZM122.802 49.8001L123.084 49.6973V49.6973L122.802 49.8001ZM122.77 49.586L123.07 49.6012V49.6012L122.77 49.586ZM122.824 49.3762L123.094 49.507L123.095 49.5043L122.824 49.3762ZM122.901 49.2134L123.172 49.3415L123.172 49.3414L122.901 49.2134ZM123.427 48.1513L123.69 48.2942L123.733 48.2152L123.726 48.1256L123.427 48.1513ZM123.103 45.8016H122.803V45.8293L122.808 45.8566L123.103 45.8016ZM123.103 45.6792H123.403V44.9104L122.882 45.476L123.103 45.6792ZM122.794 45.8499L122.739 45.555H122.739L122.794 45.8499ZM122.444 45.8016L122.311 46.0705L122.311 46.0707L122.444 45.8016ZM122.264 45.6551L122.028 45.8401L122.028 45.8401L122.264 45.6551ZM122.165 45.4453L122.458 45.3807L122.406 45.1453H122.165V45.4453ZM121.93 45.4453V45.1453H121.566L121.636 45.5031L121.93 45.4453ZM122.031 45.9575L122.326 45.9029L122.325 45.8998L122.031 45.9575ZM119.099 64.1863V64.4863H119.291L119.371 64.3114L119.099 64.1863ZM119.083 64.1863V63.8863H118.893L118.812 64.0581L119.083 64.1863ZM113.008 74.5133L112.831 74.7554L113.075 74.9342L113.251 74.688L113.008 74.5133ZM112.987 74.4979L113.164 74.2558L112.917 74.0752L112.741 74.3256L112.987 74.4979ZM110.162 78.3397L109.924 78.1574L109.923 78.158L110.162 78.3397ZM75.6706 114.742L75.494 114.985L75.685 115.124L75.865 114.971L75.6706 114.742ZM39.3706 76.6026L39.6154 76.4292L39.4549 76.2025L39.2165 76.3452L39.3706 76.6026ZM39.2031 76.7028L39.0491 76.4454L38.7576 76.6198L38.9667 76.8875L39.2031 76.7028ZM39.3099 76.9245L39.0181 76.9942L39.3099 76.9245ZM39.3148 77.1705L39.6081 77.2336L39.6091 77.2286L39.3148 77.1705ZM39.0022 77.9945L38.7408 77.8472L38.647 78.0136L38.7581 78.169L39.0022 77.9945ZM75.3691 115.856L75.1933 116.099L75.1977 116.102L75.3691 115.856ZM75.693 115.956L75.6922 115.656L75.6907 115.656L75.693 115.956ZM76.0503 115.822L75.8566 115.593L75.8539 115.596L76.0503 115.822ZM111.055 79.019L111.294 79.2009L111.294 79.2007L111.055 79.019ZM111.318 78.6738L111.079 78.4921L111.079 78.4921L111.318 78.6738ZM113.378 75.8788L113.624 76.0495L113.729 75.8986L113.642 75.7369L113.378 75.8788ZM113.065 75.0993L112.773 75.1712L112.776 75.1794L113.065 75.0993ZM113.058 74.8502L113.353 74.9052V74.9052L113.058 74.8502ZM113.134 74.6506L113.312 74.4084L113.049 74.2162L112.879 74.4939L113.134 74.6506ZM113.154 74.665L112.977 74.9071L113.218 75.0835L113.396 74.8432L113.154 74.665ZM113.456 74.4534L113.379 74.1632L113.37 74.1659L113.456 74.4534ZM113.877 74.5087L113.728 74.7691L113.728 74.7691L113.877 74.5087ZM114.137 74.8431L113.848 74.9233L114.017 75.5324L114.382 75.0164L114.137 74.8431ZM119.664 65.5672L119.933 65.7001L120.016 65.5312L119.9 65.3827L119.664 65.5672ZM119.161 64.7209L119.437 64.6015L119.432 64.5902L119.426 64.5794L119.161 64.7209ZM119.145 64.22V63.92H118.951L118.871 64.0963L119.145 64.22ZM119.161 64.22V64.52H119.332L119.419 64.3735L119.161 64.22ZM119.396 64.0084L119.522 64.2805L119.528 64.2778L119.396 64.0084ZM119.607 63.9525L119.588 63.6531L119.607 63.9525ZM119.823 63.9816L119.92 63.6977L119.92 63.6977L119.823 63.9816ZM120.012 64.0912L120.21 63.8662L120.21 63.8662L120.012 64.0912ZM120.144 64.2645L120.42 64.1453L120.414 64.133L120.144 64.2645ZM37.6399 76.1129L37.383 76.2678L37.3963 76.2898L37.4131 76.3093L37.6399 76.1129ZM32.2692 67.2044L32.0402 67.0105L31.9011 67.1748L32.0122 67.3593L32.2692 67.2044ZM37.9243 76.4781L38.1656 76.2999H38.1656L37.9243 76.4781ZM38.2428 76.8813L38.0206 77.0828L38.409 77.5108L38.5356 76.947L38.2428 76.8813ZM38.3301 76.6855L38.5748 76.859L38.5748 76.859L38.3301 76.6855ZM38.4861 76.5382L38.6451 76.7925H38.6452L38.4861 76.5382ZM38.687 76.4622L38.7361 76.7582L38.7361 76.7582L38.687 76.4622ZM38.9017 76.4692L38.8333 76.7616L38.8447 76.7638L38.9017 76.4692ZM39.2031 76.6697L38.9534 76.8359L39.1196 77.0855L39.3693 76.9195L39.2031 76.6697ZM39.3706 76.5583L39.5367 76.8081L39.798 76.6343L39.6127 76.3811L39.3706 76.5583ZM38.5555 75.4448L38.3112 75.6189L38.3134 75.6219L38.5555 75.4448ZM32.9726 66.0908L33.2418 65.9584L32.961 65.3874L32.6992 65.9674L32.9726 66.0908ZM28.6067 50.7679H28.9067V50.6974L28.8753 50.6343L28.6067 50.7679ZM27.6242 49.053H27.3242V49.1424L27.3731 49.2172L27.6242 49.053ZM28.6067 50.779H28.3067V50.8447L28.3342 50.9044L28.6067 50.779ZM28.0474 51.5655L28.0196 51.8642H28.0196L28.0474 51.5655ZM27.7023 51.4026L27.9153 51.1914L27.3465 50.6177L27.403 51.4236L27.7023 51.4026ZM29.3661 60.0105L29.0805 60.1025L29.1369 60.2775L29.3185 60.3067L29.3661 60.0105ZM29.6787 60.0105L29.6341 59.7138L29.6311 59.7143L29.6787 60.0105ZM29.897 60.0217L29.9717 59.7312H29.9717L29.897 60.0217ZM30.0934 60.1172L30.2758 59.8791L30.2758 59.8791L30.0934 60.1172ZM30.2368 60.2819L30.4979 60.1341L30.4979 60.1341L30.2368 60.2819ZM30.304 60.4893L30.0058 60.5228L30.0066 60.5289L30.304 60.4893ZM30.1972 60.8966L30.4369 61.0769L30.4369 61.0769L30.1972 60.8966ZM29.835 61.1129V61.4129H29.8578L29.8803 61.4095L29.835 61.1129ZM29.7345 61.1129V60.8129H29.3248L29.4485 61.2035L29.7345 61.1129ZM30.1811 62.3824L29.9021 62.4928L29.9051 62.4998L30.1811 62.3824ZM31.7444 66.0571L31.4683 66.1746L31.6908 66.6976L31.9971 66.2188L31.7444 66.0571ZM31.99 65.5894L31.7136 65.4728L31.7135 65.4731L31.99 65.5894ZM32.2391 65.3184L32.0995 65.0529L32.0995 65.0529L32.2391 65.3184ZM32.6041 65.2665L32.5441 65.5604L33.141 65.6824L32.8737 65.1349L32.6041 65.2665ZM28.7408 49.4984L28.4408 49.5036L28.4409 49.5063L28.7408 49.4984ZM28.8189 47.1822L29.1178 47.2075L29.1637 46.6661L28.681 46.9158L28.8189 47.1822ZM28.4135 47.2216L28.4974 46.9336H28.4974L28.4135 47.2216ZM28.0932 46.9706L27.8286 47.1125L27.8335 47.1209L28.0932 46.9706ZM27.7582 46.425L28.0043 46.2534L27.5759 45.639L27.4617 46.3792L27.7582 46.425ZM29.017 41.7568C28.9455 41.7498 28.8796 41.7158 28.8327 41.6621L28.3808 42.0567C28.5284 42.2258 28.735 42.332 28.9583 42.3539L29.017 41.7568ZM29.2164 41.6997C29.1598 41.7433 29.0884 41.7638 29.017 41.7568L28.9583 42.3539C29.1815 42.3759 29.4049 42.3119 29.5826 42.175L29.2164 41.6997ZM29.2955 41.5303C29.2896 41.5997 29.2567 41.6643 29.2036 41.7102L29.5955 42.1645C29.7672 42.0164 29.8742 41.807 29.8934 41.581L29.2955 41.5303ZM29.2352 41.3378C29.2798 41.3918 29.3014 41.4609 29.2955 41.5303L29.8934 41.581C29.9125 41.3549 29.8422 41.1305 29.6978 40.9557L29.2352 41.3378ZM28.7483 40.7751L29.2396 41.343L29.6934 40.9505L29.2021 40.3825L28.7483 40.7751ZM41.5338 25.6137C35.5416 28.0923 30.8775 33.7386 28.6898 40.4863L29.2606 40.6713C31.4053 34.0562 35.9642 28.5668 41.7631 26.1681L41.5338 25.6137ZM62.6602 27.7938C56.0248 23.821 47.942 22.9781 41.5343 25.6134L41.7625 26.1683C47.9722 23.6144 55.8565 24.4196 62.352 28.3086L62.6602 27.7938ZM75.9408 42.7089C72.9939 36.6033 68.3969 31.4393 62.667 27.798L62.3452 28.3044C67.9809 31.8858 72.5022 36.9649 75.4004 42.9697L75.9408 42.7089ZM83.5221 30.8574C79.6835 33.9255 76.85 38.0662 75.3843 42.7497L75.9569 42.9289C77.3869 38.3597 80.1514 34.3197 83.8967 31.326L83.5221 30.8574ZM96.9319 25.5263C92.0298 25.933 87.3607 27.7892 83.5221 30.8574L83.8967 31.326C87.6421 28.3324 92.198 26.5211 96.9816 26.1243L96.9319 25.5263ZM111.041 28.5743C106.747 26.1809 101.834 25.1196 96.9319 25.5263L96.9816 26.1243C101.765 25.7274 106.559 26.763 110.749 29.0984L111.041 28.5743ZM121.037 38.962C118.815 34.5845 115.335 30.9677 111.041 28.5743L110.749 29.0984C114.938 31.4337 118.334 34.9627 120.502 39.2335L121.037 38.962ZM120.636 39.7511L121.005 39.2834L120.534 38.9121L120.165 39.3798L120.636 39.7511ZM120.597 39.836C120.606 39.8034 120.62 39.7727 120.641 39.7458L120.161 39.3851C120.093 39.4752 120.044 39.5776 120.016 39.6867L120.597 39.836ZM120.592 39.9357C120.587 39.9024 120.589 39.8686 120.597 39.836L120.016 39.6867C119.988 39.7958 119.982 39.9093 119.998 40.0208L120.592 39.9357ZM120.625 40.03C120.608 40.001 120.596 39.9689 120.592 39.9357L119.998 40.0208C120.014 40.1323 120.052 40.2396 120.109 40.3363L120.625 40.03ZM120.692 40.1047C120.665 40.0844 120.642 40.059 120.625 40.03L120.109 40.3363C120.167 40.4332 120.243 40.5177 120.333 40.5852L120.692 40.1047ZM120.783 40.1482C120.75 40.1398 120.719 40.125 120.692 40.1047L120.333 40.5852C120.423 40.6526 120.526 40.7017 120.635 40.7295L120.783 40.1482ZM120.884 40.1537C120.85 40.1585 120.816 40.1566 120.783 40.1482L120.635 40.7295C120.744 40.7574 120.857 40.7636 120.969 40.7477L120.884 40.1537ZM120.979 40.1203C120.95 40.1376 120.918 40.1489 120.884 40.1537L120.969 40.7477C121.08 40.7318 121.187 40.6942 121.284 40.6369L120.979 40.1203ZM121.054 40.0533C121.034 40.0802 121.009 40.103 120.979 40.1203L121.284 40.6369C121.381 40.5797 121.466 40.5039 121.534 40.4139L121.054 40.0533ZM123.002 43.9528C122.645 42.6273 122.163 41.3382 121.564 40.1027L121.024 40.3645C121.607 41.5662 122.075 42.8198 122.422 44.1089L123.002 43.9528ZM122.442 45.1389C122.611 44.8163 122.787 44.4973 122.971 44.1819L122.453 43.8798C122.265 44.2029 122.084 44.5297 121.91 44.8604L122.442 45.1389ZM122.435 45.2001C122.435 45.1717 122.441 45.1435 122.452 45.1173L121.9 44.882C121.857 44.9826 121.835 45.0908 121.835 45.2001H122.435ZM122.452 45.2829C122.441 45.2567 122.435 45.2285 122.435 45.2001H121.835C121.835 45.3094 121.857 45.4176 121.9 45.5182L122.452 45.2829ZM121.942 45.7005H122.176V45.1005H121.942V45.7005ZM113.793 32.4328C117.816 35.7634 120.585 40.3571 121.648 45.4617L122.235 45.3394C121.145 40.1013 118.303 35.3879 114.176 31.9706L113.793 32.4328ZM99.5069 27.1285C104.734 27.2319 109.771 29.1021 113.793 32.4328L114.176 31.9706C110.049 28.5534 104.881 26.6347 99.5187 26.5286L99.5069 27.1285ZM85.0205 31.8634C89.1721 28.6945 94.2796 27.0251 99.5069 27.1285L99.5187 26.5286C94.1561 26.4225 88.916 28.1352 84.6565 31.3864L85.0205 31.8634ZM76.6539 44.5713C77.9191 39.5128 80.8689 35.0323 85.0205 31.8634L84.6565 31.3864C80.3969 34.6377 77.3701 39.235 76.0718 44.4258L76.6539 44.5713ZM76.3898 45.0126C76.5232 44.895 76.6163 44.7382 76.6555 44.5646L76.0702 44.4325C76.0589 44.4827 76.0319 44.5282 75.993 44.5625L76.3898 45.0126ZM75.9121 45.2203C76.0891 45.2029 76.2563 45.1303 76.3898 45.0126L75.993 44.5625C75.9541 44.5968 75.9053 44.618 75.8534 44.6231L75.9121 45.2203ZM75.4055 45.1199C75.5623 45.2075 75.7432 45.2423 75.9213 45.2192L75.8442 44.6242C75.7937 44.6307 75.7424 44.6208 75.6981 44.5961L75.4055 45.1199ZM75.0507 44.7327C75.1242 44.8966 75.2487 45.0323 75.4055 45.1199L75.6981 44.5961C75.6538 44.5713 75.6188 44.5331 75.5982 44.4871L75.0507 44.7327ZM61.7725 29.2781C67.1592 32.4706 71.7237 37.8203 75.0541 44.74L75.5948 44.4798C72.2258 37.48 67.5896 32.0281 62.0784 28.7619L61.7725 29.2781ZM42.1867 27.2152C48.0835 24.7949 55.5881 25.5665 61.7711 29.2772L62.0799 28.7628C55.7572 24.9681 48.054 24.1584 41.9588 26.6601L42.1867 27.2152ZM29.2176 46.2241C30.1684 37.6239 35.2405 30.0715 42.1868 27.2151L41.9587 26.6602C34.7691 29.6166 29.5909 37.3869 28.6212 46.1582L29.2176 46.2241ZM27.7375 44.9071C28.0663 45.3661 28.3738 45.8478 28.6598 46.3416L29.179 46.0408C28.8844 45.5323 28.5666 45.0341 28.2253 44.5577L27.7375 44.9071ZM28.3175 41.7798C28.0545 42.736 27.8435 43.7057 27.6853 44.6845L28.2776 44.7803C28.4323 43.8228 28.6387 42.8743 28.896 41.939L28.3175 41.7798ZM121.745 59.5647C121.243 61.1659 120.643 62.7349 119.949 64.2629L120.495 64.5111C121.2 62.9608 121.808 61.3688 122.317 59.7441L121.745 59.5647ZM121.486 59.6937C121.62 59.8366 121.8 59.928 121.994 59.9521L122.068 59.3567C122.013 59.3498 121.962 59.3239 121.924 59.2837L121.486 59.6937ZM121.262 59.1698C121.273 59.3654 121.353 59.5508 121.486 59.6937L121.924 59.2837C121.887 59.2434 121.865 59.1914 121.862 59.1368L121.262 59.1698ZM121.356 58.8031C121.303 58.9049 121.271 59.0165 121.263 59.1311L121.861 59.1755C121.864 59.1425 121.873 59.1101 121.888 59.0805L121.356 58.8031ZM121.572 58.5388C121.483 58.6114 121.409 58.7013 121.356 58.8031L121.888 59.0805C121.904 59.051 121.925 59.0248 121.951 59.0037L121.572 58.5388ZM121.874 58.3808C121.763 58.4125 121.66 58.4662 121.572 58.5388L121.951 59.0037C121.977 58.9825 122.007 58.9668 122.039 58.9575L121.874 58.3808ZM122.214 58.3545C122.1 58.3402 121.984 58.3491 121.874 58.3808L122.039 58.9575C122.071 58.9483 122.105 58.9456 122.139 58.9498L122.214 58.3545ZM122.332 58.3522H122.176V58.9522H122.332V58.3522ZM123.216 50.114C123.243 52.974 122.849 55.8224 122.045 58.5679L122.62 58.7365C123.441 55.9345 123.844 53.0273 123.816 50.1083L123.216 50.114ZM123.304 50.4569C123.42 50.4569 123.534 50.4322 123.64 50.3845L123.392 49.8378C123.365 49.8504 123.334 49.8569 123.304 49.8569V50.4569ZM122.968 50.3845C123.074 50.4322 123.188 50.4569 123.304 50.4569V49.8569C123.273 49.8569 123.243 49.8504 123.215 49.8378L122.968 50.3845ZM122.696 50.1892C122.773 50.2721 122.866 50.3385 122.969 50.3848L123.215 49.8375C123.184 49.8239 123.157 49.8045 123.135 49.7804L122.696 50.1892ZM122.52 49.9028C122.559 50.0091 122.619 50.1065 122.696 50.1892L123.135 49.7804C123.113 49.7563 123.095 49.7281 123.084 49.6973L122.52 49.9028ZM122.47 49.5707C122.465 49.6837 122.482 49.7966 122.52 49.9028L123.084 49.6973C123.073 49.6665 123.068 49.6339 123.07 49.6012L122.47 49.5707ZM122.554 49.2454C122.504 49.3472 122.476 49.4578 122.47 49.5707L123.07 49.6012C123.071 49.5685 123.079 49.5364 123.094 49.507L122.554 49.2454ZM122.629 49.0853L122.552 49.2481L123.095 49.5043L123.172 49.3415L122.629 49.0853ZM123.163 48.0083C122.965 48.3733 122.794 48.7372 122.629 49.0854L123.172 49.3414C123.337 48.9911 123.502 48.6421 123.69 48.2942L123.163 48.0083ZM122.808 45.8566C122.952 46.6276 123.062 47.4084 123.128 48.177L123.726 48.1256C123.658 47.3352 123.545 46.5347 123.398 45.7467L122.808 45.8566ZM122.803 45.6792V45.8016H123.403V45.6792H122.803ZM122.849 46.1449C123.031 46.1109 123.198 46.0189 123.324 45.8823L122.882 45.476C122.844 45.517 122.794 45.5447 122.739 45.555L122.849 46.1449ZM122.311 46.0707C122.478 46.1528 122.666 46.1788 122.849 46.1449L122.739 45.555C122.684 45.5652 122.627 45.5574 122.577 45.5326L122.311 46.0707ZM122.028 45.8401C122.104 45.9372 122.201 46.0158 122.311 46.0705L122.577 45.5328C122.547 45.5178 122.521 45.4964 122.5 45.4701L122.028 45.8401ZM121.872 45.5099C121.899 45.6302 121.952 45.743 122.028 45.8401L122.5 45.4701C122.48 45.4438 122.465 45.4133 122.458 45.3807L121.872 45.5099ZM121.93 45.7453H122.165V45.1453H121.93V45.7453ZM122.325 45.8998L122.225 45.3875L121.636 45.5031L121.737 46.0153L122.325 45.8998ZM119.371 64.3114C122.012 58.5527 123.511 52.2971 122.326 45.9029L121.736 46.0122C122.891 52.2433 121.436 58.3691 118.826 64.0613L119.371 64.3114ZM119.083 64.4863H119.099V63.8863H119.083V64.4863ZM113.251 74.688C115.594 71.4198 117.636 67.948 119.354 64.3146L118.812 64.0581C117.109 67.6589 115.085 71.0996 112.764 74.3385L113.251 74.688ZM112.81 74.7401L112.831 74.7554L113.185 74.2711L113.164 74.2558L112.81 74.7401ZM110.4 78.5221C111.34 77.2947 112.291 76.0106 113.232 74.6703L112.741 74.3256C111.806 75.6578 110.86 76.935 109.924 78.1574L110.4 78.5221ZM75.865 114.971C88.6558 104.093 100.234 91.8728 110.4 78.5215L109.923 78.158C99.7832 91.475 88.2343 103.664 75.4763 114.514L75.865 114.971ZM39.1258 76.776C50.7972 93.2547 62.3869 105.44 75.494 114.985L75.8472 114.5C62.804 105.002 51.2582 92.8674 39.6154 76.4292L39.1258 76.776ZM39.3572 76.9602L39.5247 76.86L39.2165 76.3452L39.0491 76.4454L39.3572 76.9602ZM39.6017 76.8549C39.5725 76.7323 39.5172 76.6174 39.4396 76.5181L38.9667 76.8875C38.9914 76.919 39.0089 76.9554 39.0181 76.9942L39.6017 76.8549ZM39.6091 77.2286C39.6335 77.105 39.631 76.9775 39.6017 76.8549L39.0181 76.9942C39.0274 77.0329 39.0282 77.0733 39.0205 77.1124L39.6091 77.2286ZM39.2635 78.1418C39.4235 77.8581 39.5396 77.5519 39.6081 77.2336L39.0215 77.1074C38.9657 77.3667 38.8711 77.6161 38.7408 77.8472L39.2635 78.1418ZM75.5449 115.613C62.4568 106.148 50.8888 94.1023 39.2462 77.82L38.7581 78.169C50.4298 94.4919 62.0418 106.588 75.1933 116.099L75.5449 115.613ZM75.6907 115.656C75.6369 115.656 75.5844 115.64 75.5405 115.61L75.1977 116.102C75.3436 116.204 75.5175 116.257 75.6952 116.256L75.6907 115.656ZM75.8539 115.596C75.8091 115.634 75.7518 115.656 75.6922 115.656L75.6937 116.256C75.8968 116.255 76.0931 116.182 76.2467 116.049L75.8539 115.596ZM110.816 78.837C100.534 92.3171 88.8119 104.642 75.8566 115.593L76.2439 116.051C89.2324 105.072 100.985 92.7156 111.294 79.2009L110.816 78.837ZM111.079 78.4921L110.816 78.8373L111.294 79.2007L111.556 78.8555L111.079 78.4921ZM113.131 75.7081C112.452 76.6888 111.765 77.5919 111.079 78.4921L111.556 78.8556C112.241 77.9568 112.937 77.0431 113.624 76.0495L113.131 75.7081ZM112.776 75.1794C112.857 75.4714 112.97 75.7535 113.113 76.0206L113.642 75.7369C113.52 75.509 113.423 75.2682 113.354 75.0191L112.776 75.1794ZM112.763 74.7952C112.74 74.9198 112.743 75.048 112.774 75.1712L113.356 75.0274C113.346 74.9874 113.345 74.9458 113.353 74.9052L112.763 74.7952ZM112.879 74.4939C112.822 74.5863 112.783 74.6884 112.763 74.7952L113.353 74.9052C113.359 74.8705 113.372 74.8373 113.39 74.8072L112.879 74.4939ZM113.331 74.4229L113.312 74.4084L112.957 74.8927L112.977 74.9071L113.331 74.4229ZM113.37 74.1659C113.187 74.2204 113.026 74.333 112.913 74.4868L113.396 74.8432C113.432 74.7943 113.483 74.7584 113.541 74.7409L113.37 74.1659ZM114.026 74.2483C113.83 74.1362 113.597 74.1057 113.379 74.1634L113.532 74.7435C113.598 74.726 113.668 74.7353 113.728 74.7691L114.026 74.2483ZM114.426 74.763C114.366 74.5452 114.221 74.3604 114.026 74.2483L113.728 74.7691C113.787 74.8029 113.83 74.8584 113.848 74.9233L114.426 74.763ZM119.395 65.4342C117.805 68.6513 115.965 71.7392 113.892 74.6699L114.382 75.0164C116.473 72.0601 118.329 68.9452 119.933 65.7001L119.395 65.4342ZM118.886 64.8402C119.027 65.1656 119.209 65.4719 119.427 65.7517L119.9 65.3827C119.713 65.1428 119.558 64.8804 119.437 64.6015L118.886 64.8402ZM118.794 64.4536C118.794 64.5962 118.83 64.7366 118.897 64.8623L119.426 64.5794C119.405 64.5406 119.394 64.4974 119.394 64.4536H118.794ZM118.871 64.0963C118.821 64.2084 118.794 64.3302 118.794 64.4536H119.394C119.394 64.4156 119.403 64.3782 119.418 64.3437L118.871 64.0963ZM119.161 63.92H119.145V64.52H119.161V63.92ZM119.269 63.7364C119.117 63.8071 118.99 63.9221 118.904 64.0665L119.419 64.3735C119.443 64.333 119.479 64.3005 119.522 64.2805L119.269 63.7364ZM119.588 63.6531C119.475 63.6602 119.365 63.6894 119.264 63.739L119.528 64.2778C119.558 64.2629 119.592 64.2541 119.626 64.2519L119.588 63.6531ZM119.92 63.6977C119.814 63.6612 119.701 63.646 119.588 63.6531L119.626 64.2519C119.66 64.2498 119.694 64.2544 119.726 64.2654L119.92 63.6977ZM120.21 63.8662C120.126 63.7915 120.027 63.7343 119.92 63.6977L119.726 64.2654C119.758 64.2764 119.788 64.2937 119.813 64.3161L120.21 63.8662ZM120.414 64.133C120.364 64.0316 120.295 63.9409 120.21 63.8662L119.813 64.3161C119.839 64.3386 119.86 64.3657 119.874 64.3961L120.414 64.133ZM120.446 64.1875C120.435 64.175 120.426 64.1608 120.419 64.1455L119.869 64.3836C119.901 64.4578 119.944 64.5263 119.998 64.5866L120.446 64.1875ZM37.8968 75.958L32.5261 67.0495L32.0122 67.3593L37.383 76.2678L37.8968 75.958ZM38.1656 76.2999C38.0749 76.177 37.9755 76.0422 37.8667 75.9165L37.4131 76.3093C37.5041 76.4143 37.5897 76.53 37.6829 76.6563L38.1656 76.2999ZM38.465 76.6797C38.3647 76.5691 38.2708 76.4424 38.1656 76.2999L37.6829 76.6563C37.7846 76.794 37.8964 76.9459 38.0206 77.0828L38.465 76.6797ZM38.0853 76.5119C38.0207 76.6031 37.9747 76.7063 37.9501 76.8155L38.5356 76.947C38.5426 76.9155 38.5559 76.8856 38.5748 76.859L38.0853 76.5119ZM38.327 76.2839C38.2321 76.3432 38.15 76.4208 38.0853 76.5119L38.5748 76.859C38.5937 76.8324 38.6176 76.8098 38.6451 76.7925L38.327 76.2839ZM38.6379 76.1663C38.5276 76.1846 38.4219 76.2245 38.327 76.2839L38.6452 76.7925C38.6727 76.7753 38.7037 76.7636 38.7361 76.7582L38.6379 76.1663ZM38.97 76.1771C38.861 76.1517 38.7482 76.148 38.6378 76.1663L38.7361 76.7582C38.7684 76.7528 38.8015 76.7539 38.8333 76.7614L38.97 76.1771ZM39.2387 76.2894C39.1538 76.233 39.0586 76.194 38.9586 76.1747L38.8447 76.7638C38.8668 76.7681 38.8878 76.7767 38.9065 76.7891L39.2387 76.2894ZM39.4529 76.5034C39.3963 76.4185 39.3235 76.3458 39.2387 76.2894L38.9065 76.7891C38.9252 76.8015 38.9411 76.8175 38.9534 76.8359L39.4529 76.5034ZM39.2045 76.3085L39.037 76.4199L39.3693 76.9195L39.5367 76.8081L39.2045 76.3085ZM38.3134 75.6219L39.1285 76.7355L39.6127 76.3811L38.7976 75.2676L38.3134 75.6219ZM32.7034 66.2232C34.3155 69.5009 36.1908 72.643 38.3112 75.6188L38.7998 75.2707C36.6983 72.3212 34.8395 69.207 33.2418 65.9584L32.7034 66.2232ZM32.4981 67.3983C32.8013 67.0402 33.0531 66.6417 33.246 66.2143L32.6992 65.9674C32.5292 66.3439 32.3074 66.695 32.0402 67.0105L32.4981 67.3983ZM28.8753 50.6343C28.5765 50.0335 28.2427 49.4506 27.8753 48.8888L27.3731 49.2172C27.7276 49.7593 28.0498 50.3217 28.3381 50.9015L28.8753 50.6343ZM28.9067 50.779V50.7679H28.3067V50.779H28.9067ZM28.9269 51.2382C28.9804 51.0437 28.9635 50.8368 28.8793 50.6537L28.3342 50.9044C28.3594 50.9592 28.3644 51.021 28.3484 51.0789L28.9269 51.2382ZM28.5871 51.7161C28.753 51.6017 28.8734 51.4325 28.9269 51.2382L28.3484 51.0789C28.3325 51.1369 28.2965 51.1877 28.2465 51.2221L28.5871 51.7161ZM28.0196 51.8642C28.2203 51.8829 28.4212 51.8305 28.5871 51.7161L28.2465 51.2221C28.1966 51.2566 28.1359 51.2724 28.0752 51.2668L28.0196 51.8642ZM27.4893 51.6139C27.6312 51.757 27.819 51.8455 28.0196 51.8642L28.0752 51.2668C28.0146 51.2611 27.9579 51.2344 27.9153 51.1914L27.4893 51.6139ZM29.6516 59.9185C28.7593 57.1494 28.2053 54.283 28.0016 51.3816L27.403 51.4236C27.6101 54.3734 28.1734 57.2874 29.0805 60.1025L29.6516 59.9185ZM29.6311 59.7143C29.5591 59.7258 29.4857 59.7258 29.4137 59.7143L29.3185 60.3067C29.4535 60.3284 29.5912 60.3284 29.7263 60.3067L29.6311 59.7143ZM29.9717 59.7312C29.8615 59.7028 29.7467 59.6969 29.6341 59.7138L29.7233 60.3071C29.7562 60.3022 29.7899 60.3039 29.8222 60.3122L29.9717 59.7312ZM30.2758 59.8791C30.1854 59.8098 30.082 59.7595 29.9717 59.7312L29.8222 60.3122C29.8545 60.3205 29.8847 60.3353 29.911 60.3554L30.2758 59.8791ZM30.4979 60.1341C30.4418 60.035 30.3662 59.9482 30.2758 59.8791L29.911 60.3554C29.9375 60.3757 29.9594 60.4009 29.9757 60.4296L30.4979 60.1341ZM30.6021 60.4558C30.5894 60.3428 30.554 60.2333 30.4979 60.1341L29.9757 60.4296C29.9919 60.4583 30.0021 60.49 30.0058 60.5228L30.6021 60.4558ZM30.4369 61.0769C30.5719 60.8975 30.6309 60.6723 30.6013 60.4498L30.0066 60.5289C30.0154 60.5953 29.9978 60.6625 29.9574 60.7163L30.4369 61.0769ZM29.8803 61.4095C30.1021 61.3756 30.302 61.2563 30.4369 61.0769L29.9574 60.7163C29.9169 60.7701 29.8568 60.8061 29.7897 60.8163L29.8803 61.4095ZM29.7345 61.4129H29.835V60.8129H29.7345V61.4129ZM30.4601 62.272C30.2959 61.8572 30.1531 61.441 30.0205 61.0223L29.4485 61.2035C29.5839 61.6311 29.7314 62.0612 29.9022 62.4928L30.4601 62.272ZM32.0204 65.9397L30.4572 62.2649L29.9051 62.4998L31.4683 66.1746L32.0204 65.9397ZM31.7135 65.4731C31.6517 65.62 31.5775 65.7613 31.4917 65.8955L31.9971 66.2188C32.1014 66.0557 32.1915 65.8841 32.2665 65.7057L31.7135 65.4731ZM32.0995 65.0529C31.9261 65.144 31.7897 65.2924 31.7136 65.4728L32.2664 65.7061C32.2885 65.6537 32.3281 65.6105 32.3787 65.5839L32.0995 65.0529ZM32.6642 64.9726C32.4723 64.9334 32.2728 64.9617 32.0995 65.0529L32.3787 65.5839C32.4294 65.5573 32.4879 65.5489 32.5441 65.5604L32.6642 64.9726ZM28.4409 49.5063C28.5859 55.0201 29.9136 60.439 32.3345 65.3981L32.8737 65.1349C30.4904 60.2529 29.1835 54.9185 29.0407 49.4905L28.4409 49.5063ZM28.52 47.1569C28.4538 47.9373 28.4275 48.7205 28.4408 49.5036L29.0407 49.4933C29.0277 48.7306 29.0534 47.9677 29.1178 47.2075L28.52 47.1569ZM28.3295 47.5096C28.5386 47.5706 28.7633 47.5488 28.9567 47.4487L28.681 46.9158C28.6245 46.945 28.5587 46.9514 28.4974 46.9336L28.3295 47.5096ZM27.8335 47.1209C27.9426 47.3095 28.1203 47.4486 28.3295 47.5096L28.4974 46.9336C28.4362 46.9157 28.3845 46.8751 28.3528 46.8204L27.8335 47.1209ZM27.5121 46.5966C27.6276 46.7622 27.7333 46.9345 27.8288 47.1124L28.3575 46.8288C28.2511 46.6304 28.1331 46.4382 28.0043 46.2534L27.5121 46.5966ZM27.9242 49.0529C27.9242 48.1693 27.9248 47.3127 28.0547 46.4707L27.4617 46.3792C27.3236 47.2743 27.3242 48.1771 27.3242 49.0529H27.9242ZM27.9242 49.053V49.0529H27.3242V49.053H27.9242Z" fill="black" mask="url(#path-30-outside-1_396_12896)"/>
<path d="M27.6242 49.0525C27.9851 49.6045 28.3132 50.1771 28.6067 50.7674C28.6614 50.8864 28.6724 51.0207 28.6377 51.1469C28.6029 51.2731 28.5247 51.3831 28.4168 51.4575C28.3089 51.5319 28.1781 51.566 28.0474 51.5538C27.9168 51.5417 27.7946 51.484 27.7023 51.391C27.7023 50.7674 27.6354 50.1438 27.6242 49.5202V49.0525Z" fill="#231431"/>
<path d="M24.7658 60.2776C24.2686 60.0926 23.8291 59.78 23.4919 59.3713C23.1547 58.9627 22.9316 58.4725 22.8452 57.9503C22.739 57.2752 22.8122 56.584 23.0574 55.9459C22.5018 55.8198 22.0033 55.5145 21.6393 55.0773C21.1559 54.4535 20.8269 53.7248 20.6791 52.9504C20.3655 51.7945 20.3655 50.5763 20.6791 49.4204C20.851 48.7958 21.1836 48.2268 21.6439 47.7698C22.1041 47.3128 22.676 46.9835 23.303 46.8147C23.9238 46.7084 24.5613 46.7542 25.1604 46.9482C25.7595 47.1422 26.3023 47.4785 26.7421 47.9282C27.0809 48.2676 27.3839 48.6408 27.6465 49.0418V49.4983C27.6465 50.1219 27.6465 50.7455 27.7247 51.3691L27.6465 51.2689C27.2259 50.3466 26.6605 49.497 25.9716 48.7522C25.6618 48.4289 25.28 48.1828 24.8572 48.0339C24.4343 47.8849 23.9822 47.8373 23.5375 47.8948C23.1053 48.0199 22.7133 48.2552 22.4001 48.5774C22.0868 48.8995 21.8631 49.2976 21.751 49.7322C21.4892 50.6985 21.4892 51.7168 21.751 52.6831C21.8532 53.2851 22.0982 53.854 22.4656 54.3423C22.6167 54.5369 22.8183 54.6864 23.0486 54.7748C23.2789 54.8631 23.5291 54.8869 23.772 54.8434C23.8806 54.8169 23.9946 54.8228 24.0998 54.8604C24.205 54.898 24.2968 54.9657 24.3637 55.055C24.4234 55.1481 24.4551 55.2563 24.4551 55.3668C24.4551 55.4773 24.4234 55.5855 24.3637 55.6786C23.9608 56.2853 23.794 57.018 23.8948 57.7387C23.944 58.0647 24.0783 58.372 24.284 58.63C24.4898 58.8879 24.7598 59.0875 25.0672 59.2086C25.3463 59.3054 25.6502 59.304 25.9285 59.2047C26.2067 59.1055 26.4426 58.9143 26.5969 58.663C26.6428 58.562 26.719 58.4777 26.8151 58.4219C26.9111 58.366 27.0222 58.3413 27.1329 58.3512C27.2445 58.3595 27.351 58.4012 27.4386 58.4707C27.5262 58.5402 27.5909 58.6343 27.6242 58.7409C27.7511 59.0911 27.9787 59.3963 28.2786 59.6181C28.5785 59.84 28.9373 59.9687 29.3102 59.9881C29.4128 60.3657 29.5358 60.7374 29.6787 61.1017H29.3995C28.9285 61.0965 28.465 60.9834 28.0448 60.771C27.6247 60.5586 27.2592 60.2526 26.9766 59.8768C26.6658 60.1125 26.3035 60.2717 25.9193 60.3414C25.5351 60.4111 25.1399 60.3892 24.7658 60.2776Z" fill="#231431"/>
<path d="M16.972 59.0969C17.1928 59.1864 17.4328 59.218 17.6693 59.1888C17.9059 59.1595 18.1309 59.0704 18.3231 58.9298C18.4194 58.8618 18.5345 58.8252 18.6525 58.8252C18.7705 58.8252 18.8856 58.8618 18.9819 58.9298C19.0809 58.9941 19.157 59.0879 19.1991 59.198C19.2413 59.308 19.2473 59.4286 19.2164 59.5423C18.8369 60.6132 18.6774 61.7493 18.7474 62.883C18.7849 63.3625 18.9625 63.8206 19.2581 64.2006C19.5538 64.5805 19.9546 64.8658 20.4111 65.021C20.982 65.0533 21.5496 64.9147 22.041 64.623C22.5324 64.3314 22.9252 63.8999 23.169 63.3841C23.2303 63.273 23.3285 63.1867 23.4467 63.1399C23.5649 63.0932 23.6957 63.089 23.8167 63.128C23.9372 63.1673 24.041 63.2457 24.1118 63.3505C24.1826 63.4554 24.2163 63.5809 24.2075 63.707C24.1291 64.6202 24.3633 65.5328 24.8718 66.2962C25.3804 67.0595 26.1334 67.6284 27.0079 67.9101C27.8824 68.1917 28.8268 68.1695 29.687 67.8471C30.5472 67.5246 31.2725 66.921 31.7444 66.1346C31.9119 66.5132 32.0906 66.8918 32.2915 67.2482C31.7803 67.8479 31.1459 68.3313 30.4312 68.6655C29.7166 68.9998 28.9383 69.1772 28.149 69.1857C27.7722 69.184 27.3971 69.1353 27.0324 69.041C26.104 68.7775 25.2633 68.2709 24.5976 67.5738C23.932 66.8766 23.4656 66.0144 23.2472 65.0767C22.8631 65.481 22.3852 65.7849 21.8556 65.9616C21.3259 66.1383 20.7609 66.1824 20.2101 66.09C19.528 65.8874 18.9226 65.4849 18.4726 64.9349C18.0227 64.3848 17.7488 63.7126 17.6867 63.0055C17.5932 62.1165 17.6651 61.2181 17.8988 60.3552C17.4755 60.4014 17.0472 60.348 16.6482 60.1993C16.0916 59.9949 15.5953 59.6543 15.2051 59.2087C14.8149 58.7631 14.5432 58.2269 14.4151 57.6492C14.2314 56.5685 14.3955 55.4575 14.884 54.4756L14.6272 54.5535C14.1531 54.7066 13.6443 54.7175 13.1639 54.5849C12.6836 54.4523 12.2529 54.1819 11.9251 53.8074C11.6755 53.371 11.5277 52.884 11.4929 52.3827C11.4581 51.8814 11.5371 51.3788 11.7241 50.9122C12.7136 47.5049 14.5096 44.3847 16.9609 41.8143C17.835 40.7849 19.0038 40.0467 20.3106 39.6986C22.1753 39.3311 24.1852 40.2442 26.1392 42.3488C26.8452 43.1098 27.4946 43.9211 28.082 44.7764C27.9927 45.3332 27.9257 45.89 27.8587 46.4802C27.1285 45.2845 26.2794 44.1653 25.3241 43.1395C24.1517 41.8812 22.3763 40.4558 20.5339 40.8233C19.4635 41.1422 18.5117 41.7699 17.7983 42.6272C15.4656 45.0601 13.7605 48.0217 12.8296 51.2574C12.6967 51.5592 12.6281 51.8853 12.6281 52.215C12.6281 52.5447 12.6967 52.8708 12.8296 53.1727C13.0234 53.365 13.2673 53.4992 13.5338 53.5602C13.8002 53.6213 14.0784 53.6066 14.3369 53.5179C14.9926 53.2659 15.5921 52.8875 16.1011 52.4043C16.2032 52.3202 16.3315 52.2741 16.464 52.2741C16.5964 52.2741 16.7248 52.3202 16.8269 52.4043C16.9266 52.4941 16.9905 52.6167 17.0069 52.7496C17.0233 52.8826 16.9911 53.017 16.9162 53.1282C16.0676 54.4199 15.2302 55.9455 15.5205 57.4265C15.6143 57.7989 15.7945 58.1441 16.0466 58.4342C16.2988 58.7244 16.6158 58.9514 16.972 59.0969Z" fill="#231431"/>
<path d="M18.0104 78.3396C17.4529 78.9659 16.7099 79.3989 15.889 79.5757C15.3578 79.6136 14.8249 79.5333 14.3286 79.3408C13.8323 79.1482 13.3851 78.848 13.0194 78.4621C11.2105 76.7138 10.708 74.2306 10.6522 71.6916C10.0172 72.7397 9.20938 73.6734 8.26272 74.4533C8.0425 74.6638 7.77758 74.8221 7.48764 74.9165C7.1977 75.011 6.89018 75.0392 6.58785 74.9989C5.8844 74.8542 5.40425 74.2528 5.16977 73.195C4.56695 70.436 4.56695 67.5799 5.16977 64.8209L4.96879 65.1327C4.67692 65.7016 4.21154 66.1634 3.63965 66.4516C3.06776 66.7397 2.41891 66.8394 1.78657 66.7363C0.669989 66.4022 0.0112232 65.1995 -0.0111084 63.5069C-0.0111084 60.1662 1.28408 57.0928 2.45649 54.32C5.44892 47.2043 8.84333 39.1421 14.7389 33.2514C15.4777 32.3621 16.5271 31.7852 17.6755 31.6367C18.6838 31.7042 19.6434 32.0948 20.4111 32.7503C23.5656 34.9843 26.4276 37.603 28.9306 40.5452C28.7966 40.9684 28.6738 41.3916 28.5621 41.8258C26 38.7296 23.0419 35.9816 19.7635 33.6523C19.4905 33.3388 19.1467 33.0947 18.7604 32.9399C18.3741 32.7852 17.9564 32.7244 17.5418 32.7625C17.1273 32.8005 16.7278 32.9364 16.3763 33.1589C16.0249 33.3814 15.7315 33.6841 15.5205 34.042C9.75893 39.7769 6.4092 47.7277 3.45026 54.7543C2.33368 57.4157 1.04961 60.4446 1.07194 63.4958C1.07194 64.4089 1.35111 65.4557 2.07689 65.7229C2.80267 65.9902 3.56192 65.233 4.00855 64.6094C4.13138 64.4201 4.25421 64.2307 4.36587 64.0303C4.76833 63.2166 5.38115 62.5246 6.14119 62.0259C6.23918 61.9699 6.35241 61.9462 6.4647 61.9582C6.57699 61.9702 6.68259 62.0173 6.76647 62.0927C6.85363 62.1656 6.91639 62.2633 6.94632 62.3728C6.97625 62.4823 6.97196 62.5982 6.93399 62.7052C5.72337 66.0184 5.48707 69.6075 6.25289 73.0502C6.37571 73.6181 6.56551 73.9633 6.78882 73.9967C7.01214 74.0301 7.3918 73.7517 7.51463 73.6515C9.03427 72.39 10.139 70.7025 10.6857 68.8075C10.7269 68.677 10.8139 68.5657 10.9309 68.494C11.0478 68.4224 11.1868 68.3953 11.3221 68.4177C11.4561 68.442 11.5766 68.5142 11.6609 68.6209C11.7452 68.7275 11.7876 68.8612 11.78 68.9968C11.6013 72.1259 11.6013 75.6782 13.7451 77.716C13.9897 77.9825 14.2887 78.1939 14.6218 78.336C14.9549 78.4781 15.3146 78.5477 15.6768 78.54C16.264 78.4047 16.79 78.0798 17.173 77.6158C18.6421 76.1317 19.5801 74.2062 19.8416 72.1371C19.8535 71.9894 19.9237 71.8525 20.0368 71.7564C20.1498 71.6603 20.2965 71.613 20.4446 71.6248C20.5926 71.6366 20.73 71.7066 20.8263 71.8194C20.9226 71.9322 20.9701 72.0785 20.9582 72.2262C20.9132 74.3326 21.3445 76.4221 22.22 78.3396C23.0016 80.0322 24.5089 81.6024 26.1056 81.3017C26.5773 81.1699 27.0117 80.9301 27.3742 80.6015C27.7367 80.2729 28.0172 79.8644 28.1936 79.4086C28.5778 78.3774 28.789 77.2901 28.8189 76.1904C28.8269 76.0753 28.8706 75.9655 28.9438 75.8762C29.0171 75.7869 29.1165 75.7225 29.228 75.6919C29.3396 75.6614 29.4579 75.6661 29.5667 75.7055C29.6754 75.745 29.7692 75.8171 29.835 75.912C30.8067 77.5038 32.3532 78.6635 34.1562 79.1525C35.7529 79.4755 37.8297 78.618 38.1982 76.9811C38.4439 77.3485 38.7007 77.7049 38.9575 78.0946C38.4523 78.9399 37.6967 79.608 36.7948 80.0069C35.8928 80.4058 34.889 80.5158 33.9217 80.3218C32.291 79.9379 30.8341 79.0254 29.7792 77.7272C29.6945 78.4924 29.5028 79.242 29.2098 79.9543C28.9669 80.5827 28.5749 81.1429 28.0674 81.587C27.5598 82.0312 26.9518 82.3459 26.2955 82.5043C26.0889 82.5394 25.8798 82.5581 25.6702 82.56C23.6269 82.56 22.0078 80.6558 21.2039 78.8964C20.6932 77.7833 20.3183 76.6131 20.0873 75.4109C19.5707 76.5 18.8679 77.491 18.0104 78.3396Z" fill="#231431"/>
<path d="M68.7021 8.80344C68.0167 8.95233 67.3977 9.3177 66.9371 9.8453C66.4765 10.3729 66.1987 11.0346 66.1451 11.7321C66.134 11.9175 66.134 12.1035 66.1451 12.2889C66.1451 15.3846 69.1263 18.1908 70.0866 18.9703L70.4105 19.2487C73.1907 21.6762 74.9549 22.7898 75.6583 22.5894C75.6583 22.5894 75.6583 22.5114 75.6583 22.3332C75.903 20.5086 76.3717 18.7209 77.0541 17.0104L77.6012 15.7075C78.394 13.8479 79.2202 11.9326 78.8741 10.0506C78.8033 9.47692 78.5349 8.94555 78.1148 8.54732C77.7555 8.30308 77.3413 8.15092 76.909 8.1043C76.4766 8.05769 76.0394 8.11806 75.636 8.28006C74.3855 8.66981 73.2019 9.82792 73.4587 11.0306C73.4904 11.1647 73.4701 11.3059 73.4017 11.4257C73.3334 11.5455 73.2221 11.6351 73.0902 11.6764C72.9607 11.7171 72.8209 11.7102 72.696 11.6571C72.5711 11.6041 72.4694 11.5082 72.4091 11.3869C72.1368 10.6906 71.6825 10.0796 71.0935 9.61747C70.5044 9.15534 69.8021 8.85889 69.0594 8.7589L68.7021 8.80344ZM69.3273 19.8723C68.2108 18.9035 64.5819 15.418 65.0397 11.5985C65.1552 10.6256 65.5685 9.71185 66.2233 8.98161C66.8237 8.29158 67.6511 7.83755 68.5569 7.70101C69.3276 7.63941 70.1012 7.7784 70.8018 8.10437C71.5025 8.43035 72.1064 8.93214 72.5543 9.56067C72.8294 9.00811 73.2151 8.51757 73.6875 8.11923C74.1599 7.72089 74.709 7.42319 75.3011 7.24445C75.8841 7.02254 76.5137 6.9501 77.1321 7.03375C77.7505 7.11741 78.3379 7.35449 78.8406 7.72328C79.4506 8.28951 79.8451 9.04893 79.9572 9.87246C80.3592 12.0996 79.4659 14.1597 78.6061 16.1752C78.4275 16.5984 78.2377 17.0215 78.0702 17.4447C77.4233 19.0699 76.9771 20.7676 76.7414 22.5003C76.7294 22.7332 76.656 22.9588 76.5285 23.1543C76.4011 23.3498 76.2242 23.5083 76.0156 23.6138C75.8366 23.6776 75.6474 23.7078 75.4573 23.7029C73.9611 23.7029 71.7838 21.9992 69.6177 20.1061L69.3273 19.8723Z" fill="#231431"/>
</g>
<defs>
<clipPath id="clip0_396_12896">
<rect width="152" height="116" fill="white"/>
</clipPath>
</defs>
</svg>
