<svg width="455" height="440" viewBox="0 0 455 440" fill="none" xmlns="http://www.w3.org/2000/svg">
<g clip-path="url(#clip0_396_12839)">
<path d="M294.436 439.375L283.432 326.934L274.852 328.822L290.39 439.375H294.436Z" fill="black" stroke="black" stroke-linecap="round" stroke-linejoin="round"/>
<path d="M167.434 439.375L182.972 328.822L174.391 326.934L163.387 439.375H167.434Z" fill="black" stroke="black" stroke-linecap="round" stroke-linejoin="round"/>
<path d="M176.926 340.512L171.406 209.029C171.325 207.173 171.62 205.319 172.274 203.581C172.928 201.842 173.928 200.254 175.212 198.913C176.496 197.572 178.038 196.505 179.745 195.776C181.452 195.048 183.289 194.673 185.145 194.675H277.174C279.074 194.669 280.954 195.057 282.696 195.815C284.438 196.574 286.004 197.685 287.295 199.08C288.586 200.474 289.574 202.122 290.197 203.918C290.82 205.715 291.064 207.621 290.914 209.516L280.722 340.512H176.926Z" fill="black" stroke="black" stroke-linecap="round" stroke-linejoin="round"/>
<path d="M289.44 311.692H167.309V340.512H289.44V311.692Z" fill="white" stroke="black" stroke-linecap="round" stroke-linejoin="round"/>
<path d="M176.926 340.512H167.683L161.213 286.373C161.211 285.34 161.413 284.317 161.808 283.362C162.202 282.407 162.78 281.539 163.51 280.809C164.24 280.078 165.107 279.499 166.061 279.104C167.015 278.709 168.037 278.507 169.069 278.509C171.153 278.509 173.151 279.337 174.625 280.812C176.098 282.287 176.926 284.287 176.926 286.373V340.512Z" fill="black" stroke="black" stroke-linecap="round" stroke-linejoin="round"/>
<path d="M280.721 340.512H289.964L296.434 286.373C296.435 285.34 296.233 284.317 295.839 283.362C295.445 282.407 294.866 281.539 294.136 280.809C293.406 280.078 292.54 279.499 291.586 279.104C290.632 278.709 289.609 278.507 288.577 278.509C286.493 278.509 284.495 279.337 283.022 280.812C281.548 282.287 280.721 284.287 280.721 286.373V340.512Z" fill="black" stroke="black" stroke-linecap="round" stroke-linejoin="round"/>
<path d="M189.117 238.686L193.489 283.209H262.398L266.757 238.686H189.117Z" fill="white" stroke="black" stroke-linecap="round" stroke-linejoin="round"/>
<path d="M217.159 165.692L180.387 186.335L160.402 247.213H304.042C304.042 247.213 281.022 188.06 276.563 184.96C272.104 181.859 236.706 165.354 236.706 165.354L217.159 165.692Z" fill="white" stroke="black" stroke-linecap="round" stroke-linejoin="round"/>
<path d="M215.784 160.579C215.784 160.579 212.687 162.979 212.037 165.393C211.388 167.806 208.939 187.411 208.939 187.411C208.939 187.411 222.004 178.808 225.777 178.121C229.549 177.433 248.122 188.786 248.122 188.786C248.122 188.786 243.65 166.418 240.215 161.604C236.781 156.79 221.617 155.077 215.784 160.579Z" fill="white" stroke="black" stroke-linecap="round" stroke-linejoin="round"/>
<path d="M217.795 168.48C217.795 168.48 227.063 199.738 227.787 196.35C228.512 192.962 236.73 169.518 236.73 169.518C236.73 169.518 221.28 170.894 217.795 168.48Z" fill="white" stroke="black" stroke-linecap="round" stroke-linejoin="round"/>
<path d="M210.701 146.813C210.701 146.813 212.887 158.866 214.711 163.617C216.534 168.368 223.104 178.221 228.213 177.133C233.321 176.045 241.715 165.443 242.814 161.429C243.913 157.416 245.312 140.611 245.312 136.948C245.312 133.284 241.665 127.82 230.324 131.109C218.982 134.397 211.063 139.511 210.701 146.813Z" fill="white" stroke="black" stroke-linecap="round" stroke-linejoin="round"/>
<path d="M217.795 168.481C219.053 166.748 220.78 165.412 222.771 164.628C224.762 163.844 226.936 163.645 229.036 164.054C236.643 165.392 238.741 168.105 238.741 168.105C238.741 168.105 234.432 177.558 228.224 178.633C222.017 179.708 217.607 171.031 217.795 168.481Z" fill="black" stroke="black" stroke-linecap="round" stroke-linejoin="round"/>
<path d="M222.928 168.368C222.928 168.368 226.438 170.269 232.92 168.368" stroke="white" stroke-linecap="round" stroke-linejoin="round"/>
<path d="M220.756 153.852C220.756 155.228 220.206 156.353 219.507 156.353C218.807 156.353 218.258 155.24 218.258 153.852C218.258 152.464 218.82 151.352 219.507 151.352C220.194 151.352 220.756 152.477 220.756 153.852Z" fill="black"/>
<path d="M235.818 153.852C235.818 155.228 235.269 156.353 234.569 156.353C233.87 156.353 233.32 155.24 233.32 153.852C233.32 152.464 233.87 151.352 234.569 151.352C235.269 151.352 235.818 152.477 235.818 153.852Z" fill="black"/>
<path d="M230.273 153.164L230.56 162.554H226.113" fill="white"/>
<path d="M230.273 153.164L230.56 162.554H226.113" stroke="black" stroke-linecap="round" stroke-linejoin="round"/>
<path d="M231.172 149.538C231.172 149.538 234.807 147.275 237.967 149.313L231.172 149.538Z" fill="white"/>
<path d="M231.172 149.538C231.172 149.538 234.807 147.275 237.967 149.313" stroke="black" stroke-linecap="round" stroke-linejoin="round"/>
<path d="M225.515 149.763C225.515 149.763 221.893 146.825 216.234 149.088L225.515 149.763Z" fill="white"/>
<path d="M225.515 149.763C225.515 149.763 221.893 146.825 216.234 149.088" stroke="black" stroke-linecap="round" stroke-linejoin="round"/>
<path d="M201.707 136.673L203.656 120.419C204.134 116.43 205.647 112.635 208.044 109.413C210.441 106.191 213.639 103.653 217.32 102.051V102.051C222.841 99.6615 229.076 99.5269 234.694 101.676L234.931 101.776C239.2 103.413 242.884 106.287 245.512 110.031C248.14 113.775 249.592 118.219 249.683 122.794L249.945 135.885" stroke="black" stroke-linecap="round" stroke-linejoin="round"/>
<path d="M206.991 151.326C206.491 151.443 205.973 151.46 205.466 151.376C204.959 151.292 204.474 151.109 204.037 150.838C203.601 150.566 203.223 150.211 202.924 149.793C202.625 149.374 202.411 148.901 202.295 148.4L200.534 140.786C200.417 140.285 200.4 139.766 200.484 139.259C200.568 138.751 200.75 138.266 201.022 137.829C201.293 137.392 201.648 137.014 202.066 136.714C202.484 136.415 202.956 136.201 203.457 136.085C203.957 135.968 204.475 135.951 204.982 136.035C205.489 136.119 205.974 136.302 206.411 136.573C206.847 136.845 207.225 137.2 207.524 137.618C207.823 138.037 208.037 138.51 208.153 139.011L209.914 146.637C210.146 147.647 209.969 148.708 209.421 149.587C208.873 150.465 207.999 151.091 206.991 151.326Z" fill="white" stroke="black" stroke-linecap="round" stroke-linejoin="round"/>
<path d="M248.797 151.514C247.765 151.434 246.806 150.949 246.13 150.164C245.454 149.379 245.115 148.359 245.187 147.325L245.762 139.523C245.839 138.489 246.322 137.527 247.107 136.85C247.892 136.172 248.913 135.834 249.946 135.91C250.98 135.987 251.94 136.471 252.617 137.256C253.294 138.042 253.632 139.064 253.556 140.098L252.981 147.9C252.905 148.935 252.421 149.896 251.636 150.574C250.852 151.252 249.83 151.59 248.797 151.514Z" fill="white" stroke="black" stroke-linecap="round" stroke-linejoin="round"/>
<path d="M238.429 134.759C233.831 138.87 228.952 142.655 223.828 146.087C214.71 152.339 206.679 149.738 207.053 147.912C207.475 146.379 208.087 144.904 208.877 143.524C208.877 143.524 205.592 144.624 204.855 138.41C204.118 132.196 202.669 118.33 209.601 112.841C216.533 107.352 232.221 105.177 239.154 107.365C246.086 109.553 249.008 119.78 249.008 124.532C248.779 129.302 248.291 134.056 247.547 138.773C247.547 138.773 249.009 140.973 245.049 142.799C241.09 144.624 238.117 142.799 238.804 139.51C239.491 136.222 238.429 134.759 238.429 134.759Z" fill="black" stroke="black" stroke-linecap="round" stroke-linejoin="round"/>
<path d="M166.647 230.709C166.647 230.709 170.769 228.984 177.975 231.734C185.182 234.485 199.634 238.624 201.707 238.624C203.781 238.624 215.447 239.649 215.447 239.649L215.796 247.213C215.796 247.213 163.562 248.251 160.464 247.213C157.366 246.176 158.391 236.248 166.647 230.709Z" fill="white" stroke="black" stroke-linecap="round" stroke-linejoin="round"/>
<path d="M203.319 243.012C203.319 243.012 212.487 235.11 215.285 233.322C218.082 231.534 225.989 244.025 226.239 245.05C226.488 246.076 224.203 246.576 224.203 246.576C224.203 246.576 218.095 245.325 216.821 245.05C215.547 244.775 214.323 246.076 210.963 246.076H201.795" fill="white"/>
<path d="M203.319 243.012C203.319 243.012 212.487 235.11 215.285 233.322C218.082 231.534 225.989 244.025 226.239 245.05C226.488 246.076 224.203 246.576 224.203 246.576C224.203 246.576 218.095 245.325 216.821 245.05C215.547 244.775 214.323 246.076 210.963 246.076H201.795" stroke="black" stroke-linecap="round" stroke-linejoin="round"/>
<path d="M299.394 230.709C299.394 230.709 295.272 228.984 288.053 231.734C280.833 234.485 266.407 238.624 264.321 238.624C262.235 238.624 250.581 239.649 250.581 239.649L250.244 247.213C250.244 247.213 302.466 248.251 305.564 247.213C308.662 246.176 307.638 236.248 299.394 230.709Z" fill="white" stroke="black" stroke-linecap="round" stroke-linejoin="round"/>
<path d="M259.624 243.012C259.624 243.012 250.457 235.11 247.646 233.322C244.836 231.534 236.954 244.025 236.705 245.05C236.455 246.076 238.741 246.576 238.741 246.576C238.741 246.576 244.848 245.325 246.122 245.05C247.396 244.775 248.62 246.076 251.98 246.076H261.148" fill="white"/>
<path d="M259.624 243.012C259.624 243.012 250.457 235.11 247.646 233.322C244.836 231.534 236.954 244.025 236.705 245.05C236.455 246.076 238.741 246.576 238.741 246.576C238.741 246.576 244.848 245.325 246.122 245.05C247.396 244.775 248.62 246.076 251.98 246.076H261.148" stroke="black" stroke-linecap="round" stroke-linejoin="round"/>
<path d="M259.787 283.21H193.488V312.03H259.787V283.21Z" fill="white" stroke="black" stroke-linecap="round" stroke-linejoin="round"/>
<path d="M199.596 281.472C199.596 281.472 218.781 286.711 222.278 300.677" stroke="black" stroke-linecap="round" stroke-linejoin="round"/>
<path d="M255.428 283.222C255.428 283.222 239.728 282.347 234.494 299.814" stroke="black" stroke-linecap="round" stroke-linejoin="round"/>
<path d="M206.991 299.777C207.653 289.224 200.558 279.397 190.154 277.634C186.851 277.031 183.443 277.468 180.399 278.884C167.321 284.998 180.099 427.897 180.099 427.897H190.566C190.566 427.897 204.255 343.363 206.991 299.777Z" fill="white" stroke="black" stroke-linecap="round" stroke-linejoin="round"/>
<path d="M178.938 419.332L175.853 432.598L165.436 439.225H191.94L192.377 419.332H178.938Z" fill="white" stroke="black" stroke-linecap="round" stroke-linejoin="round"/>
<path d="M175.852 432.598C175.852 432.598 182.484 428.334 187.205 432.598H175.852Z" fill="white"/>
<path d="M175.852 432.598C175.852 432.598 182.484 428.334 187.205 432.598" stroke="black" stroke-linecap="round" stroke-linejoin="round"/>
<path d="M250.658 299.776C249.996 289.223 257.09 279.396 267.507 277.633C270.806 277.033 274.209 277.47 277.25 278.883C290.34 284.997 277.562 427.896 277.562 427.896H267.095C267.095 427.896 253.406 343.362 250.658 299.776Z" fill="white" stroke="black" stroke-linecap="round" stroke-linejoin="round"/>
<path d="M278.699 419.332L281.796 432.598L292.201 439.225H265.709L265.271 419.332H278.699Z" fill="white" stroke="black" stroke-linecap="round" stroke-linejoin="round"/>
<path d="M281.795 432.598C281.795 432.598 275.175 428.334 270.441 432.598H281.795Z" fill="white"/>
<path d="M281.795 432.598C281.795 432.598 275.175 428.334 270.441 432.598" stroke="black" stroke-linecap="round" stroke-linejoin="round"/>
<path d="M188.992 196.9H268.268C269.097 196.9 269.891 197.23 270.476 197.816C271.062 198.402 271.391 199.197 271.391 200.026V247.738H185.869V200.051C185.866 199.639 185.944 199.229 186.1 198.847C186.255 198.465 186.485 198.118 186.775 197.825C187.065 197.532 187.411 197.299 187.791 197.141C188.172 196.982 188.58 196.9 188.992 196.9Z" fill="#9D85F4"/>
<path d="M336.242 197.312C336.672 196.748 337.167 196.236 337.716 195.787" stroke="black" stroke-linecap="round" stroke-linejoin="round"/>
<path d="M340.437 214.867C340.437 214.867 344.259 210.866 338.264 207.053C334.629 204.74 334.205 201.889 335.041 199.551" stroke="black" stroke-linecap="round" stroke-linejoin="round"/>
<path d="M346.834 206.027C346.834 206.027 351.468 208.215 350.019 214.78" stroke="black" stroke-linecap="round" stroke-linejoin="round"/>
<path d="M357.287 218.019H337.752V246.913H357.287V218.019Z" fill="white" stroke="black" stroke-linecap="round" stroke-linejoin="round"/>
<path d="M356.437 242.975H354.401C353.974 242.975 353.564 242.805 353.262 242.502C352.96 242.2 352.79 241.79 352.79 241.362C352.79 240.934 352.96 240.524 353.262 240.221C353.564 239.919 353.974 239.749 354.401 239.749H356.437C357.247 239.749 358.023 239.428 358.597 238.856C359.17 238.284 359.494 237.508 359.498 236.698V229.684C359.494 228.874 359.17 228.098 358.597 227.526C358.023 226.954 357.247 226.633 356.437 226.633H353.814C353.603 226.633 353.393 226.591 353.198 226.51C353.002 226.429 352.825 226.31 352.675 226.161C352.525 226.011 352.407 225.833 352.326 225.637C352.245 225.442 352.203 225.232 352.203 225.02C352.203 224.808 352.245 224.599 352.326 224.403C352.407 224.207 352.525 224.029 352.675 223.88C352.825 223.73 353.002 223.611 353.198 223.53C353.393 223.449 353.603 223.407 353.814 223.407H356.437C358.094 223.407 359.682 224.066 360.853 225.238C362.025 226.411 362.683 228.001 362.683 229.659V236.673C362.689 237.498 362.532 238.317 362.222 239.081C361.911 239.845 361.452 240.54 360.871 241.126C360.291 241.712 359.6 242.177 358.839 242.494C358.078 242.811 357.262 242.975 356.437 242.975Z" fill="white" stroke="black" stroke-linecap="round" stroke-linejoin="round"/>
<path d="M383.005 439.374L372.851 262.017H364.17L379.058 439.374H383.005Z" fill="black" stroke="black" stroke-linecap="round" stroke-linejoin="round"/>
<path d="M414.93 439.374L404.775 262.017H396.082L410.971 439.374H414.93Z" fill="black" stroke="black" stroke-linecap="round" stroke-linejoin="round"/>
<path d="M83.8739 439.374L96.5267 262.017H87.8709L79.9395 439.374H83.8739Z" fill="black" stroke="black" stroke-linecap="round" stroke-linejoin="round"/>
<path d="M48.1497 439.374L60.815 262.017H52.1716L44.2402 439.374H48.1497Z" fill="black" stroke="black" stroke-linecap="round" stroke-linejoin="round"/>
<path d="M415.893 252.002H46.502V267.518H415.893V252.002Z" fill="white" stroke="black" stroke-linecap="round" stroke-linejoin="round"/>
<path d="M415.893 252.002H46.502V257.328H415.893V252.002Z" fill="black" stroke="black" stroke-linecap="round" stroke-linejoin="round"/>
<path d="M420.702 246.838H41.6934V252.752H420.702V246.838Z" fill="white" stroke="black" stroke-linecap="round" stroke-linejoin="round"/>
<path d="M454.376 439.375H0.625" stroke="black" stroke-linecap="round" stroke-linejoin="round"/>
<path d="M252.584 18.3358C255.491 9.08488 262.021 7.73748 271.003 4.06007C281.485 -0.348815 293.21 -0.794955 303.994 2.80471C318.409 7.48417 327.799 20.986 325.979 32.6104C333.642 33.8852 341.55 34.3007 348.855 36.5931C368.798 42.8258 377.413 68.6709 365.691 85.8478C358.973 95.7829 346.401 99.7251 331.618 96.569C321.517 94.4197 313.389 88.7835 305.797 82.1337C304.269 80.8148 302.77 79.4754 301.299 78.1915C292.098 86.3827 287.193 87.2525 284.013 82.4648C280.425 90.3348 276.639 97.7157 267.339 101.48C267.714 96.7889 268.02 92.5936 268.364 88.3921C268.652 84.8402 267.879 82.2527 263.579 81.9938C262.11 81.892 260.721 81.2849 259.649 80.2752C253.73 73.9925 245.952 75.2337 238.481 74.0924C228.918 72.6369 219.575 69.9884 210.67 66.2088C201.899 62.4557 198.21 45.3644 201.638 33.5131C207.261 14.0289 231.547 0.944552 248.941 13.6737C250.212 14.633 250.96 16.2277 252.584 18.3358Z" fill="#EAEAEA"/>
<path d="M274.901 59.8088C270.66 58.3283 265.126 60.3969 261.993 57.4181C261.044 56.3603 260.387 55.1101 260.083 53.7792C258.59 48.9367 258.412 43.106 262.296 39.7556C265.886 36.6442 272.146 36.966 276.029 39.9477C279.911 42.9294 281.384 48.1117 280.277 52.5773C280.094 53.4624 279.695 54.2927 279.111 55.007C277.521 56.7131 274.42 56.5957 272.293 55.3453C270.275 53.9458 268.632 52.1361 267.499 50.0643C267.07 49.532 266.826 48.8963 266.798 48.2428C266.889 47.7282 267.136 47.2516 267.511 46.8669C268.704 45.43 270.231 44.2583 271.985 43.4335C273.739 42.6086 275.678 42.1503 277.668 42.0904C279.658 42.0306 281.651 42.3706 283.508 43.0868C285.365 43.8031 287.041 44.8784 288.421 46.2379C288.643 46.5108 288.953 46.7136 289.304 46.8166C289.511 46.8227 289.715 46.7889 289.904 46.7173C290.093 46.6458 290.263 46.5381 290.401 46.4013C293.864 43.7668 295.103 39.9544 296.6 36.1958C298.319 31.8212 303.683 25.8276 300.107 22.3876C297.088 19.4499 291.567 23.48 287.435 24.5418C284.949 25.0427 282.624 26.0299 280.615 27.437C279.621 28.156 278.86 29.1105 278.411 30.2028C277.961 31.2952 277.839 32.4861 278.056 33.6537C278.699 36.0412 281.074 37.6872 283.341 39.0385C287.222 41.3347 291.268 43.3801 295.447 45.1593C299.062 46.6907 302.927 48.1085 305.591 50.8542C308.255 53.6 309.211 58.1762 306.455 60.7068C304.811 62.2268 302.323 62.6431 300.045 62.8842C295.949 63.288 291.812 63.3629 287.682 63.1082C286.541 63.1059 285.407 62.8758 284.359 62.4336C282.85 61.4936 281.729 60.1096 281.188 58.5186C279.197 54.1247 278.15 48.5702 281.603 45.1924C284 42.8567 287.813 42.3286 291.341 42.207C295.685 42.0549 300.312 42.3817 303.916 44.7083C306.132 46.2504 307.727 48.4297 308.434 50.8826C309.142 53.3355 308.921 55.9134 307.806 58.186C312.722 55.6827 318.047 52.7601 319.611 47.7951C321.101 43.0611 318.459 37.6399 314.086 34.621C309.714 31.6021 303.996 30.6398 298.629 31.0534C295.622 31.1998 292.717 31.9986 290.148 33.3846C288.877 34.0863 287.791 35.0336 286.963 36.1634C286.134 37.2932 285.583 38.5795 285.345 39.9364C284.925 43.1876 286.765 46.3722 288.098 49.4833C289.431 52.5944 290.165 56.4694 287.929 58.9315C286.528 60.2567 284.725 61.165 282.741 61.5446C277.201 62.9811 271.354 63.2815 265.604 62.425C259.855 61.5685 254.341 59.5757 249.447 56.585C244.553 53.5942 240.395 49.6774 237.264 45.1069C234.132 40.5363 232.101 35.4216 231.313 30.1183C231.103 28.6886 231.061 27.0542 232.177 26.0885C233.883 24.6342 236.747 25.8855 238.381 27.4748C240.65 29.6731 242.142 32.4439 242.655 35.4069C243.167 38.3699 242.674 41.3799 241.242 44.0237C239.811 46.6675 237.512 48.8155 234.661 50.173C231.81 51.5304 228.546 52.0308 225.318 51.6053C224.432 51.5336 223.575 51.2537 222.828 50.7926C222.203 50.2696 221.714 49.6237 221.4 48.9056C220.159 46.6402 219.337 44.2091 218.968 41.7148C218.467 39.5634 218.837 37.3402 220.008 35.4669C221.811 33.0656 225.47 32.4455 228.666 32.8664C232.746 33.517 236.495 35.4395 239.279 38.3077C242.062 41.1759 243.708 44.8133 243.937 48.6026C244.103 51.0018 243.344 53.3534 241.792 55.2424C240.162 57.0414 233.875 62.9146 234.09 60.6034C234.683 54.0598 249.405 58.1249 255.112 62.2072C258.351 64.5505 261.116 67.6341 264.798 69.4201C268.226 70.9549 271.995 71.6808 275.756 71.5308C278.042 71.5844 280.309 71.2802 282.462 70.6314C284.34 70.0066 286.024 68.9896 287.385 67.6585C288.746 66.3275 289.747 64.7181 290.312 62.9542C290.876 61.1903 290.989 59.3192 290.642 57.4848C290.294 55.6505 289.495 53.9021 288.307 52.3741C285.313 52.4076 281.777 52.7271 280.387 55.1196C279.741 56.4041 279.651 57.8788 280.135 59.2512C280.753 60.9847 281.746 62.5943 283.052 63.982C284.358 65.3697 285.949 66.5065 287.73 67.323C291.293 68.9419 295.068 70.1063 298.948 70.7832L306.989 72.5415C308.441 72.9819 309.981 73.0702 311.459 72.7978C312.593 72.4178 313.603 71.788 314.401 70.9624C317.284 68.2865 319.381 64.9765 320.504 61.3278C320.957 59.8422 321.383 58.1529 322.885 57.4174C323.837 57.055 324.9 56.9873 325.916 57.2243C330.883 58.0505 335.225 60.8206 339.173 63.769C341.323 65.3886 343.632 67.4333 343.621 69.9667C343.547 70.9252 343.211 71.8443 342.646 72.6399C342.08 73.4355 341.302 74.0821 340.384 74.5206C338.478 75.3708 336.385 75.8304 334.245 75.8685C330.558 76.1509 326.838 76.0556 323.151 75.5842C322.077 75.5006 321.029 75.2054 320.078 74.7186C319.014 73.9869 318.181 73.0058 317.671 71.8828C315.562 68.0558 314.236 63.4513 316.085 59.6075C318.061 55.508 323.282 53.4316 328.193 53.6507C333.103 53.8698 337.742 56.0141 341.903 58.4885C343.994 59.7331 346.242 61.1255 348.671 60.9207C352.841 60.5738 354.611 56.0415 355.49 52.2908C355.774 51.4366 355.792 50.52 355.543 49.6428C355.107 48.8156 354.406 48.1263 353.537 47.6706C347.484 43.917 340.2 42.3112 333.083 43.1612C331.565 43.2734 330.102 43.6956 328.801 44.3973C327.794 45.0591 326.944 45.8991 326.297 46.8702C324.074 49.9767 323.037 53.6677 321.515 57.1452C319.992 60.6228 317.777 64.0514 314.143 65.6831C309.476 67.7742 303.796 66.3643 298.873 64.549C295.249 63.3655 291.879 61.5732 288.938 59.2654C283.788 54.8883 281.618 48.0843 282.343 41.7619C282.729 38.4274 283.577 34.3506 280.585 32.2698C279.701 31.7077 278.713 31.3029 277.674 31.0772C274.39 30.1749 271.063 29.4256 267.706 28.8323C264.728 28.3369 261.583 27.9023 258.788 28.8544C253.092 30.8074 251.336 37.2904 250.803 42.892C250.424 45.1489 250.669 47.4734 251.516 49.653C253.57 53.9578 259.243 55.5547 264.194 56.6218C265.542 57.0068 266.958 57.1137 268.339 56.9349C270.658 56.4461 272.153 54.3699 272.839 52.2811C274.959 45.7922 271.204 38.5584 265.704 33.8131C262.59 31.081 258.541 28.8798 254.376 29.1944C250.908 29.6271 247.778 31.243 245.603 33.7242C242.734 36.5547 240.977 40.1965 240.599 44.0952C240.423 46.0469 240.729 48.0226 241.495 49.8752C242.261 51.7277 243.467 53.4093 245.024 54.7946C247.406 56.5751 250.135 57.9134 253.053 58.7319C259.78 61.0091 266.647 62.8909 273.61 64.3655C276.46 65.0837 279.402 65.3863 282.328 65.262C285.1 64.9095 287.795 64.2027 290.334 63.1619C295.17 61.4312 300.128 59.6212 303.898 56.3736C306.918 53.5385 309.29 50.1726 310.882 46.4647C313.067 42.2903 314.307 37.7307 314.528 33.0561C314.622 32.262 314.531 31.4539 314.264 30.6845C313.996 29.9151 313.556 29.2016 312.973 28.5906C312.023 27.9207 310.911 27.4769 309.74 27.3001L296.621 24.221C290.183 22.7848 283.477 21.3594 277.092 22.6553C274.154 23.2459 271.399 24.3957 269.003 26.0318C266.606 27.6679 264.62 29.7545 263.171 32.1589C261.722 34.5633 260.842 37.2331 260.586 39.9986C260.33 42.764 260.704 45.5647 261.685 48.2226C264.001 54.5085 269.594 59.5016 275.97 62.6878C282.347 65.874 289.478 67.3592 296.57 68.4281C302.265 69.287 307.99 69.8703 313.745 70.1781C316.287 70.4207 318.842 70.3468 321.342 69.9583C327.432 68.7573 332.107 64.3649 335.184 59.4633C337.565 55.6969 339.025 50.4154 335.653 47.1977C333.96 45.835 331.913 44.9057 329.726 44.507C322.5 42.6076 315.162 41.1319 307.757 40.0888C306.316 39.7948 304.831 39.8012 303.412 40.1076C301.846 40.7044 300.517 41.7149 299.59 43.0144C297.072 46.0053 295.001 49.7238 295.808 53.4558C296.553 56.9009 299.607 59.7005 302.75 61.8176C310.816 67.211 320.484 70.0259 330 72.5166C332.006 73.0384 334.17 73.5534 336.102 72.9226C337.726 72.2934 339.042 71.1526 339.819 69.6996C343.508 63.6708 344.143 57.4553 337.417 53.9674" stroke="black" stroke-miterlimit="10"/>
</g>
<defs>
<clipPath id="clip0_396_12839">
<rect width="455" height="440" fill="white"/>
</clipPath>
</defs>
</svg>
