<svg width="188" height="70" viewBox="0 0 188 70" fill="none" xmlns="http://www.w3.org/2000/svg">
<path d="M187.318 22.9508H150.432V69.9088H149.689V1.37573H100.495V70.1974H99.5121V31.4384H50.3057V69.9948H49.5012V11.8531H0.485209V69.4481H0V11.024H50.1154V30.118H99.3217V18.7255C99.3217 13.3025 99.3709 7.87955 99.3217 2.4566C99.3217 0.859811 99.6349 0 101.496 0C117.464 0.0675566 133.432 0.0675775 149.4 0.0982851C149.706 0.172063 150.001 0.283448 150.278 0.429913V21.7471H188V70.1483H187.331L187.318 22.9508Z" fill="black"/>
<path d="M173.476 41.1501H183.159V51.6394H173.476V41.1501ZM182.453 42.4177H174.354V50.4923H182.453V42.4177Z" fill="black"/>
<path d="M31.4678 41.1501H41.1502V51.6394H31.4678V41.1501ZM32.4695 50.4824H40.4825V42.3582H32.4695V50.4824Z" fill="black"/>
<path d="M146.043 58.917V68.5838H136.378C136.378 65.7326 136.307 63.017 136.449 60.3367C136.554 60.0119 136.74 59.7193 136.99 59.4864C137.24 59.2535 137.545 59.0879 137.877 59.0054C140.497 58.8463 143.122 58.917 146.043 58.917ZM137.47 68.0477C139.73 68.0477 141.777 68.1597 143.801 67.9829C144.391 67.924 145.388 67.0934 145.441 66.5456C145.63 64.4426 145.518 62.3101 145.518 60.1128H137.47V68.0477Z" fill="black"/>
<path d="M157.339 60.5149V50.8509C160.129 50.8509 162.831 50.7805 165.527 50.9154C165.856 50.9988 166.158 51.1649 166.405 51.3979C166.652 51.6309 166.834 51.923 166.936 52.2465C167.077 54.944 167.001 57.6532 167.001 60.5149H157.339ZM165.902 59.8405V51.9943H157.891C157.891 54.1582 157.774 56.1872 157.962 58.1927C158.055 58.5575 158.239 58.8928 158.497 59.1675C158.754 59.4423 159.077 59.6475 159.436 59.7643C161.539 59.9637 163.671 59.8405 165.902 59.8405Z" fill="black"/>
<path d="M56.4807 50.0257V40.3433H66.1631V50.0257H56.4807ZM65.4601 41.3728H57.3976V48.9783H65.4601V41.3728Z" fill="black"/>
<path d="M103.279 41.1501H112.961V51.6394H103.279V41.1501ZM112.224 42.4185H104.023V50.4916H112.224V42.4185Z" fill="black"/>
<path d="M103.279 16.1372V5.64795H112.961V16.1372H103.279ZM104.09 6.7426V15.1778H112.059V6.7426H104.09Z" fill="black"/>
<path d="M80.6867 55.6739V45.9915H91.176V55.6739H80.6867ZM81.6279 46.7611V54.9663H90.0985V46.7301L81.6279 46.7611Z" fill="black"/>
<path d="M15.3305 64.5493H5.64807V54.8669H15.3305V64.5493ZM14.568 55.7828H6.48318V63.4949H14.568V55.7828Z" fill="black"/>
<path d="M173.476 33.8885V25.0129H183.159V33.8885H173.476ZM182.436 25.7906H174.442V33.2123H182.436V25.7906Z" fill="black"/>
<path d="M146.043 34.6953H136.361V25.0129H146.043V34.6953ZM145.471 33.9454V25.897H137.324V33.9637L145.471 33.9454Z" fill="black"/>
<path d="M15.3305 36.3091H5.64807V26.6267H15.3305V36.3091ZM6.5238 27.3791V35.4834H14.5833V27.3791H6.5238Z" fill="black"/>
<path d="M182.352 42.7639V50.0257H174.283V42.7639H182.352Z" fill="#FEF9D8"/>
<path d="M32.2747 50.0257V42.7639H40.3433V50.0257H32.2747Z" fill="#FEF9D8"/>
<path d="M137.167 67.7415V59.7083H146.007C146.007 61.9328 146.13 64.0917 145.922 66.2208C145.864 66.7754 144.788 67.6163 144.121 67.6759C141.898 67.8549 139.649 67.7415 137.167 67.7415Z" fill="#FEF9D8"/>
<path d="M166.208 59.6744C163.747 59.6744 161.395 59.7885 159.083 59.5964C158.687 59.4768 158.331 59.2666 158.047 58.9853C157.763 58.7039 157.56 58.3605 157.457 57.987C157.249 55.9332 157.379 53.8553 157.379 51.6394H166.215L166.208 59.6744Z" fill="#FEF9D8"/>
<path d="M65.3562 41.1501V49.2188H57.2876V41.1501H65.3562Z" fill="#FEF9D8"/>
<path d="M112.155 42.7639V50.0257H104.086V42.781L112.155 42.7639Z" fill="#FEF9D8"/>
<path d="M104.086 6.45483H112.155V14.5235H104.086V6.45483Z" fill="#FEF9D8"/>
<path d="M82.3004 46.7983H89.5622V54.867H82.3004V46.7983Z" fill="#FEF9D8"/>
<path d="M14.5236 55.6738V63.7425H6.45493V55.6738H14.5236Z" fill="#FEF9D8"/>
<path d="M182.352 25.8198V33.8885H174.283V25.8198H182.352Z" fill="#FEF9D8"/>
<path d="M145.236 33.8885H137.167V25.8198H145.236V33.8885Z" fill="#FEF9D8"/>
<path d="M6.45493 27.4336H14.5236V35.5023H6.45493V27.4336Z" fill="#FEF9D8"/>
</svg>
