<svg width="138" height="466" viewBox="0 0 138 466" fill="none" xmlns="http://www.w3.org/2000/svg">
<g clip-path="url(#clip0_262_9680)">
<path d="M67.9083 422.652C82.6308 422.652 94.5658 410.717 94.5658 395.994C94.5658 381.272 82.6308 369.337 67.9083 369.337C53.1857 369.337 41.2508 381.272 41.2508 395.994C41.2508 410.717 53.1857 422.652 67.9083 422.652Z" fill="#FDEE93"/>
<path d="M63.6198 0.0419922C62.6528 17.2811 62.0221 34.5622 62.4005 51.8013C62.4005 57.0991 62.7368 62.355 63.1993 67.6528C64.277 73.4309 64.6441 79.319 64.2926 85.1862C61.9424 100.129 54.2478 113.71 42.6386 123.407C39.401 126.097 35.8691 128.452 32.8838 131.395C29.7449 134.248 27.6815 138.093 27.0393 142.285C26.9847 147.258 28.4518 152.129 31.244 156.245C34.2413 162.202 38.2861 167.572 43.1852 172.096C47.3899 175.796 56.4299 180.506 61.8959 176.764C67.362 173.021 67.9506 165.453 66.7313 159.945C66.1919 156.862 64.7251 154.016 62.5266 151.788C56.8083 146.112 47.8103 147.583 45.4557 148.13C41.312 148.968 37.4227 150.767 34.1001 153.381C30.7776 155.995 28.1144 159.352 26.3246 163.183C22.7926 171.802 23.97 183.701 29.1837 185.972C34.3975 188.242 43.0591 178.361 46.6751 181.094C49.324 183.071 45.3716 188.831 48.6933 193.708C52.015 198.586 57.9856 198.375 61.7277 198.586C62.4846 198.586 75.0144 199.3 76.3599 194.928C77.7054 190.555 65.3437 185.93 57.6492 170.12C55.9303 167.471 55.2145 164.295 55.631 161.164C57.3128 153.638 69.2541 146.574 77.2008 150.989C83.634 154.563 85.3999 164.528 82.4567 170.919C78.5043 179.707 67.9506 176.89 63.3675 185.551C57.8594 195.937 66.3949 212.167 73.1223 214.984C74.4702 215.499 75.8873 215.811 77.327 215.909C78.8487 216.02 80.3772 215.824 81.8217 215.332C83.2662 214.841 84.5974 214.065 85.7363 213.05C89.9409 207.962 77.327 197.745 80.3964 188.537C83.0453 180.884 93.3047 183.449 97.5093 175.124C101.125 167.934 97.5093 159.146 93.9354 152.671C90.4815 145.418 85.4712 139.015 79.2611 133.918C76.6412 131.856 73.6212 130.362 70.393 129.53C67.1647 128.697 63.7986 128.545 60.5084 129.083C57.226 129.704 54.2143 131.32 51.8824 133.712C49.5505 136.105 48.0113 139.156 47.474 142.454C47.2632 147.693 49.0178 152.821 52.3934 156.833C53.5853 158.914 55.2798 160.662 57.3218 161.918C59.3638 163.174 61.6882 163.898 64.0823 164.023C66.0395 163.834 67.8684 162.965 69.2511 161.567C70.6338 160.169 71.4829 158.33 71.6507 156.371C71.7056 154.682 71.2651 153.013 70.3835 151.572C69.5019 150.13 68.2177 148.977 66.6892 148.256C63.8721 146.953 59.8356 145.565 59.6675 141.739C59.4993 137.913 63.5778 134.086 66.3528 134.465C69.1279 134.843 69.3381 141.613 75.519 145.397C77.0327 146.364 79.5134 147.878 81.6157 147.037C86.3249 145.145 83.3817 133.456 87.3341 131.984C89.983 131.017 95.2388 134.927 95.449 138.922C95.7434 143.799 88.217 145.229 87.3341 151.914C86.7454 156.119 88.7636 160.323 90.9921 160.87C94.6922 161.417 96.4582 149.812 102.765 149.055C105.075 149.125 107.294 149.966 109.07 151.445C110.845 152.923 112.075 154.953 112.562 157.212C113.193 161.164 109.913 162.468 105.624 171.466C101.882 179.328 103.059 181.094 99.948 184.08C95.7434 188.284 92.1274 185.804 86.4931 189.378C81.9101 192.279 79.7657 197.114 75.519 206.869C74.0053 210.317 72.6598 213.849 71.3143 217.423C69.9688 220.997 69.5484 224.234 65.5119 224.192C63.9195 224.025 62.4339 223.312 61.3073 222.174C60.136 221.004 59.1187 219.69 58.2799 218.263C57.8594 217.633 57.5231 216.75 58.2799 216.329C59.0367 215.909 62.4846 217.885 63.1993 218.221C65.3399 219.059 67.5686 219.652 69.8427 219.987C74.3998 220.652 79.049 220.249 83.4237 218.81C90.8251 215.794 97.5347 211.301 103.144 205.607C106.528 203.206 109.037 199.766 110.291 195.811C110.635 192.267 110.13 188.693 108.82 185.383C108.189 183.743 107.897 181.992 107.962 180.236C108.027 178.479 108.447 176.755 109.198 175.166C109.592 174.413 110.204 173.797 110.955 173.399C111.706 173.002 112.559 172.841 113.403 172.937C115.463 173.442 116.304 175.881 116.725 177.983C118.348 184.924 118.145 192.167 116.136 199.006C115.1 202.399 113.241 205.484 110.725 207.985C108.209 210.487 105.113 212.328 101.714 213.344C95.5773 214.357 89.2772 213.401 83.7181 210.611C78.1614 207.742 72.2318 205.662 66.1006 204.43C63.024 203.88 59.8537 204.239 56.9784 205.464C54.103 206.689 51.6474 208.726 49.9127 211.326C49.2006 213.248 48.2694 215.082 47.1376 216.792C45.7095 218.137 43.8561 218.941 41.8981 219.063C39.9401 219.186 38.0007 218.621 36.4157 217.465C33.3345 215.027 31.0386 211.737 29.8144 208.004C28.7626 205.743 28.1491 203.304 28.0064 200.814C27.9403 199.574 28.1643 198.335 28.6606 197.197C29.1569 196.058 29.9119 195.051 30.8656 194.255C32.1161 193.439 33.577 193.005 35.0702 193.005C36.5634 193.005 38.0243 193.439 39.2749 194.255C40.382 194.807 41.3536 195.596 42.1206 196.567C42.8876 197.537 43.431 198.665 43.7121 199.87C43.9932 201.075 44.0051 202.326 43.7468 203.536C43.4886 204.746 42.9666 205.884 42.2181 206.869C41.5333 207.871 40.5102 208.593 39.3363 208.902C38.1624 209.211 36.9165 209.086 35.8271 208.551C34.8581 207.882 34.1462 206.903 33.8088 205.776C33.5394 205.248 33.3989 204.665 33.3989 204.073C33.3989 203.481 33.5394 202.897 33.8088 202.37C34.2681 201.858 34.8803 201.508 35.5545 201.371C36.2286 201.235 36.9288 201.32 37.551 201.613C41.0632 203.336 43.7745 206.349 45.1194 210.022C47.0114 216.371 41.209 221.291 43.9 225.916C45.4025 227.856 47.5781 229.161 49.9968 229.574C61.055 233.442 64.5869 254.802 66.2688 265.776C69.0426 284.116 69.0426 302.769 66.2688 321.109" stroke="black" stroke-width="1.68186" stroke-miterlimit="10"/>
<path d="M65.5538 320.689H68.7073C69.5293 320.689 70.3189 321.009 70.908 321.583C71.497 322.156 71.8389 322.937 71.8608 323.758V328.341H62.4004V323.758C62.4223 322.937 62.7642 322.156 63.3532 321.583C63.9422 321.009 64.7319 320.689 65.5538 320.689Z" fill="black"/>
<path d="M60.5926 329.771C58.4959 331.227 56.7201 333.097 55.3749 335.267C54.0297 337.437 53.1439 339.859 52.772 342.385C52.2486 347.214 51.4058 352.004 50.2492 356.723C48.035 361.933 44.9653 366.736 41.1671 370.934C34.6845 378.392 31.2338 388.008 31.4964 397.886C32.1198 407.052 36.1343 415.657 42.7573 422.023C49.3803 428.389 58.137 432.061 67.3201 432.322H67.6144C72.4839 432.278 77.2962 431.267 81.7715 429.347C86.2467 427.427 90.2958 424.636 93.6832 421.138C100.411 414.449 104.258 405.396 104.405 395.91C104.425 391.011 103.294 386.176 101.103 381.794C98.9118 377.412 95.7223 373.606 91.7911 370.682C89.0704 367.967 86.7868 364.846 85.0216 361.432C83.763 358.615 82.8183 355.668 82.2045 352.644C81.096 347.174 79.5924 341.792 77.7055 336.54C76.7649 333.095 74.5172 330.154 71.4406 328.341C69.2944 327.4 66.8906 327.222 64.6291 327.837C63.1919 328.269 61.8303 328.922 60.5926 329.771Z" stroke="black" stroke-width="1.68186" stroke-miterlimit="10"/>
<path d="M75.6872 338.769C74.9464 337.002 73.8599 335.401 72.4917 334.06C71.4756 333.103 70.2683 332.372 68.9493 331.916C67.6302 331.459 66.2295 331.287 64.8392 331.411C64.3163 331.447 63.8039 331.575 63.3255 331.79C60.425 333.1 58.0956 335.415 56.7663 338.307C56.7893 338.46 56.7893 338.616 56.7663 338.769H75.6872Z" fill="black"/>
<path d="M55.0422 343.73H77.1166C77.0162 342.688 76.8048 341.659 76.4859 340.661H55.9252C55.5558 341.661 55.2607 342.687 55.0422 343.73Z" fill="black"/>
<path d="M77.6632 357.774H54.0751C54.1162 358.306 54.1162 358.84 54.0751 359.372C54.0751 359.919 53.7808 361.222 54.0751 361.516C54.3856 361.64 54.7318 361.64 55.0422 361.516H76.3178C76.6541 361.516 77.1166 361.516 77.3269 361.264C77.391 361.073 77.391 360.866 77.3269 360.675V359.078C77.6632 358.909 77.8314 357.774 77.6632 357.774Z" fill="black"/>
<path d="M54.3272 349.911H77.621C77.621 348.733 77.621 347.514 77.4107 346.337V345.412H54.7477C54.5374 346.925 54.4113 348.397 54.3272 349.911Z" fill="black"/>
<path d="M54.0753 356.008H77.7475C77.7475 354.873 77.7475 353.738 77.7475 352.603C77.7475 352.266 77.7475 351.93 77.7475 351.594H54.2434C54.1594 353.065 54.1173 354.537 54.0753 356.008Z" fill="black"/>
<path d="M63.4514 420.045L63.7457 359.96" stroke="black" stroke-width="1.68186" stroke-miterlimit="10"/>
<path d="M70.3892 359.666L69.8426 381.362C71.3597 380.943 72.9784 381.102 74.3847 381.809C75.7909 382.516 76.8844 383.721 77.453 385.188C77.7648 386.216 77.8126 387.305 77.5922 388.356C77.3717 389.407 76.89 390.385 76.1916 391.201C75.4335 392.054 74.4023 392.617 73.2747 392.794C72.1471 392.97 70.9933 392.749 70.0108 392.168C69.6788 392.029 69.3862 391.811 69.1589 391.532C68.9315 391.254 68.7764 390.923 68.7073 390.57C68.7389 390.249 68.847 389.94 69.0226 389.67C69.1982 389.399 69.4361 389.174 69.7164 389.014C70.2373 388.636 70.8379 388.383 71.4721 388.274C72.1063 388.164 72.7571 388.202 73.3745 388.384C74.7396 389.011 75.8181 390.13 76.3948 391.517C76.9715 392.904 77.004 394.458 76.4859 395.868C76.2575 396.996 75.6938 398.03 74.8685 398.832C74.0433 399.635 72.995 400.17 71.8608 400.367C69.4221 400.367 66.9834 399.905 67.1095 397.256C67.1095 393.682 71.3142 394.649 74.4677 396.162C75.7969 396.824 76.8504 397.932 77.4426 399.294C78.0348 400.655 78.1278 402.181 77.7053 403.605C77.4151 404.383 76.9008 405.058 76.2273 405.545C75.5538 406.031 74.7513 406.307 73.9211 406.338C72.1551 406.338 70.3471 404.824 70.5153 403.773C70.7048 403.279 71.0767 402.878 71.5541 402.651C72.0315 402.424 72.5778 402.389 73.0802 402.553C74.1734 403.1 74.1313 404.992 73.9211 405.959C73.5427 407.683 70.263 407.977 70.263 409.785C70.263 417.102 70.263 415.798 70.263 419.498" stroke="black" stroke-width="1.68186" stroke-miterlimit="10"/>
<path d="M24.1381 382.202L0.550018 377.998" stroke="black" stroke-width="1.68186" stroke-miterlimit="10"/>
<path d="M26.577 410.71L3.78775 417.984" stroke="black" stroke-width="1.68186" stroke-miterlimit="10"/>
<path d="M41.1247 430.893L26.5766 449.898" stroke="black" stroke-width="1.68186" stroke-miterlimit="10"/>
<path d="M69.5482 441.531L69.1697 465.497" stroke="black" stroke-width="1.68186" stroke-miterlimit="10"/>
<path d="M100.957 430.893L116.767 448.888" stroke="black" stroke-width="1.68186" stroke-miterlimit="10"/>
<path d="M114.034 408.23L137.958 409.702" stroke="black" stroke-width="1.68186" stroke-miterlimit="10"/>
<path d="M113.234 382.203L136.57 376.737" stroke="black" stroke-width="1.68186" stroke-miterlimit="10"/>
</g>
<defs>
<clipPath id="clip0_262_9680">
<rect width="137.618" height="465.497" fill="white" transform="translate(0.381714)"/>
</clipPath>
</defs>
</svg>
