<svg width="345" height="366" viewBox="0 0 345 366" fill="none" xmlns="http://www.w3.org/2000/svg">
<g clip-path="url(#clip0_262_9594)">
<path d="M151.486 315.921C161.295 314.531 171.176 313.722 181.079 313.496C196.387 313.249 201.402 314.247 205.163 315.511C208.924 316.774 212.292 327.326 207.346 337.366C202.4 347.406 185.096 355.687 161.516 353.681C137.935 351.675 121.126 346.902 112.095 340.115C103.063 333.328 111.088 329.572 121.126 324.048C131.164 318.525 144.749 315.579 151.486 315.921Z" fill="black" stroke="black" stroke-linecap="round" stroke-linejoin="round"/>
<path d="M131.931 339.082C131.931 339.082 167.05 319.746 179.34 316.228C191.629 312.711 205.683 311.96 212.207 316.228C218.731 320.497 217.222 334.31 214.211 339.577C211.201 344.845 186.87 355.909 173.319 359.922C159.767 363.934 106.799 363.687 92.3008 364.942C77.8028 366.196 42.6325 365.445 37.6094 362.688C32.5863 359.93 35.6053 356.908 42.8798 355.149C50.1544 353.391 74.238 353.391 85.5208 350.129C96.8036 346.868 123.65 343.351 131.931 339.082Z" fill="#F5F5F5" stroke="black" stroke-linecap="round" stroke-linejoin="round"/>
<path d="M214.211 339.611C215.678 337.05 216.77 332.449 216.77 327.916C207.67 335.129 193.513 343.667 173.933 350.667C155.358 357.309 102.782 363.251 81.0435 365.496C85.3673 365.411 89.2647 365.24 92.2751 364.976C106.824 363.721 159.759 363.977 173.293 359.956C186.827 355.935 211.184 344.887 214.211 339.611Z" fill="black" stroke="black" stroke-linecap="round" stroke-linejoin="round"/>
<path d="M189.386 354.022C193.113 352.434 196.839 350.727 200.234 349.019C200.984 345.323 201.871 334.506 193.931 313.556C188.992 313.987 184.105 314.893 179.34 316.262C179.34 316.262 194.221 333.294 189.386 354.022Z" fill="black" stroke="black" stroke-linecap="round" stroke-linejoin="round"/>
<path d="M97.5967 347.415C92.872 348.354 88.6079 349.267 85.5207 350.164C74.2294 353.425 50.1457 353.425 42.8797 355.183C35.6137 356.942 32.5947 359.956 37.6093 362.722C42.6239 365.488 77.7515 366.239 92.3006 364.976C94.0063 364.83 96.2748 364.702 98.9356 364.591C93.1194 358.274 95.7631 350.898 97.5967 347.415Z" fill="#F5F5F5" stroke="black" stroke-linecap="round" stroke-linejoin="round"/>
<path d="M74.7328 307.495C74.7328 307.495 51.9028 310.261 40.3641 311.26C28.8255 312.258 7.99956 321.538 3.73546 330.545C-0.528641 339.552 12.2637 350.386 19.5382 352.648C26.8128 354.91 48.645 359.93 60.6868 359.179C72.7286 358.428 108.351 347.876 114.619 345.869C120.887 343.863 131.931 339.091 131.931 339.091C131.931 339.091 121.391 339.091 103.584 330.05C85.7768 321.009 83.0137 311.763 74.7328 307.495Z" fill="#F5F5F5" stroke="black" stroke-linecap="round" stroke-linejoin="round"/>
<path d="M25.7209 314.649C25.7209 314.649 43.724 312.771 51.9708 318.772C60.2175 324.774 65.4709 343.18 65.4709 343.18L103.583 330.075C103.583 330.075 100.727 327.036 93.5969 318.397C86.4673 309.757 65.4539 304.882 53.0965 307.512C40.7391 310.141 25.7209 314.649 25.7209 314.649Z" fill="black" stroke="black" stroke-linecap="round" stroke-linejoin="round"/>
<path d="M112.811 346.458L114.619 345.895C120.887 343.889 131.931 339.116 131.931 339.116C131.931 339.116 123.838 339.116 109.852 333.029C111.847 336.393 113.834 341.293 112.811 346.458Z" fill="#F5F5F5" stroke="black" stroke-linecap="round" stroke-linejoin="round"/>
<path d="M126.396 341.438C111.066 343.387 95.9009 346.472 81.0264 350.667C59.3392 356.814 33.1917 354.62 20.5188 352.964C28.6035 355.337 49.1395 359.93 60.6866 359.204C72.7285 358.453 108.351 347.901 114.619 345.895C117.988 344.819 122.721 342.941 126.396 341.438Z" fill="black" stroke="black" stroke-linecap="round" stroke-linejoin="round"/>
<path d="M150.156 234.493L144.996 285.247C144.996 285.247 147.444 297.463 149.064 302.321C150.685 307.179 152.322 315.084 151.503 315.895C150.685 316.706 150.156 316.168 144.459 317.79C138.762 319.412 131.982 329.222 123.343 333.021C114.704 336.82 107.617 334.925 99.4643 331.663C91.3114 328.402 76.1482 308.613 72.8904 308.049C69.6327 307.486 59.8764 305.881 55.834 304.524C51.7917 303.166 46.888 297.463 46.888 297.463C46.888 297.463 46.0351 297.463 46.0351 294.475C46.0351 291.487 46.308 291.223 46.308 291.223C45.0226 290.051 44.0843 288.547 43.5961 286.877C43.0588 284.436 48.713 271.408 48.713 263.263C48.713 255.119 52.781 224.445 52.781 220.646C52.781 216.846 58.529 216.027 64.4987 213.585C70.4684 211.144 101.92 199.473 102.466 196.212C103.012 192.951 105.178 170.156 105.178 170.156C105.178 170.156 122.047 188.221 124.153 189.698C125.698 190.75 127.07 192.034 128.221 193.506L126.294 202.487C126.294 202.487 134.421 208.463 139.845 211.716C145.269 214.968 152.595 217.956 152.859 220.125" fill="#F5F5F5"/>
<path d="M150.156 234.493L144.996 285.247C144.996 285.247 147.444 297.463 149.064 302.321C150.685 307.179 152.322 315.084 151.503 315.895C150.685 316.706 150.156 316.168 144.459 317.79C138.762 319.412 131.982 329.222 123.343 333.021C114.704 336.82 107.617 334.925 99.4643 331.663C91.3114 328.402 76.1482 308.613 72.8904 308.049C69.6327 307.486 59.8764 305.881 55.834 304.524C51.7917 303.166 46.888 297.463 46.888 297.463C46.888 297.463 46.0351 297.463 46.0351 294.475C46.0351 291.487 46.308 291.223 46.308 291.223C45.0226 290.051 44.0843 288.547 43.5961 286.877C43.0588 284.436 48.713 271.408 48.713 263.263C48.713 255.119 52.781 224.445 52.781 220.646C52.781 216.846 58.529 216.027 64.4987 213.585C70.4684 211.144 101.92 199.473 102.466 196.212C103.012 192.951 105.178 170.156 105.178 170.156C105.178 170.156 122.047 188.221 124.153 189.698C125.698 190.75 127.07 192.034 128.221 193.506L126.294 202.487C126.294 202.487 134.421 208.463 139.845 211.716C145.269 214.968 152.595 217.956 152.859 220.125" stroke="black" stroke-linecap="round" stroke-linejoin="round"/>
<path d="M46.0266 294.475C46.0266 294.475 53.8214 289.063 61.6076 292.256" stroke="black" stroke-linecap="round" stroke-linejoin="round"/>
<path d="M131.172 205.944C128.392 204.006 126.294 202.461 126.294 202.461L128.187 193.506C127.036 192.034 125.664 190.75 124.12 189.698C122.013 188.221 105.144 170.156 105.144 170.156C105.144 170.156 102.97 192.959 102.432 196.212C102.253 197.271 98.8164 199.217 94.0576 201.445C94.9104 206.679 97.8697 215.421 108.394 218.742C118.917 222.063 127.053 212.433 131.172 205.944Z" fill="#F5F5F5" stroke="black" stroke-linecap="round" stroke-linejoin="round"/>
<path d="M126.371 202.487L126.294 202.436L128.187 193.48C127.036 192.008 125.663 190.724 124.119 189.673C122.925 188.819 116.964 182.655 112.043 177.456L110.79 183.432C110.79 183.432 110.807 200.498 126.371 202.487Z" fill="black"/>
<path d="M109.323 114.161C109.323 114.161 108.547 107.673 103.353 106.384C98.1597 105.095 86.2969 105.863 82.1181 113.64C77.9393 121.418 81.0862 127.377 82.6383 128.418C83.5379 129.023 84.4914 129.543 85.4868 129.972L86.7831 123.492C86.7831 123.492 87.2948 129.195 90.9192 130.484C94.5437 131.773 102.057 130.484 102.057 130.484C102.057 130.484 108.547 125.823 109.323 114.161Z" fill="black" stroke="black" stroke-linecap="round" stroke-linejoin="round"/>
<path d="M157.2 137.314C157.2 137.314 166.419 143.29 166.419 149.266C166.419 155.242 155.034 157.411 155.034 157.411L157.2 137.314Z" fill="black" stroke="black" stroke-linecap="round" stroke-linejoin="round"/>
<path d="M159.307 138.526C159.307 138.526 158.266 150.965 157.234 157.965C156.203 164.966 151.793 170.669 151.538 175.339C151.282 180.009 140.92 191.389 135.735 195.299C130.55 199.209 122.789 197.86 118.909 194.778C113.033 189.687 108.42 183.298 105.434 176.116C102.321 168.074 104.658 156.412 105.434 152.783C106.21 149.155 125.629 134.898 140.4 134.898C155.171 134.898 159.307 138.526 159.307 138.526Z" fill="#F5F5F5" stroke="black" stroke-linecap="round" stroke-linejoin="round"/>
<path d="M142.958 167.561C142.958 167.561 143.99 176.892 143.99 177.669C143.99 178.446 141.662 180.777 137.773 178.446" stroke="black" stroke-linecap="round" stroke-linejoin="round"/>
<path d="M127.454 178.446C127.454 178.446 131.599 183.628 138.328 183.372" stroke="black" stroke-linecap="round" stroke-linejoin="round"/>
<path d="M141.432 159.263C135.501 156.039 128.706 154.769 122.013 155.635C122.013 155.635 118.909 155.635 120.717 157.966C120.717 157.966 119.941 165.743 121.757 168.074C123.574 170.404 127.727 172.223 131.855 172.223C135.982 172.223 140.144 167.297 141.432 159.263Z" stroke="#9D85F4" stroke-width="2" stroke-linecap="round" stroke-linejoin="round"/>
<path d="M120.461 155.891L103.626 154.858" stroke="#9D85F4" stroke-width="2" stroke-linecap="round" stroke-linejoin="round"/>
<path d="M141.432 159.263L145.841 160.561C145.841 160.561 144.024 170.148 145.065 172.743C145.395 173.577 145.916 174.321 146.588 174.914C147.259 175.507 148.061 175.934 148.928 176.158C150.286 176.552 151.68 176.804 153.09 176.91C155.162 176.91 159.563 172.761 160.595 165.504C160.595 165.504 161.891 164.983 161.379 164.206C160.867 163.429 154.557 159.801 146.028 160.578" stroke="#9D85F4" stroke-width="2" stroke-linecap="round" stroke-linejoin="round"/>
<path d="M141.176 161.594C141.176 161.594 144.485 161.807 145.44 163.062" stroke="#9D85F4" stroke-width="2" stroke-linecap="round" stroke-linejoin="round"/>
<path d="M132.238 164.556C131.94 166.264 131.096 167.527 130.362 167.399C129.629 167.271 129.262 165.786 129.569 164.087C129.876 162.388 130.703 161.116 131.445 161.244C132.187 161.372 132.537 162.857 132.238 164.556Z" fill="black"/>
<path d="M151.113 169.104C151.526 167.614 151.335 166.259 150.686 166.079C150.037 165.898 149.176 166.96 148.762 168.45C148.349 169.94 148.54 171.295 149.189 171.475C149.838 171.656 150.699 170.594 151.113 169.104Z" fill="black"/>
<path d="M126.832 158.486C126.832 158.486 133.339 156.318 136.323 159.844" stroke="black" stroke-width="2" stroke-linecap="round" stroke-linejoin="round"/>
<path d="M148.254 163.369C148.254 163.369 151.239 160.655 153.678 164.454" stroke="black" stroke-width="2" stroke-linecap="round" stroke-linejoin="round"/>
<path d="M114.508 153.304C114.508 153.304 128.46 145.783 140.4 143.452C152.339 141.122 161.379 142.155 163.426 135.154C165.473 128.154 151.487 116.492 136.989 112.343C122.491 108.194 105.136 112.599 98.1511 122.971C91.1665 133.344 93.4862 145.783 95.5927 150.453C97.6991 155.123 99.2172 158.742 103.106 159.263C106.995 159.784 114.508 153.304 114.508 153.304Z" fill="black" stroke="black" stroke-linecap="round" stroke-linejoin="round"/>
<path d="M153.09 127.419C153.09 127.419 156.868 129.682 145.918 134.249C137.969 137.536 121.86 138.441 110.594 142.3" stroke="#F5F5F5" stroke-linecap="round" stroke-linejoin="round"/>
<path d="M97.9634 143.666C97.9634 143.666 94.5521 138.757 106.27 135.35C114.713 132.9 126.891 132.021 134.413 127.889" stroke="#F5F5F5" stroke-linecap="round" stroke-linejoin="round"/>
<path d="M107.251 163.148C107.251 163.148 105.195 153.04 100.795 153.04C96.3943 153.04 95.7974 157.709 97.5627 163.412C99.328 169.115 102.262 170.925 104.905 169.115" fill="#F5F5F5"/>
<path d="M107.251 163.148C107.251 163.148 105.195 153.04 100.795 153.04C96.3943 153.04 95.7974 157.709 97.5627 163.412C99.328 169.115 102.262 170.925 104.905 169.115" stroke="black" stroke-linecap="round" stroke-linejoin="round"/>
<path d="M72.8736 308.049C72.8736 308.049 73.9567 306.692 73.9567 302.347C73.9567 298.001 70.9718 283.616 69.6158 273.576C68.2598 263.536 66.9124 244.259 66.9124 236.115" stroke="black" stroke-linecap="round" stroke-linejoin="round"/>
<path d="M85.0774 226.613C85.0774 226.613 89.9385 256.621 98.2535 273.175" stroke="black" stroke-linecap="round" stroke-linejoin="round"/>
<path d="M88.3267 218.204C88.3267 218.204 93.7676 235.048 100.206 248.4" stroke="black" stroke-linecap="round" stroke-linejoin="round"/>
<path d="M30.0279 296.396C30.0279 296.396 33.0128 298.838 38.9825 298.838C44.9523 298.838 50.0692 295.85 57.6934 297.754C65.3176 299.657 65.2835 307.247 64.4648 309.424C63.6461 311.601 56.3374 312.95 49.5575 312.139C42.7776 311.328 28.9448 309.962 28.9448 309.962C28.9448 309.962 31.1195 302.073 30.0279 296.396Z" fill="#F5F5F5" stroke="black" stroke-linecap="round" stroke-linejoin="round"/>
<path d="M24.5015 289.481C24.8296 290.5 25.3596 291.443 26.0601 292.253C26.7605 293.063 27.6169 293.723 28.578 294.194C32.0319 296.072 33.2855 301.1 33.2855 303.926C33.3326 305.417 33.1191 306.905 32.6545 308.323C32.6545 308.323 31.7164 312.087 28.578 312.719C25.4396 313.351 23.5634 315.229 19.7939 311.464C16.0244 307.699 10.6943 295.764 10.6943 295.764L11.3254 293.878C13.2724 293.843 15.1925 293.416 16.9711 292.623C19.4784 291.359 24.5015 289.481 24.5015 289.481Z" fill="#F5F5F5" stroke="black" stroke-linecap="round" stroke-linejoin="round"/>
<path d="M6.93335 276.607L28.5779 312.719" stroke="#9D85F4" stroke-width="3" stroke-linecap="round" stroke-linejoin="round"/>
<path d="M13.5171 312.404C15.4319 314.064 17.892 314.958 20.4249 314.913C24.817 314.913 29.209 312.088 27.0087 311.149C24.8084 310.209 23.2478 309.262 21.6786 309.894C20.1094 310.525 13.5171 312.404 13.5171 312.404Z" fill="#F5F5F5" stroke="black" stroke-linecap="round" stroke-linejoin="round"/>
<path d="M10.3875 307.691C10.3875 307.691 12.2637 313.035 13.7987 313.667C15.3338 314.299 21.9602 312.728 23.8364 311.473C25.7127 310.218 22.5828 308.058 19.76 308.058C16.9371 308.058 10.3875 307.691 10.3875 307.691Z" fill="#F5F5F5" stroke="black" stroke-linecap="round" stroke-linejoin="round"/>
<path d="M9.1251 299.529C9.1251 299.529 7.87144 306.12 10.3873 307.691C12.9031 309.262 22.6167 309.893 23.5633 308.007C24.51 306.12 21.0475 305.181 17.5936 303.61C14.1397 302.039 9.1251 299.529 9.1251 299.529Z" fill="#F5F5F5" stroke="black" stroke-linecap="round" stroke-linejoin="round"/>
<path d="M18.856 290.42C18.856 290.42 19.1715 302.671 20.4251 303.926C21.6788 305.181 24.5016 305.497 25.1327 304.558C25.7638 303.619 26.3864 292.93 24.5016 289.481C22.6169 286.032 18.856 290.42 18.856 290.42Z" fill="#F5F5F5" stroke="black" stroke-linecap="round" stroke-linejoin="round"/>
<path d="M11.3255 293.878C11.3255 293.878 7.24902 292.93 7.24902 297.019C7.24902 301.109 12.8947 303.61 15.402 303.926C17.9093 304.242 20.7406 303.294 18.5404 301.416C16.3401 299.538 13.2102 295.449 11.3255 293.878Z" fill="#F5F5F5" stroke="black" stroke-linecap="round" stroke-linejoin="round"/>
<path d="M42.1208 313.752L59.6803 311.234C59.6803 311.234 57.4203 307.973 51.6553 307.973C45.8902 307.973 42.3681 310.739 41.6176 311.738C40.8671 312.736 42.1208 313.752 42.1208 313.752Z" fill="black" stroke="black" stroke-linecap="round" stroke-linejoin="round"/>
<path d="M77.4873 334.592L105.588 324.8C105.588 324.8 98.8163 310.483 86.024 305.463C73.2317 300.443 54.2479 301.732 46.2229 304.746L49.1395 307.973C49.1395 307.973 54.9131 308.22 61.1814 315.511C67.4496 322.802 73.7264 334.344 73.7264 334.344L77.4873 334.592Z" fill="#F5F5F5" stroke="black" stroke-linecap="round" stroke-linejoin="round"/>
<path d="M59.9619 306.103C59.9619 306.103 71.1168 304.507 82.809 329.503" stroke="black" stroke-linecap="round" stroke-linejoin="round"/>
<path d="M65.4624 305.002C65.4624 305.002 76.6173 303.405 88.3009 328.402" stroke="black" stroke-linecap="round" stroke-linejoin="round"/>
<path d="M70.0762 304.122C70.0762 304.122 81.231 302.526 92.9232 327.523" stroke="black" stroke-linecap="round" stroke-linejoin="round"/>
<path d="M2.73742 331.33C2.73742 331.33 15.2739 312.745 38.6071 314.256L42.1207 313.761C42.1207 313.761 44.3806 308.485 50.8962 309.74C57.4117 310.995 74.2294 336.863 74.2294 336.863L77.4872 334.6C77.4872 334.6 68.6178 319.549 61.8464 311.012C55.075 302.475 46.2227 302.765 43.3829 305.89C41.8361 307.848 40.4609 309.936 39.2723 312.13C39.2723 312.13 36.6626 308.186 28.9446 309.953C19.4612 312.13 14.2334 316.356 11.5385 319.267C7.61556 323.536 -0.290086 329.273 0.451867 328.829L2.73742 331.33Z" fill="#F5F5F5" stroke="black" stroke-linecap="round" stroke-linejoin="round"/>
<path d="M74.2295 336.854L104.087 326.558L105.588 324.8L77.4958 334.592L74.2295 336.854Z" fill="#F5F5F5" stroke="black" stroke-linecap="round" stroke-linejoin="round"/>
<path d="M147.862 216.146C147.862 216.146 158.625 219.869 160.254 225.537C161.882 231.206 169.95 262.393 172.116 267.011C174.282 271.63 179.169 274.336 179.169 277.87C179.169 281.405 179.434 284.111 179.434 284.111C179.434 284.111 185.13 284.384 185.676 288.994C186.222 293.605 187.297 299.581 187.297 299.581L209.001 333.183C209.001 333.183 221.938 334.225 224.923 333.96C227.908 333.695 236.769 334.25 240.009 335.958C241.263 336.623 243.762 338.775 245.723 345.69C246.695 349.105 248.853 355.772 247.497 355.499C246.141 355.226 244.47 351.453 243.932 350.633C243.122 348.858 242.41 347.04 241.8 345.186C241.8 345.186 242.883 353.058 243.156 354.688C243.281 355.801 243.095 356.927 242.619 357.941L242.5 357.992C241.166 358.534 239.692 358.621 238.304 358.24L237.195 357.941C236.15 358.506 234.924 358.635 233.784 358.299L232.573 357.941C232.573 357.941 230.816 352.366 229.162 350.198C227.507 348.029 222.424 345.664 222.424 345.664C222.424 345.664 227.942 351.973 227.669 356.046C227.558 357.693 227.942 359.025 226.586 358.214C225.23 357.403 223.601 353.331 220.616 351.973C217.631 350.616 210.587 348.712 207.875 347.082C205.163 345.451 200.822 339.483 200.822 339.483L165.336 307.495C165.336 307.495 161.814 303.969 161.268 302.065L160.731 300.17C160.731 300.17 155.845 297.182 154.489 295.551C153.133 293.92 152.595 290.429 152.595 290.429L145.27 282.02L150.156 235.603" fill="#F5F5F5"/>
<path d="M147.862 216.146C147.862 216.146 158.625 219.869 160.254 225.537C161.882 231.206 169.95 262.393 172.116 267.011C174.282 271.63 179.169 274.336 179.169 277.87C179.169 281.405 179.434 284.111 179.434 284.111C179.434 284.111 185.13 284.384 185.676 288.994C186.222 293.605 187.297 299.581 187.297 299.581L209.001 333.183C209.001 333.183 221.938 334.225 224.923 333.96C227.908 333.695 236.769 334.25 240.009 335.958C241.263 336.623 243.762 338.775 245.723 345.69C246.695 349.105 248.853 355.772 247.497 355.499C246.141 355.226 244.47 351.453 243.932 350.633C243.122 348.858 242.41 347.04 241.8 345.186C241.8 345.186 242.883 353.058 243.156 354.688C243.281 355.801 243.095 356.927 242.619 357.941L242.5 357.992C241.166 358.534 239.692 358.621 238.304 358.24L237.195 357.941C236.15 358.506 234.924 358.635 233.784 358.299L232.573 357.941C232.573 357.941 230.816 352.366 229.162 350.198C227.507 348.029 222.424 345.664 222.424 345.664C222.424 345.664 227.942 351.973 227.669 356.046C227.558 357.693 227.942 359.025 226.586 358.214C225.23 357.403 223.601 353.331 220.616 351.973C217.631 350.616 210.587 348.712 207.875 347.082C205.163 345.451 200.822 339.483 200.822 339.483L165.336 307.495C165.336 307.495 161.814 303.969 161.268 302.065L160.731 300.17C160.731 300.17 155.845 297.182 154.489 295.551C153.133 293.92 152.595 290.429 152.595 290.429L145.27 282.02L150.156 235.603" stroke="black" stroke-linecap="round" stroke-linejoin="round"/>
<path d="M147.385 246.326L145.27 281.994L152.595 290.42C152.595 290.42 153.133 293.955 154.489 295.542C155.845 297.13 160.731 300.161 160.731 300.161L161.268 302.056C161.814 303.96 165.336 307.486 165.336 307.486L170.649 312.284C172.816 308.067 177.95 300.46 187.228 299.239C186.99 297.873 186.137 292.964 185.676 288.994C185.13 284.384 179.434 284.111 179.434 284.111C179.434 284.111 179.169 281.396 179.169 277.87C179.169 274.345 174.282 271.621 172.116 267.011C169.95 262.401 161.882 231.24 160.254 225.537C158.625 219.835 147.862 216.146 147.862 216.146" fill="#F5F5F5"/>
<path d="M147.385 246.326L145.27 281.994L152.595 290.42C152.595 290.42 153.133 293.955 154.489 295.542C155.845 297.13 160.731 300.161 160.731 300.161L161.268 302.056C161.814 303.96 165.336 307.486 165.336 307.486L170.649 312.284C172.816 308.067 177.95 300.46 187.228 299.239C186.99 297.873 186.137 292.964 185.676 288.994C185.13 284.384 179.434 284.111 179.434 284.111C179.434 284.111 179.169 281.396 179.169 277.87C179.169 274.345 174.282 271.621 172.116 267.011C169.95 262.401 161.882 231.24 160.254 225.537C158.625 219.835 147.862 216.146 147.862 216.146" stroke="black" stroke-linecap="round" stroke-linejoin="round"/>
<path d="M146.958 257.116L150.531 287.62L145.27 281.994L146.958 257.116Z" fill="black"/>
<path d="M163.426 298.821C164.917 295.896 166.958 293.287 169.438 291.137" stroke="black" stroke-linecap="round" stroke-linejoin="round"/>
<path d="M156.117 290.676C158.756 288.314 161.814 286.466 165.132 285.229" stroke="black" stroke-linecap="round" stroke-linejoin="round"/>
<path d="M223.908 347.679C223.908 347.679 220.923 343.607 216.855 343.334" stroke="black" stroke-linecap="round" stroke-linejoin="round"/>
<path d="M225.264 338.724C225.264 338.724 228.513 339.535 232.581 344.7C236.649 349.865 237.698 357.463 237.698 357.463" stroke="black" stroke-linecap="round" stroke-linejoin="round"/>
<path d="M233.025 337.639C233.025 337.639 239.088 342.523 240.171 347.133C241.254 351.743 242.619 357.992 242.619 357.992" stroke="black" stroke-linecap="round" stroke-linejoin="round"/>
<path d="M241.8 345.237C241.056 342.132 239.771 339.181 238.005 336.521" stroke="black" stroke-linecap="round" stroke-linejoin="round"/>
<path d="M323.961 356.08H249.126L269.73 287.68H344.574L323.961 356.08Z" fill="#F5F5F5" stroke="black" stroke-linecap="round" stroke-linejoin="round"/>
<path d="M323.961 356.08L341.418 298.104C319.322 300.844 306.325 319.062 285.883 339.082C273.014 351.666 264.084 355.303 258.848 356.097L323.961 356.08Z" fill="black" stroke="black" stroke-linecap="round" stroke-linejoin="round"/>
<path d="M297 331C300.866 331 304 327.866 304 324C304 320.134 300.866 317 297 317C293.134 317 290 320.134 290 324C290 327.866 293.134 331 297 331Z" fill="#9D85F4"/>
<path d="M324.771 355.815H184.857V360.161H324.771V355.815Z" fill="#F5F5F5" stroke="black" stroke-linecap="round" stroke-linejoin="round"/>
<path d="M324.78 355.815H253.194V360.161H324.78V355.815Z" fill="black" stroke="black" stroke-linecap="round" stroke-linejoin="round"/>
<path d="M253.194 355.807L253.467 356.08H254.106C253.793 356.021 253.488 355.929 253.194 355.807V355.807Z" fill="black" stroke="black" stroke-linecap="round" stroke-linejoin="round"/>
<path fill-rule="evenodd" clip-rule="evenodd" d="M241.068 82.3856C240.661 86.9061 239.382 91.3187 238.178 95.6806C236.857 100.32 234.744 104.714 234.095 109.515C233.236 115.267 227.961 112.973 224.019 112.464C219.489 112.01 215.104 110.712 210.585 110.218C209.535 110.186 208.388 109.854 207.381 110.09C206.119 111.396 205.01 112.841 204.074 114.397C203.808 114.759 203.41 115.001 202.967 115.072C202.524 115.143 202.07 115.036 201.706 114.774C201.488 114.612 201.316 114.397 201.204 114.149C201.092 113.901 201.045 113.63 201.067 113.359C200.783 113.141 200.579 112.835 200.486 112.489C199.78 110.331 200.012 107.637 198.239 105.973C195.076 103.895 191.148 103.204 187.538 102.245C184.797 101.631 181.856 101.176 179.525 99.523C178.207 98.7045 178.304 97.246 178.844 95.9763C179.483 93.7701 180.026 91.5292 180.55 89.2923C181.826 83.6952 182.892 78.0599 183.947 72.4307C184.473 69.9204 185.062 67.3386 185.842 64.8694C185.957 64.5967 186.138 64.3574 186.37 64.1739C186.602 63.9904 186.876 63.8686 187.168 63.8199C187.459 63.7712 187.758 63.7972 188.036 63.8955C188.315 63.9937 188.564 64.1611 188.761 64.3819C190.231 64.1279 191.813 64.7515 193.279 64.9116C202.669 67.2663 212.046 69.7679 221.426 72.1908C227.801 74.0356 234.007 76.4184 240.265 78.568C242.926 79.081 242.579 81.8154 241.068 82.3856Z" fill="#F5F5F5"/>
<path fill-rule="evenodd" clip-rule="evenodd" d="M266.933 218.349C266.873 220.91 267.53 223.523 267.138 226.109C266.856 228.15 265.901 230.489 263.436 230.182C261.364 230.233 259.292 230.429 257.228 230.293C252.785 230.054 248.418 231.351 244.001 231.309C243.651 231.906 243.327 232.504 243.02 233.127C242.167 234.544 242.048 237.396 239.873 237.199C238.167 236.96 238.167 234.911 237.476 233.69C236.172 230.822 234.065 231.462 231.421 231.343C229.46 231.257 227.498 231.198 225.546 231.112C224.984 231.166 224.423 231.004 223.976 230.66C221.239 230.737 218.501 230.959 215.764 230.848C215.425 230.89 215.082 230.841 214.768 230.706C214.455 230.571 214.183 230.354 213.981 230.079C213.683 229.987 213.417 229.811 213.216 229.571C213.015 229.332 212.887 229.04 212.847 228.73C213.002 222.076 212.794 215.419 212.224 208.787C212.131 206.79 212.028 204.783 211.969 202.811C211.883 200.566 212.182 198.227 211.653 196.041C211.621 195.785 211.646 195.525 211.726 195.279C211.806 195.034 211.939 194.809 212.116 194.621C212.293 194.432 212.509 194.285 212.748 194.19C212.988 194.095 213.246 194.054 213.504 194.069C213.622 194.006 213.748 193.957 213.879 193.924C215.704 193.506 217.64 193.924 219.49 193.924C225.307 193.881 231.123 193.369 236.948 193.634C240.777 193.779 244.563 194.488 248.401 194.667C251.335 194.752 254.286 194.667 257.219 194.479C259.01 194.342 260.801 194.138 262.592 193.975C264.11 193.668 265.79 194.36 265.688 196.135C265.609 198.233 265.81 200.332 266.285 202.376C267.223 207.669 266.993 213.022 266.933 218.349Z" fill="#F5F5F5"/>
<path fill-rule="evenodd" clip-rule="evenodd" d="M209.66 214.527C209.112 213.11 209.984 211.84 210.607 210.622C212.438 206.964 214.432 203.382 216.498 199.863C218.653 196.227 220.808 192.592 222.919 188.931C223.919 186.905 225.223 185.044 226.785 183.412C226.785 183.412 226.997 183.171 227.038 183.235C226.424 184.538 226.092 185.969 225.478 187.272C223.032 192.303 219.897 196.955 217.094 201.784C215.71 204.119 214.37 206.481 213.137 208.896C212.509 210.122 211.855 211.342 211.265 212.59C210.913 213.363 210.363 214.03 209.672 214.524L209.66 214.527Z" fill="black"/>
<path fill-rule="evenodd" clip-rule="evenodd" d="M227.693 235.635C227.599 235.309 227.595 234.964 227.681 234.636C228.04 232.524 228.207 230.384 228.179 228.242C225.675 226.388 223.071 224.672 220.379 223.103C216.612 220.93 211.555 218.756 209.739 214.544C209.722 214.474 209.64 214.227 209.739 214.176C209.838 214.126 209.739 214.176 209.783 214.202C209.827 214.229 209.783 214.202 209.783 214.202C209.807 214.396 210.064 214.548 210.192 214.683C211.179 215.481 212.205 216.228 213.267 216.922C215.186 218.371 217.22 219.66 219.35 220.776C220.773 221.57 222.188 222.359 223.509 223.242C224.727 223.963 225.901 224.759 227.103 225.541C227.98 226.026 228.772 226.65 229.449 227.387C229.948 228.219 229.755 229.246 229.739 230.159C229.714 231.594 229.581 233.025 229.343 234.44C230.486 233.797 231.593 233.092 232.658 232.326C233.292 231.749 234.047 231.322 234.867 231.075C235.567 231.097 236.253 231.279 236.871 231.608C237.517 231.872 238.164 232.136 238.809 232.419C243.055 234.271 246.895 236.875 251.035 238.922C251.866 239.325 252.697 239.748 253.538 240.118C254.107 240.296 254.761 240.763 255.357 240.561C257.297 239.378 258.588 237.385 259.771 235.506C262.096 231.802 264.148 227.937 266.267 224.112C268.152 220.932 269.606 217.408 271.192 214.13C271.761 212.82 272.125 211.319 273.464 210.514C273.606 211.027 273.644 211.562 273.576 212.09C273.509 212.617 273.337 213.126 273.071 213.586C272.66 214.563 272.228 215.528 271.754 216.477C270.564 219.037 269.422 221.616 268.037 224.07C266.339 227.251 264.608 230.423 262.786 233.531C261.145 236.3 259.618 239.226 257.155 241.358C256.699 241.85 256.091 242.175 255.43 242.283C254.768 242.39 254.09 242.274 253.502 241.952C251.723 241.156 250.011 240.23 248.304 239.298C244.807 237.132 241.196 235.157 237.485 233.381C236.739 233.026 235.956 232.755 235.149 232.572C234.589 232.915 234.063 233.318 233.506 233.672C232.599 234.322 231.66 234.924 230.691 235.477C229.986 235.814 228.877 236.565 228.158 236.139C227.953 236.025 227.79 235.849 227.693 235.635Z" fill="black"/>
<path fill-rule="evenodd" clip-rule="evenodd" d="M227.171 215.458C225.937 214.647 224.631 213.605 224.195 212.116C224.141 211.696 224.215 211.269 224.406 210.891C224.968 209.614 225.615 208.377 226.344 207.187C227.719 204.866 228.724 202.335 230.268 200.115C230.893 199.244 231.616 198.442 232.219 197.559C232.226 197.513 232.251 197.471 232.288 197.442C232.319 197.39 232.391 197.503 232.413 197.516C233.123 197.004 234.037 197.486 234.728 197.826C235.69 198.305 236.628 198.834 237.536 199.411C238.775 200.146 240.037 200.844 241.317 201.493C244.38 203.15 247.629 204.61 250.53 206.507C251.55 207.161 252.62 207.746 253.662 208.364C255.626 209.38 257.48 210.595 259.196 211.991C259.951 212.657 259.83 213.429 259.363 214.234C258.745 215.495 258.123 216.744 257.526 218.018C256.749 219.631 255.974 221.256 255.174 222.856C254.115 224.685 252.794 226.35 251.254 227.797C251.024 227.997 250.743 228.129 250.442 228.179C250.142 228.228 249.833 228.194 249.551 228.078C248.631 227.646 247.746 227.142 246.906 226.57C245.674 225.839 244.451 225.114 243.238 224.396C239.262 222.138 235.266 219.899 231.226 217.732C230.211 217.22 229.205 216.693 228.222 216.11L227.166 215.484L227.171 215.458ZM246.796 205.981C244.78 204.935 242.748 203.929 240.723 202.848C237.898 201.392 235.1 199.723 232.352 198.204C231.936 200.145 231.21 202.007 230.204 203.719C229.135 205.973 227.908 208.144 226.647 210.304C225.65 211.986 225.423 212.119 226.96 213.556C228.764 214.854 230.679 215.989 232.682 216.948C238.589 220.062 244.444 223.314 250.19 226.7C251.029 225.954 251.759 225.094 252.358 224.145C253.538 222.397 254.556 220.546 255.399 218.613C256.322 216.739 257.371 214.919 258.279 213.036C256.255 211.404 254.047 210.016 251.7 208.898C250.966 208.463 250.233 208.028 249.499 207.593C248.978 207.285 248.465 206.98 247.944 206.672C247.569 206.4 247.191 206.186 246.796 205.981V205.981Z" fill="#9D85F4"/>
<path fill-rule="evenodd" clip-rule="evenodd" d="M232.635 185.183L233.369 185.617C235.797 187.057 238.325 188.327 240.767 189.744C246.918 193.45 252.86 197.34 258.923 201.161C262.641 203.435 266.168 206.031 270.03 208.062C271.31 208.712 272.902 209.338 273.315 210.883C272.163 210.91 271.036 210.553 270.111 209.867C266.445 207.922 263.103 205.465 259.641 203.194C252.127 198.393 244.714 193.404 236.917 189.08C235.053 188.045 233.175 187.031 231.337 185.951C230.361 185.373 229.343 184.849 228.319 184.351C227.851 184.148 227.359 184.006 226.854 183.93C226.49 183.977 226.133 184.073 225.794 184.214C227.355 181.964 230.588 183.92 232.635 185.183Z" fill="black"/>
<path fill-rule="evenodd" clip-rule="evenodd" d="M239.54 215.832C237.774 213.793 236.64 211.275 235.177 209.009C233.362 205.799 231.367 201.789 231.855 198.039C231.881 197.895 231.934 197.906 232.022 198.008C232.11 198.11 232.022 198.008 231.963 197.974C233.466 201.107 234.407 204.454 236.038 207.524C237.195 209.619 238.587 211.586 239.725 213.68C239.99 214.133 240.299 214.559 240.647 214.951C241.401 215.061 242.167 215.063 242.922 214.959C244.341 214.808 245.77 214.553 247.184 214.26C250.526 213.43 253.92 212.823 257.342 212.441C257.961 212.467 258.558 212.679 259.054 213.049C258.806 213.302 258.528 213.523 258.227 213.709C257.792 213.931 257.317 214.062 256.83 214.092C255.463 214.274 254.147 214.487 252.795 214.678C250.365 214.964 242.043 217.346 239.842 216.041C239.732 215.986 239.631 215.915 239.54 215.832V215.832Z" fill="#9D85F4"/>
<path fill-rule="evenodd" clip-rule="evenodd" d="M226.103 212.979C226.84 211.501 228.487 211.097 229.92 210.587C231.378 209.987 232.9 209.557 234.456 209.306C235.164 209.139 235.899 209.125 236.612 209.264C236.612 209.264 236.667 209.456 236.66 209.451C236.653 209.447 236.606 209.359 236.543 209.382C235.612 209.882 234.755 210.525 233.813 211.009C232.756 211.53 231.663 211.977 230.543 212.346C229.131 212.888 227.599 213.717 226.097 213.005L226.103 212.979Z" fill="#9D85F4"/>
<path fill-rule="evenodd" clip-rule="evenodd" d="M249.811 226.753C249.163 225.873 249.103 224.736 248.747 223.731C248.295 221.984 247.907 220.415 247.605 218.667C247.527 218.095 247.492 217.519 247.46 216.954C247.386 216.712 247.554 214.588 247.177 215.04C247.269 214.618 247.642 214.958 247.779 215.178C249.172 217.076 249.493 219.429 250.089 221.618C250.542 222.953 250.906 224.316 251.179 225.699C251.219 226.353 251.121 227.008 250.892 227.622L250.628 227.466C250.314 227.281 250.037 227.039 249.811 226.753V226.753Z" fill="#9D85F4"/>
<path fill-rule="evenodd" clip-rule="evenodd" d="M177.583 99.4574C176.957 98.1603 177.417 96.7631 177.759 95.476C178.814 91.5074 179.659 87.5006 180.67 83.5293C181.682 79.558 182.648 75.6896 183.719 71.7958C184.482 68.9246 184.998 65.8551 186.826 63.426C186.993 63.3642 186.881 63.6173 186.861 63.6915C186.536 66.4367 185.994 69.1519 185.241 71.8118C183.891 77.0889 182.387 82.3161 181.153 87.6238C180.55 90.2552 179.904 92.8838 179.277 95.5085C178.94 96.8764 178.746 98.468 177.583 99.4574Z" fill="black"/>
<path fill-rule="evenodd" clip-rule="evenodd" d="M201.471 116.487C200.804 116.142 200.635 115.382 200.495 114.682C200.354 113.982 200.129 113.268 199.916 112.576C199.372 110.664 198.555 108.84 197.491 107.161C196.987 106.497 196.255 106.045 195.437 105.891C194.41 105.573 193.382 105.256 192.382 104.867C188.798 103.481 185.083 102.449 181.539 100.942C180.367 100.353 179.239 99.6788 178.167 98.9234C178.167 98.9234 178.212 99.0503 178.204 99.0833C177.371 98.1994 180.834 99.1466 181.135 99.2441C184.779 100.407 188.334 101.838 191.989 102.96C193.964 103.459 195.884 104.153 197.721 105.031C198.576 105.656 199.266 106.479 199.731 107.43C200.901 109.684 201.789 112.074 202.375 114.546C203.436 113.569 204.409 112.5 205.281 111.352C205.888 110.404 206.661 109.574 207.564 108.902C208.43 108.671 209.342 108.687 210.199 108.949C211.308 109.191 212.409 109.466 213.524 109.718C216.432 110.367 219.342 111.07 222.241 111.585C224.636 112.036 227.076 112.384 229.474 112.757C230.719 112.92 232.133 112.978 232.955 114.071C232.981 114.107 233.01 114.141 233.042 114.173L232.94 114.226C231.628 115.176 230.02 114.589 228.566 114.414C225.602 113.945 222.649 113.434 219.719 112.805C216.237 112.127 212.862 110.982 209.37 110.31C209.107 110.214 208.819 110.212 208.555 110.302C208.29 110.392 208.064 110.57 207.914 110.806C207.21 111.697 206.55 112.617 205.897 113.415C205.002 114.325 202.833 117.273 201.471 116.487Z" fill="black"/>
<path fill-rule="evenodd" clip-rule="evenodd" d="M232.432 113.879C232.161 112.543 232.686 111.296 233.104 110.056C233.522 108.815 233.959 107.536 234.357 106.272C235.289 103.331 236.213 100.352 236.98 97.4024C237.97 93.3018 238.976 89.2055 239.999 85.1136C240.403 82.933 241.195 80.8425 242.337 78.9419C242.348 78.9006 242.406 78.8808 242.43 78.9226C242.432 78.9356 242.432 78.949 242.428 78.9618C242.425 78.9746 242.419 78.9865 242.411 78.9968C242.411 78.9968 242.389 79.0793 242.386 79.0876C242.151 81.8673 241.648 84.6179 240.883 87.3007C239.53 92.7889 238.3 98.31 236.609 103.708C235.815 106.298 234.996 108.88 234.171 111.452C233.921 112.428 233.459 113.533 232.432 113.879Z" fill="black"/>
<path fill-rule="evenodd" clip-rule="evenodd" d="M238.279 79.0026C229.872 76.1053 221.441 73.2634 212.917 70.7412C205.943 68.8255 198.852 67.4175 191.846 65.6878C190.167 65.3651 188.714 64.4576 187.096 64.0717C187.054 64.2284 187.121 64.4758 187.065 64.5847C187.005 64.3126 186.696 64.1155 186.791 63.8229C187.737 62.82 191.112 63.9025 192.344 64.2124C195.852 65.0919 199.379 65.8971 202.896 66.7435C212.754 69.0325 222.473 71.8816 232.007 75.2771C234.537 76.0822 237.082 76.8648 239.6 77.7195C240.277 77.9924 240.862 78.4545 241.284 79.0506C240.807 79.2514 240.294 79.3508 239.776 79.3425C239.259 79.3342 238.749 79.2185 238.279 79.0026V79.0026Z" fill="black"/>
<path fill-rule="evenodd" clip-rule="evenodd" d="M241.286 80.0407C241.128 79.6088 240.997 79.1669 240.896 78.7181C240.916 78.6438 240.998 78.6657 241.056 78.6811C241.114 78.6964 241.015 78.6701 240.994 78.7174C241.291 78.7972 241.556 78.9665 241.754 79.2024C241.952 79.4382 242.072 79.7292 242.099 80.036C242.097 80.1347 242.075 80.2318 242.033 80.3212C241.991 80.4105 241.93 80.4899 241.855 80.5542C241.727 80.5191 241.609 80.4543 241.51 80.3651C241.411 80.276 241.334 80.1648 241.286 80.0407V80.0407Z" fill="black"/>
<path fill-rule="evenodd" clip-rule="evenodd" d="M200.448 99.4437C198.99 99.0559 197.522 98.6659 196.08 98.1852C195.009 97.7326 193.607 97.5279 192.915 96.5135C192.47 95.6974 192.922 94.7929 193.258 94.0255C193.618 93.1939 194.226 92.4944 195 92.0237C195.224 92.6223 195.286 93.2697 195.18 93.9003C195.031 94.4613 194.742 94.9851 194.577 95.5066C198.197 97 201.97 98.0891 205.829 98.754C207.873 99.0323 209.974 99.7587 212.008 99.513C212.778 99.3379 212.359 98.723 212.305 98.1963C212.317 96.8215 214.185 97.0972 214.726 96.0926C215.183 95.2689 213.931 94.8655 213.336 94.6808C213.166 94.591 213.029 94.4491 212.945 94.2758C212.861 94.1026 212.834 93.9069 212.869 93.7173C212.967 93.081 213.611 92.9165 214.141 92.7834C215.48 92.424 214.543 91.7332 213.918 91.1961C213.293 90.659 212.606 90.123 213.143 89.3647C213.576 88.7643 214.387 88.6705 214.986 88.3086C216.229 87.6496 215.635 87.0943 214.66 86.6142C213.009 85.7867 208.49 86.3875 210.945 83.427C212.008 82.1815 213.164 80.8545 213.497 79.2029C213.521 78.7497 213.619 78.0161 213.098 77.8511C212.322 77.8481 211.576 78.595 211.039 78.9558C210.502 79.3165 209.908 79.8918 209.336 80.3845C206.358 83.4885 203.539 85.0273 199.129 84.3231C198.426 84.2776 197.481 83.8849 197.017 84.6008C196.919 84.7692 196.806 85.0305 196.95 85.1837C196.848 85.2009 196.701 84.9937 196.657 84.8937C196.561 84.6959 196.522 84.475 196.546 84.2563C196.57 84.0376 196.655 83.83 196.791 83.6574C198.156 82.174 200.688 82.8736 202.44 82.6237C204.083 82.3393 205.597 81.5501 206.773 80.3658C208.163 79.0246 209.668 77.8078 211.269 76.729C213.503 75.4322 215.522 76.7994 215.166 79.3639C214.904 81.2816 213.653 82.9013 212.505 84.3982C213.809 84.6036 215.212 84.7027 216.296 85.5385C218.483 87.0034 217.671 89.3935 215.438 90.2927C216.749 91.3037 217.336 93.1117 215.76 94.1944C217.493 95.7064 216.053 98.4684 214.042 98.7993C214.19 99.2874 214.144 99.8145 213.911 100.269C213.678 100.723 213.278 101.069 212.795 101.233C211.298 101.851 209.671 101.33 208.157 101.051C205.566 100.442 202.952 100.215 200.448 99.4437Z" fill="#9D85F4"/>
<path fill-rule="evenodd" clip-rule="evenodd" d="M86.4032 46.8939C84.3053 46.8939 81.8833 46.3049 80.7149 44.3925C79.9729 43.1034 80.0582 41.5411 79.9303 40.1239C79.8109 37.3493 79.6148 34.5833 79.3845 31.8087C78.8046 24.6631 79.0434 17.4833 79.0775 10.3206C79.1201 7.59719 78.8217 4.76284 79.8536 2.17606C79.8536 2.17606 80.0071 1.78335 80.0753 1.91141C80.1179 3.34566 80.442 4.70308 80.4676 6.12025C80.5443 11.2426 80.4676 16.2795 80.4676 21.3592C80.4676 26.4388 80.7576 31.2965 81.1925 36.248C81.4228 38.6214 81.3375 41.0716 81.9685 43.3851C83.5463 46.3134 87.6825 45.2548 90.4115 45.178C94.2406 44.9475 98.0869 44.5974 101.925 44.717C103.545 44.717 105.336 44.9645 106.487 46.2024C105.161 46.4415 103.805 46.4675 102.47 46.2793C100.969 46.2793 99.5025 46.2793 98.0101 46.3305C94.3174 46.4671 90.6332 46.9195 86.9234 46.9195L86.4032 46.8939Z" fill="black"/>
<path fill-rule="evenodd" clip-rule="evenodd" d="M110.402 56.6092C110.195 56.4909 110.026 56.3162 109.915 56.1056C109.426 55.4263 108.989 54.7098 108.611 53.9627C107.165 51.4182 105.998 48.7248 105.131 45.9292C105.131 45.8353 104.892 45.3145 105.063 45.5024C107.945 47.9184 109.054 51.6235 110.905 54.7652C112.346 52.3748 114.162 46.3048 117.028 45.6389C120.232 45.0133 123.497 44.7612 126.759 44.8877C128.063 44.8877 129.368 44.8877 130.673 44.8877C133.453 44.8877 136.225 44.8364 139.005 45.0157C140.199 45.0157 141.495 44.9474 142.468 45.7414C142.079 46.0754 141.625 46.3239 141.134 46.471C140.643 46.618 140.127 46.6603 139.619 46.5951C136.771 46.4073 133.948 46.2622 131.091 46.3475C130.528 46.3475 129.59 46.3475 128.456 46.3475C124.192 46.2707 117.207 46.1939 116.26 47.8415C115.338 49.1892 114.503 50.595 113.762 52.0504C113.122 53.3139 112.568 54.6115 111.902 55.8665C111.813 56.0951 111.664 56.2951 111.47 56.4455C111.276 56.5958 111.046 56.6908 110.802 56.7202C110.662 56.7169 110.524 56.6788 110.402 56.6092Z" fill="black"/>
<path fill-rule="evenodd" clip-rule="evenodd" d="M141.708 45.7585C141.819 45.1803 141.967 44.6099 142.152 44.0511C142.689 41.746 142.587 39.33 142.758 36.9737C143.056 31.194 143.013 25.3717 143.286 19.6432C143.397 15.2807 143.047 10.9182 143.286 6.5642C143.372 5.24093 143.858 3.94327 143.96 2.62854L143.9 2.6883C143.9 2.6883 143.9 2.58586 143.96 2.57732C144.02 2.56879 144.165 2.87613 144.173 2.92735C144.603 5.23148 144.764 7.578 144.651 9.91932C144.958 16.8088 144.497 23.7069 144.335 30.5964C144.267 33.7552 144.113 36.8884 143.951 40.0471C143.906 41.4752 143.786 42.9 143.593 44.3157C143.529 44.714 143.338 45.0809 143.05 45.3623C142.761 45.6437 142.389 45.8245 141.99 45.878C141.891 45.8516 141.796 45.8114 141.708 45.7585Z" fill="black"/>
<path fill-rule="evenodd" clip-rule="evenodd" d="M80.0838 3.52488C79.7512 2.85898 80.28 2.15893 80.8599 1.81744C82.5656 0.724681 84.6976 0.886886 86.642 0.681993C91.307 0.349042 96.0657 -0.111964 100.731 0.0246311C113.719 0.161226 126.673 0.203909 139.636 1.01494C140.873 1.22837 142.408 1.01495 143.346 2.0138C143.517 2.1902 143.632 2.41282 143.677 2.6541C143.723 2.89538 143.697 3.14471 143.602 3.37121C143.14 3.12007 142.617 3.00465 142.092 3.03826C140.557 2.78215 138.997 2.78215 137.453 2.58579C129.999 1.80891 122.503 1.80037 115.024 1.50156C110.24 1.31375 105.481 1.38205 100.705 1.23691C95.2502 1.26517 89.801 1.59292 84.3821 2.21869C83.2649 2.44066 80.2544 2.10771 80.118 3.49073L80.0838 3.52488Z" fill="black"/>
<path fill-rule="evenodd" clip-rule="evenodd" d="M102.01 35.9492C100.462 35.8976 98.9913 35.2634 97.8906 34.1735C96.8075 33.1405 96.509 31.1598 97.7541 30.1354C98.7775 29.4439 100.108 29.6061 101.285 29.5378C103.383 29.4097 105.549 29.5378 107.459 28.5731C108.072 28.2738 108.548 27.7517 108.79 27.1132C108.899 26.8073 108.904 26.4738 108.803 26.1648C108.703 25.8558 108.503 25.5889 108.235 25.4058C106.93 25.0032 105.548 24.9126 104.201 25.1411C102.129 25.2692 99.5365 26.7546 97.7541 25.1411C97.0693 24.205 96.6856 23.0824 96.654 21.9226C96.324 19.6185 96.3528 17.2771 96.7392 14.9818C95.8182 12.6512 98.5813 11.9426 100.338 11.7633C102.462 11.4048 104.602 11.3023 106.785 11.1316C108.969 10.9608 112.047 10.6193 113.77 12.1219C113.979 12.3106 114.143 12.5449 114.247 12.8067C114.352 13.0685 114.395 13.3508 114.374 13.632C114.352 13.9132 114.267 14.1857 114.124 14.4286C113.981 14.6714 113.784 14.8783 113.548 15.0331C111.668 15.5873 109.741 15.9674 107.792 16.1685C105.958 16.288 104.108 16.3478 102.274 16.4588C101.664 16.4623 101.057 16.5397 100.466 16.6893C100.466 17.9955 100.193 19.37 100.611 20.642C102.021 20.3988 103.445 20.2505 104.875 20.1981C107.147 20.0814 109.419 20.415 111.561 21.1799C112.603 21.6033 113.536 22.2583 114.288 23.0954C115.04 23.9325 115.592 24.9298 115.902 26.0119C116.294 27.9072 115.271 29.8024 114.069 31.194C112.364 33.1819 110.089 34.595 107.553 35.2406C106.118 35.7615 104.61 36.0497 103.084 36.0943C102.734 36.0957 102.383 36.0758 102.035 36.0346L102.01 35.9492ZM98.5984 31.6806C98.3084 32.3807 98.8457 33.0978 99.3574 33.5417C100.421 34.2769 101.689 34.6591 102.982 34.6345C105.921 34.5734 108.778 33.647 111.195 31.9709C115.314 28.9146 115.868 24.9191 110.811 22.58C108.419 21.8067 105.891 21.5421 103.391 21.8031C102.402 21.8799 101.447 22.2641 100.449 22.2726C98.9907 22.1531 98.7434 20.3774 98.7434 19.1992C98.641 15.3831 98.9651 15.0758 102.786 14.9989C106.146 14.8794 109.608 14.8367 112.798 13.6415C112.866 12.3097 108.696 12.5231 105.856 12.728C104.756 12.8134 103.86 12.8902 103.468 12.8902C101.852 12.9854 100.248 13.2254 98.6752 13.6073C97.9332 13.7354 97.6773 14.555 97.3447 15.1355C97.837 16.7642 98.0982 18.454 98.1208 20.1554C98.2914 21.4445 98.1208 22.9897 98.9225 24.0654C99.105 24.1903 99.3111 24.2766 99.5281 24.3192C99.7451 24.3618 99.9685 24.3597 100.185 24.313C101.617 24.1252 103.016 23.7154 104.449 23.5873C105.881 23.4593 107.681 23.2885 109.063 24.1081C111.365 25.6448 110.495 28.8121 108.312 30.0159C106.052 31.4074 103.195 31.2964 100.637 31.3818C100.421 31.3948 100.204 31.3948 99.9885 31.3818H99.7156C99.3248 31.3356 98.9301 31.4261 98.5984 31.6379V31.6806Z" fill="#9D85F4"/>
<path fill-rule="evenodd" clip-rule="evenodd" d="M122.699 27.0107C121.329 27.4459 119.857 27.4459 118.486 27.0107C116.482 26.2594 117.139 24.4496 118.64 23.5958C119.655 22.8958 120.917 22.9043 122.051 22.6397C121.898 21.0517 121.471 19.3699 122.153 17.8503C122.895 16.5014 124.26 17.5003 124.712 18.5333C125.151 19.4004 125.337 20.3738 125.249 21.342C125.414 21.769 125.518 22.2175 125.556 22.6738C127.594 21.9385 129.839 22.0335 131.807 22.9385C132.06 23.0457 132.278 23.22 132.439 23.4427C132.599 23.6653 132.695 23.9277 132.717 24.2014C132.739 24.475 132.686 24.7494 132.563 24.9949C132.44 25.2403 132.253 25.4474 132.021 25.5935C130.417 26.5412 128.447 26.5497 126.639 26.7461C127.492 28.573 126.699 32.8928 124.286 33.0294C122 32.6794 123.492 28.5218 122.691 27.0022L122.699 27.0107ZM123.262 25.7557C124.917 26.6692 124.038 30.0243 124.473 31.6123C124.85 31.1344 125.128 30.5866 125.292 30.0004C125.456 29.4143 125.502 28.8015 125.428 28.1974C125.155 27.0705 124.362 25.8326 126.068 25.4484C127.774 25.0642 129.641 25.2691 131.185 24.4154C130.526 24.0657 129.805 23.8502 129.063 23.7813C128.321 23.7124 127.572 23.7916 126.861 24.0142C126.187 24.1593 125.522 24.5947 124.823 24.3556C123.595 23.8263 123.748 21.692 124.345 20.7273C124.094 20.1815 123.773 19.6707 123.39 19.2077C123.347 20.1584 123.424 21.1108 123.62 22.0421C123.718 22.3311 123.738 22.6405 123.68 22.9398C123.621 23.2392 123.486 23.5182 123.288 23.7495C121.957 24.9276 119.979 23.9629 118.725 25.6277C119.367 25.9802 120.111 26.1008 120.832 25.9692C121.429 25.9094 122.043 25.6448 122.648 25.6448C122.858 25.6418 123.067 25.6795 123.262 25.7557V25.7557Z" fill="#9D85F4"/>
</g>
<defs>
<clipPath id="clip0_262_9594">
<rect width="345" height="366" fill="white"/>
</clipPath>
</defs>
</svg>
