<svg width="164" height="30" viewBox="0 0 164 30" fill="none" xmlns="http://www.w3.org/2000/svg">
<path d="M0.5 15C0.5 7.54416 6.54416 1.5 14 1.5C21.4558 1.5 27.5 7.54416 27.5 15C27.5 22.4558 21.4558 28.5 14 28.5C6.54416 28.5 0.5 22.4558 0.5 15Z" fill="black"/>
<path d="M15.9907 9.06008H14.6244C12.2823 9.06008 11.1112 10.2311 11.1112 11.9878C11.1112 13.9396 11.8919 14.9155 13.6485 16.0866L15.0148 17.0625L11.1112 23.1131H7.98828L11.6967 17.648C9.54973 16.0866 8.37864 14.7203 8.37864 12.183C8.37864 9.06008 10.5256 6.91309 14.6244 6.91309H18.7232V23.1131H15.9907V9.06008Z" fill="white"/>
<path d="M34.7159 4.95508V24.9996H38.2057V7.66614H44.4354V24.9996H47.9251V4.95508H34.7159ZM53.9707 10.4925H50.7982V29.1816H54.2303V23.298C55.0955 24.5958 56.3645 25.288 57.8354 25.288C61.181 25.288 63.4883 22.6058 63.4883 17.7316C63.4883 12.8863 61.2387 10.2041 58.0085 10.2041C56.3934 10.2041 55.0667 10.954 54.1438 12.3672L53.9707 10.4925ZM56.9702 22.5769C55.1532 22.5769 54.2303 21.1061 54.2303 17.7605C54.2303 14.3861 55.2109 12.9152 57.1433 12.9152C59.0179 12.9152 59.9408 14.3861 59.9408 17.7316C59.9408 21.1061 58.9602 22.5769 56.9702 22.5769ZM76.4855 15.1071C76.4855 11.5885 74.6973 10.2618 71.0634 10.2618C68.7849 10.2618 66.9968 10.9828 65.9585 11.5885V14.4438C66.8814 13.7516 68.9003 13.0017 70.6596 13.0017C72.3035 13.0017 73.0534 13.5785 73.0534 15.1359V15.9435H72.5054C67.2563 15.9435 64.9202 17.674 64.9202 20.6158C64.9202 23.5575 66.7084 25.2015 69.3617 25.2015C71.3806 25.2015 72.2459 24.5381 72.9092 23.846H73.0534C73.0822 24.2209 73.1976 24.7112 73.313 24.9996H76.6585C76.5432 23.8171 76.4855 22.6346 76.4855 21.4521V15.1071ZM73.0534 21.5387C72.6208 22.1733 71.8132 22.6923 70.6019 22.6923C69.1599 22.6923 68.4388 21.8271 68.4388 20.5292C68.4388 18.8276 69.6213 18.2219 72.5631 18.2219H73.0534V21.5387ZM87.7531 24.9996H91.6467L86.138 17.1837L90.9833 10.4925H87.5224L82.6771 17.1837V10.4925H79.245V24.9996H82.6771V17.8758L87.7531 24.9996ZM103.012 13.2036V10.4925H91.5047V13.2036H95.5425V24.9996H98.9746V13.2036H103.012ZM105.044 10.4925V24.9996H108.015L113.322 16.03V24.9996H116.667V10.4925H113.697L108.39 19.4621V10.4925H105.044ZM128.057 24.9996H131.951L126.442 17.1837L131.288 10.4925H127.827L122.981 17.1837V10.4925H119.549V24.9996H122.981V17.8758L128.057 24.9996ZM134.971 29.47C138.172 29.47 139.355 27.1915 140.335 24.2209L144.863 10.4925H141.547L138.345 21.3945L135.144 10.4925H131.539L136.528 25.6341C136.153 26.3263 135.605 26.7589 134.654 26.7589C134.019 26.7589 133.471 26.557 133.096 26.1821V28.9797C133.096 28.9797 133.615 29.47 134.971 29.47ZM158.538 24.9996H161.884L161.826 10.4925H157.125L153.981 20.1543L151.155 10.4925H146.165V24.9996H149.078V14.1553L152.222 24.9996H155.02L158.538 14.1553V24.9996Z" fill="black"/>
</svg>
