<svg width="227" height="355" viewBox="0 0 227 355" fill="none" xmlns="http://www.w3.org/2000/svg">
<g clip-path="url(#clip0_363_10401)">
<path fill-rule="evenodd" clip-rule="evenodd" d="M225.792 263.498C225.792 266.21 226.721 269.228 225.792 271.806C225.699 273.105 225.931 276.132 225.699 278.796C225.699 278.882 225.699 278.978 225.624 279.064C225.55 279.341 225.466 279.618 225.392 279.895C225.206 280.535 225.029 281.184 224.853 281.805L224.602 282.76C224.509 283.094 224.416 283.428 224.332 283.715C224.074 283.783 223.808 283.818 223.542 283.82C223.226 283.825 222.912 283.776 222.612 283.676C220.911 283.094 219.293 282.244 217.638 281.509C216.504 280.897 214.737 280.649 214.449 279.15C208.685 278.013 202.995 276.285 197.147 275.731C193.688 275.502 190.276 276.285 186.92 276.896H186.669C184.233 282.33 180.775 287.573 175.512 290.409C175.436 290.785 175.271 291.136 175.033 291.432C174.795 291.728 174.49 291.961 174.146 292.109C171.533 293.685 168.493 294.181 165.601 294.926C162.813 295.655 159.971 296.144 157.104 296.387C153.581 296.148 150.142 295.173 146.998 293.522C141.094 292.816 135.683 290.237 130.319 287.792C124.201 284.927 118.167 281.738 112.97 277.288C110.832 275.483 108.73 273.63 106.583 271.844C106.606 271.622 106.577 271.397 106.5 271.188C106.422 270.979 106.298 270.791 106.136 270.641C105.38 269.934 104.637 269.218 103.905 268.492C103.67 268.256 103.447 268.007 103.236 267.747L103.003 267.413V267.299C103.477 267.299 103.933 267.299 104.435 267.299C104.97 267.286 105.504 267.245 106.034 267.174C106.306 267.152 106.576 267.11 106.843 267.05L107.048 266.993C107.392 267.251 107.736 267.537 108.07 267.814C108.318 267.966 108.552 268.142 108.768 268.339C109.577 267.251 111.231 267.012 111.706 265.56C112.635 261.416 110.711 257.214 110.776 253.031C110.609 242.268 107.661 231.964 104.863 221.689C104.588 221.604 104.335 221.458 104.122 221.259C103.91 221.061 103.743 220.816 103.636 220.543C100.521 206.552 97.2856 208.309 110.655 201.347C116.233 198.339 121.607 194.281 124.926 188.723C126.07 186.545 129.259 187.949 128.887 190.279C128.887 191.234 128.961 192.189 129.017 193.068C129.357 193.552 129.733 194.009 130.142 194.433C133.861 199.208 140.229 197.871 145.454 197.805C148.699 196.525 152.427 196.076 155.356 193.88C157.541 192.762 158.368 188.579 161.222 189.391C161.685 189.632 162.059 190.022 162.287 190.501C162.515 190.98 162.586 191.522 162.487 192.046C162.813 192.752 163.179 193.437 163.584 194.099C165.22 198.081 168.186 198.253 171.886 198.664C176.21 199.313 180.486 200.202 184.81 200.822C188.273 201.276 191.627 202.37 194.711 204.05C195.196 204.252 195.584 204.641 195.793 205.134C196.001 205.627 196.014 206.184 195.827 206.686C195.722 206.952 195.56 207.19 195.353 207.383C196.031 208.042 196.673 208.749 197.342 209.293C199.332 209.169 207.671 217.143 211.288 222.835C212.808 224.767 214.191 226.81 215.425 228.946C215.853 229.679 216.253 230.423 216.625 231.181C219.437 235.24 221.396 239.854 222.379 244.732C222.736 245.57 223.047 246.428 223.309 247.301C224.778 252.525 225.28 258.035 225.792 263.498Z" fill="#F4AD7C"/>
<path fill-rule="evenodd" clip-rule="evenodd" d="M104.678 298.355C105.84 299.683 110.739 303.598 109.14 303.598C109.038 303.598 135.888 324.302 172.147 324.025C176.796 324.025 187.878 319.365 188.073 322.994C188.566 332.018 188.073 352.885 188.352 357.478C188.352 357.889 175.029 357.478 174.639 357.478C164.068 356.762 96.1427 356.113 94.4413 356.036C93.4558 356.141 93.995 303.016 94.0043 301.373C93.7068 298.718 93.1397 297.553 92.9072 295.767C92.9851 295.593 93.0293 295.405 93.0374 295.213C93.0374 294.077 93.0374 292.941 93.0374 291.804C93.0374 290.668 93.0374 289.799 93.0374 288.786C93.3906 288.565 93.8055 288.472 94.2163 288.52C94.6272 288.569 95.0106 288.756 95.306 289.054C96.3473 290.209 97.4536 291.298 98.56 292.387C100.559 294.421 102.716 296.331 104.678 298.355Z" fill="#F4AD7C"/>
<path fill-rule="evenodd" clip-rule="evenodd" d="M159.233 137.078C158.982 137.38 158.708 137.661 158.415 137.919C157.88 138.278 157.302 138.564 156.695 138.769C156.166 139.042 155.673 139.382 155.226 139.781C154.966 140.039 154.715 140.297 154.473 140.564L154.055 141.032C153.597 141.564 153.113 142.071 152.604 142.55C152.006 143.09 151.441 143.667 150.912 144.279C151.196 142.891 151.675 141.553 152.335 140.306C153.192 138.86 154.438 137.699 155.923 136.964C156.42 136.631 157.004 136.464 157.596 136.484C158.188 136.505 158.76 136.712 159.233 137.078Z" fill="black"/>
<path fill-rule="evenodd" clip-rule="evenodd" d="M154.966 142.263C154.464 141.814 154.222 141.079 153.692 140.668C153.692 140.726 153.692 140.668 153.692 140.668C154.06 140.566 154.448 140.575 154.811 140.693C155.174 140.812 155.496 141.035 155.738 141.337C155.891 141.49 155.994 141.687 156.034 141.903C156.074 142.118 156.048 142.34 155.961 142.54C155.786 142.583 155.603 142.58 155.429 142.532C155.255 142.483 155.096 142.391 154.966 142.263Z" fill="black"/>
<path fill-rule="evenodd" clip-rule="evenodd" d="M117.117 151.288C114.83 151.116 110.321 150.247 110.609 147.134C110.856 146.328 111.282 145.592 111.855 144.985C112.274 144.44 112.656 143.866 112.998 143.266C113.845 141.55 114.506 139.744 114.969 137.88C115.36 136.772 115.657 135.569 116.029 134.48C116.3 136.057 116.351 137.665 116.178 139.255C115.73 141.868 114.653 144.323 113.045 146.399C112.813 146.704 112.599 147.023 112.403 147.354C112.365 147.415 112.345 147.486 112.345 147.559C112.345 147.632 112.365 147.703 112.403 147.764C113.11 149.053 115.397 149.426 116.717 149.674C117.377 149.76 118.14 149.674 118.772 149.751L119.451 149.827C119.258 150.29 118.93 150.679 118.512 150.941C118.093 151.203 117.606 151.325 117.117 151.288Z" fill="black"/>
<path fill-rule="evenodd" clip-rule="evenodd" d="M120.157 161.449C118.667 161.221 117.3 160.468 116.289 159.32C116.15 159.119 116.289 158.985 116.559 159.148H116.484C116.484 159.148 116.568 159.148 116.55 159.148C117.401 159.317 118.268 159.39 119.134 159.367C120.186 159.468 121.244 159.468 122.295 159.367C123.818 159.149 125.262 158.535 126.488 157.582C126.949 157.156 127.44 156.767 127.957 156.417C128.417 156.157 128.93 156.017 129.454 156.006C129.463 156.178 129.463 156.35 129.454 156.522C129.343 158.088 127.864 159.005 126.739 159.826C124.799 161.144 122.469 161.719 120.157 161.449Z" fill="black"/>
<path fill-rule="evenodd" clip-rule="evenodd" d="M29.2953 162.718C28.3656 162.46 28.4492 161.4 28.6537 160.656C28.8583 159.911 28.9792 159.147 29.1931 158.411C29.9647 155.928 30.3644 153.34 31.2941 150.915C30.6619 149.96 31.2942 148.852 31.8334 147.993C32.4656 146.923 33.135 145.892 33.7951 144.841C36.4328 140.395 39.349 136.13 42.5252 132.073C44.7472 129.485 46.8577 126.792 49.0333 124.156C50.0986 122.901 51.2447 121.72 52.4639 120.623C53.3285 119.935 54.0258 118.655 55.253 118.713C56.0246 118.907 56.7193 119.34 57.2426 119.954C58.6279 121.263 59.8366 122.743 61.2312 124.042C62.0679 124.853 62.8302 125.426 63.6112 126.219C64.4294 127.174 63.4903 128.358 62.9046 129.179C59.8923 133.181 56.657 137.01 53.6819 141.04C51.7108 143.829 49.7863 146.656 47.7688 149.415C46.2999 151.44 44.7844 153.436 43.1202 155.308C42.6353 155.953 42.0437 156.506 41.3724 156.941C40.9373 157.198 40.4426 157.33 39.9406 157.323C39.9538 157.018 40.0038 156.717 40.0893 156.425C40.3463 155.689 40.7814 155.031 41.3538 154.515C42.1812 153.627 42.8877 152.748 43.6315 151.812C45.2399 149.797 46.7368 147.687 48.2058 145.576C50.9546 141.349 53.941 137.29 57.1497 133.42C58.786 131.357 60.6176 129.447 62.0773 127.241C60.9707 126.346 59.9123 125.389 58.9069 124.376C57.6425 123.087 56.5919 121.511 55.1137 120.48C53.654 121.988 52.1292 123.44 50.7346 125.016C48.5591 127.613 46.4207 130.23 44.2266 132.78C41.2462 136.53 38.4802 140.456 35.9427 144.535C34.9107 146.245 33.6742 147.84 32.8096 149.654C34.167 150.838 35.4128 152.128 36.7145 153.369C37.6442 154.4 40.7867 155.9 39.076 157.456C37.1168 159.01 35.004 160.348 32.7725 161.448C31.9312 161.907 31.0616 162.309 30.1692 162.651C29.9062 162.759 29.6178 162.782 29.3417 162.718H29.2953ZM32.2146 153.254C31.7312 155.823 31.0432 158.335 30.3552 160.837C32.8503 159.575 35.2495 158.123 37.5326 156.492C35.7037 155.172 33.9784 153.706 32.3726 152.108C32.3394 152.493 32.2867 152.876 32.2146 153.254Z" fill="black"/>
<path fill-rule="evenodd" clip-rule="evenodd" d="M64.811 128.721C64.466 128.678 64.1418 128.528 63.8813 128.291C63.7113 128.129 63.578 127.93 63.4908 127.709C64.1302 127.39 64.7349 127.003 65.2945 126.553C64.9921 125.543 64.5236 124.593 63.9092 123.746C63.1693 122.558 62.3057 121.456 61.3339 120.46C59.7813 119.152 58.0985 117.739 56.0996 117.299C55.0304 117.147 55.0676 117.882 54.9467 118.722C54.9467 119.143 54.5934 120.05 55.0676 120.25C54.268 120.48 53.4406 117.968 53.5521 117.29C53.6438 116.694 53.9608 116.159 54.4343 115.801C54.9078 115.443 55.4995 115.292 56.081 115.38C57.2572 115.55 58.3799 115.994 59.3629 116.679C60.7679 117.485 62.057 118.488 63.1933 119.658C64.4485 121.215 68.1116 125.655 66.9681 127.623C66.7475 127.998 66.4275 128.3 66.0454 128.495C65.6633 128.689 65.2351 128.768 64.811 128.721Z" fill="black"/>
<path fill-rule="evenodd" clip-rule="evenodd" d="M64.9136 122.876C64.7121 122.843 64.5133 122.796 64.3185 122.733C64.4337 122.291 64.6337 121.876 64.9066 121.514C65.1796 121.151 65.5202 120.848 65.9084 120.623C66.8335 119.984 67.6317 119.171 68.2605 118.226C68.6439 117.58 68.8635 116.845 68.8993 116.089C68.935 115.334 68.7858 114.581 68.4651 113.9C68.3297 113.56 68.1066 113.265 67.8198 113.046C67.5331 112.828 67.1937 112.693 66.8381 112.658C64.9614 112.449 63.0677 112.843 61.4178 113.785C60.3951 114.406 59.1493 114.845 58.4892 115.896C58.5101 115.926 58.5393 115.949 58.5729 115.962C58.5729 115.962 58.6565 115.962 58.6472 115.962C58.4892 115.962 58.3311 115.962 58.2939 115.81C58.3683 114.463 59.4282 113.403 60.4137 112.62C61.876 111.641 63.5617 111.072 65.3041 110.968C66.5467 110.796 67.8081 111.091 68.8556 111.799C69.6053 112.651 70.1102 113.701 70.3137 114.83C70.5172 115.96 70.4115 117.125 70.0084 118.197C69.3297 119.973 66.9125 122.991 64.9136 122.876Z" fill="black"/>
<path fill-rule="evenodd" clip-rule="evenodd" d="M36.0078 154.171C36.1287 152.749 37.1421 151.765 38.0253 150.781C40.0986 148.384 42.0789 145.911 44.0406 143.418C47.4899 139.035 50.8461 134.575 54.5464 130.421C56.2758 128.34 58.1832 126.423 60.2456 124.691C60.3107 124.634 60.4315 124.577 60.4966 124.691C60.5617 124.806 60.4966 124.691 60.4966 124.691H60.4409C59.7704 126.028 58.9929 127.306 58.1166 128.511C57.1869 129.619 56.2571 130.65 55.2623 131.72C52.4173 134.919 49.8328 138.309 47.1831 141.671C44.5334 145.032 42.1068 148.26 39.4013 151.402C38.4251 152.462 37.5604 153.942 36.0078 154.171Z" fill="black"/>
<path fill-rule="evenodd" clip-rule="evenodd" d="M33.1816 152.338C33.213 151.028 33.7321 149.781 34.6321 148.852C36.1754 146.618 37.7373 144.392 39.355 142.167C42.6065 137.533 46.085 133.07 49.7771 128.798C51.4089 126.83 53.1473 124.959 54.9837 123.192C55.4671 122.705 56.0249 122.313 56.4526 121.807C56.4586 121.801 56.4658 121.796 56.4738 121.792C56.4818 121.789 56.4904 121.787 56.4991 121.787C56.5078 121.787 56.5163 121.789 56.5243 121.792C56.5323 121.796 56.5395 121.801 56.5455 121.807C56.592 121.893 56.5456 122.027 56.4898 122.103C56.2894 122.606 56.0564 123.094 55.7925 123.564C54.621 125.4 53.2824 127.117 51.7947 128.693C47.583 133.573 43.5666 138.634 39.8292 143.925C38.3695 145.959 36.9191 147.993 35.5152 150.075C35.045 151.106 34.2108 151.915 33.1816 152.338Z" fill="black"/>
<path fill-rule="evenodd" clip-rule="evenodd" d="M26.0041 165.24C25.9483 165.24 25.9483 165.24 25.9297 165.163C25.8375 164.697 25.8944 164.213 26.0922 163.782C26.2899 163.352 26.6177 162.999 27.0268 162.776C27.5102 162.451 28.5144 161.687 29.0722 162.041C29.2953 162.27 29.0163 162.508 28.8769 162.699C28.1889 163.826 27.4916 165.392 26.0041 165.24Z" fill="black"/>
<path fill-rule="evenodd" clip-rule="evenodd" d="M115.759 55.4587C115.078 54.4608 114.563 53.354 114.234 52.1831C113.135 49.3072 112.247 46.3513 111.575 43.34C110.924 40.2172 110.171 37.1135 109.381 34.0193C108.591 30.9252 107.801 27.6019 106.843 24.4695C106.348 22.9498 106.112 21.3539 106.146 19.7519C106.146 19.5323 106.146 19.2458 106.294 19.0834C106.352 19.0644 106.414 19.0644 106.471 19.0834C106.053 19.0261 106.703 20.0384 106.703 20.1912C107.085 21.0412 107.447 21.872 107.754 22.741C109.018 26.6278 110.004 30.591 110.934 34.5732C112.365 39.7397 113.091 45.078 115.024 50.1203C115.443 51.2759 115.871 52.4314 116.363 53.5583C116.605 54.1886 116.884 54.6851 117.563 54.7329C119.738 54.7329 121.83 54.0358 123.931 53.5487C125.549 53.1476 127.232 52.7465 128.822 52.2595C133.173 50.8461 137.487 49.2895 141.94 48.2581C146.888 47.161 151.774 45.7838 156.574 44.1326C158.005 43.6551 159.474 43.2922 160.915 42.8529C161.659 42.6046 162.422 42.385 163.147 42.0889C163.285 42.0379 163.401 41.94 163.477 41.8114C163.553 41.6829 163.584 41.5314 163.565 41.3823C163.807 37.314 162.264 33.4368 161.259 29.5691C160.33 26.7042 159.53 23.7246 158.47 20.8788C156.825 16.419 154.547 12.2267 152.976 7.75736C150.829 7.9638 148.698 8.31794 146.598 8.81739C142.571 9.69665 138.6 10.8256 134.707 12.198C131.22 13.3058 127.724 14.3658 124.294 15.6455C120.184 17.0302 116.029 18.2813 111.826 19.3222C110.952 19.5896 110.116 19.9143 109.27 20.2772C108.505 20.544 107.68 20.5739 106.899 20.3631C107.262 19.7869 107.769 19.3217 108.368 19.0166C110.419 18.1873 112.534 17.5326 114.69 17.0589C120.603 15.5691 126.293 13.3058 132.113 11.5009C137.85 9.42413 143.734 7.80227 149.712 6.64958C150.89 6.35138 152.097 6.19436 153.31 6.18164C154.305 6.18164 154.64 7.29897 154.9 8.0916C155.309 9.22803 155.83 10.2117 156.248 11.3003C157.773 14.8911 159.372 18.4627 160.655 22.1585C161.529 25.0234 162.431 27.8215 163.175 30.6865C164.207 34.4109 165.425 38.2308 164.913 42.1462C164.504 43.9416 162.124 43.9893 160.739 44.5337C157.754 45.2881 154.909 46.501 151.962 47.3986C148.243 48.3727 144.543 49.3022 140.861 50.1872C137.477 50.9607 134.186 52.0303 130.913 53.1381C128.05 54.0931 125.13 54.7997 122.22 55.5446C120.342 55.8311 117.349 56.9484 115.759 55.4587Z" fill="black"/>
<path fill-rule="evenodd" clip-rule="evenodd" d="M114.215 21.0497C113.355 20.5168 112.642 19.7667 112.144 18.8707C111.646 17.9747 111.38 16.9627 111.371 15.931C111.185 14.1452 111.24 11.7578 113.128 10.9556C115.573 9.9242 118.074 11.6432 118.855 14.0688C119.028 14.7002 118.989 15.3732 118.743 15.9788C117.507 15.2434 117.125 13.7059 115.954 12.8655C115.644 12.6447 115.286 12.5057 114.912 12.4607C114.537 12.4158 114.157 12.4662 113.806 12.6077C112.719 13.238 113.109 15.3294 113.202 16.4276C113.295 17.5259 113.63 18.5954 113.918 19.665C114.038 20.214 114.28 20.727 114.625 21.1643C114.625 21.1643 114.346 21.107 114.215 21.0497Z" fill="black"/>
<path fill-rule="evenodd" clip-rule="evenodd" d="M126.079 17.1436C123.931 16.5038 122.871 14.0591 122.853 11.9008C122.769 10.3537 123.001 8.45332 124.526 7.69888C126.813 6.63885 129.277 8.83531 129.956 11.0031C130.109 11.5263 130.109 12.0843 129.956 12.6075C129.558 12.36 129.195 12.058 128.877 11.7098C128.078 10.879 127.576 9.60884 126.441 9.20775C123.513 8.25277 125.084 14.3742 125.447 15.7876C125.62 16.2615 125.851 16.7108 126.135 17.1245V17.1723L126.079 17.1436Z" fill="black"/>
<path fill-rule="evenodd" clip-rule="evenodd" d="M135.962 14.3744C135.074 13.7515 134.376 12.8823 133.95 11.8679C133.523 10.8536 133.386 9.7358 133.554 8.64453C133.861 6.73457 134.595 4.27072 136.706 3.75503C137.54 3.643 138.388 3.7361 139.18 4.02666C139.972 4.31722 140.685 4.79692 141.261 5.42624C141.631 5.75479 141.889 6.1959 141.998 6.68541C142.106 7.17491 142.06 7.68727 141.866 8.14794C141.057 7.57495 140.397 6.88736 139.653 6.23798C136.864 4.25162 135.795 6.14248 135.404 8.90237C135.329 10.7942 135.59 12.6842 136.176 14.4795C136.12 14.5368 136.008 14.4126 135.962 14.3744Z" fill="black"/>
<path fill-rule="evenodd" clip-rule="evenodd" d="M147.257 11.9597C146.492 11.631 145.829 11.0948 145.337 10.4085C144.846 9.72217 144.546 8.91157 144.468 8.06341C144.338 6.0102 145.166 3.4413 147.257 2.84921C147.658 2.70666 148.081 2.64814 148.504 2.67715C148.927 2.70615 149.339 2.82208 149.717 3.01805C150.095 3.21402 150.431 3.48603 150.705 3.81794C150.979 4.14985 151.185 4.53488 151.311 4.95017C151.449 5.46445 151.406 6.01209 151.19 6.49724C150.585 5.98545 150.017 5.43016 149.489 4.83557C147.694 3.35535 146.393 5.42766 146.225 7.17528C146.169 8.92142 146.64 10.6428 147.573 12.103C147.463 12.0668 147.358 12.0188 147.257 11.9597Z" fill="black"/>
<path fill-rule="evenodd" clip-rule="evenodd" d="M141.689 8.559C141.689 8.20566 141.336 7.83322 141.54 7.47032C141.745 7.10743 142.014 7.64222 141.977 7.88096C141.983 8.00908 141.96 8.13679 141.91 8.25431C141.86 8.37184 141.784 8.47606 141.689 8.559Z" fill="black"/>
<path fill-rule="evenodd" clip-rule="evenodd" d="M114.857 25.9117C118.046 23.5243 122.128 22.9704 125.865 21.9294C129.832 20.8853 133.805 19.8667 137.784 18.8735C140.378 18.1764 142.953 17.3551 145.575 16.7534C146.803 16.5051 148.02 15.9131 149.294 16.0659C149.677 16.1278 150.049 16.2435 150.401 16.4096C149.964 16.897 149.423 17.273 148.82 17.5079C145.529 18.2814 142.238 19.0645 138.984 19.9908C133.694 21.3278 128.422 22.7221 123.178 24.0877C120.498 24.9616 117.743 25.5724 114.95 25.9117C114.95 25.9117 114.857 25.9308 114.857 25.9117Z" fill="black"/>
<path fill-rule="evenodd" clip-rule="evenodd" d="M122.49 45.0875C121.686 44.3467 121.086 43.4013 120.751 42.3467C119.877 40.3412 119.022 38.3262 118.325 36.2443C117.339 32.9783 115.396 29.8746 115.535 26.3507C115.535 26.2934 115.535 25.7395 115.703 25.8923C115.87 26.0451 115.703 25.8923 115.703 25.8923C116.223 27.3248 117.153 28.6427 117.73 30.0847C118.566 32.1188 119.245 34.2198 119.97 36.3016C120.695 38.3835 121.551 40.3412 122.332 42.2225C122.557 42.8846 122.949 43.4741 123.466 43.9319C126.841 45.3071 137.179 41.8119 140.935 40.6755C144.691 39.539 148.503 38.3453 152.278 37.1993C152.836 37.0725 153.367 36.8462 153.849 36.5308C154.122 35.7744 154.154 34.9487 153.942 34.172C153.66 32.2667 153.193 30.3952 152.548 28.5854C151.897 26.4844 151.079 24.4503 150.279 22.4067C149.74 20.8214 148.42 19.1215 149.238 17.4121C150.456 18.157 150.846 19.6086 151.358 20.8882C152.176 22.9892 153.087 25.0615 153.728 27.2293C154.493 29.4303 155.038 31.7053 155.355 34.0192C155.653 35.6045 155.755 37.6195 153.914 38.1734C151.757 38.8896 149.517 39.434 147.406 40.0834C144.831 40.9715 142.116 41.7068 139.541 42.4804C135.803 43.6168 125.576 47.0834 122.49 45.0875Z" fill="black"/>
<path fill-rule="evenodd" clip-rule="evenodd" d="M117.33 31.0581C118.148 29.7307 122.36 29.0622 123.894 28.6229C129.231 27.2573 134.632 26.1877 139.96 24.803C142.563 24.144 145.175 23.5328 147.76 22.788C148.662 22.4587 149.647 22.4587 150.549 22.788C149.933 23.569 149.06 24.092 148.095 24.2586C145.203 25.0322 142.275 25.6815 139.365 26.4264C135.367 27.6106 131.276 28.3364 127.213 29.2914C125.177 29.8676 123.109 30.3204 121.021 30.6474C119.84 30.8575 118.585 30.7811 117.432 31.0485C117.432 31.0485 117.507 31.0963 117.516 31.1249C117.525 31.1536 117.339 31.1154 117.33 31.0581Z" fill="black"/>
<path fill-rule="evenodd" clip-rule="evenodd" d="M130.16 44.0846C129.075 43.3438 128.294 42.2185 127.966 40.9236C127.092 38.603 126.367 36.2251 125.716 33.8186C124.786 30.457 123.187 27.2101 123.122 23.6671C123.122 23.5907 123.122 23.2947 123.28 23.4475C123.438 23.6003 123.28 23.4475 123.224 23.4475C124.04 24.6533 124.75 25.9317 125.344 27.2674C126.368 30.1587 127.24 33.1043 127.957 36.0914C128.366 37.4188 128.886 38.7176 129.314 40.0355C129.742 41.3534 130.699 42.6808 130.16 44.0846Z" fill="black"/>
<path fill-rule="evenodd" clip-rule="evenodd" d="M25.6789 185.009C25.4 182.975 27.5383 182.144 28.7563 180.97C29.3792 180.32 30.2438 179.547 29.686 178.582C27.1385 173.97 21.6346 175.908 19.2545 172.508C17.9064 170.245 19.5149 167.829 21.365 166.502C22.5902 165.812 23.9495 165.411 25.3443 165.327C25.3164 165.265 25.2763 165.209 25.2268 165.163C25.1772 165.117 25.1192 165.082 25.056 165.06C25.1971 165.039 25.3412 165.055 25.4744 165.107C25.8463 165.203 25.8555 165.623 25.6138 165.871C24.0519 167.485 21.365 168.154 20.6119 170.493C20.4445 173.139 24.3959 172.967 26.0973 173.74C27.2914 174.164 28.4096 174.787 29.4071 175.584C31.2666 177.255 32.6332 179.461 30.718 181.686C29.938 182.613 29.0296 183.418 28.0219 184.073C27.3187 184.561 26.5181 184.881 25.6789 185.009Z" fill="black"/>
<path fill-rule="evenodd" clip-rule="evenodd" d="M141.239 125.901C141.318 125.942 141.379 125.995 141.418 126.054C141.457 126.112 141.473 126.176 141.464 126.239C141.454 126.302 141.421 126.363 141.366 126.416C141.31 126.47 141.235 126.515 141.145 126.548C140.504 126.747 139.779 126.824 139.065 126.77C137.305 126.724 135.544 126.662 133.775 126.707C130.735 126.752 125.304 126.707 125.454 124.947C125.454 124.856 125.454 124.776 125.755 124.566C127.007 123.936 129.134 124.146 130.81 124.169C132.937 124.267 135.043 124.491 137.098 124.839C137.755 124.942 138.4 125.073 139.027 125.231C139.819 125.381 140.566 125.607 141.239 125.901Z" fill="black"/>
<path fill-rule="evenodd" clip-rule="evenodd" d="M119.757 59.8034C119.636 59.1922 120.333 59.1253 120.752 58.9916C123.429 58.0367 126.2 57.1581 128.887 56.3177C131.574 55.4773 134.261 54.6178 136.938 53.7679C137.329 53.6342 137.868 53.3573 138.119 53.892C138.168 54.0213 138.165 54.165 138.111 54.292C138.057 54.419 137.956 54.519 137.831 54.5701C133.693 55.9548 129.556 57.1963 125.419 58.5333C123.727 59.068 122.081 59.7079 120.38 60.1949C120.247 60.2267 120.107 60.2034 119.99 60.1301C119.874 60.0569 119.79 59.9395 119.757 59.8034Z" fill="black"/>
<path fill-rule="evenodd" clip-rule="evenodd" d="M142.284 53.3287C141.819 52.3738 143.344 52.2687 143.893 52.0109C145.455 51.5047 147.063 51.1418 148.662 50.7598C149.108 50.6834 149.815 50.3301 150.001 50.9699C150.029 51.1039 150.007 51.2441 149.937 51.3614C149.868 51.4787 149.758 51.5642 149.629 51.6002C147.769 52.0204 146.012 52.4597 144.237 53.004C143.81 53.131 143.391 53.2841 142.981 53.4624C142.87 53.5348 142.737 53.5612 142.607 53.5364C142.478 53.5116 142.362 53.4374 142.284 53.3287Z" fill="black"/>
<path fill-rule="evenodd" clip-rule="evenodd" d="M63.4904 185.63C62.6722 185.219 63.695 184.169 63.8995 183.605C64.7084 182.125 65.573 180.664 66.4097 179.203C66.7351 178.763 66.949 177.742 67.6463 178.076C67.767 178.144 67.8563 178.259 67.8946 178.395C67.933 178.531 67.9173 178.677 67.8508 178.802C66.7631 180.797 65.5451 182.727 64.4853 184.742C64.2621 185.133 64.0575 185.849 63.4904 185.63Z" fill="black"/>
<path fill-rule="evenodd" clip-rule="evenodd" d="M55.9322 182.382C56.0158 180.138 56.0438 177.885 56.0809 175.64C56.0809 174.743 56.081 173.845 56.1554 173.005C56.1554 172.603 56.1554 172.126 56.3785 171.801C56.4353 171.736 56.5069 171.687 56.5869 171.658C56.6669 171.628 56.7527 171.62 56.8367 171.633C56.9207 171.646 57.0002 171.681 57.0679 171.734C57.1356 171.786 57.1893 171.856 57.2245 171.935C57.336 172.212 57.1687 172.527 57.2245 172.804C57.0664 176.013 57.1501 179.221 56.9827 182.43C56.9766 182.573 56.9154 182.708 56.8125 182.805C56.7096 182.901 56.5736 182.952 56.4342 182.946C56.2949 182.94 56.1637 182.877 56.0696 182.771C55.9754 182.665 55.926 182.526 55.9322 182.382Z" fill="black"/>
<path fill-rule="evenodd" clip-rule="evenodd" d="M47.8904 182.878C47.2396 181.359 46.6631 179.793 46.1053 178.227C45.9658 177.626 45.0826 176.145 46.1053 176.002C46.172 176.001 46.2383 176.013 46.3003 176.039C46.3623 176.064 46.4187 176.102 46.4663 176.15C46.5139 176.198 46.5517 176.255 46.5775 176.318C46.6033 176.381 46.6167 176.449 46.6167 176.518C46.7402 176.991 46.8892 177.456 47.0629 177.912C47.6115 179.45 48.1972 180.949 48.8108 182.458C48.8399 182.578 48.8269 182.704 48.7742 182.815C48.7214 182.926 48.6322 183.014 48.5223 183.065C48.4124 183.115 48.2888 183.124 48.1732 183.089C48.0577 183.055 47.9575 182.98 47.8904 182.878Z" fill="black"/>
<path d="M128.42 136.99C128.976 134.632 128.447 132.477 127.24 132.177C126.032 131.876 124.602 133.544 124.046 135.902C123.491 138.26 124.019 140.415 125.227 140.716C126.434 141.016 127.864 139.348 128.42 136.99Z" fill="black"/>
<path d="M111.482 134.978C112.038 132.62 111.51 130.465 110.302 130.165C109.094 129.865 107.665 131.533 107.109 133.891C106.553 136.249 107.082 138.404 108.289 138.704C109.497 139.004 110.927 137.336 111.482 134.978Z" fill="black"/>
<path d="M226.304 256.383C225.298 249.662 223.474 243.098 220.874 236.844C218.738 231.628 215.94 226.725 212.553 222.262C209.715 218.806 206.649 215.554 203.377 212.531C202.075 211.384 200.646 210.4 199.119 209.599V209.542C200.625 209.016 201.164 206.953 201.805 205.559C203.192 201.776 203.971 197.786 204.111 193.746C204.341 190.885 204.313 188.007 204.027 185.151C203.821 181.396 203.248 177.672 202.317 174.035C201.602 171.359 200.64 168.759 199.444 166.271C198.181 163.875 196.787 161.554 195.27 159.319C192.267 154.745 188.073 150.371 187.609 144.603C187.525 140.697 188.538 136.867 189.198 133.048C189.991 128.982 190.21 124.82 189.849 120.69C189.408 110.897 185.844 101.525 179.706 94.0174C176.315 90.0102 172.161 86.76 167.499 84.4676C162.64 82.252 157.258 81.5354 152.01 82.4048C152.614 80.9533 153.534 78.4035 152.512 77.0092C152.207 76.6954 151.806 76.5001 151.377 76.4565C150.948 76.413 150.518 76.5239 150.16 76.7704C148.489 78.006 147.031 79.5199 145.846 81.2493C145.241 80.0174 144.748 78.5754 143.568 77.7923C141.708 76.9233 141.011 79.3107 140.992 80.7814C140.972 81.4202 141.009 82.0596 141.104 82.6913C140.807 82.5072 140.496 82.3475 140.174 82.2138C138.079 81.4564 135.886 81.022 133.666 80.9246C128.752 80.4021 123.786 81.0189 119.135 82.7295C115.713 84.0423 112.499 85.8669 109.596 88.1443C105.711 91.2049 102.432 95.0007 99.936 99.3271C98.5684 101.451 97.3265 103.658 96.2171 105.936C95.1812 108.273 94.4077 110.724 93.9114 113.241C93.2161 116.965 93.1562 120.784 93.7347 124.529C94.0973 126.907 94.7574 129.218 95.2223 131.577C95.6 133.139 95.6665 134.763 95.4176 136.352C94.6552 139.551 92.9723 142.406 91.6149 145.357C89.3625 149.776 88.0326 154.629 87.7102 159.606C87.6055 164.581 88.8514 169.488 91.3082 173.777C93.0561 177.034 95.0829 180.166 96.245 183.719C97.3979 187.128 97.1096 190.853 96.4123 194.338C96.1381 195.599 95.9332 196.874 95.7987 198.158C95.7412 198.66 95.8285 199.168 96.0497 199.619C95.0442 199.308 94.0232 199.053 92.991 198.855C84.2517 197.069 75.5773 194.968 66.7915 193.498C61.6501 192.734 56.4995 192.113 51.3581 191.349C45.5752 190.642 39.7645 190.022 33.9538 189.678C32.0943 189.621 30.1419 189.678 28.236 189.678C25.3462 189.593 22.4781 190.215 19.8685 191.492C17.9161 192.447 17.3117 196.649 17.507 200.087C17.1153 199.831 16.6848 199.644 16.2332 199.533C15.8514 199.405 15.4472 199.364 15.0482 199.411C14.6492 199.458 14.2647 199.593 13.9213 199.807C13.5779 200.021 13.2835 200.309 13.0583 200.651C12.8332 200.992 12.6825 201.38 12.6166 201.787C12.5424 202.891 12.7141 203.998 13.1187 205.024C12.9472 205.259 12.8065 205.516 12.7003 205.788C11.5009 208.806 12.2819 212.11 13.7602 214.908C13.3883 215.806 13.6765 218.461 13.7602 219.206C14.1605 221.391 14.8915 223.498 15.9265 225.451C15.8984 225.619 15.8984 225.79 15.9265 225.958C16.5636 228.437 17.365 230.868 18.3251 233.235C18.9876 235.486 20.0638 237.587 21.4955 239.423C22.1534 240.427 23.0084 241.28 24.0057 241.925C24.1578 241.98 24.319 242.002 24.4799 241.992C24.2735 243.513 24.3175 245.06 24.61 246.566C24.8133 247.624 25.074 248.67 25.391 249.698C25.5316 250.07 25.7621 250.399 26.0605 250.653C26.1586 250.988 26.2959 251.308 26.4695 251.608C27.3992 253.394 29.8722 254.798 32.6986 255.896C32.7853 257.389 33.099 258.858 33.6283 260.251C34.4803 262.791 35.5024 265.267 36.6871 267.662C40.619 275.751 45.4586 283.341 51.1071 290.276C52.9939 292.354 54.9994 294.315 57.113 296.149C60.7854 298.794 64.0673 298.498 69.7665 299.014C75.6114 299.548 81.4624 300.074 87.3196 300.589L92.6748 301.067H92.9352C93.4651 301.115 93.8649 301.182 94.4134 301.229C94.4134 301.229 94.4692 299.501 94.4134 299.501C94.4134 298.756 94.4134 298.001 94.4134 297.295C94.4691 294.646 94.1561 292.003 93.4837 289.445C93.9764 289.846 94.4693 290.228 94.9713 290.6L96.0963 291.727C98.8017 294.411 101.526 297.094 104.194 299.825L104.891 300.446C105.683 301.139 106.518 301.778 107.392 302.356C108.415 303.082 109.456 303.789 110.46 304.553C115.676 308.373 120.873 312.336 126.638 315.277C131.243 317.533 136.007 319.429 140.89 320.95C148.464 323.144 156.268 324.385 164.133 324.645C170.995 324.925 177.864 324.341 184.587 322.907C188.344 322.244 192.036 321.244 195.623 319.918C197.931 318.995 200.145 317.84 202.233 316.471C202.912 316.022 203.618 315.592 204.325 315.143C204.739 314.959 205.139 314.745 205.524 314.503C207.01 313.668 208.404 312.669 209.68 311.524L211.307 309.986C212.098 309.184 212.851 308.344 213.566 307.475C215.745 305.017 217.636 302.305 219.201 299.396C221.734 294.313 223.723 288.962 225.132 283.438C226.128 278.987 226.676 274.443 226.768 269.877C227.021 265.374 226.865 260.857 226.304 256.383ZM128.134 192.648C128.388 193.457 128.825 194.193 129.408 194.797C132.067 197.394 136.372 198.617 139.988 198.674C143.345 198.728 146.687 198.199 149.871 197.108C151.454 196.612 153.007 196.019 154.52 195.331C155.937 194.616 157.231 193.668 158.35 192.524C158.722 192.032 158.904 191.416 158.862 190.795C159.066 191.005 159.261 191.215 159.457 191.435C161.223 193.632 162.06 196.477 163.929 198.597C163.135 198.934 162.422 199.442 161.837 200.087C158.868 202.698 155.405 204.649 151.666 205.817C146.491 207.643 140.927 207.973 135.581 206.772C130.89 205.946 126.498 203.846 122.863 200.689C121.666 199.663 120.8 198.287 120.381 196.745C120.571 195.99 120.923 195.288 121.413 194.692C122.501 193 123.747 191.42 125.131 189.974C125.713 189.163 126.506 188.537 127.418 188.169C127.418 188.551 127.418 188.933 127.418 189.315C127.289 190.477 127.541 191.65 128.134 192.648ZM102.483 146.398C102.697 143.61 104.728 127.284 104.765 125.451C106.29 125.011 106.767 124.116 108.769 124.116C109.801 123.725 114.263 125.176 114.775 124.116C114.775 123.497 111.631 122.485 110.104 122.114C108.737 122.047 106.751 122.333 104.901 122.485C104.784 121.013 104.579 119.549 104.287 118.102C107.792 117.902 111.167 116.622 114.514 115.724C116.876 115.006 119.187 114.122 121.431 113.079C122.974 112.441 124.433 111.607 125.773 110.596C127.215 109.644 128.396 108.329 129.204 106.776C130.044 108.413 131.221 109.844 132.653 110.968C135.358 113.423 138.891 114.511 142.424 114.951C143.136 114.987 143.845 115.077 144.544 115.218C145.018 115.629 145.102 116.364 145.344 116.927C145.585 117.491 145.706 118.102 145.874 118.685C147.054 122.82 148.858 126.955 151.982 129.953C152.539 130.562 153.205 131.054 153.943 131.405L153.823 131.481C152.874 132.061 152.067 132.857 151.464 133.807C150.861 134.757 150.479 135.837 150.345 136.963C150.332 137.09 150.332 137.218 150.345 137.345C151.424 136.044 152.599 134.831 153.86 133.716C154.581 133.032 155.469 132.56 156.429 132.35C157.389 132.14 158.387 132.2 159.317 132.522C160.628 133.143 160.954 134.766 161.316 136.065C161.725 138.635 161.181 141.269 159.791 143.447C158.322 145.481 156.342 147.382 153.869 147.955C152.54 148.251 151.201 147.697 149.853 147.897C149.913 148.493 150.182 149.046 150.61 149.454C151.037 149.861 151.594 150.095 152.177 150.113C152.487 150.131 152.797 150.131 153.107 150.113C151.247 152.529 150.569 155.661 149.89 158.631C149.509 160.255 149.165 161.888 148.877 163.54C148.469 165.977 148.317 168.452 148.421 170.922C148.642 173.457 149.113 175.962 149.825 178.4C150.472 181.29 151.797 183.975 153.683 186.221C155.152 187.653 156.835 188.847 158.332 190.26C157.808 190.436 157.324 190.718 156.909 191.091C156.602 191.387 156.361 191.741 156.035 192.046C154.407 193.445 152.504 194.468 150.457 195.045C142.396 197.757 135.749 198.12 128.813 192.514C129.297 191.763 129.498 190.857 129.38 189.964C129.38 188.828 129.324 187.701 129.222 186.565C129.022 183.674 128.346 180.839 127.223 178.18C126.883 177.464 126.469 176.789 125.987 176.165C127.106 175.967 128.207 175.673 129.278 175.286C133.259 173.778 136.948 171.557 140.174 168.726C142.301 166.982 144.265 165.038 146.041 162.919C146.896 161.792 147.659 160.637 147.435 159.099C146.687 159.431 146.043 159.97 145.576 160.656C143.943 162.915 142.052 164.964 139.942 166.758C136.257 170.319 131.793 172.92 126.926 174.341C126.331 174.484 125.726 174.627 125.113 174.742C125.117 174.728 125.124 174.716 125.134 174.706C125.143 174.696 125.155 174.689 125.169 174.685C125.113 174.685 125.076 174.685 125.048 174.761C122.972 175.211 120.838 175.295 118.735 175.009C115.834 174.562 113.056 173.495 110.581 171.877C107.656 169.756 105.395 166.806 104.073 163.387C102.093 158.039 102.121 152.128 102.483 146.398ZM97.1655 203.143L97.37 202.981C98.2997 204.146 99.0249 205.999 99.8151 209.236C101.275 214.966 102.93 220.696 104.389 226.426C105.394 229.615 106.249 232.843 106.946 236.109C108.614 242.322 109.74 248.676 110.312 255.094C110.479 257.071 110.721 259.048 110.879 261.025C110.953 262.419 111.279 263.889 110.823 265.236C110.734 265.444 110.615 265.637 110.47 265.809C110.496 265.016 110.443 264.222 110.312 263.441C110.116 261.903 109.949 260.337 109.717 258.809C109.019 254.588 108.517 250.329 107.56 246.155C104.65 233.836 101.247 221.622 97.6117 209.503C97.1201 207.585 96.3322 205.76 95.2781 204.098C95.953 203.899 96.5909 203.586 97.1655 203.172V203.143ZM21.9697 192.82C25.3724 191.464 29.1843 191.722 32.773 191.655C37.2357 191.779 41.6797 192.285 46.1331 192.61C51.8974 193.23 57.6709 194.147 63.4445 194.892C72.0165 196.143 80.5978 198.101 89.0582 200.011C93.0281 200.889 95.2502 201.09 96.7656 202.341C96.5425 202.398 96.3379 202.446 96.1613 202.475C95.1457 202.636 94.1207 202.725 93.0933 202.742C90.8341 202.408 88.6678 201.577 86.4458 201.033C81.6391 199.619 76.6651 199.123 71.7654 198.168C62.0616 196.089 52.2397 194.641 42.3584 193.832C39.1136 193.526 35.8503 193.23 32.6149 193.049C30.9321 192.906 29.1656 192.677 27.3806 192.667C25.8372 192.667 24.2939 192.743 22.732 192.772L21.9138 192.82H21.9697ZM16.2146 201.415C16.7973 201.745 17.3349 202.153 17.8137 202.627C17.5475 202.508 17.2976 202.354 17.07 202.169C17.0635 202.157 17.06 202.144 17.06 202.131C17.06 202.117 17.0635 202.104 17.07 202.093C17.066 202.112 17.066 202.131 17.07 202.15C17.2631 202.612 17.5198 203.043 17.8323 203.43L18.3065 204.117V204.175C18.4642 204.449 18.6582 204.7 18.8829 204.919C19.8126 206.113 20.7889 207.25 21.6721 208.462C22.3136 209.417 27.9291 216.599 25.6606 216.876C21.8116 216.608 16.8376 209.236 15.2292 205.893C14.6978 204.715 14.3827 203.446 14.2995 202.15C14.5133 201.233 15.4244 201.09 16.2146 201.443V201.415ZM13.7044 209.331C13.6208 208.176 13.3419 206.963 13.3697 205.769C13.5278 206.17 13.7044 206.562 13.881 206.944C15.6289 210.153 18.883 215.185 22.4066 217.449C22.7041 217.926 23.0202 218.404 23.3363 218.891C23.9871 220.142 25.0284 221.994 24.266 223.379C22.2207 222.94 19.7755 220.209 18.3437 218.604C16.0659 216.112 14.067 212.922 13.7044 209.36V209.331ZM15.8986 221.45C15.4802 220.18 15.1734 218.881 14.7271 217.63C14.4761 216.876 14.1693 216.14 13.9648 215.376C14.2494 215.883 14.5597 216.374 14.8945 216.847C16.5772 219.415 18.667 221.674 21.0771 223.532C21.1521 223.706 21.2424 223.872 21.3467 224.029C21.5698 224.334 21.8116 224.64 22.044 224.936C23.3018 226.32 24.1528 228.042 24.4985 229.902C24.4985 230.456 24.6287 231.143 24.1917 231.554C23.262 232.089 20.2776 228.994 19.6547 228.202C18.0131 226.215 16.74 223.937 15.8986 221.479V221.45ZM15.9636 225.547C16.0999 225.814 16.2488 226.082 16.41 226.349C16.2445 226.102 16.0953 225.843 15.9636 225.576V225.547ZM24.4519 240.483C23.2432 239.38 22.2082 238.092 21.3839 236.663C20.4542 234.858 19.8406 232.843 19.0224 230.933C18.6564 229.993 18.2212 229.083 17.7208 228.211C18.8549 229.86 20.2616 231.292 21.8767 232.442C21.9687 232.744 22.0966 233.032 22.2578 233.301C23.1596 235.269 24.8796 238.43 24.4519 240.512V240.483ZM28.6079 251.742C28.0432 251.054 27.5795 250.285 27.2318 249.46C27.2275 249.17 27.1774 248.883 27.0831 248.61C26.7574 247.05 26.3382 245.513 25.828 244.007C25.5863 243.319 25.2515 242.651 25.0656 241.944C25.2638 241.841 25.4383 241.695 25.5778 241.517C25.7172 241.34 25.8183 241.134 25.8744 240.913C26.3858 238.649 25.233 235.613 24.0615 233.321C24.3219 233.311 24.5773 233.244 24.81 233.124C25.0427 233.003 25.2472 232.833 25.4096 232.623C26.8971 230.838 25.8094 227.581 24.7495 225.795C24.5733 225.51 24.3808 225.236 24.1731 224.974C26.609 224.974 26.3207 221.106 25.4932 219.416C25.391 219.139 25.2794 218.872 25.1678 218.604C25.7454 218.727 26.3469 218.613 26.8438 218.287C27.3406 217.96 27.6934 217.447 27.8268 216.857C27.9231 215.887 27.7354 214.909 27.2876 214.049C26.1033 211.77 24.7019 209.617 23.1039 207.622C22.097 206.187 20.9019 204.901 19.5524 203.802C19.5524 203.802 19.5524 203.754 19.5524 203.726C19.5479 203.688 19.5479 203.649 19.5524 203.611C19.6552 203.175 19.6358 202.718 19.4966 202.293V201.787C19.3013 200.087 19.3013 198.369 19.4966 196.668C19.5824 195.981 19.7286 195.304 19.9335 194.644C20.2758 194.664 20.619 194.622 20.947 194.52C22.1184 194.348 23.1876 194.348 24.4241 194.262C27.4089 194.147 30.3979 194.253 33.368 194.577C36.1572 194.72 38.8998 194.968 41.6704 195.226C51.557 196.008 61.3854 197.434 71.0961 199.495C74.378 200.116 77.6971 200.555 80.9604 201.252C84.8001 202.045 88.7608 203.22 92.6005 204.241C93.4331 204.386 94.2863 204.344 95.1014 204.117C95.2848 206.221 95.6869 208.299 96.3008 210.315C99.6571 221.985 103.236 233.588 106.026 245.42C107.29 250.902 107.959 256.507 108.74 262.075C108.843 263.03 108.945 263.985 109.057 264.94C109.077 265.436 109.2 265.921 109.419 266.363C108.288 266.444 107.153 266.425 106.026 266.306C105.226 266.306 104.436 266.306 103.627 266.306C103.506 266.306 103.385 266.306 103.264 266.306C103.125 265.943 102.995 265.561 102.865 265.198C101.934 262.84 101.155 260.422 100.531 257.959C99.5695 254.13 98.0758 250.464 96.0963 247.072C94.8334 245.126 93.3649 243.329 91.7173 241.715C90.2855 240.263 86.9571 237.694 86.5573 241.361C86.3807 243.357 87.078 245.286 87.5986 247.177C88.0961 248.773 88.3838 250.431 88.454 252.105V252.239C88.1751 251.828 87.8776 251.417 87.5243 251.016C85.5254 248.772 83.5915 246.471 81.5182 244.331C79.9563 242.765 78.3385 241.256 76.7487 239.719C74.629 237.656 72.5557 235.546 70.4638 233.445C69.5608 232.386 68.5225 231.458 67.3772 230.685C66.9641 230.428 66.5062 230.256 66.0291 230.179H65.3318C64.9939 230.232 64.6814 230.395 64.4405 230.645C64.1995 230.894 64.0427 231.216 63.993 231.563C63.894 232.027 63.8658 232.504 63.9093 232.977C63.7438 232.743 63.557 232.525 63.3515 232.327C62.1615 231.172 60.8041 231.678 60.1905 233.139C60.1373 233.305 60.0938 233.474 60.0603 233.645V235.269C60.1279 235.694 60.218 236.114 60.3299 236.529C60.1183 236.307 59.8533 236.145 59.5616 236.06C59.2699 235.976 58.9618 235.972 58.668 236.048C58.3742 236.124 58.105 236.279 57.8876 236.496C57.6702 236.713 57.5122 236.984 57.4292 237.284C56.6575 239.413 57.6059 241.734 58.3589 243.749C58.4333 243.921 58.5077 244.093 58.5914 244.255C58.2074 244.555 57.8983 244.944 57.6898 245.391C57.4813 245.838 57.3792 246.329 57.392 246.824C57.392 248.734 58.6471 250.271 59.5582 251.828C60.897 253.853 62.3474 255.81 63.6955 257.797C64.7926 259.267 65.9361 260.662 67.1075 262.104C65.9733 261.808 64.7833 261.674 63.6676 261.359C60.8784 260.681 58.0149 260.222 55.1792 259.668C52.3436 259.115 49.3685 258.437 46.4585 257.844C41.3729 256.87 32.5127 255.323 28.6079 251.771V251.742ZM92.554 295.853C92.6144 296.982 92.6144 298.114 92.554 299.243C92.554 299.243 92.554 299.3 92.554 299.329C81.7258 298.342 70.8791 297.362 60.0137 296.388H59.8279C58.2566 295.07 56.7597 293.666 55.2629 292.262C53.853 290.927 52.5503 289.477 51.3674 287.926C48.35 284.161 45.609 280.171 43.1672 275.989C40.842 272.156 38.7432 268.182 36.8823 264.09C35.9526 261.913 35.2089 259.63 34.2978 257.405C34.1583 257.061 34.0003 256.727 33.8422 256.45C37.2178 257.541 40.6508 258.433 44.1249 259.124C48.7735 260.079 53.3198 261.091 57.9312 261.989C58.0706 262.323 58.238 262.648 58.396 262.944C60.2555 266.477 63.5375 268.855 66.4847 271.357C70.5104 274.662 74.8521 277.813 79.7982 279.389C80.5369 279.556 81.3081 279.479 82.0017 279.169C81.7599 278.94 81.4903 278.711 81.2207 278.491C80.9111 278.249 80.57 278.053 80.2074 277.909C78.8982 277.415 77.6191 276.841 76.3769 276.19C73.9451 274.837 71.6335 273.268 69.469 271.501C67.0704 269.591 64.6995 267.681 62.4589 265.57C61.2968 264.405 60.209 263.288 59.0097 262.19L61.4362 262.658C63.5095 263.068 65.5457 263.727 67.6375 264.061C67.9838 264.091 68.3324 264.062 68.6695 263.975C71.1612 266.888 73.7272 269.705 76.2002 272.656C78.2921 275.12 80.7093 277.259 82.9221 279.608C85.1348 281.958 87.3569 284.001 89.6905 286.064C90.6202 287.019 91.6429 287.869 92.647 288.719C92.4058 291.099 92.3746 293.496 92.554 295.881V295.853ZM218.224 297.543C215.659 302.536 212.246 307.018 208.146 310.779L207.635 311.237L207.505 311.333C207.161 311.639 206.807 311.925 206.445 312.212C202.326 314.828 198.152 317.454 193.54 319.049C189.018 320.451 184.395 321.486 179.715 322.143C175.216 322.892 170.661 323.227 166.104 323.146C160.591 322.989 155.095 322.434 149.657 321.484C144.222 320.412 138.903 318.79 133.778 316.643C125.606 313.558 118.372 308.449 111.465 303.111C110.423 302.299 109.335 301.544 108.266 300.761C107.271 300.052 106.312 299.291 105.393 298.479C101.405 294.554 97.528 290.533 93.3907 286.78L90.6016 284.145C89.8198 283.295 88.9132 282.576 87.9147 282.015C86.8455 281.06 85.7949 279.981 84.8001 278.892C82.6711 276.562 80.3468 274.432 78.2271 272.093C75.7168 269.228 73.1973 266.363 70.7893 263.45C68.661 261.078 66.668 258.581 64.8204 255.973C63.0168 253.289 60.9714 250.749 59.5954 247.779C59.2822 247.074 59.1478 246.298 59.2049 245.525C59.2088 245.478 59.2088 245.43 59.2049 245.382C60.6507 248.148 62.3572 250.761 64.2997 253.184C65.3989 254.631 66.5753 256.015 67.8234 257.329C68.4935 258.234 69.4563 258.864 70.5382 259.105C70.2965 257.338 68.6788 256.297 67.7491 254.97C66.8752 253.929 66.0105 252.84 65.1644 251.742C63.1283 249.231 57.3641 240.731 59.1492 237.628C59.9701 237.866 60.7145 238.324 61.3061 238.955C62.4408 241.286 63.7527 243.521 65.2295 245.64C66.8671 248.136 68.6786 250.508 70.6498 252.735C71.6446 253.834 72.5093 255.199 74.0526 255.533C73.8295 253.767 72.3233 252.668 71.2635 251.322C69.4006 249.095 67.683 246.744 66.1221 244.284C64.4672 241.524 62.4683 238.802 61.8454 235.565C61.768 235.11 61.7183 234.651 61.6966 234.19C61.7246 233.874 61.8673 233.581 62.0963 233.368C62.2916 233.244 62.5799 233.483 62.7844 233.55C63.2865 233.836 63.7699 234.132 64.2533 234.447C65.025 237.484 67.3772 240.97 68.7625 243.042C70.5088 245.525 72.4996 247.816 74.7034 249.88C75.4545 250.747 76.3142 251.508 77.2601 252.143C77.5852 252.296 77.9248 252.415 78.2735 252.497C78.1265 251.789 77.8065 251.132 77.3438 250.587C75.5401 248.677 73.6249 246.767 71.9049 244.771C70.0455 242.536 64.2255 234.552 65.5736 231.754H65.6293H65.6943C66.702 231.99 67.5971 232.581 68.2233 233.426C70.2872 235.507 72.3605 237.57 74.3966 239.681C77.5391 242.803 80.8024 245.783 83.6938 249.164C85.2808 251.093 87.106 252.801 89.1234 254.244C89.3044 254.532 89.5342 254.784 89.802 254.989L89.9415 254.712C90.0166 254.74 90.0988 254.74 90.1739 254.712C90.1059 254.682 90.0454 254.636 89.9972 254.578C90.1324 254.299 90.2355 254.004 90.3041 253.7C90.3972 253.179 90.3972 252.645 90.3041 252.124C90.2588 250.592 90.0149 249.073 89.5789 247.607C89.0397 245.573 88.0076 243.529 88.2587 241.381C90.3226 242.45 91.8567 244.322 93.4 246.05C95.4616 248.758 96.9958 251.848 97.9185 255.151C98.6344 257.31 99.2201 259.506 99.8338 261.703C100.254 263.696 101.095 265.57 102.298 267.194C102.855 268.693 104.157 269.715 105.17 270.909C107.452 273.23 109.858 275.421 112.376 277.469C118.54 282.244 124.75 287.067 131.9 290.161C140.49 293.427 149.379 296.779 158.648 296.789C169.117 296.98 180.208 292.014 185.405 282.359C186.173 280.833 186.796 279.233 187.265 277.584H187.451C189.766 277.584 192.099 277.116 194.396 277.259C201.424 277.585 208.363 279.014 214.97 281.499C217.086 282.233 219.141 283.14 221.116 284.211C221.773 284.468 222.484 284.547 223.18 284.441C221.925 288.965 220.266 293.361 218.224 297.572V297.543ZM225.067 271.587C224.881 274.821 224.49 278.04 223.896 281.222C223.672 282.254 223.421 283.295 223.143 284.317C222.958 283.692 222.63 283.122 222.184 282.657C221.739 282.191 221.191 281.843 220.586 281.643C219.325 280.983 218.016 280.424 216.672 279.971C214.189 279.083 211.716 278.109 209.16 277.479C202.651 275.951 195.874 274.614 189.198 275.569C188.657 275.683 188.122 275.833 187.599 276.018C188.945 269.61 188.767 262.963 187.079 256.641C186.719 255.455 186.149 254.347 185.396 253.375C185.34 253.318 185.256 253.194 185.173 253.175C185.289 253.479 185.346 253.803 185.34 254.13C185.424 255.342 185.461 256.641 185.647 257.864C186.005 259.644 186.275 261.441 186.456 263.25C186.917 267.918 186.526 272.633 185.303 277.154C185.164 277.248 185.031 277.35 184.903 277.46H185.21C184.611 279.415 183.757 281.278 182.672 282.999C176.303 292.615 164.18 296.025 153.376 294.458C146.934 293.373 140.625 291.577 134.559 289.101C131.597 288.001 128.737 286.63 126.015 285.004C123.62 283.594 121.316 282.028 119.116 280.315C116.615 278.491 114.105 276.696 111.771 274.643C110.46 273.468 109.122 272.312 107.801 271.147C106.481 269.982 105.17 268.559 103.711 267.432C103.676 267.361 103.645 267.288 103.618 267.213C105.171 267.976 106.862 268.398 108.582 268.454C111.846 268.569 113.231 266 112.989 262.954C112.878 260.91 112.608 258.876 112.394 256.832C112.046 252.389 111.45 247.97 110.609 243.596C109.977 240.674 109.308 237.866 108.61 235.001C107.913 232.136 107.178 229.08 106.277 226.168C105.375 223.255 104.798 220.438 103.971 217.573C103.041 214.145 102.232 210.687 101.331 207.259C101.786 207.199 102.237 207.104 102.679 206.973C104.017 206.295 105.226 205.063 106.546 204.289C108.185 203.184 109.89 202.186 111.65 201.3C113.166 200.526 114.784 199.801 116.299 198.932C117.185 198.353 117.999 197.666 118.726 196.888C118.743 197.22 118.825 197.544 118.967 197.843C120.297 201.3 123.449 203.573 126.563 205.235C130.818 207.424 135.454 208.723 140.202 209.054C146.651 209.257 153.039 207.713 158.722 204.576C160.705 203.392 162.548 201.979 164.217 200.364C164.446 200.057 164.622 199.711 164.737 199.342C167.052 201.567 170.316 202.341 173.375 202.723C176.61 203.067 179.883 202.513 183.109 202.675C184.74 202.766 186.329 203.236 187.757 204.05C189.505 205.005 191.225 205.96 192.88 207.097C194.105 208.009 195.409 208.805 196.776 209.475C197.168 209.674 197.603 209.769 198.04 209.752C198.617 210.353 199.146 211.003 199.741 211.576C201.09 212.846 202.614 213.887 203.916 215.205C206.985 218.195 209.863 221.385 212.534 224.754C216.321 230.259 219.335 236.283 221.488 242.651C223.062 247.634 224.222 252.746 224.955 257.93C225.348 262.482 225.385 267.058 225.067 271.615V271.587Z" fill="black"/>
<path d="M94.4415 298.633H92.5635V356.027H94.4415V298.633Z" fill="black"/>
<path d="M188.733 321.008H187.403V357.479H188.733V321.008Z" fill="black"/>
<path d="M19.7114 31.2154C20.3801 30.7289 20.6332 29.328 20.9368 28.6989C21.4333 27.6796 21.9394 26.664 22.4551 25.652C23.5866 23.4574 24.7579 21.2628 26.0412 19.1377C26.7036 17.995 27.4466 16.9022 28.2644 15.8677C28.5825 15.48 29.2223 14.5948 29.8188 14.6863C30.7912 14.8326 31.3371 19.3571 30.5201 34.2257C34.1351 34.5695 38.2019 36.4568 43.534 38.1869C46.3681 39.1087 48.0455 39.2513 48.0455 39.9573C48.0455 42.2762 37.3669 44.8366 30.7985 44.7122C32.9675 55.6524 32.7361 59.5369 31.4998 60.0051C30.5526 60.3708 29.103 58.7029 27.2992 56.6071C24.4072 53.2383 21.5405 44.2185 20.2681 45.2682C19.1836 46.179 18.4823 47.3787 17.6002 48.4797C15.3654 51.2809 12.6356 53.6374 9.54969 55.4293C8.32421 56.1425 5.86602 57.869 4.59356 56.3291C4.43593 56.1166 4.32449 55.8729 4.26654 55.6138C4.2086 55.3547 4.20548 55.0862 4.25737 54.8258C4.36173 54.3054 4.54204 53.8037 4.79239 53.3371C7.17827 48.3004 8.57364 45.0305 11.4837 40.2864C11.8922 39.6207 12.6586 38.9806 12.3187 38.1174C12.0903 37.653 11.7526 37.2523 11.3355 36.9506L3.00297 29.8218C2.55084 29.468 2.14618 29.0561 1.79919 28.5965C1.44876 28.1336 1.28704 27.5523 1.34732 26.9725C1.63652 25.0887 3.83442 26.0946 4.98398 26.3433C6.52637 26.6798 8.05308 27.0822 9.56414 27.5504C12.5496 28.4765 15.452 29.6573 18.2401 31.08C18.4949 31.2301 18.772 31.3376 19.0607 31.3983C19.1757 31.4133 19.2926 31.4049 19.4043 31.3735C19.5161 31.3421 19.6205 31.2883 19.7114 31.2154Z" fill="#FDEE93" stroke="black" stroke-miterlimit="10"/>
</g>
<defs>
<clipPath id="clip0_363_10401">
<rect width="226.88" height="355" fill="white"/>
</clipPath>
</defs>
</svg>
