<svg width="207" height="280" viewBox="0 0 207 280" fill="none" xmlns="http://www.w3.org/2000/svg">
<g clip-path="url(#clip0_262_9764)">
<path d="M24 274.5L142.723 274.991C143.824 274.995 144.714 275.889 144.714 276.991V277.999C144.714 279.103 143.819 279.999 142.714 279.999H26.7143L24 274.5Z" fill="black"/>
<path d="M103.08 102.633C102.001 108.057 101.529 113.585 101.672 119.114L108.369 121.721C108.369 121.721 112.458 138.577 86.6169 133.408C81.5985 132.404 67.1423 121.421 67.1423 121.421L78.6324 118.14C78.6324 118.14 79.726 101.434 80.1305 93.1187C87.5872 96.7376 95.2504 99.9145 103.08 102.633Z" fill="white"/>
<path d="M86.4971 133.977C81.4038 132.958 67.3071 122.29 66.7078 121.826C66.624 121.763 66.5599 121.677 66.5228 121.579C66.4856 121.481 66.477 121.374 66.4981 121.271C66.5178 121.17 66.5645 121.077 66.633 121C66.7016 120.924 66.7895 120.867 66.8876 120.837L78.0032 117.66C78.1679 115.083 79.1267 100.55 79.5012 93.0436C79.5112 92.9537 79.5404 92.867 79.587 92.7894C79.6335 92.7119 79.6961 92.6452 79.7708 92.5941C79.8547 92.5531 79.947 92.5317 80.0405 92.5317C80.1339 92.5317 80.2262 92.5531 80.3102 92.5941C87.7545 96.2109 95.4023 99.3926 103.215 102.123C103.352 102.162 103.468 102.253 103.538 102.376C103.608 102.499 103.627 102.645 103.59 102.782C102.548 108.045 102.081 113.406 102.197 118.769L108.533 121.241C108.619 121.272 108.695 121.324 108.756 121.392C108.816 121.46 108.858 121.542 108.878 121.631C109.26 123.328 109.241 125.09 108.822 126.778C108.404 128.466 107.597 130.033 106.466 131.355C104.129 133.782 100.474 135.011 95.3955 135.011C92.4025 134.96 89.422 134.614 86.4971 133.977ZM101.478 119.653C101.374 119.619 101.283 119.552 101.218 119.464C101.154 119.375 101.119 119.268 101.118 119.159C100.978 113.744 101.415 108.33 102.421 103.007C94.9911 100.414 87.7094 97.413 80.6097 94.0175C80.1603 102.468 79.1117 117.99 79.1117 118.2C79.1044 118.316 79.0617 118.427 78.9894 118.518C78.9171 118.609 78.8186 118.676 78.7072 118.709L68.3108 121.706C71.5466 124.103 82.6021 132.194 86.7217 132.973C96.0246 134.831 102.406 134.037 105.672 130.636C106.644 129.489 107.347 128.138 107.728 126.683C108.109 125.228 108.159 123.707 107.874 122.23L101.478 119.653Z" fill="black"/>
<path d="M118.9 56.1258C121.252 56.6951 123.619 54.2979 123.664 51.7807C123.628 50.5183 123.244 49.2903 122.554 48.2326C121.864 47.1749 120.895 46.3287 119.754 45.7876C117.478 44.876 115.07 44.3397 112.623 44.1994C113.003 42.9447 112.988 41.6035 112.581 40.3574C112.174 39.1113 111.394 38.0204 110.346 37.2324C108.233 35.7528 105.623 35.166 103.081 35.5992C101.409 35.7332 99.8124 36.3471 98.4816 37.3672C97.7995 37.9298 97.2547 38.6405 96.8887 39.4454C96.5226 40.2502 96.345 41.128 96.3693 42.0119C94.1822 39.2401 90.6468 37.3972 87.381 38.1913C84.1153 38.9854 81.5236 43.0607 81.2839 45.8625C80.5902 44.8305 79.6632 43.9766 78.5778 43.3701C77.4925 42.7635 76.2795 42.4214 75.0372 42.3715C70.0786 42.6412 69.0449 46.8663 71.2021 52.2752C70.4524 51.9413 69.6399 51.7725 68.8193 51.7803C67.9987 51.7882 67.1894 51.9724 66.4462 52.3206C65.7031 52.6687 65.0437 53.1727 64.5124 53.7982C63.9812 54.4237 63.5906 55.1562 63.3673 55.946C62.9771 57.6052 62.9644 59.3309 63.33 60.9957C63.6956 62.6605 64.4302 64.222 65.4796 65.565C65.9094 66.0203 66.4166 66.3957 66.9777 66.6737C67.7417 70.9139 68.7154 75.3638 70.1685 80.9524C71.3098 85.2215 72.9964 89.3257 75.1869 93.1634C75.9956 94.7637 77.3586 96.0152 79.0218 96.6844C79.1267 94.9314 80.9545 94.0474 81.2391 92.3094C81.5836 90.1669 80.2053 88.264 81.5086 86.3163C83.921 82.7976 85.5975 78.8276 86.4373 74.6446C87.2532 71.3145 86.9316 67.8071 85.5235 64.681C84.9212 63.556 84.1307 62.5425 83.1864 61.6844C83.6001 60.8375 83.9507 59.9611 84.2352 59.0624C85.7332 61.5646 86.7519 63.2726 90.3771 64.4712C91.6306 64.9556 93.0215 64.9431 94.266 64.4363C95.5105 63.9295 96.5147 62.9666 97.0734 61.7443C97.6426 64.3064 101.567 67.9023 104.114 68.157C106.661 68.4117 107.545 67.2581 108.608 64.8758C110.825 66.8385 112.473 68.8313 114.735 69.6853C116.507 70.2625 118.436 70.1135 120.098 69.2709C121.761 68.4284 123.021 66.961 123.604 65.1904C124.086 63.365 123.872 61.4253 123.002 59.7495C122.133 58.0737 120.67 56.7818 118.9 56.1258Z" fill="#F4AD7C"/>
<path d="M78.7074 97.2538C76.9365 96.5461 75.4868 95.2134 74.6327 93.5081C72.4105 89.6258 70.7033 85.4706 69.5543 81.1472C68.2211 76.068 67.2174 71.5881 66.3935 67.0933C65.882 66.7996 65.4174 66.4309 65.0152 65.9995C63.9012 64.5816 63.1242 62.9289 62.7427 61.1665C62.3612 59.404 62.3853 57.5779 62.8131 55.8261C63.0858 54.9201 63.5547 54.0852 64.1865 53.3808C64.8182 52.6765 65.5974 52.1199 66.4685 51.7508C67.6493 51.2441 68.9601 51.1235 70.2136 51.4062C69.2249 48.4096 69.2698 45.9524 70.3633 44.2294C70.8802 43.4875 71.571 42.8837 72.3754 42.471C73.1799 42.0583 74.0733 41.8492 74.9773 41.8621C76.1237 41.8498 77.2581 42.0968 78.2958 42.5845C79.3334 43.0723 80.2473 43.7882 80.9694 44.6789C81.7335 41.6823 84.2202 38.431 87.2912 37.6969C88.8816 37.4107 90.5188 37.5357 92.0473 38.0602C93.5759 38.5846 94.945 39.4911 96.0249 40.6934C96.3049 39.2365 97.0835 37.9226 98.227 36.9777C99.646 35.8933 101.346 35.2382 103.126 35.0898C105.802 34.6489 108.544 35.2727 110.766 36.8278C111.806 37.6292 112.604 38.7027 113.072 39.9297C113.54 41.1567 113.66 42.4892 113.417 43.7799L114.136 43.8698C116.207 44.0105 118.235 44.5178 120.128 45.3681C121.345 45.9595 122.379 46.8693 123.12 48.001C123.861 49.1327 124.282 50.444 124.338 51.7957C124.308 52.5842 124.108 53.3568 123.752 54.0604C123.395 54.764 122.889 55.3818 122.271 55.8711C121.904 56.1573 121.494 56.3848 121.057 56.5453C122.417 57.5562 123.434 58.9606 123.97 60.5685C124.506 62.1764 124.535 63.9101 124.053 65.535C123.73 66.5141 123.212 67.4174 122.53 68.19C121.847 68.9627 121.015 69.5886 120.083 70.0299C119.217 70.4676 118.271 70.724 117.303 70.7832C116.334 70.8425 115.364 70.7034 114.451 70.3745C112.649 69.5409 111.031 68.3596 109.687 66.8985L108.713 65.9695C107.725 68.0821 106.556 69.1459 104.024 68.9661C101.493 68.7863 98.272 65.9695 96.9687 63.3475C96.1817 64.3385 95.1013 65.0549 93.8822 65.394C92.6632 65.7331 91.368 65.6776 90.1825 65.2354C88.9473 64.9059 87.792 64.3281 86.7875 63.5373C85.783 62.7464 84.9503 61.7591 84.3401 60.6356L83.8458 61.8043C84.7107 62.6467 85.434 63.6231 85.9879 64.696C87.4848 67.924 87.8285 71.5681 86.9616 75.0192C86.1116 79.279 84.4042 83.3214 81.9432 86.9006C81.6929 87.3537 81.5372 87.853 81.4857 88.3681C81.4342 88.8832 81.4879 89.4035 81.6435 89.8972C81.8281 90.7636 81.8687 91.6546 81.7635 92.5342C81.5643 93.4114 81.141 94.2219 80.535 94.8865C80.0127 95.4244 79.6678 96.1094 79.5464 96.8492C79.5384 96.9397 79.5099 97.0272 79.4632 97.105C79.4165 97.1829 79.3527 97.2491 79.2766 97.2987C79.1884 97.3444 79.0913 97.37 78.9921 97.3737C78.8886 97.3586 78.7905 97.3173 78.7074 97.2538ZM84.6996 58.8677C85.2326 60.1048 86.0329 61.2086 87.043 62.0998C88.0532 62.9909 89.2481 63.6473 90.542 64.0218C92.7741 64.7559 95.7102 64.0218 96.5342 61.6545C96.576 61.539 96.6539 61.4401 96.7565 61.3726C96.8591 61.3051 96.9808 61.2726 97.1034 61.2799C97.2233 61.2892 97.3373 61.3363 97.4288 61.4144C97.5203 61.4924 97.5846 61.5975 97.6127 61.7144C98.1221 64.0068 101.912 67.4678 104.159 67.7076C106.406 67.9473 107.065 67.0183 108.009 64.711C108.047 64.6313 108.101 64.5607 108.168 64.5038C108.235 64.4469 108.314 64.4052 108.399 64.3814C108.488 64.3611 108.581 64.3628 108.67 64.3863C108.759 64.4098 108.84 64.4543 108.908 64.5162C109.462 65.0106 109.987 65.4901 110.481 66.0145C111.713 67.3797 113.205 68.485 114.87 69.2658C115.639 69.5384 116.456 69.6511 117.27 69.597C118.084 69.5429 118.878 69.3231 119.604 68.9511C120.4 68.5773 121.111 68.046 121.696 67.3893C122.28 66.7326 122.726 65.9642 123.005 65.1305C123.47 63.4488 123.295 61.6545 122.515 60.094C121.735 58.5334 120.404 57.3172 118.78 56.6802C118.642 56.6354 118.527 56.5381 118.459 56.4091C118.392 56.2802 118.378 56.13 118.421 55.9909C118.459 55.8537 118.549 55.7366 118.672 55.6641C118.795 55.5915 118.941 55.5691 119.08 55.6014C119.508 55.69 119.95 55.6794 120.374 55.5703C120.797 55.4612 121.19 55.2566 121.522 54.9721C122.011 54.5924 122.411 54.1097 122.693 53.5582C122.975 53.0067 123.133 52.3999 123.154 51.7808C123.104 50.6374 122.742 49.5296 122.108 48.5766C121.475 47.6235 120.594 46.8613 119.559 46.3719C117.791 45.5934 115.9 45.1318 113.971 45.0085C113.522 45.0085 113.058 44.9036 112.608 44.8287C112.524 44.821 112.442 44.7923 112.372 44.7452C112.301 44.6981 112.243 44.6341 112.204 44.559C112.167 44.4845 112.148 44.4025 112.148 44.3193C112.148 44.2361 112.167 44.1541 112.204 44.0796C112.544 42.9377 112.526 41.7188 112.15 40.5879C111.775 39.457 111.062 38.4687 110.106 37.7568C108.118 36.3842 105.671 35.8463 103.29 36.2585C101.725 36.3861 100.228 36.9578 98.976 37.9066C98.3659 38.4162 97.8782 39.0565 97.5489 39.7801C97.2196 40.5036 97.0571 41.292 97.0734 42.0868C97.0732 42.206 97.0374 42.3224 96.9707 42.4212C96.904 42.5199 96.8094 42.5965 96.6989 42.6412C96.5883 42.6796 96.4685 42.6829 96.3559 42.6508C96.2433 42.6186 96.1433 42.5525 96.0697 42.4614C95.1366 41.1209 93.8453 40.07 92.3432 39.4288C90.8412 38.7876 89.1892 38.5821 87.5759 38.8356C84.4 39.5997 82.1379 43.5402 81.9132 46.0123C81.9041 46.1239 81.8624 46.2304 81.7931 46.3183C81.7238 46.4062 81.6301 46.4718 81.5237 46.5068C81.4171 46.5367 81.3041 46.5357 81.198 46.5039C81.0919 46.472 80.997 46.4107 80.9245 46.327C79.0519 44.0346 77.1194 42.9259 75.142 43.0308C74.4178 43.0145 73.7004 43.1736 73.0509 43.4945C72.4015 43.8154 71.8391 44.2885 71.4119 44.8737C70.3932 46.4918 70.5281 49.0838 71.7864 52.1553C71.8322 52.2612 71.8439 52.3787 71.8197 52.4915C71.7955 52.6043 71.7368 52.7068 71.6516 52.7846C71.5698 52.8643 71.4648 52.916 71.3517 52.9321C71.2387 52.9483 71.1233 52.9281 71.0224 52.8745C70.3907 52.5927 69.7068 52.4471 69.0151 52.4471C68.3234 52.4471 67.6395 52.5927 67.0077 52.8745C66.2925 53.1876 65.654 53.6527 65.1366 54.2374C64.6193 54.8221 64.2354 55.5126 64.0116 56.2606C63.6481 57.827 63.6383 59.4548 63.9829 61.0254C64.3276 62.5961 65.018 64.0701 66.004 65.3403C66.3773 65.7475 66.8183 66.0871 67.3073 66.3441C67.3817 66.3825 67.4462 66.4377 67.4956 66.5053C67.545 66.5729 67.5781 66.6511 67.592 66.7337C68.4159 71.2285 69.4346 75.7234 70.7679 80.9524C71.8977 85.1756 73.5694 89.2347 75.7413 93.0286C76.3545 94.3248 77.3824 95.3793 78.6624 96.0252C78.9228 95.3763 79.2872 94.7741 79.7411 94.2422C80.2308 93.7261 80.5767 93.0907 80.7447 92.3993C80.8241 91.6386 80.7837 90.8701 80.6249 90.1219C80.4284 89.4751 80.3694 88.7943 80.4519 88.1234C80.5345 87.4524 80.7567 86.8062 81.1042 86.2264C83.4802 82.7804 85.1269 78.885 85.9431 74.7795C86.757 71.574 86.4558 68.187 85.0891 65.1754C84.5197 64.1014 83.7697 63.1333 82.872 62.3137C82.7803 62.2338 82.7175 62.126 82.6932 62.0069C82.6688 61.8878 82.6843 61.7639 82.7372 61.6545C83.146 60.8348 83.4866 59.9829 83.7558 59.1074C83.7913 59.0041 83.855 58.9129 83.9398 58.8441C84.0245 58.7752 84.127 58.7315 84.2353 58.7178C84.3845 58.7128 84.5296 58.7666 84.6396 58.8677H84.6996Z" fill="black"/>
<path d="M115.065 70.3296V69.925L114.601 69.7752C112.339 68.9212 110.691 66.9285 108.474 64.9657C107.47 67.348 106.526 68.5017 103.98 68.2469C101.433 67.9922 97.508 64.3964 96.9388 61.8343C96.3801 63.0566 95.3759 64.0194 94.1314 64.5262C92.8869 65.033 91.496 65.0455 90.2425 64.5612C86.6173 63.3625 85.5535 61.6545 84.1004 59.1523C83.3358 61.9905 81.6429 64.4907 79.2917 66.2542C78.3227 66.9438 77.2365 67.4515 76.0859 67.7525C76.0859 68.2469 76.0859 68.7264 75.9511 69.2508C75.5524 72.2305 75.477 75.2446 75.7264 78.2405C72.8951 75.8882 70.5431 76.2778 68.7904 78.0607C67.9672 78.9167 67.5161 80.0637 67.5358 81.2512C67.5554 82.4388 68.0443 83.5703 68.8954 84.3985C69.8888 85.2753 71.0775 85.9015 72.3624 86.2247C73.6472 86.5479 74.9907 86.5588 76.2807 86.2564C76.9698 90.7512 78.0034 99.666 81.1043 103.622C82.9812 105.816 85.3105 107.579 87.9324 108.79C90.5543 110 93.4068 110.629 96.2945 110.634C99.2317 110.702 102.151 110.161 104.869 109.044C107.587 107.928 110.043 106.26 112.084 104.146C116.279 99.4862 117.207 93.3433 116.848 87.5749C116.488 81.8065 115.065 76.053 115.065 70.3296Z" fill="white"/>
<path d="M96.3393 111.158C93.3709 111.158 90.4379 110.514 87.7429 109.27C85.0478 108.025 82.655 106.211 80.7296 103.951C77.8533 100.28 76.7449 92.7741 76.0109 87.8147C76.0109 87.4851 75.9658 87.1705 75.8759 86.8708C74.5746 87.0955 73.2394 87.0221 71.9706 86.6562C70.7018 86.2903 69.5323 85.6413 68.5504 84.7582C67.5932 83.8282 67.0446 82.5561 67.025 81.2215C67.0053 79.8869 67.5163 78.5992 68.4457 77.6414C69.2735 76.7152 70.4213 76.137 71.6581 76.0231C72.8949 75.9091 74.1288 76.2678 75.1119 77.0271C74.9933 74.4254 75.1038 71.8183 75.4416 69.236V69.1161C75.4416 68.6816 75.5314 68.2022 75.5764 67.7227C75.5823 67.6079 75.6249 67.4981 75.6976 67.4091C75.7704 67.3202 75.8696 67.2568 75.9809 67.2283C77.0576 66.9032 78.0709 66.3965 78.977 65.73C81.2158 64.0233 82.8316 61.628 83.5759 58.9128C83.6114 58.8095 83.6751 58.7183 83.7598 58.6494C83.8446 58.5806 83.947 58.5369 84.0554 58.5232C84.1617 58.5113 84.2691 58.5304 84.3648 58.5783C84.4605 58.6262 84.5404 58.7007 84.5946 58.7929C85.1277 60.0301 85.9279 61.1339 86.9381 62.025C87.9482 62.9162 89.1432 63.5725 90.4371 63.947C92.6691 64.6812 95.6053 63.947 96.4292 61.5797C96.471 61.4642 96.549 61.3653 96.6516 61.2978C96.7542 61.2303 96.8757 61.1978 96.9983 61.2051C97.1182 61.2145 97.2321 61.2615 97.3236 61.3396C97.4151 61.4177 97.4797 61.5227 97.5078 61.6396C98.0171 63.932 101.807 67.3931 104.054 67.6328C106.301 67.8725 106.96 66.9436 107.904 64.6362C107.942 64.5566 107.996 64.4859 108.063 64.429C108.13 64.3722 108.209 64.3304 108.294 64.3066C108.383 64.2864 108.476 64.2881 108.565 64.3115C108.654 64.335 108.735 64.3796 108.803 64.4414C109.357 64.9359 109.882 65.4153 110.376 65.9397C111.608 67.3049 113.1 68.4103 114.765 69.191L115.17 69.3259C115.287 69.3588 115.39 69.4295 115.463 69.527C115.536 69.6245 115.575 69.7434 115.574 69.8653V70.2698C115.669 73.4996 115.989 76.7187 116.533 79.9038C116.892 82.3759 117.267 84.923 117.432 87.3952C117.866 94.557 116.218 100.266 112.518 104.371C110.467 106.504 108.002 108.196 105.274 109.343C102.546 110.489 99.6127 111.066 96.6538 111.038L96.3393 111.158ZM114.406 70.2998C112.604 69.4661 110.986 68.2848 109.642 66.8237L108.668 65.8948C107.679 68.0074 106.511 69.0712 103.979 68.8914C101.448 68.7116 98.2268 65.8948 96.9235 63.2728C96.1366 64.2638 95.0561 64.9801 93.8371 65.3193C92.6181 65.6584 91.3229 65.6029 90.1373 65.1606C88.9032 64.8287 87.7491 64.25 86.745 63.4594C85.7408 62.6688 84.9073 61.6828 84.2949 60.5609C83.4141 63.057 81.8008 65.2292 79.666 66.7938C78.7558 67.4535 77.7437 67.9596 76.6699 68.292C76.6699 68.6516 76.5951 68.9962 76.5651 69.3408V69.4607C76.1744 72.3707 76.0991 75.3145 76.3404 78.2407C76.3506 78.3523 76.3275 78.4645 76.2742 78.5631C76.2209 78.6617 76.1396 78.7424 76.0407 78.795C75.949 78.8538 75.8425 78.885 75.7336 78.885C75.6248 78.885 75.5183 78.8538 75.4266 78.795C73.0896 76.8623 71.0224 76.7873 69.2547 78.5703C68.8959 78.9418 68.6139 79.3804 68.425 79.8611C68.2361 80.3418 68.1439 80.855 68.1536 81.3714C68.1634 81.8878 68.2749 82.3971 68.4819 82.8703C68.6888 83.3435 68.987 83.7712 69.3594 84.1289C70.2871 84.9398 71.3955 85.5166 72.5918 85.8111C73.7881 86.1057 75.0374 86.1094 76.2354 85.822C76.3102 85.8071 76.3872 85.8074 76.4618 85.8229C76.5364 85.8383 76.6072 85.8686 76.6699 85.9119C76.7927 86.0034 76.878 86.1366 76.9097 86.2865C76.9097 86.751 77.0445 87.2604 77.1344 87.7848C77.7935 92.2796 78.9171 99.9509 81.6285 103.382C83.4473 105.514 85.7075 107.225 88.2527 108.397C90.7979 109.569 93.5673 110.173 96.3693 110.169C99.2278 110.247 102.071 109.727 104.718 108.643C107.364 107.56 109.755 105.936 111.739 103.876C115.23 99.9958 116.788 94.572 116.368 87.7099C116.218 85.2377 115.844 82.7056 115.484 80.2184C114.932 76.9838 114.607 73.7146 114.511 70.4346L114.406 70.2998Z" fill="black"/>
<path d="M108.578 76.967C108.474 75.4687 107.739 74.4798 106.93 74.5548C106.121 74.6297 105.582 75.8433 105.687 77.2517C105.792 78.6601 106.511 79.7388 107.32 79.6639C108.129 79.589 108.683 78.3754 108.578 76.967Z" fill="black"/>
<path d="M91.2909 78.1356C91.1711 76.7272 90.4221 75.6635 89.6281 75.7533C88.8341 75.8432 88.2798 77.0718 88.3996 78.4802C88.5194 79.8886 89.2685 80.9524 90.0774 80.8475C90.8863 80.7426 91.4107 79.544 91.2909 78.1356Z" fill="black"/>
<path d="M96.3244 102.153C96.9208 102.154 97.515 102.079 98.0922 101.928C98.2366 101.89 98.36 101.796 98.4356 101.667C98.5113 101.538 98.5331 101.384 98.4965 101.239C98.4578 101.095 98.364 100.971 98.235 100.896C98.1061 100.82 97.9525 100.798 97.8075 100.835C96.7043 101.116 95.5448 101.085 94.4579 100.746C93.371 100.408 92.3992 99.7746 91.6505 98.9169C91.5443 98.8135 91.4018 98.7556 91.2535 98.7556C91.1053 98.7556 90.9628 98.8135 90.8565 98.9169C90.8035 98.9686 90.7615 99.0303 90.7327 99.0985C90.704 99.1667 90.6892 99.2399 90.6892 99.314C90.6892 99.388 90.704 99.4612 90.7327 99.5294C90.7615 99.5976 90.8035 99.6593 90.8565 99.711C91.5463 100.478 92.3894 101.092 93.3313 101.513C94.2732 101.933 95.2929 102.151 96.3244 102.153Z" fill="black"/>
<path d="M99.5602 94.9914C100.553 94.9774 101.535 94.7951 102.466 94.452C103.084 94.2717 103.642 93.9305 104.084 93.4631C104.38 93.0873 104.585 92.6487 104.683 92.181C104.782 91.7134 104.772 91.2293 104.654 90.7662C104.469 90.0726 104.203 89.4036 103.86 88.7735L103.725 88.4888C102.088 85.1182 101.243 81.4183 101.253 77.6712C101.255 77.5971 101.242 77.5234 101.215 77.4544C101.188 77.3854 101.148 77.3225 101.096 77.2694C101.044 77.2164 100.983 77.1742 100.914 77.1454C100.846 77.1166 100.773 77.1018 100.699 77.1018C100.548 77.1018 100.403 77.1618 100.296 77.2686C100.19 77.3753 100.129 77.5202 100.129 77.6712C100.112 81.5911 100.998 85.4622 102.721 88.9832L102.856 89.2679C103.162 89.8138 103.394 90.3984 103.545 91.0059C103.628 91.298 103.643 91.6054 103.589 91.9042C103.534 92.203 103.412 92.4852 103.23 92.7289C102.909 93.0364 102.519 93.2625 102.092 93.3882C101.035 93.8009 99.8924 93.945 98.7662 93.8077C98.2321 93.7412 97.7173 93.566 97.2536 93.2929C96.7898 93.0197 96.3868 92.6544 96.0697 92.2195C95.9848 92.0981 95.8561 92.0145 95.7107 91.9866C95.5653 91.9586 95.4147 91.9884 95.2908 92.0697C95.1694 92.1546 95.0858 92.2834 95.0579 92.4289C95.0299 92.5743 95.0596 92.725 95.1409 92.8488C95.5424 93.4116 96.0557 93.8857 96.6484 94.2414C97.2412 94.5971 97.901 94.8269 98.5865 94.9164C98.908 94.9717 99.234 94.9968 99.5602 94.9914Z" fill="black"/>
<path d="M76.1156 81.7017C76.1886 81.6925 76.2591 81.6688 76.3229 81.632C76.3868 81.5953 76.4427 81.5462 76.4873 81.4876C76.532 81.429 76.5643 81.3621 76.5828 81.2908C76.6013 81.2195 76.6054 81.1453 76.5949 81.0724C76.3851 79.5741 76.3104 78.6751 76.1756 77.1469C76.17 77.0726 76.1494 77.0002 76.1152 76.934C76.081 76.8678 76.0339 76.8092 75.9766 76.7617C75.9193 76.7141 75.853 76.6786 75.7817 76.6573C75.7103 76.6359 75.6353 76.6292 75.5613 76.6375C75.487 76.643 75.4146 76.6635 75.3484 76.6977C75.2823 76.7319 75.2237 76.7791 75.1762 76.8364C75.1286 76.8937 75.0931 76.9601 75.0718 77.0314C75.0504 77.1028 75.0438 77.1777 75.052 77.2518C75.1868 78.75 75.2766 79.634 75.4863 81.2222C75.4935 81.2961 75.5158 81.3678 75.552 81.4327C75.5881 81.4976 75.6372 81.5543 75.6963 81.5993C75.7553 81.6443 75.8231 81.6766 75.8952 81.6943C75.9674 81.7119 76.0424 81.7144 76.1156 81.7017Z" fill="black"/>
<path d="M119.949 66.509C119.992 66.5238 120.04 66.5238 120.083 66.509C120.729 65.8314 121.18 64.9921 121.388 64.0797C121.596 63.1673 121.554 62.2155 121.267 61.3249C121.26 61.3005 121.249 61.2778 121.233 61.2582C121.216 61.2386 121.196 61.2227 121.174 61.2114C121.151 61.2001 121.126 61.1936 121.101 61.1926C121.076 61.1915 121.051 61.1957 121.027 61.205C120.98 61.2221 120.942 61.2564 120.919 61.301C120.897 61.3456 120.893 61.3971 120.907 61.4448C121.177 62.268 121.217 63.149 121.024 63.9935C120.832 64.838 120.413 65.6142 119.814 66.2393C119.779 66.2755 119.76 66.3239 119.76 66.3741C119.76 66.4244 119.779 66.4727 119.814 66.509C119.858 66.5219 119.905 66.5219 119.949 66.509Z" fill="black"/>
<path d="M69.5542 64.726C69.5754 64.7355 69.5985 64.7404 69.6217 64.7404C69.6449 64.7404 69.6678 64.7355 69.689 64.726C69.7057 64.7093 69.719 64.6894 69.7281 64.6676C69.7372 64.6457 69.7418 64.6223 69.7418 64.5986C69.7418 64.575 69.7372 64.5515 69.7281 64.5297C69.719 64.5078 69.7057 64.488 69.689 64.4713C68.6234 63.4955 67.8627 62.2324 67.4986 60.8341C67.1345 59.4358 67.1824 57.962 67.6367 56.5903C67.646 56.5668 67.6504 56.5415 67.6493 56.5163C67.6482 56.491 67.6418 56.4662 67.6305 56.4436C67.6191 56.421 67.6032 56.401 67.5836 56.385C67.5641 56.3689 67.5413 56.3572 67.5169 56.3506C67.4943 56.341 67.4701 56.3361 67.4456 56.3362C67.4211 56.3363 67.3969 56.3414 67.3744 56.3513C67.352 56.3611 67.3317 56.3754 67.315 56.3933C67.2983 56.4112 67.2854 56.4324 67.2772 56.4554C66.7962 57.8983 66.7455 59.4501 67.1312 60.9213C67.5169 62.3926 68.3224 63.7197 69.4494 64.741C69.4851 64.7476 69.5219 64.7424 69.5542 64.726Z" fill="black"/>
<path d="M176.59 169.891C171.466 168.393 168.036 161.47 166.448 157.47C166.102 156.662 165.707 155.877 165.265 155.118C164.171 153.215 163.152 151.402 164.665 149.125C169.834 141.139 182.387 106.393 182.792 100.55C180.365 96.9092 183.061 88.0693 186.042 83.4546C188.623 79.492 190.983 75.3904 193.113 71.1686L193.188 71.0338C194.851 67.8724 196.034 66.449 197.248 66.1344C197.516 66.0594 197.797 66.0447 198.072 66.0913C198.346 66.138 198.607 66.2448 198.836 66.4041C200.334 67.4079 199.6 69.8651 198.626 72.1425C197.517 74.7346 196.499 77.2667 195.63 79.634C196.207 79.4294 196.836 79.4294 197.413 79.634C197.944 79.8483 198.403 80.2107 198.735 80.6781C199.067 81.1455 199.258 81.6983 199.285 82.271C199.721 82.2315 200.161 82.2801 200.578 82.4139C200.995 82.5478 201.38 82.7641 201.712 83.0501C202.23 83.4085 202.588 83.9544 202.711 84.5723C202.834 85.1902 202.712 85.8317 202.371 86.3613C202.934 86.1799 203.535 86.1466 204.115 86.2647C204.695 86.3828 205.234 86.6482 205.682 87.0355C207.27 88.6537 207.33 89.7624 206.671 92.0698C204.884 97.6971 201.806 102.828 197.682 107.053C195.42 115.173 193.982 126.935 192.589 138.307C191.465 146.473 190.551 154.069 189.368 159.957C188.21 163.119 186.315 165.959 183.84 168.243C182.33 169.451 180.47 170.139 178.537 170.205C177.877 170.19 177.221 170.084 176.59 169.891ZM188.274 159.687C189.443 153.889 190.372 146.203 191.361 138.157C192.754 126.68 194.207 114.799 196.514 106.588C196.543 106.493 196.594 106.405 196.664 106.333C200.713 102.256 203.746 97.2826 205.517 91.815C206.086 89.8073 206.086 89.1631 204.813 87.8746C204.304 87.5484 203.708 87.3839 203.104 87.4026C202.5 87.4213 201.915 87.6224 201.427 87.9794C201.333 88.0445 201.22 88.0793 201.105 88.0793C200.99 88.0793 200.878 88.0445 200.783 87.9794C200.69 87.9043 200.623 87.8009 200.594 87.6848C200.564 87.5686 200.572 87.4459 200.618 87.3352C200.74 87.0274 200.88 86.7272 201.038 86.4362C201.637 85.3125 201.847 84.7731 200.918 84.009C200.67 83.7508 200.353 83.5696 200.005 83.4872C199.657 83.4048 199.293 83.4247 198.956 83.5445C198.867 83.6038 198.763 83.6354 198.656 83.6354C198.549 83.6354 198.445 83.6038 198.356 83.5445C198.264 83.4871 198.191 83.4041 198.146 83.3055C198.101 83.207 198.085 83.0973 198.102 82.9901C198.21 82.5349 198.158 82.0561 197.953 81.6354C197.748 81.2147 197.403 80.878 196.978 80.6828C196.556 80.5558 196.101 80.586 195.699 80.7678C195.297 80.9495 194.975 81.2706 194.791 81.6716C194.714 81.7888 194.597 81.8734 194.461 81.9094C194.326 81.9453 194.182 81.93 194.057 81.8664C193.934 81.8021 193.839 81.6951 193.789 81.5654C193.739 81.4357 193.739 81.2923 193.787 81.1622C194.941 78.1657 196.214 74.9144 197.637 71.5882C198.027 70.6742 199.24 67.8724 198.267 67.2431C198.169 67.1713 198.056 67.1219 197.937 67.0986C197.818 67.0753 197.695 67.0786 197.577 67.1083C196.469 67.4079 195.136 69.7303 194.222 71.4533V71.5882C192.046 75.8598 189.625 80.002 186.971 83.994C183.81 88.8784 181.728 97.2089 183.795 99.9807C183.868 100.086 183.904 100.212 183.9 100.34C183.75 106.468 170.583 141.978 165.594 149.664C164.456 151.447 165.16 152.661 166.223 154.563C166.694 155.363 167.11 156.194 167.467 157.05C168.965 160.871 172.23 167.539 176.889 168.812C177.977 169.073 179.112 169.074 180.2 168.814C181.288 168.553 182.299 168.039 183.151 167.314C185.4 165.189 187.145 162.588 188.259 159.702L188.274 159.687Z" fill="black"/>
<path d="M198.956 95.8006C199.42 95.7958 199.873 95.6551 200.259 95.3961C200.774 95.0322 201.216 94.5748 201.562 94.0476L203.06 91.92C203.105 91.862 203.137 91.7959 203.156 91.7253C203.175 91.6547 203.18 91.5811 203.17 91.5087C203.16 91.4363 203.136 91.3665 203.099 91.3034C203.063 91.2403 203.014 91.1851 202.955 91.1409C202.836 91.0503 202.686 91.0105 202.537 91.0301C202.388 91.0497 202.253 91.1272 202.161 91.2458L200.588 93.3734C200.317 93.7914 199.972 94.1569 199.57 94.4521C199.424 94.5626 199.253 94.6343 199.072 94.6605C198.892 94.6867 198.707 94.6666 198.536 94.602C198.38 94.4916 198.257 94.3419 198.178 94.1682C198.099 93.9945 198.068 93.8029 198.087 93.6131C198.141 93.0836 198.309 92.5723 198.581 92.1148C199.068 91.0297 199.709 90.0205 200.484 89.1182C200.753 88.7886 201.113 88.3541 201.577 87.7548C201.67 87.6371 201.712 87.4879 201.695 87.3393C201.678 87.1907 201.603 87.0547 201.487 86.9607C201.368 86.8701 201.218 86.8302 201.069 86.8499C200.92 86.8695 200.785 86.947 200.693 87.0656C200.229 87.6649 199.884 88.0694 199.615 88.414C198.789 89.3606 198.103 90.42 197.577 91.5604C197.242 92.1503 197.033 92.8033 196.963 93.4782C196.931 93.8836 197.013 94.29 197.201 94.6505C197.389 95.0111 197.676 95.3111 198.027 95.5159C198.305 95.6929 198.626 95.7912 198.956 95.8006Z" fill="black"/>
<path d="M195.046 94.8566C195.64 94.814 196.209 94.5949 196.678 94.2273C197.128 93.9276 197.577 93.613 197.997 93.2834C198.057 93.2391 198.108 93.1831 198.146 93.1188C198.184 93.0544 198.209 92.9829 198.219 92.9087C198.229 92.8345 198.223 92.7591 198.203 92.687C198.183 92.6149 198.149 92.5477 198.102 92.4893C198.01 92.375 197.878 92.3003 197.733 92.2808C197.588 92.2613 197.441 92.2984 197.323 92.3844L196.049 93.2983C195.733 93.5815 195.32 93.7318 194.896 93.7179C194.491 93.613 194.282 92.9987 194.282 92.4443C194.282 91.5603 195.091 89.2979 198.971 83.5894L199.075 83.4396C199.12 83.3797 199.151 83.3112 199.168 83.2385C199.184 83.1658 199.185 83.0904 199.171 83.0172C199.157 82.944 199.128 82.8745 199.086 82.8131C199.043 82.7517 198.989 82.6998 198.926 82.6605C198.866 82.6162 198.797 82.5848 198.724 82.5683C198.652 82.5518 198.577 82.5506 198.503 82.5646C198.43 82.5787 198.361 82.6078 198.299 82.6501C198.238 82.6924 198.186 82.747 198.147 82.8103L198.042 82.9602C195.945 86.0466 193.158 90.4516 193.158 92.4443C193.111 92.949 193.233 93.4551 193.504 93.8835C193.775 94.3118 194.18 94.6382 194.656 94.8116L195.046 94.8566Z" fill="black"/>
<path d="M192.514 98.9169C192.635 98.9157 192.753 98.8758 192.85 98.803C192.947 98.7303 193.018 98.6284 193.053 98.5123C193.757 95.9952 192.274 93.9126 191.181 92.3993C190.806 91.8749 190.252 91.0958 190.297 90.901C190.701 90.2418 193.038 89.5376 194.027 89.2379C194.399 89.1463 194.761 89.0158 195.105 88.8484C195.517 88.6498 195.881 88.3651 196.173 88.0135C196.465 87.662 196.678 87.2518 196.798 86.8107C196.856 86.5875 196.866 86.3546 196.827 86.1274C196.788 85.9001 196.702 85.6837 196.573 85.4922C196.053 84.8267 195.334 84.344 194.521 84.1138C192.302 84.2388 190.108 84.6415 187.99 85.3124L187.181 85.5222C186.222 85.7619 183.615 87.41 183.525 88.6236C183.517 88.6969 183.524 88.771 183.545 88.8415C183.567 88.912 183.603 88.9774 183.65 89.0335C183.698 89.0897 183.757 89.1355 183.823 89.1681C183.889 89.2006 183.961 89.2193 184.035 89.2229C184.11 89.2291 184.185 89.2204 184.256 89.1973C184.328 89.1742 184.394 89.1373 184.451 89.0885C184.508 89.0398 184.555 88.9802 184.589 88.9133C184.623 88.8464 184.643 88.7734 184.649 88.6985C185.355 87.7417 186.331 87.0167 187.45 86.6159L188.274 86.4062C190.267 85.7908 192.322 85.3988 194.401 85.2375C194.89 85.4403 195.326 85.753 195.675 86.1514C195.719 86.293 195.719 86.4444 195.675 86.5859C195.583 86.8733 195.431 87.1379 195.23 87.3625C195.028 87.5871 194.782 87.7667 194.506 87.8895C194.232 87.9945 193.951 88.0846 193.667 88.1592C191.705 88.7585 189.877 89.3728 189.308 90.3317C188.739 91.2906 189.458 91.9798 190.237 93.0885C191.255 94.4969 192.499 96.2349 191.944 98.2276C191.903 98.3727 191.921 98.5283 191.994 98.6604C192.067 98.7924 192.189 98.89 192.334 98.9318L192.514 98.9169Z" fill="black"/>
<path d="M192.349 85.3874C192.475 85.4072 192.605 85.384 192.716 85.3215C192.827 85.259 192.914 85.1608 192.963 85.0428C193.335 84.2141 193.766 83.413 194.252 82.6455C194.521 82.196 194.776 81.7765 194.941 81.4619C195.011 81.3304 195.026 81.1768 194.984 81.0339C194.942 80.8911 194.846 80.7704 194.716 80.6977C194.585 80.6278 194.431 80.6122 194.288 80.6542C194.145 80.6963 194.025 80.7925 193.952 80.9225L193.293 82.0761C192.754 82.9084 192.288 83.7856 191.9 84.6981C191.877 84.768 191.867 84.8417 191.873 84.9151C191.878 84.9885 191.899 85.0601 191.932 85.1256C191.965 85.1912 192.012 85.2494 192.068 85.2969C192.124 85.3444 192.189 85.3803 192.259 85.4023L192.349 85.3874Z" fill="black"/>
<path d="M192.963 93.658C193.212 93.6566 193.458 93.6003 193.682 93.4931C193.75 93.4626 193.811 93.4187 193.862 93.3642C193.912 93.3097 193.951 93.2455 193.976 93.1757C194.001 93.1058 194.012 93.0316 194.008 92.9574C194.004 92.8833 193.985 92.8107 193.952 92.744C193.919 92.6771 193.872 92.6174 193.816 92.5684C193.759 92.5194 193.694 92.482 193.623 92.4583C193.552 92.4347 193.477 92.4252 193.403 92.4305C193.328 92.4359 193.255 92.4558 193.188 92.4893C193.035 92.5374 192.87 92.5419 192.714 92.5022C192.558 92.4625 192.416 92.3803 192.304 92.2646C192.056 91.956 191.904 91.5815 191.867 91.1873C191.83 90.7931 191.909 90.3967 192.095 90.0471C192.121 89.9773 192.132 89.9031 192.129 89.8287C192.125 89.7544 192.107 89.6815 192.075 89.6144C192.043 89.5473 191.997 89.4873 191.942 89.4381C191.886 89.3889 191.821 89.3514 191.75 89.3279C191.609 89.2797 191.454 89.2888 191.32 89.3533C191.186 89.4177 191.082 89.5323 191.031 89.6725C190.752 90.2281 190.652 90.8569 190.746 91.4717C190.84 92.0865 191.123 92.6568 191.555 93.1036C191.94 93.456 192.442 93.6535 192.963 93.658Z" fill="black"/>
<path d="M21.2423 179.899C24.8376 161.021 24.8675 140.749 40.0727 128.044C47.3831 121.961 64.6857 119.324 74.8275 118.679C75.4566 128.493 85.059 130.831 91.201 130.441C101.463 129.782 103.29 127.759 105.897 119.953C108.204 120.867 122.061 121.571 131.064 129.617C147.782 144.6 168.216 143.102 166.793 144.075C165.369 145.049 170.088 165.741 182.837 168.288C189.533 169.636 152.216 175.165 126.63 168.393C127.589 181.787 122.78 220.833 120.009 235.89C93.3134 254.499 38.4249 233.463 38.4249 233.463C38.4249 233.463 42.6345 221.102 42.6345 211.783C42.6345 207.153 31.7885 217.402 29.6313 217.776C28.3463 217.456 27.2096 216.705 26.4105 215.649C24.5979 211.438 17.9466 197.265 21.2423 179.899Z" fill="black"/>
<path d="M69.1197 242.228C58.6066 240.376 48.2721 237.624 38.23 234.003C38.0937 233.952 37.9828 233.85 37.9212 233.718C37.8595 233.586 37.8521 233.435 37.9005 233.298C37.9005 233.163 42.0651 220.907 42.0651 211.798C42.0651 211.603 42.0651 211.288 41.8854 211.199C40.8817 210.689 36.777 213.671 34.3951 215.469C32.9848 216.684 31.3924 217.669 29.6763 218.39C28.6426 218.57 26.1859 216.772 25.8264 215.918L25.5566 215.289C23.3395 210.18 17.4522 196.59 20.643 179.839C21.3171 176.303 21.8715 172.663 22.4108 169.127C24.7327 153.874 27.1446 138.112 39.6533 127.669C46.6042 121.856 62.8879 118.919 74.7374 118.155C74.8846 118.146 75.0297 118.194 75.1419 118.29C75.1963 118.339 75.2402 118.4 75.271 118.466C75.3019 118.533 75.3191 118.606 75.3217 118.679C75.3698 120.604 75.9367 122.481 76.9624 124.11C77.988 125.74 79.4344 127.063 81.1491 127.939C84.2262 129.482 87.6629 130.165 91.0961 129.916C101.148 129.272 102.766 127.429 105.298 119.833C105.351 119.689 105.459 119.571 105.597 119.503C105.669 119.474 105.745 119.458 105.822 119.458C105.899 119.458 105.975 119.474 106.047 119.503C106.995 119.776 107.961 119.981 108.938 120.118C114.271 121.092 124.233 122.875 131.409 129.272C144.247 140.734 159.167 142.457 164.785 143.116C166.882 143.356 167.257 143.401 167.392 143.925C167.412 144.041 167.402 144.16 167.363 144.27C167.323 144.38 167.256 144.478 167.167 144.555C166.897 145.409 167.736 150.967 170.777 156.901C172.994 161.216 176.904 166.61 182.911 167.823C183.436 167.928 183.975 168.093 184.125 168.557C184.167 168.688 184.171 168.828 184.137 168.96C184.102 169.093 184.031 169.213 183.93 169.306C181.983 171.344 150.239 175.045 127.214 169.202C127.933 183.106 123.304 221.027 120.533 236.07C120.52 236.143 120.492 236.213 120.451 236.275C120.409 236.337 120.356 236.39 120.293 236.43C111.904 242.288 100.729 244.191 89.7479 244.191C82.8293 244.111 75.9293 243.454 69.1197 242.228ZM126.046 168.452C126.039 168.363 126.053 168.273 126.087 168.19C126.121 168.107 126.173 168.033 126.24 167.973C126.311 167.916 126.394 167.877 126.482 167.859C126.571 167.841 126.663 167.844 126.75 167.868C148.396 173.592 177.339 170.52 182.417 168.797C172.47 166.595 167.526 153.904 166.283 147.446C166.033 146.433 165.952 145.385 166.043 144.345L164.665 144.165C158.943 143.506 143.693 141.753 130.66 130.051C123.739 123.863 114.001 122.11 108.758 121.166C107.68 120.972 106.826 120.822 106.226 120.672C103.605 128.298 101.403 130.351 91.2459 130.995C87.6249 131.235 84.0055 130.506 80.7596 128.883C78.9672 127.956 77.4422 126.585 76.3302 124.901C75.2182 123.217 74.5564 121.276 74.4079 119.264C62.7831 120.073 47.1584 122.934 40.5221 128.478C28.343 138.651 26.066 153.514 23.6691 169.262C23.1298 172.797 22.5606 176.453 21.8865 180.004C18.7706 196.485 24.553 209.775 26.7401 214.794L27.0097 215.439C27.7093 216.252 28.6071 216.872 29.6163 217.237C31.0886 216.497 32.4752 215.598 33.7509 214.555C38.0353 211.423 40.9716 209.431 42.4696 210.195C42.7243 210.369 42.9242 210.613 43.0462 210.897C43.1682 211.18 43.2071 211.493 43.1587 211.798C43.1587 220.023 39.893 230.676 39.099 233.134C48.9233 236.641 59.0259 239.312 69.2995 241.119C84.6844 243.771 105.837 244.94 119.469 235.576C122.33 220.128 127.049 181.503 126.075 168.452H126.046Z" fill="black"/>
<path d="M48.7914 196.965C48.9094 196.966 49.0246 196.929 49.1193 196.859C49.214 196.788 49.2829 196.689 49.3157 196.575C54.7686 180.094 57.8547 169.606 57.8547 146.997C57.8547 146.849 57.7967 146.706 57.6932 146.6C57.5896 146.493 57.4486 146.432 57.3002 146.428C57.1492 146.428 57.0045 146.488 56.8977 146.594C56.791 146.701 56.7311 146.846 56.7311 146.997C56.7311 169.471 53.735 179.825 48.2521 196.216C48.2047 196.359 48.2158 196.515 48.2832 196.65C48.3506 196.785 48.4687 196.887 48.6116 196.935L48.7914 196.965Z" fill="black"/>
<path d="M126.21 168.782C126.141 168.689 126.104 168.576 126.104 168.46C126.104 168.344 126.141 168.231 126.21 168.138C126.21 167.823 126.21 166.64 126.3 164.902C126.3 162.414 126.405 158.264 126.63 151.956C126.638 151.808 126.703 151.669 126.812 151.568C126.921 151.467 127.066 151.413 127.214 151.417C127.288 151.419 127.361 151.436 127.429 151.466C127.496 151.497 127.557 151.541 127.607 151.595C127.658 151.65 127.696 151.714 127.722 151.783C127.747 151.853 127.757 151.927 127.753 152.001C127.529 158.294 127.469 162.489 127.424 164.917C127.424 168.273 127.424 168.557 127.064 168.827C126.961 168.92 126.829 168.973 126.69 168.977C126.601 168.981 126.512 168.966 126.429 168.932C126.346 168.899 126.271 168.848 126.21 168.782Z" fill="black"/>
<path d="M97.8823 159.688C108.129 159.688 117.447 158.774 122.36 156.271C122.402 156.249 122.433 156.212 122.447 156.167C122.461 156.122 122.457 156.074 122.435 156.032C122.426 156.008 122.411 155.987 122.393 155.969C122.374 155.951 122.352 155.938 122.328 155.929C122.304 155.921 122.278 155.917 122.253 155.92C122.227 155.922 122.203 155.929 122.181 155.942C112.054 161.096 82.9617 159.418 65.884 157.021C65.8592 157.016 65.8338 157.017 65.8094 157.024C65.785 157.03 65.7622 157.041 65.7425 157.056C65.7227 157.072 65.7065 157.092 65.6947 157.114C65.683 157.136 65.676 157.16 65.6743 157.185C65.67 157.209 65.6705 157.233 65.6757 157.257C65.681 157.28 65.6908 157.302 65.7048 157.322C65.7188 157.342 65.7366 157.358 65.7571 157.371C65.7776 157.383 65.8003 157.392 65.824 157.395C76.4489 158.856 87.1577 159.621 97.8823 159.688Z" fill="white"/>
<path d="M86.9466 174.071C98.8721 173.972 110.744 172.463 122.315 169.576C122.339 169.571 122.362 169.561 122.382 169.547C122.402 169.532 122.419 169.514 122.432 169.493C122.444 169.472 122.452 169.448 122.456 169.424C122.459 169.4 122.457 169.375 122.45 169.351C122.44 169.302 122.41 169.259 122.368 169.231C122.326 169.203 122.275 169.193 122.226 169.202C107.919 172.708 86.2725 175.929 64.3561 171.449C64.3325 171.445 64.3082 171.445 64.2848 171.45C64.2614 171.456 64.2391 171.466 64.2195 171.48C64.2 171.494 64.1835 171.511 64.1709 171.532C64.1583 171.552 64.15 171.575 64.1464 171.599C64.1369 171.646 64.1454 171.696 64.1703 171.737C64.1953 171.779 64.2347 171.81 64.2811 171.824C71.7415 173.333 79.3351 174.086 86.9466 174.071Z" fill="white"/>
<path d="M22.6653 204.906C22.6988 204.902 22.7313 204.89 22.7598 204.872C22.7883 204.854 22.8124 204.83 22.8302 204.801C27.7138 196.56 35.6833 192.41 43.1286 194.223C43.1522 194.23 43.1771 194.231 43.2014 194.228C43.2257 194.225 43.2491 194.217 43.2702 194.204C43.2912 194.191 43.3094 194.175 43.3237 194.155C43.338 194.135 43.3481 194.112 43.3534 194.088C43.3629 194.041 43.3543 193.991 43.3294 193.95C43.3045 193.908 43.265 193.877 43.2186 193.863C35.6085 192.005 27.489 196.231 22.5005 204.621C22.4699 204.656 22.4531 204.702 22.4531 204.748C22.4531 204.795 22.4699 204.84 22.5005 204.876L22.6653 204.906Z" fill="white"/>
<path d="M24.5979 208.322C24.6145 208.329 24.6324 208.332 24.6504 208.332C24.6684 208.332 24.6863 208.329 24.7029 208.322C25.5762 207.593 26.3074 206.709 26.86 205.715C27.0847 205.385 27.2945 205.041 27.5192 204.726C28.9074 202.754 30.8086 201.2 33.0169 200.231C33.0619 200.209 33.0965 200.169 33.1133 200.122C33.1301 200.074 33.1278 200.022 33.1069 199.976C33.0972 199.955 33.0833 199.935 33.0659 199.919C33.0486 199.902 33.0281 199.89 33.0058 199.881C32.9835 199.873 32.9597 199.869 32.9359 199.87C32.9121 199.871 32.8888 199.877 32.8672 199.887C30.5984 200.873 28.6445 202.464 27.2195 204.486L26.5455 205.475C26.0132 206.432 25.3129 207.284 24.4781 207.992C24.4464 208.03 24.429 208.078 24.429 208.127C24.429 208.176 24.4464 208.224 24.4781 208.262C24.5089 208.297 24.5517 208.318 24.5979 208.322Z" fill="white"/>
<path d="M166.792 158.564C166.817 158.558 166.84 158.546 166.859 158.53C166.879 158.514 166.894 158.493 166.904 158.47C166.914 158.447 166.919 158.421 166.918 158.396C166.917 158.371 166.909 158.346 166.897 158.324C165.213 154.179 164.402 149.732 164.515 145.259C164.515 145.207 164.495 145.158 164.458 145.121C164.422 145.085 164.372 145.064 164.321 145.064C164.273 145.064 164.227 145.083 164.194 145.117C164.16 145.151 164.141 145.196 164.141 145.244C164.016 149.774 164.837 154.28 166.553 158.474C166.562 158.496 166.576 158.515 166.594 158.532C166.611 158.548 166.632 158.561 166.654 158.569C166.676 158.577 166.7 158.581 166.724 158.58C166.747 158.579 166.771 158.574 166.792 158.564Z" fill="white"/>
<path d="M161.055 150.263C161.079 150.258 161.102 150.248 161.121 150.234C161.141 150.219 161.158 150.201 161.171 150.18C161.183 150.159 161.192 150.136 161.195 150.111C161.198 150.087 161.196 150.062 161.19 150.038C160.836 148.461 160.735 146.838 160.89 145.229C160.894 145.204 160.893 145.179 160.887 145.154C160.881 145.13 160.87 145.107 160.854 145.087C160.839 145.068 160.819 145.051 160.797 145.04C160.775 145.028 160.75 145.021 160.725 145.019C160.7 145.017 160.675 145.02 160.652 145.028C160.628 145.036 160.607 145.049 160.588 145.066C160.57 145.083 160.555 145.104 160.545 145.127C160.536 145.149 160.53 145.174 160.53 145.199C160.36 146.842 160.461 148.503 160.83 150.113C160.834 150.139 160.842 150.163 160.856 150.185C160.869 150.206 160.887 150.225 160.909 150.239C160.93 150.253 160.954 150.263 160.979 150.267C161.004 150.271 161.03 150.27 161.055 150.263Z" fill="white"/>
<path d="M47.443 197.939C47.5662 197.937 47.6853 197.895 47.7826 197.819C47.8798 197.743 47.9499 197.638 47.9823 197.519C51.6748 183.948 54.181 170.082 55.4725 156.077C55.4851 155.928 55.4388 155.78 55.3436 155.665C55.2483 155.55 55.1117 155.478 54.9632 155.462C54.817 155.454 54.6731 155.502 54.5615 155.597C54.4499 155.692 54.3791 155.826 54.364 155.972C53.0727 169.918 50.5664 183.725 46.8737 197.235C46.8372 197.38 46.8591 197.533 46.9348 197.662C47.0105 197.791 47.1338 197.885 47.2782 197.924L47.443 197.939Z" fill="white"/>
<path d="M127.738 171.509C127.887 171.505 128.028 171.443 128.131 171.337C128.235 171.231 128.293 171.088 128.293 170.94L128.068 155.462C128.064 155.314 128.002 155.173 127.896 155.069C127.79 154.966 127.647 154.908 127.499 154.908C127.424 154.91 127.35 154.927 127.282 154.957C127.214 154.987 127.152 155.031 127.101 155.085C127.049 155.14 127.009 155.203 126.982 155.273C126.955 155.343 126.943 155.418 126.945 155.492L127.169 170.895C127.163 170.973 127.173 171.052 127.199 171.126C127.225 171.201 127.266 171.269 127.319 171.327C127.373 171.384 127.437 171.43 127.51 171.462C127.582 171.493 127.66 171.509 127.738 171.509Z" fill="white"/>
<path d="M45.2859 201.4C43.2935 199.482 39.5184 200.216 37.0317 201.4C35.8033 201.984 25.9461 211.094 29.5414 218.72C32.6424 225.283 34.6798 227.71 51.0834 252.012C51.631 252.955 52.3711 253.772 53.2554 254.409C56.2515 256.237 60.0416 253.42 61.3149 250.199C64.0114 243.382 60.4162 235.86 57.1055 229.313C53.7948 222.765 47.2783 203.318 45.2859 201.4Z" fill="white"/>
<path d="M52.971 254.889C52.0224 254.206 51.2264 253.334 50.634 252.326C47.1884 247.232 44.3871 243.097 42.0652 239.696C33.3316 226.856 31.5788 224.189 29.0471 218.96C25.287 210.989 35.249 201.624 36.792 200.89C39.7881 199.497 43.5932 198.987 45.6755 200.995C46.799 202.074 48.8214 207.168 52.0122 215.439C54.0496 220.698 56.1618 226.136 57.6299 229.058C60.626 235.051 64.7306 243.112 61.8543 250.409C61.4145 251.52 60.7476 252.527 59.8963 253.365C59.0451 254.204 58.0283 254.855 56.9109 255.278C56.3891 255.453 55.843 255.544 55.2929 255.548C54.4718 255.554 53.6662 255.326 52.971 254.889ZM37.2713 201.909C36.5073 202.269 26.5454 211.049 30.0658 218.48C32.4926 223.634 34.3053 226.286 42.994 239.067C45.3159 242.468 48.1172 246.558 51.5627 251.697C52.0754 252.573 52.7579 253.337 53.5701 253.945C54.0181 254.209 54.5195 254.371 55.0378 254.417C55.556 254.464 56.078 254.395 56.5662 254.214C57.5238 253.841 58.3946 253.275 59.1239 252.55C59.8533 251.826 60.4257 250.959 60.8057 250.004C63.5022 243.172 59.5323 235.306 56.6261 229.553C55.1281 226.556 53.0158 221.132 50.9635 215.843C48.5966 209.715 45.9151 202.778 44.9713 201.804C44.1377 201.097 43.0669 200.733 41.9752 200.785C40.3442 200.814 38.739 201.197 37.2713 201.909Z" fill="black"/>
<path d="M27.0652 278.587L1.37896 226.986L74.2293 227.384L99.2392 278.764L27.0652 278.587Z" fill="white" stroke="black"/>
<path d="M100.084 279.82L26.7999 279.64C26.6938 279.642 26.5894 279.614 26.4991 279.558C26.4088 279.502 26.3365 279.422 26.2906 279.326L0.044848 226.721C0.00482115 226.635 -0.0129458 226.54 -0.00690334 226.445C-0.000860865 226.35 0.0287677 226.258 0.0794099 226.178C0.130052 226.097 0.200016 226.031 0.282941 225.984C0.365866 225.938 0.459276 225.913 0.554315 225.912L74.5427 226.316C74.6458 226.319 74.7463 226.35 74.8334 226.405C74.9205 226.461 74.991 226.539 75.0371 226.631L100.504 279.071C100.548 279.154 100.572 279.247 100.572 279.341C100.572 279.435 100.548 279.528 100.504 279.61C100.454 279.674 100.39 279.726 100.317 279.762C100.245 279.798 100.165 279.818 100.084 279.82ZM27.1446 278.517L99.1856 278.697L74.1831 227.38L1.4681 226.991L27.1446 278.517Z" fill="black"/>
<path d="M117.956 280C118.03 279.994 118.103 279.974 118.169 279.94C118.235 279.905 118.294 279.858 118.341 279.801C118.389 279.744 118.424 279.677 118.446 279.606C118.467 279.535 118.474 279.46 118.465 279.386C117.881 271.684 118.825 259.803 119.739 248.326C120.173 243.022 120.563 238.003 120.817 233.433C120.822 233.285 120.77 233.142 120.673 233.03C120.576 232.919 120.44 232.849 120.293 232.834C120.218 232.83 120.143 232.841 120.073 232.865C120.002 232.89 119.937 232.929 119.882 232.979C119.826 233.029 119.781 233.09 119.748 233.157C119.716 233.225 119.698 233.298 119.694 233.373C119.439 237.868 119.05 242.932 118.615 248.236C117.701 259.758 116.758 271.684 117.357 279.476C117.361 279.55 117.379 279.622 117.412 279.689C117.444 279.756 117.49 279.816 117.545 279.865C117.601 279.914 117.667 279.951 117.737 279.974C117.808 279.997 117.882 280.006 117.956 280Z" fill="black"/>
<path d="M109.813 72.5894C109.037 71.8564 108.119 71.2902 107.116 70.9256C106.115 70.5617 105.05 70.4064 103.986 70.4692C103.771 70.4715 103.596 70.5652 103.48 70.7085C103.367 70.8475 103.317 71.0222 103.317 71.1855C103.317 71.3482 103.367 71.524 103.485 71.6602C103.61 71.8039 103.794 71.8843 104.013 71.8674C104.892 71.8062 105.775 71.927 106.606 72.2221C107.436 72.5172 108.197 72.9803 108.841 73.5824C108.996 73.7315 109.184 73.7931 109.368 73.7772C109.547 73.7619 109.705 73.6759 109.82 73.5599C109.934 73.4442 110.018 73.2848 110.029 73.1064C110.04 72.9207 109.97 72.7357 109.813 72.5894Z" fill="black" stroke="black" stroke-width="0.5"/>
<path d="M85.041 74.0098L85.0407 74.0101C84.732 74.3426 84.8423 74.7597 85.0726 74.9873C85.1886 75.1019 85.348 75.186 85.5272 75.1967C85.7134 75.2078 85.8988 75.1379 86.0482 74.983L86.0482 74.983L86.0522 74.9787C86.7817 74.1858 87.6818 73.5692 88.6846 73.1756C89.6875 72.7819 90.7667 72.6214 91.8407 72.7064L91.8505 72.7071H91.8604C92.0736 72.7071 92.2525 72.6254 92.3756 72.4872C92.4948 72.3536 92.5486 72.1823 92.5486 72.0189C92.5486 71.6903 92.3223 71.3315 91.8732 71.3085L91.8732 71.3082H91.8604H91.8233C90.5648 71.2288 89.3044 71.4294 88.1326 71.8956C86.9583 72.3627 85.9022 73.0848 85.041 74.0098Z" fill="black" stroke="black" stroke-width="0.5"/>
<g clip-path="url(#clip1_262_9764)">
<path d="M164.263 53.8933L159.111 52.085L158.27 54.4816L163.421 56.29L164.263 53.8933Z" fill="black"/>
<path d="M163.281 56.7828L158.128 54.9654C158.081 54.9497 158.037 54.9248 158 54.8921C157.963 54.8594 157.933 54.8196 157.912 54.7751C157.89 54.7306 157.878 54.6822 157.876 54.6329C157.873 54.5835 157.881 54.5342 157.898 54.4878L158.741 52.0949C158.756 52.0476 158.781 52.0041 158.814 51.9677C158.848 51.9313 158.889 51.9029 158.935 51.8846C158.981 51.8696 159.029 51.8646 159.077 51.8698C159.125 51.875 159.172 51.8904 159.213 51.9149L164.368 53.7223C164.415 53.7385 164.457 53.7641 164.493 53.7975C164.53 53.8308 164.559 53.8712 164.579 53.9162C164.603 54.0095 164.593 54.1087 164.548 54.1945L163.704 56.5974C163.675 56.6775 163.62 56.7456 163.547 56.7907C163.475 56.8357 163.389 56.8551 163.305 56.8457L163.281 56.7828ZM159.319 52.7009L158.733 54.3875L163.171 55.946L163.767 54.2605L159.319 52.7009Z" fill="black"/>
<path d="M156.812 24.9476C157.427 23.2014 158.384 21.5954 159.627 20.2238C160.871 18.8522 162.375 17.7425 164.053 16.9599C165.73 16.1773 167.547 15.7373 169.397 15.666C171.247 15.5946 173.093 15.8932 174.826 16.5443C178.139 17.8207 180.844 20.3085 182.392 23.5041C183.941 26.6997 184.217 30.3643 183.165 33.7559C182.595 35.5698 181.658 37.247 180.412 38.6829C179.165 40.1188 177.637 41.2828 175.921 42.1022C172.271 43.8481 169.583 44.8938 168.261 48.7235L159.201 45.5462C160.527 41.7673 159.196 39.2991 157.433 35.7176C156.617 34.0542 156.142 32.2447 156.036 30.3952C155.929 28.5458 156.193 26.6937 156.812 24.9476Z" fill="#FBE556"/>
<path d="M168.172 49.0761L159.123 45.8999C159.075 45.8854 159.032 45.8605 158.995 45.8269C158.959 45.7934 158.93 45.7521 158.912 45.706C158.897 45.6602 158.892 45.6116 158.897 45.5636C158.903 45.5156 158.918 45.4693 158.942 45.4277C160.167 41.9296 159.055 39.6662 157.354 36.2524L157.182 35.8918C156.335 34.1878 155.839 32.3308 155.724 30.4313C155.609 28.5317 155.877 26.6285 156.513 24.8347C157.134 23.03 158.114 21.3695 159.393 19.9528C160.673 18.5362 162.225 17.3926 163.957 16.5906C165.686 15.7777 167.561 15.323 169.47 15.2538C171.379 15.1847 173.282 15.5026 175.065 16.1883C178.483 17.4804 181.275 20.0334 182.868 23.3218C184.46 26.6103 184.731 30.384 183.626 33.8664C183.043 35.731 182.08 37.4547 180.798 38.9289C179.516 40.403 177.943 41.5958 176.177 42.4319L175.487 42.7593C172.302 44.3043 169.919 45.4033 168.712 48.833C168.68 48.9272 168.614 49.0061 168.527 49.0543C168.46 49.0617 168.392 49.0544 168.328 49.0327L168.172 49.0761ZM164.218 17.3332C162.58 18.0927 161.111 19.1741 159.899 20.5131C158.688 21.852 157.758 23.4211 157.165 25.1269C156.561 26.8266 156.306 28.6305 156.414 30.431C156.523 32.2314 156.993 33.9916 157.797 35.6065L157.979 35.9682C159.627 39.3158 160.85 41.7623 159.714 45.3607L168.068 48.2801C169.449 44.8291 171.928 43.6702 175.104 42.1242L175.793 41.7968C177.465 41.0047 178.955 39.8745 180.168 38.4776C181.381 37.0806 182.292 35.4472 182.841 33.6806C183.893 30.381 183.638 26.8037 182.129 23.6865C180.621 20.5692 177.974 18.1496 174.734 16.9267C173.651 16.5186 172.521 16.2472 171.371 16.1188C168.921 15.8643 166.447 16.2842 164.218 17.3332Z" fill="black"/>
<path d="M168.494 50.8411L169.959 46.6146L159.242 42.855L157.777 47.0814C157.279 48.5026 157.365 50.0634 158.018 51.4207C158.67 52.7779 159.835 53.8207 161.255 54.3196C162.677 54.8177 164.237 54.7311 165.595 54.0788C166.952 53.4265 167.995 52.262 168.494 50.8411Z" fill="white"/>
<path d="M161.688 54.8792L160.555 54.4744C159.193 53.9915 158.078 52.9895 157.452 51.6871C156.827 50.3848 156.742 48.8878 157.216 47.5231L158.903 42.7373C158.919 42.6905 158.944 42.6473 158.976 42.6102C159.009 42.5732 159.049 42.5431 159.093 42.5217C159.138 42.5003 159.186 42.488 159.236 42.4856C159.285 42.4831 159.334 42.4906 159.381 42.5076L170.097 46.2672C170.144 46.2817 170.188 46.3066 170.224 46.3402C170.261 46.3737 170.289 46.415 170.307 46.4611C170.331 46.5041 170.345 46.5518 170.348 46.6008C170.352 46.6498 170.344 46.6989 170.327 46.7448L168.639 51.5405C168.403 52.2166 168.036 52.8393 167.559 53.3727C167.081 53.9061 166.503 54.3396 165.857 54.6482C164.943 55.0881 163.924 55.2631 162.915 55.1534C162.497 55.1052 162.086 55.0133 161.688 54.8792ZM159.482 43.3333L157.924 47.771C157.512 48.948 157.584 50.2401 158.124 51.3641C158.663 52.4881 159.627 53.3522 160.803 53.767L161.937 54.1619C162.52 54.3697 163.138 54.4597 163.757 54.4268C164.375 54.3938 164.981 54.2385 165.538 53.9698C166.096 53.7035 166.595 53.3287 167.006 52.8673C167.417 52.406 167.732 51.8673 167.933 51.2827L169.491 46.8451L159.482 43.3333Z" fill="black"/>
<path d="M168.051 48.248C168.08 48.2515 168.108 48.2447 168.132 48.2289C168.156 48.213 168.173 48.1891 168.181 48.1616C168.187 48.1464 168.19 48.1301 168.19 48.1137C168.19 48.0973 168.186 48.0812 168.179 48.0663C168.172 48.0514 168.162 48.0381 168.15 48.0271C168.138 48.0162 168.123 48.0079 168.108 48.0027L159.844 45.093C159.813 45.0832 159.78 45.0853 159.75 45.0989C159.721 45.1124 159.698 45.1364 159.685 45.1662C159.675 45.1971 159.677 45.2304 159.691 45.2598C159.705 45.2892 159.729 45.3125 159.758 45.3251L168.022 48.2348L168.051 48.248Z" fill="black"/>
<path d="M172.508 35.5551C172.537 35.5586 172.565 35.5518 172.589 35.5359C172.613 35.5201 172.631 35.4962 172.638 35.4686C172.645 35.4535 172.648 35.4372 172.647 35.4208C172.647 35.4044 172.643 35.3883 172.636 35.3734C172.629 35.3585 172.619 35.3452 172.607 35.3342C172.595 35.3233 172.581 35.315 172.565 35.3098L164.301 32.4001C164.27 32.3903 164.237 32.3924 164.208 32.406C164.178 32.4195 164.155 32.4435 164.142 32.4733C164.136 32.4885 164.133 32.5048 164.134 32.5212C164.134 32.5376 164.138 32.5537 164.145 32.5686C164.151 32.5835 164.161 32.5968 164.173 32.6077C164.186 32.6187 164.2 32.627 164.216 32.6322L172.48 35.5419L172.508 35.5551Z" fill="black"/>
<path d="M176.368 11.5115C176.453 11.5209 176.538 11.5015 176.611 11.4565C176.683 11.4115 176.738 11.3433 176.767 11.2632L178.547 6.17568C178.579 6.08183 178.572 5.97942 178.529 5.89022C178.487 5.80102 178.411 5.7321 178.318 5.69809C178.224 5.66664 178.121 5.67304 178.032 5.71595C177.943 5.75885 177.874 5.83488 177.84 5.92784L176.06 11.0153C176.043 11.0617 176.036 11.111 176.038 11.1604C176.04 11.2097 176.053 11.2581 176.074 11.3026C176.095 11.3471 176.126 11.3869 176.163 11.4196C176.2 11.4523 176.243 11.4772 176.29 11.493L176.368 11.5115Z" fill="black"/>
<path d="M160.361 11.4522C160.432 11.46 160.503 11.4468 160.566 11.4141C160.611 11.3933 160.652 11.3636 160.686 11.3267C160.719 11.2898 160.745 11.2466 160.761 11.1995C160.778 11.1524 160.784 11.1025 160.781 11.0528C160.778 11.0031 160.764 10.9545 160.742 10.9101L158.412 6.06008C158.391 6.01478 158.361 5.97415 158.324 5.94062C158.288 5.9071 158.244 5.88136 158.197 5.86497C158.15 5.84859 158.1 5.84189 158.051 5.84526C158.001 5.84863 157.952 5.86199 157.908 5.88458C157.818 5.92868 157.75 6.0063 157.717 6.10062C157.684 6.19494 157.69 6.29839 157.732 6.3886L160.062 11.2386C160.091 11.2955 160.134 11.3446 160.186 11.3817C160.238 11.4188 160.298 11.443 160.361 11.4522Z" fill="black"/>
<path d="M150.65 22.1357C150.734 22.1465 150.819 22.1274 150.89 22.0818C150.961 22.0362 151.014 21.967 151.039 21.8863C151.056 21.8399 151.064 21.7906 151.061 21.7413C151.059 21.6919 151.047 21.6436 151.025 21.5991C151.004 21.5546 150.974 21.5148 150.937 21.4821C150.9 21.4494 150.856 21.4244 150.81 21.4087L145.732 19.6298C145.638 19.5984 145.536 19.6048 145.447 19.6477C145.357 19.6906 145.288 19.7666 145.254 19.8595C145.223 19.9534 145.229 20.0558 145.272 20.145C145.315 20.2342 145.391 20.3032 145.484 20.3372L150.562 22.1161L150.65 22.1357Z" fill="black"/>
<path d="M188.112 21.1867C188.178 21.1963 188.246 21.1862 188.306 21.1576L193.167 18.819C193.211 18.798 193.25 18.7686 193.283 18.7325C193.316 18.6963 193.341 18.654 193.357 18.6081C193.373 18.5623 193.38 18.5136 193.377 18.465C193.375 18.4164 193.363 18.3688 193.342 18.3249C193.321 18.2796 193.291 18.239 193.254 18.2055C193.217 18.1719 193.174 18.1462 193.127 18.1298C193.08 18.1134 193.03 18.1067 192.98 18.1101C192.931 18.1135 192.882 18.1269 192.838 18.1495L187.988 20.4792C187.942 20.5 187.902 20.5297 187.868 20.5666C187.835 20.6035 187.809 20.6467 187.792 20.6938C187.776 20.7409 187.769 20.7908 187.773 20.8405C187.776 20.8902 187.789 20.9387 187.812 20.9831C187.84 21.0399 187.883 21.0885 187.935 21.1242C187.988 21.1598 188.049 21.1814 188.112 21.1867Z" fill="black"/>
<path d="M194.087 37.387C194.172 37.3982 194.258 37.3796 194.331 37.3343C194.404 37.289 194.459 37.2199 194.486 37.1386C194.518 37.0448 194.511 36.9423 194.468 36.8531C194.425 36.7639 194.349 36.695 194.256 36.661L189.169 34.881C189.075 34.8496 188.973 34.856 188.883 34.8989C188.794 34.9418 188.725 35.0178 188.691 35.1108C188.66 35.2046 188.666 35.307 188.709 35.3962C188.752 35.4854 188.828 35.5544 188.921 35.5884L194.009 37.3684L194.087 37.387Z" fill="black"/>
<path d="M166.575 45.5426C166.657 45.5501 166.739 45.5308 166.809 45.4876C166.879 45.4444 166.933 45.3797 166.963 45.3032C166.972 45.2137 170.69 36.0919 176.332 33.6873C176.424 33.6485 176.496 33.5753 176.535 33.4836C176.573 33.3919 176.573 33.2888 176.537 33.1965C176.517 33.1499 176.489 33.1076 176.454 33.072C176.418 33.0364 176.376 33.0082 176.329 32.9891C176.283 32.97 176.233 32.9604 176.182 32.9607C176.132 32.9611 176.082 32.9715 176.036 32.9912C170.107 35.5256 166.421 44.6408 166.261 45.0056C166.242 45.0511 166.233 45.0999 166.233 45.1491C166.234 45.1983 166.244 45.2469 166.263 45.2921C166.283 45.3373 166.311 45.3782 166.346 45.4124C166.382 45.4465 166.424 45.4732 166.47 45.491L166.575 45.5426Z" fill="black"/>
<path d="M162.747 44.2013C162.835 44.21 162.923 44.188 162.996 44.1391C163.069 44.0902 163.123 44.0174 163.149 43.9331C163.273 43.5341 166.087 34.113 163.033 28.4299C163.01 28.386 162.979 28.3471 162.941 28.3154C162.903 28.2837 162.86 28.2599 162.812 28.2454C162.765 28.2309 162.716 28.226 162.667 28.231C162.618 28.2359 162.57 28.2506 162.527 28.2743C162.44 28.3218 162.375 28.4013 162.346 28.4958C162.317 28.5903 162.326 28.6924 162.371 28.7804C165.274 34.1857 162.459 43.6167 162.428 43.714C162.4 43.8095 162.411 43.9123 162.458 44.0002C162.504 44.088 162.584 44.154 162.679 44.1838L162.747 44.2013Z" fill="black"/>
<path d="M176.118 33.7146C176.203 33.724 176.289 33.7046 176.361 33.6596C176.433 33.6146 176.489 33.5465 176.518 33.4663C176.549 33.3725 176.543 33.27 176.5 33.1808C176.457 33.0916 176.381 33.0227 176.288 32.9887C175.92 32.8582 175.809 32.5846 175.639 32.1134C175.582 31.8169 175.451 31.5395 175.259 31.3074C175.066 31.0752 174.817 30.896 174.535 30.7865C174.246 30.6989 173.939 30.6849 173.642 30.7458C173.346 30.8067 173.069 30.9405 172.838 31.1352C172.417 31.4012 172.16 31.5443 171.802 31.4148C171.443 31.2854 171.322 31.0107 171.162 30.5407C171.101 30.2436 170.967 29.9662 170.773 29.7328C170.579 29.4995 170.331 29.3175 170.05 29.2027C169.76 29.1195 169.454 29.1078 169.159 29.1685C168.863 29.2292 168.586 29.3606 168.353 29.5514C167.941 29.8185 167.684 29.9616 167.316 29.8311C166.948 29.7005 166.836 29.4369 166.676 28.9668C166.615 28.6698 166.481 28.3923 166.287 28.159C166.093 27.9257 165.845 27.7436 165.564 27.6289C165.276 27.5423 164.971 27.5289 164.676 27.59C164.381 27.6511 164.106 27.7846 163.876 27.9786C163.455 28.2447 163.198 28.3878 162.84 28.2583C162.794 28.2414 162.744 28.2339 162.695 28.2363C162.646 28.2388 162.597 28.251 162.553 28.2725C162.508 28.2939 162.469 28.324 162.436 28.361C162.403 28.3981 162.378 28.4412 162.362 28.4881C162.346 28.5345 162.338 28.5838 162.34 28.6331C162.343 28.6825 162.355 28.7308 162.377 28.7753C162.398 28.8198 162.428 28.8596 162.465 28.8923C162.502 28.925 162.545 28.95 162.592 28.9657C162.88 29.0523 163.186 29.0657 163.48 29.0046C163.775 28.9435 164.05 28.81 164.28 28.616C164.701 28.3499 164.958 28.2068 165.316 28.3363C165.674 28.4657 165.805 28.7415 165.965 29.2115C166.025 29.5067 166.157 29.7824 166.35 30.014C166.542 30.2456 166.789 30.4258 167.069 30.5385C167.358 30.627 167.665 30.6414 167.962 30.5805C168.258 30.5196 168.535 30.3852 168.766 30.1898C169.187 29.9237 169.444 29.7806 169.802 29.9101C170.161 30.0395 170.292 30.3153 170.452 30.7854C170.509 31.0826 170.64 31.3607 170.832 31.5942C171.025 31.8278 171.273 32.0093 171.554 32.1222C171.844 32.2063 172.15 32.2184 172.446 32.1577C172.741 32.0969 173.018 31.9651 173.251 31.7736C173.672 31.5075 173.929 31.3644 174.288 31.4939C174.646 31.6233 174.767 31.898 174.938 32.3592C174.995 32.6564 175.126 32.9345 175.319 33.168C175.511 33.4016 175.759 33.5831 176.04 33.6961L176.118 33.7146Z" fill="black"/>
</g>
<path d="M46.3772 54.3542C46.6875 52.7302 48.7972 50.6668 50.5216 50.6175C51.3416 50.5955 52.5522 50.9486 52.9049 51.5339C53.2575 52.1192 53.1272 53.5941 52.6298 54.0598C51.4284 55.2102 50.0235 56.1271 48.4867 56.7638C46.9566 57.3687 46.0355 56.1705 46.3772 54.3542ZM51.1676 51.5696C49.3073 51.3347 47.1207 53.2641 47.3099 54.829C47.3536 55.1893 48.2875 55.82 48.4559 55.7183C49.6513 55.0474 50.9279 54.3671 51.8406 53.3805C52.7533 52.3939 52.0676 51.7088 51.1713 51.5702L51.1676 51.5696Z" fill="black"/>
<path d="M52.416 59.4018C52.2129 59.1333 51.5093 58.6047 51.427 57.9913C51.3054 57.0374 53.3376 55.379 54.1573 55.7784C54.859 56.1321 55.6638 57.0417 55.7657 57.7912C55.8945 58.864 54.2869 59.6879 52.416 59.4018ZM52.465 58.0998L53.0566 58.8494L54.8374 57.8487L53.7903 56.5388L52.465 58.0998Z" fill="black"/>
<path d="M7.51259 25.0991C8.41969 23.7377 9.20892 22.2767 10.2933 21.0766C10.6259 20.7062 11.7486 21.0465 12.5747 21.3548C9.86383 21.6039 9.90098 24.5593 8.31658 25.7724L7.51259 25.0991Z" fill="black"/>
<path d="M47.4819 9.11838C50.3366 6.66688 52.2268 6.71651 53.2989 9.0716C52.4085 8.93191 51.3902 8.59217 50.4106 8.68261C49.431 8.77305 48.5612 9.32283 47.6394 9.67188L47.4819 9.11838Z" fill="black"/>
<path d="M8.92624 20.4402L6.46547 24.2493C6.20143 23.8483 5.77673 23.4041 5.85352 23.2788C6.61166 22.1061 7.42836 21.0034 8.23577 19.8761L8.92624 20.4402Z" fill="black"/>
<path d="M48.85 5.97947C51.3344 4.8784 52.1437 5.15301 52.8041 6.73831L48.85 5.97947Z" fill="black"/>
<path d="M54.0816 20.0278C56.9897 21.1146 57.4721 23.2562 57.0048 25.7895C56.4395 28.8368 53.7605 30.1117 50.9515 28.7469C49.9705 28.2729 48.9124 27.9762 47.8927 27.601L47.6537 28.0281C47.9827 28.3043 48.2745 28.7468 48.6547 28.8513C50.4667 29.4034 50.7173 30.679 50.5643 32.3279C50.1386 36.8972 49.2725 41.3408 47.3297 45.5228C45.6891 49.0534 43.0015 49.967 39.5249 48.0775C35.9292 46.117 32.3898 44.051 28.8477 41.978C27.8686 41.403 27.0088 40.6987 27.7148 39.2612C27.9802 38.7239 27.7759 37.9517 27.7707 37.2924L26.0563 38.7231L24.3444 38.3294C24.9598 39.2986 25.3584 39.9491 25.7525 40.5453C24.1919 42.054 21.5077 42.4052 20.1058 41.317C18.1974 39.8436 17.5944 37.8599 18.8531 35.8925C17.8062 36.0485 17.0578 36.3159 16.3522 36.2304C15.0639 36.0771 13.4914 36.0834 12.61 35.3432C11.5478 34.4431 10.8269 32.8566 12.1547 31.368L14.5764 32.3344C13.5054 30.4798 12.5767 29.0643 11.8586 27.5489C11.556 26.8653 11.5107 26.0955 11.731 25.3811C12.0073 24.6526 12.5439 24.0525 13.2371 23.6967C13.5971 23.5364 14.4062 24.1597 14.8879 24.5744C17.4228 26.7603 19.8637 29.0579 22.4563 31.1739C23.2105 31.79 24.3466 31.9328 25.4687 32.3455C25.464 31.7301 25.5081 31.529 25.4571 31.5002C23.6365 30.5867 23.5214 30.1134 24.7102 28.3848C25.814 26.7443 27.4835 25.5679 29.3997 25.0803C31.3159 24.5927 33.3446 24.8281 35.0983 25.7415C36.2543 26.3497 36.5256 25.754 36.8075 24.8899C37.6555 22.3247 39.6735 21.0395 42.0562 20.2415C43.7953 19.6591 45.3526 20.2475 46.8485 21.256L45.7968 23.7701C48.295 22.4514 49.0396 20.6186 49.1832 18.5004C49.2871 16.9543 49.1719 15.3909 49.184 13.8355C49.1946 12.7415 49.3333 11.2984 50.6499 11.5051C51.7383 11.6701 52.8521 12.6749 53.6323 13.5817C54.4125 14.4885 54.0471 15.4283 52.8543 15.9401C52.658 16.0144 52.5492 16.2881 52.0018 16.9482C53.0079 16.6634 53.5817 16.6545 53.9439 16.3731C54.8457 15.6749 55.8153 15.6003 56.4168 16.4585C56.6303 16.8093 56.7694 17.2003 56.8256 17.6071C56.8818 18.0139 56.8538 18.4279 56.7433 18.8235C56.6113 19.2261 55.4991 19.2946 54.8402 19.5441C54.5787 19.6914 54.3255 19.8529 54.0816 20.0278Z" fill="white"/>
<path d="M52.1013 30.5556C51.481 33.9444 50.9905 37.1997 50.2595 40.4019C49.7734 42.3382 49.1284 44.231 48.3311 46.0613C46.9318 49.4564 44.4647 50.8996 41.0342 49.682C37.7911 48.5257 34.7395 46.7318 31.6795 45.0854C30.2102 44.2953 28.9196 43.173 27.5069 42.2573C27.1209 41.9961 26.6513 41.8881 26.19 41.9545C20.0142 43.6359 18.8013 43.0893 16.4543 37.41C14.4575 37.3646 12.4857 37.4381 11.1181 35.287C10.205 33.8495 10.3317 32.7235 10.8105 31.2999C11.0854 30.4828 11.1172 29.6035 10.9019 28.7687C10.4581 27.2897 10.0641 25.9001 10.9082 24.4464C12.0694 22.4438 14.0406 22.2944 15.6718 23.9249C17.7951 26.0502 20.0622 28.037 22.3231 30.1343C26.1802 24.4459 29.4989 23.093 35.4551 24.4402C39.5907 18.8948 42.067 18.0052 47.7808 20.3419C47.9054 18.7238 48.0388 17.2346 48.1221 15.7404C48.1541 15.3275 47.9899 14.8727 48.0035 14.4428C48.0509 12.8219 47.9348 11.0866 50.0217 10.5127C50.9382 10.277 51.9094 10.3872 52.7498 10.8222C53.5902 11.2573 54.2409 11.9867 54.5775 12.8711C55.0435 14.1252 55.9415 15.1719 57.1101 15.8233C58.6672 16.7605 58.2276 18.2454 57.7641 19.6671C57.5983 20.2028 57.308 20.9179 57.5163 21.3199C59.516 25.119 58.0068 30.6156 52.1013 30.5556ZM54.0816 20.0277C54.3362 19.8615 54.5997 19.7096 54.871 19.5725C55.5299 19.323 56.6421 19.2545 56.7741 18.8518C56.8846 18.4563 56.9126 18.0423 56.8564 17.6355C56.8003 17.2287 56.6611 16.8377 56.4476 16.4869C55.8461 15.6287 54.8766 15.7033 53.9748 16.4014C53.6125 16.6829 53.0388 16.6917 52.0326 16.9766C52.5836 16.3151 52.6902 16.0463 52.8851 15.9685C54.0832 15.4707 54.4125 14.4884 53.6631 13.6101C52.9138 12.7317 51.7678 11.6949 50.6807 11.5335C49.3642 11.3268 49.2254 12.7699 49.2149 13.8639C49.2028 15.4193 49.3179 16.9827 49.2141 18.5288C49.0705 20.647 48.3232 22.4728 45.8277 23.7985L46.8793 21.2843C45.3729 20.2799 43.8156 19.6914 42.087 20.2698C39.7043 21.0679 37.6635 22.3456 36.8383 24.9183C36.5565 25.7824 36.2851 26.3781 35.1291 25.7699C33.3754 24.8565 31.3467 24.6211 29.4305 25.1087C27.5143 25.5963 25.8448 26.7727 24.7411 28.4132C23.5522 30.1417 23.6713 30.6256 25.488 31.5286C25.5376 31.5539 25.4949 31.7584 25.4995 32.3738C24.3844 31.9585 23.2413 31.8183 22.4871 31.2023C19.8945 29.0863 17.4536 26.7887 14.9187 24.6028C14.4371 24.1881 13.628 23.5647 13.2679 23.7251C12.5747 24.0809 12.0381 24.681 11.7618 25.4095C11.5415 26.1238 11.5869 26.8937 11.8894 27.5773C12.6075 29.0926 13.5363 30.5082 14.6072 32.3628L12.1855 31.3964C10.8577 32.885 11.5787 34.4714 12.6409 35.3716C13.5188 36.1131 15.0948 36.1054 16.3831 36.2588C17.0887 36.3442 17.837 36.0769 18.884 35.9209C17.6266 37.8918 18.2317 39.8707 20.1366 41.3454C21.5332 42.4195 24.2227 42.0823 25.7833 40.5737C25.3945 39.9595 24.9946 39.3375 24.3752 38.3578L26.0872 38.7515L27.8016 37.3208C27.7927 37.9854 27.997 38.7576 27.7456 39.2896C27.0397 40.7271 27.8995 41.4314 28.8786 42.0064C32.4136 44.082 35.9574 46.1384 39.5557 48.1059C43.0183 50.0006 45.7133 49.0643 47.3605 45.5512C49.3034 41.3691 50.1668 36.9186 50.5951 32.3563C50.7442 30.6969 50.4835 29.4371 48.6855 28.8796C48.3 28.7611 48.0135 28.3326 47.6845 28.0565L47.9235 27.6293C48.9432 28.0046 50.0048 28.2999 50.9823 28.7753C53.7913 30.1401 56.4704 28.8651 57.0356 25.8179C57.4827 23.2522 57.0003 21.1105 54.0816 20.0277Z" fill="black"/>
<path d="M51.1713 51.5703C52.0664 51.7163 52.7429 52.4113 51.8443 53.3812C50.9457 54.351 49.6735 55.0511 48.4596 55.719C48.2838 55.8194 47.3573 55.19 47.3136 54.8297C47.1244 53.2648 49.2999 51.3336 51.1713 51.5703Z" fill="white"/>
<path d="M52.4637 58.1071L53.7872 56.5572L54.8343 57.867L53.0536 58.8678L52.4637 58.1071Z" fill="white"/>
</g>
<defs>
<clipPath id="clip0_262_9764">
<rect width="207" height="280" fill="white"/>
</clipPath>
<clipPath id="clip1_262_9764">
<rect width="50.83" height="52.42" fill="white" transform="translate(144 4)"/>
</clipPath>
</defs>
</svg>
