<svg width="150" height="165" viewBox="0 0 150 165" fill="none" xmlns="http://www.w3.org/2000/svg">
<g clip-path="url(#clip0_315_8438)">
<path d="M63.3919 80.3448C63.2328 77.9857 65.767 75.6277 67.0393 73.8141C68.7218 71.4112 70.5192 69.1124 72.4408 66.8844C76.2829 62.2362 80.4722 57.8855 84.9729 53.8694C93.766 46.2742 103.651 40.6671 113.806 35.1215C118.381 32.6247 123.005 30.0839 127.757 27.9315C128.483 27.6033 130.562 26.562 130.956 26.6725C132.097 26.9929 131.722 26.9954 131.676 28.0319C131.511 29.0026 131.26 29.9568 130.926 30.8834C130.242 33.7318 129.66 36.6017 128.934 39.4455C125.971 51.1348 121.412 62.3545 116.375 73.2967C113.769 78.9407 110.991 84.2203 107.889 89.6031C104.691 95.1745 102.26 101.091 99.1267 106.687C98.7728 107.307 100.755 107.583 101.097 106.981C104.228 101.391 106.668 95.4419 109.859 89.8972C113.05 84.3524 115.919 78.8252 118.626 72.9507C124.153 60.953 128.909 48.624 131.893 35.7043C132.219 34.2864 132.509 32.8657 132.848 31.4515C133.188 30.0373 133.97 28.4815 133.992 27.0933C134.002 26.0037 133.833 25.5538 132.69 25.2905C131.218 24.9421 129.342 25.9035 128.05 26.4252C125.063 27.5996 122.229 29.2049 119.379 30.662C108.239 36.3267 97.3244 42.191 87.427 49.8718C81.7713 54.3723 76.5679 59.4116 71.8904 64.9187C69.6355 67.5132 67.4504 70.1416 65.4567 72.9603C64.0009 75.0172 61.2146 77.6063 61.3858 80.2562C61.4325 80.9881 63.4752 80.9719 63.4306 80.2838L63.3919 80.3448Z" fill="black"/>
<path d="M60.9205 80.8877C65.7072 83.4383 69.3953 87.1326 73.6113 90.5365C77.8273 93.9404 82.0682 97.3585 86.2626 100.814C89.4 103.39 92.7132 108.086 96.7178 109.318C98.8011 109.953 99.4349 108.952 100.364 107.207C100.715 106.544 98.7171 106.3 98.3937 106.913C97.3187 108.947 96.6893 108.059 94.8928 106.556C93.4186 105.316 92.1376 103.85 90.688 102.573C87.4884 99.7563 84.105 97.1322 80.7901 94.4699C74.792 89.5884 69.1558 83.8022 62.3501 80.182C61.7799 79.8782 59.891 80.3473 60.9005 80.8821L60.9205 80.8877Z" fill="black"/>
<path d="M95.2681 43.5906C95.1773 43.7089 95.0798 43.8253 94.9823 43.9417L96.7049 43.7063C92.3185 41.9364 88.0121 39.8296 83.1545 39.7388C78.7082 39.692 74.3353 40.8612 70.5096 43.1195C65.8894 45.7763 61.7561 49.5471 57.8839 53.1828C54.1604 56.6734 49.2445 60.6919 47.5403 65.6618C47.5107 65.7291 47.5044 65.8043 47.5221 65.8756C47.5399 65.9469 47.5809 66.0103 47.6386 66.056C49.8578 67.9006 52.8265 68.1011 55.5102 68.8038C56.9456 69.2065 58.381 69.6093 59.8557 69.8721C62.1324 70.3313 64.6369 70.1068 66.8239 70.7061C67.5382 70.9065 69.1315 70.182 67.8678 69.8346C64.9902 69.0272 62.007 69.2898 59.0891 68.6005C56.7929 68.1738 54.5211 67.6252 52.2833 66.9568C49.852 66.0733 49.5865 65.0429 50.8447 63.0743C51.87 61.6106 53.0398 60.2533 54.3366 59.0229C56.3618 56.9389 58.3814 54.8749 60.4957 52.9095C64.7221 49.0641 69.2529 44.801 74.6035 42.4929C81.9296 39.3304 88.2853 41.6025 95.2286 44.3989C95.5016 44.5408 95.8111 44.5975 96.1166 44.5614C96.4222 44.5254 96.7097 44.3983 96.9417 44.1968C97.0392 44.0804 97.13 43.9621 97.2256 43.8524C97.6438 43.3372 95.705 43.0088 95.2574 43.5517L95.2681 43.5906Z" fill="black"/>
<path d="M122.136 62.4931C126.221 68.4693 129.881 75.3685 130.899 82.5974C131.917 89.8262 129.026 96.7701 126.299 103.408C125.001 106.517 123.46 109.519 121.691 112.386C121.33 113.004 120.465 115.471 119.824 115.909C118.03 117.167 116.71 114.173 115.974 113.125C111.99 107.508 108.39 101.653 106.43 95.0588C106.239 94.4302 104.224 94.5261 104.453 95.3019C105.706 99.3705 107.469 103.265 109.699 106.894C111.669 110.142 113.775 113.953 116.288 116.779C120.481 121.448 123.628 112.772 125.207 110.124C127.364 106.375 129.136 102.417 130.495 98.3108C131.804 94.5166 133.327 90.0637 133.257 86.0262C133.111 77.4608 128.822 69.1847 124.088 62.2358C123.7 61.667 121.719 61.9016 122.116 62.4875L122.136 62.4931Z" fill="black"/>
<path d="M114.794 51.5708C112.842 47.6449 106.643 47.3791 103.008 48.7311C97.4271 50.8091 97.2798 57.5456 100.756 61.6115C103.947 65.3316 108.974 67.5114 112.642 63.0637C114.378 60.979 115.363 58.3728 115.439 55.6619C115.47 54.0389 115.681 51.1801 114.289 50.0061C113.801 49.5889 111.837 49.9147 112.524 50.4956C114.054 51.7945 113.525 56.9648 112.978 58.5796C112.495 60.0206 111.766 61.3674 110.824 62.5608C110.545 62.9841 110.197 63.3577 109.794 63.6661L105.251 63.6851C104.578 63.2451 103.98 62.7012 103.478 62.0735C101.08 59.7116 99.4061 56.0507 100.941 52.7366C102.816 48.6197 110.609 47.2844 112.856 51.8033C113.16 52.4133 115.162 52.2348 114.828 51.5516L114.794 51.5708Z" fill="#F4AD7C"/>
<path d="M99.9823 73.9151C99.4744 70.4375 93.154 68.5275 90.1626 68.8957C87.5347 69.2357 85.1292 70.5417 83.4163 72.5586C81.378 75.2283 82.9659 78.707 84.4825 81.3104C86.9158 85.4719 92.0482 89.4348 96.698 86.082C99.198 84.2822 100.2 81.6597 100.156 78.7364C100.12 76.606 100.581 73.9107 98.7039 72.4136C98.2037 72.0144 96.2446 72.3488 96.9389 72.903C98.6318 74.2621 98.6058 79.7963 97.9119 81.6789C97.6229 82.314 97.2635 82.9147 96.8404 83.4698C95.5275 85.3511 95.4043 85.3022 92.7893 85.3303C90.1742 85.3584 90.1475 85.3509 88.6547 83.8179C87.815 82.9839 87.0777 82.0531 86.4582 81.0453C85.6896 79.6826 85.1033 78.2253 84.7144 76.7107C83.928 73.8666 85.8164 71.8593 88.3062 70.6604C90.6308 69.5373 97.4066 70.2095 97.9431 73.8675C98.0499 74.6163 100.079 74.5459 99.9879 73.8951L99.9823 73.9151Z" fill="#F4AD7C"/>
<path d="M69.8076 87.126C67.396 89.2963 64.8219 91.2796 62.1076 93.0586C60.87 93.8757 56.5964 96.3494 56.5993 98.1615C56.5979 99.7064 59.6026 100.78 60.6385 101.451C64.1525 103.738 67.5889 106.147 71.0783 108.47C73.8098 110.286 76.3519 112.315 79.0387 114.161C79.9334 114.771 80.9474 115.624 82.0803 115.18C83.8394 114.48 84.6292 110.921 85.2462 109.441C86.4216 106.587 87.8851 103.835 88.4004 100.767C88.5139 100.08 86.6292 100.097 86.3996 100.608L86.351 100.781C86.0251 101.48 88.0329 101.692 88.3144 101.073L88.363 100.9L86.3622 100.741C85.9151 103.541 84.6328 106.006 83.5445 108.576C83.0723 109.694 82.6783 110.841 82.1679 111.941C82.1679 111.941 80.4232 114.643 81.7318 114.112C81.0732 114.38 76.858 110.588 75.997 110.037C73.5714 108.415 71.1344 106.833 68.7563 105.195C66.6547 103.753 64.545 102.322 62.4271 100.904C61.7351 100.444 60.284 99.7632 59.729 99.0972C59.0734 99.021 58.9029 98.6785 59.2245 98.0716C59.1741 97.8063 59.2167 97.5319 59.345 97.2944C59.4733 97.0569 59.6795 96.8707 59.9291 96.7671C61.34 94.8701 63.8205 93.7046 65.7212 92.3979C67.7878 90.9507 69.7534 89.365 71.6046 87.6518C72.2728 87.0415 70.3215 86.6808 69.8466 87.1154L69.8076 87.126Z" fill="black"/>
<path d="M64.0172 108.25C59.3325 104.642 50.8837 110.164 47.8399 113.773C47.5456 114.129 48.3898 114.38 48.5471 114.41C49.239 114.522 49.9432 114.535 50.6387 114.451C50.3407 114.46 54.3693 114.297 54.5584 114.573C55.355 115.738 51.2229 121.019 50.6738 122.18C49.6068 124.468 49.3969 126.731 49.0785 129.2C48.9102 130.518 47.8667 134.366 48.6647 135.603C50.0331 137.734 53.518 134.528 54.4994 133.905C56.7812 132.447 59.2505 130.962 61.401 129.33C63.338 127.868 64.6231 125.957 66.1764 124.143L64.3112 124.245C66.5654 125.863 64.5669 129.392 66.2819 130.98C66.5161 131.137 66.7872 131.232 67.0686 131.254C67.3501 131.277 67.6325 131.226 67.8883 131.107C69.7818 130.057 70.7615 127.105 71.1138 125.105C71.8013 121.115 71.2048 116.361 68.9108 112.987C67.8597 111.419 65.7609 108.221 63.6816 108.163C61.3279 108.106 59.1823 111.543 58.4786 113.358C58.3226 113.76 58.8856 113.961 59.1857 113.995C60.8781 114.1 62.5751 113.897 64.1939 113.395L62.6966 112.803C61.6656 116.323 57.1034 118.054 55.6927 121.619C55.6422 121.799 55.6788 121.874 55.791 122.013C59.2669 126.129 70.6504 115.257 66.9832 111.181C66.5473 110.706 64.585 110.975 65.2097 111.675C67.9993 114.772 58.9209 122.639 57.8799 121.37C57.3432 120.716 64.2054 114.663 64.6629 113.11C64.8611 112.404 63.5603 112.42 63.1656 112.517C62.0428 112.778 60.8987 112.938 59.7471 112.996L60.4476 113.631C61.0696 112.03 62.5583 109.522 64.3284 109.092L62.9426 108.897C66.2925 111.691 68.7273 115.206 69.1352 119.605C69.4009 122.482 69.5773 128.656 66.4577 130.353L68.0659 130.474C67.4362 129.895 67.6289 127.412 67.4721 126.584C67.2478 125.407 67.1258 124.482 66.1086 123.743C65.8323 123.546 65.4968 123.448 65.1576 123.467C64.8184 123.485 64.4959 123.619 64.2434 123.845C62.264 126.292 59.9393 128.438 57.3419 130.218C54.9447 131.831 52.3045 134.49 49.5652 135.345L50.951 135.54C50.1266 134.885 50.8175 131.729 50.8996 130.847C51.1279 128.467 51.3448 125.717 52.1968 123.477C53.3335 120.504 56.6435 117.537 56.9088 114.384C56.9536 114.224 56.7302 114.097 56.6145 114.021C54.4481 112.63 51.488 113.862 49.1248 113.429L49.8319 114.066C51.8507 111.671 59.086 106.291 62.2723 108.745C62.7762 109.131 64.7372 108.79 64.0392 108.249L64.0172 108.25Z" fill="#F4AD7C"/>
<path d="M104.16 48.1699C102.618 48.9664 102.279 51.358 101.852 52.8771C101.344 54.6895 100.019 57.5377 100.625 59.4328C100.761 59.8449 102.106 59.7765 101.94 59.2628C101.459 57.7693 102.523 55.466 102.901 54.0412C103.266 52.7419 103.693 49.3973 105.13 48.6649C105.804 48.3151 104.561 47.9733 104.173 48.1736L104.16 48.1699Z" fill="#F4AD7C"/>
<path d="M107.885 49.3446L107.982 49.1778C108.227 48.7433 106.897 48.5787 106.669 48.9818C104.391 52.993 102.259 57.613 101.791 62.283C101.747 62.7234 102.735 62.6413 102.952 62.5367C103.104 62.4886 103.243 62.4068 103.358 62.2973C103.474 62.1878 103.563 62.0535 103.619 61.9045C103.861 61.4767 102.534 61.3054 102.306 61.7085L101.995 62.0454L103.155 62.2992C103.615 57.6843 105.722 53.1509 107.982 49.1778L106.669 48.9818L106.572 49.1486C106.334 49.585 107.663 49.7496 107.885 49.3446Z" fill="#F4AD7C"/>
<path d="M109.918 49.182C107.16 53.008 104.433 58.1296 103.837 62.8715C103.783 63.3233 105.022 63.319 105.177 62.9742L105.224 62.8076C105.435 62.3352 104.099 62.1972 103.91 62.6116L103.864 62.7782L105.194 62.8857C105.789 58.2009 108.501 53.1544 111.223 49.3829C111.488 49.0043 110.183 48.8035 109.912 49.1802L109.918 49.182Z" fill="#F4AD7C"/>
<path d="M112.271 49.8852C110.759 52.8607 109.318 55.8634 108.102 58.9651C107.493 60.5192 105.971 62.8378 105.981 64.4721C105.984 64.9474 107.348 64.9635 107.345 64.4882C107.338 63.5375 108.223 62.2836 108.562 61.4084C108.977 60.339 109.368 59.2554 109.804 58.1631C110.926 55.3946 112.233 52.7138 113.59 50.0613C113.818 49.6078 112.484 49.4565 112.278 49.8586L112.271 49.8852Z" fill="#F4AD7C"/>
<path d="M113.121 52.1937C112.053 54.1651 111.1 56.1969 110.268 58.2789C109.414 60.4255 108.97 62.673 107.938 64.7622C107.708 65.2224 109.033 65.3499 109.251 64.9583L109.342 64.7896C109.584 64.3617 108.257 64.1905 108.028 64.5936L107.938 64.7622L109.251 64.9583C110.288 62.8557 110.71 60.6311 111.58 58.4816C112.412 56.3974 113.365 54.3634 114.434 52.3897C114.672 51.9533 113.343 51.7887 113.121 52.1937Z" fill="#F4AD7C"/>
<path d="M87.348 70.8156L87.4386 70.6469L86.1318 70.4528C84.898 72.6941 84.8354 75.2784 83.988 77.6569C83.9669 77.7012 83.9617 77.7514 83.9732 77.7991C83.9847 77.8468 84.0122 77.8891 84.0512 77.919L84.2254 78.0685C84.5506 78.3466 85.8571 78.131 85.4055 77.7384C85.2707 77.6287 86.081 74.8948 86.1387 74.6378C86.3717 73.2505 86.8098 71.9055 87.4386 70.6469C87.6829 70.2124 86.3516 70.0544 86.1318 70.4528C86.0966 70.5066 86.0641 70.5623 86.0346 70.6195C85.7921 71.0474 87.1197 71.2187 87.348 70.8156V70.8156Z" fill="#F4AD7C"/>
<path d="M89.5812 69.8897C88.1134 70.7573 87.7414 72.4426 87.1426 73.9349C86.1734 76.3367 84.9174 78.5286 84.7523 81.1704C84.7242 81.6298 85.9307 81.6161 86.0899 81.2798L86.1366 81.1133C86.3484 80.6408 85.0116 80.5029 84.8233 80.9173L84.7766 81.0838L86.1161 81.1866C86.2515 78.8814 87.248 76.9473 88.139 74.8757C88.7402 73.4775 89.1197 71.2265 90.5362 70.3877C91.1932 69.997 89.9524 69.6704 89.5793 69.8964L89.5812 69.8897Z" fill="#F4AD7C"/>
<path d="M90.9261 70.1019C90.2699 72.4406 89.524 74.7398 89.0261 77.1301C88.5609 79.3786 87.4754 81.6041 87.419 83.9098C87.4091 84.3814 88.4678 84.3047 88.6857 84.0927L88.8308 83.9609C89.2733 83.5389 87.9778 83.3047 87.649 83.6294L87.5107 83.763L88.7754 83.9526C88.8257 81.7458 89.9321 79.3681 90.3825 77.1729C90.8699 74.794 91.6444 72.4957 92.2758 70.1428C92.3861 69.7497 91.0503 69.6336 90.9186 70.1286L90.9261 70.1019Z" fill="#F4AD7C"/>
<path d="M93.785 70.9759C91.5998 75.6287 90.1775 80.6024 89.5723 85.707C89.5138 86.1722 90.7346 86.1338 90.9033 85.8146C90.9426 85.6747 91.0438 85.5449 91.1165 85.4144C91.3494 84.9694 90.0181 84.8115 89.8031 85.2183C89.7638 85.3583 89.6626 85.488 89.5966 85.6204L90.9277 85.728C91.5188 80.6816 92.9274 75.7656 95.0984 71.1719C95.3198 70.7165 93.9866 70.5652 93.785 70.9759Z" fill="#F4AD7C"/>
<path d="M96.7505 71.1108C95.2783 76.0237 93.1596 80.597 92.0899 85.6156C92.0905 85.6495 92.0988 85.6829 92.1139 85.7133C92.1291 85.7436 92.1508 85.7702 92.1775 85.7912L92.3468 85.9321C92.6702 86.2169 93.9767 86.0013 93.5251 85.6086C92.7204 84.9085 95.1687 79.2632 95.4382 78.5338C96.3388 76.12 97.3253 73.759 98.0675 71.2935C98.2134 70.7738 96.8787 70.6796 96.7542 71.0974L96.7505 71.1108Z" fill="#F4AD7C"/>
<path d="M98.5368 73.9336C97.3117 77.4783 96.5253 81.333 94.9443 84.7347C94.7277 85.1986 96.0694 85.3451 96.2577 84.9307C97.8302 81.5338 98.6213 77.6877 99.8502 74.1296C99.9941 73.6166 98.6831 73.5147 98.5368 73.9336Z" fill="#F4AD7C"/>
<path d="M117.267 31.8231C118.553 34.5273 120.358 36.9534 122.581 38.9636C124.331 40.4251 126.558 41.2153 128.102 42.7984C128.257 42.9044 128.438 42.968 128.626 42.9829C128.814 42.9978 129.002 42.9634 129.173 42.8832L129.506 42.7468C130.19 42.4644 128.967 42.0998 128.549 42.2555L128.216 42.392L129.28 42.4749C127.822 40.9732 125.749 40.248 124.099 38.9153C121.665 36.9385 120.034 34.4108 118.587 31.6617C118.369 31.2557 117.039 31.3782 117.267 31.8231V31.8231Z" fill="black"/>
<path d="M124.251 30.1604C123.014 30.2588 122.317 30.7893 121.33 31.5617L122.512 31.8933C123.35 31.0614 124.25 30.2927 125.202 29.5935C125.707 29.232 124.402 29.0312 124.141 29.1664C122.719 29.8401 121.333 30.5885 119.99 31.4085L121.165 31.7382C121.9 31.143 122.758 30.7162 123.677 30.4879L122.678 30.0928C122.529 30.7311 122.146 31.2903 121.605 31.6604C121.108 32.1464 122.448 32.1702 122.668 32.0808C123.77 31.6712 124.635 30.7425 125.708 30.332L124.567 30.0117C123.75 31.0967 122.819 32.091 121.79 32.9773C121.307 33.4385 122.673 33.5269 122.972 33.3089C124.731 32.171 126.076 30.5862 127.784 29.4553L126.536 29.1772C126.138 30.5964 125.084 31.35 124.18 32.4405C123.276 33.531 122.668 34.7258 121.533 35.5358L122.715 35.8674C124.026 34.5033 125.378 33.179 126.693 31.8015C127.697 30.7895 128.869 28.9763 130.021 28.2071L128.78 27.9309C127.441 31.2422 124.524 33.5001 122.601 36.425C122.579 36.469 122.573 36.5196 122.585 36.5677C122.596 36.6157 122.625 36.6581 122.665 36.6871C125.172 38.5838 129.516 30.4158 130.797 29.5462L129.559 29.2634C128.701 32.3217 125.316 34.1176 124.104 37.0766C123.89 37.6061 125.113 37.561 125.342 37.3594C127.643 35.3456 128.873 32.4778 131.051 30.3362L129.81 30.06C128.855 31.7183 127.746 33.2612 126.789 34.8976L128.096 35.0918C128.724 33.9597 132.136 29.9361 129.229 29.5158C128.136 29.353 126.98 30.2649 126.131 30.8028C124.309 31.9304 122.912 33.4936 121.207 34.7471L122.388 35.0787C123.455 34.1777 124.711 32.9346 124.137 31.4149C124.089 31.2206 124.003 31.0376 123.884 30.8764C123.765 30.7151 123.616 30.5789 123.444 30.4753C123.272 30.3718 123.082 30.303 122.884 30.2729C122.686 30.2427 122.484 30.2519 122.289 30.2998C118.729 31.3349 124.112 37.6394 124.951 38.7805L126.201 38.5347C124.572 36.6401 123.314 33.5774 121.046 32.3444C120.791 32.2009 120.054 32.1308 119.906 32.4775C119.229 34.07 121.909 36.7122 123.552 35.6566C125.362 34.49 121.972 31.9431 120.882 31.5655C120.729 31.5126 120.565 31.4952 120.403 31.5147C120.242 31.5341 120.087 31.5899 119.951 31.6778C117.857 33.4911 121.325 35.7363 122.895 36.3781C123.166 36.4901 123.868 36.6079 124.035 36.245C125.216 33.7016 116.736 31.1209 120.619 37.0979C121.324 38.1797 122.849 39.8799 124.238 38.832C125.756 37.6838 124.071 32.8555 122.78 32.0404C121.206 31.0526 120.51 32.4312 120.666 33.8766C120.88 35.9635 122.777 39.7014 125.235 39.8736C129.08 40.1332 127.929 32.8383 125.378 35.436C124.27 36.5625 124.38 39.3248 126.289 39.3501C128.873 39.3563 129.859 34.9684 129.483 33.1018C129.412 32.7655 128.867 32.7279 128.619 32.766C126.741 33.0154 125.354 37.5999 126.955 38.696C127.13 38.81 127.333 38.8719 127.542 38.8743C127.75 38.8768 127.955 38.8199 128.132 38.7101C129.835 37.3406 130.992 34.5748 131.194 32.4462C131.231 32.004 129.985 31.9778 129.856 32.3368C129.427 33.6262 129.097 34.9466 128.87 36.2864C128.636 37.5072 127.949 38.9029 128.174 40.1018C128.254 40.534 129.043 40.4965 129.334 40.3555C130.174 39.9299 130.436 39.306 129.864 38.4699C129.636 38.1257 129.052 38.1776 128.729 38.3026C127.991 38.5985 127.037 39.2005 126.289 38.8614L125.328 39.3104C126.539 39.8444 127.756 39.9486 129.001 40.413C129.335 40.5067 130.49 40.2413 129.867 39.8941C128.54 39.1838 127.618 37.926 126.261 37.3442C126.034 37.2805 124.881 37.1294 125.12 37.6637C125.652 39.0276 128.898 41.6779 130.497 40.7537C130.626 40.6819 130.746 40.5863 130.677 40.4231C130.066 39.03 128.28 37.4146 126.633 38.3827C124.744 39.4916 126.818 40.8282 127.961 41.35C128.13 41.4317 128.318 41.4692 128.506 41.4591C128.694 41.449 128.876 41.3916 129.036 41.2923C129.639 40.7859 129.71 39.8643 130.055 39.1203C130.238 38.726 129.431 38.6504 129.225 38.6931C128.056 38.9044 126.24 39.2933 125.453 38.0445C124.778 36.9568 127.238 34.3767 127.629 33.9329C128.911 32.4957 130.406 31.2478 130.631 29.2408C130.685 28.7386 129.572 28.9077 129.366 29.0512C127.884 30.0728 127.296 31.7049 126.448 33.2638C126.188 33.7298 127.463 33.7786 127.689 33.54C129.53 31.5985 131.488 29.5243 132.54 27.0309C132.711 26.6261 131.944 26.5904 131.703 26.6018C129.125 26.8561 127.294 29.7635 124.968 30.685L126.031 31.1055C127.052 30.1249 128.198 29.284 129.441 28.605C130.186 28.3195 130.871 27.8974 131.461 27.3606C131.879 26.8958 130.789 26.8053 130.536 26.8853C128.612 27.5028 126.798 28.5534 124.816 28.9677L125.742 29.4429C126.614 28.6759 127.631 28.0891 128.732 27.7162L127.597 27.3978C126.885 28.1024 126.028 28.6442 125.085 28.9856C124.379 29.3194 125.68 29.6125 126.042 29.4769C126.989 29.1031 127.751 28.519 128.626 28.096C129.887 27.5298 130.772 26.8653 130.091 28.8019C129.611 30.1549 128.743 31.2985 128.374 32.69C128.256 33.1098 129.534 33.1234 129.707 32.7909C130.389 31.4874 131.148 30.2198 131.851 28.9219L130.538 28.7259C129.754 30.8941 129.229 33.1469 128.971 35.438C128.915 35.8965 130.145 35.8751 130.309 35.5474C130.937 34.286 132.721 31.3151 131.926 29.784C131.72 29.3884 130.845 29.4804 130.613 29.7676C129.117 31.6839 128.683 34.2575 127.719 36.4881C127.51 36.9758 128.813 37.0539 129.032 36.6841C130.2 34.7045 131.962 32.2737 131.067 29.8446C130.957 29.5408 130.289 29.5617 130.068 29.6292C129.079 29.948 128.995 30.4779 128.401 31.3608C127.088 33.321 125.931 35.2891 124.787 37.3618C124.549 37.7982 125.879 37.9628 126.101 37.5578C126.907 36.0951 127.658 34.5736 128.576 33.1779C129.004 32.522 129.958 30.4824 130.749 30.23L129.753 30.0079C130.556 32.2815 128.812 34.6458 127.719 36.4881L129.032 36.6841C129.982 34.4782 130.432 31.8732 131.918 29.9684L130.604 29.9521C131.257 31.2205 129.512 34.2815 128.984 35.3409L130.322 35.4504C130.595 33.2255 131.103 31.036 131.838 28.9182C132.03 28.4116 130.732 28.342 130.524 28.7222C129.817 30.0115 129.085 31.2866 128.387 32.593L129.718 32.7005C130.011 31.6545 132.885 27.7026 131.343 26.6015C129.707 25.4237 126.228 28.5301 125.072 28.9818L126.028 29.4731C127.113 29.0736 128.092 28.431 128.889 27.5948C129.234 27.1598 127.91 27.1835 127.747 27.2745C126.562 27.6668 125.472 28.3007 124.546 29.1362C124.103 29.6086 125.241 29.6618 125.471 29.6114C127.453 29.1971 129.259 28.1514 131.19 27.5291L130.265 27.0538C129.541 27.864 128.469 28.0663 127.578 28.6214C126.575 29.2607 125.643 30.0036 124.796 30.8379C124.311 31.3343 125.637 31.3544 125.864 31.2669C127.873 30.4722 129.834 27.5652 132.003 27.3545L131.172 26.9273C130.152 29.3579 128.251 31.3833 126.46 33.2742L127.7 33.5504C128.501 32.1077 129.06 30.5033 130.472 29.5267L129.205 29.3438C128.885 32.2296 122.702 35.4254 124.162 38.6669C125.084 40.7442 127.925 39.7587 129.523 39.4525L128.685 39.0234L127.927 40.0325C127.862 40.086 127.782 40.2147 127.854 40.2923C127.835 40.5386 127.823 40.7868 127.805 41.0331L128.871 40.9802C127.982 40.5799 129.222 40.4748 129.167 40.129C129.181 40.0824 128.381 39.5704 128.059 39.3293C127.361 38.9072 126.784 38.3119 126.384 37.6013L125.244 37.9141C126.531 38.4621 127.597 39.7962 128.85 40.464L129.705 39.9851C128.589 39.5715 127.399 39.4747 126.302 38.9944C125.923 38.8306 124.651 39.1564 125.341 39.4434C127.112 40.2422 128.034 39.5738 129.703 38.9136L128.569 38.7463C128.505 39.1525 128.448 39.5606 128.383 39.9735L129.543 40.2272C129.383 39.3342 129.834 38.3683 130.021 37.5223C130.3 35.8747 130.684 34.2468 131.173 32.6488L129.835 32.5394C129.658 34.452 128.526 37.2034 126.963 38.4612L128.141 38.4752C127.264 37.8771 127.836 33.682 128.959 33.5299L128.104 33.1894C128.38 34.5055 128.167 35.8763 127.505 37.0461C126.887 38.1164 125.871 39.1969 126.123 37.1974C126.345 35.5061 126.583 35.8892 126.343 37.1299C126.244 37.4831 126.301 38.4621 125.977 38.7163C124.802 39.6444 123.619 37.7023 123.149 36.9884C122.914 36.6205 121.637 33.0854 121.994 33.0705C122.488 33.0799 123.416 36.3949 123.417 36.7762C123.402 39.2443 121.755 37.0285 121.329 35.9027C120.276 33.1633 123.285 34.9133 122.705 36.1308L123.845 35.9976C123.765 35.9752 119.349 33.2556 120.897 32.7196C121.257 32.9703 121.592 33.2544 121.898 33.5682C122.859 35.2754 120.581 34.205 121.197 32.7535L120.056 32.8933C122.243 34.082 123.438 37.1127 125.005 38.9467C125.249 39.2309 126.526 39.0715 126.255 38.7009C125.223 37.2468 123.911 35.966 123.173 34.2854C122.81 33.4217 122.582 32.337 122.739 32.0074C123.185 32.2907 123.124 32.7407 122.563 33.3524C122.187 33.9143 121.719 34.4097 121.18 34.8185C120.707 35.2179 122.027 35.4158 122.361 35.1501C123.535 34.2791 126.412 30.7236 127.946 30.8522C128.355 30.3703 128.576 30.4036 128.631 30.9796C128.686 31.0413 128.728 31.1143 128.753 31.1937C128.778 31.2731 128.785 31.3568 128.774 31.4392C128.763 31.5216 128.735 31.6006 128.69 31.6709C128.646 31.7411 128.587 31.8009 128.517 31.8461C128.302 32.8424 127.282 34.0656 126.788 34.9547C126.543 35.3892 127.868 35.5453 128.095 35.1489C129.051 33.5124 130.165 31.978 131.122 30.3131C131.383 29.8471 130.104 29.8116 129.875 30.035C127.727 32.1708 126.469 35.0378 124.173 37.0601L125.414 37.3363C126.602 34.385 129.991 32.6262 130.869 29.5231C131.029 28.9501 129.881 29.0662 129.628 29.2469C128.338 30.1213 127.633 31.634 126.684 32.834C126.105 33.5628 124.372 34.8878 124.042 35.7297C123.616 36.8391 124.671 35.6186 125.118 35.2336C125.708 34.5848 126.246 33.8895 126.724 33.1543C128 31.5859 129.32 30.0877 130.092 28.184C130.313 27.6278 129.075 27.7547 128.845 27.9059C127.523 28.7928 126.627 30.3671 125.524 31.5022C124.199 32.8626 122.851 34.2021 121.539 35.5662C121.073 36.0464 122.416 36.1358 122.72 35.8978C123.766 35.149 124.285 34.1447 125.074 33.1584C126.121 31.8638 127.402 31.0446 127.883 29.3826C128.044 28.8096 126.898 28.9409 126.643 29.1064C124.941 30.2174 123.558 31.8347 121.831 32.96L123.012 33.2916C124.096 32.3586 125.074 31.3098 125.928 30.1638C126.239 29.6976 124.954 29.761 124.787 29.8434C123.685 30.2531 122.871 31.153 121.746 31.5922L122.808 32.0194C123.346 31.55 123.76 30.9553 124.014 30.2878C124.195 29.8212 123.25 29.8508 123.015 29.8927C121.922 30.1581 120.905 30.669 120.04 31.3865C119.554 31.7317 120.873 31.9582 121.215 31.7162C122.491 30.9473 123.806 30.244 125.155 29.609L124.092 29.1885C123.135 29.8846 122.233 30.6528 121.394 31.4863C120.936 31.9398 122.264 32.0825 122.576 31.8179C123.169 31.2758 123.893 30.897 124.678 30.7185C125.592 30.6443 124.957 30.0062 124.323 30.0583L124.251 30.1604Z" fill="black"/>
<path d="M44.988 99.7836C37.5442 101.928 32.0329 108.993 26.9693 114.436C21.0194 120.831 15.158 127.423 9.64147 134.198C7.94104 136.28 -2.94225 149.707 1.6493 151.362C2.02985 151.469 2.92344 151.518 3.17155 151.071C3.26022 150.909 3.34887 150.747 3.43273 150.576C3.77779 149.911 1.7842 149.675 1.46265 150.282C1.41404 150.455 1.2901 150.615 1.20811 150.778L2.73036 150.487C0.570124 149.715 10.589 135.801 11.7841 134.34C17.0632 127.871 22.6538 121.577 28.3233 115.463C33.2088 110.192 38.8582 102.764 46.0491 100.699C47.3243 100.339 45.747 99.5941 45.0262 99.8016L44.988 99.7836Z" fill="black"/>
<path d="M36.163 123.355C28.4541 131.219 19.5902 138.579 13.7093 147.961C13.357 148.524 14.7062 148.644 14.9679 148.609C15.6302 148.508 15.9109 148.457 16.1732 147.805C16.4355 147.152 14.456 146.891 14.2098 147.512L14.4389 147.62L15.6975 148.268C21.5151 138.982 30.324 131.664 37.9515 123.886C38.606 123.221 36.649 122.881 36.1934 123.349L36.163 123.355Z" fill="black"/>
</g>
<defs>
<clipPath id="clip0_315_8438">
<rect width="111.643" height="156.675" fill="white" transform="translate(42.3271) rotate(15.6737)"/>
</clipPath>
</defs>
</svg>
