<svg width="162" height="216" viewBox="0 0 162 216" fill="none" xmlns="http://www.w3.org/2000/svg">
<path d="M63.4739 0L124 8.55012L106.036 22.6493L119.537 30.3444L111.783 38.8945L104.21 33.431C103.589 37.8856 103.038 41.8443 102.323 47L63 0.991817L63.4739 0ZM73.7181 3.81335L73.3218 4.61706L104.089 21.5634L118.09 10.0464L73.7181 3.81335ZM100.935 41.2971C101.668 35.2351 102.314 30.4641 102.762 25.6846C102.848 24.744 102.435 23.205 101.745 22.8203C92.0095 17.3311 82.1788 11.9958 72.374 6.62634L71.8657 7.24195L100.935 41.2971ZM105.14 24.6671C103.891 31.6867 103.891 31.6867 111.645 35.8763L116.263 30.7462L105.14 24.6671Z" fill="black"/>
<path d="M88.4366 162.04C93.9153 164.187 98.8138 162.789 103.465 160.702C112.485 156.663 119.577 150.094 125.721 142.554C139.879 125.189 152.577 106.879 158.483 84.9313C160.13 78.7882 160.292 72.0146 159.874 65.6074C159.268 56.2351 150.435 47.0588 140.98 44.7924C135.108 43.378 129.169 42.2789 122.265 40.8305C144.334 35.565 165.472 56.2266 161.521 77.7061C157.467 99.7054 145.784 117.939 132.975 135.567C125.858 145.365 117.844 154.414 107.015 160.404C101.297 163.573 95.2807 165.218 88.5987 163.812C87.3271 163.539 85.4412 164.613 84.2721 165.575C58.9862 186.442 111.186 198.575 81.9998 213C81.7779 213.111 81.4707 213.06 80.9843 212.727C110.529 197.186 59.3617 185.002 85.3388 162.892C77.462 158.052 73.2548 151.347 71.7614 142.775C70.7202 136.734 70.7715 130.745 75.7382 126.689C80.9268 122.429 86.5506 124.985 91.6624 127.805C101.903 133.488 103.542 142.409 96.0915 152.821C93.8385 155.982 91.1162 158.844 88.4366 162.04ZM87.4552 162.04C91.2186 156.51 95.4003 151.338 98.4724 145.578C101.186 140.466 99.8122 135.405 95.2295 131.946C91.9846 129.463 88.3316 127.563 84.4342 126.331C78.8786 124.627 74.313 127.831 73.0414 133.497C70.6434 144.079 76.4038 156.322 87.4552 162.031V162.04Z" fill="black"/>
<path d="M122 23C127.222 30.5244 135.568 26.2614 142 29C135.073 27.8479 126.803 31.9779 122 23Z" fill="black"/>
<path d="M114.811 38L124.716 48L125 47.6583L114 38.7917L114.811 38Z" fill="black"/>
<path d="M73.3983 4L118 10.3208L103.927 22L73 4.81503L73.3983 4Z" fill="#F4AD7C"/>
<path d="M101.139 41L72 7.6037L72.5098 7C82.3439 12.2656 92.204 17.4977 101.969 22.8806C102.66 23.2579 103.075 24.7672 102.989 25.6895C102.522 30.3766 101.874 35.0552 101.139 41Z" fill="#F4AD7C"/>
<path d="M104.627 25L116 30.9503L111.278 36C103.35 31.9097 103.35 31.9097 104.627 25Z" fill="#F4AD7C"/>
</svg>
