<svg width="207" height="280" viewBox="0 0 207 280" fill="none" xmlns="http://www.w3.org/2000/svg">
<g clip-path="url(#clip0_396_12769)">
<path d="M24 274.5L142.723 274.991C143.824 274.995 144.714 275.889 144.714 276.991V277.999C144.714 279.103 143.819 279.999 142.714 279.999H26.7143L24 274.5Z" fill="black"/>
<path d="M103.081 102.633C102.001 108.058 101.529 113.585 101.673 119.114L108.369 121.721C108.369 121.721 112.458 138.577 86.6172 133.408C81.5987 132.404 67.1426 121.422 67.1426 121.422L78.6327 118.141C78.6327 118.141 79.7262 101.435 80.1307 93.1191C87.5875 96.7381 95.2507 99.915 103.081 102.633Z" fill="white"/>
<path d="M86.4967 133.976C81.4033 132.957 67.3066 122.29 66.7073 121.825C66.6235 121.762 66.5594 121.677 66.5223 121.578C66.4852 121.48 66.4765 121.374 66.4976 121.271C66.5173 121.17 66.564 121.076 66.6326 121C66.7011 120.923 66.789 120.867 66.8871 120.836L78.0027 117.66C78.1675 115.083 79.1262 100.55 79.5007 93.0431C79.5107 92.9532 79.5399 92.8665 79.5865 92.7889C79.633 92.7114 79.6957 92.6448 79.7703 92.5936C79.8542 92.5526 79.9465 92.5312 80.04 92.5312C80.1334 92.5312 80.2258 92.5526 80.3097 92.5936C87.754 96.2104 95.4018 99.3921 103.215 102.123C103.351 102.161 103.467 102.252 103.537 102.375C103.607 102.499 103.626 102.645 103.589 102.782C102.547 108.045 102.08 113.405 102.196 118.769L108.533 121.241C108.618 121.272 108.695 121.323 108.755 121.391C108.815 121.459 108.857 121.542 108.877 121.63C109.26 123.327 109.24 125.09 108.822 126.778C108.403 128.466 107.596 130.033 106.466 131.354C104.129 133.782 100.473 135.01 95.395 135.01C92.402 134.96 89.4215 134.613 86.4967 133.976ZM101.477 119.653C101.373 119.618 101.282 119.552 101.218 119.463C101.153 119.375 101.118 119.268 101.117 119.158C100.977 113.743 101.415 108.329 102.421 103.007C94.9906 100.414 87.7089 97.4125 80.6093 94.017C80.1598 102.467 79.1112 117.99 79.1112 118.199C79.1039 118.315 79.0612 118.426 78.9889 118.518C78.9166 118.609 78.8181 118.675 78.7067 118.709L68.3104 121.705C71.5461 124.103 82.6016 132.193 86.7212 132.972C96.0241 134.83 102.406 134.036 105.672 130.635C106.644 129.488 107.346 128.137 107.728 126.683C108.109 125.228 108.158 123.706 107.874 122.23L101.477 119.653Z" fill="black"/>
<path d="M118.899 56.1258C121.251 56.6951 123.618 54.2979 123.663 51.7807C123.627 50.5183 123.243 49.2903 122.553 48.2326C121.863 47.1749 120.894 46.3287 119.753 45.7876C117.478 44.876 115.07 44.3397 112.623 44.1994C113.002 42.9447 112.988 41.6035 112.581 40.3574C112.173 39.1113 111.393 38.0204 110.346 37.2324C108.233 35.7528 105.622 35.166 103.08 35.5992C101.409 35.7332 99.8119 36.3471 98.4811 37.3672C97.7991 37.9298 97.2542 38.6405 96.8882 39.4454C96.5221 40.2502 96.3445 41.128 96.3688 42.0119C94.1817 39.2401 90.6463 37.3972 87.3806 38.1913C84.1148 38.9854 81.5231 43.0607 81.2834 45.8625C80.5898 44.8305 79.6627 43.9766 78.5773 43.3701C77.492 42.7635 76.279 42.4214 75.0367 42.3715C70.0781 42.6412 69.0444 46.8663 71.2016 52.2752C70.452 51.9413 69.6394 51.7725 68.8188 51.7803C67.9983 51.7882 67.1889 51.9724 66.4458 52.3206C65.7026 52.6687 65.0432 53.1727 64.5119 53.7982C63.9807 54.4237 63.5901 55.1562 63.3668 55.946C62.9766 57.6052 62.9639 59.3309 63.3295 60.9957C63.6951 62.6605 64.4297 64.222 65.4791 65.565C65.9089 66.0203 66.4161 66.3957 66.9772 66.6737C67.7412 70.9139 68.7149 75.3638 70.168 80.9524C71.3093 85.2215 72.9959 89.3257 75.1864 93.1634C75.9951 94.7637 77.3581 96.0152 79.0213 96.6844C79.1262 94.9314 80.954 94.0474 81.2386 92.3094C81.5831 90.1669 80.2048 88.264 81.5081 86.3163C83.9205 82.7976 85.597 78.8276 86.4368 74.6446C87.2528 71.3145 86.9311 67.8071 85.523 64.681C84.9207 63.556 84.1302 62.5425 83.1859 61.6844C83.5996 60.8375 83.9502 59.9611 84.2347 59.0624C85.7327 61.5646 86.7514 63.2726 90.3766 64.4712C91.6301 64.9556 93.021 64.9431 94.2655 64.4363C95.51 63.9295 96.5142 62.9666 97.0729 61.7443C97.6421 64.3064 101.567 67.9023 104.114 68.157C106.66 68.4117 107.544 67.2581 108.608 64.8758C110.825 66.8385 112.473 68.8313 114.735 69.6853C116.507 70.2625 118.435 70.1135 120.098 69.2709C121.76 68.4284 123.021 66.961 123.603 65.1904C124.086 63.365 123.871 61.4253 123.002 59.7495C122.132 58.0737 120.67 56.7818 118.899 56.1258Z" fill="#9D85F4"/>
<path d="M78.7067 97.2533C76.9358 96.5456 75.486 95.2129 74.632 93.5076C72.4097 89.6253 70.7026 85.4701 69.5536 81.1467C68.2204 76.0675 67.2167 71.5876 66.3928 67.0928C65.8813 66.7991 65.4167 66.4304 65.0145 65.999C63.9005 64.5811 63.1235 62.9285 62.742 61.166C62.3605 59.4035 62.3845 57.5774 62.8124 55.8256C63.0851 54.9196 63.554 54.0847 64.1857 53.3803C64.8175 52.676 65.5966 52.1194 66.4677 51.7503C67.6486 51.2436 68.9594 51.123 70.2128 51.4057C69.2241 48.4091 69.269 45.9519 70.3626 44.2289C70.8795 43.487 71.5703 42.8833 72.3747 42.4705C73.1791 42.0578 74.0725 41.8487 74.9765 41.8616C76.123 41.8493 77.2574 42.0963 78.295 42.5841C79.3326 43.0718 80.2466 43.7877 80.9687 44.6784C81.7327 41.6818 84.2194 38.4305 87.2904 37.6964C88.8808 37.4102 90.5181 37.5353 92.0466 38.0597C93.5751 38.5841 94.9443 39.4906 96.0242 40.6929C96.3041 39.236 97.0827 37.9222 98.2262 36.9772C99.6453 35.8928 101.345 35.2377 103.125 35.0894C105.801 34.6484 108.543 35.2722 110.765 36.8274C111.805 37.6287 112.603 38.7022 113.071 39.9292C113.539 41.1562 113.659 42.4888 113.416 43.7794L114.135 43.8693C116.206 44.01 118.235 44.5173 120.128 45.3676C121.344 45.959 122.378 46.8688 123.119 48.0005C123.86 49.1322 124.281 50.4435 124.337 51.7952C124.308 52.5837 124.108 53.3563 123.751 54.0599C123.394 54.7635 122.889 55.3813 122.27 55.8706C121.903 56.1568 121.493 56.3843 121.056 56.5448C122.417 57.5557 123.433 58.9601 123.969 60.568C124.505 62.1759 124.534 63.9096 124.053 65.5346C123.73 66.5136 123.211 67.4169 122.529 68.1895C121.846 68.9622 121.014 69.5881 120.083 70.0294C119.217 70.4671 118.271 70.7235 117.302 70.7827C116.333 70.842 115.363 70.7029 114.45 70.374C112.649 69.5404 111.03 68.3591 109.686 66.898L108.713 65.969C107.724 68.0816 106.555 69.1454 104.024 68.9656C101.492 68.7858 98.2712 65.969 96.9679 63.347C96.181 64.338 95.1005 65.0544 93.8815 65.3935C92.6625 65.7327 91.3673 65.6771 90.1817 65.2349C88.9465 64.9054 87.7913 64.3276 86.7868 63.5368C85.7823 62.7459 84.9496 61.7586 84.3393 60.6351L83.845 61.8038C84.71 62.6462 85.4333 63.6226 85.9871 64.6955C87.484 67.9235 87.8278 71.5676 86.9609 75.0187C86.1108 79.2785 84.4035 83.3209 81.9425 86.9001C81.6922 87.3532 81.5365 87.8525 81.4849 88.3676C81.4334 88.8828 81.4871 89.403 81.6428 89.8967C81.8273 90.7631 81.8679 91.6541 81.7627 92.5337C81.5636 93.4109 81.1403 94.2214 80.5342 94.886C80.012 95.4239 79.6671 96.1089 79.5456 96.8488C79.5377 96.9392 79.5092 97.0267 79.4624 97.1045C79.4157 97.1824 79.352 97.2486 79.2759 97.2982C79.1877 97.3439 79.0906 97.3695 78.9914 97.3732C78.8878 97.3581 78.7898 97.3168 78.7067 97.2533ZM84.6988 58.8672C85.2319 60.1044 86.0321 61.2082 87.0423 62.0993C88.0524 62.9904 89.2474 63.6468 90.5413 64.0213C92.7733 64.7554 95.7095 64.0213 96.5334 61.654C96.5752 61.5385 96.6532 61.4396 96.7558 61.3721C96.8584 61.3046 96.9801 61.2721 97.1027 61.2794C97.2226 61.2887 97.3365 61.3358 97.428 61.4139C97.5195 61.4919 97.5839 61.597 97.612 61.7139C98.1213 64.0063 101.911 67.4673 104.158 67.7071C106.406 67.9468 107.065 67.0179 108.009 64.7105C108.046 64.6308 108.1 64.5602 108.167 64.5033C108.235 64.4464 108.313 64.4047 108.398 64.3809C108.488 64.3606 108.581 64.3623 108.669 64.3858C108.758 64.4093 108.84 64.4539 108.907 64.5157C109.462 65.0102 109.986 65.4896 110.48 66.014C111.712 67.3792 113.205 68.4846 114.87 69.2653C115.638 69.5379 116.455 69.6506 117.269 69.5965C118.083 69.5424 118.877 69.3226 119.603 68.9506C120.399 68.5768 121.111 68.0455 121.695 67.3888C122.28 66.7321 122.725 65.9637 123.004 65.13C123.469 63.4483 123.294 61.654 122.514 60.0935C121.734 58.5329 120.403 57.3167 118.779 56.6797C118.641 56.6349 118.526 56.5376 118.459 56.4087C118.391 56.2797 118.377 56.1295 118.42 55.9905C118.459 55.8532 118.549 55.7361 118.671 55.6636C118.794 55.591 118.94 55.5686 119.079 55.6009C119.507 55.6895 119.95 55.6789 120.373 55.5698C120.796 55.4607 121.189 55.2561 121.521 54.9716C122.01 54.5919 122.41 54.1092 122.693 53.5577C122.975 53.0062 123.132 52.3994 123.154 51.7803C123.103 50.6369 122.741 49.5291 122.108 48.5761C121.474 47.623 120.593 46.8608 119.558 46.3715C117.79 45.5929 115.899 45.1314 113.971 45.008C113.521 45.008 113.057 44.9031 112.607 44.8282C112.523 44.8205 112.442 44.7918 112.371 44.7447C112.3 44.6976 112.243 44.6336 112.203 44.5585C112.166 44.484 112.147 44.402 112.147 44.3188C112.147 44.2356 112.166 44.1536 112.203 44.0791C112.543 42.9372 112.525 41.7183 112.15 40.5874C111.775 39.4565 111.061 38.4682 110.106 37.7563C108.117 36.3837 105.67 35.8458 103.29 36.258C101.724 36.3856 100.227 36.9574 98.9753 37.9061C98.3652 38.4158 97.8775 39.056 97.5482 39.7796C97.2189 40.5032 97.0563 41.2915 97.0727 42.0864C97.0725 42.2055 97.0367 42.3219 96.9699 42.4207C96.9032 42.5194 96.8087 42.596 96.6982 42.6407C96.5876 42.6791 96.4677 42.6824 96.3551 42.6503C96.2425 42.6181 96.1426 42.552 96.069 42.4609C95.1359 41.1204 93.8445 40.0695 92.3425 39.4283C90.8405 38.7871 89.1885 38.5816 87.5752 38.8351C84.3993 39.5992 82.1372 43.5397 81.9125 46.0119C81.9034 46.1234 81.8616 46.2299 81.7923 46.3178C81.7231 46.4058 81.6293 46.4713 81.523 46.5063C81.4163 46.5362 81.3034 46.5352 81.1973 46.5034C81.0912 46.4715 80.9963 46.4102 80.9237 46.3265C79.0512 44.0341 77.1187 42.9254 75.1413 43.0303C74.4171 43.014 73.6997 43.1731 73.0502 43.494C72.4007 43.8149 71.8384 44.2881 71.4112 44.8732C70.3925 46.4913 70.5273 49.0834 71.7857 52.1548C71.8315 52.2607 71.8431 52.3783 71.819 52.4911C71.7948 52.6039 71.7361 52.7063 71.6509 52.7841C71.5691 52.8638 71.4641 52.9155 71.351 52.9316C71.2379 52.9478 71.1225 52.9276 71.0217 52.874C70.3899 52.5922 69.706 52.4466 69.0143 52.4466C68.3226 52.4466 67.6387 52.5922 67.007 52.874C66.2918 53.1871 65.6533 53.6522 65.1359 54.2369C64.6185 54.8217 64.2346 55.5121 64.0109 56.2602C63.6474 57.8265 63.6375 59.4543 63.9822 61.0249C64.3269 62.5956 65.0173 64.0696 66.0033 65.3398C66.3766 65.747 66.8175 66.0866 67.3065 66.3436C67.381 66.382 67.4455 66.4372 67.4949 66.5048C67.5443 66.5724 67.5773 66.6506 67.5913 66.7332C68.4152 71.228 69.4339 75.7229 70.7671 80.9519C71.897 85.1751 73.5686 89.2342 75.7406 93.0281C76.3537 94.3243 77.3817 95.3788 78.6617 96.0247C78.9221 95.3758 79.2865 94.7736 79.7404 94.2417C80.2301 93.7256 80.576 93.0902 80.744 92.3988C80.8234 91.6381 80.783 90.8696 80.6242 90.1214C80.4276 89.4746 80.3686 88.7938 80.4512 88.1229C80.5338 87.4519 80.756 86.8057 81.1035 86.2259C83.4794 82.7799 85.1262 78.8845 85.9423 74.779C86.7563 71.5735 86.455 68.1865 85.0883 65.175C84.519 64.1009 83.769 63.1328 82.8713 62.3132C82.7796 62.2333 82.7168 62.1255 82.6924 62.0064C82.6681 61.8873 82.6836 61.7634 82.7365 61.654C83.1453 60.8343 83.4859 59.9824 83.7551 59.1069C83.7906 59.0037 83.8543 58.9124 83.939 58.8436C84.0238 58.7747 84.1262 58.731 84.2345 58.7173C84.3838 58.7123 84.5289 58.7661 84.6389 58.8672H84.6988Z" fill="black"/>
<path d="M115.065 70.3296V69.925L114.601 69.7752C112.339 68.9212 110.691 66.9285 108.474 64.9657C107.47 67.348 106.526 68.5017 103.98 68.2469C101.433 67.9922 97.508 64.3964 96.9388 61.8343C96.3801 63.0566 95.3759 64.0194 94.1314 64.5262C92.8869 65.033 91.496 65.0455 90.2425 64.5612C86.6173 63.3625 85.5535 61.6545 84.1004 59.1523C83.3358 61.9905 81.6429 64.4907 79.2917 66.2542C78.3227 66.9438 77.2365 67.4515 76.0859 67.7525C76.0859 68.2469 76.0859 68.7264 75.9511 69.2508C75.5524 72.2305 75.477 75.2446 75.7264 78.2405C72.8951 75.8882 70.5431 76.2778 68.7904 78.0607C67.9672 78.9167 67.5161 80.0637 67.5358 81.2512C67.5554 82.4388 68.0443 83.5703 68.8954 84.3985C69.8888 85.2753 71.0775 85.9015 72.3624 86.2247C73.6472 86.5479 74.9907 86.5588 76.2807 86.2564C76.9698 90.7512 78.0034 99.666 81.1043 103.622C82.9812 105.816 85.3105 107.579 87.9324 108.79C90.5543 110 93.4068 110.629 96.2945 110.634C99.2317 110.702 102.151 110.161 104.869 109.044C107.587 107.928 110.043 106.26 112.084 104.146C116.279 99.4862 117.207 93.3433 116.848 87.5749C116.488 81.8065 115.065 76.053 115.065 70.3296Z" fill="white"/>
<path d="M96.3383 111.158C93.37 111.158 90.4369 110.514 87.7419 109.269C85.0469 108.025 82.654 106.211 80.7286 103.951C77.8523 100.28 76.7439 92.7738 76.0099 87.8145C76.0099 87.4849 75.9648 87.1702 75.8749 86.8706C74.5737 87.0952 73.2384 87.0219 71.9696 86.6559C70.7008 86.29 69.5314 85.6411 68.5495 84.758C67.5923 83.828 67.0436 82.5558 67.024 81.2213C67.0043 79.8867 67.5153 78.5989 68.4447 77.6411C69.2725 76.715 70.4203 76.1368 71.6571 76.0228C72.8939 75.9089 74.1279 76.2676 75.1109 77.0268C74.9924 74.4251 75.1028 71.8181 75.4406 69.2357V69.1159C75.4406 68.6814 75.5305 68.2019 75.5754 67.7225C75.5814 67.6077 75.6239 67.4978 75.6966 67.4089C75.7694 67.32 75.8686 67.2566 75.9799 67.228C77.0566 66.9029 78.0699 66.3962 78.976 65.7297C81.2148 64.0231 82.8306 61.6277 83.5749 58.9125C83.6104 58.8093 83.6741 58.7181 83.7589 58.6492C83.8436 58.5803 83.9461 58.5366 84.0544 58.523C84.1607 58.5111 84.2681 58.5302 84.3638 58.5781C84.4595 58.6259 84.5394 58.7004 84.5937 58.7927C85.1267 60.0299 85.927 61.1336 86.9371 62.0248C87.9472 62.9159 89.1422 63.5723 90.4361 63.9468C92.6682 64.6809 95.6043 63.9468 96.4283 61.5795C96.4701 61.464 96.548 61.3651 96.6506 61.2976C96.7532 61.2301 96.8748 61.1976 96.9973 61.2049C97.1172 61.2142 97.2312 61.2613 97.3227 61.3394C97.4142 61.4174 97.4787 61.5224 97.5068 61.6394C98.0161 63.9318 101.806 67.3928 104.053 67.6326C106.3 67.8723 106.959 66.9433 107.903 64.636C107.941 64.5563 107.995 64.4857 108.062 64.4288C108.129 64.3719 108.208 64.3302 108.293 64.3064C108.382 64.2861 108.475 64.2878 108.564 64.3113C108.653 64.3348 108.734 64.3793 108.802 64.4412C109.356 64.9356 109.881 65.4151 110.375 65.9395C111.607 67.3047 113.099 68.41 114.764 69.1908L115.169 69.3256C115.286 69.3586 115.389 69.4292 115.462 69.5267C115.535 69.6242 115.574 69.7431 115.573 69.865V70.2695C115.668 73.4993 115.988 76.7185 116.532 79.9035C116.891 82.3757 117.266 84.9228 117.431 87.395C117.865 94.5568 116.217 100.265 112.517 104.371C110.466 106.504 108.001 108.196 105.273 109.342C102.545 110.489 99.6118 111.066 96.6528 111.038L96.3383 111.158ZM114.405 70.2995C112.604 69.4659 110.985 68.2846 109.641 66.8235L108.667 65.8945C107.678 68.0071 106.51 69.0709 103.978 68.8911C101.447 68.7113 98.2259 65.8945 96.9226 63.2725C96.1356 64.2635 95.0552 64.9799 93.8361 65.319C92.6171 65.6582 91.3219 65.6026 90.1364 65.1604C88.9022 64.8285 87.7482 64.2498 86.744 63.4592C85.7398 62.6686 84.9063 61.6825 84.2939 60.5606C83.4131 63.0567 81.7999 65.229 79.665 66.7935C78.7548 67.4532 77.7427 67.9594 76.6689 68.2918C76.6689 68.6514 76.5941 68.996 76.5642 69.3406V69.4605C76.1735 72.3705 76.0981 75.3142 76.3394 78.2404C76.3496 78.3521 76.3265 78.4642 76.2732 78.5629C76.2199 78.6615 76.1387 78.7422 76.0397 78.7948C75.948 78.8535 75.8415 78.8848 75.7327 78.8848C75.6238 78.8848 75.5173 78.8535 75.4256 78.7948C73.0887 76.862 71.0214 76.7871 69.2537 78.5701C68.8949 78.9416 68.6129 79.3802 68.424 79.8609C68.2351 80.3415 68.1429 80.8548 68.1526 81.3711C68.1624 81.8875 68.274 82.3969 68.4809 82.8701C68.6878 83.3433 68.986 83.771 69.3585 84.1287C70.2862 84.9395 71.3945 85.5163 72.5908 85.8109C73.7871 86.1054 75.0364 86.1092 76.2344 85.8218C76.3092 85.8069 76.3862 85.8072 76.4608 85.8226C76.5355 85.8381 76.6062 85.8684 76.6689 85.9117C76.7918 86.0032 76.877 86.1364 76.9087 86.2862C76.9087 86.7507 77.0435 87.2601 77.1334 87.7845C77.7926 92.2794 78.9161 99.9506 81.6276 103.382C83.4463 105.513 85.7065 107.225 88.2517 108.396C90.7969 109.568 93.5663 110.173 96.3683 110.169C99.2268 110.246 102.07 109.727 104.717 108.643C107.363 107.56 109.754 105.936 111.738 103.876C115.229 99.9956 116.787 94.5718 116.367 87.7096C116.217 85.2374 115.843 82.7053 115.483 80.2182C114.931 76.9836 114.606 73.7143 114.51 70.4344L114.405 70.2995Z" fill="black"/>
<path d="M108.578 76.967C108.473 75.4687 107.739 74.4798 106.93 74.5548C106.121 74.6297 105.582 75.8433 105.687 77.2517C105.792 78.6601 106.511 79.7388 107.32 79.6639C108.129 79.589 108.683 78.3754 108.578 76.967Z" fill="black"/>
<path d="M91.2904 78.1356C91.1706 76.7272 90.4216 75.6635 89.6276 75.7533C88.8336 75.8432 88.2793 77.0718 88.3991 78.4802C88.519 79.8886 89.268 80.9524 90.0769 80.8475C90.8859 80.7426 91.4103 79.544 91.2904 78.1356Z" fill="black"/>
<path d="M96.3247 102.153C96.9211 102.154 97.5152 102.079 98.0925 101.929C98.2369 101.89 98.3602 101.796 98.4359 101.667C98.5116 101.538 98.5334 101.384 98.4968 101.239C98.458 101.095 98.3642 100.972 98.2353 100.896C98.1063 100.82 97.9527 100.798 97.8077 100.835C96.7045 101.116 95.5451 101.085 94.4582 100.747C93.3713 100.408 92.3995 99.7749 91.6508 98.9172C91.5445 98.8137 91.4021 98.7559 91.2538 98.7559C91.1055 98.7559 90.9631 98.8137 90.8568 98.9172C90.8038 98.9688 90.7617 99.0305 90.733 99.0987C90.7042 99.1669 90.6895 99.2402 90.6895 99.3142C90.6895 99.3882 90.7042 99.4615 90.733 99.5297C90.7617 99.5979 90.8038 99.6596 90.8568 99.7112C91.5466 100.478 92.3896 101.092 93.3315 101.513C94.2734 101.933 95.2931 102.152 96.3247 102.153Z" fill="black"/>
<path d="M99.5595 94.9911C100.552 94.9772 101.534 94.7948 102.466 94.4517C103.083 94.2715 103.642 93.9302 104.084 93.4629C104.379 93.0871 104.584 92.6484 104.683 92.1808C104.781 91.7131 104.771 91.229 104.653 90.766C104.469 90.0724 104.202 89.4034 103.859 88.7732L103.724 88.4886C102.087 85.118 101.242 81.418 101.252 77.6709C101.254 77.5969 101.241 77.5232 101.214 77.4542C101.187 77.3852 101.147 77.3223 101.095 77.2692C101.044 77.2161 100.982 77.1739 100.914 77.1451C100.845 77.1164 100.772 77.1015 100.698 77.1016C100.547 77.1016 100.402 77.1616 100.296 77.2683C100.189 77.3751 100.129 77.5199 100.129 77.6709C100.111 81.5908 100.998 85.462 102.72 88.983L102.855 89.2677C103.162 89.8136 103.393 90.3981 103.544 91.0057C103.628 91.2978 103.643 91.6051 103.588 91.9039C103.534 92.2027 103.411 92.485 103.23 92.7287C102.908 93.0362 102.518 93.2622 102.091 93.388C101.034 93.8006 99.8917 93.9448 98.7655 93.8075C98.2314 93.741 97.7166 93.5658 97.2528 93.2926C96.7891 93.0195 96.3861 92.6542 96.0689 92.2193C95.9841 92.0979 95.8554 92.0143 95.71 91.9863C95.5645 91.9584 95.4139 91.9882 95.2901 92.0695C95.1687 92.1543 95.0851 92.2831 95.0571 92.4286C95.0292 92.5741 95.0589 92.7247 95.1402 92.8486C95.5417 93.4114 96.0549 93.8854 96.6477 94.2412C97.2405 94.5969 97.9002 94.8267 98.5857 94.9162C98.9073 94.9715 99.2333 94.9966 99.5595 94.9911Z" fill="black"/>
<path d="M76.1158 81.7014C76.1889 81.6922 76.2594 81.6686 76.3232 81.6318C76.387 81.595 76.443 81.5459 76.4876 81.4874C76.5322 81.4288 76.5645 81.3619 76.583 81.2906C76.6015 81.2193 76.6056 81.145 76.5951 81.0721C76.3854 79.5739 76.3106 78.6749 76.1758 77.1466C76.1702 77.0724 76.1496 77 76.1154 76.9338C76.0813 76.8676 76.0342 76.809 75.9768 76.7614C75.9195 76.7139 75.8533 76.6784 75.7819 76.657C75.7105 76.6357 75.6356 76.6289 75.5615 76.6372C75.4873 76.6428 75.4149 76.6633 75.3487 76.6975C75.2825 76.7316 75.224 76.7788 75.1764 76.8361C75.1289 76.8935 75.0933 76.9598 75.072 77.0312C75.0507 77.1025 75.044 77.1775 75.0523 77.2515C75.1871 78.7498 75.2768 79.6338 75.4866 81.222C75.4937 81.2959 75.5161 81.3675 75.5522 81.4324C75.5883 81.4973 75.6374 81.554 75.6965 81.5991C75.7556 81.6441 75.8233 81.6764 75.8955 81.694C75.9676 81.7116 76.0427 81.7141 76.1158 81.7014Z" fill="black"/>
<path d="M119.949 66.509C119.993 66.5238 120.04 66.5238 120.084 66.509C120.729 65.8314 121.18 64.9921 121.388 64.0797C121.596 63.1673 121.555 62.2155 121.267 61.3249C121.26 61.3005 121.249 61.2778 121.233 61.2582C121.217 61.2386 121.197 61.2227 121.174 61.2114C121.151 61.2001 121.127 61.1936 121.101 61.1926C121.076 61.1915 121.051 61.1957 121.027 61.205C120.981 61.2221 120.942 61.2564 120.92 61.301C120.897 61.3456 120.893 61.3971 120.908 61.4448C121.177 62.268 121.217 63.149 121.025 63.9935C120.832 64.838 120.414 65.6142 119.814 66.2393C119.779 66.2755 119.76 66.3239 119.76 66.3741C119.76 66.4244 119.779 66.4727 119.814 66.509C119.858 66.5219 119.905 66.5219 119.949 66.509Z" fill="black"/>
<path d="M69.5542 64.7257C69.5754 64.7352 69.5985 64.7402 69.6217 64.7402C69.6449 64.7402 69.6678 64.7352 69.689 64.7257C69.7057 64.709 69.719 64.6892 69.7281 64.6673C69.7372 64.6455 69.7418 64.6221 69.7418 64.5984C69.7418 64.5747 69.7372 64.5513 69.7281 64.5294C69.719 64.5076 69.7057 64.4877 69.689 64.471C68.6234 63.4953 67.8627 62.2321 67.4986 60.8338C67.1345 59.4355 67.1824 57.9617 67.6367 56.59C67.646 56.5665 67.6504 56.5413 67.6493 56.516C67.6482 56.4908 67.6418 56.466 67.6305 56.4434C67.6191 56.4207 67.6032 56.4008 67.5836 56.3847C67.5641 56.3687 67.5413 56.357 67.5169 56.3503C67.4943 56.3407 67.4701 56.3358 67.4456 56.3359C67.4211 56.3361 67.3969 56.3412 67.3744 56.351C67.352 56.3608 67.3317 56.3751 67.315 56.3931C67.2983 56.411 67.2854 56.4321 67.2772 56.4552C66.7962 57.8981 66.7455 59.4498 67.1312 60.9211C67.5169 62.3923 68.3224 63.7195 69.4494 64.7407C69.4851 64.7474 69.5219 64.7421 69.5542 64.7257Z" fill="black"/>
<path d="M176.589 169.891C171.466 168.392 168.035 161.47 166.448 157.47C166.101 156.662 165.706 155.877 165.264 155.117C164.17 153.215 163.152 151.402 164.665 149.124C169.833 141.138 182.387 106.393 182.791 100.55C180.364 96.909 183.061 88.0691 186.042 83.4544C188.622 79.4917 190.983 75.3902 193.113 71.1684L193.188 71.0336C194.85 67.8722 196.034 66.4488 197.247 66.1342C197.515 66.0592 197.797 66.0445 198.071 66.0911C198.346 66.1377 198.607 66.2445 198.835 66.4038C200.333 67.4077 199.599 69.8649 198.626 72.1423C197.517 74.7343 196.498 77.2664 195.629 79.6337C196.206 79.4292 196.835 79.4292 197.412 79.6337C197.944 79.8481 198.403 80.2104 198.735 80.6778C199.067 81.1452 199.257 81.6981 199.285 82.2707C199.721 82.2312 200.16 82.2799 200.577 82.4137C200.994 82.5475 201.38 82.7639 201.711 83.0498C202.229 83.4083 202.588 83.9541 202.711 84.572C202.834 85.1899 202.712 85.8315 202.371 86.361C202.934 86.1796 203.534 86.1463 204.114 86.2644C204.694 86.3825 205.234 86.648 205.681 87.0353C207.269 88.6534 207.329 89.7622 206.67 92.0695C204.884 97.6969 201.806 102.828 197.682 107.052C195.42 115.173 193.982 126.935 192.588 138.307C191.465 146.472 190.551 154.069 189.368 159.957C188.21 163.119 186.315 165.959 183.84 168.242C182.329 169.45 180.469 170.139 178.537 170.205C177.876 170.189 177.221 170.084 176.589 169.891ZM188.274 159.687C189.442 153.889 190.371 146.203 191.36 138.157C192.753 126.68 194.206 114.799 196.513 106.588C196.542 106.492 196.594 106.405 196.663 106.333C200.713 102.256 203.746 97.2823 205.517 91.8148C206.086 89.8071 206.086 89.1628 204.812 87.8743C204.303 87.5481 203.708 87.3836 203.103 87.4023C202.499 87.421 201.915 87.6221 201.427 87.9792C201.332 88.0443 201.22 88.0791 201.105 88.0791C200.99 88.0791 200.877 88.0443 200.783 87.9792C200.689 87.9041 200.623 87.8007 200.593 87.6845C200.563 87.5684 200.572 87.4457 200.618 87.3349C200.74 87.0271 200.88 86.7269 201.037 86.436C201.637 85.3122 201.846 84.7729 200.918 84.0087C200.67 83.7505 200.353 83.5694 200.005 83.487C199.657 83.4046 199.292 83.4245 198.955 83.5443C198.866 83.6035 198.762 83.6352 198.656 83.6352C198.549 83.6352 198.445 83.6035 198.356 83.5443C198.264 83.4869 198.191 83.4038 198.145 83.3053C198.1 83.2067 198.085 83.0971 198.101 82.9899C198.21 82.5347 198.157 82.0559 197.952 81.6352C197.747 81.2144 197.403 80.8778 196.978 80.6825C196.555 80.5556 196.101 80.5858 195.699 80.7675C195.297 80.9493 194.974 81.2703 194.79 81.6714C194.714 81.7885 194.596 81.8732 194.461 81.9091C194.325 81.945 194.181 81.9298 194.056 81.8662C193.933 81.8019 193.838 81.6948 193.788 81.5651C193.739 81.4354 193.738 81.2921 193.787 81.162C194.94 78.1654 196.214 74.9141 197.637 71.5879C198.026 70.674 199.24 67.8722 198.266 67.2429C198.168 67.171 198.056 67.1217 197.937 67.0984C197.817 67.0751 197.695 67.0784 197.577 67.108C196.468 67.4077 195.135 69.7301 194.221 71.4531V71.5879C192.045 75.8595 189.625 80.0017 186.971 83.9938C183.81 88.8782 181.728 97.2086 183.795 99.9805C183.867 100.086 183.904 100.212 183.9 100.34C183.75 106.468 170.582 141.977 165.594 149.664C164.455 151.447 165.159 152.66 166.223 154.563C166.694 155.363 167.109 156.194 167.466 157.05C168.964 160.871 172.23 167.538 176.889 168.812C177.977 169.073 179.111 169.074 180.199 168.813C181.288 168.553 182.299 168.039 183.151 167.314C185.399 165.189 187.144 162.588 188.259 159.702L188.274 159.687Z" fill="black"/>
<path d="M198.956 95.8003C199.421 95.7955 199.874 95.6549 200.26 95.3958C200.775 95.0319 201.217 94.5745 201.563 94.0473L203.061 91.9198C203.105 91.8618 203.138 91.7956 203.157 91.725C203.176 91.6544 203.18 91.5808 203.171 91.5084C203.161 91.436 203.137 91.3662 203.1 91.3031C203.063 91.24 203.014 91.1848 202.956 91.1407C202.837 91.05 202.686 91.0102 202.538 91.0299C202.389 91.0495 202.254 91.127 202.162 91.2455L200.589 93.3731C200.317 93.7912 199.972 94.1567 199.571 94.4519C199.425 94.5624 199.254 94.6341 199.073 94.6603C198.892 94.6865 198.708 94.6663 198.537 94.6017C198.381 94.4914 198.258 94.3417 198.179 94.168C198.1 93.9943 198.068 93.8027 198.088 93.6128C198.141 93.0834 198.31 92.572 198.582 92.1146C199.069 91.0295 199.71 90.0202 200.484 89.118C200.754 88.7884 201.114 88.3538 201.578 87.7545C201.67 87.6369 201.713 87.4877 201.696 87.3391C201.679 87.1905 201.604 87.0545 201.488 86.9604C201.369 86.8698 201.218 86.83 201.07 86.8496C200.921 86.8693 200.786 86.9468 200.694 87.0653C200.23 87.6646 199.885 88.0692 199.615 88.4138C198.79 89.3603 198.104 90.4198 197.578 91.5602C197.243 92.15 197.034 92.8031 196.964 93.478C196.931 93.8834 197.014 94.2898 197.202 94.6503C197.39 95.0108 197.676 95.3108 198.028 95.5157C198.306 95.6926 198.627 95.791 198.956 95.8003Z" fill="black"/>
<path d="M195.046 94.8563C195.641 94.8138 196.209 94.5946 196.679 94.227C197.128 93.9274 197.578 93.6127 197.997 93.2831C198.057 93.2389 198.108 93.1829 198.146 93.1185C198.185 93.0541 198.209 92.9827 198.219 92.9085C198.229 92.8343 198.223 92.7589 198.203 92.6868C198.183 92.6147 198.149 92.5474 198.102 92.489C198.011 92.3747 197.878 92.3001 197.733 92.2805C197.588 92.261 197.441 92.2981 197.323 92.3841L196.05 93.2981C195.734 93.5813 195.32 93.7316 194.896 93.7176C194.492 93.6127 194.282 92.9984 194.282 92.4441C194.282 91.5601 195.091 89.2977 198.971 83.5892L199.076 83.4394C199.12 83.3794 199.151 83.3109 199.168 83.2382C199.184 83.1655 199.186 83.0902 199.172 83.017C199.158 82.9438 199.128 82.8743 199.086 82.8129C199.044 82.7515 198.989 82.6995 198.926 82.6603C198.866 82.616 198.797 82.5846 198.725 82.5681C198.652 82.5516 198.577 82.5503 198.504 82.5644C198.43 82.5785 198.361 82.6076 198.299 82.6499C198.238 82.6922 198.186 82.7467 198.147 82.8101L198.042 82.9599C195.945 86.0464 193.158 90.4514 193.158 92.4441C193.111 92.9488 193.233 93.4549 193.504 93.8832C193.775 94.3116 194.18 94.638 194.656 94.8114L195.046 94.8563Z" fill="black"/>
<path d="M192.513 98.9164C192.634 98.9152 192.752 98.8753 192.849 98.8025C192.946 98.7298 193.018 98.6279 193.053 98.5118C193.757 95.9947 192.274 93.9121 191.18 92.3988C190.806 91.8744 190.251 91.0953 190.296 90.9005C190.701 90.2413 193.037 89.5371 194.026 89.2374C194.398 89.1459 194.76 89.0153 195.105 88.8479C195.517 88.6493 195.881 88.3646 196.173 88.013C196.465 87.6615 196.678 87.2513 196.798 86.8102C196.855 86.587 196.865 86.3541 196.826 86.1269C196.788 85.8996 196.701 85.6832 196.573 85.4917C196.052 84.8262 195.334 84.3435 194.521 84.1133C192.302 84.2383 190.108 84.641 187.989 85.3119L187.18 85.5217C186.221 85.7614 183.615 87.4095 183.525 88.6231C183.517 88.6964 183.524 88.7705 183.545 88.841C183.566 88.9115 183.602 88.9769 183.65 89.033C183.698 89.0892 183.756 89.135 183.822 89.1676C183.889 89.2001 183.961 89.2188 184.034 89.2224C184.109 89.2286 184.184 89.2199 184.256 89.1968C184.327 89.1737 184.393 89.1368 184.45 89.088C184.507 89.0393 184.554 88.9797 184.588 88.9128C184.622 88.8459 184.643 88.7729 184.648 88.698C185.355 87.7412 186.33 87.0162 187.45 86.6154L188.274 86.4057C190.266 85.7903 192.321 85.3983 194.401 85.237C194.89 85.4398 195.326 85.7525 195.674 86.151C195.718 86.2925 195.718 86.4439 195.674 86.5855C195.582 86.8728 195.43 87.1374 195.229 87.362C195.028 87.5867 194.781 87.7662 194.506 87.889C194.231 87.994 193.951 88.0841 193.667 88.1587C191.704 88.758 189.877 89.3723 189.308 90.3312C188.738 91.2901 189.457 91.9793 190.236 93.088C191.255 94.4964 192.498 96.2344 191.944 98.2272C191.902 98.3722 191.92 98.5278 191.993 98.6599C192.066 98.7919 192.188 98.8896 192.333 98.9313L192.513 98.9164Z" fill="black"/>
<path d="M192.349 85.3871C192.475 85.4069 192.604 85.3837 192.716 85.3212C192.827 85.2587 192.914 85.1605 192.963 85.0425C193.335 84.2139 193.766 83.4127 194.251 82.6453C194.521 82.1958 194.776 81.7763 194.94 81.4616C195.01 81.3301 195.026 81.1765 194.984 81.0337C194.942 80.8909 194.846 80.7702 194.716 80.6975C194.584 80.6276 194.431 80.612 194.288 80.654C194.145 80.696 194.025 80.7923 193.952 80.9222L193.293 82.0759C192.754 82.9081 192.288 83.7854 191.9 84.6979C191.876 84.7677 191.867 84.8415 191.873 84.9149C191.878 84.9883 191.898 85.0598 191.932 85.1254C191.965 85.1909 192.011 85.2492 192.068 85.2967C192.124 85.3442 192.189 85.38 192.259 85.4021L192.349 85.3871Z" fill="black"/>
<path d="M192.963 93.6575C193.212 93.6561 193.457 93.5998 193.682 93.4927C193.75 93.4621 193.811 93.4182 193.861 93.3637C193.911 93.3092 193.95 93.2451 193.975 93.1752C194.001 93.1053 194.011 93.0311 194.007 92.9569C194.003 92.8828 193.984 92.8102 193.952 92.7435C193.918 92.6766 193.872 92.6169 193.815 92.5679C193.759 92.5189 193.693 92.4815 193.622 92.4578C193.551 92.4342 193.477 92.4247 193.402 92.4301C193.327 92.4354 193.255 92.4553 193.188 92.4888C193.034 92.5369 192.87 92.5414 192.714 92.5017C192.558 92.4621 192.416 92.3798 192.304 92.2641C192.056 91.9555 191.904 91.581 191.866 91.1868C191.829 90.7926 191.908 90.3962 192.094 90.0466C192.12 89.9768 192.132 89.9026 192.128 89.8282C192.125 89.7539 192.107 89.681 192.074 89.6139C192.042 89.5468 191.997 89.4868 191.941 89.4376C191.885 89.3884 191.82 89.3509 191.749 89.3274C191.608 89.2792 191.454 89.2883 191.32 89.3528C191.185 89.4172 191.081 89.5318 191.03 89.672C190.751 90.2276 190.651 90.8564 190.745 91.4712C190.839 92.086 191.122 92.6563 191.555 93.1031C191.94 93.4555 192.441 93.653 192.963 93.6575Z" fill="black"/>
<path d="M21.2428 179.9C24.8381 161.021 24.868 140.749 40.0732 128.044C47.3836 121.961 64.6862 119.324 74.8279 118.68C75.4571 128.493 85.0595 130.831 91.2015 130.441C101.463 129.782 103.291 127.759 105.897 119.953C108.204 120.867 122.061 121.571 131.065 129.617C147.783 144.6 168.216 143.102 166.793 144.076C165.37 145.05 170.089 165.741 182.837 168.288C189.533 169.636 152.217 175.165 126.63 168.393C127.589 181.788 122.78 220.833 120.009 235.891C93.3139 254.499 38.4254 233.464 38.4254 233.464C38.4254 233.464 42.635 221.103 42.635 211.783C42.635 207.154 31.789 217.402 29.6318 217.776C28.3468 217.456 27.2101 216.705 26.411 215.649C24.5984 211.439 17.9471 197.265 21.2428 179.9Z" fill="black"/>
<path d="M69.1193 242.229C58.6062 240.377 48.2716 237.625 38.2296 234.003C38.0932 233.952 37.9823 233.85 37.9207 233.718C37.859 233.587 37.8516 233.436 37.9 233.299C37.9 233.164 42.0646 220.908 42.0646 211.798C42.0646 211.604 42.0646 211.289 41.8849 211.199C40.8812 210.69 36.7765 213.671 34.3947 215.469C32.9843 216.684 31.3919 217.67 29.6758 218.391C28.6421 218.571 26.1854 216.773 25.8259 215.919L25.5561 215.289C23.339 210.18 17.4517 196.591 20.6425 179.84C21.3166 176.304 21.871 172.663 22.4103 169.127C24.7323 153.875 27.1441 138.113 39.6528 127.67C46.6037 121.856 62.8874 118.92 74.7369 118.155C74.8841 118.146 75.0292 118.195 75.1414 118.29C75.1958 118.34 75.2397 118.4 75.2705 118.467C75.3014 118.534 75.3186 118.606 75.3212 118.68C75.3693 120.605 75.9362 122.481 76.9619 124.111C77.9875 125.741 79.434 127.063 81.1486 127.939C84.2258 129.482 87.6624 130.166 91.0957 129.917C101.148 129.273 102.765 127.43 105.297 119.833C105.351 119.689 105.458 119.571 105.597 119.504C105.668 119.474 105.744 119.459 105.821 119.459C105.899 119.459 105.975 119.474 106.046 119.504C106.994 119.776 107.96 119.982 108.937 120.118C114.27 121.092 124.232 122.875 131.408 129.273C144.246 140.735 159.167 142.458 164.784 143.117C166.882 143.357 167.256 143.402 167.391 143.926C167.412 144.041 167.402 144.16 167.362 144.27C167.323 144.381 167.255 144.479 167.166 144.555C166.897 145.409 167.736 150.968 170.777 156.901C172.994 161.216 176.904 166.61 182.911 167.824C183.435 167.929 183.974 168.093 184.124 168.558C184.167 168.688 184.171 168.828 184.136 168.961C184.102 169.094 184.03 169.214 183.93 169.307C181.982 171.345 150.238 175.045 127.214 169.202C127.933 183.106 123.304 221.028 120.532 236.071C120.519 236.144 120.491 236.214 120.45 236.275C120.409 236.337 120.355 236.39 120.293 236.43C111.904 242.289 100.728 244.191 89.7474 244.191C82.8288 244.111 75.9288 243.455 69.1193 242.229ZM126.045 168.453C126.038 168.363 126.053 168.274 126.087 168.19C126.12 168.107 126.173 168.033 126.24 167.973C126.31 167.917 126.393 167.878 126.482 167.859C126.57 167.841 126.662 167.844 126.749 167.869C148.396 173.592 177.338 170.521 182.416 168.798C172.469 166.595 167.526 153.905 166.283 147.447C166.032 146.433 165.952 145.385 166.043 144.345L164.665 144.166C158.942 143.506 143.692 141.753 130.659 130.052C123.738 123.864 114.001 122.111 108.758 121.167C107.679 120.972 106.825 120.822 106.226 120.673C103.604 128.299 101.402 130.351 91.2454 130.996C87.6244 131.235 84.005 130.506 80.7591 128.883C78.9667 127.956 77.4417 126.586 76.3297 124.902C75.2177 123.218 74.5559 121.277 74.4074 119.264C62.7826 120.073 47.158 122.935 40.5216 128.479C28.3425 138.652 26.0655 153.515 23.6686 169.262C23.1293 172.798 22.5601 176.454 21.886 180.005C18.7701 196.486 24.5525 209.776 26.7397 214.795L27.0092 215.439C27.7088 216.253 28.6066 216.872 29.6158 217.237C31.0881 216.497 32.4747 215.598 33.7504 214.555C38.0348 211.424 40.9711 209.431 42.4691 210.195C42.7238 210.37 42.9237 210.613 43.0457 210.897C43.1677 211.181 43.2067 211.493 43.1582 211.798C43.1582 220.024 39.8925 230.677 39.0985 233.134C48.9228 236.641 59.0254 239.312 69.299 241.12C84.684 243.772 105.836 244.94 119.469 235.576C122.33 220.129 127.049 181.503 126.075 168.453H126.045Z" fill="black"/>
<path d="M48.7909 196.965C48.9089 196.966 49.0241 196.929 49.1188 196.859C49.2135 196.788 49.2824 196.689 49.3152 196.575C54.7681 180.094 57.8542 169.606 57.8542 146.997C57.8542 146.849 57.7962 146.706 57.6927 146.6C57.5892 146.493 57.4481 146.432 57.2997 146.428C57.1487 146.428 57.004 146.488 56.8972 146.594C56.7905 146.701 56.7306 146.846 56.7306 146.997C56.7306 169.471 53.7345 179.825 48.2516 196.216C48.2042 196.359 48.2153 196.515 48.2827 196.65C48.3501 196.785 48.4683 196.887 48.6112 196.935L48.7909 196.965Z" fill="black"/>
<path d="M126.21 168.782C126.141 168.689 126.104 168.576 126.104 168.46C126.104 168.344 126.141 168.231 126.21 168.138C126.21 167.823 126.21 166.64 126.3 164.902C126.3 162.415 126.405 158.264 126.63 151.957C126.637 151.808 126.703 151.669 126.812 151.568C126.921 151.467 127.065 151.413 127.214 151.417C127.288 151.419 127.361 151.436 127.429 151.466C127.496 151.497 127.557 151.541 127.607 151.595C127.657 151.65 127.696 151.714 127.721 151.784C127.746 151.853 127.757 151.928 127.753 152.002C127.528 158.294 127.469 162.49 127.424 164.917C127.424 168.273 127.424 168.558 127.064 168.827C126.961 168.92 126.828 168.973 126.69 168.977C126.6 168.982 126.511 168.966 126.428 168.933C126.346 168.899 126.271 168.848 126.21 168.782Z" fill="black"/>
<path d="M97.8828 159.688C108.129 159.688 117.447 158.774 122.361 156.271C122.402 156.249 122.433 156.212 122.447 156.167C122.461 156.122 122.457 156.074 122.436 156.032C122.426 156.008 122.412 155.987 122.393 155.969C122.375 155.951 122.353 155.938 122.329 155.929C122.305 155.921 122.279 155.917 122.253 155.92C122.228 155.922 122.203 155.929 122.181 155.942C112.054 161.096 82.9622 159.418 65.8845 157.021C65.8597 157.016 65.8343 157.017 65.8099 157.024C65.7855 157.03 65.7627 157.041 65.743 157.056C65.7232 157.072 65.707 157.092 65.6952 157.114C65.6835 157.136 65.6765 157.16 65.6748 157.185C65.6705 157.209 65.671 157.233 65.6762 157.257C65.6815 157.28 65.6913 157.302 65.7053 157.322C65.7193 157.342 65.7371 157.358 65.7576 157.371C65.7781 157.383 65.8008 157.392 65.8245 157.395C76.4494 158.856 87.1582 159.621 97.8828 159.688Z" fill="white"/>
<path d="M86.9466 174.071C98.8721 173.972 110.744 172.463 122.315 169.576C122.339 169.571 122.362 169.561 122.382 169.546C122.402 169.532 122.419 169.514 122.432 169.493C122.444 169.472 122.452 169.448 122.456 169.424C122.459 169.4 122.457 169.375 122.45 169.351C122.44 169.302 122.41 169.259 122.368 169.231C122.326 169.203 122.275 169.192 122.226 169.201C107.919 172.707 86.2725 175.929 64.3561 171.449C64.3325 171.444 64.3082 171.445 64.2848 171.45C64.2614 171.456 64.2391 171.465 64.2195 171.479C64.2 171.493 64.1835 171.511 64.1709 171.532C64.1583 171.552 64.15 171.575 64.1464 171.599C64.1369 171.646 64.1454 171.695 64.1703 171.737C64.1953 171.779 64.2347 171.809 64.2811 171.823C71.7415 173.333 79.3351 174.086 86.9466 174.071Z" fill="white"/>
<path d="M22.6653 204.906C22.6988 204.902 22.7313 204.89 22.7598 204.872C22.7883 204.854 22.8124 204.83 22.8302 204.801C27.7138 196.56 35.6833 192.41 43.1286 194.223C43.1522 194.23 43.1771 194.231 43.2014 194.228C43.2257 194.225 43.2491 194.217 43.2702 194.204C43.2912 194.191 43.3094 194.175 43.3237 194.155C43.338 194.135 43.3481 194.112 43.3534 194.088C43.3629 194.041 43.3543 193.991 43.3294 193.95C43.3045 193.908 43.265 193.877 43.2186 193.863C35.6085 192.005 27.489 196.231 22.5005 204.621C22.4699 204.656 22.4531 204.702 22.4531 204.748C22.4531 204.795 22.4699 204.84 22.5005 204.876L22.6653 204.906Z" fill="white"/>
<path d="M24.5987 208.322C24.6152 208.329 24.6331 208.333 24.6511 208.333C24.6692 208.333 24.687 208.329 24.7036 208.322C25.5769 207.593 26.3082 206.709 26.8607 205.715C27.0854 205.385 27.2952 205.041 27.52 204.726C28.9081 202.754 30.8093 201.2 33.0177 200.231C33.0627 200.209 33.0973 200.17 33.114 200.122C33.1308 200.075 33.1285 200.022 33.1076 199.977C33.0979 199.955 33.084 199.935 33.0667 199.919C33.0493 199.903 33.0288 199.89 33.0065 199.882C32.9842 199.873 32.9605 199.869 32.9367 199.87C32.9129 199.871 32.8895 199.877 32.8679 199.887C30.5991 200.873 28.6452 202.464 27.2202 204.486L26.5462 205.475C26.0139 206.432 25.3136 207.284 24.4789 207.992C24.4472 208.03 24.4297 208.078 24.4297 208.127C24.4297 208.177 24.4472 208.224 24.4789 208.262C24.5096 208.297 24.5525 208.318 24.5987 208.322Z" fill="white"/>
<path d="M166.793 158.564C166.818 158.558 166.84 158.546 166.86 158.53C166.879 158.514 166.894 158.493 166.904 158.47C166.915 158.447 166.919 158.422 166.918 158.396C166.917 158.371 166.91 158.346 166.898 158.324C165.213 154.18 164.403 149.732 164.516 145.259C164.516 145.208 164.495 145.158 164.459 145.121C164.422 145.085 164.373 145.064 164.321 145.064C164.273 145.064 164.228 145.083 164.194 145.117C164.16 145.151 164.141 145.197 164.141 145.244C164.016 149.774 164.837 154.28 166.553 158.474C166.563 158.496 166.577 158.515 166.594 158.532C166.612 158.548 166.632 158.561 166.654 158.569C166.677 158.578 166.7 158.581 166.724 158.581C166.748 158.58 166.771 158.574 166.793 158.564Z" fill="white"/>
<path d="M161.054 150.263C161.078 150.258 161.101 150.248 161.121 150.234C161.14 150.219 161.157 150.201 161.17 150.18C161.183 150.159 161.191 150.136 161.194 150.111C161.197 150.087 161.195 150.062 161.189 150.038C160.835 148.461 160.734 146.838 160.889 145.229C160.893 145.204 160.892 145.179 160.886 145.154C160.88 145.13 160.869 145.107 160.853 145.087C160.838 145.068 160.818 145.051 160.796 145.04C160.774 145.028 160.749 145.021 160.724 145.019C160.699 145.017 160.674 145.02 160.651 145.028C160.627 145.036 160.606 145.049 160.587 145.066C160.569 145.083 160.554 145.104 160.544 145.127C160.535 145.149 160.529 145.174 160.529 145.199C160.359 146.842 160.46 148.503 160.829 150.113C160.833 150.139 160.841 150.163 160.855 150.185C160.868 150.206 160.886 150.225 160.908 150.239C160.929 150.253 160.953 150.263 160.978 150.267C161.003 150.271 161.029 150.27 161.054 150.263Z" fill="white"/>
<path d="M47.442 197.938C47.5652 197.936 47.6844 197.894 47.7816 197.819C47.8788 197.743 47.9489 197.638 47.9813 197.519C51.6738 183.948 54.18 170.081 55.4715 156.076C55.4841 155.927 55.4379 155.78 55.3426 155.665C55.2473 155.55 55.1107 155.477 54.9622 155.462C54.816 155.453 54.6721 155.502 54.5605 155.596C54.4489 155.691 54.3782 155.826 54.363 155.971C53.0717 169.917 50.5654 183.724 46.8728 197.234C46.8362 197.379 46.8582 197.533 46.9338 197.662C47.0095 197.791 47.1329 197.885 47.2773 197.923L47.442 197.938Z" fill="white"/>
<path d="M127.739 171.509C127.888 171.505 128.029 171.444 128.132 171.337C128.236 171.231 128.294 171.088 128.294 170.94L128.069 155.463C128.065 155.314 128.003 155.173 127.897 155.07C127.791 154.966 127.648 154.908 127.5 154.908C127.425 154.91 127.351 154.927 127.283 154.957C127.215 154.988 127.153 155.031 127.102 155.085C127.05 155.14 127.01 155.204 126.983 155.273C126.956 155.343 126.944 155.418 126.946 155.493L127.17 170.895C127.164 170.973 127.174 171.052 127.2 171.127C127.226 171.201 127.267 171.269 127.32 171.327C127.374 171.385 127.438 171.431 127.511 171.462C127.583 171.493 127.661 171.509 127.739 171.509Z" fill="white"/>
<path d="M45.2869 201.4C43.2945 199.482 39.5194 200.216 37.0327 201.4C35.8043 201.984 25.9471 211.094 29.5424 218.72C32.6434 225.282 34.6807 227.71 51.0843 252.012C51.632 252.955 52.372 253.771 53.2564 254.409C56.2525 256.237 60.0426 253.42 61.3159 250.199C64.0124 243.382 60.4172 235.86 57.1065 229.313C53.7958 222.765 47.2793 203.317 45.2869 201.4Z" fill="white"/>
<path d="M52.971 254.889C52.0224 254.207 51.2264 253.334 50.634 252.327C47.1884 247.233 44.3871 243.097 42.0652 239.696C33.3316 226.856 31.5788 224.189 29.0471 218.96C25.287 210.989 35.249 201.625 36.792 200.891C39.7881 199.497 43.5932 198.988 45.6755 200.995C46.799 202.074 48.8214 207.168 52.0122 215.439C54.0496 220.698 56.1618 226.137 57.6299 229.058C60.626 235.051 64.7306 243.112 61.8543 250.409C61.4145 251.52 60.7476 252.527 59.8963 253.365C59.0451 254.204 58.0283 254.856 56.9109 255.278C56.3891 255.453 55.843 255.544 55.2929 255.548C54.4718 255.555 53.6662 255.326 52.971 254.889ZM37.2713 201.909C36.5073 202.269 26.5454 211.049 30.0658 218.48C32.4926 223.635 34.3053 226.287 42.994 239.067C45.3159 242.468 48.1172 246.558 51.5627 251.697C52.0754 252.573 52.7579 253.337 53.5701 253.945C54.0181 254.209 54.5195 254.371 55.0378 254.418C55.556 254.464 56.078 254.395 56.5662 254.215C57.5238 253.841 58.3946 253.275 59.1239 252.551C59.8533 251.826 60.4257 250.96 60.8057 250.004C63.5022 243.172 59.5323 235.306 56.6261 229.553C55.1281 226.556 53.0158 221.132 50.9635 215.843C48.5966 209.715 45.9151 202.778 44.9713 201.804C44.1377 201.098 43.0669 200.733 41.9752 200.786C40.3442 200.814 38.739 201.197 37.2713 201.909Z" fill="black"/>
<path d="M27.0662 278.587L1.37993 226.986L74.2303 227.384L99.2401 278.764L27.0662 278.587Z" fill="white" stroke="black"/>
<path d="M100.085 279.82L26.8002 279.641C26.6941 279.643 26.5896 279.614 26.4994 279.558C26.4091 279.502 26.3368 279.422 26.2909 279.326L0.0450922 226.721C0.00506529 226.635 -0.0127017 226.54 -0.0066592 226.445C-0.000616725 226.35 0.0290118 226.259 0.079654 226.178C0.130296 226.098 0.20026 226.031 0.283185 225.985C0.36611 225.938 0.45952 225.913 0.55456 225.912L74.5429 226.317C74.6461 226.319 74.7466 226.35 74.8337 226.405C74.9207 226.461 74.9912 226.539 75.0374 226.631L100.504 279.071C100.549 279.154 100.572 279.247 100.572 279.341C100.572 279.435 100.549 279.528 100.504 279.611C100.454 279.674 100.39 279.726 100.318 279.762C100.245 279.798 100.166 279.818 100.085 279.82ZM27.1449 278.517L99.1859 278.697L74.1834 227.38L1.46835 226.991L27.1449 278.517Z" fill="black"/>
<path d="M117.955 280C118.03 279.994 118.102 279.974 118.168 279.94C118.234 279.905 118.293 279.858 118.341 279.801C118.388 279.744 118.423 279.677 118.445 279.606C118.466 279.535 118.473 279.46 118.465 279.386C117.88 271.684 118.824 259.803 119.738 248.326C120.172 243.022 120.562 238.003 120.817 233.433C120.821 233.285 120.77 233.142 120.672 233.03C120.575 232.919 120.439 232.849 120.292 232.834C120.218 232.83 120.143 232.841 120.072 232.865C120.001 232.89 119.936 232.929 119.881 232.979C119.825 233.029 119.78 233.09 119.748 233.157C119.715 233.225 119.697 233.298 119.693 233.373C119.438 237.868 119.049 242.932 118.614 248.236C117.701 259.758 116.757 271.684 117.356 279.476C117.36 279.55 117.378 279.622 117.411 279.689C117.443 279.756 117.489 279.816 117.545 279.865C117.601 279.914 117.666 279.951 117.736 279.974C117.807 279.997 117.881 280.006 117.955 280Z" fill="black"/>
<path d="M109.812 72.5889C109.036 71.8559 108.118 71.2897 107.115 70.9251C106.114 70.5612 105.049 70.4059 103.985 70.4687C103.77 70.471 103.595 70.5647 103.479 70.708C103.366 70.847 103.316 71.0217 103.316 71.185C103.316 71.3478 103.366 71.5235 103.484 71.6598C103.609 71.8034 103.793 71.8838 104.012 71.8669C104.891 71.8057 105.774 71.9265 106.605 72.2216C107.435 72.5167 108.196 72.9798 108.84 73.5819C108.995 73.731 109.183 73.7927 109.367 73.7768C109.546 73.7614 109.704 73.6754 109.819 73.5594C109.933 73.4437 110.017 73.2843 110.028 73.1059C110.039 72.9202 109.969 72.7353 109.812 72.5889Z" fill="black" stroke="black" stroke-width="0.5"/>
<path d="M85.041 74.0096L85.0407 74.0098C84.732 74.3424 84.8423 74.7594 85.0726 74.987C85.1886 75.1016 85.348 75.1857 85.5272 75.1964C85.7134 75.2075 85.8988 75.1377 86.0482 74.9827L86.0482 74.9828L86.0522 74.9785C86.7817 74.1856 87.6818 73.569 88.6846 73.1753C89.6875 72.7817 90.7667 72.6212 91.8407 72.7061L91.8505 72.7069H91.8604C92.0736 72.7069 92.2525 72.6252 92.3756 72.487C92.4948 72.3533 92.5486 72.182 92.5486 72.0186C92.5486 71.69 92.3223 71.3313 91.8732 71.3082L91.8732 71.3079H91.8604H91.8233C90.5648 71.2286 89.3044 71.4292 88.1326 71.8953C86.9583 72.3624 85.9022 73.0846 85.041 74.0096Z" fill="black" stroke="black" stroke-width="0.5"/>
<g clip-path="url(#clip1_396_12769)">
<path d="M164.263 53.8933L159.111 52.085L158.27 54.4816L163.422 56.29L164.263 53.8933Z" fill="black"/>
<path d="M163.281 56.7828L158.127 54.9654C158.08 54.9497 158.037 54.9248 158 54.8921C157.963 54.8594 157.933 54.8196 157.912 54.7751C157.89 54.7306 157.878 54.6822 157.875 54.6329C157.873 54.5835 157.881 54.5342 157.897 54.4878L158.741 52.0949C158.755 52.0476 158.78 52.0041 158.814 51.9677C158.847 51.9313 158.889 51.9029 158.935 51.8846C158.981 51.8696 159.029 51.8646 159.077 51.8698C159.125 51.875 159.172 51.8904 159.213 51.9149L164.368 53.7223C164.414 53.7385 164.457 53.7641 164.493 53.7975C164.529 53.8308 164.558 53.8712 164.578 53.9162C164.603 54.0095 164.592 54.1087 164.548 54.1945L163.704 56.5974C163.675 56.6775 163.619 56.7456 163.547 56.7907C163.475 56.8357 163.389 56.8551 163.304 56.8457L163.281 56.7828ZM159.319 52.7009L158.733 54.3875L163.171 55.946L163.766 54.2605L159.319 52.7009Z" fill="black"/>
<path d="M156.812 24.9474C157.426 23.2011 158.383 21.5951 159.627 20.2235C160.87 18.8519 162.374 17.7423 164.052 16.9596C165.73 16.177 167.547 15.7371 169.397 15.6657C171.246 15.5944 173.092 15.893 174.825 16.5441C178.139 17.8204 180.843 20.3082 182.392 23.5039C183.94 26.6995 184.216 30.3641 183.164 33.7557C182.595 35.5696 181.657 37.2467 180.411 38.6827C179.165 40.1186 177.636 41.2825 175.92 42.102C172.27 43.8479 169.582 44.8936 168.26 48.7233L159.201 45.546C160.527 41.7671 159.195 39.2989 157.432 35.7174C156.617 34.054 156.142 32.2444 156.035 30.395C155.929 28.5455 156.193 26.6934 156.812 24.9474Z" fill="#FDEE93"/>
<path d="M168.172 49.0761L159.123 45.8999C159.075 45.8854 159.032 45.8605 158.995 45.8269C158.959 45.7934 158.931 45.7521 158.912 45.706C158.897 45.6602 158.892 45.6116 158.897 45.5636C158.903 45.5156 158.918 45.4693 158.942 45.4277C160.168 41.9296 159.056 39.6662 157.354 36.2524L157.182 35.8918C156.335 34.1878 155.839 32.3308 155.724 30.4313C155.609 28.5317 155.877 26.6285 156.513 24.8347C157.135 23.03 158.114 21.3695 159.393 19.9528C160.673 18.5362 162.225 17.3926 163.957 16.5906C165.686 15.7777 167.561 15.323 169.47 15.2538C171.379 15.1847 173.283 15.5026 175.066 16.1883C178.483 17.4804 181.275 20.0334 182.868 23.3218C184.46 26.6103 184.731 30.384 183.626 33.8664C183.043 35.731 182.08 37.4547 180.798 38.9289C179.516 40.403 177.943 41.5958 176.177 42.4319L175.488 42.7593C172.302 44.3043 169.919 45.4033 168.712 48.833C168.68 48.9272 168.614 49.0061 168.527 49.0543C168.46 49.0617 168.392 49.0544 168.328 49.0327L168.172 49.0761ZM164.218 17.3332C162.58 18.0927 161.111 19.1741 159.899 20.5131C158.688 21.852 157.758 23.4211 157.165 25.1269C156.561 26.8266 156.306 28.6305 156.415 30.431C156.523 32.2314 156.993 33.9916 157.797 35.6065L157.979 35.9682C159.627 39.3158 160.85 41.7623 159.714 45.3607L168.068 48.2801C169.449 44.8291 171.928 43.6702 175.104 42.1242L175.793 41.7968C177.466 41.0047 178.955 39.8745 180.168 38.4776C181.381 37.0806 182.292 35.4472 182.841 33.6806C183.893 30.381 183.638 26.8037 182.13 23.6865C180.621 20.5692 177.974 18.1496 174.734 16.9267C173.651 16.5186 172.521 16.2472 171.371 16.1188C168.921 15.8643 166.448 16.2842 164.218 17.3332Z" fill="black"/>
<path d="M168.495 50.8416L169.96 46.6151L159.243 42.8555L157.778 47.0819C157.28 48.5031 157.366 50.0638 158.019 51.4211C158.671 52.7784 159.835 53.8211 161.256 54.32C162.677 54.8182 164.238 54.7316 165.596 54.0793C166.953 53.427 167.996 52.2625 168.495 50.8416Z" fill="white"/>
<path d="M161.688 54.8789L160.555 54.4742C159.193 53.9913 158.078 52.9893 157.452 51.6869C156.827 50.3845 156.742 48.8876 157.216 47.5228L158.903 42.7371C158.919 42.6902 158.944 42.647 158.976 42.61C159.009 42.573 159.049 42.5429 159.093 42.5215C159.138 42.5 159.186 42.4877 159.236 42.4853C159.285 42.4829 159.334 42.4904 159.381 42.5073L170.097 46.267C170.145 46.2814 170.188 46.3064 170.225 46.3399C170.261 46.3735 170.289 46.4148 170.308 46.4608C170.331 46.5039 170.345 46.5516 170.348 46.6006C170.352 46.6495 170.344 46.6987 170.327 46.7446L168.639 51.5403C168.404 52.2164 168.036 52.8391 167.559 53.3725C167.081 53.9058 166.503 54.3394 165.857 54.648C164.943 55.0879 163.924 55.2629 162.915 55.1531C162.498 55.105 162.086 55.0131 161.688 54.8789ZM159.482 43.3331L157.924 47.7707C157.512 48.9477 157.584 50.2399 158.124 51.3639C158.664 52.4879 159.627 53.352 160.803 53.7668L161.937 54.1616C162.52 54.3695 163.139 54.4595 163.757 54.4265C164.375 54.3936 164.981 54.2383 165.539 53.9696C166.096 53.7033 166.595 53.3285 167.006 52.8671C167.417 52.4057 167.732 51.867 167.933 51.2825L169.491 46.8449L159.482 43.3331Z" fill="black"/>
<path d="M168.052 48.248C168.08 48.2515 168.109 48.2447 168.133 48.2289C168.157 48.213 168.174 48.1891 168.182 48.1616C168.188 48.1464 168.191 48.1301 168.191 48.1137C168.19 48.0973 168.187 48.0812 168.18 48.0663C168.173 48.0514 168.163 48.0381 168.151 48.0271C168.139 48.0162 168.124 48.0079 168.109 48.0027L159.845 45.093C159.814 45.0832 159.781 45.0853 159.751 45.0989C159.722 45.1124 159.698 45.1364 159.686 45.1662C159.676 45.1971 159.678 45.2304 159.692 45.2598C159.705 45.2892 159.729 45.3125 159.759 45.3251L168.023 48.2348L168.052 48.248Z" fill="black"/>
<path d="M172.509 35.5551C172.537 35.5586 172.566 35.5518 172.59 35.5359C172.614 35.5201 172.631 35.4962 172.639 35.4686C172.645 35.4535 172.648 35.4372 172.648 35.4208C172.647 35.4044 172.644 35.3883 172.637 35.3734C172.63 35.3585 172.62 35.3452 172.608 35.3342C172.596 35.3233 172.581 35.315 172.566 35.3098L164.302 32.4001C164.271 32.3903 164.238 32.3924 164.208 32.406C164.179 32.4195 164.156 32.4435 164.143 32.4733C164.137 32.4885 164.134 32.5048 164.134 32.5212C164.135 32.5376 164.138 32.5537 164.145 32.5686C164.152 32.5835 164.162 32.5968 164.174 32.6077C164.186 32.6187 164.201 32.627 164.216 32.6322L172.48 35.5419L172.509 35.5551Z" fill="black"/>
<path d="M176.369 11.5115C176.454 11.5209 176.539 11.5015 176.612 11.4565C176.684 11.4115 176.739 11.3433 176.768 11.2632L178.548 6.17568C178.58 6.08183 178.573 5.97942 178.53 5.89022C178.487 5.80102 178.411 5.7321 178.318 5.69809C178.225 5.66664 178.122 5.67304 178.033 5.71595C177.944 5.75885 177.875 5.83488 177.841 5.92784L176.061 11.0153C176.044 11.0617 176.036 11.111 176.039 11.1604C176.041 11.2097 176.054 11.2581 176.075 11.3026C176.096 11.3471 176.126 11.3869 176.164 11.4196C176.201 11.4523 176.244 11.4772 176.291 11.493L176.369 11.5115Z" fill="black"/>
<path d="M160.36 11.4522C160.431 11.46 160.502 11.4468 160.565 11.4141C160.611 11.3933 160.651 11.3636 160.685 11.3267C160.718 11.2898 160.744 11.2466 160.76 11.1995C160.777 11.1524 160.784 11.1025 160.78 11.0528C160.777 11.0031 160.763 10.9545 160.741 10.9101L158.411 6.06008C158.39 6.01478 158.361 5.97415 158.324 5.94062C158.287 5.9071 158.244 5.88136 158.196 5.86497C158.149 5.84859 158.099 5.84189 158.05 5.84526C158 5.84863 157.952 5.86199 157.907 5.88458C157.817 5.92868 157.749 6.0063 157.716 6.10062C157.683 6.19494 157.689 6.29839 157.732 6.3886L160.061 11.2386C160.09 11.2955 160.133 11.3446 160.185 11.3817C160.237 11.4188 160.297 11.443 160.36 11.4522Z" fill="black"/>
<path d="M150.651 22.1355C150.734 22.1462 150.819 22.1271 150.891 22.0815C150.962 22.0359 151.015 21.9667 151.04 21.8861C151.057 21.8397 151.064 21.7903 151.062 21.741C151.059 21.6917 151.047 21.6433 151.026 21.5988C151.004 21.5543 150.974 21.5145 150.937 21.4818C150.9 21.4491 150.857 21.4242 150.81 21.4085L145.733 19.6296C145.639 19.5981 145.536 19.6045 145.447 19.6474C145.358 19.6903 145.289 19.7663 145.255 19.8593C145.223 19.9532 145.23 20.0556 145.273 20.1448C145.316 20.234 145.392 20.3029 145.485 20.3369L150.562 22.1158L150.651 22.1355Z" fill="black"/>
<path d="M188.111 21.1867C188.177 21.1963 188.245 21.1862 188.306 21.1576L193.167 18.819C193.211 18.798 193.25 18.7686 193.282 18.7325C193.315 18.6963 193.34 18.654 193.356 18.6081C193.373 18.5623 193.38 18.5136 193.377 18.465C193.374 18.4164 193.362 18.3688 193.341 18.3249C193.32 18.2796 193.291 18.239 193.254 18.2055C193.217 18.1719 193.174 18.1462 193.126 18.1298C193.079 18.1134 193.03 18.1067 192.98 18.1101C192.93 18.1135 192.881 18.1269 192.837 18.1495L187.987 20.4792C187.942 20.5 187.901 20.5297 187.868 20.5666C187.834 20.6035 187.808 20.6467 187.792 20.6938C187.776 20.7409 187.769 20.7908 187.772 20.8405C187.776 20.8902 187.789 20.9387 187.812 20.9831C187.84 21.0399 187.882 21.0885 187.935 21.1242C187.987 21.1598 188.048 21.1814 188.111 21.1867Z" fill="black"/>
<path d="M194.086 37.3875C194.171 37.3987 194.257 37.3801 194.33 37.3348C194.403 37.2895 194.458 37.2203 194.485 37.1391C194.517 37.0453 194.51 36.9428 194.467 36.8536C194.424 36.7644 194.348 36.6955 194.255 36.6615L189.168 34.8815C189.074 34.8501 188.972 34.8565 188.883 34.8994C188.793 34.9423 188.724 35.0183 188.69 35.1113C188.659 35.2051 188.665 35.3075 188.708 35.3967C188.751 35.4859 188.827 35.5549 188.92 35.5889L194.008 37.3689L194.086 37.3875Z" fill="black"/>
<path d="M166.575 45.5431C166.657 45.5506 166.739 45.5313 166.809 45.4881C166.879 45.4449 166.933 45.3802 166.963 45.3037C166.973 45.2142 170.69 36.0923 176.333 33.6878C176.424 33.649 176.497 33.5758 176.535 33.4841C176.573 33.3923 176.574 33.2893 176.537 33.197C176.518 33.1504 176.49 33.1081 176.454 33.0725C176.418 33.0369 176.376 33.0087 176.329 32.9896C176.283 32.9705 176.233 32.9609 176.183 32.9612C176.132 32.9616 176.082 32.972 176.036 32.9917C170.108 35.5261 166.421 44.6413 166.261 45.0061C166.242 45.0516 166.233 45.1004 166.233 45.1496C166.234 45.1988 166.244 45.2474 166.263 45.2926C166.283 45.3378 166.311 45.3787 166.347 45.4129C166.382 45.447 166.424 45.4737 166.47 45.4915L166.575 45.5431Z" fill="black"/>
<path d="M162.748 44.2018C162.836 44.2105 162.924 44.1885 162.997 44.1396C163.07 44.0907 163.124 44.0179 163.149 43.9336C163.273 43.5346 166.087 34.1135 163.033 28.4303C163.011 28.3865 162.98 28.3475 162.942 28.3159C162.904 28.2842 162.86 28.2604 162.813 28.2459C162.766 28.2314 162.716 28.2265 162.667 28.2315C162.618 28.2364 162.571 28.2511 162.527 28.2748C162.441 28.3223 162.376 28.4018 162.347 28.4963C162.318 28.5908 162.327 28.6929 162.372 28.7809C165.275 34.1862 162.459 43.6172 162.429 43.7145C162.401 43.81 162.411 43.9128 162.458 44.0006C162.505 44.0885 162.585 44.1545 162.68 44.1843L162.748 44.2018Z" fill="black"/>
<path d="M176.118 33.7146C176.203 33.724 176.288 33.7046 176.361 33.6596C176.433 33.6146 176.488 33.5465 176.517 33.4663C176.549 33.3725 176.542 33.27 176.499 33.1808C176.456 33.0916 176.38 33.0227 176.287 32.9887C175.919 32.8582 175.808 32.5846 175.638 32.1134C175.582 31.8169 175.451 31.5395 175.258 31.3074C175.065 31.0752 174.816 30.896 174.535 30.7865C174.245 30.6989 173.939 30.6849 173.642 30.7458C173.346 30.8067 173.069 30.9405 172.837 31.1352C172.416 31.4012 172.159 31.5443 171.801 31.4148C171.443 31.2854 171.322 31.0107 171.162 30.5407C171.1 30.2436 170.967 29.9662 170.773 29.7328C170.579 29.4995 170.331 29.3175 170.05 29.2027C169.76 29.1195 169.454 29.1078 169.158 29.1685C168.863 29.2292 168.586 29.3606 168.352 29.5514C167.941 29.8185 167.684 29.9616 167.316 29.8311C166.948 29.7005 166.836 29.4369 166.676 28.9668C166.614 28.6698 166.481 28.3923 166.287 28.159C166.093 27.9257 165.845 27.7436 165.564 27.6289C165.275 27.5423 164.97 27.5289 164.676 27.59C164.381 27.6511 164.106 27.7846 163.876 27.9786C163.455 28.2447 163.198 28.3878 162.84 28.2583C162.793 28.2414 162.744 28.2339 162.695 28.2363C162.645 28.2388 162.597 28.251 162.552 28.2725C162.508 28.2939 162.468 28.324 162.436 28.361C162.403 28.3981 162.378 28.4412 162.362 28.4881C162.345 28.5345 162.338 28.5838 162.34 28.6331C162.343 28.6825 162.355 28.7308 162.376 28.7753C162.398 28.8198 162.428 28.8596 162.465 28.8923C162.502 28.925 162.545 28.95 162.592 28.9657C162.88 29.0523 163.185 29.0657 163.48 29.0046C163.775 28.9435 164.05 28.81 164.28 28.616C164.701 28.3499 164.958 28.2068 165.316 28.3363C165.674 28.4657 165.805 28.7415 165.965 29.2115C166.025 29.5067 166.157 29.7824 166.349 30.014C166.542 30.2456 166.789 30.4258 167.068 30.5385C167.358 30.627 167.665 30.6414 167.962 30.5805C168.258 30.5196 168.535 30.3852 168.766 30.1898C169.187 29.9237 169.444 29.7806 169.802 29.9101C170.16 30.0395 170.291 30.3153 170.451 30.7854C170.509 31.0826 170.64 31.3607 170.832 31.5942C171.025 31.8278 171.273 32.0093 171.553 32.1222C171.843 32.2063 172.15 32.2184 172.445 32.1577C172.741 32.0969 173.018 31.9651 173.251 31.7736C173.672 31.5075 173.929 31.3644 174.287 31.4939C174.645 31.6233 174.766 31.898 174.938 32.3592C174.995 32.6564 175.126 32.9345 175.318 33.168C175.511 33.4016 175.759 33.5831 176.04 33.6961L176.118 33.7146Z" fill="black"/>
</g>
<path d="M46.3772 54.3539C46.6875 52.73 48.7972 50.6665 50.5216 50.6173C51.3416 50.5953 52.5522 50.9484 52.9049 51.5337C53.2575 52.119 53.1272 53.5938 52.6298 54.0595C51.4284 55.21 50.0235 56.1269 48.4867 56.7635C46.9566 57.3684 46.0355 56.1702 46.3772 54.3539ZM51.1676 51.5694C49.3073 51.3345 47.1207 53.2639 47.3099 54.8288C47.3536 55.189 48.2874 55.8197 48.4559 55.7181C49.6513 55.0472 50.9279 54.3668 51.8406 53.3803C52.7533 52.3937 52.0676 51.7085 51.1712 51.57L51.1676 51.5694Z" fill="black"/>
<path d="M52.415 59.4016C52.212 59.1331 51.5084 58.6045 51.4261 57.9911C51.3044 57.0372 53.3367 55.3788 54.1563 55.7782C54.8581 56.1318 55.6629 57.0415 55.7647 57.7909C55.8936 58.8637 54.286 59.6876 52.415 59.4016ZM52.464 58.0995L53.0557 58.8491L54.8364 57.8484L53.7893 56.5385L52.464 58.0995Z" fill="black"/>
<path d="M7.51257 25.0988C8.41968 23.7375 9.2089 22.2765 10.2933 21.0764C10.6259 20.706 11.7486 21.0462 12.5747 21.3546C9.86382 21.6037 9.90096 24.5591 8.31656 25.7722L7.51257 25.0988Z" fill="black"/>
<path d="M47.4824 9.11814C50.337 6.66663 52.2272 6.71626 53.2994 9.07136C52.4089 8.93167 51.3906 8.59193 50.411 8.68237C49.4314 8.77281 48.5616 9.32258 47.6398 9.67163L47.4824 9.11814Z" fill="black"/>
<path d="M8.926 20.4399L6.46522 24.249C6.20119 23.8481 5.77648 23.4038 5.85328 23.2786C6.61142 22.1058 7.42811 21.0031 8.23552 19.8759L8.926 20.4399Z" fill="black"/>
<path d="M48.8502 5.97923C51.3346 4.87816 52.1439 5.15277 52.8043 6.73807L48.8502 5.97923Z" fill="black"/>
<path d="M54.0823 20.0275C56.9905 21.1143 57.4728 23.2559 57.0055 25.7892C56.4402 28.8365 53.7612 30.1115 50.9522 28.7467C49.9712 28.2726 48.9131 27.976 47.8934 27.6007L47.6544 28.0279C47.9834 28.304 48.2752 28.7465 48.6554 28.851C50.4674 29.4031 50.718 30.6788 50.565 32.3277C50.1393 36.897 49.2732 41.3405 47.3304 45.5226C45.6898 49.0532 43.0022 49.9667 39.5256 48.0773C35.93 46.1168 32.3905 44.0508 28.8485 41.9778C27.8693 41.4028 27.0095 40.6985 27.7155 39.261C27.9809 38.7237 27.7767 37.9515 27.7715 37.2922L26.0571 38.7228L24.3451 38.3292C24.9606 39.2984 25.3592 39.9489 25.7532 40.545C24.1926 42.0537 21.5084 42.4049 20.1065 41.3168C18.1981 39.8434 17.5952 37.8596 18.8539 35.8923C17.8069 36.0483 17.0586 36.3156 16.353 36.2302C15.0646 36.0768 13.4922 36.0832 12.6107 35.343C11.5485 34.4428 10.8276 32.8564 12.1554 31.3678L14.5771 32.3342C13.5062 30.4796 12.5774 29.064 11.8593 27.5487C11.5568 26.8651 11.5114 26.0952 11.7317 25.3809C12.008 24.6524 12.5446 24.0522 13.2378 23.6965C13.5979 23.5361 14.407 24.1594 14.8886 24.5742C17.4235 26.7601 19.8644 29.0577 22.457 31.1737C23.2112 31.7897 24.3473 31.9326 25.4694 32.3452C25.4648 31.7298 25.5088 31.5288 25.4579 31.5C23.6372 30.5865 23.5221 30.1131 24.711 28.3846C25.8147 26.7441 27.4842 25.5677 29.4004 25.0801C31.3166 24.5925 33.3453 24.8279 35.099 25.7413C36.255 26.3495 36.5264 25.7538 36.8082 24.8897C37.6562 22.3244 39.6742 21.0393 42.0569 20.2412C43.796 19.6588 45.3533 20.2473 46.8492 21.2557L45.7976 23.7699C48.2957 22.4512 49.0403 20.6184 49.184 18.5002C49.2878 16.9541 49.1727 15.3907 49.1848 13.8353C49.1953 12.7413 49.3341 11.2981 50.6506 11.5049C51.739 11.6698 52.8528 12.6747 53.633 13.5815C54.4132 14.4882 54.0478 15.4281 52.855 15.9399C52.6588 16.0142 52.55 16.2878 52.0025 16.948C53.0087 16.6631 53.5824 16.6543 53.9447 16.3728C54.8465 15.6747 55.816 15.6001 56.4175 16.4583C56.631 16.8091 56.7702 17.2 56.8263 17.6069C56.8825 18.0137 56.8545 18.4277 56.744 18.8232C56.612 19.2259 55.4998 19.2944 54.8409 19.5439C54.5794 19.6912 54.3262 19.8526 54.0823 20.0275Z" fill="white"/>
<path d="M52.1007 30.5554C51.4804 33.9441 50.99 37.1995 50.259 40.4017C49.7728 42.3379 49.1278 44.2308 48.3305 46.061C46.9312 49.4562 44.4641 50.8993 41.0336 49.6818C37.7906 48.5254 34.7389 46.7316 31.6789 45.0851C30.2096 44.295 28.919 43.1728 27.5063 42.2571C27.1203 41.9958 26.6508 41.8879 26.1894 41.9542C20.0136 43.6357 18.8008 43.0891 16.4538 37.4097C14.457 37.3644 12.4851 37.4378 11.1175 35.2868C10.2045 33.8492 10.3311 32.7233 10.8099 31.2997C11.0848 30.4826 11.1166 29.6033 10.9014 28.7685C10.4575 27.2895 10.0636 25.8998 10.9076 24.4461C12.0688 22.4435 14.04 22.2942 15.6713 23.9246C17.7945 26.05 20.0617 28.0367 22.3226 30.134C26.1796 24.4457 29.4984 23.0928 35.4545 24.44C39.5901 18.8946 42.0665 18.005 47.7802 20.3416C47.9048 18.7235 48.0382 17.2344 48.1216 15.7401C48.1536 15.3273 47.9894 14.8725 48.0029 14.4426C48.0503 12.8217 47.9342 11.0864 50.0211 10.5125C50.9376 10.2768 51.9088 10.387 52.7492 10.822C53.5896 11.257 54.2403 11.9864 54.5769 12.8708C55.0429 14.1249 55.9409 15.1717 57.1095 15.8231C58.6666 16.7602 58.227 18.2451 57.7636 19.6669C57.5977 20.2026 57.3075 20.9176 57.5158 21.3196C59.5155 25.1188 58.0063 30.6154 52.1007 30.5554ZM54.0811 20.0275C54.3356 19.8613 54.5991 19.7093 54.8705 19.5723C55.5294 19.3227 56.6415 19.2543 56.7736 18.8516C56.884 18.4561 56.912 18.042 56.8559 17.6352C56.7997 17.2284 56.6606 16.8375 56.4471 16.4867C55.8456 15.6284 54.876 15.703 53.9742 16.4012C53.6119 16.6826 53.0382 16.6915 52.032 16.9763C52.583 16.3149 52.6896 16.0461 52.8846 15.9682C54.0826 15.4705 54.412 14.4882 53.6626 13.6098C52.9132 12.7315 51.7672 11.6947 50.6802 11.5333C49.3636 11.3265 49.2248 12.7696 49.2143 13.8636C49.2022 15.4191 49.3173 16.9824 49.2135 18.5285C49.0699 20.6467 48.3226 22.4725 45.8271 23.7982L46.8788 21.2841C45.3723 20.2796 43.815 19.6912 42.0865 20.2696C39.7037 21.0677 37.6629 22.3454 36.8378 24.918C36.5559 25.7822 36.2846 26.3778 35.1285 25.7696C33.3749 24.8562 31.3462 24.6208 29.43 25.1084C27.5137 25.596 25.8443 26.7724 24.7405 28.413C23.5516 30.1415 23.6708 30.6254 25.4874 31.5284C25.5371 31.5536 25.4943 31.7582 25.4989 32.3736C24.3839 31.9583 23.2408 31.8181 22.4865 31.202C19.894 29.0861 17.453 26.7884 14.9181 24.6025C14.4365 24.1878 13.6274 23.5645 13.2674 23.7249C12.5742 24.0806 12.0375 24.6808 11.7612 25.4093C11.541 26.1236 11.5863 26.8935 11.8889 27.577C12.6069 29.0924 13.5357 30.5079 14.6067 32.3626L12.1849 31.3961C10.8571 32.8848 11.5781 34.4712 12.6403 35.3714C13.5182 36.1129 15.0942 36.1052 16.3825 36.2585C17.0881 36.344 17.8365 36.0766 18.8834 35.9206C17.6261 37.8915 18.2312 39.8704 20.1361 41.3451C21.5326 42.4193 24.2221 42.0821 25.7828 40.5734C25.3939 39.9593 24.9941 39.3372 24.3746 38.3576L26.0866 38.7512L27.801 37.3206C27.7922 37.9851 27.9964 38.7574 27.7451 39.2893C27.0391 40.7268 27.8989 41.4311 28.878 42.0061C32.4131 44.0818 35.9568 46.1381 39.5552 48.1057C43.0177 50.0004 45.7127 49.064 47.3599 45.5509C49.3028 41.3689 50.1662 36.9183 50.5945 32.356C50.7436 30.6966 50.4829 29.4368 48.6849 28.8794C48.2994 28.7609 48.0129 28.3324 47.684 28.0562L47.923 27.6291C48.9427 28.0044 50.0042 28.2997 50.9817 28.7751C53.7908 30.1398 56.4698 28.8649 57.035 25.8176C57.4821 23.2519 56.9997 21.1103 54.0811 20.0275Z" fill="black"/>
<path d="M51.1702 51.5701C52.0653 51.716 52.7418 52.4111 51.8432 53.3809C50.9447 54.3508 49.6724 55.0509 48.4585 55.7188C48.2827 55.8192 47.3563 55.1897 47.3125 54.8294C47.1233 53.2646 49.2988 51.3333 51.1702 51.5701Z" fill="white"/>
<path d="M52.463 58.1069L53.7864 56.5569L54.8336 57.8668L53.0528 58.8675L52.463 58.1069Z" fill="white"/>
</g>
<defs>
<clipPath id="clip0_396_12769">
<rect width="207" height="280" fill="white"/>
</clipPath>
<clipPath id="clip1_396_12769">
<rect width="50.83" height="52.42" fill="white" transform="translate(144 4)"/>
</clipPath>
</defs>
</svg>
