<svg width="146" height="116" viewBox="0 0 146 116" fill="none" xmlns="http://www.w3.org/2000/svg">
<g clip-path="url(#clip0_338_8990)">
<rect x="1.3" y="78.1334" width="37.0667" height="37.0667" rx="1.65503" stroke="black" stroke-width="1.6"/>
<path d="M15.3588 92.5797H18.2926C19.2173 92.5797 19.9252 92.7474 20.4162 93.0829C20.9072 93.4185 21.1527 93.9667 21.1527 94.7278C21.1527 95.3416 20.9931 95.8121 20.674 96.1394C20.363 96.4668 19.9416 96.6877 19.4096 96.8023C20.0889 96.8923 20.5962 97.101 20.9318 97.4283C21.2755 97.7557 21.4473 98.2385 21.4473 98.8768C21.4473 99.3269 21.3655 99.7115 21.2018 100.031C21.0381 100.35 20.8131 100.612 20.5267 100.816C20.2403 101.013 19.9006 101.156 19.5078 101.246C19.115 101.336 18.6895 101.381 18.2312 101.381H15.3588V92.5797ZM16.2304 93.3775V96.4586H18.1576C18.7877 96.4586 19.2992 96.3277 19.692 96.0658C20.0848 95.7957 20.2812 95.362 20.2812 94.7646C20.2812 94.2491 20.1093 93.889 19.7656 93.6844C19.4301 93.4798 18.9391 93.3775 18.2926 93.3775H16.2304ZM16.2304 97.2442V100.595H18.2312C18.5749 100.595 18.89 100.567 19.1764 100.509C19.4628 100.452 19.7042 100.358 19.9006 100.227C20.1052 100.088 20.2607 99.912 20.3671 99.6992C20.4817 99.4783 20.539 99.2123 20.539 98.9013C20.539 98.3121 20.3507 97.8907 19.9743 97.637C19.606 97.3751 19.025 97.2442 18.2312 97.2442H16.2304Z" fill="black"/>
<rect x="20.9402" y="39.4667" width="37.0667" height="37.0667" rx="1.65503" stroke="black" stroke-width="1.6"/>
<path d="M34.9931 53.913H37.9023C38.8761 53.913 39.6208 54.1094 40.1364 54.5022C40.6519 54.895 40.9097 55.5129 40.9097 56.3558C40.9097 57.125 40.7174 57.7101 40.3328 58.1111C39.9481 58.5121 39.4367 58.774 38.7984 58.8967L41.2411 62.7143H40.2468L37.8655 58.9827H35.8646V62.7143H34.9931V53.913ZM35.8646 54.7109V58.197H37.7427C38.0864 58.197 38.3974 58.1643 38.6756 58.0988C38.9539 58.0334 39.1912 57.927 39.3876 57.7797C39.584 57.6324 39.7354 57.4442 39.8418 57.215C39.9563 56.9777 40.0136 56.6872 40.0136 56.3435C40.0136 55.7625 39.8336 55.3451 39.4735 55.0914C39.1216 54.8378 38.5979 54.7109 37.9023 54.7109H35.8646Z" fill="black"/>
<rect x="107.48" y="78.1334" width="37.0667" height="37.0667" rx="1.65503" stroke="black" stroke-width="1.6"/>
<path d="M122.043 92.5797H124.965C125.537 92.5797 126.073 92.6533 126.573 92.8006C127.072 92.9397 127.506 93.1729 127.874 93.5003C128.242 93.8194 128.533 94.245 128.745 94.7769C128.958 95.3006 129.064 95.9471 129.064 96.7164C129.064 97.4938 128.958 98.173 128.745 98.754C128.533 99.3351 128.238 99.822 127.861 100.215C127.485 100.599 127.035 100.89 126.511 101.086C125.996 101.283 125.435 101.381 124.83 101.381H122.043V92.5797ZM122.915 93.3775V100.595H124.842C125.316 100.595 125.754 100.518 126.155 100.362C126.556 100.207 126.904 99.9734 127.199 99.6624C127.493 99.3432 127.722 98.9464 127.886 98.4717C128.05 97.9889 128.132 97.4201 128.132 96.7655C128.132 96.119 128.05 95.5789 127.886 95.1452C127.722 94.7032 127.497 94.3555 127.211 94.1018C126.933 93.8399 126.601 93.6558 126.217 93.5494C125.832 93.4348 125.419 93.3775 124.977 93.3775H122.915Z" fill="black"/>
<rect x="79.2471" y="39.4667" width="37.0667" height="37.0667" rx="1.65503" stroke="black" stroke-width="1.6"/>
<path d="M100.03 62.7143H98.8267L93.9289 54.9073V62.7143H93.1064V53.913H94.2849L99.2072 61.7568V53.913H100.03V62.7143Z" fill="black"/>
<rect x="47.9455" y="0.8" width="37.0667" height="37.0667" rx="1.65503" fill="#F4AD7C" stroke="black" stroke-width="1.6"/>
<path d="M65.1189 15.2464H66.371L69.673 24.0477H68.7524L67.7581 21.384H63.6705L62.6762 24.0477H61.8538L65.1189 15.2464ZM67.4635 20.5984L65.6959 15.897L63.9528 20.5984H67.4635Z" fill="black"/>
</g>
<defs>
<clipPath id="clip0_338_8990">
<rect width="145" height="116" fill="white" transform="translate(0.5)"/>
</clipPath>
</defs>
</svg>
