<svg width="152" height="116" viewBox="0 0 152 116" fill="none" xmlns="http://www.w3.org/2000/svg">
<g clip-path="url(#clip0_344_10836)">
<path d="M25.123 59.2193C24.8156 59.0982 24.5456 58.8986 24.3398 58.6407C24.1341 58.3827 23.9999 58.0754 23.9506 57.7494C23.8499 57.0287 24.0166 56.296 24.4196 55.6893C24.4792 55.5962 24.511 55.488 24.511 55.3775C24.511 55.267 24.4792 55.1589 24.4196 55.0657C24.3526 54.9764 24.2609 54.9087 24.1556 54.8711C24.0504 54.8335 23.9364 54.8276 23.8278 54.8542C23.5849 54.8976 23.3348 54.8738 23.1045 54.7855C22.8742 54.6971 22.6726 54.5476 22.5214 54.3531C22.1541 53.8647 21.909 53.2958 21.8068 52.6938C21.545 51.7275 21.545 50.7092 21.8068 49.7429C21.9189 49.3083 22.1426 48.9103 22.4559 48.5881C22.7691 48.2659 23.1612 48.0306 23.5933 47.9055C24.038 47.848 24.4901 47.8956 24.913 48.0446C25.3358 48.1935 25.7176 48.4396 26.0275 48.763C26.7163 49.5077 27.2817 50.3573 27.7023 51.2796L27.7805 51.3798C27.9859 54.3054 28.5445 57.1956 29.4442 59.9877C29.0713 59.9682 28.7125 59.8395 28.4126 59.6177C28.1127 59.3958 27.8851 59.0907 27.7582 58.7405C27.7249 58.6339 27.6602 58.5397 27.5726 58.4702C27.485 58.4007 27.3785 58.3591 27.2669 58.3508C27.1562 58.3409 27.0451 58.3656 26.9491 58.4214C26.853 58.4773 26.7768 58.5616 26.7309 58.6625C26.5755 58.9334 26.3271 59.139 26.0315 59.2413C25.736 59.3436 25.4133 59.3358 25.123 59.2193Z" fill="#F4AD7C"/>
<path d="M18.3231 58.9299C18.1309 59.0704 17.9058 59.1596 17.6693 59.1888C17.4328 59.218 17.1928 59.1864 16.972 59.0969C16.596 58.9574 16.2599 58.7281 15.9933 58.4292C15.7266 58.1302 15.5375 57.7707 15.4423 57.382C15.152 55.901 15.9894 54.3754 16.838 53.0837C16.9129 52.9725 16.9451 52.8381 16.9287 52.7051C16.9123 52.5722 16.8484 52.4496 16.7487 52.3598C16.6466 52.2756 16.5183 52.2296 16.3858 52.2296C16.2534 52.2296 16.125 52.2756 16.0229 52.3598C15.5139 52.843 14.9144 53.2214 14.2587 53.4734C14.0002 53.5621 13.722 53.5767 13.4555 53.5157C13.1891 53.4547 12.9452 53.3205 12.7513 53.1282C12.6185 52.8263 12.5499 52.5002 12.5499 52.1705C12.5499 51.8408 12.6185 51.5147 12.7513 51.2129C13.6822 47.9772 15.3873 45.0156 17.7201 42.5827C18.4335 41.7254 19.3853 41.0977 20.4557 40.7788C22.2981 40.4113 24.0735 41.8923 25.2459 43.095C26.2012 44.1208 27.0503 45.24 27.7805 46.4357C27.7023 47.3042 27.6465 48.184 27.6465 49.0637C27.3839 48.6627 27.0809 48.2895 26.7421 47.9501C26.3023 47.5004 25.7595 47.1641 25.1603 46.9701C24.5612 46.7761 23.9238 46.7303 23.303 46.8366C22.6784 46.9971 22.1064 47.3165 21.6426 47.7634C21.1787 48.2104 20.839 48.7696 20.6567 49.3866C20.3432 50.5425 20.3432 51.7607 20.6567 52.9166C20.8046 53.691 21.1336 54.4197 21.617 55.0435C21.981 55.4807 22.4794 55.786 23.035 55.9121C22.7898 56.5502 22.7166 57.2414 22.8229 57.9165C22.9093 58.4387 23.1324 58.9289 23.4696 59.3375C23.8068 59.7462 24.2462 60.0588 24.7434 60.2439C25.119 60.3623 25.5175 60.3897 25.9058 60.3238C26.2942 60.258 26.6613 60.1008 26.9766 59.8653C27.2592 60.2411 27.6247 60.5471 28.0448 60.7595C28.465 60.9719 28.9285 61.085 29.3995 61.0902H29.6787C29.8127 61.5133 29.9578 61.9365 30.1253 62.3596L31.6885 66.0344C31.2165 66.8208 30.4913 67.4244 29.6311 67.7469C28.7709 68.0693 27.8265 68.0915 26.952 67.8099C26.0775 67.5282 25.3246 66.9593 24.816 66.196C24.3074 65.4326 24.0732 64.52 24.1516 63.6068C24.1604 63.4807 24.1267 63.3553 24.0559 63.2504C23.9851 63.1455 23.8813 63.0671 23.7608 63.0278C23.6398 62.9888 23.509 62.993 23.3908 63.0398C23.2726 63.0865 23.1745 63.1728 23.1132 63.2839C22.8693 63.7997 22.4765 64.2312 21.9851 64.5228C21.4937 64.8145 20.9262 64.9531 20.3553 64.9208C19.8988 64.7656 19.4979 64.4803 19.2022 64.1004C18.9065 63.7204 18.729 63.2623 18.6916 62.7828C18.6215 61.6491 18.781 60.513 19.1605 59.4421C19.1914 59.3284 19.1853 59.2078 19.1432 59.0978C19.1011 58.9877 19.025 58.8939 18.926 58.8296C18.8263 58.7874 18.7167 58.7745 18.6099 58.7922C18.5031 58.81 18.4036 58.8577 18.3231 58.9299Z" fill="#F4AD7C"/>
<path d="M17.2177 77.5486C16.8347 78.0127 16.3087 78.3376 15.7215 78.4729C15.3592 78.4805 14.9995 78.411 14.6664 78.2689C14.3333 78.1268 14.0344 77.9154 13.7898 77.6488C11.646 75.5776 11.646 72.081 11.8246 68.9296C11.8322 68.794 11.7899 68.6603 11.7056 68.5537C11.6213 68.4471 11.5008 68.3748 11.3668 68.3506C11.2315 68.3282 11.0925 68.3553 10.9756 68.4269C10.8586 68.4985 10.7716 68.6098 10.7304 68.7403C10.1837 70.6353 9.0789 72.3229 7.55926 73.5843C7.43644 73.6846 7.06794 73.9741 6.83346 73.9295C6.59898 73.885 6.42035 73.5509 6.29752 72.983C5.53171 69.5404 5.768 65.9512 6.97862 62.638C7.0166 62.531 7.02096 62.4151 6.99102 62.3056C6.96109 62.1962 6.89834 62.0984 6.81117 62.0255C6.7273 61.9501 6.62169 61.903 6.5094 61.8911C6.39712 61.8791 6.28389 61.9027 6.18589 61.9587C5.42586 62.4575 4.81297 63.1494 4.4105 63.9631C4.29884 64.1636 4.17601 64.3529 4.05319 64.5422C3.60656 65.2103 2.83614 65.923 2.12153 65.6558C1.40692 65.3885 1.12774 64.3974 1.11658 63.4286C1.11658 60.3775 2.36715 57.3486 3.4949 54.6871C6.45383 47.6605 9.80357 39.7097 15.5651 33.9749C15.7761 33.617 16.0695 33.3143 16.421 33.0918C16.7724 32.8693 17.1719 32.7334 17.5865 32.6953C18.001 32.6572 18.4187 32.7181 18.805 32.8728C19.1913 33.0275 19.5352 33.2717 19.8082 33.5851C23.0866 35.9145 26.0446 38.6624 28.6068 41.7587C28.347 42.7007 28.1383 43.6561 27.9815 44.6205C27.394 43.7652 26.7447 42.9539 26.0386 42.1929C24.0846 40.0883 22.0748 39.1752 20.2101 39.5427C18.9033 39.8908 17.7345 40.629 16.8604 41.6584C14.4091 44.2288 12.6131 47.349 11.6236 50.7563C11.4366 51.2229 11.3576 51.7255 11.3924 52.2268C11.4272 52.7281 11.5749 53.2151 11.8246 53.6515C12.1523 54.026 12.583 54.2964 13.0634 54.429C13.5437 54.5616 14.0525 54.5507 14.5267 54.3976L14.7836 54.3197C14.2951 55.3016 14.1309 56.4126 14.3146 57.4933C14.4427 58.071 14.7144 58.6072 15.1046 59.0528C15.4948 59.4984 15.991 59.839 16.5477 60.0434C16.9466 60.1921 17.3749 60.2455 17.7983 60.1993C17.5646 61.0622 17.4927 61.9606 17.5861 62.8496C17.6483 63.5567 17.9221 64.229 18.3721 64.779C18.8221 65.329 19.4274 65.7315 20.1096 65.9341C20.6604 66.0265 21.2254 65.9824 21.755 65.8057C22.2847 65.629 22.7626 65.3251 23.1467 64.9208C23.3652 65.8585 23.8314 66.7207 24.4971 67.4179C25.1627 68.115 26.0035 68.6217 26.9319 68.8851C27.2966 68.9794 27.6717 69.0281 28.0485 69.0299C28.8423 69.0464 29.6304 68.8917 30.3589 68.5765C31.0873 68.2613 31.7389 67.793 32.2692 67.2036L37.6176 76.1121C37.8186 76.3905 38.0084 76.6801 38.2206 76.9584C37.8521 78.5954 35.7753 79.4528 34.1786 79.1299C32.3755 78.6409 30.829 77.4811 29.8574 75.8894C29.7916 75.7945 29.6978 75.7223 29.589 75.6829C29.4803 75.6435 29.3619 75.6387 29.2503 75.6693C29.1387 75.6999 29.0395 75.7643 28.9662 75.8536C28.8929 75.9429 28.8492 76.0527 28.8413 76.1678C28.8114 77.2675 28.6001 78.3548 28.216 79.386C28.0396 79.8418 27.759 80.2502 27.3965 80.5789C27.0341 80.9075 26.5997 81.1473 26.128 81.2791C24.5313 81.5797 23.0239 80.0096 22.2423 78.317C21.3674 76.3918 20.9399 74.2943 20.9918 72.1812C20.9976 72.1081 20.989 72.0346 20.9663 71.9648C20.9437 71.895 20.9075 71.8303 20.8598 71.7745C20.7635 71.6617 20.6262 71.5917 20.4781 71.5799C20.33 71.5681 20.1833 71.6154 20.0702 71.7115C19.9571 71.8076 19.887 71.9445 19.8752 72.0922C19.612 74.152 18.6784 76.0688 17.2177 77.5486Z" fill="#F4AD7C"/>
<path d="M124.13 57.1815C124.011 57.5628 123.776 57.8981 123.458 58.1413C123.14 58.3845 122.755 58.5238 122.355 58.54C123.167 55.7663 123.566 52.8885 123.538 49.999C123.607 49.9771 123.671 49.941 123.724 49.8931C123.778 49.8451 123.821 49.7863 123.851 49.7206C124.232 48.7824 124.759 47.9104 125.414 47.1371C125.706 46.7973 126.075 46.5321 126.491 46.3636C126.907 46.1951 127.357 46.1281 127.804 46.1683C128.241 46.2731 128.644 46.4892 128.973 46.7956C129.302 47.1021 129.545 47.4883 129.68 47.9166C129.968 48.8755 129.999 49.8931 129.769 50.8676C129.685 51.4737 129.464 52.0527 129.121 52.5602C128.978 52.7587 128.785 52.9159 128.562 53.0157C128.338 53.1154 128.092 53.1542 127.848 53.1281C127.739 53.0996 127.623 53.1057 127.517 53.1456C127.411 53.1854 127.32 53.2572 127.257 53.3508C127.197 53.4439 127.165 53.5521 127.165 53.6626C127.165 53.7731 127.197 53.8813 127.257 53.9744C127.685 54.5674 127.884 55.2955 127.815 56.0234C127.782 56.3523 127.66 56.6664 127.464 56.9327C127.268 57.1991 127.003 57.4081 126.698 57.5378C126.424 57.6466 126.12 57.6584 125.838 57.5713C125.555 57.4842 125.311 57.3034 125.146 57.059C125.095 56.9623 125.015 56.8837 124.917 56.8339C124.819 56.7841 124.708 56.7655 124.599 56.7806C124.491 56.7954 124.389 56.841 124.305 56.9121C124.222 56.9832 124.161 57.0768 124.13 57.1815Z" fill="#F4AD7C"/>
<path d="M120.222 64.3863C120.922 62.8471 121.526 61.2666 122.031 59.6536H122.087H122.344C122.836 59.649 123.32 59.5249 123.754 59.2921C124.188 59.0593 124.558 58.7248 124.834 58.3173C125.166 58.5401 125.547 58.6814 125.945 58.7298C126.342 58.7782 126.746 58.7323 127.123 58.5957C127.611 58.3888 128.035 58.0558 128.351 57.631C128.667 57.2063 128.863 56.7051 128.92 56.1793C128.999 55.501 128.899 54.8139 128.63 54.186C129.174 54.037 129.653 53.7119 129.992 53.2617C130.46 52.6012 130.759 51.8366 130.863 51.0346C131.13 49.8704 131.084 48.6564 130.729 47.5158C130.528 46.8989 130.169 46.3452 129.687 45.9096C129.205 45.474 128.618 45.1716 127.982 45.0325C127.361 44.9632 126.732 45.0444 126.149 45.2693C125.566 45.4941 125.046 45.856 124.633 46.3242C124.186 46.8276 123.81 47.3896 123.516 47.9946C123.449 47.2151 123.337 46.4245 123.192 45.645C123.192 45.645 123.192 45.567 123.192 45.5225C123.228 45.4865 123.258 45.4452 123.282 45.4C124.018 43.953 124.921 42.5964 125.973 41.3577C127.089 40.0549 128.786 38.5516 130.651 38.83C131.731 39.0958 132.707 39.6775 133.454 40.5003C135.893 42.8267 137.732 45.7075 138.813 48.8966C138.958 49.1953 139.039 49.521 139.051 49.8527C139.062 50.1845 139.004 50.515 138.88 50.823C138.696 51.0228 138.459 51.1672 138.196 51.24C137.934 51.3128 137.657 51.3111 137.395 51.2351C136.727 51.0215 136.108 50.677 135.575 50.2217C135.468 50.1413 135.335 50.1023 135.201 50.1118C135.067 50.1213 134.94 50.1787 134.845 50.2734C134.75 50.3682 134.693 50.494 134.683 50.6277C134.674 50.7614 134.713 50.894 134.794 51.0012C135.709 52.2595 136.614 53.7406 136.39 55.2328C136.313 55.6273 136.139 55.9966 135.884 56.3076C135.629 56.6186 135.3 56.8615 134.928 57.0145C134.713 57.1168 134.476 57.1613 134.239 57.1437C134.002 57.1262 133.773 57.047 133.576 56.9142C133.481 56.8447 133.366 56.8071 133.248 56.807C133.129 56.8068 133.014 56.8441 132.919 56.9134C132.823 56.9828 132.752 57.0806 132.716 57.1928C132.679 57.305 132.68 57.4259 132.717 57.5378C133.137 58.5739 133.346 59.6831 133.331 60.8006C133.317 61.2835 133.162 61.7519 132.884 62.1477C132.606 62.5435 132.218 62.8494 131.768 63.0277C131.196 63.0827 130.622 62.967 130.117 62.6954C129.612 62.4237 129.199 62.0083 128.931 61.5021C128.862 61.3981 128.758 61.3206 128.639 61.2822C128.519 61.2439 128.39 61.2468 128.273 61.2906C128.154 61.3329 128.054 61.4147 127.989 61.5222C127.924 61.6298 127.898 61.7564 127.915 61.8807C128.048 62.8239 127.843 63.7836 127.336 64.5905C126.828 65.3975 126.052 65.9999 125.143 66.2915C124.233 66.583 123.25 66.5451 122.366 66.1843C121.482 65.8235 120.755 65.1631 120.311 64.3195L120.222 64.3863Z" fill="#F4AD7C"/>
<path d="M121.316 40.1997C123.582 37.5626 126.174 35.2239 129.032 33.2399L130.863 31.8368C131.412 31.3044 132.115 30.9577 132.873 30.8458C133.736 30.9645 134.528 31.3871 135.106 32.0373C141.124 37.5049 144.832 45.2998 148.103 52.1816C149.354 54.7985 150.761 57.7495 150.872 60.8118C150.872 61.7249 150.682 62.7828 149.979 63.0389C149.276 63.295 148.46 62.6157 147.991 61.9253L147.601 61.3574C147.165 60.566 146.525 59.9048 145.747 59.4421C145.645 59.3897 145.529 59.3702 145.415 59.3861C145.301 59.4021 145.195 59.4527 145.111 59.5312C145.028 59.6098 144.972 59.7113 144.948 59.8224C144.924 59.9336 144.934 60.0494 144.977 60.1548C146.323 63.4125 146.711 66.9857 146.093 70.4553C145.993 71.0232 145.814 71.3795 145.602 71.4241C145.39 71.4686 144.988 71.2013 144.865 71.1123C143.308 69.9145 142.142 68.283 141.515 66.4241C141.484 66.2765 141.396 66.1472 141.269 66.0647C141.142 65.9822 140.988 65.9533 140.84 65.9843C140.692 66.0153 140.562 66.1037 140.479 66.23C140.397 66.3564 140.368 66.5103 140.399 66.658C140.711 69.776 140.879 73.3394 138.824 75.4552C138.593 75.7319 138.305 75.9557 137.979 76.1114C137.654 76.2671 137.298 76.3509 136.937 76.3571C136.348 76.2496 135.811 75.9523 135.408 75.5108C133.867 74.0962 132.838 72.213 132.482 70.1546C132.458 70.0147 132.38 69.8896 132.266 69.8047C132.152 69.7198 132.01 69.6817 131.868 69.698C131.726 69.7148 131.596 69.7854 131.504 69.8953C131.413 70.0051 131.367 70.1458 131.377 70.2882C131.533 72.3954 131.201 74.5102 130.405 76.4685C129.702 78.2057 128.273 79.8092 126.665 79.6199C126.175 79.5192 125.717 79.3028 125.328 78.9889C124.94 78.675 124.632 78.2728 124.432 77.8159C124.006 76.8016 123.742 75.727 123.65 74.6311C123.638 74.5184 123.591 74.4123 123.514 74.3282C123.438 74.2441 123.337 74.1864 123.226 74.1634C123.115 74.1376 122.999 74.1462 122.893 74.188C122.787 74.2298 122.697 74.3028 122.634 74.3973C121.733 76.0264 120.244 77.2526 118.469 77.827C116.85 78.2279 114.494 76.4017 114.059 74.8204C116.141 71.8769 117.989 68.7755 119.586 65.5444C120.093 66.183 120.738 66.6997 121.472 67.0563C122.206 67.4129 123.012 67.6003 123.829 67.6045C124.298 67.605 124.764 67.5375 125.213 67.4041C126.129 67.1002 126.946 66.5563 127.578 65.8295C128.211 65.1027 128.636 64.2196 128.809 63.2728C129.208 63.6646 129.699 63.9504 130.237 64.1041C130.776 64.2578 131.344 64.2744 131.89 64.1525C132.563 63.9179 133.149 63.4884 133.575 62.9189C134.001 62.3495 134.246 61.6661 134.28 60.9565C134.329 60.0639 134.216 59.1696 133.945 58.3174C134.369 58.3387 134.792 58.2665 135.184 58.1058C135.735 57.8776 136.22 57.5155 136.594 57.0526C136.969 56.5897 137.221 56.0406 137.328 55.4555C137.453 54.3671 137.238 53.2668 136.714 52.3041L136.96 52.3709C137.441 52.506 137.951 52.4955 138.426 52.3409C138.901 52.1863 139.32 51.8944 139.628 51.5024C139.86 51.0551 139.988 50.5614 140.001 50.0581C140.015 49.5548 139.914 49.055 139.706 48.596C138.584 45.2446 136.669 42.212 134.124 39.7543C133.209 38.77 132.018 38.0832 130.707 37.7833C128.842 37.5049 126.866 38.5071 125.012 40.7008C124.145 41.718 123.375 42.8141 122.712 43.9747C122.366 42.6758 121.898 41.4119 121.316 40.1997Z" fill="#F4AD7C"/>
<path d="M123.449 48.0726C123.505 48.7296 123.538 49.3866 123.538 50.0436C123.472 50.0737 123.399 50.0893 123.326 50.0893C123.253 50.0893 123.181 50.0737 123.114 50.0436C123.047 50.0136 122.987 49.9707 122.938 49.9173C122.888 49.8638 122.85 49.801 122.825 49.7325C122.8 49.664 122.789 49.5912 122.792 49.5184C122.796 49.4456 122.814 49.3742 122.846 49.3086C123.036 48.8966 123.226 48.4846 123.449 48.0726Z" fill="#231431"/>
<path d="M122.444 45.723C122.374 45.6882 122.312 45.6381 122.264 45.5764C122.216 45.5148 122.182 45.4431 122.165 45.3666C122.138 45.3032 122.124 45.2351 122.124 45.1662C122.124 45.0973 122.138 45.0291 122.165 44.9657C122.336 44.6465 122.515 44.3236 122.701 43.9969C122.842 44.524 122.965 45.0585 123.069 45.6005C122.99 45.6821 122.888 45.7375 122.776 45.7594C122.664 45.7813 122.548 45.7686 122.444 45.723Z" fill="#231431"/>
<path d="M122.031 59.6536C122.154 59.2973 122.265 58.9409 122.355 58.54C122.755 58.5238 123.14 58.3845 123.458 58.1413C123.776 57.8981 124.011 57.5628 124.13 57.1815C124.162 57.0752 124.225 56.9806 124.31 56.9093C124.395 56.8381 124.5 56.7933 124.61 56.7806C124.719 56.7655 124.83 56.7841 124.928 56.8339C125.026 56.8837 125.106 56.9623 125.157 57.059C125.323 57.3034 125.566 57.4842 125.849 57.5713C126.131 57.6584 126.435 57.6466 126.709 57.5378C127.014 57.4081 127.279 57.1991 127.475 56.9327C127.672 56.6664 127.793 56.3523 127.826 56.0234C127.895 55.2955 127.697 54.5674 127.268 53.9744C127.208 53.8813 127.176 53.7731 127.176 53.6626C127.176 53.5521 127.208 53.4439 127.268 53.3508C127.331 53.2572 127.422 53.1854 127.528 53.1456C127.634 53.1057 127.75 53.0996 127.86 53.1281C128.103 53.1542 128.349 53.1154 128.573 53.0157C128.797 52.9159 128.99 52.7587 129.132 52.5602C129.475 52.0527 129.697 51.4737 129.78 50.8676C130.01 49.8931 129.979 48.8755 129.691 47.9166C129.556 47.4883 129.313 47.1021 128.984 46.7956C128.655 46.4892 128.252 46.2731 127.815 46.1683C127.368 46.1281 126.918 46.1951 126.502 46.3636C126.087 46.5321 125.717 46.7973 125.425 47.1371C124.771 47.9104 124.243 48.7824 123.862 49.7206C123.833 49.7863 123.79 49.8451 123.736 49.8931C123.682 49.941 123.618 49.9771 123.55 49.999C123.55 49.342 123.55 48.685 123.46 48.028C123.754 47.423 124.13 46.861 124.577 46.3576C124.99 45.8894 125.51 45.5276 126.093 45.3027C126.676 45.0778 127.305 44.9966 127.927 45.0659C128.562 45.205 129.149 45.5074 129.631 45.943C130.113 46.3786 130.472 46.9323 130.673 47.5492C131.028 48.6898 131.075 49.9038 130.807 51.068C130.703 51.87 130.404 52.6346 129.936 53.2951C129.598 53.7453 129.118 54.0704 128.574 54.2194C128.843 54.8473 128.943 55.5344 128.864 56.2127C128.818 56.7268 128.638 57.2199 128.342 57.6436C128.047 58.0673 127.646 58.407 127.178 58.6291C126.802 58.7657 126.398 58.8116 126.001 58.7632C125.603 58.7148 125.222 58.5735 124.889 58.3507C124.614 58.7582 124.244 59.0927 123.81 59.3255C123.376 59.5583 122.892 59.6824 122.399 59.687H122.143L122.031 59.6536Z" fill="#231431"/>
<path d="M122.198 58.5735H122.355C122.265 58.9299 122.154 59.2862 122.031 59.6871C121.897 59.6651 121.776 59.593 121.693 59.4855C121.61 59.378 121.571 59.243 121.584 59.108C121.585 59.0313 121.603 58.9557 121.635 58.8861C121.667 58.8164 121.714 58.7544 121.772 58.7039C121.83 58.6535 121.898 58.6158 121.971 58.5933C122.045 58.5709 122.122 58.5641 122.198 58.5735Z" fill="#231431"/>
<path d="M121.294 40.2331C121.25 40.2916 121.195 40.3408 121.132 40.3781C121.069 40.4153 120.999 40.4398 120.926 40.4502C120.854 40.4605 120.78 40.4565 120.709 40.4384C120.638 40.4202 120.571 40.3883 120.513 40.3444C120.454 40.3006 120.404 40.2456 120.367 40.1827C120.33 40.1198 120.305 40.0501 120.295 39.9777C120.284 39.9054 120.288 39.8317 120.307 39.7608C120.325 39.69 120.357 39.6234 120.401 39.5649L120.769 39.0972C120.97 39.4536 121.149 39.821 121.316 40.2108L121.294 40.2331Z" fill="#231431"/>
<path d="M119.664 65.5667C119.854 65.1769 120.044 64.7872 120.222 64.3863C120.665 65.2299 121.393 65.8904 122.277 66.2512C123.161 66.612 124.144 66.6499 125.053 66.3583C125.962 66.0667 126.739 65.4643 127.246 64.6574C127.754 63.8505 127.959 62.8908 127.826 61.9476C127.808 61.8232 127.834 61.6966 127.899 61.5891C127.964 61.4816 128.065 61.3998 128.183 61.3574C128.301 61.3137 128.43 61.3107 128.55 61.3491C128.669 61.3875 128.772 61.465 128.842 61.569C129.11 62.0752 129.522 62.4906 130.027 62.7622C130.532 63.0339 131.107 63.1496 131.678 63.0946C132.129 62.9163 132.517 62.6104 132.794 62.2145C133.072 61.8187 133.228 61.3504 133.241 60.8674C133.256 59.75 133.047 58.6408 132.627 57.6047C132.59 57.4927 132.59 57.3719 132.626 57.2597C132.663 57.1475 132.734 57.0497 132.829 56.9803C132.925 56.911 133.04 56.8737 133.158 56.8738C133.277 56.874 133.392 56.9115 133.487 56.9811C133.684 57.1139 133.912 57.193 134.149 57.2106C134.386 57.2282 134.624 57.1836 134.838 57.0813C135.211 56.9283 135.54 56.6854 135.795 56.3744C136.05 56.0635 136.224 55.6942 136.301 55.2996C136.524 53.8074 135.62 52.3264 134.704 51.0681C134.624 50.9609 134.584 50.8282 134.594 50.6946C134.603 50.5609 134.661 50.4351 134.756 50.3403C134.851 50.2455 134.977 50.1881 135.111 50.1786C135.245 50.1691 135.378 50.2082 135.486 50.2886C136.019 50.7438 136.638 51.0884 137.306 51.3019C137.567 51.3779 137.845 51.3796 138.107 51.3068C138.37 51.2341 138.606 51.0897 138.791 50.8899C138.915 50.5819 138.973 50.2514 138.961 49.9196C138.95 49.5879 138.869 49.2622 138.724 48.9634C137.643 45.7743 135.804 42.8936 133.364 40.5672C132.618 39.7443 131.642 39.1627 130.562 38.8968C128.697 38.6184 126.989 40.1218 125.883 41.4246C124.832 42.6633 123.929 44.0198 123.192 45.4669C123.169 45.5121 123.139 45.5534 123.103 45.5893C122.999 45.0474 122.876 44.5129 122.734 43.9858C123.397 42.8252 124.167 41.7291 125.035 40.7119C126.888 38.4848 128.864 37.516 130.729 37.7944C132.041 38.0943 133.231 38.7811 134.146 39.7654C136.691 42.2231 138.606 45.2558 139.729 48.6071C139.936 49.0661 140.037 49.566 140.023 50.0692C140.01 50.5725 139.882 51.0663 139.651 51.5135C139.342 51.9056 138.924 52.1974 138.449 52.352C137.973 52.5066 137.463 52.5171 136.982 52.3821L136.736 52.3153C137.261 53.2779 137.475 54.3782 137.35 55.4667C137.243 56.0518 136.991 56.6008 136.617 57.0637C136.242 57.5266 135.757 57.8887 135.207 58.1169C134.814 58.2776 134.391 58.3499 133.967 58.3285C134.238 59.1808 134.352 60.075 134.302 60.9677C134.269 61.6772 134.023 62.3606 133.598 62.9301C133.172 63.4995 132.585 63.9291 131.913 64.1636C131.366 64.2856 130.798 64.2689 130.259 64.1152C129.721 63.9616 129.23 63.6757 128.831 63.2839C128.658 64.2307 128.233 65.1138 127.601 65.8406C126.968 66.5675 126.151 67.1113 125.236 67.4152C124.786 67.5486 124.32 67.6161 123.851 67.6156C123.045 67.6045 122.251 67.4149 121.527 67.0605C120.802 66.7062 120.166 66.196 119.664 65.5667Z" fill="#231431"/>
<path d="M119.362 64.0077C119.428 63.9754 119.5 63.9564 119.573 63.9518C119.647 63.9472 119.72 63.957 119.79 63.9808C119.859 64.0046 119.923 64.0419 119.978 64.0904C120.033 64.139 120.078 64.1979 120.11 64.2638C120.13 64.3085 120.156 64.3499 120.189 64.3863C120.01 64.7872 119.82 65.1769 119.63 65.5667C119.422 65.3185 119.246 65.0454 119.106 64.7538C119.062 64.6715 119.039 64.5797 119.039 64.4865C119.039 64.3933 119.062 64.3015 119.106 64.2193C119.166 64.1233 119.256 64.0492 119.362 64.0077Z" fill="#231431"/>
<path d="M113.378 75.9228C113.634 75.5664 113.891 75.2101 114.137 74.8092C114.572 76.3905 116.928 78.2167 118.547 77.8159C120.322 77.2414 121.811 76.0153 122.712 74.3861C122.775 74.2916 122.866 74.2186 122.971 74.1768C123.077 74.135 123.193 74.1264 123.304 74.1522C123.415 74.1752 123.516 74.2329 123.593 74.317C123.669 74.4011 123.716 74.5072 123.728 74.6199C123.82 75.7158 124.084 76.7904 124.51 77.8047C124.71 78.2616 125.018 78.6639 125.406 78.9778C125.795 79.2917 126.253 79.508 126.743 79.6087C128.351 79.8426 129.78 78.1945 130.484 76.4573C131.279 74.499 131.611 72.3842 131.455 70.277C131.445 70.1346 131.491 69.9939 131.582 69.8841C131.674 69.7743 131.804 69.7037 131.946 69.6869C132.088 69.6705 132.23 69.7087 132.344 69.7935C132.458 69.8784 132.536 70.0036 132.56 70.1434C132.916 72.2018 133.945 74.0851 135.486 75.4997C135.889 75.9411 136.426 76.2384 137.015 76.3459C137.377 76.3397 137.732 76.2559 138.058 76.1002C138.383 75.9446 138.671 75.7207 138.902 75.444C140.957 73.2836 140.789 69.7648 140.477 66.6468C140.446 66.4991 140.475 66.3452 140.557 66.2189C140.64 66.0925 140.77 66.0041 140.918 65.9731C141.066 65.9421 141.22 65.971 141.347 66.0535C141.474 66.136 141.562 66.2653 141.593 66.413C142.22 68.2718 143.386 69.9033 144.943 71.1011C145.066 71.1902 145.446 71.4685 145.68 71.4129C145.915 71.3572 146.071 71.012 146.171 70.4441C146.789 66.9745 146.402 63.4014 145.055 60.1436C145.012 60.0382 145.002 59.9225 145.026 59.8113C145.05 59.7001 145.106 59.5986 145.189 59.52C145.273 59.4416 145.379 59.3909 145.493 59.375C145.607 59.359 145.723 59.3786 145.825 59.4309C146.603 59.8936 147.243 60.5548 147.679 61.3463L148.07 61.9142C148.539 62.56 149.343 63.2282 150.057 63.0277C150.772 62.8273 150.984 61.7249 150.95 60.8006C150.839 57.7494 149.432 54.7873 148.181 52.1705C144.91 45.2886 141.203 37.4937 135.184 32.0261C134.606 31.3759 133.814 30.9533 132.951 30.8346C132.194 30.9465 131.49 31.2932 130.941 31.8256L129.11 33.2287C126.252 35.2127 123.66 37.5515 121.395 40.1885C121.227 39.8099 121.048 39.4424 120.847 39.075C123.107 36.5633 125.651 34.3212 128.429 32.3936L130.249 30.9905C130.987 30.3055 131.927 29.876 132.929 29.7656C134.086 29.8591 135.164 30.3887 135.944 31.2466C142.129 36.8144 145.892 44.7653 149.209 51.7362C150.493 54.4533 151.955 57.5267 152.078 60.8006C152.078 62.4932 151.52 63.7293 150.437 64.1413C149.153 64.5979 147.913 63.6847 147.176 62.6825L146.964 62.3819C147.685 65.1153 147.806 67.9713 147.321 70.7559C147.132 71.8138 146.685 72.4485 145.993 72.6155C145.693 72.6562 145.388 72.6315 145.099 72.543C144.81 72.4546 144.543 72.3045 144.318 72.1033C143.298 71.3673 142.41 70.4636 141.694 69.4307C141.694 71.9585 141.359 74.4752 139.628 76.3014C139.28 76.7023 138.847 77.0219 138.361 77.2374C137.874 77.4529 137.347 77.5592 136.814 77.5486C135.987 77.421 135.224 77.0304 134.637 76.4351C133.724 75.5776 132.968 74.5676 132.404 73.4507C132.239 74.6664 131.92 75.8563 131.455 76.9918C130.707 78.8292 129.121 80.8559 126.989 80.8559C126.829 80.8674 126.668 80.8674 126.508 80.8559C125.846 80.7271 125.224 80.4399 124.697 80.0191C124.17 79.5982 123.753 79.0562 123.483 78.4395C123.157 77.751 122.932 77.0199 122.813 76.268C121.816 77.6089 120.403 78.5836 118.793 79.0408C116.828 79.4528 114.349 77.7824 113.378 75.9228Z" fill="#231431"/>
<path d="M113.377 75.9228C113.245 75.6753 113.14 75.4139 113.065 75.1433C113.045 75.0618 113.042 74.9769 113.058 74.8943C113.073 74.8117 113.106 74.7334 113.154 74.6645C113.229 74.5632 113.335 74.4889 113.456 74.4529C113.598 74.4153 113.749 74.4352 113.876 74.5082C114.004 74.5811 114.098 74.7013 114.137 74.8426C113.891 75.2101 113.634 75.5665 113.377 75.9228Z" fill="#231431"/>
<path d="M115.521 58.9967C115.4 58.5534 115.162 58.1504 114.832 57.8294C114.502 57.5084 114.093 57.2809 113.645 57.1704C113.219 57.0657 112.772 57.0755 112.35 57.1987C111.929 57.3219 111.547 57.5542 111.245 57.8719C109.213 60.01 108.509 64.119 108.297 65.7894C108.229 66.0516 108.215 66.3248 108.255 66.5927C108.295 66.8606 108.389 67.1176 108.532 67.3484C108.945 67.7938 109.827 67.6268 110.519 67.3484C111.679 66.8168 112.713 66.0456 113.553 65.0857C114.392 64.1259 115.017 62.9994 115.387 61.7806C115.7 60.8849 115.747 59.9181 115.521 58.9967ZM107.192 65.678C107.362 64.3049 107.649 62.9489 108.051 61.6247C108.5 59.9811 109.313 58.459 110.43 57.1704C110.862 56.7037 111.414 56.3621 112.025 56.1817C112.636 56.0014 113.285 55.9891 113.902 56.1459C114.541 56.3014 115.127 56.6237 115.6 57.0797C116.073 57.5356 116.416 58.1088 116.593 58.7405C116.863 59.8447 116.816 61.002 116.459 62.0812C116.049 63.4568 115.347 64.7284 114.401 65.81C113.455 66.8916 112.287 67.758 110.977 68.3506C110.449 68.6007 109.875 68.7373 109.291 68.7515C109 68.7638 108.71 68.7157 108.439 68.6102C108.168 68.5048 107.922 68.3443 107.716 68.139C107.447 67.7912 107.26 67.3873 107.169 66.9573C107.078 66.5273 107.086 66.0824 107.192 65.6558V65.678Z" fill="#231431"/>
<path d="M89.2705 31.9148C91.6592 30.4726 94.3523 29.6059 97.1357 29.3836C99.9191 29.1613 102.716 29.5895 105.305 30.6342C105.379 30.6568 105.448 30.6947 105.507 30.7454C105.566 30.7961 105.613 30.8586 105.647 30.9288C105.68 30.999 105.698 31.0753 105.7 31.1529C105.702 31.2305 105.688 31.3076 105.658 31.3794C105.628 31.4511 105.584 31.5159 105.527 31.5695C105.471 31.6231 105.404 31.6644 105.331 31.6907C105.258 31.717 105.18 31.7277 105.102 31.7222C105.025 31.7167 104.949 31.695 104.88 31.6587C102.457 30.6753 99.836 30.272 97.228 30.4808C94.6201 30.6896 92.0974 31.5049 89.8623 32.8613C89.7704 32.9132 89.6664 32.94 89.5608 32.9393C89.4659 32.9401 89.3725 32.9158 89.2901 32.8689C89.2077 32.8219 89.1393 32.754 89.0919 32.672C89.0532 32.6108 89.027 32.5424 89.0151 32.471C89.0031 32.3996 89.0055 32.3265 89.0222 32.2561C89.0388 32.1856 89.0693 32.1191 89.1119 32.0605C89.1546 32.0019 89.2085 31.9524 89.2705 31.9148Z" fill="#231431"/>
<path d="M92.9552 17.1712C91.0428 18.4003 89.0593 19.5158 87.0151 20.5119C86.9378 20.5278 86.8579 20.5278 86.7806 20.5119C86.6835 20.5123 86.5877 20.4894 86.5015 20.445C86.4253 20.4009 86.3604 20.3397 86.3119 20.2662C86.2635 20.1928 86.2328 20.1092 86.2223 20.0219C85.5412 13.8193 85.195 7.36066 88.9021 2.50552C89.8532 1.32024 91.1539 0.463218 92.6203 0.0556795C93.4168 -0.160942 94.2596 -0.139203 95.0438 0.118192C95.828 0.375586 96.519 0.857276 97.0308 1.50332C97.3553 1.98935 97.5771 2.53624 97.6827 3.11061C97.7883 3.68497 97.7754 4.27477 97.6449 4.84401C98.2214 4.3805 98.9127 4.08097 99.6459 3.97708C100.379 3.87319 101.127 3.96881 101.81 4.25382C102.422 4.62987 102.905 5.18293 103.194 5.83938C103.483 6.49584 103.565 7.22456 103.429 7.92859C103.147 9.20706 102.486 10.3712 101.531 11.2693C99.7872 12.9413 97.8178 14.3618 95.6797 15.4897C94.7306 16.0687 93.8485 16.6144 92.9552 17.1712ZM89.7842 3.27388C86.4345 7.60565 86.6578 13.4741 87.2495 19.1979C88.9914 18.3293 90.6998 17.2603 92.3747 16.2246C93.2679 15.6679 94.1612 15.1111 95.0544 14.5877C97.0876 13.4987 98.9652 12.1429 100.637 10.5566C101.441 9.80741 101.997 8.83284 102.234 7.76154C102.33 7.28551 102.282 6.7917 102.095 6.34334C101.908 5.89498 101.591 5.5125 101.184 5.24489C100.068 4.67698 98.7057 5.18922 96.8298 6.81502C96.7304 6.89549 96.6062 6.9394 96.4781 6.9394C96.35 6.9394 96.2258 6.89549 96.1264 6.81502C96.0239 6.73608 95.9515 6.62466 95.921 6.49915C95.8906 6.37364 95.9039 6.24153 95.9589 6.1246C96.2268 5.55668 97.0754 3.56342 96.037 2.17146C95.6582 1.71844 95.1571 1.38324 94.593 1.20561C94.029 1.02797 93.4258 1.01535 92.8548 1.16924C91.6348 1.53129 90.5603 2.26775 89.7842 3.27388Z" fill="#231431"/>
<path d="M82.2026 100.165C81.2586 101.471 80.1304 102.633 78.8528 103.617C78.7955 103.667 78.7285 103.705 78.6559 103.728C78.5834 103.752 78.5068 103.76 78.431 103.752C78.3551 103.745 78.2816 103.722 78.2149 103.685C78.1482 103.649 78.0898 103.599 78.0432 103.539C77.9966 103.478 77.9629 103.409 77.944 103.336C77.9252 103.262 77.9218 103.185 77.9338 103.11C77.9459 103.035 77.9732 102.963 78.0141 102.899C78.055 102.835 78.1086 102.78 78.1717 102.737C79.347 101.82 80.3815 100.735 81.2423 99.5192C81.2818 99.4528 81.3347 99.3953 81.3976 99.3503C81.4605 99.3054 81.532 99.274 81.6077 99.2581C81.6835 99.2422 81.7617 99.2422 81.8375 99.258C81.9132 99.2739 81.9848 99.3053 82.0477 99.3502C82.1107 99.3952 82.1635 99.4527 82.203 99.5191C82.2424 99.5855 82.2676 99.6593 82.2769 99.736C82.2862 99.8126 82.2795 99.8903 82.2571 99.9642C82.2347 100.038 82.1971 100.106 82.1468 100.165H82.2026Z" fill="#231431"/>
<path d="M42.5975 11.1913C42.6969 10.2334 43.0741 9.32511 43.6829 8.57755C44.2917 7.83 45.1057 7.27555 46.0254 6.98202C45.1779 6.17082 44.6475 5.08529 44.5292 3.91972C44.4558 3.06964 44.6823 2.22069 45.1695 1.51933C45.6567 0.817965 46.374 0.308187 47.1978 0.0779261C48.694 -0.256143 50.3465 0.523352 51.8539 2.30505C54.3662 5.43417 55.2037 8.52987 56.0746 12.561C56.2532 13.1149 56.2532 13.7108 56.0746 14.2647C55.829 14.8215 55.226 15.4451 53.7298 15.4451C53.461 15.4417 53.1926 15.4231 52.9259 15.3894L46.2264 14.5765C45.3555 14.4652 43.7253 14.2759 42.966 13.0509C42.6468 12.4863 42.5177 11.8345 42.5975 11.1913ZM45.6457 3.84178C45.7264 4.46624 45.9495 5.06395 46.2979 5.58901C46.6464 6.11408 47.1108 6.55252 47.6556 6.87068C47.7589 6.93394 47.8387 7.02899 47.883 7.14149C47.9273 7.25399 47.9337 7.37782 47.9013 7.49427C47.8653 7.61081 47.7927 7.71272 47.6941 7.78491C47.5956 7.85711 47.4764 7.89576 47.3541 7.89515C46.4502 7.92491 45.5874 8.27934 44.9247 8.89319C44.262 9.50704 43.844 10.339 43.7476 11.2358C43.715 11.6219 43.7964 12.0091 43.9821 12.3494C44.4175 13.0621 45.4783 13.2402 46.4274 13.3627L53.1268 14.1757C53.7633 14.2536 54.8687 14.287 55.1144 13.708C55.2124 13.3735 55.2124 13.018 55.1144 12.6835C54.2323 8.68577 53.4842 5.83505 51.1282 2.89524C50.4136 2.0712 49.0067 0.757194 47.5551 1.08013C46.9636 1.24294 46.4492 1.60992 46.1036 2.11568C45.758 2.62144 45.6037 3.23314 45.6681 3.84178H45.6457Z" fill="#231431"/>
<path d="M43.5913 75.4885C51.8987 86.6242 60.4852 98.0494 71.9413 106.312C72.2091 106.547 72.5314 106.712 72.8792 106.791C73.2876 106.766 73.678 106.614 73.9957 106.357C74.7519 105.858 75.4487 105.275 76.0726 104.619C76.1245 104.567 76.1862 104.526 76.2543 104.497C76.3223 104.469 76.3953 104.455 76.469 104.455C76.5427 104.455 76.6156 104.469 76.6837 104.497C76.7517 104.526 76.8135 104.567 76.8654 104.619C76.9174 104.67 76.9587 104.731 76.9869 104.798C77.0151 104.865 77.0296 104.937 77.0296 105.009C77.0296 105.082 77.0151 105.154 76.9869 105.221C76.9587 105.287 76.9174 105.348 76.8654 105.399C76.1938 106.111 75.4448 106.746 74.6322 107.292C74.1476 107.66 73.565 107.877 72.9573 107.916H72.7675C72.2201 107.827 71.7069 107.592 71.2825 107.236C59.6924 98.8734 51.0501 87.3369 42.6981 76.1789C42.6092 76.0608 42.571 75.9123 42.5919 75.7662C42.6129 75.62 42.6912 75.488 42.8097 75.3994C42.9281 75.3108 43.0771 75.2728 43.2236 75.2937C43.3702 75.3146 43.5025 75.3927 43.5913 75.5108V75.4885Z" fill="#231431"/>
<path d="M39.2031 76.7135C39.2543 76.7789 39.2907 76.8545 39.3099 76.9352C39.3292 77.0159 39.3308 77.0998 39.3148 77.1812C39.2527 77.4699 39.1473 77.7478 39.0022 78.0052C38.7453 77.6489 38.4885 77.2925 38.2428 76.8917C38.2586 76.8213 38.2883 76.7547 38.3301 76.6958C38.3718 76.637 38.4248 76.5869 38.4861 76.5486C38.5473 76.5103 38.6156 76.4845 38.687 76.4726C38.7583 76.4608 38.8312 76.4632 38.9016 76.4796C38.9655 76.4953 39.0254 76.5243 39.0773 76.5646C39.1293 76.6049 39.1722 76.6556 39.2031 76.7135Z" fill="#231431"/>
<path d="M44.3282 41.9146C43.4414 42.4443 42.4712 42.8208 41.4586 43.0281C41.2353 43.0281 41.0232 43.0281 40.8111 43.0281C40.3458 43.0436 39.8823 42.9648 39.4485 42.7963C39.0148 42.6279 38.6198 42.3734 38.2876 42.0482C37.6096 41.2508 37.2516 40.2313 37.2826 39.1863C37.2826 39.0527 37.2826 38.9191 37.2826 38.7855C37.2826 35.055 39.4041 31.4137 42.3184 30.2221C44.6521 29.2645 47.0862 29.9994 49.1854 32.2934C50.0526 33.1245 50.5646 34.2575 50.6146 35.4559C50.5293 36.6808 49.9734 37.8257 49.0625 38.6518C47.6749 39.9914 46.0754 41.0938 44.3282 41.9146ZM41.2912 41.9146C42.181 41.7297 43.0338 41.3986 43.8147 40.9346C45.4572 40.176 46.9655 39.1569 48.281 37.9169C48.9896 37.2904 49.4327 36.4185 49.5204 35.4782C49.4519 34.5682 49.0553 33.7137 48.4038 33.0729C47.92 32.4588 47.3121 31.9531 46.6196 31.5886C45.9271 31.224 45.1654 31.0089 44.3841 30.9571C43.836 30.962 43.294 31.0716 42.7874 31.28C40.2192 32.3936 38.321 35.8011 38.455 39.1752C38.4217 39.9476 38.6674 40.7062 39.1473 41.3132C39.4391 41.5629 39.7826 41.7452 40.1531 41.8472C40.5237 41.9492 40.9123 41.9684 41.2912 41.9034V41.9146Z" fill="#231431"/>
<path d="M32.995 66.09C32.8498 65.8116 32.7269 65.5444 32.6041 65.266C32.6445 65.2561 32.6866 65.2561 32.7269 65.266C32.8615 65.327 32.967 65.4377 33.0212 65.5749C33.0754 65.712 33.074 65.8648 33.0173 66.0009L32.995 66.09Z" fill="#231431"/>
<path d="M32.6041 65.266C32.7269 65.5444 32.8498 65.8116 32.9949 66.09C32.8135 66.492 32.5767 66.8668 32.2915 67.2036C32.0905 66.825 31.9119 66.4464 31.7444 66.09C31.8395 65.9414 31.9216 65.7849 31.99 65.6223C32.0331 65.4998 32.1186 65.3965 32.2312 65.3312C32.3438 65.2659 32.476 65.2428 32.6041 65.266Z" fill="#231431"/>
<path d="M29.7345 61.1124C29.5916 60.7481 29.4687 60.3764 29.3661 59.9988C29.4696 60.0155 29.5751 60.0155 29.6787 59.9988C29.7515 59.9879 29.8257 59.9917 29.897 60.01C29.9683 60.0284 30.0351 60.0609 30.0935 60.1056C30.1518 60.1503 30.2006 60.2063 30.2368 60.2702C30.273 60.3342 30.2958 60.4047 30.304 60.4777C30.3232 60.6221 30.2849 60.7684 30.1972 60.885C30.1095 61.0016 29.9795 61.0792 29.835 61.1013L29.7345 61.1124Z" fill="#231431"/>
<path d="M29.4665 41.1462C29.5611 41.2607 29.607 41.4074 29.5945 41.5551C29.5819 41.7029 29.512 41.8399 29.3995 41.9369C29.2824 42.0271 29.135 42.0694 28.9876 42.0549C28.8403 42.0404 28.704 41.9703 28.6068 41.8589C28.7184 41.4246 28.8413 41.0015 28.9752 40.5783L29.4665 41.1462Z" fill="#231431"/>
<path d="M29.0529 46.4134C29.0905 46.476 29.1153 46.5455 29.1256 46.6178C29.1359 46.6901 29.1316 46.7638 29.1129 46.8344C29.0942 46.905 29.0615 46.9712 29.0168 47.0289C28.972 47.0867 28.9161 47.1348 28.8524 47.1706C28.8524 46.8365 28.8859 46.5025 28.9527 46.1684L29.0529 46.4134Z" fill="#231431"/>
<path d="M28.9194 46.1795C28.8748 46.5136 28.8412 46.8477 28.8189 47.1817C28.6939 47.2464 28.5487 47.2605 28.4135 47.2211C28.2783 47.1817 28.1636 47.0918 28.0932 46.9702C27.9922 46.782 27.8804 46.5998 27.7582 46.4245C27.8252 45.8455 27.8921 45.311 27.9815 44.7208C28.3164 45.1885 28.6291 45.6784 28.9194 46.1795Z" fill="#231431"/>
<mask id="path-30-outside-1_344_10836" maskUnits="userSpaceOnUse" x="26.6242" y="23.396" width="98" height="93" fill="black">
<rect fill="white" x="26.6242" y="23.396" width="98" height="93"/>
<path fill-rule="evenodd" clip-rule="evenodd" d="M28.6067 41.8589C28.704 41.9703 28.8403 42.0404 28.9876 42.0549C29.135 42.0694 29.2823 42.0271 29.3995 41.9369C29.512 41.8399 29.5819 41.7029 29.5944 41.5551C29.607 41.4074 29.561 41.2607 29.4665 41.1462L28.9752 40.5783C31.1414 33.8969 35.7529 28.3291 41.6484 25.8904C47.9571 23.2958 55.9406 24.1198 62.5061 28.0507C68.1889 31.6621 72.7481 36.7836 75.6706 42.8388C77.1184 38.2125 79.9174 34.1221 83.7094 31.0912C87.5014 28.0603 92.1139 26.2266 96.9567 25.8248C101.8 25.423 106.653 26.4714 110.895 28.8358C115.137 31.2002 118.575 34.7731 120.769 39.0973L120.401 39.565C120.357 39.6235 120.325 39.69 120.307 39.7609C120.288 39.8317 120.284 39.9054 120.295 39.9778C120.305 40.0502 120.33 40.1198 120.367 40.1827C120.404 40.2456 120.454 40.3006 120.512 40.3445C120.571 40.3883 120.638 40.4202 120.709 40.4384C120.78 40.4565 120.854 40.4606 120.926 40.4502C120.999 40.4399 121.069 40.4154 121.132 40.3781C121.195 40.3409 121.25 40.2916 121.294 40.2331C121.885 41.4517 122.36 42.7231 122.712 44.0304C122.526 44.3496 122.347 44.6725 122.176 44.9992C122.149 45.0625 122.135 45.1307 122.135 45.1996C122.135 45.2685 122.149 45.3367 122.176 45.4H121.942C120.865 40.2287 118.059 35.5752 113.985 32.2012C109.91 28.8273 104.808 26.9329 99.5128 26.8281C94.2179 26.7233 89.0441 28.4144 84.8385 31.6244C80.6329 34.8345 77.6446 39.3734 76.3629 44.4981C76.3376 44.61 76.2776 44.7111 76.1914 44.7871C76.1052 44.863 75.9972 44.91 75.8827 44.9212C75.7684 44.936 75.6524 44.9137 75.5518 44.8575C75.4512 44.8013 75.3715 44.7144 75.3245 44.6094C71.9747 37.6496 67.3744 32.2489 61.9255 29.0195C55.6726 25.2668 48.0688 24.4762 42.0727 26.9371C35.0048 29.8435 29.8797 37.5049 28.9194 46.1907C28.6291 45.6896 28.3164 45.1996 27.9814 44.7319C28.1379 43.7637 28.3466 42.8047 28.6067 41.8589ZM120.222 64.3863C120.922 62.8471 121.526 61.2666 122.031 59.6537C121.906 59.6382 121.791 59.5795 121.705 59.4879C121.62 59.3963 121.569 59.2776 121.562 59.1526C121.567 59.0787 121.588 59.0068 121.622 58.9411C121.656 58.8754 121.704 58.8174 121.761 58.7705C121.819 58.7236 121.885 58.6889 121.956 58.6684C122.028 58.648 122.103 58.6422 122.176 58.6515H122.332C123.145 55.8777 123.544 52.9999 123.516 50.1104C123.449 50.1405 123.377 50.1561 123.304 50.1561C123.231 50.1561 123.158 50.1405 123.092 50.1104C123.025 50.0805 122.965 50.0375 122.915 49.9841C122.866 49.9307 122.827 49.8679 122.802 49.7994C122.777 49.7308 122.766 49.658 122.77 49.5852C122.774 49.5124 122.792 49.4411 122.824 49.3755L122.901 49.2127C123.065 48.8634 123.234 48.507 123.427 48.1505C123.36 47.371 123.248 46.5804 123.103 45.8009V45.6784C123.021 45.7672 122.913 45.8271 122.794 45.8492C122.675 45.8713 122.552 45.8543 122.444 45.8009C122.374 45.7661 122.312 45.716 122.264 45.6544C122.216 45.5927 122.182 45.521 122.165 45.4446H121.93L122.031 45.9568C123.201 52.2696 121.724 58.4603 119.099 64.1859H119.083C117.373 67.803 115.339 71.2592 113.008 74.5128L112.987 74.4974C112.049 75.8337 111.1 77.1143 110.162 78.3392C100.009 91.6734 88.445 103.878 75.6706 114.742C62.5955 105.221 51.0277 93.0606 39.3706 76.6021L39.2031 76.7023C39.2543 76.7677 39.2907 76.8434 39.3099 76.924C39.3292 77.0047 39.3308 77.0886 39.3148 77.17C39.2527 77.4588 39.1473 77.7366 39.0022 77.994C50.6593 94.2966 62.2493 106.368 75.3691 115.855C75.464 115.921 75.5772 115.956 75.693 115.955C75.8243 115.955 75.9511 115.908 76.0503 115.822C89.0221 104.856 100.759 92.5158 111.055 79.0185L111.318 78.6734C112.003 77.7739 112.695 76.8655 113.378 75.8783C113.245 75.6308 113.14 75.3693 113.065 75.0988C113.045 75.0172 113.042 74.9323 113.058 74.8497C113.071 74.779 113.097 74.7113 113.134 74.6501L113.154 74.6645C113.229 74.5632 113.335 74.4889 113.456 74.4529C113.598 74.4154 113.749 74.4352 113.877 74.5082C114.004 74.5812 114.098 74.7013 114.137 74.8427C116.219 71.8992 118.067 68.7977 119.664 65.5667C119.461 65.3069 119.292 65.0225 119.161 64.7204C119.117 64.6381 119.094 64.5463 119.094 64.4531C119.094 64.3723 119.112 64.2926 119.145 64.2193H119.161C119.216 64.1268 119.298 64.0531 119.396 64.0077C119.462 63.9754 119.534 63.9564 119.607 63.9518C119.68 63.9472 119.754 63.957 119.823 63.9808C119.893 64.0046 119.957 64.0419 120.012 64.0904C120.067 64.139 120.112 64.1979 120.144 64.2638C120.163 64.3085 120.19 64.3499 120.222 64.3863ZM32.2692 67.2036L37.6399 76.1121C37.7398 76.2275 37.8323 76.3527 37.9243 76.4773C38.0277 76.6174 38.1306 76.7567 38.2428 76.8805C38.2586 76.8101 38.2883 76.7435 38.3301 76.6847C38.3718 76.6258 38.4248 76.5757 38.4861 76.5374C38.5473 76.4991 38.6156 76.4733 38.687 76.4615C38.7583 76.4496 38.8313 76.452 38.9017 76.4685C38.9627 76.4803 39.0208 76.504 39.0726 76.5385C39.1243 76.5729 39.1687 76.6172 39.2031 76.6689L39.3706 76.5575L38.5555 75.444C36.4446 72.4813 34.5775 69.3531 32.9726 66.09C32.7912 66.492 32.5544 66.8668 32.2692 67.2036ZM27.6242 49.0525C27.9851 49.6045 28.3132 50.1771 28.6067 50.7674V50.7785C28.6614 50.8975 28.6724 51.0319 28.6377 51.158C28.6029 51.2842 28.5247 51.3942 28.4168 51.4686C28.3089 51.543 28.1781 51.5772 28.0474 51.565C27.9168 51.5528 27.7946 51.4952 27.7023 51.4021C27.9077 54.3277 28.4664 57.2179 29.3661 60.01C29.4696 60.0266 29.5751 60.0266 29.6787 60.01C29.7515 59.999 29.8257 60.0029 29.897 60.0212C29.9682 60.0396 30.0351 60.0721 30.0934 60.1168C30.1518 60.1615 30.2006 60.2175 30.2368 60.2814C30.2729 60.3453 30.2958 60.4159 30.304 60.4888C30.3232 60.6333 30.2848 60.7795 30.1972 60.8961C30.1095 61.0127 29.9795 61.0904 29.835 61.1124H29.7345C29.8685 61.5356 30.0137 61.9587 30.1811 62.3819L31.7444 66.0566C31.8395 65.908 31.9216 65.7515 31.99 65.589C32.0391 65.4726 32.1271 65.3768 32.2391 65.3179C32.3511 65.259 32.4801 65.2407 32.6041 65.266C30.202 60.3454 28.8847 54.9688 28.7408 49.4979C28.7276 48.7251 28.7536 47.952 28.8189 47.1817C28.6939 47.2464 28.5486 47.2605 28.4135 47.2211C28.2783 47.1817 28.1636 47.0918 28.0932 46.9702C27.9922 46.7819 27.8804 46.5997 27.7582 46.4245C27.6242 47.293 27.6242 48.1727 27.6242 49.0524V49.0525Z"/>
</mask>
<path fill-rule="evenodd" clip-rule="evenodd" d="M28.6067 41.8589C28.704 41.9703 28.8403 42.0404 28.9876 42.0549C29.135 42.0694 29.2823 42.0271 29.3995 41.9369C29.512 41.8399 29.5819 41.7029 29.5944 41.5551C29.607 41.4074 29.561 41.2607 29.4665 41.1462L28.9752 40.5783C31.1414 33.8969 35.7529 28.3291 41.6484 25.8904C47.9571 23.2958 55.9406 24.1198 62.5061 28.0507C68.1889 31.6621 72.7481 36.7836 75.6706 42.8388C77.1184 38.2125 79.9174 34.1221 83.7094 31.0912C87.5014 28.0603 92.1139 26.2266 96.9567 25.8248C101.8 25.423 106.653 26.4714 110.895 28.8358C115.137 31.2002 118.575 34.7731 120.769 39.0973L120.401 39.565C120.357 39.6235 120.325 39.69 120.307 39.7609C120.288 39.8317 120.284 39.9054 120.295 39.9778C120.305 40.0502 120.33 40.1198 120.367 40.1827C120.404 40.2456 120.454 40.3006 120.512 40.3445C120.571 40.3883 120.638 40.4202 120.709 40.4384C120.78 40.4565 120.854 40.4606 120.926 40.4502C120.999 40.4399 121.069 40.4154 121.132 40.3781C121.195 40.3409 121.25 40.2916 121.294 40.2331C121.885 41.4517 122.36 42.7231 122.712 44.0304C122.526 44.3496 122.347 44.6725 122.176 44.9992C122.149 45.0625 122.135 45.1307 122.135 45.1996C122.135 45.2685 122.149 45.3367 122.176 45.4H121.942C120.865 40.2287 118.059 35.5752 113.985 32.2012C109.91 28.8273 104.808 26.9329 99.5128 26.8281C94.2179 26.7233 89.0441 28.4144 84.8385 31.6244C80.6329 34.8345 77.6446 39.3734 76.3629 44.4981C76.3376 44.61 76.2776 44.7111 76.1914 44.7871C76.1052 44.863 75.9972 44.91 75.8827 44.9212C75.7684 44.936 75.6524 44.9137 75.5518 44.8575C75.4512 44.8013 75.3715 44.7144 75.3245 44.6094C71.9747 37.6496 67.3744 32.2489 61.9255 29.0195C55.6726 25.2668 48.0688 24.4762 42.0727 26.9371C35.0048 29.8435 29.8797 37.5049 28.9194 46.1907C28.6291 45.6896 28.3164 45.1996 27.9814 44.7319C28.1379 43.7637 28.3466 42.8047 28.6067 41.8589ZM120.222 64.3863C120.922 62.8471 121.526 61.2666 122.031 59.6537C121.906 59.6382 121.791 59.5795 121.705 59.4879C121.62 59.3963 121.569 59.2776 121.562 59.1526C121.567 59.0787 121.588 59.0068 121.622 58.9411C121.656 58.8754 121.704 58.8174 121.761 58.7705C121.819 58.7236 121.885 58.6889 121.956 58.6684C122.028 58.648 122.103 58.6422 122.176 58.6515H122.332C123.145 55.8777 123.544 52.9999 123.516 50.1104C123.449 50.1405 123.377 50.1561 123.304 50.1561C123.231 50.1561 123.158 50.1405 123.092 50.1104C123.025 50.0805 122.965 50.0375 122.915 49.9841C122.866 49.9307 122.827 49.8679 122.802 49.7994C122.777 49.7308 122.766 49.658 122.77 49.5852C122.774 49.5124 122.792 49.4411 122.824 49.3755L122.901 49.2127C123.065 48.8634 123.234 48.507 123.427 48.1505C123.36 47.371 123.248 46.5804 123.103 45.8009V45.6784C123.021 45.7672 122.913 45.8271 122.794 45.8492C122.675 45.8713 122.552 45.8543 122.444 45.8009C122.374 45.7661 122.312 45.716 122.264 45.6544C122.216 45.5927 122.182 45.521 122.165 45.4446H121.93L122.031 45.9568C123.201 52.2696 121.724 58.4603 119.099 64.1859H119.083C117.373 67.803 115.339 71.2592 113.008 74.5128L112.987 74.4974C112.049 75.8337 111.1 77.1143 110.162 78.3392C100.009 91.6734 88.445 103.878 75.6706 114.742C62.5955 105.221 51.0277 93.0606 39.3706 76.6021L39.2031 76.7023C39.2543 76.7677 39.2907 76.8434 39.3099 76.924C39.3292 77.0047 39.3308 77.0886 39.3148 77.17C39.2527 77.4588 39.1473 77.7366 39.0022 77.994C50.6593 94.2966 62.2493 106.368 75.3691 115.855C75.464 115.921 75.5772 115.956 75.693 115.955C75.8243 115.955 75.9511 115.908 76.0503 115.822C89.0221 104.856 100.759 92.5158 111.055 79.0185L111.318 78.6734C112.003 77.7739 112.695 76.8655 113.378 75.8783C113.245 75.6308 113.14 75.3693 113.065 75.0988C113.045 75.0172 113.042 74.9323 113.058 74.8497C113.071 74.779 113.097 74.7113 113.134 74.6501L113.154 74.6645C113.229 74.5632 113.335 74.4889 113.456 74.4529C113.598 74.4154 113.749 74.4352 113.877 74.5082C114.004 74.5812 114.098 74.7013 114.137 74.8427C116.219 71.8992 118.067 68.7977 119.664 65.5667C119.461 65.3069 119.292 65.0225 119.161 64.7204C119.117 64.6381 119.094 64.5463 119.094 64.4531C119.094 64.3723 119.112 64.2926 119.145 64.2193H119.161C119.216 64.1268 119.298 64.0531 119.396 64.0077C119.462 63.9754 119.534 63.9564 119.607 63.9518C119.68 63.9472 119.754 63.957 119.823 63.9808C119.893 64.0046 119.957 64.0419 120.012 64.0904C120.067 64.139 120.112 64.1979 120.144 64.2638C120.163 64.3085 120.19 64.3499 120.222 64.3863ZM32.2692 67.2036L37.6399 76.1121C37.7398 76.2275 37.8323 76.3527 37.9243 76.4773C38.0277 76.6174 38.1306 76.7567 38.2428 76.8805C38.2586 76.8101 38.2883 76.7435 38.3301 76.6847C38.3718 76.6258 38.4248 76.5757 38.4861 76.5374C38.5473 76.4991 38.6156 76.4733 38.687 76.4615C38.7583 76.4496 38.8313 76.452 38.9017 76.4685C38.9627 76.4803 39.0208 76.504 39.0726 76.5385C39.1243 76.5729 39.1687 76.6172 39.2031 76.6689L39.3706 76.5575L38.5555 75.444C36.4446 72.4813 34.5775 69.3531 32.9726 66.09C32.7912 66.492 32.5544 66.8668 32.2692 67.2036ZM27.6242 49.0525C27.9851 49.6045 28.3132 50.1771 28.6067 50.7674V50.7785C28.6614 50.8975 28.6724 51.0319 28.6377 51.158C28.6029 51.2842 28.5247 51.3942 28.4168 51.4686C28.3089 51.543 28.1781 51.5772 28.0474 51.565C27.9168 51.5528 27.7946 51.4952 27.7023 51.4021C27.9077 54.3277 28.4664 57.2179 29.3661 60.01C29.4696 60.0266 29.5751 60.0266 29.6787 60.01C29.7515 59.999 29.8257 60.0029 29.897 60.0212C29.9682 60.0396 30.0351 60.0721 30.0934 60.1168C30.1518 60.1615 30.2006 60.2175 30.2368 60.2814C30.2729 60.3453 30.2958 60.4159 30.304 60.4888C30.3232 60.6333 30.2848 60.7795 30.1972 60.8961C30.1095 61.0127 29.9795 61.0904 29.835 61.1124H29.7345C29.8685 61.5356 30.0137 61.9587 30.1811 62.3819L31.7444 66.0566C31.8395 65.908 31.9216 65.7515 31.99 65.589C32.0391 65.4726 32.1271 65.3768 32.2391 65.3179C32.3511 65.259 32.4801 65.2407 32.6041 65.266C30.202 60.3454 28.8847 54.9688 28.7408 49.4979C28.7276 48.7251 28.7536 47.952 28.8189 47.1817C28.6939 47.2464 28.5486 47.2605 28.4135 47.2211C28.2783 47.1817 28.1636 47.0918 28.0932 46.9702C27.9922 46.7819 27.8804 46.5997 27.7582 46.4245C27.6242 47.293 27.6242 48.1727 27.6242 49.0524V49.0525Z" fill="#231431"/>
<path d="M28.6067 41.8589L28.8327 41.6616L28.4655 41.2411L28.3175 41.7794L28.6067 41.8589ZM29.3995 41.9369L29.5826 42.1745L29.5892 42.1694L29.5955 42.164L29.3995 41.9369ZM29.5944 41.5551L29.2955 41.5298L29.5944 41.5551ZM29.4665 41.1462L29.6979 40.9551L29.6934 40.95L29.4665 41.1462ZM28.9752 40.5783L28.6898 40.4858L28.6377 40.6467L28.7483 40.7746L28.9752 40.5783ZM41.6484 25.8904L41.5343 25.6129L41.5338 25.6132L41.6484 25.8904ZM62.5061 28.0507L62.6671 27.7974L62.6602 27.7933L62.5061 28.0507ZM75.6706 42.8388L75.4004 42.9692L75.7303 43.6526L75.9569 42.9284L75.6706 42.8388ZM83.7094 31.0912L83.5221 30.8569L83.7094 31.0912ZM96.9567 25.8248L96.9319 25.5258L96.9567 25.8248ZM110.895 28.8358L110.749 29.0979V29.0979L110.895 28.8358ZM120.769 39.0973L121.005 39.2829L121.124 39.1324L121.037 38.9615L120.769 39.0973ZM120.401 39.565L120.165 39.3792L120.161 39.3846L120.401 39.565ZM120.512 40.3445L120.692 40.1042L120.692 40.1042L120.512 40.3445ZM120.709 40.4384L120.783 40.1477L120.783 40.1477L120.709 40.4384ZM120.926 40.4502L120.884 40.1532L120.884 40.1532L120.926 40.4502ZM121.132 40.3781L120.979 40.1198L120.979 40.1198L121.132 40.3781ZM121.294 40.2331L121.564 40.1022L121.35 39.6602L121.054 40.0528L121.294 40.2331ZM122.712 44.0304L122.971 44.1815L123.034 44.0732L123.002 43.9523L122.712 44.0304ZM122.176 44.9992L121.91 44.8599L121.905 44.8705L121.9 44.8815L122.176 44.9992ZM122.176 45.4V45.7H122.63L122.452 45.2824L122.176 45.4ZM121.942 45.4L121.648 45.4612L121.698 45.7H121.942V45.4ZM113.985 32.2012L113.793 32.4323L113.985 32.2012ZM99.5128 26.8281L99.5069 27.128L99.5128 26.8281ZM84.8385 31.6244L84.6565 31.386L84.8385 31.6244ZM76.3629 44.4981L76.0718 44.4252L76.0702 44.432L76.3629 44.4981ZM76.1914 44.7871L76.3898 45.0121L76.3898 45.0121L76.1914 44.7871ZM75.8827 44.9212L75.8534 44.6225L75.8442 44.6237L75.8827 44.9212ZM75.5518 44.8575L75.6981 44.5956L75.6981 44.5956L75.5518 44.8575ZM75.3245 44.6094L75.5983 44.4866L75.5948 44.4793L75.3245 44.6094ZM61.9255 29.0195L61.7711 29.2768L61.7725 29.2776L61.9255 29.0195ZM42.0727 26.9371L41.9588 26.6596L41.9587 26.6597L42.0727 26.9371ZM28.9194 46.1907L28.6598 46.3411L29.1173 47.1307L29.2176 46.2236L28.9194 46.1907ZM27.9814 44.7319L27.6853 44.6841L27.6656 44.8061L27.7375 44.9066L27.9814 44.7319ZM122.031 59.6537L122.317 59.7434L122.425 59.4002L122.068 59.3559L122.031 59.6537ZM120.222 64.3863L119.998 64.5859L120.305 64.9299L120.495 64.5104L120.222 64.3863ZM121.705 59.4879L121.486 59.6929L121.486 59.6929L121.705 59.4879ZM121.562 59.1526L121.263 59.1304L121.261 59.1497L121.262 59.1691L121.562 59.1526ZM121.761 58.7705L121.572 58.5381L121.572 58.5381L121.761 58.7705ZM121.956 58.6684L121.874 58.3801L121.874 58.3801L121.956 58.6684ZM122.176 58.6515L122.139 58.9491L122.157 58.9515H122.176V58.6515ZM122.332 58.6515V58.9515H122.557L122.62 58.7358L122.332 58.6515ZM123.516 50.1104L123.816 50.1075L123.812 49.6474L123.392 49.8371L123.516 50.1104ZM123.092 50.1104L123.215 49.8371L123.215 49.8367L123.092 50.1104ZM122.802 49.7994L123.084 49.6966V49.6966L122.802 49.7994ZM122.77 49.5852L123.07 49.6005V49.6005L122.77 49.5852ZM122.824 49.3755L123.094 49.5063L123.095 49.5036L122.824 49.3755ZM122.901 49.2127L123.172 49.3408L123.172 49.3407L122.901 49.2127ZM123.427 48.1505L123.69 48.2935L123.733 48.2144L123.726 48.1248L123.427 48.1505ZM123.103 45.8009H122.803V45.8286L122.808 45.8558L123.103 45.8009ZM123.103 45.6784H123.403V44.9096L122.882 45.4752L123.103 45.6784ZM122.794 45.8492L122.739 45.5543H122.739L122.794 45.8492ZM122.444 45.8009L122.311 46.0698L122.311 46.07L122.444 45.8009ZM122.264 45.6544L122.028 45.8394L122.028 45.8394L122.264 45.6544ZM122.165 45.4446L122.458 45.38L122.406 45.1446H122.165V45.4446ZM121.93 45.4446V45.1446H121.566L121.636 45.5023L121.93 45.4446ZM122.031 45.9568L122.326 45.9021L122.325 45.899L122.031 45.9568ZM119.099 64.1859V64.4859H119.291L119.371 64.3109L119.099 64.1859ZM119.083 64.1859V63.8859H118.893L118.812 64.0576L119.083 64.1859ZM113.008 74.5128L112.831 74.7549L113.075 74.9337L113.251 74.6875L113.008 74.5128ZM112.987 74.4974L113.164 74.2553L112.917 74.0747L112.741 74.3251L112.987 74.4974ZM110.162 78.3392L109.924 78.1569L109.923 78.1575L110.162 78.3392ZM75.6706 114.742L75.494 114.984L75.685 115.123L75.865 114.97L75.6706 114.742ZM39.3706 76.6021L39.6154 76.4287L39.4549 76.202L39.2165 76.3447L39.3706 76.6021ZM39.2031 76.7023L39.0491 76.4449L38.7576 76.6193L38.9667 76.887L39.2031 76.7023ZM39.3099 76.924L39.0181 76.9937L39.3099 76.924ZM39.3148 77.17L39.6081 77.2331L39.6091 77.2281L39.3148 77.17ZM39.0022 77.994L38.7408 77.8467L38.647 78.0131L38.7581 78.1685L39.0022 77.994ZM75.3691 115.855L75.1933 116.098L75.1977 116.101L75.3691 115.855ZM75.693 115.955L75.6922 115.655L75.6907 115.655L75.693 115.955ZM76.0503 115.822L75.8566 115.593L75.8539 115.595L76.0503 115.822ZM111.055 79.0185L111.294 79.2005L111.294 79.2002L111.055 79.0185ZM111.318 78.6734L111.079 78.4916L111.079 78.4917L111.318 78.6734ZM113.378 75.8783L113.624 76.049L113.729 75.8981L113.642 75.7365L113.378 75.8783ZM113.065 75.0988L112.773 75.1707L112.776 75.1789L113.065 75.0988ZM113.058 74.8497L113.353 74.9048V74.9048L113.058 74.8497ZM113.134 74.6501L113.312 74.4079L113.049 74.2157L112.879 74.4934L113.134 74.6501ZM113.154 74.6645L112.977 74.9067L113.218 75.083L113.396 74.8427L113.154 74.6645ZM113.456 74.4529L113.379 74.1628L113.37 74.1654L113.456 74.4529ZM113.877 74.5082L113.728 74.7686L113.728 74.7686L113.877 74.5082ZM114.137 74.8427L113.848 74.9228L114.017 75.5319L114.382 75.0159L114.137 74.8427ZM119.664 65.5667L119.933 65.6996L120.016 65.5307L119.9 65.3822L119.664 65.5667ZM119.161 64.7204L119.437 64.601L119.432 64.5897L119.426 64.5789L119.161 64.7204ZM119.145 64.2193V63.9193H118.951L118.872 64.0955L119.145 64.2193ZM119.161 64.2193V64.5193H119.332L119.419 64.3728L119.161 64.2193ZM119.396 64.0077L119.522 64.2798L119.528 64.2771L119.396 64.0077ZM119.607 63.9518L119.588 63.6524L119.607 63.9518ZM119.823 63.9808L119.726 64.2647L119.726 64.2647L119.823 63.9808ZM120.012 64.0904L119.813 64.3154L119.813 64.3154L120.012 64.0904ZM120.144 64.2638L120.42 64.1446L120.414 64.1323L120.144 64.2638ZM37.6399 76.1121L37.383 76.267L37.3963 76.289L37.4131 76.3085L37.6399 76.1121ZM32.2692 67.2036L32.0402 67.0097L31.9011 67.174L32.0122 67.3585L32.2692 67.2036ZM37.9243 76.4773L38.1656 76.2991H38.1656L37.9243 76.4773ZM38.2428 76.8805L38.0206 77.082L38.409 77.5101L38.5356 76.9462L38.2428 76.8805ZM38.3301 76.6847L38.5748 76.8582L38.5748 76.8582L38.3301 76.6847ZM38.4861 76.5374L38.6451 76.7918H38.6452L38.4861 76.5374ZM38.687 76.4615L38.7361 76.7574L38.7361 76.7574L38.687 76.4615ZM38.9017 76.4685L38.8333 76.7608L38.8447 76.763L38.9017 76.4685ZM39.2031 76.6689L38.9534 76.8351L39.1196 77.0847L39.3693 76.9187L39.2031 76.6689ZM39.3706 76.5575L39.5367 76.8073L39.798 76.6335L39.6127 76.3803L39.3706 76.5575ZM38.5555 75.444L38.3112 75.6181L38.3134 75.6212L38.5555 75.444ZM32.9726 66.09L33.2418 65.9576L32.961 65.3866L32.6992 65.9666L32.9726 66.09ZM28.6067 50.7674H28.9067V50.6969L28.8753 50.6338L28.6067 50.7674ZM27.6242 49.0525H27.3242V49.1419L27.3731 49.2167L27.6242 49.0525ZM28.6067 50.7785H28.3067V50.8442L28.3342 50.9039L28.6067 50.7785ZM28.0474 51.565L28.0196 51.8637H28.0196L28.0474 51.565ZM27.7023 51.4021L27.9153 51.1909L27.3465 50.6173L27.403 51.4231L27.7023 51.4021ZM29.3661 60.01L29.0805 60.102L29.1369 60.277L29.3185 60.3062L29.3661 60.01ZM29.6787 60.01L29.6341 59.7133L29.6311 59.7138L29.6787 60.01ZM29.897 60.0212L29.9717 59.7307H29.9717L29.897 60.0212ZM30.0934 60.1168L30.2758 59.8786L30.2758 59.8786L30.0934 60.1168ZM30.2368 60.2814L30.4979 60.1337L30.4979 60.1336L30.2368 60.2814ZM30.304 60.4888L30.0058 60.5223L30.0066 60.5284L30.304 60.4888ZM30.1972 60.8961L30.4369 61.0764L30.4369 61.0764L30.1972 60.8961ZM29.835 61.1124V61.4124H29.8578L29.8803 61.409L29.835 61.1124ZM29.7345 61.1124V60.8124H29.3248L29.4485 61.203L29.7345 61.1124ZM30.1811 62.3819L29.9021 62.4923L29.9051 62.4993L30.1811 62.3819ZM31.7444 66.0566L31.4683 66.1741L31.6908 66.6971L31.9971 66.2183L31.7444 66.0566ZM31.99 65.589L31.7136 65.4723L31.7135 65.4726L31.99 65.589ZM32.2391 65.3179L32.0995 65.0524L32.0995 65.0524L32.2391 65.3179ZM32.6041 65.266L32.5441 65.5599L33.141 65.6819L32.8737 65.1344L32.6041 65.266ZM28.7408 49.4979L28.4408 49.5031L28.4409 49.5058L28.7408 49.4979ZM28.8189 47.1817L29.1178 47.2071L29.1637 46.6656L28.681 46.9153L28.8189 47.1817ZM28.4135 47.2211L28.4974 46.9331H28.4974L28.4135 47.2211ZM28.0932 46.9702L27.8286 47.112L27.8335 47.1204L28.0932 46.9702ZM27.7582 46.4245L28.0043 46.2529L27.5759 45.6385L27.4617 46.3788L27.7582 46.4245ZM29.017 41.7563C28.9455 41.7493 28.8796 41.7153 28.8327 41.6616L28.3808 42.0563C28.5284 42.2253 28.735 42.3315 28.9583 42.3534L29.017 41.7563ZM29.2164 41.6992C29.1598 41.7428 29.0884 41.7633 29.017 41.7563L28.9583 42.3534C29.1815 42.3754 29.4049 42.3114 29.5826 42.1745L29.2164 41.6992ZM29.2955 41.5298C29.2896 41.5992 29.2567 41.6638 29.2036 41.7097L29.5955 42.164C29.7672 42.0159 29.8742 41.8065 29.8934 41.5805L29.2955 41.5298ZM29.2352 41.3373C29.2798 41.3913 29.3014 41.4604 29.2955 41.5298L29.8934 41.5805C29.9125 41.3544 29.8422 41.13 29.6978 40.9552L29.2352 41.3373ZM28.7483 40.7746L29.2396 41.3425L29.6934 40.95L29.2021 40.382L28.7483 40.7746ZM41.5338 25.6132C35.5416 28.0919 30.8775 33.7381 28.6898 40.4858L29.2606 40.6708C31.4053 34.0557 35.9642 28.5663 41.7631 26.1676L41.5338 25.6132ZM62.6602 27.7933C56.0248 23.8205 47.942 22.9776 41.5343 25.6129L41.7625 26.1678C47.9722 23.614 55.8565 24.4191 62.352 28.3081L62.6602 27.7933ZM75.9408 42.7084C72.9939 36.6028 68.3969 31.4388 62.667 27.7975L62.3452 28.3039C67.9809 31.8853 72.5022 36.9644 75.4004 42.9692L75.9408 42.7084ZM83.5221 30.8569C79.6835 33.9251 76.85 38.0658 75.3843 42.7492L75.9569 42.9284C77.3869 38.3592 80.1514 34.3192 83.8967 31.3255L83.5221 30.8569ZM96.9319 25.5258C92.0298 25.9326 87.3607 27.7887 83.5221 30.8569L83.8967 31.3255C87.6421 28.3319 92.198 26.5207 96.9816 26.1238L96.9319 25.5258ZM111.041 28.5738C106.747 26.1804 101.834 25.1191 96.9319 25.5258L96.9816 26.1238C101.765 25.7269 106.559 26.7625 110.749 29.0979L111.041 28.5738ZM121.037 38.9615C118.815 34.584 115.335 30.9672 111.041 28.5738L110.749 29.0979C114.938 31.4332 118.334 34.9622 120.502 39.233L121.037 38.9615ZM120.636 39.7506L121.005 39.2829L120.534 38.9116L120.165 39.3793L120.636 39.7506ZM120.597 39.8355C120.606 39.8029 120.62 39.7722 120.641 39.7453L120.161 39.3846C120.093 39.4747 120.044 39.5772 120.016 39.6862L120.597 39.8355ZM120.592 39.9352C120.587 39.902 120.589 39.8681 120.597 39.8355L120.016 39.6862C119.988 39.7953 119.982 39.9088 119.998 40.0203L120.592 39.9352ZM120.625 40.0296C120.608 40.0005 120.596 39.9685 120.592 39.9352L119.998 40.0203C120.014 40.1318 120.052 40.2391 120.109 40.3359L120.625 40.0296ZM120.692 40.1042C120.665 40.0839 120.642 40.0585 120.625 40.0296L120.109 40.3359C120.167 40.4327 120.243 40.5173 120.333 40.5847L120.692 40.1042ZM120.783 40.1477C120.75 40.1393 120.719 40.1245 120.692 40.1042L120.333 40.5847C120.423 40.6522 120.526 40.7012 120.635 40.7291L120.783 40.1477ZM120.884 40.1532C120.85 40.158 120.816 40.1562 120.783 40.1477L120.635 40.7291C120.744 40.7569 120.857 40.7631 120.969 40.7472L120.884 40.1532ZM120.979 40.1198C120.95 40.1371 120.918 40.1484 120.884 40.1532L120.969 40.7472C121.08 40.7313 121.187 40.6937 121.284 40.6364L120.979 40.1198ZM121.054 40.0528C121.034 40.0798 121.009 40.1025 120.979 40.1198L121.284 40.6365C121.381 40.5792 121.466 40.5034 121.534 40.4134L121.054 40.0528ZM123.002 43.9523C122.645 42.6268 122.163 41.3377 121.564 40.1022L121.024 40.364C121.607 41.5657 122.075 42.8193 122.422 44.1084L123.002 43.9523ZM122.442 45.1384C122.611 44.8158 122.787 44.4968 122.971 44.1815L122.453 43.8793C122.265 44.2024 122.084 44.5293 121.91 44.8599L122.442 45.1384ZM122.435 45.1996C122.435 45.1712 122.441 45.143 122.452 45.1168L121.9 44.8815C121.857 44.9821 121.835 45.0903 121.835 45.1996H122.435ZM122.452 45.2824C122.441 45.2562 122.435 45.228 122.435 45.1996H121.835C121.835 45.309 121.857 45.4171 121.9 45.5177L122.452 45.2824ZM121.942 45.7H122.176V45.1H121.942V45.7ZM113.793 32.4323C117.816 35.7629 120.585 40.3566 121.648 45.4612L122.235 45.3389C121.145 40.1008 118.303 35.3874 114.176 31.9702L113.793 32.4323ZM99.5069 27.128C104.734 27.2315 109.771 29.1017 113.793 32.4323L114.176 31.9702C110.049 28.5529 104.881 26.6343 99.5187 26.5281L99.5069 27.128ZM85.0205 31.8629C89.1721 28.694 94.2796 27.0246 99.5069 27.128L99.5187 26.5281C94.1561 26.422 88.916 28.1347 84.6565 31.386L85.0205 31.8629ZM76.6539 44.5708C77.9191 39.5123 80.8689 35.0318 85.0205 31.8629L84.6565 31.386C80.3969 34.6372 77.3701 39.2345 76.0718 44.4253L76.6539 44.5708ZM76.3898 45.0121C76.5232 44.8945 76.6163 44.7377 76.6555 44.5641L76.0702 44.432C76.0589 44.4822 76.0319 44.5277 75.993 44.562L76.3898 45.0121ZM75.9121 45.2198C76.0891 45.2024 76.2563 45.1298 76.3898 45.0121L75.993 44.562C75.9541 44.5963 75.9053 44.6176 75.8534 44.6227L75.9121 45.2198ZM75.4055 45.1194C75.5623 45.207 75.7432 45.2418 75.9213 45.2187L75.8442 44.6237C75.7937 44.6302 75.7424 44.6204 75.6981 44.5956L75.4055 45.1194ZM75.0507 44.7322C75.1242 44.8961 75.2487 45.0319 75.4055 45.1194L75.6981 44.5956C75.6538 44.5708 75.6188 44.5326 75.5982 44.4866L75.0507 44.7322ZM61.7725 29.2776C67.1592 32.4701 71.7237 37.8198 75.0541 44.7395L75.5948 44.4793C72.2258 37.4795 67.5896 32.0276 62.0784 28.7614L61.7725 29.2776ZM42.1867 27.2147C48.0835 24.7944 55.5881 25.566 61.7711 29.2767L62.0799 28.7623C55.7572 24.9676 48.054 24.1579 41.9588 26.6596L42.1867 27.2147ZM29.2176 46.2236C30.1684 37.6234 35.2405 30.071 42.1868 27.2146L41.9587 26.6597C34.7691 29.6161 29.5909 37.3864 28.6212 46.1577L29.2176 46.2236ZM27.7375 44.9066C28.0663 45.3656 28.3738 45.8473 28.6598 46.3411L29.179 46.0403C28.8844 45.5318 28.5666 45.0336 28.2253 44.5572L27.7375 44.9066ZM28.3175 41.7794C28.0545 42.7355 27.8435 43.7052 27.6853 44.6841L28.2776 44.7798C28.4323 43.8223 28.6387 42.8738 28.896 41.9385L28.3175 41.7794ZM121.745 59.564C121.243 61.1652 120.643 62.7342 119.949 64.2622L120.495 64.5104C121.2 62.96 121.808 61.368 122.317 59.7434L121.745 59.564ZM121.486 59.6929C121.62 59.8358 121.8 59.9273 121.994 59.9514L122.068 59.3559C122.013 59.3491 121.962 59.3232 121.924 59.2829L121.486 59.6929ZM121.262 59.1691C121.273 59.3647 121.353 59.55 121.486 59.6929L121.924 59.2829C121.887 59.2427 121.865 59.1906 121.862 59.1361L121.262 59.1691ZM121.356 58.8024C121.303 58.9042 121.271 59.0157 121.263 59.1304L121.861 59.1748C121.864 59.1417 121.873 59.1094 121.888 59.0798L121.356 58.8024ZM121.572 58.5381C121.483 58.6107 121.409 58.7006 121.356 58.8024L121.888 59.0798C121.904 59.0502 121.925 59.0241 121.951 59.0029L121.572 58.5381ZM121.874 58.3801C121.763 58.4117 121.66 58.4655 121.572 58.5381L121.951 59.0029C121.977 58.9818 122.007 58.9661 122.039 58.9568L121.874 58.3801ZM122.214 58.3538C122.1 58.3395 121.984 58.3484 121.874 58.3801L122.039 58.9568C122.071 58.9475 122.105 58.9449 122.139 58.9491L122.214 58.3538ZM122.332 58.3515H122.176V58.9515H122.332V58.3515ZM123.216 50.1133C123.243 52.9733 122.849 55.8217 122.045 58.5671L122.62 58.7358C123.441 55.9337 123.844 53.0265 123.816 50.1075L123.216 50.1133ZM123.304 50.4561C123.42 50.4561 123.534 50.4314 123.64 50.3837L123.392 49.8371C123.365 49.8496 123.334 49.8561 123.304 49.8561V50.4561ZM122.968 50.3837C123.074 50.4315 123.188 50.4561 123.304 50.4561V49.8561C123.273 49.8561 123.243 49.8496 123.215 49.8371L122.968 50.3837ZM122.696 50.1885C122.773 50.2713 122.866 50.3378 122.969 50.3841L123.215 49.8367C123.184 49.8232 123.157 49.8037 123.135 49.7797L122.696 50.1885ZM122.52 49.9021C122.559 50.0084 122.619 50.1057 122.696 50.1885L123.135 49.7797C123.113 49.7556 123.095 49.7274 123.084 49.6966L122.52 49.9021ZM122.47 49.57C122.465 49.6829 122.482 49.7959 122.52 49.9021L123.084 49.6966C123.073 49.6658 123.068 49.6331 123.07 49.6005L122.47 49.57ZM122.554 49.2446C122.504 49.3465 122.476 49.4571 122.47 49.57L123.07 49.6005C123.071 49.5677 123.079 49.5357 123.094 49.5063L122.554 49.2446ZM122.629 49.0845L122.552 49.2473L123.095 49.5036L123.172 49.3408L122.629 49.0845ZM123.163 48.0076C122.965 48.3726 122.794 48.7365 122.629 49.0847L123.172 49.3407C123.337 48.9904 123.502 48.6414 123.69 48.2935L123.163 48.0076ZM122.808 45.8558C122.952 46.6268 123.062 47.4077 123.128 48.1762L123.726 48.1248C123.658 47.3344 123.545 46.534 123.398 45.746L122.808 45.8558ZM122.803 45.6784V45.8009H123.403V45.6784H122.803ZM122.849 46.1441C123.031 46.1102 123.198 46.0181 123.324 45.8816L122.882 45.4752C122.844 45.5162 122.794 45.544 122.739 45.5543L122.849 46.1441ZM122.311 46.07C122.478 46.1521 122.666 46.1781 122.849 46.1441L122.739 45.5543C122.684 45.5645 122.627 45.5566 122.577 45.5319L122.311 46.07ZM122.028 45.8394C122.104 45.9364 122.201 46.0151 122.311 46.0698L122.577 45.5321C122.547 45.5171 122.521 45.4956 122.5 45.4694L122.028 45.8394ZM121.872 45.5092C121.899 45.6295 121.952 45.7423 122.028 45.8394L122.5 45.4694C122.48 45.4431 122.465 45.4126 122.458 45.38L121.872 45.5092ZM121.93 45.7446H122.165V45.1446H121.93V45.7446ZM122.325 45.899L122.225 45.3868L121.636 45.5023L121.737 46.0146L122.325 45.899ZM119.371 64.3109C122.012 58.5521 123.511 52.2965 122.326 45.9021L121.736 46.0115C122.891 52.2427 121.436 58.3685 118.826 64.0608L119.371 64.3109ZM119.083 64.4859H119.099V63.8859H119.083V64.4859ZM113.251 74.6875C115.594 71.4193 117.636 67.9475 119.354 64.3141L118.812 64.0576C117.109 67.6584 115.085 71.0991 112.764 74.338L113.251 74.6875ZM112.81 74.7396L112.831 74.7549L113.185 74.2706L113.164 74.2553L112.81 74.7396ZM110.4 78.5216C111.34 77.2942 112.291 76.0102 113.232 74.6698L112.741 74.3251C111.806 75.6573 110.86 76.9345 109.924 78.1569L110.4 78.5216ZM75.865 114.97C88.6558 104.093 100.234 91.8723 110.4 78.521L109.923 78.1575C99.7832 91.4745 88.2343 103.663 75.4763 114.513L75.865 114.97ZM39.1258 76.7755C50.7972 93.2542 62.3869 105.44 75.494 114.984L75.8472 114.499C62.804 105.001 51.2582 92.8669 39.6154 76.4287L39.1258 76.7755ZM39.3572 76.9597L39.5247 76.8595L39.2165 76.3447L39.0491 76.4449L39.3572 76.9597ZM39.6017 76.8544C39.5725 76.7318 39.5172 76.617 39.4396 76.5176L38.9667 76.887C38.9914 76.9185 39.0089 76.9549 39.0181 76.9937L39.6017 76.8544ZM39.6091 77.2281C39.6335 77.1045 39.631 76.977 39.6017 76.8544L39.0181 76.9937C39.0274 77.0324 39.0282 77.0728 39.0205 77.1119L39.6091 77.2281ZM39.2635 78.1414C39.4235 77.8576 39.5396 77.5514 39.6081 77.2331L39.0215 77.1069C38.9657 77.3662 38.8711 77.6156 38.7408 77.8467L39.2635 78.1414ZM75.5449 115.612C62.4568 106.148 50.8888 94.1018 39.2462 77.8195L38.7581 78.1685C50.4298 94.4915 62.0418 106.588 75.1933 116.098L75.5449 115.612ZM75.6907 115.655C75.6369 115.656 75.5844 115.64 75.5405 115.609L75.1977 116.101C75.3436 116.203 75.5175 116.257 75.6952 116.255L75.6907 115.655ZM75.8539 115.595C75.8091 115.634 75.7518 115.655 75.6922 115.655L75.6937 116.255C75.8968 116.255 76.0931 116.182 76.2467 116.049L75.8539 115.595ZM110.816 78.8366C100.534 92.3166 88.8119 104.641 75.8566 115.593L76.2439 116.051C89.2324 105.071 100.985 92.7151 111.294 79.2005L110.816 78.8366ZM111.079 78.4917L110.816 78.8368L111.294 79.2002L111.556 78.855L111.079 78.4917ZM113.131 75.7076C112.452 76.6883 111.765 77.5914 111.079 78.4916L111.556 78.8551C112.241 77.9563 112.937 77.0426 113.624 76.049L113.131 75.7076ZM112.776 75.1789C112.857 75.4709 112.97 75.753 113.113 76.0201L113.642 75.7365C113.52 75.5085 113.423 75.2677 113.354 75.0186L112.776 75.1789ZM112.763 74.7947C112.74 74.9193 112.743 75.0475 112.774 75.1707L113.356 75.0269C113.346 74.9869 113.345 74.9453 113.353 74.9048L112.763 74.7947ZM112.879 74.4934C112.822 74.5858 112.783 74.6879 112.763 74.7947L113.353 74.9048C113.359 74.87 113.372 74.8368 113.39 74.8068L112.879 74.4934ZM113.331 74.4224L113.312 74.4079L112.957 74.8922L112.977 74.9067L113.331 74.4224ZM113.37 74.1654C113.187 74.22 113.026 74.3326 112.913 74.4863L113.396 74.8427C113.432 74.7938 113.483 74.7579 113.541 74.7405L113.37 74.1654ZM114.026 74.2478C113.83 74.1357 113.597 74.1052 113.379 74.1629L113.532 74.743C113.598 74.7255 113.668 74.7348 113.728 74.7686L114.026 74.2478ZM114.426 74.7625C114.366 74.5448 114.221 74.3599 114.026 74.2478L113.728 74.7686C113.787 74.8024 113.83 74.8579 113.848 74.9228L114.426 74.7625ZM119.395 65.4338C117.805 68.6508 115.965 71.7387 113.892 74.6694L114.382 75.0159C116.473 72.0597 118.329 68.9447 119.933 65.6996L119.395 65.4338ZM118.886 64.8397C119.027 65.1651 119.209 65.4714 119.427 65.7512L119.9 65.3822C119.713 65.1423 119.558 64.8799 119.437 64.601L118.886 64.8397ZM118.794 64.4531C118.794 64.5957 118.83 64.7361 118.897 64.8619L119.426 64.5789C119.405 64.5402 119.394 64.497 119.394 64.4531H118.794ZM118.872 64.0955C118.821 64.2076 118.794 64.3296 118.794 64.4531H119.394C119.394 64.4151 119.403 64.3776 119.418 64.3431L118.872 64.0955ZM119.161 63.9193H119.145V64.5193H119.161V63.9193ZM119.269 63.7356C119.117 63.8064 118.99 63.9214 118.904 64.0658L119.419 64.3728C119.443 64.3323 119.479 64.2998 119.522 64.2798L119.269 63.7356ZM119.588 63.6524C119.475 63.6594 119.365 63.6886 119.264 63.7383L119.528 64.2771C119.558 64.2621 119.592 64.2533 119.626 64.2512L119.588 63.6524ZM119.92 63.697C119.814 63.6604 119.701 63.6453 119.588 63.6524L119.626 64.2512C119.66 64.249 119.694 64.2536 119.726 64.2647L119.92 63.697ZM120.21 63.8655C120.126 63.7908 120.027 63.7336 119.92 63.697L119.726 64.2647C119.758 64.2757 119.788 64.2929 119.813 64.3154L120.21 63.8655ZM120.414 64.1323C120.364 64.0308 120.295 63.9402 120.21 63.8655L119.813 64.3154C119.839 64.3378 119.86 64.365 119.874 64.3954L120.414 64.1323ZM120.446 64.1868C120.435 64.1742 120.426 64.16 120.419 64.1447L119.869 64.3829C119.901 64.457 119.944 64.5256 119.998 64.5859L120.446 64.1868ZM37.8968 75.9572L32.5261 67.0487L32.0122 67.3585L37.383 76.267L37.8968 75.9572ZM38.1656 76.2991C38.0749 76.1762 37.9755 76.0414 37.8667 75.9157L37.4131 76.3085C37.5041 76.4135 37.5897 76.5292 37.6829 76.6555L38.1656 76.2991ZM38.465 76.6789C38.3647 76.5683 38.2708 76.4416 38.1656 76.2991L37.6829 76.6555C37.7846 76.7932 37.8964 76.9451 38.0206 77.082L38.465 76.6789ZM38.0853 76.5111C38.0207 76.6023 37.9747 76.7055 37.9501 76.8147L38.5356 76.9462C38.5426 76.9147 38.5559 76.8848 38.5748 76.8582L38.0853 76.5111ZM38.327 76.2831C38.2321 76.3424 38.15 76.42 38.0853 76.5111L38.5748 76.8582C38.5937 76.8316 38.6176 76.809 38.6451 76.7918L38.327 76.2831ZM38.6379 76.1655C38.5276 76.1838 38.4219 76.2237 38.327 76.2831L38.6452 76.7918C38.6727 76.7745 38.7037 76.7628 38.7361 76.7574L38.6379 76.1655ZM38.97 76.1763C38.861 76.1509 38.7482 76.1472 38.6378 76.1655L38.7361 76.7574C38.7684 76.752 38.8015 76.7531 38.8333 76.7606L38.97 76.1763ZM39.2387 76.2886C39.1538 76.2322 39.0586 76.1932 38.9586 76.1739L38.8447 76.763C38.8668 76.7673 38.8878 76.7759 38.9065 76.7883L39.2387 76.2886ZM39.4529 76.5026C39.3963 76.4177 39.3235 76.345 39.2387 76.2886L38.9065 76.7883C38.9252 76.8007 38.9411 76.8167 38.9534 76.8351L39.4529 76.5026ZM39.2045 76.3077L39.037 76.4191L39.3693 76.9187L39.5367 76.8073L39.2045 76.3077ZM38.3134 75.6212L39.1285 76.7347L39.6127 76.3803L38.7976 75.2668L38.3134 75.6212ZM32.7034 66.2224C34.3155 69.5001 36.1908 72.6422 38.3112 75.618L38.7998 75.2699C36.6983 72.3204 34.8395 69.2062 33.2418 65.9576L32.7034 66.2224ZM32.4981 67.3975C32.8013 67.0394 33.0531 66.6409 33.246 66.2135L32.6992 65.9666C32.5292 66.3431 32.3074 66.6942 32.0402 67.0097L32.4981 67.3975ZM28.8753 50.6338C28.5765 50.033 28.2427 49.4501 27.8753 48.8883L27.3731 49.2167C27.7276 49.7588 28.0498 50.3212 28.3381 50.901L28.8753 50.6338ZM28.9067 50.7785V50.7674H28.3067V50.7785H28.9067ZM28.9269 51.2377C28.9804 51.0432 28.9635 50.8363 28.8793 50.6532L28.3342 50.9039C28.3594 50.9587 28.3644 51.0205 28.3484 51.0784L28.9269 51.2377ZM28.5871 51.7156C28.753 51.6012 28.8734 51.432 28.9269 51.2377L28.3484 51.0784C28.3325 51.1364 28.2965 51.1872 28.2465 51.2216L28.5871 51.7156ZM28.0196 51.8637C28.2203 51.8824 28.4212 51.83 28.5871 51.7156L28.2465 51.2216C28.1966 51.2561 28.1359 51.2719 28.0752 51.2663L28.0196 51.8637ZM27.4893 51.6134C27.6312 51.7565 27.819 51.845 28.0196 51.8637L28.0752 51.2663C28.0146 51.2606 27.9579 51.2339 27.9153 51.1909L27.4893 51.6134ZM29.6516 59.918C28.7593 57.1489 28.2053 54.2826 28.0016 51.3811L27.403 51.4231C27.6101 54.3729 28.1734 57.2869 29.0805 60.102L29.6516 59.918ZM29.6311 59.7138C29.5591 59.7254 29.4857 59.7254 29.4137 59.7138L29.3185 60.3062C29.4535 60.3279 29.5912 60.3279 29.7263 60.3062L29.6311 59.7138ZM29.9717 59.7307C29.8615 59.7023 29.7467 59.6964 29.6341 59.7133L29.7233 60.3066C29.7562 60.3017 29.7899 60.3034 29.8222 60.3117L29.9717 59.7307ZM30.2758 59.8786C30.1854 59.8093 30.082 59.7591 29.9717 59.7307L29.8222 60.3117C29.8545 60.3201 29.8847 60.3348 29.911 60.3549L30.2758 59.8786ZM30.4979 60.1336C30.4418 60.0345 30.3662 59.9478 30.2758 59.8786L29.911 60.3549C29.9375 60.3752 29.9594 60.4004 29.9757 60.4291L30.4979 60.1336ZM30.6021 60.4553C30.5894 60.3423 30.554 60.2328 30.4979 60.1337L29.9757 60.4291C29.9919 60.4578 30.0021 60.4895 30.0058 60.5223L30.6021 60.4553ZM30.4369 61.0764C30.5719 60.897 30.6309 60.6718 30.6013 60.4493L30.0066 60.5284C30.0154 60.5948 29.9978 60.6621 29.9574 60.7158L30.4369 61.0764ZM29.8803 61.409C30.1021 61.3751 30.302 61.2558 30.4369 61.0764L29.9574 60.7158C29.9169 60.7696 29.8568 60.8056 29.7897 60.8159L29.8803 61.409ZM29.7345 61.4124H29.835V60.8124H29.7345V61.4124ZM30.4601 62.2715C30.2959 61.8567 30.1531 61.4405 30.0205 61.0219L29.4485 61.203C29.5839 61.6306 29.7314 62.0607 29.9022 62.4923L30.4601 62.2715ZM32.0204 65.9392L30.4572 62.2644L29.9051 62.4993L31.4683 66.1741L32.0204 65.9392ZM31.7135 65.4726C31.6517 65.6195 31.5775 65.7608 31.4917 65.895L31.9971 66.2183C32.1014 66.0552 32.1915 65.8836 32.2665 65.7053L31.7135 65.4726ZM32.0995 65.0524C31.9261 65.1435 31.7897 65.2919 31.7136 65.4723L32.2664 65.7056C32.2885 65.6532 32.3281 65.61 32.3787 65.5834L32.0995 65.0524ZM32.6642 64.9721C32.4723 64.9329 32.2728 64.9613 32.0995 65.0524L32.3787 65.5834C32.4294 65.5568 32.4879 65.5485 32.5441 65.5599L32.6642 64.9721ZM28.4409 49.5058C28.5859 55.0197 29.9136 60.4385 32.3345 65.3976L32.8737 65.1344C30.4904 60.2524 29.1835 54.918 29.0407 49.4901L28.4409 49.5058ZM28.52 47.1564C28.4538 47.9368 28.4275 48.72 28.4408 49.5031L29.0407 49.4928C29.0277 48.7301 29.0534 47.9672 29.1178 47.2071L28.52 47.1564ZM28.3295 47.5091C28.5386 47.5701 28.7633 47.5483 28.9567 47.4482L28.681 46.9153C28.6245 46.9445 28.5587 46.9509 28.4974 46.9331L28.3295 47.5091ZM27.8335 47.1204C27.9426 47.309 28.1203 47.4481 28.3295 47.5091L28.4974 46.9331C28.4362 46.9152 28.3845 46.8746 28.3528 46.8199L27.8335 47.1204ZM27.5121 46.5961C27.6276 46.7617 27.7333 46.934 27.8288 47.112L28.3575 46.8284C28.2511 46.6299 28.1331 46.4377 28.0043 46.2529L27.5121 46.5961ZM27.9242 49.0524C27.9242 48.1688 27.9248 47.3122 28.0547 46.4702L27.4617 46.3788C27.3236 47.2738 27.3242 48.1766 27.3242 49.0524H27.9242ZM27.9242 49.0525V49.0524H27.3242V49.0525H27.9242Z" fill="black" mask="url(#path-30-outside-1_344_10836)"/>
<path d="M27.6242 49.0525C27.9851 49.6044 28.3132 50.1771 28.6067 50.7674C28.6614 50.8863 28.6724 51.0207 28.6377 51.1469C28.6029 51.2731 28.5247 51.383 28.4168 51.4575C28.3089 51.5319 28.1781 51.566 28.0474 51.5538C27.9168 51.5417 27.7946 51.484 27.7023 51.391C27.7023 50.7674 27.6354 50.1438 27.6242 49.5202V49.0525Z" fill="#231431"/>
<path d="M24.7658 60.2772C24.2686 60.0922 23.8291 59.7795 23.4919 59.3709C23.1547 58.9622 22.9317 58.4721 22.8452 57.9499C22.739 57.2747 22.8122 56.5836 23.0574 55.9454C22.5018 55.8193 22.0034 55.5141 21.6393 55.0769C21.1559 54.4531 20.827 53.7244 20.6791 52.95C20.3656 51.7941 20.3656 50.5759 20.6791 49.42C20.8511 48.7954 21.1837 48.2264 21.6439 47.7694C22.1041 47.3123 22.676 46.9831 23.303 46.8142C23.9238 46.7079 24.5613 46.7538 25.1604 46.9478C25.7595 47.1418 26.3023 47.4781 26.7421 47.9278C27.0809 48.2672 27.384 48.6403 27.6465 49.0414V49.4979C27.6465 50.1215 27.6465 50.7451 27.7247 51.3687L27.6465 51.2685C27.2259 50.3462 26.6605 49.4966 25.9717 48.7518C25.6618 48.4285 25.28 48.1824 24.8572 48.0334C24.4343 47.8845 23.9823 47.8369 23.5375 47.8944C23.1054 48.0195 22.7134 48.2548 22.4001 48.5769C22.0868 48.8991 21.8631 49.2971 21.751 49.7318C21.4892 50.6981 21.4892 51.7164 21.751 52.6827C21.8532 53.2847 22.0982 53.8535 22.4656 54.3419C22.6167 54.5364 22.8184 54.686 23.0487 54.7743C23.279 54.8627 23.5292 54.8864 23.772 54.843C23.8806 54.8165 23.9946 54.8224 24.0998 54.86C24.2051 54.8976 24.2969 54.9653 24.3638 55.0546C24.4234 55.1477 24.4552 55.2559 24.4552 55.3664C24.4552 55.4769 24.4234 55.5851 24.3638 55.6782C23.9608 56.2849 23.7941 57.0175 23.8948 57.7383C23.9441 58.0642 24.0783 58.3716 24.284 58.6295C24.4898 58.8875 24.7598 59.0871 25.0672 59.2082C25.3464 59.3049 25.6503 59.3035 25.9285 59.2043C26.2068 59.105 26.4426 58.9139 26.5969 58.6625C26.6428 58.5616 26.7191 58.4773 26.8151 58.4214C26.9111 58.3656 27.0222 58.3409 27.1329 58.3508C27.2446 58.3591 27.3511 58.4007 27.4387 58.4702C27.5263 58.5397 27.591 58.6339 27.6242 58.7405C27.7511 59.0907 27.9787 59.3958 28.2786 59.6177C28.5785 59.8395 28.9373 59.9682 29.3102 59.9877C29.4128 60.3652 29.5358 60.737 29.6787 61.1013H29.3996C28.9285 61.0961 28.465 60.983 28.0449 60.7705C27.6247 60.5581 27.2592 60.2522 26.9766 59.8763C26.6658 60.1121 26.3035 60.2713 25.9193 60.341C25.5351 60.4106 25.1399 60.3888 24.7658 60.2772Z" fill="#231431"/>
<path d="M16.972 59.0968C17.1928 59.1863 17.4328 59.218 17.6693 59.1888C17.9059 59.1595 18.1309 59.0704 18.3231 58.9298C18.4194 58.8617 18.5345 58.8252 18.6525 58.8252C18.7705 58.8252 18.8856 58.8617 18.9819 58.9298C19.0809 58.994 19.157 59.0879 19.1991 59.198C19.2413 59.308 19.2473 59.4286 19.2164 59.5423C18.8369 60.6132 18.6774 61.7493 18.7474 62.883C18.7849 63.3625 18.9625 63.8206 19.2581 64.2005C19.5538 64.5805 19.9546 64.8658 20.4111 65.021C20.982 65.0533 21.5496 64.9147 22.041 64.623C22.5324 64.3313 22.9252 63.8999 23.169 63.3841C23.2303 63.273 23.3285 63.1867 23.4467 63.1399C23.5649 63.0932 23.6957 63.0889 23.8167 63.1279C23.9372 63.1673 24.041 63.2456 24.1118 63.3505C24.1826 63.4554 24.2163 63.5809 24.2075 63.707C24.1291 64.6201 24.3633 65.5328 24.8718 66.2962C25.3804 67.0595 26.1334 67.6284 27.0079 67.91C27.8824 68.1917 28.8268 68.1695 29.687 67.8471C30.5472 67.5246 31.2725 66.9209 31.7444 66.1346C31.9119 66.5132 32.0906 66.8918 32.2915 67.2481C31.7803 67.8479 31.1459 68.3313 30.4312 68.6655C29.7166 68.9998 28.9383 69.1772 28.149 69.1857C27.7722 69.1839 27.3971 69.1353 27.0324 69.041C26.104 68.7775 25.2633 68.2709 24.5976 67.5738C23.932 66.8766 23.4656 66.0144 23.2472 65.0767C22.8631 65.481 22.3852 65.7849 21.8556 65.9616C21.3259 66.1383 20.7609 66.1824 20.2101 66.09C19.528 65.8874 18.9226 65.4849 18.4726 64.9349C18.0227 64.3848 17.7488 63.7126 17.6867 63.0054C17.5932 62.1165 17.6651 61.2181 17.8988 60.3552C17.4755 60.4014 17.0472 60.348 16.6482 60.1993C16.0916 59.9949 15.5953 59.6543 15.2051 59.2087C14.8149 58.7631 14.5432 58.2268 14.4151 57.6492C14.2314 56.5685 14.3955 55.4575 14.884 54.4756L14.6272 54.5535C14.1531 54.7066 13.6443 54.7175 13.1639 54.5849C12.6836 54.4522 12.2529 54.1819 11.9251 53.8074C11.6755 53.371 11.5277 52.884 11.4929 52.3827C11.4581 51.8814 11.5371 51.3787 11.7241 50.9121C12.7136 47.5049 14.5096 44.3847 16.9609 41.8143C17.835 40.7849 19.0038 40.0467 20.3106 39.6986C22.1753 39.3311 24.1852 40.2442 26.1392 42.3488C26.8452 43.1097 27.4946 43.9211 28.082 44.7764C27.9927 45.3332 27.9257 45.89 27.8587 46.4802C27.1285 45.2845 26.2794 44.1653 25.3241 43.1395C24.1517 41.8811 22.3763 40.4558 20.5339 40.8232C19.4635 41.1422 18.5117 41.7699 17.7983 42.6272C15.4656 45.0601 13.7605 48.0217 12.8296 51.2573C12.6967 51.5592 12.6281 51.8853 12.6281 52.215C12.6281 52.5447 12.6967 52.8708 12.8296 53.1727C13.0234 53.3649 13.2673 53.4992 13.5338 53.5602C13.8002 53.6212 14.0784 53.6066 14.3369 53.5179C14.9926 53.2659 15.5921 52.8875 16.1011 52.4043C16.2032 52.3201 16.3315 52.2741 16.464 52.2741C16.5964 52.2741 16.7248 52.3201 16.8269 52.4043C16.9266 52.4941 16.9905 52.6167 17.0069 52.7496C17.0233 52.8826 16.9911 53.017 16.9162 53.1281C16.0676 54.4199 15.2302 55.9455 15.5205 57.4265C15.6143 57.7989 15.7945 58.1441 16.0466 58.4342C16.2988 58.7243 16.6158 58.9513 16.972 59.0968Z" fill="#231431"/>
<path d="M18.0104 78.3392C17.4529 78.9656 16.7099 79.3985 15.889 79.5753C15.3578 79.6132 14.8249 79.533 14.3286 79.3404C13.8323 79.1478 13.3851 78.8477 13.0194 78.4617C11.2105 76.7134 10.708 74.2302 10.6522 71.6913C10.0172 72.7394 9.20938 73.673 8.26272 74.4529C8.0425 74.6634 7.77758 74.8217 7.48764 74.9162C7.1977 75.0106 6.89018 75.0388 6.58785 74.9986C5.8844 74.8538 5.40425 74.2525 5.16977 73.1946C4.56695 70.4356 4.56695 67.5795 5.16977 64.8206L4.96879 65.1324C4.67692 65.7012 4.21154 66.163 3.63965 66.4512C3.06776 66.7394 2.41891 66.8391 1.78657 66.7359C0.669989 66.4018 0.0112232 65.1992 -0.0111084 63.5066C-0.0111084 60.1659 1.28408 57.0924 2.45649 54.3197C5.44892 47.204 8.84333 39.1418 14.7389 33.251C15.4777 32.3618 16.5271 31.7848 17.6755 31.6364C18.6838 31.7039 19.6434 32.0945 20.4111 32.7499C23.5656 34.984 26.4276 37.6026 28.9306 40.5449C28.7966 40.968 28.6738 41.3912 28.5621 41.8255C26 38.7292 23.0419 35.9813 19.7635 33.6519C19.4905 33.3385 19.1467 33.0943 18.7604 32.9396C18.3741 32.7849 17.9564 32.724 17.5418 32.7621C17.1273 32.8002 16.7278 32.9361 16.3763 33.1586C16.0249 33.3811 15.7315 33.6838 15.5205 34.0417C9.75893 39.7765 6.4092 47.7274 3.45026 54.754C2.33368 57.4154 1.04961 60.4443 1.07194 63.4954C1.07194 64.4086 1.35111 65.4553 2.07689 65.7226C2.80267 65.9898 3.56192 65.2326 4.00855 64.609C4.13138 64.4197 4.25421 64.2304 4.36587 64.0299C4.76833 63.2162 5.38115 62.5243 6.14119 62.0255C6.23918 61.9696 6.35241 61.9459 6.4647 61.9579C6.57699 61.9699 6.68259 62.0169 6.76647 62.0923C6.85363 62.1653 6.91639 62.263 6.94632 62.3724C6.97625 62.4819 6.97196 62.5979 6.93399 62.7048C5.72337 66.018 5.48707 69.6072 6.25289 73.0498C6.37571 73.6177 6.56551 73.9629 6.78882 73.9963C7.01214 74.0298 7.3918 73.7514 7.51463 73.6511C9.03427 72.3897 10.139 70.7021 10.6857 68.8071C10.7269 68.6766 10.8139 68.5653 10.9309 68.4937C11.0478 68.4221 11.1868 68.395 11.3221 68.4174C11.4561 68.4416 11.5766 68.5139 11.6609 68.6205C11.7452 68.7271 11.7876 68.8608 11.78 68.9964C11.6013 72.1255 11.6013 75.6778 13.7451 77.7157C13.9897 77.9822 14.2887 78.1936 14.6218 78.3357C14.9549 78.4778 15.3146 78.5473 15.6768 78.5397C16.264 78.4044 16.79 78.0795 17.173 77.6154C18.6421 76.1313 19.5801 74.2058 19.8416 72.1367C19.8535 71.989 19.9237 71.8521 20.0368 71.756C20.1498 71.66 20.2965 71.6126 20.4446 71.6245C20.5926 71.6363 20.73 71.7063 20.8263 71.819C20.9226 71.9318 20.9701 72.0781 20.9582 72.2258C20.9132 74.3322 21.3445 76.4217 22.22 78.3392C23.0016 80.0319 24.5089 81.602 26.1056 81.3013C26.5773 81.1695 27.0117 80.9298 27.3742 80.6011C27.7367 80.2725 28.0172 79.864 28.1936 79.4083C28.5778 78.377 28.789 77.2898 28.8189 76.1901C28.8269 76.075 28.8706 75.9651 28.9438 75.8758C29.0171 75.7865 29.1165 75.7221 29.228 75.6916C29.3396 75.661 29.4579 75.6657 29.5667 75.7052C29.6754 75.7446 29.7692 75.8168 29.835 75.9117C30.8067 77.5034 32.3532 78.6631 34.1562 79.1522C35.7529 79.4751 37.8297 78.6176 38.1982 76.9807C38.4439 77.3482 38.7007 77.7045 38.9575 78.0943C38.4523 78.9395 37.6967 79.6076 36.7948 80.0065C35.8928 80.4054 34.889 80.5154 33.9217 80.3214C32.291 79.9375 30.8341 79.025 29.7792 77.7268C29.6945 78.492 29.5028 79.2417 29.2098 79.9539C28.9669 80.5823 28.5749 81.1425 28.0674 81.5867C27.5598 82.0308 26.9518 82.3456 26.2955 82.504C26.0889 82.5391 25.8798 82.5577 25.6702 82.5597C23.6269 82.5597 22.0078 80.6555 21.2039 78.896C20.6932 77.783 20.3183 76.6128 20.0873 75.4106C19.5707 76.4996 18.8679 77.4906 18.0104 78.3392Z" fill="#231431"/>
<path d="M68.7021 8.80344C68.0167 8.95233 67.3977 9.3177 66.9371 9.8453C66.4765 10.3729 66.1987 11.0346 66.1451 11.7321C66.134 11.9175 66.134 12.1035 66.1451 12.2889C66.1451 15.3846 69.1263 18.1908 70.0866 18.9703L70.4105 19.2487C73.1907 21.6762 74.9549 22.7898 75.6583 22.5894C75.6583 22.5894 75.6583 22.5114 75.6583 22.3332C75.903 20.5086 76.3717 18.7209 77.0541 17.0104L77.6012 15.7075C78.394 13.8479 79.2202 11.9326 78.8741 10.0506C78.8033 9.47692 78.5349 8.94555 78.1148 8.54732C77.7555 8.30308 77.3413 8.15092 76.909 8.1043C76.4766 8.05769 76.0394 8.11806 75.636 8.28006C74.3855 8.66981 73.2019 9.82792 73.4587 11.0306C73.4904 11.1647 73.4701 11.3059 73.4017 11.4257C73.3334 11.5455 73.2221 11.6351 73.0902 11.6764C72.9607 11.7171 72.8209 11.7102 72.696 11.6571C72.5711 11.6041 72.4694 11.5082 72.4091 11.3869C72.1368 10.6906 71.6825 10.0796 71.0935 9.61747C70.5044 9.15534 69.8021 8.85889 69.0594 8.7589L68.7021 8.80344ZM69.3273 19.8723C68.2108 18.9035 64.5819 15.418 65.0397 11.5985C65.1552 10.6256 65.5685 9.71185 66.2233 8.98161C66.8237 8.29158 67.6511 7.83755 68.5569 7.70101C69.3276 7.63941 70.1012 7.7784 70.8018 8.10437C71.5025 8.43035 72.1064 8.93214 72.5543 9.56067C72.8294 9.00811 73.2151 8.51757 73.6875 8.11923C74.1599 7.72089 74.709 7.42319 75.3011 7.24445C75.8841 7.02254 76.5137 6.9501 77.1321 7.03375C77.7505 7.11741 78.3379 7.35449 78.8406 7.72328C79.4506 8.28951 79.8451 9.04893 79.9572 9.87246C80.3592 12.0996 79.4659 14.1597 78.6061 16.1752C78.4275 16.5984 78.2377 17.0215 78.0702 17.4447C77.4233 19.0699 76.9771 20.7676 76.7414 22.5003C76.7294 22.7332 76.656 22.9588 76.5285 23.1543C76.4011 23.3498 76.2242 23.5083 76.0156 23.6138C75.8366 23.6776 75.6474 23.7078 75.4573 23.7029C73.9611 23.7029 71.7838 21.9992 69.6177 20.1061L69.3273 19.8723Z" fill="#231431"/>
</g>
<defs>
<clipPath id="clip0_344_10836">
<rect width="152" height="116" fill="white"/>
</clipPath>
</defs>
</svg>
