<svg width="146" height="116" viewBox="0 0 146 116" fill="none" xmlns="http://www.w3.org/2000/svg">
<g clip-path="url(#clip0_396_12956)">
<path d="M23.9752 15.6617H37.1752V17.6117H26.1052V24.9317H35.5852V26.8517H26.1052V35.2517H37.3252V37.1717H23.9752V15.6617ZM52.7754 33.7517C52.2754 34.8917 51.5454 35.8017 50.5854 36.4817C49.6454 37.1417 48.4854 37.4717 47.1054 37.4717C46.1254 37.4717 45.2054 37.3017 44.3454 36.9617C43.4854 36.6217 42.7254 36.1117 42.0654 35.4317C41.4254 34.7517 40.9154 33.9117 40.5354 32.9117C40.1754 31.8917 39.9954 30.7117 39.9954 29.3717C39.9954 28.0317 40.1854 26.8617 40.5654 25.8617C40.9454 24.8617 41.4554 24.0217 42.0954 23.3417C42.7354 22.6617 43.4854 22.1517 44.3454 21.8117C45.2254 21.4717 46.1554 21.3017 47.1354 21.3017C48.4354 21.3017 49.5554 21.5917 50.4954 22.1717C51.4554 22.7517 52.1954 23.5817 52.7154 24.6617V15.6617H54.6954V37.1717H52.9254L52.7754 33.7517ZM47.3454 35.7017C48.1054 35.7017 48.8154 35.5717 49.4754 35.3117C50.1354 35.0317 50.7054 34.6317 51.1854 34.1117C51.6654 33.5717 52.0454 32.9117 52.3254 32.1317C52.6054 31.3317 52.7454 30.4117 52.7454 29.3717C52.7454 28.3317 52.6054 27.4217 52.3254 26.6417C52.0454 25.8417 51.6654 25.1817 51.1854 24.6617C50.7054 24.1217 50.1354 23.7217 49.4754 23.4617C48.8154 23.2017 48.1054 23.0717 47.3454 23.0717C46.5654 23.0717 45.8454 23.2117 45.1854 23.4917C44.5454 23.7517 43.9854 24.1517 43.5054 24.6917C43.0454 25.2117 42.6754 25.8717 42.3954 26.6717C42.1354 27.4517 42.0054 28.3517 42.0054 29.3717C42.0054 30.4117 42.1354 31.3317 42.3954 32.1317C42.6754 32.9117 43.0454 33.5717 43.5054 34.1117C43.9854 34.6317 44.5454 35.0317 45.1854 35.3117C45.8454 35.5717 46.5654 35.7017 47.3454 35.7017ZM66.9188 17.6417V37.1717H64.7588V17.6417H57.7088V15.6617H73.9688V17.6417H66.9188ZM87.2984 35.8517C87.1184 36.0117 86.8584 36.1817 86.5184 36.3617C86.1984 36.5417 85.8084 36.7217 85.3484 36.9017C84.9084 37.0617 84.3984 37.1917 83.8184 37.2917C83.2384 37.4117 82.5984 37.4717 81.8984 37.4717C79.3784 37.4717 77.4384 36.7617 76.0784 35.3417C74.7184 33.9217 74.0384 31.9317 74.0384 29.3717C74.0384 28.1117 74.2184 26.9817 74.5784 25.9817C74.9584 24.9817 75.4784 24.1417 76.1384 23.4617C76.7984 22.7617 77.5684 22.2317 78.4484 21.8717C79.3484 21.4917 80.3084 21.3017 81.3284 21.3017C82.3884 21.3017 83.3484 21.4817 84.2084 21.8417C85.0684 22.2017 85.7784 22.7417 86.3384 23.4617C86.9184 24.1617 87.3184 25.0417 87.5384 26.1017C87.7584 27.1617 87.7684 28.3917 87.5684 29.7917H76.0484C76.1284 31.7317 76.6784 33.2017 77.6984 34.2017C78.7184 35.2017 80.1684 35.7017 82.0484 35.7017C83.2484 35.7017 84.2984 35.5217 85.1984 35.1617C86.1184 34.8017 86.8184 34.4317 87.2984 34.0517V35.8517ZM81.2984 23.0717C79.9784 23.0717 78.8384 23.4917 77.8784 24.3317C76.9384 25.1717 76.3584 26.4317 76.1384 28.1117H85.7384C85.7984 27.2517 85.7184 26.5117 85.4984 25.8917C85.2784 25.2517 84.9684 24.7217 84.5684 24.3017C84.1684 23.8817 83.6884 23.5717 83.1284 23.3717C82.5684 23.1717 81.9584 23.0717 81.2984 23.0717ZM97.8338 37.4717C96.6538 37.4717 95.5838 37.2917 94.6238 36.9317C93.6838 36.5517 92.8738 36.0217 92.1938 35.3417C91.5138 34.6417 90.9838 33.7917 90.6038 32.7917C90.2438 31.7917 90.0638 30.6517 90.0638 29.3717C90.0638 28.1117 90.2438 26.9817 90.6038 25.9817C90.9838 24.9817 91.5138 24.1417 92.1938 23.4617C92.8938 22.7617 93.7238 22.2317 94.6838 21.8717C95.6638 21.4917 96.7538 21.3017 97.9538 21.3017C98.8338 21.3017 99.6838 21.4017 100.504 21.6017C101.344 21.8017 102.024 22.0817 102.544 22.4417V24.2117C101.904 23.8117 101.174 23.5217 100.354 23.3417C99.5338 23.1617 98.7438 23.0717 97.9838 23.0717C96.0438 23.0717 94.5738 23.6117 93.5738 24.6917C92.5738 25.7517 92.0738 27.3117 92.0738 29.3717C92.0738 31.4317 92.5638 33.0017 93.5438 34.0817C94.5438 35.1617 95.9738 35.7017 97.8338 35.7017C98.7338 35.7017 99.5838 35.5917 100.384 35.3717C101.184 35.1517 101.904 34.8617 102.544 34.5017V36.2717C102.004 36.6117 101.354 36.9017 100.594 37.1417C99.8338 37.3617 98.9138 37.4717 97.8338 37.4717ZM113.376 23.0717C112.656 23.0717 112.016 23.1717 111.456 23.3717C110.916 23.5517 110.436 23.8017 110.016 24.1217C109.596 24.4417 109.226 24.8217 108.906 25.2617C108.606 25.7017 108.336 26.1617 108.096 26.6417V37.1717H106.116V15.6617H108.096V21.7217L108.066 24.7517H108.126C108.326 24.2917 108.586 23.8517 108.906 23.4317C109.246 23.0117 109.646 22.6517 110.106 22.3517C110.586 22.0317 111.126 21.7817 111.726 21.6017C112.346 21.4017 113.046 21.3017 113.826 21.3017C115.406 21.3017 116.656 21.7217 117.576 22.5617C118.516 23.3817 118.986 24.6117 118.986 26.2517V37.1717H117.006V26.4317C117.006 25.1917 116.676 24.3217 116.016 23.8217C115.356 23.3217 114.476 23.0717 113.376 23.0717Z" fill="#9D85F4"/>
<path d="M54.3269 108.767C53.557 109.287 52.8961 109.634 52.3477 110.127C51.4913 110.881 50.5172 111.11 49.5449 110.647C48.3563 110.07 47.221 109.389 46.1522 108.611C45.2698 107.982 44.8892 106.983 44.7854 105.904C44.7162 105.197 44.41 105.056 43.8148 105.424C43.4965 105.62 43.1522 105.771 42.82 105.944C41.9757 106.378 41.1781 106.326 40.3754 105.797C38.0172 104.245 36.275 102.266 35.8183 99.3631C35.7782 99.1664 35.7203 98.9736 35.6453 98.7874C35.237 97.6602 35.2612 97.7816 34.0882 98.0296C32.8824 98.2832 31.6494 98.3829 30.4186 98.3261C29.403 98.2793 28.5951 97.6186 28.1055 96.6961C27.4134 95.3833 26.9428 93.9926 26.9532 92.4804C26.9688 90.4255 26.9826 88.3723 27.7664 86.4214C28.0155 85.8024 27.794 85.381 27.2058 85.0792C25.1608 84.0249 23.1222 82.9573 21.0899 81.8763C20.6228 81.6301 20.3529 81.6838 20.185 82.2231C19.8062 83.437 19.3909 84.6353 19.0068 85.844C18.5968 87.1428 18.3978 87.2313 17.0847 86.8758C14.4774 86.1527 11.8684 85.4382 9.25078 84.7532C7.05355 84.1792 4.81306 83.7526 2.65216 83.0711C0.726553 82.4642 0.524134 82.3289 1.58469 80.3971C2.41514 78.8815 2.72828 77.0832 3.28884 75.4167C5.42379 69.0699 7.64178 62.7577 9.666 56.3727C10.5535 53.5756 11.0812 50.6622 11.711 47.7888C12.2421 45.3611 12.7664 42.9333 13.1435 40.4899C13.4446 38.5338 13.5224 36.5431 13.6972 34.5662C13.7491 33.9731 14.2317 33.6991 15.0189 33.8951C15.8061 34.091 16.5639 34.3564 17.3459 34.5506C20.4151 35.3119 23.4982 36.0263 26.557 36.8275C27.5241 37.0807 28.4463 37.5211 29.3667 37.9252C30.0415 38.2217 30.4203 38.6778 30.1055 39.5084C29.8785 40.1629 29.701 40.8336 29.5743 41.5148C29.4221 42.2258 29.6729 42.7946 30.3667 43.0564C32.628 43.9113 34.865 44.82 37.1729 45.5466C38.5259 45.9749 39.8148 45.5743 40.9688 44.6518C45.1366 41.3206 49.3546 38.0518 54.0086 35.4055C59.1678 32.4731 64.6989 30.8344 70.6089 30.1927C78.9238 29.291 86.3183 31.6251 93.2318 36.0211C96.2422 37.9286 99.4411 39.4234 102.936 40.2211C105.47 40.8012 108.083 40.9501 110.666 40.6616C110.952 40.6264 111.233 40.5595 111.503 40.4622C112.727 40.039 112.829 39.6957 111.995 38.7489C111.585 38.2824 111.258 37.7171 111.63 37.1882C111.783 36.9956 111.975 36.8375 112.193 36.7239C112.411 36.6104 112.651 36.5441 112.896 36.5292C118.317 36.6072 123.426 35.1211 128.514 33.5066C129.806 33.0974 130.279 33.2448 130.675 34.5471C131.407 36.9454 131.971 39.4026 132.695 41.7974C134.479 47.709 136.329 53.5894 138.118 59.508C139.292 63.4028 140.292 67.3531 141.538 71.2237C142.429 73.9982 143.595 76.674 144.652 79.3896C145.445 81.4393 145.223 81.8798 143.095 82.2578C139.412 82.9099 135.721 83.5307 132.038 84.1844C131.561 84.2936 131.092 84.4367 130.635 84.6128C128.715 85.2492 127.63 84.4931 127.467 82.4798C127.348 81.0162 127.152 79.5578 126.948 78.1029C126.787 76.9948 126.645 76.9237 125.609 77.2237C121.988 78.2746 118.36 79.3046 114.753 80.3937C113.481 80.7769 113.369 81.063 113.657 82.3515C113.979 83.7578 113.606 84.9943 112.77 86.1006C110.827 88.6741 108.394 90.2209 105.007 89.8949C103.254 89.7215 103.301 89.803 103.415 91.492C103.657 95.0435 102.419 98.5568 99.1003 100.147C97.5017 100.913 95.9723 100.7 94.3944 100.249C93.9239 100.116 93.4463 100.007 92.9792 99.8626C92.2751 99.6458 92.0398 99.9684 91.9913 100.627C91.9083 101.744 91.891 102.882 91.6557 103.967C91.3304 105.464 90.3806 106.62 89.1591 107.501C87.6176 108.613 85.9844 108.172 84.3667 107.645C83.9221 107.501 83.4584 107.415 83.0034 107.298C82.9663 107.742 82.9594 108.188 82.9827 108.632C83.2439 110.789 82.6539 112.712 81.3477 114.396C80.109 115.992 78.3875 115.836 76.6764 115.49C73.7854 114.908 71.365 113.326 68.9325 111.774C68.0674 111.216 67.1903 110.649 66.3148 110.089C65.775 109.742 65.5294 109.839 65.2768 110.51C64.8115 111.809 64.2168 113.059 63.5017 114.238C62.365 116.025 60.1314 116.493 58.2266 115.437C56.1885 114.309 54.6418 112.811 54.6747 110.234C54.6539 109.818 54.4723 109.4 54.3269 108.767ZM37.4394 91.1712L37.6851 91.2371C38.0311 90.6995 38.3598 90.1429 38.7404 89.6278C39.8598 88.1174 41.3356 87.2729 43.2387 87.703C45.0916 88.1226 46.5899 89.0556 47.057 91.1278C47.4999 93.0978 47.7698 93.1828 49.4792 92.0712C51.5553 90.7116 53.6487 91.022 55.2456 92.9296C56.3996 94.3169 56.9273 95.9244 57.0761 97.6967C57.1989 99.1689 57.7993 99.592 59.1868 99.2452C61.4083 98.6903 63.4515 99.592 64.4619 101.652C65.1211 102.991 65.4861 104.427 65.3442 105.927C65.2283 107.141 65.7231 107.977 66.7283 108.589C68.8442 109.879 70.9013 111.278 73.083 112.444C74.3823 113.137 75.8512 113.559 77.282 113.937C78.3425 114.216 79.3979 114.023 80.192 113.087C81.5761 111.455 81.7058 108.259 80.3045 106.633C79.4357 105.596 78.4486 104.664 77.3633 103.858C74.2335 101.604 71.3961 98.9244 67.8218 97.3186C67.0986 96.9926 67.0449 96.1047 67.711 95.8377C68.0449 95.7024 68.5761 95.7891 68.91 95.9764C69.7538 96.4739 70.5704 97.0163 71.3564 97.6013C74.9688 100.182 78.4169 103.012 82.41 105.008C83.6393 105.62 84.9335 106.091 86.2681 106.412C87.3546 106.672 88.3443 106.227 89.0796 105.289C91.2387 102.559 90.6367 98.8949 87.647 96.8452C83.677 94.1227 79.7041 91.4059 75.7283 88.6949C75.4913 88.5336 75.1903 88.3983 75.0536 88.1746C74.8979 87.9163 74.7353 87.4238 74.8581 87.2868C74.986 87.1726 75.1367 87.0872 75.3003 87.0364C75.4638 86.9855 75.6363 86.9704 75.8062 86.992C76.1522 87.0457 76.4723 87.3128 76.782 87.5122C81.3771 90.5989 85.9411 93.7325 90.5761 96.7568C91.8139 97.5888 93.1774 98.2153 94.6142 98.6123C97.7145 99.403 100.519 97.7868 101.583 94.8458C102.621 91.981 101.481 89.1683 98.6661 87.6093C98.0363 87.2625 97.4394 86.855 96.8218 86.4821C92.2889 83.7526 88.3443 80.0781 83.3131 78.141C82.6937 77.9017 82.5726 77.352 82.8892 76.7728C83.2197 76.1676 83.7301 76.23 84.2214 76.537C86.9308 78.2347 89.7007 79.8474 92.3183 81.6804C95.3927 83.8324 98.3962 86.0677 101.898 87.5018C105.078 88.8059 108.047 88.6515 110.63 86.1648C111.721 85.1139 112.512 83.7526 111.853 82.2786C111.036 80.4509 110.085 78.5988 108.815 77.0763C104.517 71.9243 99.5236 67.3975 93.9792 63.6265C87.1741 58.9698 80.3275 54.379 73.4394 49.8541C69.7664 47.4264 65.9013 46.8524 61.7231 48.7755C55.9204 51.4478 50.0345 53.9449 44.1816 56.5097C41.7594 57.5675 39.3287 57.5623 36.8633 56.6605C35.4082 56.1282 34.4013 55.1796 33.9844 53.6744C33.7837 52.953 33.6591 52.2108 33.5242 51.4721C33.3511 50.4802 33.73 49.738 34.5415 49.1657C35.087 48.7877 35.6222 48.3969 36.147 47.9934C36.5813 47.6605 36.5484 47.3189 36.0916 47.0345C35.8282 46.8584 35.5477 46.7097 35.2543 46.5905C33.6037 45.9888 31.9532 45.3923 30.2923 44.8217C29.5691 44.5738 29.3183 45.0177 29.1937 45.6489C28.8165 47.5738 28.4549 49.5039 28.0242 51.4183C27.1314 55.386 26.2508 59.3588 25.2698 63.3057C23.9947 68.43 22.6262 73.537 21.2992 78.6422C21.0709 79.5249 21.256 80.2237 22.1228 80.6815C23.2439 81.2711 24.3875 81.8347 25.4463 82.5266C27.4913 83.8636 29.4671 84.4567 31.9048 83.2758C33.6591 82.426 35.9446 83.5879 36.5588 85.3324C37.1297 86.9573 37.5968 88.6272 37.3754 90.4082C37.3659 90.6642 37.3874 90.9204 37.4394 91.1712ZM73.7093 31.5471C72.5934 31.6563 71.1626 31.8107 69.7301 31.9355C63.9912 32.4204 58.4596 34.313 53.6228 37.4466C49.6799 39.987 45.9826 42.9125 42.2041 45.7113C40.2145 47.1888 38.237 48.694 36.365 50.3154C34.6487 51.805 35.0484 54.0022 37.1107 54.9334C38.3961 55.5126 39.7871 55.8351 41.1522 55.4311C43.3616 54.8003 45.5369 54.0553 47.6695 53.1993C52.9913 51.0108 58.2439 48.6437 63.564 46.457C65.6955 45.5813 67.9342 45.4564 70.109 46.516C71.147 47.0206 72.2577 47.3934 73.2231 48.0038C74.9204 49.0755 76.5103 50.3276 78.1851 51.427C82.9567 54.5484 87.7543 57.6334 92.545 60.7271C99.9948 65.541 106.529 71.3537 111.888 78.4671C112.13 78.7879 112.753 78.9058 113.213 78.9509C113.588 78.989 113.99 78.7775 114.377 78.6717C117.915 77.6538 121.448 76.6168 124.991 75.6196C126.116 75.3023 126.149 75.2954 125.796 74.156C124.547 70.1346 123.232 66.1323 122.08 62.0831C120.312 55.9573 118.091 49.9719 115.436 44.1767C114.343 41.7645 114.036 41.7125 111.488 42.2379C109.05 42.7214 106.542 42.7255 104.102 42.2501C99.4118 41.383 95.1505 39.4755 91.2353 36.7963C86.0363 33.2431 80.2162 31.8332 73.7093 31.5471ZM4.8269 78.5191C4.23867 78.4566 3.93936 78.7185 3.86842 79.2821C3.80787 79.7676 3.81998 80.274 3.68331 80.737C3.42898 81.6041 3.7352 82.0549 4.57604 82.2561C8.43878 83.1752 12.3027 84.1 16.1677 85.0307C16.9913 85.2301 17.4982 84.9717 17.7404 84.1463C18.7623 80.6688 19.7923 77.1855 20.8304 73.6965C20.993 73.1468 20.8459 72.7601 20.211 72.7583C17.6297 72.7583 15.2577 71.763 12.7923 71.2132C11.1383 70.8439 9.47223 70.5075 7.79403 70.2682C6.79057 70.1242 6.2577 70.7884 5.96704 72.1531C5.75943 73.1329 6.45666 73.2786 7.0968 73.4416C9.57892 74.0705 12.0651 74.6832 14.5553 75.2798C15.9273 75.611 17.3079 75.9006 18.6764 76.237C18.8494 76.2821 18.9947 76.5023 19.1539 76.6428C18.9809 76.8023 18.8269 77.0312 18.6193 77.1023C18.4117 77.1734 18.166 77.1023 17.9411 77.0503C15.8823 76.6272 13.8183 76.2283 11.7698 75.7618C10.0882 75.3786 8.43071 74.8826 6.75251 74.489C5.6141 74.2219 5.17119 74.5809 4.8494 75.8936C4.56912 77.0087 4.69541 77.2705 5.92206 77.574C8.60199 78.2382 11.301 78.833 13.9809 79.4971C14.9843 79.7468 15.9636 80.1006 16.9428 80.4422C17.1037 80.4977 17.2023 80.7387 17.3304 80.8931C17.1574 81.0023 16.9844 81.1896 16.7958 81.2018C16.5082 81.2007 16.2226 81.1539 15.9497 81.063C14.6677 80.7301 13.3996 80.3416 12.1106 80.052C9.67811 79.5127 7.24905 79.0272 4.8269 78.5191ZM46.2629 104.458C46.3166 106.539 47.1868 107.956 48.91 108.835C50.0155 109.398 51.1107 109.268 51.9238 108.379C52.628 107.609 53.3079 106.709 53.6539 105.741C54.2906 103.957 54.5657 102.046 55.1833 100.254C55.8356 98.366 55.3269 96.6753 54.6211 95.0001C54.365 94.3914 53.8529 93.8539 53.3581 93.3909C53.1105 93.1403 52.7843 92.983 52.4345 92.9454C52.0847 92.9078 51.7326 92.9922 51.4377 93.1845C50.6937 93.6215 49.9463 94.0516 49.2283 94.5354C48.0484 95.3209 47.4982 96.4585 47.3114 97.8631C47.0813 99.6579 46.7387 101.439 46.4463 103.227C46.3667 103.681 46.3027 104.137 46.2629 104.458ZM27.7664 41.2685H27.7387C27.7059 41.0104 27.6921 40.7501 27.6972 40.4899C27.8062 39.276 27.1626 38.6899 26.1037 38.2529C22.8667 36.9159 19.4186 36.5621 16.0172 35.9986C15.82 35.9656 15.4515 36.2535 15.3563 36.4754C15.2006 36.8344 15.2023 37.2627 15.1453 37.6616C14.8581 39.661 14.6262 41.6726 14.2577 43.653C14.1089 44.435 14.2577 44.7628 14.9947 44.9674C18.2681 45.8761 21.5311 46.8229 24.801 47.742C27.0674 48.3784 27.4376 48.0732 27.4307 45.72C27.4307 45.1564 27.2024 44.8703 26.6712 44.7454C25.8857 44.572 25.1141 44.3535 24.3286 44.1489C21.6055 43.4298 18.8823 42.7113 16.1591 41.9934C15.9861 41.95 15.7681 41.9223 15.6902 41.8061C15.4909 41.5506 15.361 41.2477 15.3131 40.9269C15.3131 40.8177 15.7975 40.5801 16.0466 40.5905C16.6792 40.6207 17.3056 40.7291 17.9117 40.913C20.5639 41.7801 23.2041 42.6853 25.8425 43.5975C27.1245 44.0414 27.7352 43.6512 27.7629 42.3107C27.7716 41.9622 27.7664 41.6154 27.7664 41.2685ZM37.6591 98.1787C37.7352 100.228 38.2162 102.063 39.7975 103.43C40.8165 104.309 42.0051 104.455 42.8875 103.827C43.8342 103.193 44.4941 102.211 44.7248 101.094C44.9446 100.019 45.173 98.947 45.3754 97.8701C45.7595 95.8204 46.0536 93.7758 45.4567 91.7036C44.7889 89.385 42.4965 88.6116 40.6678 90.1689C40.1297 90.6267 39.5951 91.1868 39.2992 91.8145C38.3477 93.8435 37.7422 95.9712 37.6591 98.1787ZM12.7456 55.4328C11.9757 55.5438 11.7698 55.679 11.474 56.3814C11.3269 56.7282 11.1712 57.0663 11.0293 57.4218C10.6522 58.3478 10.7387 58.608 11.6972 58.8698C15.4446 59.8877 19.2023 60.8693 22.9515 61.8785C23.6089 62.0519 23.8823 61.8265 24.0242 61.1692C24.4376 59.2531 24.9169 57.3542 25.3581 55.4467C25.5899 54.4374 25.2871 54.0091 24.2421 53.8287C23.6747 53.7316 23.0934 53.6952 22.538 53.5513C19.6729 52.8039 16.8062 52.053 13.9549 51.2501C13.2248 51.0438 12.7888 51.1929 12.5432 51.9004C12.4255 52.195 12.3284 52.4975 12.2525 52.8056C12.1141 53.5097 12.3529 53.9293 13.1176 54.1218C16.5178 54.99 19.9094 55.8889 23.2923 56.8184C23.5709 56.8929 23.7871 57.2016 24.0328 57.401C23.7387 57.5744 23.4567 57.8415 23.1487 57.8744C22.7171 57.8868 22.2864 57.8282 21.8736 57.701C20.7837 57.4374 19.7023 57.1374 18.6124 56.8669C16.647 56.3866 14.692 55.9097 12.7387 55.4345L12.7456 55.4328ZM55.9515 107.543C56.0605 108.488 56.2128 109.431 56.2698 110.38C56.3754 112.114 57.3079 113.272 58.7076 114.133C59.8875 114.861 61.0951 114.72 61.9567 113.638C62.5266 112.88 63.004 112.056 63.3788 111.185C64.2871 109.218 63.7664 107.146 63.6436 105.124C63.5645 104.177 63.2987 103.255 62.8615 102.412C61.8529 100.419 59.9048 100.211 58.32 101.772C56.6989 103.36 55.9723 105.289 55.9515 107.543ZM117.093 41.3362L116.991 40.9894C117.445 40.8038 117.884 40.561 118.355 40.4466C121.877 39.5795 125.407 38.7575 128.933 37.913C129.867 37.6893 130.099 37.1257 129.595 36.3523C129.156 35.6777 128.306 35.4454 127.36 35.6448C123.308 36.5015 119.253 37.3437 115.194 38.1714C114.433 38.3275 114.244 38.5997 114.611 39.302C115.438 40.8888 116.272 42.4738 117.178 44.0136C117.334 44.2772 117.87 44.4472 118.227 44.4246C118.879 44.3847 119.522 44.1732 120.168 44.0327C123.282 43.3529 126.415 42.6836 129.535 41.9847C130.189 41.8391 130.967 41.7506 130.83 40.724C130.694 39.6974 130.311 39.3662 129.202 39.4026C128.827 39.404 128.453 39.4324 128.081 39.4876C124.768 40.0737 121.455 40.6755 118.14 41.2599C117.792 41.304 117.442 41.3272 117.092 41.3292L117.093 41.3362ZM35.6868 88.6879C35.5138 87.7584 35.3408 86.8255 35.1349 85.9133C35.0712 85.6345 34.9166 85.3849 34.6954 85.2041C33.711 84.5104 31.621 84.7307 30.7456 85.5821C29.6055 86.6937 28.6695 87.892 28.7404 89.6261C28.7612 90.077 28.5951 90.533 28.5397 90.9908C28.3373 92.64 28.4567 94.2302 29.519 95.6019C30.3477 96.6718 31.4878 96.9406 32.7646 96.7238C33.9359 96.5244 34.5536 95.8238 34.9082 94.6585C35.5034 92.6955 35.974 90.7619 35.6868 88.6879ZM126.898 70.4971C127.042 70.477 127.186 70.4492 127.327 70.4138C130.929 69.3109 134.531 68.2074 138.133 67.1034C138.619 66.9543 138.652 66.6612 138.538 66.2363C138.173 64.9305 137.855 63.6126 137.458 62.3172C137.142 61.2768 136.775 61.1172 135.702 61.3999C132.366 62.2774 129.029 63.1577 125.692 64.041C124.415 64.3774 124.251 64.7034 124.732 65.9259C124.806 66.1132 124.919 66.2866 124.986 66.4756C125.19 67.0548 125.538 67.1693 126.131 66.9959C129.287 66.1063 132.453 65.2618 135.619 64.4034C136.026 64.2941 136.523 64.1086 136.69 64.7242C136.858 65.3398 136.363 65.4525 135.945 65.5687C134.808 65.8826 133.663 66.1635 132.528 66.4791C130.561 67.0271 128.597 67.5849 126.635 68.1525C126.147 68.293 125.638 68.5427 125.791 69.1531C125.938 69.7393 126.047 70.4572 126.898 70.4971ZM131.829 46.5177C130.114 46.8957 128.604 47.2773 127.076 47.5582C124.754 47.9778 122.422 48.3385 120.09 48.6975C119.294 48.8206 119.171 49.2368 119.398 49.9114C119.765 50.964 120.586 51.3958 121.82 51.0854C124.948 50.3033 128.066 49.4865 131.192 48.701C131.697 48.5726 132.403 48.2605 132.576 49.0235C132.749 49.7865 131.934 49.7172 131.509 49.8351C128.557 50.6068 125.607 51.3958 122.625 52.0357C120.746 52.4345 120.462 52.1675 121.332 54.4391C121.623 55.2004 122.024 55.3513 122.702 55.1484C124.221 54.6993 125.728 54.2154 127.258 53.8114C129.204 53.2998 131.17 52.8628 133.123 52.3738C133.588 52.2559 134.178 52.1432 133.953 51.4357C133.519 50.0622 133.066 48.6923 132.554 47.3484C132.445 47.0102 132.062 46.7692 131.829 46.5177ZM22.1556 67.7658C22.3286 67.5508 22.6228 67.3219 22.7248 67.0288C23.012 66.186 23.2283 65.3173 23.4619 64.4571C23.7629 63.3386 23.6176 63.1045 22.4757 62.8271C18.9867 61.982 15.497 61.1369 12.0068 60.2918C10.1331 59.8357 10.1349 59.827 9.51203 61.7155C8.73175 64.0843 8.71099 64.1554 11.1349 64.856C14.0034 65.6832 16.9134 66.3681 19.8044 67.1207C20.5259 67.3115 21.2421 67.5144 22.1556 67.7658ZM25.3563 52.9825C25.6245 52.7432 26.0138 52.5542 26.1314 52.2576C26.3857 51.6212 26.4774 50.9224 26.6764 50.2617C26.9065 49.4987 26.6089 49.19 25.865 49.0079C22.4636 48.1773 19.0778 47.2738 15.6764 46.4466C14.019 46.0408 13.6314 46.0894 13.4048 47.8339C13.3663 48.0614 13.3131 48.2861 13.2456 48.5067C13.0466 49.2559 13.2975 49.7206 14.0622 49.9409C15.1937 50.2599 16.3113 50.6484 17.4463 50.9484C20.0259 51.6368 22.6158 52.2836 25.3563 52.9825ZM8.90649 65.5011C8.63832 65.7508 8.24386 66.0092 8.00684 66.3681C7.76981 66.7271 7.69023 67.1676 7.58469 67.582C7.33729 68.5618 7.48261 68.7959 8.47569 69.0456C12.1597 69.9439 15.8436 70.8358 19.5276 71.7213C21.2145 72.1254 21.4203 71.9849 21.8788 70.2976C22.2612 68.893 22.1799 68.808 20.7352 68.4456C17.5622 67.6496 14.3996 66.8103 11.2196 66.0005C10.5345 65.8306 9.82863 65.7005 8.90649 65.5011ZM141.26 76.7191C141.206 76.7746 141.154 76.8301 141.1 76.8838C140.985 76.8813 140.869 76.8895 140.754 76.9081C137.029 77.8618 133.303 78.8035 129.592 79.8075C129.344 79.8734 129.048 80.4301 129.073 80.7318C129.178 81.9179 130.398 82.7521 131.566 82.5405C133.715 82.1521 135.867 81.7792 138.012 81.3752C139.31 81.1307 140.607 80.8844 141.886 80.5567C142.844 80.3122 142.958 80.0364 142.671 79.1208C142.52 78.5652 142.316 78.0252 142.062 77.5081C141.9 77.1959 141.54 76.9792 141.263 76.7191H141.26ZM135.261 57.1912C134.801 57.2848 134.49 57.3351 134.183 57.4132C130.954 58.2224 127.724 59.0403 124.495 59.8669C123.221 60.1929 123.038 60.5901 123.521 61.8161C123.606 62.0294 123.721 62.2323 123.798 62.449C124.035 63.1236 124.431 63.2606 125.133 63.0594C128.474 62.1022 131.829 61.1987 135.18 60.2849C136.737 59.8583 136.813 59.6901 136.154 58.2039C136.095 58.0107 136.005 57.8285 135.888 57.6646C135.694 57.489 135.486 57.3306 135.265 57.1912H135.261ZM140.924 74.4387C140.882 74.2653 140.775 73.8734 140.697 73.4797C140.524 72.6474 140.116 72.2901 139.237 72.5763C138.358 72.8624 137.41 73.0965 136.497 73.3531C134.394 73.9497 132.261 74.4578 130.199 75.174C128.137 75.8902 128.171 75.9821 128.599 78.0942C128.742 78.8017 129.099 78.9613 129.695 78.7671C130.292 78.5728 130.881 78.3145 131.486 78.1324C134.294 77.2879 137.111 76.4642 139.92 75.6196C140.401 75.4757 140.99 75.3959 140.927 74.4387H140.924ZM131.794 44.553C131.777 43.5125 131.388 43.1119 130.393 43.2316C128.626 43.4431 126.863 43.6928 125.109 43.9928C123.126 44.3397 121.147 44.716 119.18 45.1495C118.247 45.3541 117.969 45.8223 118.156 46.5368C118.433 47.6518 118.941 48.0351 119.886 47.8443C120.732 47.6709 121.578 47.4975 122.427 47.3431C125.249 46.8229 128.147 46.6668 130.869 45.6264C131.436 45.4183 131.886 45.198 131.798 44.553H131.794ZM139.725 71.1075C139.612 70.6167 139.552 70.2404 139.443 69.8936C138.964 68.3121 138.95 68.2843 137.343 68.7265C134.1 69.6161 130.867 70.5369 127.637 71.4664C127.393 71.5375 126.998 71.8271 127.021 71.9537C127.149 72.6768 127.258 73.4641 127.64 74.0555C127.804 74.3086 128.642 74.2618 129.123 74.1456C130.632 73.7815 132.118 73.3237 133.609 72.8919C135.625 72.3075 137.635 71.7179 139.728 71.1075H139.725ZM133.308 53.612C132.919 53.6865 132.232 53.7854 131.578 53.9588C128.971 54.6524 126.388 55.4189 123.765 56.0657C122.069 56.4854 122.003 56.4958 122.592 58.1467C122.621 58.2282 122.623 58.3513 122.68 58.3843C122.964 58.5577 123.308 58.8889 123.545 58.8282C127.216 57.8918 130.878 56.9184 134.531 55.9079C134.666 55.8498 134.786 55.761 134.881 55.6484C134.976 55.5358 135.043 55.4026 135.078 55.2594C135.218 54.2206 134.626 53.5981 133.308 53.612Z" fill="black"/>
<path d="M37.4394 91.1706C37.3783 90.9192 37.3481 90.6612 37.3495 90.4024C37.5692 88.6284 37.1038 86.9515 36.5329 85.3267C35.9187 83.5821 33.6332 82.4203 31.8789 83.27C29.4411 84.4509 27.4654 83.8579 25.4204 82.5209C24.3616 81.8272 23.218 81.2654 22.0969 80.6758C21.2318 80.218 21.0449 79.5191 21.2733 78.6364C22.6003 73.526 23.9688 68.4242 25.2439 63.2999C26.2249 59.3531 27.1055 55.3802 27.9982 51.4126C28.429 49.505 28.7906 47.568 29.1678 45.6432C29.2924 45.0119 29.5432 44.568 30.2664 44.816C31.9273 45.3865 33.5778 45.983 35.2283 46.5848C35.5218 46.7039 35.8023 46.8527 36.0657 47.0287C36.5225 47.3131 36.5553 47.6547 36.1211 47.9877C35.5951 48.39 35.0599 48.7807 34.5155 49.1599C33.7041 49.7253 33.3183 50.4744 33.4982 51.4663C33.6332 52.2051 33.7578 52.9472 33.9585 53.6686C34.3754 55.1739 35.3823 56.1224 36.8374 56.6548C39.3027 57.5565 41.7405 57.5617 44.1557 56.5039C50.0086 53.9392 55.8945 51.442 61.6972 48.7698C65.8754 46.8466 69.7405 47.4258 73.4135 49.8484C80.2959 54.3871 87.1425 58.9779 93.9533 63.6207C99.4977 67.3917 104.491 71.9185 108.789 77.0705C110.059 78.5966 111.01 80.4486 111.827 82.2729C112.486 83.7469 111.696 85.1082 110.604 86.159C108.021 88.6458 105.052 88.8001 101.872 87.496C98.3703 86.0619 95.3668 83.8266 92.2924 81.6746C89.6748 79.8416 86.9049 78.2289 84.1955 76.5312C83.7042 76.2243 83.1938 76.1619 82.8633 76.7671C82.5467 77.3463 82.6678 77.896 83.2872 78.1353C88.3045 80.0723 92.263 83.7469 96.7959 86.4764C97.4135 86.8492 98.0069 87.2533 98.6402 87.6035C101.455 89.1643 102.595 91.9753 101.557 94.84C100.493 97.788 97.6886 99.3973 94.5883 98.6065C93.1529 98.2103 91.7906 97.5849 90.5536 96.7545C85.9187 93.7302 81.3547 90.5966 76.7595 87.5099C76.4498 87.3018 76.128 87.0348 75.7837 86.9897C75.6139 86.9681 75.4414 86.9833 75.2778 87.0341C75.1143 87.085 74.9635 87.1703 74.8357 87.2845C74.7128 87.4215 74.8754 87.914 75.0312 88.1723C75.1678 88.3995 75.4689 88.5348 75.7059 88.6926C79.6782 91.4117 83.6511 94.1285 87.6246 96.8429C90.6142 98.8926 91.2163 102.566 89.0571 105.286C88.3149 106.224 87.327 106.674 86.2457 106.41C84.911 106.089 83.6168 105.617 82.3876 105.005C78.3945 103.009 74.9481 100.179 71.3339 97.599C70.5479 97.0141 69.7313 96.4717 68.8875 95.9741C68.5571 95.7868 68.0225 95.7001 67.6886 95.8354C67.0225 96.1042 67.0761 96.9903 67.7993 97.3163C71.3737 98.9221 74.2111 101.605 77.3408 103.856C78.4261 104.662 79.4133 105.593 80.282 106.63C81.6834 108.257 81.5519 111.453 80.1696 113.085C79.3754 114.021 78.3201 114.214 77.2595 113.934C75.8253 113.556 74.3599 113.135 73.0606 112.441C70.8789 111.276 68.8218 109.877 66.7059 108.586C65.7024 107.974 65.2076 107.147 65.3218 105.924C65.4637 104.423 65.0986 102.989 64.4394 101.65C63.4291 99.595 61.3858 98.688 59.1644 99.2429C57.7803 99.5898 57.1765 99.1666 57.0536 97.6944C56.9048 95.9221 56.3772 94.3059 55.2232 92.9273C53.6263 91.0198 51.5398 90.7094 49.4567 92.0689C47.7543 93.1805 47.4844 93.0955 47.0346 91.1255C46.5675 89.0446 45.0692 88.1203 43.2162 87.7007C41.3131 87.2706 39.846 88.1151 38.718 89.6255C38.3374 90.1458 38.0138 90.6972 37.6626 91.2348L37.4394 91.1706Z" fill="white"/>
<path d="M73.7094 31.5468C80.2163 31.8329 86.0364 33.2428 91.2353 36.796C95.1506 39.4717 99.4118 41.3879 104.102 42.2498C106.542 42.7252 109.05 42.7211 111.488 42.2376C114.036 41.7174 114.343 41.7642 115.436 44.1764C118.091 49.9716 120.312 55.957 122.08 62.0829C123.232 66.132 124.547 70.1343 125.796 74.1558C126.142 75.2951 126.116 75.302 124.991 75.6194C121.448 76.6165 117.915 77.6535 114.377 78.6714C113.99 78.7824 113.588 78.9887 113.213 78.9506C112.751 78.9055 112.13 78.7876 111.888 78.4668C106.524 71.3569 99.9949 65.5407 92.545 60.7268C87.7561 57.6331 82.9585 54.5481 78.1852 51.4267C76.5035 50.3273 74.9204 49.0753 73.2232 48.0036C72.2578 47.3932 71.1471 47.0203 70.109 46.5157C67.9343 45.4562 65.6955 45.581 63.564 46.4567C58.2422 48.6435 52.9896 51.0019 47.673 53.199C45.5404 54.055 43.3651 54.8 41.1557 55.4308C39.7907 55.8348 38.3997 55.5123 37.1142 54.9331C35.0519 54.0019 34.6522 51.8117 36.3685 50.3151C38.2405 48.6937 40.218 47.1937 42.2076 45.7111C45.9792 42.9122 49.6765 39.9885 53.6263 37.4463C58.4616 34.3135 63.9914 32.4209 69.7284 31.9353C71.1627 31.8104 72.5935 31.6561 73.7094 31.5468Z" fill="white"/>
<path d="M4.82693 78.5192C7.24908 79.0273 9.67123 79.5128 12.0934 80.0521C13.3823 80.3417 14.6505 80.7302 15.9325 81.0631C16.2054 81.154 16.4909 81.2008 16.7785 81.2019C16.9636 81.1897 17.1349 81.0024 17.3131 80.8932C17.1851 80.7388 17.0865 80.4978 16.9256 80.4423C15.9463 80.0955 14.9671 79.7487 13.9636 79.4972C11.2837 78.833 8.58472 78.2382 5.90479 77.5741C4.67815 77.2706 4.55185 77.0088 4.83212 75.8937C5.15911 74.581 5.60202 74.222 6.73524 74.4891C8.41517 74.8827 10.0726 75.3787 11.7525 75.7619C13.801 76.2284 15.865 76.629 17.9238 77.0504C18.1487 77.0955 18.4048 77.17 18.602 77.1024C18.7993 77.0348 18.9602 76.8024 19.1366 76.6429C18.9775 76.5024 18.8408 76.2822 18.6591 76.2371C17.2906 75.9007 15.91 75.6111 14.538 75.2798C12.049 74.6798 9.5628 74.0671 7.07953 73.4417C6.43939 73.2787 5.74216 73.133 5.94977 72.1532C6.24043 70.792 6.7733 70.1243 7.77676 70.2683C9.45496 70.5076 11.1211 70.844 12.775 71.2133C15.2404 71.7631 17.6193 72.7567 20.1937 72.7584C20.8287 72.7584 20.9757 73.1469 20.8131 73.6966C19.7866 77.1856 18.7606 80.6706 17.7352 84.1516C17.493 84.977 16.9861 85.2354 16.1626 85.036C12.3033 84.0996 8.43939 83.1747 4.57087 82.2614C3.73004 82.0602 3.42381 81.6094 3.67814 80.7423C3.81482 80.2793 3.80271 79.7729 3.86326 79.2874C3.93939 78.7186 4.2387 78.4567 4.82693 78.5192Z" fill="#9D85F4"/>
<path d="M46.263 104.458C46.3114 104.137 46.3754 103.681 46.4481 103.227C46.7405 101.439 47.083 99.6577 47.3131 97.8629C47.4861 96.4583 48.0502 95.3207 49.2301 94.5351C49.9481 94.0565 50.6955 93.6212 51.4394 93.1842C51.7344 92.992 52.0864 92.9075 52.4362 92.9451C52.7861 92.9827 53.1123 93.1401 53.3598 93.3906C53.8547 93.8536 54.3668 94.3912 54.6228 94.9999C55.3287 96.675 55.8339 98.3658 55.1851 100.254C54.5675 102.046 54.2924 103.957 53.6557 105.741C53.3097 106.709 52.628 107.609 51.9256 108.379C51.1124 109.268 50.0225 109.398 48.9117 108.835C47.1782 107.955 46.3079 106.535 46.263 104.458Z" fill="white"/>
<path d="M27.7664 41.2678C27.7664 41.6146 27.7664 41.9614 27.7664 42.3083C27.7387 43.6487 27.128 44.0424 25.846 43.595C23.2076 42.6828 20.5674 41.7794 17.9152 40.9106C17.3091 40.7266 16.6827 40.6183 16.0501 40.588C15.801 40.5707 15.3131 40.8152 15.3166 40.9244C15.3645 41.2452 15.4944 41.5481 15.6937 41.8036C15.7716 41.9198 15.9982 41.9476 16.1626 41.9909C18.8858 42.71 21.6084 43.4268 24.3304 44.1412C25.1107 44.3458 25.8875 44.5574 26.673 44.7377C27.2041 44.8626 27.4307 45.1487 27.4325 45.7123C27.4325 48.0655 27.0692 48.3707 24.8027 47.7343C21.5328 46.817 18.2698 45.8701 14.9965 44.9597C14.2525 44.7551 14.1107 44.4273 14.2595 43.6453C14.6349 41.6649 14.8598 39.6568 15.147 37.6539C15.2041 37.255 15.2024 36.8267 15.3581 36.4678C15.4532 36.2458 15.8217 35.9579 16.019 35.9909C19.4204 36.5597 22.8685 36.9134 26.1055 38.2452C27.1643 38.6822 27.8079 39.2701 27.6989 40.4822C27.6938 40.7424 27.7077 41.0027 27.7404 41.2609L27.7664 41.2678Z" fill="#9D85F4"/>
<path d="M37.6592 98.1785C37.7422 95.9692 38.3512 93.8432 39.2993 91.8143C39.5951 91.1865 40.1297 90.6264 40.6678 90.1686C42.4965 88.6079 44.7889 89.3848 45.4567 91.7033C46.0536 93.7843 45.7595 95.8201 45.3754 97.8698C45.173 98.9467 44.9446 100.018 44.7249 101.094C44.4942 102.211 43.8342 103.193 42.8875 103.827C42.0052 104.454 40.8114 104.309 39.7976 103.429C38.2163 102.065 37.7353 100.23 37.6592 98.1785Z" fill="white"/>
<path d="M12.7387 55.434C14.692 55.9091 16.647 56.3774 18.5986 56.8594C19.6886 57.13 20.7699 57.43 21.8598 57.6936C22.2726 57.8208 22.7033 57.8793 23.1349 57.867C23.4429 57.834 23.7249 57.56 24.019 57.3935C23.7733 57.1941 23.5571 56.8855 23.2785 56.8109C19.8933 55.886 16.5017 54.9872 13.1038 54.1143C12.346 53.9218 12.1072 53.5022 12.2387 52.7981C12.3146 52.49 12.4118 52.1876 12.5294 51.8929C12.7751 51.1854 13.211 51.0363 13.9411 51.2426C16.7924 52.0455 19.6505 52.8033 22.5242 53.5438C23.0796 53.6877 23.6609 53.7172 24.2284 53.8213C25.2664 53.9947 25.5761 54.4299 25.3443 55.4392C24.9031 57.3467 24.4239 59.2543 24.0104 61.1618C23.8685 61.819 23.5951 62.0479 22.9377 61.871C19.1886 60.8618 15.4308 59.8803 11.6834 58.8623C10.7249 58.6005 10.6453 58.3421 11.0155 57.4144C11.1574 57.0675 11.3131 56.7207 11.4602 56.3739C11.7629 55.6802 11.9688 55.545 12.7387 55.434Z" fill="#9D85F4"/>
<path d="M55.9515 107.543C55.974 105.288 56.7007 103.367 58.3218 101.772C59.9066 100.211 61.8547 100.419 62.8633 102.411C63.2988 103.252 63.564 104.171 63.6436 105.115C63.7664 107.137 64.2872 109.209 63.3789 111.184C63.0035 112.056 62.5255 112.88 61.955 113.638C61.09 114.72 59.8789 114.852 58.7059 114.132C57.3218 113.265 56.3737 112.107 56.2682 110.38C56.2111 109.424 56.0588 108.481 55.9515 107.543Z" fill="white"/>
<path d="M117.092 41.329C117.439 41.3277 117.785 41.3057 118.13 41.2631C121.445 40.6787 124.758 40.0769 128.071 39.4908C128.442 39.4356 128.817 39.4072 129.192 39.4058C130.299 39.3694 130.685 39.7058 130.82 40.7272C130.955 41.7486 130.178 41.8423 129.524 41.9879C126.41 42.6816 123.28 43.3561 120.157 44.0359C119.512 44.1764 118.869 44.3827 118.216 44.4278C117.87 44.4504 117.324 44.2804 117.168 44.0168C116.261 42.4769 115.427 40.8954 114.6 39.3052C114.234 38.6116 114.427 38.3307 115.183 38.1746C119.24 37.3422 123.295 36.5 127.35 35.648C128.296 35.4486 129.145 35.6809 129.585 36.3555C130.088 37.1255 129.856 37.689 128.922 37.9162C125.396 38.7607 121.867 39.5914 118.344 40.4498C117.874 40.5642 117.434 40.807 116.981 40.9925L117.092 41.329Z" fill="#9D85F4"/>
<path d="M35.6868 88.6881C35.974 90.769 35.5034 92.6956 34.9082 94.65C34.5622 95.8153 33.9359 96.5159 32.7646 96.7153C31.4878 96.9321 30.3425 96.6633 29.519 95.5933C28.4567 94.2217 28.3373 92.6315 28.5397 90.9823C28.5951 90.5245 28.7612 90.0684 28.7404 89.6176C28.6626 87.8835 29.6055 86.6852 30.7456 85.5736C31.6211 84.7222 33.711 84.4985 34.6955 85.1956C34.9166 85.3764 35.0713 85.626 35.1349 85.9048C35.3494 86.8256 35.5069 87.7586 35.6868 88.6881Z" fill="white"/>
<path d="M126.898 70.4965C126.047 70.4566 125.938 69.737 125.791 69.156C125.638 68.5456 126.147 68.289 126.635 68.1554C128.596 67.5867 130.56 67.0289 132.528 66.482C133.663 66.1664 134.808 65.8855 135.945 65.5716C136.363 65.4554 136.855 65.3271 136.69 64.7271C136.526 64.1271 136.026 64.297 135.619 64.4063C132.453 65.2595 129.287 66.1092 126.132 66.9988C125.538 67.1722 125.19 67.0578 124.986 66.4786C124.919 66.2895 124.813 66.1161 124.732 65.9288C124.251 64.715 124.415 64.3803 125.692 64.0439C129.028 63.1606 132.365 62.2803 135.702 61.4028C136.775 61.1201 137.142 61.2814 137.459 62.3202C137.855 63.6155 138.173 64.9335 138.538 66.2393C138.656 66.6606 138.619 66.9537 138.133 67.1063C134.53 68.2034 130.928 69.3069 127.327 70.4167C127.186 70.451 127.042 70.4776 126.898 70.4965Z" fill="#9D85F4"/>
<path d="M131.829 46.5175C132.062 46.7689 132.445 47.0099 132.573 47.3481C133.092 48.692 133.538 50.062 133.972 51.4354C134.197 52.1429 133.607 52.2556 133.142 52.3736C131.189 52.8626 129.223 53.2996 127.277 53.8111C125.747 54.2152 124.241 54.699 122.722 55.1481C122.029 55.351 121.642 55.2002 121.351 54.4389C120.486 52.1672 120.765 52.4343 122.644 52.0354C125.626 51.4042 128.576 50.6065 131.528 49.8348C131.953 49.7238 132.773 49.7741 132.595 49.0233C132.417 48.2724 131.715 48.5724 131.211 48.7007C128.085 49.4863 124.967 50.303 121.839 51.0851C120.597 51.3955 119.775 50.9637 119.417 49.9111C119.182 49.2313 119.305 48.8152 120.109 48.6972C122.441 48.3383 124.78 47.9776 127.095 47.5579C128.604 47.277 130.114 46.8955 131.829 46.5175Z" fill="#9D85F4"/>
<path d="M22.1556 67.7656C21.2421 67.5141 20.5259 67.3078 19.8044 67.1205C16.9134 66.3679 14.0034 65.6829 11.1349 64.8557C8.71273 64.1621 8.73176 64.084 9.51204 61.7152C10.1349 59.8268 10.1331 59.8354 12.0068 60.2915C15.4947 61.1436 18.9844 61.9886 22.4757 62.8268C23.6176 63.1043 23.7629 63.3384 23.4619 64.4569C23.2283 65.3239 23.012 66.191 22.7249 67.0286C22.6228 67.3216 22.3287 67.5505 22.1556 67.7656Z" fill="#9D85F4"/>
<path d="M25.3564 52.9817C22.6159 52.2881 20.0259 51.6361 17.4463 50.9528C16.3079 50.6528 15.1972 50.2592 14.0622 49.9453C13.2975 49.7285 13.0467 49.2603 13.2456 48.5112C13.3131 48.2906 13.3663 48.0658 13.4048 47.8384C13.6314 46.0886 14.019 46.0401 15.6764 46.4511C19.0778 47.2834 22.4636 48.1852 25.865 49.0124C26.609 49.1944 26.9031 49.5031 26.6764 50.2661C26.4775 50.9268 26.3858 51.6257 26.1315 52.2621C26.0207 52.5534 25.6245 52.7442 25.3564 52.9817Z" fill="#9D85F4"/>
<path d="M8.9065 65.5008C9.82865 65.7002 10.5345 65.8303 11.2283 66.0072C14.3996 66.817 17.5622 67.6563 20.7439 68.4523C22.1885 68.8147 22.2698 68.8997 21.8875 70.3043C21.429 71.9916 21.2231 72.1321 19.5363 71.728C15.8454 70.8483 12.1614 69.9563 8.48436 69.0523C7.49128 68.8095 7.34595 68.5685 7.59335 67.5887C7.69889 67.1708 7.78712 66.7216 8.0155 66.3748C8.24387 66.028 8.63833 65.7505 8.9065 65.5008Z" fill="#9D85F4"/>
<path d="M141.263 76.7188C141.54 76.9789 141.9 77.1922 142.071 77.5078C142.324 78.0249 142.528 78.5649 142.68 79.1206C142.967 80.0362 142.853 80.3119 141.895 80.5564C140.618 80.8842 139.318 81.1304 138.021 81.3749C135.875 81.779 133.723 82.1518 131.574 82.5402C130.407 82.7518 129.187 81.9177 129.081 80.7316C129.054 80.4298 129.35 79.8732 129.6 79.8073C133.311 78.8032 137.04 77.8616 140.763 76.9078C140.877 76.8892 140.993 76.8811 141.109 76.8836C141.157 76.8298 141.209 76.7743 141.263 76.7188Z" fill="#9D85F4"/>
<path d="M135.265 57.1914C135.489 57.3309 135.7 57.4899 135.896 57.6666C136.014 57.8305 136.104 58.0127 136.163 58.2059C136.822 59.6868 136.739 59.855 135.189 60.2868C131.837 61.2041 128.483 62.1076 125.142 63.0614C124.44 63.2625 124.043 63.1255 123.806 62.451C123.73 62.2342 123.614 62.0313 123.529 61.818C123.047 60.592 123.23 60.1949 124.504 59.8689C127.733 59.04 130.963 58.222 134.192 57.4151C134.498 57.3353 134.805 57.285 135.265 57.1914Z" fill="#9D85F4"/>
<path d="M140.927 74.438C140.99 75.3952 140.408 75.4784 139.924 75.6189C137.114 76.4634 134.298 77.2871 131.49 78.1316C130.884 78.3137 130.303 78.5773 129.699 78.7663C129.095 78.9553 128.746 78.801 128.602 78.0935C128.175 75.9813 128.118 75.8964 130.202 75.1732C132.287 74.4501 134.398 73.949 136.5 73.3524C137.414 73.0923 138.337 72.8703 139.241 72.5755C140.144 72.2807 140.535 72.6466 140.701 73.479C140.779 73.8727 140.886 74.2628 140.927 74.438Z" fill="#9D85F4"/>
<path d="M131.798 44.5527C131.886 45.1978 131.436 45.4198 130.872 45.6331C128.151 46.6735 125.253 46.8227 122.431 47.3498C121.581 47.5076 120.735 47.6793 119.889 47.851C118.945 48.0417 118.436 47.6585 118.159 46.5435C117.986 45.8221 118.251 45.3539 119.183 45.1562C121.151 44.7226 123.13 44.3411 125.113 43.9995C126.867 43.6995 128.63 43.4498 130.396 43.2382C131.384 43.1117 131.78 43.5122 131.798 44.5527Z" fill="#9D85F4"/>
<path d="M139.728 71.1072C137.635 71.7176 135.625 72.3072 133.613 72.8881C132.121 73.3199 130.635 73.7777 129.126 74.1419C128.645 74.2581 127.808 74.3049 127.644 74.0517C127.261 73.4604 127.152 72.6731 127.024 71.95C127.002 71.8234 127.396 71.5338 127.64 71.4627C130.87 70.5332 134.104 69.6124 137.346 68.7228C138.953 68.2806 138.967 68.3083 139.446 69.8899C139.554 70.2454 139.616 70.6165 139.728 71.1072Z" fill="#9D85F4"/>
<path d="M133.308 53.6113C134.626 53.6113 135.211 54.2287 135.071 55.2518C135.036 55.395 134.969 55.5282 134.874 55.6408C134.779 55.7534 134.659 55.8423 134.524 55.9004C130.87 56.9061 127.208 57.8796 123.538 58.8206C123.299 58.8813 122.955 58.5466 122.673 58.3767C122.616 58.3437 122.614 58.2206 122.585 58.1391C121.997 56.49 122.066 56.4796 123.758 56.0582C126.375 55.4113 128.964 54.6449 131.571 53.9512C132.232 53.7691 132.919 53.6772 133.308 53.6113Z" fill="#9D85F4"/>
</g>
<defs>
<clipPath id="clip0_396_12956">
<rect width="144.121" height="116" fill="white" transform="translate(0.939392)"/>
</clipPath>
</defs>
</svg>
