<svg width="156" height="116" viewBox="0 0 156 116" fill="none" xmlns="http://www.w3.org/2000/svg">
<g clip-path="url(#clip0_330_10494)">
<path d="M155.551 63.2791C155.581 61.9131 155.47 60.5476 155.22 59.2044C154.993 57.8964 154.623 56.6174 154.116 55.3906C153.791 54.2421 153.082 53.2397 152.108 52.5503C151.657 51.6757 151.119 50.8485 150.503 50.0813C149.247 48.4316 147.798 46.9388 146.187 45.6352C142.708 42.8945 138.872 40.6392 134.786 38.931C127.111 35.4479 118.846 33.449 110.427 33.0396C106.962 32.9423 103.495 33.1269 100.06 33.5916C97.2224 33.8795 94.4273 34.4924 91.7297 35.4182C91.6554 35.3155 91.548 35.2414 91.4256 35.2085C91.3031 35.1756 91.173 35.1859 91.0572 35.2376C89.7205 34.0721 88.2559 33.062 86.6915 32.2267C84.905 31.0524 83.0985 29.9284 81.2417 28.8746C78.0201 27.0379 74.7181 25.3418 71.3359 23.8564C65.8619 21.3049 60.0943 19.4374 54.1637 18.2963C49.7347 17.4366 45.1947 17.3112 40.725 17.9249C37.5184 18.3343 34.4075 19.2988 31.5317 20.7752C29.5677 21.8045 27.9435 23.38 26.8548 25.3116C26.7101 25.3694 26.5872 25.4712 26.5035 25.6027C24.4159 28.9548 22.489 32.4475 20.562 35.8598C18.2871 39.7941 16.0456 43.7517 13.8377 47.7328C11.6798 51.6269 9.52208 55.5311 7.30405 59.4051C6.19001 61.3321 5.05585 63.249 3.92174 65.1659C2.69848 66.9939 1.60522 68.9055 0.649948 70.8867C0.612854 70.9761 0.605505 71.0752 0.628998 71.1692C0.652491 71.2631 0.705587 71.347 0.780425 71.4085C0.705121 71.4772 0.648414 71.5638 0.615705 71.6603C0.582997 71.7568 0.575358 71.86 0.593408 71.9603C0.611458 72.0606 0.65462 72.1546 0.718923 72.2337C0.783227 72.3127 0.866562 72.3741 0.961072 72.4122C1.18187 73.9678 1.64354 75.4231 1.89444 77.0088C2.03505 77.8678 2.09552 78.7381 2.07509 79.6082C2.03231 80.2054 1.94848 80.799 1.82418 81.3847C1.49298 81.3847 1.17182 81.465 0.820549 81.5252C0.238441 81.6256 0.389001 82.5288 0.961072 82.5288H1.72378C1.748 82.562 1.77972 82.589 1.81634 82.6076C1.85297 82.6262 1.89349 82.6359 1.93457 82.6359C1.97565 82.6359 2.01617 82.6262 2.05279 82.6076C2.08942 82.589 2.12113 82.562 2.14535 82.5288C9.60014 82.6822 17.0207 83.5833 24.2956 85.2186C31.8574 86.6975 39.3269 88.6143 46.6665 90.9593C48.0817 91.421 49.4566 91.963 50.8416 92.5451C52.046 93.0469 53.2604 93.5487 54.4347 94.1609C55.6089 94.7732 56.8735 95.7668 58.1682 96.4292C58.203 96.5044 58.2545 96.5707 58.3188 96.6228C58.3832 96.675 58.4587 96.7118 58.5395 96.7302C61.42 97.3826 64.3606 97.5532 67.3816 98.2457C75.7203 100.25 83.8805 102.935 91.7799 106.275C95.1421 107.66 98.4741 109.145 101.816 110.671C103.723 111.554 105.613 112.457 107.487 113.381C109.384 114.314 111.321 115.599 113.418 115.98C113.55 116.003 113.686 115.986 113.808 115.93C113.93 115.875 114.032 115.784 114.101 115.669C114.158 115.637 114.208 115.594 114.248 115.542C114.287 115.491 114.316 115.431 114.332 115.368C114.352 115.215 114.352 115.059 114.332 114.906C116.118 112.628 118.075 110.49 119.922 108.272C123.174 104.371 126.442 100.491 129.727 96.6299C136.532 88.6008 143.236 80.5717 150.021 72.5427L153.574 68.3374C153.976 67.8896 154.355 67.4206 154.708 66.9323C154.777 66.877 154.835 66.8088 154.878 66.7316C154.949 66.6112 154.989 66.4807 155.049 66.3503C155.109 66.2198 155.27 65.9889 155.139 66.1395C155.426 65.2136 155.565 64.2483 155.551 63.2791ZM152.189 56.1433C152.299 55.9785 152.399 55.8076 152.49 55.6314L152.56 55.521C152.56 55.6415 152.67 55.7519 152.721 55.8723C153.012 56.5701 153.254 57.2878 153.443 58.0201C151.024 60.77 148.877 63.7508 146.508 66.551C143.678 69.8931 140.978 73.3355 138.268 76.778C135.558 80.2205 132.728 83.4522 129.908 86.7642C127.088 90.0761 124.498 93.3279 121.598 96.4392C118.384 99.6568 115.368 103.065 112.565 106.646C112.334 105.783 112.093 104.92 111.853 104.057C113.619 101.809 115.566 99.6809 117.393 97.483C120.638 93.5822 123.906 89.7014 127.198 85.8408C134.003 77.8117 140.707 69.7827 147.482 61.7536L151.044 57.5283C151.45 57.0867 151.831 56.6244 152.189 56.1433ZM91.4688 37.1244C91.5692 36.9353 91.6596 36.7409 91.7397 36.5423C94.2187 36.1609 96.6776 35.619 99.1767 35.3078C102.113 34.9381 105.069 34.7538 108.029 34.7558C112.492 34.7367 116.943 35.2454 121.287 36.2713C128.944 38.1381 136.693 41.0185 143.156 45.6051C145.002 46.8941 146.687 48.4003 148.174 50.0914C148.901 50.9302 149.549 51.8339 150.111 52.7911C150.463 53.4951 150.876 54.1668 151.346 54.7984C151.255 54.8787 151.145 54.949 151.055 55.0393C150.696 55.3704 150.361 55.7259 150.051 56.1031L147.11 59.5958L138.078 70.3748C131.052 78.715 124.097 87.0653 117.312 95.5861C115.305 98.0952 113.298 100.654 111.551 103.344C111.497 103.305 111.435 103.277 111.37 103.261C111.304 103.246 111.236 103.243 111.17 103.254C110.312 102.313 109.356 101.465 108.32 100.725C107.015 99.7211 105.69 98.6572 104.305 97.7138C101.323 95.5442 98.108 93.713 94.7205 92.254C91.0699 90.6943 87.2556 89.5497 83.3493 88.8417C79.208 87.9774 74.9838 87.5734 70.7538 87.6373C67.9837 87.7678 64.6416 87.8079 62.0422 89.1127C63.1469 87.5027 64.1524 85.8268 65.0531 84.0945C67.4418 79.9093 69.7903 75.7041 72.1388 71.4989C77.2974 62.2454 82.4728 52.9986 87.665 43.7584C88.5983 42.0924 89.5418 40.4264 90.5153 38.7403C90.8264 38.1782 91.1777 37.6664 91.4688 37.1244ZM111.19 106.215C110.204 105.485 109.175 104.814 108.109 104.207C105.423 102.524 102.646 100.993 99.7889 99.6207C92.1014 95.7756 83.8528 93.174 75.3504 91.9128C70.5238 91.2301 65.6224 91.2706 60.8078 92.0332C60.9483 91.692 61.0687 91.3508 61.2293 91.0296L61.3798 90.7385C64.1498 89.2532 67.3414 89.0725 70.4125 88.942C74.4332 88.8745 78.4499 89.2311 82.3959 90.0059C89.6516 91.2584 96.5385 94.1071 102.559 98.3461C104.034 99.3999 105.479 100.504 106.905 101.638C108.059 102.733 109.328 103.702 110.688 104.528H110.799C110.899 105.101 111.06 105.703 111.19 106.215ZM5.10608 66.0692C6.2703 64.1724 7.39431 62.2353 8.49831 60.3084C10.7565 56.3741 12.9544 52.3897 15.1524 48.4153C19.2573 40.9784 23.5327 33.6418 27.758 26.2651C27.8426 26.1234 27.8746 25.9564 27.8484 25.7934C30.5281 21.7789 35.185 19.7114 39.9522 19.2296C49.6373 18.226 59.6435 21.0462 68.4855 24.7496C72.0952 26.2818 75.6197 28.0072 79.0438 29.9183C80.9507 30.9721 82.8275 32.0761 84.7043 33.1902C85.7079 33.7623 86.6012 34.3444 87.5245 34.9465C88.273 35.4909 89.0576 35.9838 89.873 36.4219C89.6923 36.6929 89.5217 36.9739 89.3511 37.2549C88.5616 38.5931 87.7854 39.9312 87.0227 41.2694C84.6541 45.4144 82.3558 49.5896 80.0575 53.7747C74.949 63.0985 69.9208 72.4724 64.8223 81.8062C63.4674 84.2952 62.1025 86.7742 60.8078 89.3034C59.6168 87.5391 58.1295 85.9941 56.4118 84.7368C54.7165 83.3573 52.9255 82.0996 51.0524 80.9732C47.4387 78.7718 43.6164 76.933 39.6411 75.4833C30.9037 72.3163 21.7213 70.5483 12.4326 70.2444C8.9971 69.9666 5.53947 70.1828 2.16538 70.8867C2.11631 70.8563 2.06178 70.8358 2.00483 70.8265C3.15002 69.3232 4.18642 67.7402 5.10608 66.0893V66.0692ZM2.67725 72.0007C5.40896 71.5471 8.18195 71.3922 10.9472 71.539C15.739 71.6335 20.5153 72.1168 25.2289 72.9843C33.4509 74.3404 41.3803 77.0933 48.6738 81.1237C50.7731 82.3257 52.7584 83.7165 54.6053 85.2788C55.6089 86.0917 56.4921 86.9448 57.3753 87.828C58.2585 88.7112 59.0413 89.765 60.0149 90.5579C60.0649 90.5938 60.1188 90.6241 60.1755 90.6482C60.0684 90.8556 59.968 91.0664 59.8743 91.2805C58.1911 89.801 56.3922 88.4585 54.4949 87.266C52.4876 85.9278 50.4368 84.6465 48.3426 83.422C44.0913 81.0564 39.6041 79.1424 34.9541 77.7114C26.7821 75.1306 18.2721 73.7777 9.70268 73.6968C7.45612 73.6599 5.20961 73.7739 2.97832 74.0381C2.86793 73.3556 2.76757 72.6832 2.67725 72.0208V72.0007ZM58.8807 94.5925C57.1114 93.1527 55.1133 92.0196 52.9694 91.2404C51.4539 90.588 49.9585 89.9356 48.3727 89.3836C45.2715 88.2997 42.1 87.4266 38.9185 86.6036C30.3448 84.364 21.6256 82.7241 12.824 81.6958C9.56161 81.2218 6.26203 81.0538 2.96834 81.194C3.25433 80.3475 3.39015 79.4577 3.36976 78.5645C7.30688 78.3745 11.2531 78.5323 15.1625 79.0362C24.4451 79.8978 33.5753 81.9695 42.3208 85.1985C48.1836 87.4149 53.8116 90.2087 59.1216 93.5387C59.026 93.9087 58.9523 94.284 58.9008 94.6628L58.8807 94.5925ZM59.483 92.1737C59.3926 92.4548 59.2922 92.7458 59.212 93.0469C44.2478 82.7898 25.1988 78.2634 7.21369 78.0626C5.92904 78.0626 4.61427 78.0125 3.31959 78.0626C3.31959 77.7415 3.3196 77.4404 3.26942 77.1493C3.2092 76.2661 3.10882 75.393 2.99842 74.5098C8.34305 73.9346 13.7392 74.0425 19.0566 74.8309C28.5996 75.8682 37.8722 78.6439 46.4156 83.0206C48.8068 84.2967 51.1315 85.6936 53.3808 87.2058C55.5086 88.6209 57.4957 90.2969 59.6536 91.6518L59.483 92.1737ZM109.143 112.246C107.366 111.393 105.58 110.56 103.793 109.727C100.749 108.322 97.6812 106.964 94.5901 105.653C89.5719 103.545 84.5537 101.538 79.4151 99.8014C73.7561 97.7487 67.8904 96.3185 61.9218 95.5359C61.2258 95.4495 60.5255 95.4026 59.8242 95.3954C59.9872 94.4588 60.2221 93.536 60.5267 92.6354C60.5267 92.5752 60.5267 92.525 60.597 92.4648C76.5849 89.9758 93.2351 96.1481 106.694 104.438C108.356 105.446 109.961 106.545 111.501 107.73L111.983 109.737C112.083 110.169 112.164 110.6 112.254 111.032C111.622 110.551 110.951 110.124 110.247 109.757C108.671 108.854 107.085 107.991 105.5 107.138C102.017 105.271 98.4741 103.495 94.9213 101.768C89.9613 99.3882 84.7545 97.5607 79.395 96.3187C73.1672 94.9004 66.8264 94.0339 60.4464 93.7294C60.2055 93.7294 60.2055 94.0907 60.4464 94.1108C69.9339 94.6991 79.2953 96.5902 88.2672 99.7311C93.7069 101.738 98.7652 104.699 103.864 107.429C105.67 108.433 107.487 109.366 109.273 110.38C110.305 111.018 111.375 111.594 112.475 112.106C112.475 112.307 112.565 112.497 112.595 112.688C112.686 113.16 112.766 113.692 112.836 114.123C111.658 113.408 110.431 112.777 109.163 112.236L109.143 112.246ZM113.278 109.486C113.077 108.653 112.856 107.82 112.635 106.997C112.668 107.002 112.7 106.998 112.73 106.986C112.76 106.973 112.787 106.953 112.806 106.927C115.467 103.614 118.297 100.442 121.287 97.4227C124.207 94.3416 126.877 91.0597 129.617 87.818C135.237 81.1839 140.546 74.289 146.177 67.665C148.696 64.7043 151.195 61.7034 153.564 58.6323C153.624 58.9033 153.704 59.1743 153.764 59.4553C153.951 60.3651 154.068 61.2877 154.116 62.2153C152.419 63.8612 150.884 65.7079 149.348 67.4944C147.542 69.5819 145.715 71.6394 143.979 73.7872C140.205 78.4641 136.542 83.2012 132.578 87.7276C127.73 93.2577 123.043 98.9884 118.607 104.86C116.971 107.028 115.185 109.145 113.689 111.423C113.569 110.721 113.448 110.109 113.298 109.476L113.278 109.486ZM153.935 65.5574L153.544 65.8685C153.19 66.2083 152.855 66.5668 152.54 66.9424L149.599 70.435L140.516 81.2141C133.491 89.5543 126.536 97.9045 119.751 106.425C117.814 108.864 115.857 111.353 114.141 113.963C114.061 113.471 113.98 112.959 113.89 112.477C113.89 112.266 113.79 112.056 113.749 111.845C117.443 106.967 121.377 102.25 125.211 97.483C127.349 94.8233 129.507 92.2038 131.745 89.6345C135.659 85.1383 139.422 80.6018 143.106 75.8747C146.588 71.4487 150.372 67.2635 154.146 63.0784C154.147 63.9092 154.076 64.7386 153.935 65.5574Z" fill="#222221"/>
<path d="M32.7462 28.2824C34.3319 26.3755 38.8382 23.8463 40.5946 26.8171C40.6318 26.8751 40.6653 26.9355 40.6949 26.9977C40.2232 27.2228 39.7815 27.506 39.3802 27.8408C38.768 28.3727 37.7744 29.5169 38.0855 30.4302C38.2184 30.7027 38.4499 30.9146 38.7332 31.0227C39.0165 31.1308 39.3303 31.127 39.611 31.0123C39.9854 30.9193 40.3367 30.7505 40.6433 30.5163C40.9498 30.2821 41.2051 29.9875 41.3932 29.6507C41.5813 29.3139 41.6984 28.9421 41.7371 28.5583C41.7758 28.1745 41.7353 27.7868 41.6183 27.4193C42.8557 26.893 44.1649 26.5547 45.5024 26.4157C46.9275 26.2751 48.3828 26.3554 49.0953 27.8007C49.1737 27.9619 49.2375 28.1299 49.286 28.3025C48.7043 28.783 48.2545 29.4036 47.9789 30.1059C47.7032 30.8082 47.6108 31.5691 47.7103 32.317C47.726 32.3687 47.753 32.4162 47.7895 32.456C47.8259 32.4959 47.8708 32.5271 47.9209 32.5473C47.9709 32.5675 48.0249 32.5763 48.0788 32.5729C48.1327 32.5695 48.1851 32.5541 48.2322 32.5278C48.9245 32.1383 49.4771 31.5413 49.812 30.8211C50.1469 30.1008 50.2473 29.2936 50.099 28.5132C51.1531 27.7036 52.4255 27.2282 53.7522 27.1483C54.3455 27.1103 54.9361 27.2555 55.4441 27.5642C55.9522 27.873 56.3531 28.3304 56.5925 28.8746C56.9114 29.4927 57.0472 30.1891 56.9839 30.8818C56.4797 31.4179 56.0873 32.0491 55.8297 32.7385C55.7495 32.9593 56.0204 33.1099 56.191 33.0195C56.6035 32.8259 56.9567 32.5257 57.2143 32.1499C57.4719 31.7741 57.6245 31.3363 57.6564 30.8818C58.0841 30.5203 58.5828 30.2522 59.1204 30.095C59.658 29.9377 60.2225 29.8946 60.7776 29.9685C61.5798 30.0266 62.3535 30.2897 63.0248 30.7325C63.6961 31.1754 64.2425 31.7832 64.6115 32.4977C64.695 32.7235 64.7458 32.9601 64.7621 33.2002C64.4163 33.2776 64.0798 33.392 63.7585 33.5415C63.0158 33.8927 61.8013 35.0569 62.3232 35.9803C62.8451 36.9036 64.1398 35.9803 64.5914 35.4684C65.0318 34.9789 65.3211 34.3724 65.4245 33.7221C66.4302 33.545 67.4641 33.6174 68.4354 33.9329C69.439 34.3243 70.3824 35.057 70.4426 35.8699C69.5795 36.4119 69.0878 37.0642 69.3286 37.6764C69.3421 37.7212 69.3655 37.7623 69.3971 37.7968C69.4286 37.8312 69.4675 37.8581 69.5109 37.8755C69.5543 37.8928 69.6011 37.9002 69.6477 37.897C69.6943 37.8938 69.7397 37.8802 69.7803 37.8571C70.1526 37.7065 70.4741 37.4527 70.707 37.1255C70.94 36.7984 71.0746 36.4115 71.095 36.0104C71.9755 35.663 72.8959 35.427 73.8349 35.3078C75.9727 35.1473 77.7892 35.9803 77.6588 38.3187C77.6588 38.7001 78.1807 38.67 78.2309 38.3187C78.8029 33.9529 73.7948 34.1637 71.0248 35.5086C70.7363 34.86 70.2872 34.2957 69.72 33.869C69.1528 33.4422 68.4861 33.1672 67.783 33.0697C67.0142 32.9588 66.2334 32.9588 65.4646 33.0697V33.0095C65.2237 31.1026 63.2365 29.838 61.4501 29.4868C60.7915 29.3367 60.1085 29.3299 59.447 29.4667C58.7856 29.6035 58.1612 29.8807 57.6162 30.2796C57.5485 29.389 57.1957 28.5439 56.61 27.8696C56.0242 27.1953 55.2368 26.7277 54.3644 26.5361C52.7679 26.4119 51.1798 26.8641 49.8882 27.8107C49.743 27.3858 49.5096 26.9963 49.2035 26.6677C48.8974 26.3391 48.5254 26.0788 48.1118 25.9038C46.6649 25.4884 45.1266 25.5164 43.6958 25.9841C42.8831 26.1676 42.0874 26.4194 41.3172 26.7368C41.2423 26.57 41.155 26.4089 41.0562 26.2551C38.9084 23.1438 34.0308 25.6429 32.2544 27.8709C32.0236 28.1419 32.4752 28.6136 32.7462 28.2824ZM64.4108 34.5451C64.1298 35.0168 62.8752 36.2011 63.0358 35.067C63.1462 34.3644 64.0394 33.973 64.7119 33.8024C64.6546 34.0653 64.5528 34.3165 64.4108 34.5451ZM69.8204 36.9839C69.8533 36.8486 69.9141 36.7216 69.9987 36.611C70.0834 36.5004 70.1901 36.4087 70.3122 36.3416C70.198 36.5896 70.03 36.809 69.8204 36.9839ZM48.3527 31.5844C48.3714 30.6433 48.7567 29.7466 49.4266 29.0853C49.4562 29.5569 49.3745 30.0289 49.1879 30.463C49.0013 30.8972 48.7152 31.2813 48.3527 31.5844ZM40.3938 29.7477C40.1229 29.9986 39.0089 30.7514 38.7881 30.1291C38.6475 29.7477 39.3601 28.9348 39.5508 28.724C39.9592 28.3126 40.4343 27.9733 40.9559 27.7204C41.0589 28.0772 41.061 28.4557 40.9618 28.8136C40.8625 29.1715 40.6659 29.4949 40.3938 29.7477Z" fill="#222221"/>
<path d="M27.7079 39.784C29.1531 37.1746 33.2881 34.6755 36.2488 36.3315C36.8693 36.7553 37.3648 37.3375 37.684 38.0176C36.9829 38.4589 36.4147 39.0821 36.04 39.8209C35.6652 40.5598 35.4981 41.3865 35.5563 42.2128C35.5761 42.2826 35.6183 42.3439 35.6763 42.3875C35.7343 42.431 35.805 42.4543 35.8775 42.4537C38.6174 42.7949 39.1895 40.3461 38.5372 38.2786C39.2511 37.8587 40.0267 37.5539 40.8355 37.3753C41.4645 37.1734 42.1411 37.1742 42.7696 37.3777C43.3982 37.5812 43.9468 37.9771 44.3381 38.5094C44.5714 38.85 44.7477 39.2263 44.86 39.6235C44.3277 40.0585 43.8904 40.5982 43.5754 41.2092C43.5459 41.2622 43.5306 41.322 43.5311 41.3827C43.5316 41.4433 43.5478 41.5029 43.5781 41.5554C43.6084 41.608 43.6519 41.6518 43.7042 41.6825C43.7565 41.7133 43.8158 41.7301 43.8764 41.7311C44.1158 41.76 44.3587 41.7333 44.586 41.653C44.8134 41.5726 45.0191 41.4409 45.1871 41.268C45.3552 41.095 45.481 40.8856 45.5549 40.6561C45.6287 40.4266 45.6485 40.1831 45.6128 39.9446C46.8824 39.0144 48.4538 38.592 50.0187 38.7603C50.6989 38.8457 51.3177 39.1963 51.7407 39.7357C52.1636 40.2752 52.3563 40.9599 52.2769 41.6408C51.7035 41.8406 51.2262 42.2488 50.9398 42.7843C50.6535 43.3197 50.579 43.9434 50.7313 44.5312C50.7455 44.5814 50.7711 44.6277 50.8061 44.6665C50.841 44.7053 50.8844 44.7356 50.9329 44.755C50.9813 44.7743 51.0336 44.7823 51.0856 44.7784C51.1377 44.7744 51.1881 44.7585 51.2331 44.7319C51.7333 44.4587 52.1626 44.0723 52.4868 43.6035C52.8109 43.1347 53.0208 42.5966 53.0998 42.0322C54.502 41.6186 55.985 41.56 57.4155 41.8616C57.9341 42.0759 58.4006 42.3992 58.7832 42.8096C59.1659 43.22 59.4559 43.7079 59.6335 44.2402C58.6593 44.8904 57.9644 45.8824 57.6864 47.0202C57.6728 47.0644 57.6682 47.1108 57.673 47.1568C57.6778 47.2028 57.6919 47.2473 57.7144 47.2877C57.737 47.328 57.7674 47.3634 57.804 47.3916C57.8406 47.4198 57.8825 47.4403 57.9273 47.4518C59.5432 47.793 60.9382 46.9801 60.7275 45.2237C60.7019 44.9644 60.6481 44.7086 60.5669 44.461C60.9263 44.2545 61.3064 44.0863 61.701 43.9592C62.0723 43.8129 62.4697 43.7445 62.8685 43.7583C63.2674 43.7721 63.6591 43.8678 64.0194 44.0394C64.9226 44.5413 65.8862 46.0467 64.7521 46.8797C64.4108 47.1106 64.7521 47.6626 65.0732 47.4317C65.4341 47.1981 65.6979 46.8415 65.8159 46.4281C66.4267 46.2071 67.0543 46.036 67.6927 45.9162C68.4354 45.7757 69.1881 45.8059 69.9308 45.6854C69.9615 45.674 69.988 45.6535 70.0067 45.6265C70.0255 45.5996 70.0355 45.5676 70.0355 45.5348C70.0355 45.5021 70.0255 45.4701 70.0067 45.4432C69.988 45.4163 69.9615 45.3957 69.9308 45.3843C69.1719 45.2539 68.3934 45.2951 67.6525 45.5047C67.0477 45.641 66.454 45.8222 65.8761 46.0467C65.82 45.3676 65.5466 44.7247 65.0965 44.2131C64.6463 43.7016 64.0435 43.3486 63.3771 43.2064C62.3316 43.0883 61.2759 43.31 60.3662 43.8387C59.9315 42.7852 59.1437 41.9159 58.1381 41.3798C56.5383 40.8242 54.8009 40.8066 53.1902 41.3296C53.1802 40.697 52.9935 40.0799 52.6512 39.5478C52.309 39.0158 51.8247 38.59 51.2532 38.3187C49.5871 37.5359 47.2387 38.0779 45.4923 39.2421C45.2849 38.6372 44.9334 38.0919 44.4684 37.653C44.0033 37.2142 43.4385 36.895 42.8226 36.7229C41.248 36.4855 39.6414 36.8433 38.3163 37.7266C38.1456 37.3662 37.9297 37.0289 37.674 36.7229C34.6631 33.2203 29.0728 36.5021 27.3968 39.7338C27.2362 39.8141 27.5975 40.0149 27.7079 39.784ZM51.2833 43.7986C51.2855 43.5209 51.3645 43.2492 51.5115 43.0137C51.6585 42.7781 51.8678 42.5878 52.1163 42.4637C51.9544 42.9712 51.668 43.4301 51.2833 43.7986ZM59.8543 46.0367C59.6235 46.6188 59.0615 46.7392 58.4894 46.7593C58.7672 46.039 59.2398 45.41 59.8543 44.9427C59.9648 45.299 59.9648 45.6804 59.8543 46.0367ZM37.3428 41.6207C37.096 41.7816 36.804 41.859 36.5098 41.8415C36.0883 41.7612 36.0983 41.8415 36.1485 41.2995C36.2509 40.5376 36.604 39.8314 37.1521 39.2922C37.3986 39.0379 37.6673 38.8062 37.955 38.5998C38.3464 39.784 38.3264 41.0285 37.3428 41.6207Z" fill="#222221"/>
<path d="M24.4561 49.7902C25.3996 47.8432 28.7216 46.3377 30.8192 47.0102C31.1201 47.0827 31.3992 47.2262 31.6332 47.4288C31.8672 47.6313 32.0492 47.887 32.164 48.1744C30.1568 48.8468 28.4807 50.1817 28.5309 52.3897C28.5334 52.5006 28.5787 52.6064 28.6572 52.6849C28.7357 52.7634 28.8414 52.8086 28.9524 52.8112C30.0037 52.721 30.9925 52.2735 31.754 51.5431C32.5155 50.8126 33.0038 49.8433 33.1376 48.7966C33.7525 48.6433 34.3813 48.5525 35.0144 48.5257C36.0927 48.4073 37.1807 48.6353 38.1208 49.1766C39.061 49.718 39.8043 50.5445 40.2433 51.5366C38.9486 52.4499 38.1156 53.6542 38.9285 55.0192C38.9652 55.0788 39.0204 55.1247 39.0856 55.1501C39.1508 55.1754 39.2226 55.1788 39.2899 55.1597C41.0964 54.7984 41.4477 53.3632 41.0362 51.8075C41.5216 51.5186 42.0282 51.267 42.5517 51.0548C43.756 50.553 45.1712 50.1315 46.3655 50.9043C46.8595 51.1992 47.2519 51.6377 47.4903 52.1612C47.7288 52.6848 47.8021 53.2686 47.7003 53.8349C47.1607 54.2649 46.7851 54.8672 46.6364 55.541C46.5862 55.792 46.8673 56.0931 47.1182 55.9124C47.7344 55.4767 48.1699 54.8305 48.3426 54.0958C49.5435 53.328 50.9321 52.9045 52.3571 52.8714C53.1169 52.8683 53.8654 53.0549 54.5349 53.4141C55.2043 53.7734 55.7736 54.294 56.191 54.9288C55.1874 55.7819 54.3443 56.9361 54.9867 57.8394C55.4383 58.4315 56.3315 58.0802 56.8032 57.7089C57.1107 57.4878 57.3326 57.1673 57.4313 56.8017C57.53 56.436 57.4996 56.0475 57.3452 55.7016C57.2858 55.5398 57.2153 55.3822 57.1345 55.2299C57.6247 54.8893 58.1981 54.688 58.7937 54.6473C59.3893 54.6067 59.9847 54.7283 60.5167 54.9991C61.4738 55.6341 62.1523 56.6105 62.4136 57.729C62.4349 57.8062 62.4859 57.8717 62.5556 57.9113C62.6252 57.9508 62.7077 57.961 62.7849 57.9397C62.8621 57.9185 62.9277 57.8674 62.9672 57.7977C63.0067 57.7281 63.017 57.6456 62.9957 57.5684C62.6344 55.0794 60.5468 53.2026 57.9173 53.8851C57.4702 54.0344 57.0499 54.2546 56.6728 54.5374C56.2613 53.9395 55.7323 53.4318 55.1179 53.0453C54.5036 52.6587 53.8169 52.4015 53.0998 52.2893C51.4787 52.1934 49.862 52.5404 48.4229 53.2929C48.4037 52.7956 48.2825 52.3075 48.0669 51.859C47.8512 51.4104 47.5457 51.0109 47.1693 50.6853C46.7929 50.3597 46.3536 50.1149 45.8787 49.9661C45.4037 49.8173 44.9033 49.7677 44.4084 49.8204C43.1517 50.042 41.9449 50.4873 40.8455 51.1351C40.5898 50.35 40.1476 49.6386 39.5568 49.0617C38.966 48.4849 38.2442 48.0599 37.4532 47.8231C35.9869 47.4992 34.4658 47.5163 33.0071 47.8733C32.8413 47.4273 32.5567 47.0351 32.1841 46.7392C29.7252 44.7319 25.0583 46.8596 23.9543 49.5092C23.8138 49.8705 24.3156 50.0813 24.4561 49.7902ZM56.5724 55.7217C56.7581 56.0211 56.8227 56.38 56.7531 56.7254C56.6728 56.9763 55.8297 57.6487 55.5788 57.3576C55.3279 57.0666 56.0706 56.2436 56.6125 55.7217H56.5724ZM40.4541 52.2592C40.5853 52.5771 40.622 52.9262 40.5597 53.2644C40.4974 53.6027 40.3387 53.9158 40.1028 54.1661C39.32 54.8485 39.039 54.3267 39.34 53.5338C39.5683 52.9953 39.9484 52.535 40.434 52.209C40.434 52.209 40.4942 52.2391 40.4942 52.2592H40.4541ZM32.164 49.0977C31.9961 49.7783 31.6472 50.4006 31.1542 50.8989C30.6612 51.3972 30.0426 51.7528 29.3639 51.928C29.6048 50.5028 30.8192 49.6096 32.2042 49.0977H32.164Z" fill="#222221"/>
<path d="M17.5611 60.7801C18.2938 58.843 23.0008 55.7619 24.5866 58.3111C24.8613 58.8169 25.0093 59.3816 25.0181 59.9571C23.2417 60.8102 21.7965 62.2855 21.676 63.9716C21.6761 64.0659 21.7064 64.1577 21.7623 64.2335C21.8183 64.3094 21.8971 64.3653 21.9871 64.3931C24.3256 64.9351 25.6805 62.7572 25.8411 60.5794C26.7567 60.2338 27.7344 60.0834 28.7115 60.1378C29.2718 60.2014 29.8022 60.4243 30.2397 60.7801C30.6773 61.1358 31.0038 61.6095 31.1805 62.145C31.235 62.2658 31.2819 62.3898 31.321 62.5164C30.7151 63.0632 30.2561 63.7534 29.9861 64.5236C29.9578 64.638 29.9742 64.7588 30.032 64.8614C30.0899 64.964 30.1848 65.0407 30.2973 65.0756C31.6221 65.447 32.4752 64.634 32.3748 63.2891C32.364 63.1342 32.3439 62.98 32.3146 62.8275C34.2215 61.3923 37.3327 60.9607 39.1995 61.9343C40.0554 62.4796 40.6833 63.318 40.9659 64.2928C40.2317 64.5574 39.6026 65.0521 39.1722 65.7031C38.7418 66.3541 38.5332 67.1267 38.5772 67.9059C38.5772 68.0765 38.7077 68.3073 38.8984 68.3274C41.4978 68.6787 42.3308 66.7818 42.0297 64.8046C44.5388 64.1724 48.172 65.1057 49.4767 66.571C49.7878 66.9123 50.4001 66.4606 50.1291 66.0692C48.7039 64.062 44.7295 63.1687 41.8391 63.9817C41.5561 63.0303 41.0056 62.1802 40.2533 61.5328C38.1657 59.8768 34.4523 60.2983 32.0637 61.9543C31.6973 60.9666 30.9837 60.146 30.0564 59.646C28.6894 59.0876 27.158 59.0876 25.791 59.646C25.7392 59.0391 25.5578 58.4505 25.259 57.9197C23.312 54.6981 17.9024 58.0301 17.1296 60.6697C16.979 60.9507 17.4106 61.051 17.5611 60.7801ZM22.5793 63.6304C22.7508 63.0439 23.0505 62.5029 23.4566 62.0465C23.8628 61.59 24.3653 61.2294 24.9278 60.9908C24.5866 62.406 23.8439 63.7006 22.5091 63.6304H22.5793ZM39.4705 67.4643C39.4981 66.9529 39.6689 66.4597 39.9635 66.0409C40.2582 65.622 40.6646 65.2945 41.1365 65.0957C41.2469 66.3302 40.8254 67.4241 39.4002 67.4643H39.4705ZM31.0399 64.2225C31.1627 63.9957 31.3109 63.7836 31.4815 63.5903C31.4885 63.74 31.4401 63.8872 31.3458 64.0037C31.2515 64.1203 31.1176 64.1981 30.9697 64.2225H31.0399Z" fill="#222221"/>
<path d="M92.2516 43.7685C94.4495 41.972 98.6949 40.0249 101.505 41.3999C101.942 41.667 102.309 42.0353 102.575 42.4736C102.84 42.912 102.996 43.4077 103.031 43.919C101.515 44.4911 100.391 45.4847 100.612 47.1106C100.612 47.1993 100.646 47.2846 100.708 47.3484C100.77 47.4121 100.854 47.4492 100.943 47.4518C102.81 47.5522 103.663 46.0367 103.703 44.4409C105.01 44.086 106.368 43.9604 107.718 44.0695C108.93 44.2584 110.028 44.8917 110.799 45.846C111.521 46.5301 112.03 47.4085 112.264 48.3751C111.839 48.7677 111.528 49.2667 111.361 49.8204C111.342 49.8887 111.344 49.961 111.367 50.0282C111.389 50.0954 111.43 50.1546 111.486 50.1985C111.541 50.2423 111.609 50.2688 111.679 50.2748C111.75 50.2807 111.821 50.2658 111.883 50.2319C112.222 50.1082 112.515 49.8848 112.725 49.591C112.935 49.2972 113.05 48.9468 113.057 48.5859C113.763 48.0361 114.539 47.5838 115.365 47.241C116.55 46.6991 118.587 45.856 119.872 46.4984C120.611 46.9556 121.155 47.6708 121.397 48.5056C120.153 49.4591 119.45 50.7638 120.394 52.2492C120.423 52.3003 120.468 52.34 120.523 52.3618C120.578 52.3837 120.638 52.3864 120.695 52.3696C122.331 51.938 122.702 50.272 122.27 48.7063C124.358 47.3715 127.941 46.5887 128.292 49.5795C128.378 50.3553 128.306 51.1405 128.081 51.8879C128.031 52.0484 127.971 52.209 127.911 52.3696C127.391 52.7399 126.961 53.2239 126.656 53.7847C126.656 53.8449 126.656 53.9253 126.736 53.9052C127.45 53.6388 128.044 53.1262 128.413 52.4599C128.972 52.1754 129.566 51.9629 130.179 51.8276C132.949 51.2054 136.672 52.0183 136.572 55.4608C136.572 55.8522 137.214 55.9626 137.285 55.5612C137.977 51.0247 132.176 50.0612 128.714 51.8678C129.527 49.8605 128.914 47.0604 126.465 46.8496C124.921 46.8433 123.406 47.2673 122.09 48.074C121.928 47.5711 121.668 47.1057 121.323 46.7056C120.978 46.3056 120.556 45.9791 120.082 45.7456C118.597 45.1836 116.62 45.9463 115.265 46.5485C114.482 46.8825 113.735 47.2962 113.037 47.783C112.62 46.7847 112.002 45.8828 111.222 45.1335C110.441 44.3842 109.515 43.8034 108.5 43.4272C106.912 43.1881 105.292 43.2838 103.743 43.7083C103.651 42.8668 103.3 42.0745 102.74 41.44C101.505 40.1453 99.3975 40.2457 97.7816 40.5568C95.6217 40.9929 93.6 41.9469 91.8903 43.3369C91.529 43.5878 91.9605 44.0093 92.2516 43.7685ZM127.539 52.9919C127.409 53.1826 126.867 53.6041 126.847 53.7044C126.897 53.4435 127.228 53.1625 127.569 52.9216L127.539 52.9919ZM121.738 50.2519C121.738 50.5731 121.277 52.1388 120.735 51.7774C120.193 51.4161 120.905 49.9007 121.216 49.5494C121.347 49.409 121.488 49.2782 121.638 49.158C121.713 49.5176 121.747 49.8846 121.738 50.2519ZM101.274 46.7593C101.319 46.2684 101.514 45.8032 101.831 45.4263C102.149 45.0494 102.575 44.779 103.051 44.6517C103.08 45.1634 102.912 45.6667 102.581 46.0586C102.251 46.4505 101.783 46.7012 101.274 46.7593Z" fill="#222221"/>
<path d="M88.0263 55.6013C89.9533 53.9854 93.4259 54.1159 94.9213 56.2938C95.0432 56.4759 95.1442 56.6712 95.2224 56.8759C94.55 57.1722 93.9431 57.5989 93.4366 58.1312C92.9302 58.6635 92.5342 59.2909 92.2717 59.9771C92.2469 60.0756 92.2613 60.1798 92.3118 60.2678C92.3624 60.3558 92.4452 60.4207 92.5427 60.4488C93.6768 60.6496 94.9012 60.6496 95.6338 59.5957C96.0357 58.968 96.1795 58.2093 96.0353 57.4781C97.32 56.9067 98.7479 56.7387 100.13 56.9963C101.592 57.5329 102.792 58.6108 103.482 60.0072C103.683 59.7664 103.894 59.5255 104.115 59.3047C103.484 58.0343 102.483 56.9846 101.244 56.2938C99.4541 55.6819 97.4981 55.7752 95.7744 56.5547C95.7536 56.492 95.7267 56.4315 95.6941 56.3741C94.2689 53.5238 89.9834 53.3632 87.7854 55.2902C87.6248 55.521 87.8658 55.7418 88.0263 55.6013ZM93.2452 59.8366C93.7887 58.9933 94.5383 58.3024 95.4231 57.8293C95.4553 58.116 95.4195 58.4061 95.3186 58.6763C95.2178 58.9466 95.0547 59.1892 94.8427 59.3847C94.6306 59.5802 94.3754 59.7229 94.0979 59.8014C93.8204 59.88 93.5282 59.892 93.2452 59.8366Z" fill="#222221"/>
<path d="M17.4909 20.6046C18.6139 21.1133 19.763 21.5622 20.9334 21.9494C21.044 21.9912 21.1621 22.0096 21.2802 22.0034C21.3982 21.9971 21.5137 21.9664 21.6192 21.9131C21.7248 21.8599 21.8181 21.7853 21.8933 21.6941C21.9685 21.6028 22.0239 21.497 22.056 21.3832C22.0882 21.2694 22.0963 21.1501 22.0799 21.0331C22.0635 20.916 22.0229 20.8036 21.9607 20.703C21.8986 20.6024 21.8162 20.5159 21.7188 20.4488C21.6214 20.3818 21.5112 20.3357 21.3951 20.3135C20.2409 19.9221 19.1269 19.4002 17.9627 19.0389C17.4056 18.8558 16.8395 18.7017 16.2665 18.5772C15.6594 18.422 15.0257 18.4014 14.4098 18.517C14.3344 18.5417 14.2676 18.5872 14.2169 18.6482C14.1662 18.7092 14.1337 18.7833 14.1233 18.8619C14.1128 18.9405 14.1247 19.0205 14.1576 19.0926C14.1906 19.1648 14.2432 19.2262 14.3094 19.2697C15.3457 19.7703 16.4077 20.2158 17.4909 20.6046Z" fill="#222221"/>
<path d="M22.479 11.6622C22.5066 11.7104 22.53 11.7607 22.5492 11.8128V11.883V12.0035C22.5764 12.067 22.61 12.1275 22.6496 12.1841L22.8202 12.4551C22.8202 12.5354 22.9106 12.6157 22.9607 12.696L23.021 12.8264C22.9407 12.6658 23.021 12.8264 23.021 12.8264C23.1213 13.0673 23.2317 13.2982 23.3421 13.539L23.4626 13.81V13.8903C23.5429 14.091 23.6231 14.2917 23.6833 14.4925C23.8165 14.913 23.9205 15.3422 23.9945 15.7771C24.0269 15.896 24.0827 16.0073 24.1584 16.1046C24.2341 16.2019 24.3283 16.2832 24.4356 16.3438C24.5429 16.4045 24.6612 16.4433 24.7836 16.458C24.906 16.4727 25.03 16.463 25.1487 16.4295C25.381 16.3512 25.5766 16.1906 25.6986 15.978C25.8207 15.7653 25.8606 15.5154 25.811 15.2753C25.6332 14.3333 25.3153 13.4233 24.8677 12.5755C24.6313 12.1689 24.352 11.7887 24.0346 11.4414C23.7348 11.1012 23.3696 10.8247 22.9607 10.6285C22.8569 10.5754 22.7388 10.5566 22.6236 10.5748C22.5083 10.593 22.4018 10.6472 22.3193 10.7297C22.2368 10.8122 22.1826 10.9187 22.1644 11.034C22.1462 11.1492 22.165 11.2673 22.2181 11.3712L22.479 11.6622Z" fill="#222221"/>
<path d="M124.709 27.7806C124.709 27.7806 112.154 42.8351 111.843 43.5577C110.864 44.8055 109.572 45.7717 108.099 46.3579C106.955 46.669 105.299 47.0905 105.299 47.0905C105.299 47.0905 104.988 56.4344 104.155 58.2008C103.743 59.032 103.407 59.8986 103.151 60.7901C103.151 60.7901 108.651 57.0566 111.552 56.5347C113.557 56.1473 115.536 55.6276 117.473 54.9791C117.473 54.9791 116.018 50.5129 117.262 49.0577C118.507 47.6024 131.494 31.3034 131.494 31.3034C131.494 31.3034 128.061 30.1693 126.817 28.9147C125.572 27.6602 125.472 27.048 125.472 27.048L124.709 27.7806Z" fill="#F4AD7C"/>
<path d="M152.911 5.89132C152.843 5.05847 152.571 4.25524 152.118 3.55285C150.513 1.07388 147.1 -0.843068 144.17 0.381365C141.831 1.385 140.055 3.87401 138.64 5.90135C137.224 7.92869 135.769 10.2772 134.304 12.435C132.236 15.4459 130.209 18.5572 128.172 21.6283C127.319 22.933 126.466 24.2679 125.663 25.6428C125.605 25.6247 125.544 25.6195 125.485 25.6274C125.425 25.6354 125.368 25.6564 125.317 25.689C125.266 25.7215 125.223 25.7648 125.191 25.8158C125.159 25.8668 125.138 25.9243 125.131 25.9841C125.086 26.2087 125.066 26.4375 125.07 26.6665C124.571 26.9308 124.144 27.3132 123.826 27.7806C123.204 28.5333 122.642 29.3362 121.999 30.0789C120.514 31.8051 119.069 33.5615 117.634 35.3279C116.379 36.8835 115.114 38.4191 113.79 39.9245C112.663 40.9757 111.752 42.2372 111.11 43.638C111.013 43.6682 110.929 43.7326 110.876 43.8193C110.822 43.906 110.802 44.0092 110.819 44.1097C109.183 45.284 107.005 45.575 105.118 46.117C104.965 46.1605 104.831 46.2526 104.735 46.3793C104.639 46.5061 104.587 46.6605 104.586 46.8195C104.786 49.4315 104.688 52.0578 104.295 54.6479C104.106 55.8653 103.769 57.0551 103.292 58.1907C103.083 58.715 102.905 59.2512 102.76 59.7965C102.609 60.3686 102.569 60.9808 102.388 61.5428C102.376 61.6066 102.384 61.6725 102.412 61.7314C102.439 61.7903 102.484 61.8393 102.54 61.8713C102.597 61.9034 102.662 61.917 102.726 61.9103C102.791 61.9036 102.852 61.8769 102.9 61.8339C104.506 59.937 106.915 58.9334 109.113 58.0201C111.709 56.8155 114.506 56.1042 117.363 55.9225C117.456 55.9225 117.549 55.904 117.635 55.8682C117.722 55.8324 117.8 55.7799 117.866 55.7138C117.933 55.6476 117.985 55.569 118.021 55.4826C118.057 55.3961 118.075 55.3035 118.075 55.2099C117.975 54.136 117.784 53.0822 117.744 52.0083C117.763 51.1578 117.881 50.3124 118.095 49.4892C118.73 49.1844 119.277 48.7212 119.681 48.1443C120.474 47.1407 121.247 46.137 122.06 45.1334C123.695 43.1261 125.291 41.0586 126.877 38.9912C128.332 37.0843 129.888 35.2576 131.293 33.2905C131.712 32.8163 132.051 32.2774 132.297 31.6948C132.746 31.5379 133.159 31.2921 133.511 30.9721C134.103 30.4502 134.515 29.7878 135.117 29.2559C135.87 28.5333 136.682 27.8709 137.435 27.1382C140.446 24.1273 143.126 20.7852 146.006 17.6338C148.029 15.6438 149.854 13.4624 151.456 11.1202C152.027 10.2075 152.463 9.21709 152.751 8.1796C152.947 8.54329 153.082 8.93652 153.152 9.34382C153.317 10.5132 153.249 11.7036 152.951 12.8465C152.146 15.2943 150.801 17.5304 149.017 19.3902C147.341 21.3272 145.695 23.2642 143.909 25.1009C142.122 26.9375 139.894 28.6638 138.891 30.932C138.822 31.0611 138.796 31.2089 138.818 31.3536C138.839 31.4983 138.907 31.6323 139.01 31.7357C139.114 31.8392 139.247 31.9066 139.392 31.9282C139.537 31.9497 139.685 31.9242 139.814 31.8553C141.068 31.0496 142.22 30.096 143.246 29.015C144.34 28.0114 145.394 26.9375 146.438 25.8837C148.458 23.7323 150.251 21.378 151.787 18.8583C153.358 16.6898 154.39 14.1784 154.798 11.5317C154.939 9.73523 154.818 6.61394 152.911 5.89132ZM108.44 56.8257C107.341 57.3285 106.283 57.9192 105.279 58.5921C106.062 57.5885 106.834 56.5849 107.607 55.5812C108.38 54.5776 109.183 53.4937 109.976 52.4599L110.879 51.2857C111.11 50.9946 111.421 50.6735 111.341 50.282C111.327 50.2307 111.298 50.1852 111.256 50.1526C111.214 50.1199 111.163 50.1019 111.11 50.1014C110.708 50.1014 110.458 50.5129 110.237 50.7939L109.344 51.9681C108.561 52.9718 107.798 54.0557 107.025 55.0995C106.473 55.8321 105.921 56.5548 105.379 57.2874C105.591 56.605 105.749 55.907 105.851 55.1998C106.212 52.6606 105.59 50.0613 105.941 47.5321C107.863 47.3988 109.675 46.5838 111.05 45.2338C111.51 46.579 112.417 47.7264 113.619 48.4855C114.515 49.1122 115.547 49.518 116.63 49.6698C116.511 50.3322 116.454 51.0042 116.459 51.6771C116.429 52.6289 116.469 53.5816 116.58 54.5274C113.751 54.7994 110.994 55.5779 108.44 56.8257ZM125.944 36.753C124.428 38.7603 122.933 40.6773 121.538 42.7748L119.089 46.3879C118.426 47.3414 117.884 48.5558 116.54 48.3049C115.472 48.1097 114.478 47.6259 113.666 46.9057C112.854 46.1856 112.254 45.2568 111.933 44.2201C112.375 43.6882 112.726 43.0759 113.167 42.554C113.78 41.8415 114.432 41.1791 115.094 40.5468C116.452 39.1936 117.742 37.7734 118.958 36.2914C120.353 34.6354 121.768 32.9995 123.184 31.3635C123.786 30.661 124.328 29.8982 124.91 29.1756C125.111 28.9347 125.351 28.7039 125.582 28.4731C126.624 29.9615 128.115 31.0766 129.838 31.6546L130.048 31.7148C128.593 33.2303 127.278 35.0067 125.954 36.7229L125.944 36.753ZM150.713 7.31648C150.201 9.7252 148.355 11.8228 146.749 13.5892C144.742 15.7871 142.734 17.955 140.878 20.2633C139.613 21.819 138.409 23.4148 137.154 24.9704C136.048 26.5146 134.809 27.9587 133.451 29.286C132.962 29.8239 132.348 30.2339 131.664 30.4803C130.812 30.5342 129.966 30.2971 129.266 29.8079C128.021 29.2383 127 28.271 126.365 27.058C128.684 24.1274 130.641 20.8655 132.678 17.8045C135.257 13.9304 137.887 10.1668 140.707 6.50354C141.982 4.86761 143.718 2.0173 146.117 2.14777C148.706 2.25817 151.265 4.66689 150.713 7.28637V7.31648Z" fill="#222221"/>
</g>
<defs>
<clipPath id="clip0_330_10494">
<rect width="155.122" height="116" fill="white" transform="translate(0.439178)"/>
</clipPath>
</defs>
</svg>
