<svg width="146" height="116" viewBox="0 0 146 116" fill="none" xmlns="http://www.w3.org/2000/svg">
<g clip-path="url(#clip0_330_10699)">
<path d="M23.9752 15.6617H37.1752V17.6117H26.1052V24.9317H35.5852V26.8517H26.1052V35.2517H37.3252V37.1717H23.9752V15.6617ZM52.7754 33.7517C52.2754 34.8917 51.5454 35.8017 50.5854 36.4817C49.6454 37.1417 48.4854 37.4717 47.1054 37.4717C46.1254 37.4717 45.2054 37.3017 44.3454 36.9617C43.4854 36.6217 42.7254 36.1117 42.0654 35.4317C41.4254 34.7517 40.9154 33.9117 40.5354 32.9117C40.1754 31.8917 39.9954 30.7117 39.9954 29.3717C39.9954 28.0317 40.1854 26.8617 40.5654 25.8617C40.9454 24.8617 41.4554 24.0217 42.0954 23.3417C42.7354 22.6617 43.4854 22.1517 44.3454 21.8117C45.2254 21.4717 46.1554 21.3017 47.1354 21.3017C48.4354 21.3017 49.5554 21.5917 50.4954 22.1717C51.4554 22.7517 52.1954 23.5817 52.7154 24.6617V15.6617H54.6954V37.1717H52.9254L52.7754 33.7517ZM47.3454 35.7017C48.1054 35.7017 48.8154 35.5717 49.4754 35.3117C50.1354 35.0317 50.7054 34.6317 51.1854 34.1117C51.6654 33.5717 52.0454 32.9117 52.3254 32.1317C52.6054 31.3317 52.7454 30.4117 52.7454 29.3717C52.7454 28.3317 52.6054 27.4217 52.3254 26.6417C52.0454 25.8417 51.6654 25.1817 51.1854 24.6617C50.7054 24.1217 50.1354 23.7217 49.4754 23.4617C48.8154 23.2017 48.1054 23.0717 47.3454 23.0717C46.5654 23.0717 45.8454 23.2117 45.1854 23.4917C44.5454 23.7517 43.9854 24.1517 43.5054 24.6917C43.0454 25.2117 42.6754 25.8717 42.3954 26.6717C42.1354 27.4517 42.0054 28.3517 42.0054 29.3717C42.0054 30.4117 42.1354 31.3317 42.3954 32.1317C42.6754 32.9117 43.0454 33.5717 43.5054 34.1117C43.9854 34.6317 44.5454 35.0317 45.1854 35.3117C45.8454 35.5717 46.5654 35.7017 47.3454 35.7017ZM66.9188 17.6417V37.1717H64.7588V17.6417H57.7088V15.6617H73.9688V17.6417H66.9188ZM87.2984 35.8517C87.1184 36.0117 86.8584 36.1817 86.5184 36.3617C86.1984 36.5417 85.8084 36.7217 85.3484 36.9017C84.9084 37.0617 84.3984 37.1917 83.8184 37.2917C83.2384 37.4117 82.5984 37.4717 81.8984 37.4717C79.3784 37.4717 77.4384 36.7617 76.0784 35.3417C74.7184 33.9217 74.0384 31.9317 74.0384 29.3717C74.0384 28.1117 74.2184 26.9817 74.5784 25.9817C74.9584 24.9817 75.4784 24.1417 76.1384 23.4617C76.7984 22.7617 77.5684 22.2317 78.4484 21.8717C79.3484 21.4917 80.3084 21.3017 81.3284 21.3017C82.3884 21.3017 83.3484 21.4817 84.2084 21.8417C85.0684 22.2017 85.7784 22.7417 86.3384 23.4617C86.9184 24.1617 87.3184 25.0417 87.5384 26.1017C87.7584 27.1617 87.7684 28.3917 87.5684 29.7917H76.0484C76.1284 31.7317 76.6784 33.2017 77.6984 34.2017C78.7184 35.2017 80.1684 35.7017 82.0484 35.7017C83.2484 35.7017 84.2984 35.5217 85.1984 35.1617C86.1184 34.8017 86.8184 34.4317 87.2984 34.0517V35.8517ZM81.2984 23.0717C79.9784 23.0717 78.8384 23.4917 77.8784 24.3317C76.9384 25.1717 76.3584 26.4317 76.1384 28.1117H85.7384C85.7984 27.2517 85.7184 26.5117 85.4984 25.8917C85.2784 25.2517 84.9684 24.7217 84.5684 24.3017C84.1684 23.8817 83.6884 23.5717 83.1284 23.3717C82.5684 23.1717 81.9584 23.0717 81.2984 23.0717ZM97.8338 37.4717C96.6538 37.4717 95.5838 37.2917 94.6238 36.9317C93.6838 36.5517 92.8738 36.0217 92.1938 35.3417C91.5138 34.6417 90.9838 33.7917 90.6038 32.7917C90.2438 31.7917 90.0638 30.6517 90.0638 29.3717C90.0638 28.1117 90.2438 26.9817 90.6038 25.9817C90.9838 24.9817 91.5138 24.1417 92.1938 23.4617C92.8938 22.7617 93.7238 22.2317 94.6838 21.8717C95.6638 21.4917 96.7538 21.3017 97.9538 21.3017C98.8338 21.3017 99.6838 21.4017 100.504 21.6017C101.344 21.8017 102.024 22.0817 102.544 22.4417V24.2117C101.904 23.8117 101.174 23.5217 100.354 23.3417C99.5338 23.1617 98.7438 23.0717 97.9838 23.0717C96.0438 23.0717 94.5738 23.6117 93.5738 24.6917C92.5738 25.7517 92.0738 27.3117 92.0738 29.3717C92.0738 31.4317 92.5638 33.0017 93.5438 34.0817C94.5438 35.1617 95.9738 35.7017 97.8338 35.7017C98.7338 35.7017 99.5838 35.5917 100.384 35.3717C101.184 35.1517 101.904 34.8617 102.544 34.5017V36.2717C102.004 36.6117 101.354 36.9017 100.594 37.1417C99.8338 37.3617 98.9138 37.4717 97.8338 37.4717ZM113.376 23.0717C112.656 23.0717 112.016 23.1717 111.456 23.3717C110.916 23.5517 110.436 23.8017 110.016 24.1217C109.596 24.4417 109.226 24.8217 108.906 25.2617C108.606 25.7017 108.336 26.1617 108.096 26.6417V37.1717H106.116V15.6617H108.096V21.7217L108.066 24.7517H108.126C108.326 24.2917 108.586 23.8517 108.906 23.4317C109.246 23.0117 109.646 22.6517 110.106 22.3517C110.586 22.0317 111.126 21.7817 111.726 21.6017C112.346 21.4017 113.046 21.3017 113.826 21.3017C115.406 21.3017 116.656 21.7217 117.576 22.5617C118.516 23.3817 118.986 24.6117 118.986 26.2517V37.1717H117.006V26.4317C117.006 25.1917 116.676 24.3217 116.016 23.8217C115.356 23.3217 114.476 23.0717 113.376 23.0717Z" fill="#F4AD7C"/>
<path d="M54.327 108.767C53.5571 109.287 52.8962 109.634 52.3477 110.127C51.4913 110.881 50.5173 111.11 49.5449 110.647C48.3563 110.07 47.221 109.389 46.1522 108.611C45.2698 107.981 44.8892 106.983 44.7854 105.904C44.7162 105.196 44.41 105.056 43.8148 105.424C43.4965 105.62 43.1522 105.77 42.82 105.944C41.9757 106.377 41.1781 106.325 40.3754 105.796C38.0172 104.244 36.275 102.266 35.8183 99.3629C35.7782 99.1661 35.7203 98.9734 35.6453 98.7872C35.237 97.66 35.2612 97.7814 34.0882 98.0294C32.8824 98.283 31.6494 98.3826 30.4186 98.3259C29.4031 98.2791 28.5951 97.6184 28.1055 96.6958C27.4134 95.3831 26.9429 93.9923 26.9532 92.4802C26.9688 90.4253 26.9826 88.3721 27.7664 86.4212C28.0155 85.8021 27.7941 85.3807 27.2058 85.079C25.1608 84.0247 23.1222 82.957 21.0899 81.8761C20.6228 81.6298 20.3529 81.6836 20.1851 82.2229C19.8062 83.4368 19.3909 84.6351 19.0069 85.8437C18.5968 87.1426 18.3979 87.231 17.0847 86.8755C14.4774 86.1524 11.8684 85.438 9.2508 84.753C7.05356 84.179 4.81308 83.7524 2.65217 83.0709C0.726568 82.4639 0.524149 82.3287 1.5847 80.3969C2.41515 78.8813 2.7283 77.083 3.28885 75.4165C5.4238 69.0696 7.64179 62.7575 9.66602 56.3724C10.5536 53.5753 11.0812 50.662 11.711 47.7886C12.2421 45.3608 12.7664 42.9331 13.1435 40.4897C13.4446 38.5336 13.5224 36.5428 13.6972 34.5659C13.7491 33.9729 14.2318 33.6989 15.019 33.8948C15.8062 34.0908 16.5639 34.3561 17.346 34.5503C20.4152 35.3116 23.4982 36.0261 26.557 36.8272C27.5242 37.0804 28.4463 37.5209 29.3667 37.9249C30.0415 38.2215 30.4204 38.6775 30.1055 39.5082C29.8785 40.1627 29.701 40.8334 29.5743 41.5145C29.4221 42.2255 29.673 42.7943 30.3667 43.0562C32.628 43.9111 34.865 44.8198 37.173 45.5464C38.5259 45.9747 39.8148 45.5741 40.9688 44.6516C45.1366 41.3203 49.3546 38.0515 54.0086 35.4053C59.1678 32.4729 64.6989 30.8341 70.609 30.1925C78.9239 29.2908 86.3183 31.6249 93.2318 36.0209C96.2422 37.9284 99.4412 39.4232 102.936 40.2209C105.47 40.801 108.083 40.9499 110.666 40.6614C110.952 40.6262 111.233 40.5593 111.503 40.4619C112.727 40.0388 112.829 39.6954 111.995 38.7486C111.585 38.2821 111.258 37.7168 111.63 37.1879C111.783 36.9954 111.975 36.8372 112.193 36.7237C112.411 36.6102 112.651 36.5438 112.896 36.529C118.317 36.607 123.426 35.1209 128.514 33.5064C129.806 33.0971 130.279 33.2445 130.675 34.5469C131.407 36.9451 131.971 39.4024 132.696 41.7972C134.479 47.7088 136.329 53.5892 138.118 59.5077C139.292 63.4025 140.292 67.3529 141.538 71.2234C142.429 73.998 143.595 76.6737 144.652 79.3894C145.445 81.4391 145.223 81.8796 143.095 82.2576C139.412 82.9096 135.721 83.5304 132.038 84.1842C131.561 84.2934 131.092 84.4365 130.635 84.6125C128.715 85.2489 127.63 84.4929 127.467 82.4796C127.348 81.016 127.152 79.5576 126.948 78.1026C126.787 76.9945 126.645 76.9235 125.609 77.2234C121.988 78.2743 118.36 79.3044 114.753 80.3934C113.481 80.7767 113.369 81.0628 113.657 82.3512C113.979 83.7576 113.606 84.994 112.77 86.1004C110.827 88.6738 108.394 90.2206 105.007 89.8946C103.254 89.7212 103.301 89.8027 103.415 91.4918C103.657 95.0432 102.419 98.5565 99.1003 100.147C97.5017 100.913 95.9723 100.7 94.3945 100.249C93.9239 100.116 93.4464 100.006 92.9792 99.8623C92.2751 99.6456 92.0398 99.9681 91.9913 100.627C91.9083 101.744 91.891 102.881 91.6557 103.967C91.3304 105.464 90.3806 106.62 89.1592 107.501C87.6176 108.613 85.9844 108.172 84.3668 107.645C83.9221 107.501 83.4585 107.414 83.0034 107.298C82.9663 107.742 82.9594 108.187 82.9827 108.632C83.2439 110.789 82.654 112.712 81.3477 114.396C80.109 115.991 78.3875 115.835 76.6764 115.49C73.7854 114.908 71.365 113.326 68.9325 111.774C68.0675 111.216 67.1903 110.649 66.3148 110.088C65.7751 109.742 65.5294 109.839 65.2768 110.51C64.8115 111.809 64.2168 113.058 63.5017 114.238C62.365 116.024 60.1315 116.493 58.2266 115.436C56.1885 114.309 54.6418 112.811 54.6747 110.234C54.6539 109.818 54.4723 109.4 54.327 108.767ZM37.4394 91.1709L37.6851 91.2368C38.0311 90.6993 38.3598 90.1426 38.7404 89.6276C39.8598 88.1172 41.3356 87.2726 43.2387 87.7027C45.0917 88.1224 46.5899 89.0553 47.0571 91.1276C47.5 93.0975 47.7699 93.1825 49.4792 92.0709C51.5553 90.7114 53.6487 91.0218 55.2456 92.9293C56.3996 94.3166 56.9273 95.9242 57.0761 97.6964C57.1989 99.1687 57.7993 99.5918 59.1868 99.245C61.4083 98.6901 63.4515 99.5918 64.4619 101.652C65.1211 102.991 65.4861 104.427 65.3443 105.927C65.2283 107.14 65.7232 107.976 66.7283 108.588C68.8443 109.879 70.9014 111.278 73.083 112.443C74.3823 113.137 75.8512 113.558 77.282 113.936C78.3425 114.216 79.3979 114.023 80.192 113.087C81.5761 111.455 81.7059 108.259 80.3045 106.632C79.4357 105.595 78.4486 104.664 77.3633 103.858C74.2335 101.603 71.3962 98.9242 67.8218 97.3184C67.0986 96.9924 67.0449 96.1045 67.711 95.8374C68.0449 95.7022 68.5761 95.7889 68.91 95.9762C69.7538 96.4737 70.5704 97.0161 71.3564 97.601C74.9688 100.181 78.4169 103.011 82.41 105.007C83.6393 105.62 84.9335 106.091 86.2681 106.412C87.3547 106.672 88.3443 106.227 89.0796 105.288C91.2387 102.559 90.6367 98.8947 87.647 96.845C83.677 94.1224 79.7041 91.4056 75.7283 88.6946C75.4913 88.5334 75.1903 88.3981 75.0536 88.1744C74.8979 87.916 74.7353 87.4235 74.8581 87.2865C74.986 87.1724 75.1367 87.087 75.3003 87.0362C75.4638 86.9853 75.6363 86.9702 75.8062 86.9917C76.1522 87.0455 76.4723 87.3125 76.782 87.512C81.3771 90.5987 85.9412 93.7322 90.5761 96.7565C91.8139 97.5885 93.1774 98.2151 94.6142 98.612C97.7145 99.4028 100.519 97.7866 101.583 94.8455C102.621 91.9808 101.481 89.168 98.6661 87.6091C98.0363 87.2622 97.4394 86.8547 96.8218 86.4819C92.2889 83.7524 88.3443 80.0778 83.3131 78.1408C82.6938 77.9015 82.5726 77.3518 82.8893 76.7726C83.2197 76.1674 83.7301 76.2298 84.2214 76.5367C86.9308 78.2344 89.7007 79.8472 92.3183 81.6801C95.3927 83.8322 98.3962 86.0674 101.898 87.5016C105.078 88.8056 108.047 88.6513 110.63 86.1646C111.721 85.1137 112.512 83.7524 111.853 82.2784C111.036 80.4506 110.085 78.5986 108.815 77.076C104.517 71.924 99.5236 67.3973 93.9792 63.6263C87.1741 58.9696 80.3275 54.3788 73.4394 49.8539C69.7664 47.4261 65.9014 46.8521 61.7231 48.7753C55.9204 51.4476 50.0346 53.9447 44.1816 56.5094C41.7595 57.5672 39.3287 57.562 36.8633 56.6603C35.4082 56.1279 34.4013 55.1794 33.9844 53.6742C33.7837 52.9528 33.6591 52.2106 33.5242 51.4718C33.3512 50.4799 33.7301 49.7377 34.5415 49.1655C35.087 48.7874 35.6222 48.3967 36.147 47.9932C36.5813 47.6602 36.5484 47.3186 36.0916 47.0342C35.8283 46.8582 35.5477 46.7095 35.2543 46.5903C33.6038 45.9886 31.9532 45.392 30.2923 44.8215C29.5691 44.5735 29.3183 45.0175 29.1937 45.6487C28.8166 47.5735 28.455 49.5036 28.0242 51.4181C27.1314 55.3857 26.2508 59.3586 25.2698 63.3054C23.9947 68.4297 22.6262 73.5367 21.2993 78.642C21.0709 79.5246 21.256 80.2235 22.1228 80.6813C23.2439 81.2709 24.3875 81.8345 25.4463 82.5264C27.4913 83.8634 29.4671 84.4564 31.9048 83.2755C33.6591 82.4258 35.9446 83.5877 36.5588 85.3322C37.1297 86.957 37.5968 88.627 37.3754 90.4079C37.3659 90.6639 37.3874 90.9201 37.4394 91.1709ZM73.7093 31.5468C72.5934 31.6561 71.1626 31.8104 69.7301 31.9353C63.9912 32.4201 58.4596 34.3128 53.6228 37.4463C49.6799 39.9868 45.9827 42.9122 42.2041 45.7111C40.2145 47.1886 38.237 48.6938 36.365 50.3152C34.6487 51.8048 35.0484 54.0019 37.1107 54.9331C38.3961 55.5123 39.7872 55.8349 41.1522 55.4308C43.3616 54.8 45.5369 54.0551 47.6695 53.199C52.9913 51.0106 58.2439 48.6435 63.564 46.4568C65.6955 45.581 67.9342 45.4562 70.109 46.5157C71.147 47.0204 72.2578 47.3932 73.2232 48.0036C74.9204 49.0753 76.5104 50.3273 78.1851 51.4267C82.9567 54.5482 87.7543 57.6331 92.545 60.7268C99.9948 65.5407 106.529 71.3535 111.888 78.4668C112.13 78.7876 112.753 78.9055 113.213 78.9506C113.588 78.9888 113.99 78.7772 114.377 78.6714C117.915 77.6535 121.448 76.6165 124.991 75.6194C126.116 75.3021 126.149 75.2951 125.796 74.1558C124.547 70.1344 123.232 66.132 122.08 62.0829C120.312 55.957 118.091 49.9717 115.436 44.1764C114.343 41.7643 114.036 41.7122 111.488 42.2377C109.05 42.7212 106.542 42.7253 104.102 42.2498C99.4118 41.3828 95.1505 39.4752 91.2353 36.796C86.0363 33.2428 80.2162 31.833 73.7093 31.5468ZM4.82692 78.5188C4.23868 78.4564 3.93937 78.7183 3.86844 79.2818C3.80788 79.7674 3.82 80.2738 3.68332 80.7368C3.429 81.6038 3.73522 82.0547 4.57605 82.2559C8.4388 83.1749 12.3027 84.0998 16.1678 85.0304C16.9913 85.2299 17.4982 84.9715 17.7404 84.146C18.7623 80.6686 19.7923 77.1853 20.8304 73.6963C20.993 73.1465 20.846 72.7598 20.211 72.7581C17.6297 72.7581 15.2577 71.7627 12.7923 71.213C11.1383 70.8436 9.47225 70.5072 7.79405 70.2679C6.79059 70.124 6.25771 70.7882 5.96706 72.1529C5.75944 73.1327 6.45668 73.2783 7.09681 73.4413C9.57894 74.0703 12.0651 74.683 14.5553 75.2795C15.9273 75.6107 17.3079 75.9003 18.6764 76.2367C18.8494 76.2818 18.9947 76.5021 19.1539 76.6425C18.9809 76.8021 18.8269 77.031 18.6193 77.1021C18.4117 77.1732 18.166 77.1021 17.9411 77.05C15.8823 76.6269 13.8183 76.2281 11.7698 75.7616C10.0882 75.3784 8.43073 74.8824 6.75253 74.4888C5.61412 74.2217 5.17121 74.5807 4.84941 75.8934C4.56913 77.0084 4.69543 77.2703 5.92207 77.5737C8.60201 78.2379 11.301 78.8327 13.9809 79.4969C14.9844 79.7466 15.9636 80.1003 16.9428 80.442C17.1037 80.4975 17.2024 80.7385 17.3304 80.8928C17.1574 81.0021 16.9844 81.1894 16.7958 81.2015C16.5082 81.2004 16.2227 81.1536 15.9498 81.0628C14.6678 80.7298 13.3996 80.3414 12.1107 80.0518C9.67813 79.5125 7.24907 79.0269 4.82692 78.5188ZM46.2629 104.458C46.3166 106.539 47.1868 107.955 48.91 108.835C50.0155 109.398 51.1107 109.268 51.9238 108.379C52.628 107.609 53.3079 106.709 53.6539 105.741C54.2906 103.957 54.5657 102.046 55.1834 100.254C55.8356 98.3658 55.327 96.675 54.6211 94.9999C54.365 94.3912 53.8529 93.8536 53.3581 93.3906C53.1105 93.1401 52.7843 92.9827 52.4345 92.9451C52.0847 92.9076 51.7326 92.992 51.4377 93.1842C50.6937 93.6212 49.9463 94.0513 49.2283 94.5351C48.0484 95.3207 47.4982 96.4583 47.3114 97.8629C47.0813 99.6577 46.7387 101.439 46.4463 103.227C46.3667 103.681 46.3027 104.137 46.2629 104.458ZM27.7664 41.2683H27.7387C27.7059 41.0101 27.6921 40.7499 27.6972 40.4897C27.8062 39.2758 27.1626 38.6897 26.1037 38.2527C22.8667 36.9157 19.4186 36.5619 16.0172 35.9983C15.82 35.9654 15.4515 36.2532 15.3563 36.4752C15.2006 36.8342 15.2024 37.2625 15.1453 37.6613C14.8581 39.6608 14.6262 41.6723 14.2577 43.6527C14.1089 44.4348 14.2577 44.7625 14.9947 44.9672C18.2681 45.8758 21.5311 46.8227 24.801 47.7417C27.0674 48.3782 27.4377 48.073 27.4307 45.7198C27.4307 45.1562 27.2024 44.8701 26.6712 44.7452C25.8858 44.5718 25.1141 44.3533 24.3287 44.1487C21.6055 43.4296 18.8823 42.7111 16.1591 41.9932C15.9861 41.9498 15.7681 41.9221 15.6902 41.8059C15.491 41.5503 15.361 41.2474 15.3131 40.9267C15.3131 40.8174 15.7975 40.5798 16.0466 40.5903C16.6792 40.6205 17.3056 40.7288 17.9117 40.9128C20.564 41.7799 23.2041 42.6851 25.8425 43.5972C27.1245 44.0411 27.7352 43.651 27.7629 42.3105C27.7716 41.9619 27.7664 41.6151 27.7664 41.2683ZM37.6591 98.1785C37.7352 100.228 38.2162 102.063 39.7975 103.429C40.8166 104.309 42.0051 104.454 42.8875 103.827C43.8342 103.193 44.4942 102.211 44.7249 101.094C44.9446 100.018 45.173 98.9467 45.3754 97.8698C45.7595 95.8201 46.0536 93.7756 45.4567 91.7033C44.7889 89.3848 42.4965 88.6114 40.6678 90.1686C40.1297 90.6264 39.5951 91.1865 39.2993 91.8143C38.3477 93.8432 37.7422 95.971 37.6591 98.1785ZM12.7456 55.4326C11.9757 55.5435 11.7698 55.6788 11.474 56.3811C11.3269 56.7279 11.1712 57.0661 11.0293 57.4216C10.6522 58.3476 10.7387 58.6077 11.6972 58.8696C15.4446 59.8875 19.2024 60.869 22.9515 61.8783C23.6089 62.0517 23.8823 61.8262 24.0242 61.169C24.4377 59.2528 24.9169 57.354 25.3581 55.4464C25.5899 54.4372 25.2871 54.0088 24.2421 53.8285C23.6747 53.7314 23.0934 53.695 22.538 53.551C19.6729 52.8036 16.8062 52.0528 13.955 51.2499C13.2248 51.0435 12.7889 51.1926 12.5432 51.9002C12.4256 52.1948 12.3284 52.4973 12.2525 52.8054C12.1141 53.5094 12.3529 53.9291 13.1176 54.1216C16.5178 54.9898 19.9094 55.8886 23.2923 56.8181C23.5709 56.8927 23.7871 57.2014 24.0328 57.4008C23.7387 57.5742 23.4567 57.8412 23.1487 57.8742C22.7171 57.8866 22.2864 57.828 21.8736 57.7008C20.7837 57.4372 19.7024 57.1372 18.6124 56.8667C16.647 56.3863 14.692 55.9094 12.7387 55.4343L12.7456 55.4326ZM55.9515 107.543C56.0605 108.488 56.2128 109.431 56.2699 110.38C56.3754 112.114 57.3079 113.272 58.7076 114.132C59.8875 114.861 61.0951 114.72 61.9567 113.638C62.5266 112.88 63.004 112.056 63.3789 111.184C64.2872 109.218 63.7664 107.146 63.6436 105.124C63.5646 104.177 63.2987 103.255 62.8616 102.411C61.8529 100.419 59.9048 100.211 58.32 101.772C56.6989 103.36 55.9723 105.288 55.9515 107.543ZM117.093 41.3359L116.991 40.9891C117.445 40.8036 117.884 40.5608 118.355 40.4463C121.877 39.5793 125.407 38.7573 128.933 37.9128C129.867 37.6891 130.099 37.1255 129.595 36.3521C129.156 35.6775 128.306 35.4451 127.36 35.6446C123.308 36.5012 119.253 37.3434 115.194 38.1712C114.433 38.3272 114.244 38.5995 114.611 39.3018C115.438 40.8885 116.272 42.4735 117.178 44.0134C117.334 44.277 117.87 44.4469 118.227 44.4244C118.879 44.3845 119.523 44.1729 120.168 44.0325C123.282 43.3527 126.415 42.6833 129.535 41.9845C130.189 41.8388 130.967 41.7504 130.83 40.7238C130.694 39.6972 130.311 39.366 129.202 39.4024C128.827 39.4038 128.453 39.4322 128.081 39.4874C124.768 40.0735 121.455 40.6752 118.14 41.2596C117.792 41.3038 117.442 41.327 117.092 41.329L117.093 41.3359ZM35.6868 88.6877C35.5138 87.7582 35.3408 86.8252 35.1349 85.9131C35.0713 85.6342 34.9166 85.3846 34.6955 85.2038C33.711 84.5102 31.6211 84.7304 30.7456 85.5819C29.6055 86.6935 28.6695 87.8917 28.7404 89.6258C28.7612 90.0767 28.5951 90.5328 28.5397 90.9906C28.3373 92.6397 28.4567 94.2299 29.519 95.6016C30.3477 96.6716 31.4878 96.9403 32.7646 96.7236C33.9359 96.5242 34.5536 95.8236 34.9083 94.6582C35.5034 92.6952 35.974 90.7617 35.6868 88.6877ZM126.898 70.4968C127.042 70.4767 127.186 70.449 127.327 70.4136C130.929 69.3107 134.531 68.2072 138.133 67.1031C138.619 66.954 138.652 66.6609 138.538 66.2361C138.173 64.9303 137.855 63.6124 137.458 62.317C137.142 61.2765 136.775 61.117 135.702 61.3996C132.366 62.2771 129.029 63.1575 125.692 64.0407C124.415 64.3771 124.251 64.7031 124.732 65.9257C124.806 66.113 124.919 66.2864 124.986 66.4754C125.19 67.0546 125.538 67.169 126.132 66.9956C129.287 66.106 132.453 65.2615 135.619 64.4031C136.026 64.2939 136.523 64.1083 136.69 64.7239C136.858 65.3396 136.363 65.4523 135.945 65.5685C134.808 65.8823 133.663 66.1633 132.528 66.4789C130.561 67.0269 128.597 67.5847 126.635 68.1523C126.147 68.2928 125.638 68.5425 125.791 69.1529C125.938 69.739 126.047 70.4569 126.898 70.4968ZM131.829 46.5175C130.114 46.8955 128.604 47.277 127.076 47.5579C124.754 47.9776 122.422 48.3383 120.09 48.6972C119.294 48.8204 119.171 49.2366 119.398 49.9111C119.765 50.9637 120.587 51.3955 121.82 51.0851C124.948 50.303 128.066 49.4863 131.192 48.7007C131.697 48.5724 132.403 48.2603 132.576 49.0233C132.749 49.7863 131.934 49.7169 131.509 49.8348C128.557 50.6065 125.607 51.3955 122.625 52.0354C120.746 52.4343 120.462 52.1672 121.332 54.4389C121.623 55.2002 122.024 55.351 122.702 55.1482C124.221 54.699 125.728 54.2152 127.258 53.8112C129.204 53.2996 131.17 52.8626 133.123 52.3736C133.588 52.2557 134.178 52.1429 133.953 51.4354C133.519 50.062 133.066 48.692 132.554 47.3481C132.445 47.01 132.062 46.7689 131.829 46.5175ZM22.1556 67.7656C22.3287 67.5506 22.6228 67.3216 22.7249 67.0286C23.0121 66.1858 23.2283 65.317 23.4619 64.4569C23.7629 63.3384 23.6176 63.1043 22.4757 62.8268C18.9867 61.9817 15.4971 61.1366 12.0069 60.2915C10.1332 59.8355 10.1349 59.8268 9.51204 61.7153C8.73177 64.0841 8.71101 64.1552 11.1349 64.8557C14.0034 65.6829 16.9134 66.3679 19.8044 67.1205C20.5259 67.3112 21.2421 67.5141 22.1556 67.7656ZM25.3563 52.9822C25.6245 52.7429 26.0138 52.5539 26.1314 52.2574C26.3858 51.621 26.4774 50.9221 26.6764 50.2614C26.9065 49.4984 26.6089 49.1897 25.865 49.0077C22.4636 48.177 19.0778 47.2735 15.6764 46.4464C14.019 46.0406 13.6314 46.0891 13.4048 47.8337C13.3663 48.0611 13.3131 48.2859 13.2456 48.5065C13.0466 49.2556 13.2975 49.7204 14.0622 49.9406C15.1937 50.2597 16.3114 50.6481 17.4463 50.9481C20.0259 51.6366 22.6159 52.2834 25.3563 52.9822ZM8.9065 65.5008C8.63834 65.7505 8.24388 66.0089 8.00685 66.3679C7.76983 66.7268 7.69024 67.1673 7.58471 67.5818C7.3373 68.5615 7.48263 68.7956 8.47571 69.0454C12.1597 69.9436 15.8436 70.8355 19.5276 71.7211C21.2145 72.1251 21.4204 71.9847 21.8788 70.2974C22.2612 68.8928 22.1799 68.8078 20.7352 68.4454C17.5622 67.6494 14.3996 66.8101 11.2197 66.0003C10.5345 65.8303 9.82865 65.7003 8.9065 65.5008ZM141.26 76.7188C141.206 76.7743 141.154 76.8298 141.1 76.8836C140.985 76.8811 140.869 76.8892 140.754 76.9078C137.029 77.8616 133.303 78.8032 129.592 79.8073C129.344 79.8732 129.048 80.4298 129.073 80.7316C129.178 81.9177 130.398 82.7518 131.566 82.5402C133.715 82.1518 135.867 81.779 138.012 81.3749C139.31 81.1304 140.607 80.8842 141.886 80.5564C142.844 80.3119 142.958 80.0362 142.671 79.1206C142.52 78.5649 142.316 78.0249 142.062 77.5078C141.9 77.1957 141.54 76.9789 141.263 76.7188H141.26ZM135.261 57.1909C134.801 57.2846 134.49 57.3349 134.183 57.4129C130.954 58.2222 127.724 59.0401 124.495 59.8667C123.221 60.1927 123.038 60.5898 123.521 61.8158C123.606 62.0291 123.721 62.232 123.798 62.4488C124.035 63.1234 124.431 63.2604 125.133 63.0592C128.474 62.102 131.829 61.1985 135.18 60.2846C136.737 59.858 136.813 59.6898 136.154 58.2037C136.095 58.0105 136.005 57.8283 135.888 57.6644C135.694 57.4887 135.486 57.3303 135.265 57.1909H135.261ZM140.924 74.4385C140.882 74.265 140.775 73.8731 140.697 73.4795C140.524 72.6471 140.116 72.2899 139.237 72.576C138.358 72.8621 137.41 73.0963 136.497 73.3529C134.394 73.9494 132.261 74.4575 130.199 75.1737C128.137 75.8899 128.171 75.9818 128.599 78.094C128.742 78.8015 129.099 78.961 129.696 78.7668C130.292 78.5726 130.881 78.3142 131.486 78.1321C134.294 77.2876 137.111 76.4639 139.92 75.6194C140.401 75.4755 140.99 75.3957 140.927 74.4385H140.924ZM131.794 44.5527C131.777 43.5122 131.388 43.1117 130.393 43.2313C128.626 43.4429 126.863 43.6926 125.109 43.9926C123.126 44.3394 121.147 44.7157 119.18 45.1493C118.247 45.3539 117.969 45.8221 118.156 46.5365C118.433 47.6516 118.941 48.0348 119.886 47.8441C120.732 47.6707 121.578 47.4972 122.427 47.3429C125.249 46.8227 128.147 46.6666 130.869 45.6261C131.436 45.418 131.886 45.1978 131.798 44.5527H131.794ZM139.725 71.1072C139.612 70.6165 139.552 70.2402 139.443 69.8933C138.964 68.3118 138.95 68.2841 137.343 68.7263C134.1 69.6159 130.867 70.5367 127.637 71.4662C127.393 71.5373 126.998 71.8269 127.021 71.9535C127.149 72.6766 127.258 73.4639 127.64 74.0552C127.805 74.3084 128.642 74.2616 129.123 74.1454C130.632 73.7812 132.118 73.3234 133.609 72.8916C135.625 72.3072 137.635 71.7176 139.728 71.1072H139.725ZM133.308 53.6117C132.919 53.6863 132.232 53.7851 131.578 53.9586C128.971 54.6522 126.388 55.4187 123.765 56.0655C122.069 56.4852 122.003 56.4956 122.592 58.1464C122.621 58.2279 122.623 58.3511 122.68 58.384C122.964 58.5574 123.308 58.8886 123.545 58.8279C127.216 57.8915 130.878 56.9181 134.531 55.9077C134.666 55.8496 134.786 55.7607 134.881 55.6482C134.976 55.5356 135.043 55.4024 135.078 55.2591C135.218 54.2204 134.626 53.5979 133.308 53.6117Z" fill="black"/>
<path d="M37.4394 91.1709C37.3783 90.9195 37.3481 90.6615 37.3495 90.4027C37.5692 88.6287 37.1038 86.9518 36.5329 85.327C35.9187 83.5824 33.6332 82.4206 31.8789 83.2703C29.4411 84.4512 27.4654 83.8582 25.4204 82.5212C24.3616 81.8275 23.218 81.2657 22.0969 80.6761C21.2318 80.2183 21.0449 79.5194 21.2733 78.6367C22.6003 73.5263 23.9688 68.4245 25.2439 63.3002C26.2249 59.3534 27.1055 55.3805 27.9982 51.4129C28.429 49.5053 28.7906 47.5683 29.1678 45.6435C29.2924 45.0122 29.5432 44.5683 30.2664 44.8163C31.9273 45.3868 33.5778 45.9833 35.2283 46.5851C35.5218 46.7042 35.8023 46.853 36.0657 47.029C36.5225 47.3134 36.5553 47.655 36.1211 47.988C35.5951 48.3903 35.0599 48.7811 34.5155 49.1602C33.7041 49.7256 33.3183 50.4747 33.4982 51.4666C33.6332 52.2054 33.7578 52.9476 33.9585 53.6689C34.3754 55.1742 35.3823 56.1227 36.8374 56.6551C39.3027 57.5568 41.7405 57.562 44.1557 56.5042C50.0086 53.9395 55.8945 51.4423 61.6972 48.7701C65.8754 46.8469 69.7405 47.4261 73.4135 49.8487C80.2959 54.3874 87.1425 58.9782 93.9533 63.621C99.4977 67.392 104.491 71.9188 108.789 77.0708C110.059 78.5969 111.01 80.4489 111.827 82.2732C112.486 83.7472 111.696 85.1085 110.604 86.1593C108.021 88.6461 105.052 88.8004 101.872 87.4963C98.3703 86.0622 95.3668 83.827 92.2924 81.6749C89.6748 79.842 86.9049 78.2292 84.1955 76.5315C83.7042 76.2246 83.1938 76.1622 82.8633 76.7674C82.5467 77.3466 82.6678 77.8963 83.2872 78.1356C88.3045 80.0726 92.263 83.7472 96.7959 86.4767C97.4135 86.8495 98.0069 87.2536 98.6402 87.6039C101.455 89.1646 102.595 91.9756 101.557 94.8403C100.493 97.7883 97.6886 99.3976 94.5883 98.6068C93.1529 98.2106 91.7906 97.5852 90.5536 96.7548C85.9187 93.7305 81.3547 90.5969 76.7595 87.5102C76.4498 87.3021 76.128 87.0351 75.7837 86.99C75.6139 86.9684 75.4414 86.9836 75.2778 87.0344C75.1143 87.0853 74.9635 87.1706 74.8357 87.2848C74.7128 87.4218 74.8754 87.9143 75.0312 88.1726C75.1678 88.3998 75.4689 88.5351 75.7059 88.6929C79.6782 91.412 83.6511 94.1288 87.6246 96.8432C90.6142 98.893 91.2163 102.566 89.0571 105.287C88.3149 106.225 87.327 106.674 86.2457 106.41C84.911 106.089 83.6168 105.618 82.3876 105.006C78.3945 103.01 74.9481 100.18 71.3339 97.5993C70.5479 97.0144 69.7313 96.472 68.8875 95.9744C68.5571 95.7871 68.0225 95.7004 67.6886 95.8357C67.0225 96.1045 67.0761 96.9906 67.7993 97.3166C71.3737 98.9224 74.2111 101.605 77.3408 103.856C78.4261 104.662 79.4133 105.594 80.282 106.631C81.6834 108.257 81.5519 111.453 80.1696 113.085C79.3754 114.021 78.3201 114.214 77.2595 113.935C75.8253 113.557 74.3599 113.135 73.0606 112.442C70.8789 111.276 68.8218 109.877 66.7059 108.587C65.7024 107.975 65.2076 107.147 65.3218 105.925C65.4637 104.423 65.0986 102.989 64.4394 101.65C63.4291 99.5953 61.3858 98.6883 59.1644 99.2432C57.7803 99.5901 57.1765 99.1669 57.0536 97.6947C56.9048 95.9224 56.3772 94.3062 55.2232 92.9276C53.6263 91.0201 51.5398 90.7097 49.4567 92.0692C47.7543 93.1808 47.4844 93.0958 47.0346 91.1258C46.5675 89.0449 45.0692 88.1206 43.2162 87.701C41.3131 87.2709 39.846 88.1154 38.718 89.6258C38.3374 90.1461 38.0138 90.6975 37.6626 91.2351L37.4394 91.1709Z" fill="white"/>
<path d="M73.7094 31.5468C80.2163 31.8329 86.0364 33.2428 91.2353 36.796C95.1506 39.4717 99.4118 41.3879 104.102 42.2498C106.542 42.7252 109.05 42.7211 111.488 42.2376C114.036 41.7174 114.343 41.7642 115.436 44.1764C118.091 49.9716 120.312 55.957 122.08 62.0829C123.232 66.132 124.547 70.1343 125.796 74.1558C126.142 75.2951 126.116 75.302 124.991 75.6194C121.448 76.6165 117.915 77.6535 114.377 78.6714C113.99 78.7824 113.588 78.9887 113.213 78.9506C112.751 78.9055 112.13 78.7876 111.888 78.4668C106.524 71.3569 99.9949 65.5407 92.545 60.7268C87.7561 57.6331 82.9585 54.5481 78.1852 51.4267C76.5035 50.3273 74.9204 49.0753 73.2232 48.0036C72.2578 47.3932 71.1471 47.0203 70.109 46.5157C67.9343 45.4562 65.6955 45.581 63.564 46.4567C58.2422 48.6435 52.9896 51.0019 47.673 53.199C45.5404 54.055 43.3651 54.8 41.1557 55.4308C39.7907 55.8348 38.3997 55.5123 37.1142 54.9331C35.0519 54.0019 34.6522 51.8117 36.3685 50.3151C38.2405 48.6937 40.218 47.1937 42.2076 45.7111C45.9792 42.9122 49.6765 39.9885 53.6263 37.4463C58.4616 34.3135 63.9914 32.4209 69.7284 31.9353C71.1627 31.8104 72.5935 31.6561 73.7094 31.5468Z" fill="white"/>
<path d="M4.82693 78.5188C7.24908 79.0269 9.67123 79.5125 12.0934 80.0518C13.3823 80.3414 14.6505 80.7298 15.9325 81.0628C16.2054 81.1536 16.4909 81.2004 16.7785 81.2015C16.9636 81.1893 17.1349 81.0021 17.3131 80.8928C17.1851 80.7385 17.0865 80.4974 16.9256 80.4419C15.9463 80.0951 14.9671 79.7483 13.9636 79.4968C11.2837 78.8327 8.58472 78.2379 5.90479 77.5737C4.67815 77.2702 4.55185 77.0084 4.83212 75.8934C5.15911 74.5806 5.60202 74.2217 6.73524 74.4887C8.41517 74.8824 10.0726 75.3783 11.7525 75.7616C13.801 76.228 15.865 76.6286 17.9238 77.05C18.1487 77.0951 18.4048 77.1697 18.602 77.102C18.7993 77.0344 18.9602 76.802 19.1366 76.6425C18.9775 76.502 18.8408 76.2818 18.6591 76.2367C17.2906 75.9003 15.91 75.6107 14.538 75.2795C12.049 74.6795 9.5628 74.0668 7.07953 73.4413C6.43939 73.2783 5.74216 73.1326 5.94977 72.1529C6.24043 70.7916 6.7733 70.124 7.77676 70.2679C9.45496 70.5072 11.1211 70.8436 12.775 71.213C15.2404 71.7627 17.6193 72.7563 20.1937 72.7581C20.8287 72.7581 20.9757 73.1465 20.8131 73.6962C19.7866 77.1853 18.7606 80.6703 17.7352 84.1512C17.493 84.9767 16.9861 85.235 16.1626 85.0356C12.3033 84.0992 8.43939 83.1743 4.57087 82.261C3.73004 82.0599 3.42381 81.609 3.67814 80.7419C3.81482 80.2789 3.80271 79.7726 3.86326 79.287C3.93939 78.7182 4.2387 78.4564 4.82693 78.5188Z" fill="#F4AD7C"/>
<path d="M46.263 104.458C46.3114 104.137 46.3754 103.681 46.4481 103.227C46.7405 101.439 47.083 99.6577 47.3131 97.8629C47.4861 96.4583 48.0502 95.3207 49.2301 94.5351C49.9481 94.0565 50.6955 93.6212 51.4394 93.1842C51.7344 92.992 52.0864 92.9075 52.4362 92.9451C52.7861 92.9827 53.1123 93.1401 53.3598 93.3906C53.8547 93.8536 54.3668 94.3912 54.6228 94.9999C55.3287 96.675 55.8339 98.3658 55.1851 100.254C54.5675 102.046 54.2924 103.957 53.6557 105.741C53.3097 106.709 52.628 107.609 51.9256 108.379C51.1124 109.268 50.0225 109.398 48.9117 108.835C47.1782 107.955 46.3079 106.535 46.263 104.458Z" fill="white"/>
<path d="M27.7664 41.2683C27.7664 41.6151 27.7664 41.9619 27.7664 42.3087C27.7387 43.6492 27.128 44.0429 25.846 43.5955C23.2076 42.6833 20.5674 41.7798 17.9152 40.911C17.3091 40.7271 16.6827 40.6187 16.0501 40.5885C15.801 40.5712 15.3131 40.8157 15.3166 40.9249C15.3645 41.2457 15.4944 41.5486 15.6937 41.8041C15.7716 41.9203 15.9982 41.948 16.1626 41.9914C18.8858 42.7105 21.6084 43.4273 24.3304 44.1417C25.1107 44.3463 25.8875 44.5579 26.673 44.7382C27.2041 44.8631 27.4307 45.1492 27.4325 45.7128C27.4325 48.066 27.0692 48.3712 24.8027 47.7348C21.5328 46.8174 18.2698 45.8706 14.9965 44.9602C14.2525 44.7556 14.1107 44.4278 14.2595 43.6457C14.6349 41.6654 14.8598 39.6573 15.147 37.6544C15.2041 37.2555 15.2024 36.8272 15.3581 36.4682C15.4532 36.2463 15.8217 35.9584 16.019 35.9914C19.4204 36.5602 22.8685 36.9139 26.1055 38.2457C27.1643 38.6827 27.8079 39.2706 27.6989 40.4827C27.6938 40.7429 27.7077 41.0032 27.7404 41.2613L27.7664 41.2683Z" fill="#F4AD7C"/>
<path d="M37.6592 98.1785C37.7422 95.9692 38.3512 93.8432 39.2993 91.8143C39.5951 91.1865 40.1297 90.6264 40.6678 90.1686C42.4965 88.6079 44.7889 89.3848 45.4567 91.7033C46.0536 93.7842 45.7595 95.8201 45.3754 97.8698C45.173 98.9467 44.9446 100.018 44.7249 101.094C44.4942 102.211 43.8342 103.193 42.8875 103.826C42.0052 104.454 40.8114 104.309 39.7976 103.429C38.2163 102.065 37.7353 100.23 37.6592 98.1785Z" fill="white"/>
<path d="M12.7387 55.4343C14.692 55.9095 16.647 56.3777 18.5986 56.8597C19.6886 57.1303 20.7699 57.4303 21.8598 57.6939C22.2726 57.8211 22.7033 57.8796 23.1349 57.8673C23.4429 57.8343 23.7249 57.5603 24.019 57.3939C23.7733 57.1944 23.5571 56.8858 23.2785 56.8112C19.8933 55.8863 16.5017 54.9875 13.1038 54.1146C12.346 53.9222 12.1072 53.5025 12.2387 52.7984C12.3146 52.4903 12.4118 52.1879 12.5294 51.8932C12.7751 51.1857 13.211 51.0366 13.9411 51.2429C16.7924 52.0458 19.6505 52.8036 22.5242 53.5441C23.0796 53.688 23.6609 53.7175 24.2284 53.8216C25.2664 53.995 25.5761 54.4303 25.3443 55.4395C24.9031 57.347 24.4239 59.2546 24.0104 61.1621C23.8685 61.8193 23.5951 62.0482 22.9377 61.8713C19.1886 60.8621 15.4308 59.8806 11.6834 58.8626C10.7249 58.6008 10.6453 58.3424 11.0155 57.4147C11.1574 57.0678 11.3131 56.721 11.4602 56.3742C11.7629 55.6805 11.9688 55.5453 12.7387 55.4343Z" fill="#F4AD7C"/>
<path d="M55.9515 107.543C55.974 105.288 56.7007 103.367 58.3218 101.772C59.9066 100.211 61.8547 100.419 62.8633 102.411C63.2988 103.252 63.564 104.171 63.6436 105.115C63.7664 107.137 64.2872 109.209 63.3789 111.184C63.0035 112.056 62.5255 112.88 61.955 113.638C61.09 114.72 59.8789 114.852 58.7059 114.132C57.3218 113.265 56.3737 112.107 56.2682 110.38C56.2111 109.424 56.0588 108.481 55.9515 107.543Z" fill="white"/>
<path d="M117.092 41.329C117.439 41.3277 117.785 41.3057 118.13 41.2631C121.445 40.6787 124.758 40.0769 128.071 39.4908C128.442 39.4356 128.817 39.4072 129.192 39.4058C130.299 39.3694 130.685 39.7058 130.82 40.7272C130.955 41.7486 130.178 41.8423 129.524 41.9879C126.41 42.6816 123.28 43.3561 120.157 44.0359C119.512 44.1764 118.869 44.3827 118.216 44.4278C117.87 44.4504 117.324 44.2804 117.168 44.0168C116.261 42.4769 115.427 40.8954 114.6 39.3052C114.234 38.6116 114.427 38.3307 115.183 38.1746C119.24 37.3422 123.295 36.5 127.35 35.648C128.296 35.4486 129.145 35.6809 129.585 36.3555C130.088 37.1255 129.856 37.689 128.922 37.9162C125.396 38.7607 121.867 39.5914 118.344 40.4498C117.874 40.5642 117.434 40.807 116.981 40.9925L117.092 41.329Z" fill="#F4AD7C"/>
<path d="M35.6868 88.6877C35.974 90.7686 35.5034 92.6952 34.9082 94.6496C34.5622 95.8149 33.9359 96.5155 32.7646 96.7149C31.4878 96.9316 30.3425 96.6629 29.519 95.5929C28.4567 94.2212 28.3373 92.631 28.5397 90.9819C28.5951 90.5241 28.7612 90.068 28.7404 89.6171C28.6626 87.883 29.6055 86.6848 30.7456 85.5732C31.6211 84.7217 33.711 84.498 34.6955 85.1952C34.9166 85.376 35.0713 85.6256 35.1349 85.9044C35.3494 86.8252 35.5069 87.7582 35.6868 88.6877Z" fill="white"/>
<path d="M126.898 70.4968C126.047 70.4569 125.938 69.7373 125.791 69.1563C125.638 68.5459 126.147 68.2893 126.635 68.1558C128.596 67.587 130.56 67.0292 132.528 66.4823C133.663 66.1667 134.808 65.8858 135.945 65.5719C136.363 65.4557 136.855 65.3274 136.69 64.7274C136.526 64.1274 136.026 64.2973 135.619 64.4066C132.453 65.2598 129.287 66.1095 126.132 66.9991C125.538 67.1725 125.19 67.0581 124.986 66.4789C124.919 66.2898 124.813 66.1164 124.732 65.9291C124.251 64.7153 124.415 64.3806 125.692 64.0442C129.028 63.1609 132.365 62.2806 135.702 61.4031C136.775 61.1204 137.142 61.2817 137.459 62.3205C137.855 63.6158 138.173 64.9338 138.538 66.2396C138.656 66.6609 138.619 66.954 138.133 67.1066C134.53 68.2037 130.928 69.3072 127.327 70.417C127.186 70.4513 127.042 70.4779 126.898 70.4968Z" fill="#F4AD7C"/>
<path d="M131.829 46.5175C132.062 46.7689 132.445 47.0099 132.573 47.3481C133.092 48.692 133.538 50.062 133.972 51.4354C134.197 52.1429 133.607 52.2556 133.142 52.3736C131.189 52.8626 129.223 53.2996 127.277 53.8111C125.747 54.2152 124.241 54.699 122.722 55.1481C122.029 55.351 121.642 55.2002 121.351 54.4389C120.486 52.1672 120.765 52.4343 122.644 52.0354C125.626 51.4042 128.576 50.6065 131.528 49.8348C131.953 49.7238 132.773 49.7741 132.595 49.0233C132.417 48.2724 131.715 48.5724 131.211 48.7007C128.085 49.4863 124.967 50.303 121.839 51.0851C120.597 51.3955 119.775 50.9637 119.417 49.9111C119.182 49.2313 119.305 48.8152 120.109 48.6972C122.441 48.3383 124.78 47.9776 127.095 47.5579C128.604 47.277 130.114 46.8955 131.829 46.5175Z" fill="#F4AD7C"/>
<path d="M22.1556 67.7656C21.2421 67.5141 20.5259 67.3078 19.8044 67.1205C16.9134 66.3679 14.0034 65.6829 11.1349 64.8557C8.71273 64.1621 8.73176 64.084 9.51204 61.7152C10.1349 59.8268 10.1331 59.8354 12.0068 60.2915C15.4947 61.1436 18.9844 61.9886 22.4757 62.8268C23.6176 63.1043 23.7629 63.3384 23.4619 64.4569C23.2283 65.3239 23.012 66.191 22.7249 67.0286C22.6228 67.3216 22.3287 67.5505 22.1556 67.7656Z" fill="#F4AD7C"/>
<path d="M25.3564 52.9822C22.6159 52.2886 20.0259 51.6366 17.4463 50.9533C16.3079 50.6533 15.1972 50.2597 14.0622 49.9458C13.2975 49.729 13.0467 49.2608 13.2456 48.5117C13.3131 48.2911 13.3663 48.0663 13.4048 47.8388C13.6314 46.0891 14.019 46.0406 15.6764 46.4516C19.0778 47.2839 22.4636 48.1857 25.865 49.0128C26.609 49.1949 26.9031 49.5036 26.6764 50.2666C26.4775 50.9273 26.3858 51.6262 26.1315 52.2626C26.0207 52.5539 25.6245 52.7447 25.3564 52.9822Z" fill="#F4AD7C"/>
<path d="M8.9065 65.5009C9.82865 65.7003 10.5345 65.8303 11.2283 66.0072C14.3996 66.8171 17.5622 67.6564 20.7439 68.4523C22.1885 68.8147 22.2698 68.8997 21.8875 70.3044C21.429 71.9917 21.2231 72.1321 19.5363 71.7281C15.8454 70.8483 12.1614 69.9564 8.48436 69.0523C7.49128 68.8095 7.34595 68.5685 7.59335 67.5887C7.69889 67.1708 7.78712 66.7217 8.0155 66.3749C8.24387 66.028 8.63833 65.7506 8.9065 65.5009Z" fill="#F4AD7C"/>
<path d="M141.263 76.7188C141.54 76.9789 141.9 77.1922 142.071 77.5078C142.324 78.0249 142.528 78.5649 142.68 79.1206C142.967 80.0362 142.853 80.3119 141.895 80.5564C140.618 80.8842 139.318 81.1304 138.021 81.3749C135.875 81.779 133.723 82.1518 131.574 82.5402C130.407 82.7518 129.187 81.9177 129.081 80.7316C129.054 80.4298 129.35 79.8732 129.6 79.8073C133.311 78.8032 137.04 77.8616 140.763 76.9078C140.877 76.8892 140.993 76.8811 141.109 76.8836C141.157 76.8298 141.209 76.7743 141.263 76.7188Z" fill="#F4AD7C"/>
<path d="M135.265 57.1909C135.489 57.3304 135.7 57.4894 135.896 57.6661C136.014 57.83 136.104 58.0122 136.163 58.2054C136.822 59.6863 136.739 59.8545 135.189 60.2863C131.837 61.2037 128.483 62.1071 125.142 63.0609C124.44 63.2621 124.043 63.1251 123.806 62.4505C123.73 62.2337 123.614 62.0308 123.529 61.8175C123.047 60.5915 123.23 60.1944 124.504 59.8684C127.733 59.0395 130.963 58.2216 134.192 57.4146C134.498 57.3348 134.805 57.2846 135.265 57.1909Z" fill="#F4AD7C"/>
<path d="M140.927 74.4385C140.99 75.3957 140.408 75.4789 139.924 75.6194C137.114 76.4639 134.298 77.2876 131.49 78.1321C130.884 78.3142 130.303 78.5778 129.699 78.7668C129.095 78.9558 128.746 78.8015 128.602 78.094C128.175 75.9818 128.118 75.8969 130.202 75.1737C132.287 74.4506 134.398 73.9494 136.5 73.3529C137.414 73.0928 138.337 72.8708 139.241 72.576C140.144 72.2812 140.535 72.6471 140.701 73.4795C140.779 73.8731 140.886 74.2633 140.927 74.4385Z" fill="#F4AD7C"/>
<path d="M131.798 44.5527C131.886 45.1978 131.436 45.4198 130.872 45.6331C128.151 46.6735 125.253 46.8227 122.431 47.3498C121.581 47.5076 120.735 47.6793 119.889 47.851C118.945 48.0417 118.436 47.6585 118.159 46.5435C117.986 45.8221 118.251 45.3539 119.183 45.1562C121.151 44.7226 123.13 44.3411 125.113 43.9995C126.867 43.6995 128.63 43.4498 130.396 43.2382C131.384 43.1117 131.78 43.5122 131.798 44.5527Z" fill="#F4AD7C"/>
<path d="M139.728 71.1072C137.635 71.7176 135.625 72.3072 133.613 72.8881C132.121 73.3199 130.635 73.7777 129.126 74.1419C128.645 74.2581 127.808 74.3049 127.644 74.0517C127.261 73.4604 127.152 72.6731 127.024 71.95C127.002 71.8234 127.396 71.5338 127.64 71.4627C130.87 70.5332 134.104 69.6124 137.346 68.7228C138.953 68.2806 138.967 68.3083 139.446 69.8898C139.554 70.2453 139.616 70.6164 139.728 71.1072Z" fill="#F4AD7C"/>
<path d="M133.308 53.6117C134.626 53.6117 135.211 54.229 135.071 55.2522C135.036 55.3954 134.969 55.5286 134.874 55.6412C134.779 55.7538 134.659 55.8426 134.524 55.9007C130.87 56.9065 127.208 57.8799 123.538 58.821C123.299 58.8817 122.955 58.547 122.673 58.377C122.616 58.3441 122.614 58.221 122.585 58.1395C121.997 56.4903 122.066 56.4799 123.758 56.0585C126.375 55.4117 128.964 54.6452 131.571 53.9516C132.232 53.7695 132.919 53.6776 133.308 53.6117Z" fill="#F4AD7C"/>
</g>
<defs>
<clipPath id="clip0_330_10699">
<rect width="144.121" height="116" fill="white" transform="translate(0.939392)"/>
</clipPath>
</defs>
</svg>
