<svg width="146" height="116" viewBox="0 0 146 116" fill="none" xmlns="http://www.w3.org/2000/svg">
<g clip-path="url(#clip0_396_12983)">
<rect x="1.3" y="78.133" width="37.0667" height="37.0667" rx="1.65503" stroke="black" stroke-width="1.6"/>
<path d="M15.3588 92.5796H18.2926C19.2173 92.5796 19.9252 92.7474 20.4162 93.0829C20.9072 93.4184 21.1527 93.9667 21.1527 94.7277C21.1527 95.3415 20.9931 95.812 20.674 96.1394C20.363 96.4667 19.9416 96.6877 19.4096 96.8022C20.0889 96.8923 20.5962 97.1009 20.9318 97.4283C21.2755 97.7556 21.4473 98.2384 21.4473 98.8767C21.4473 99.3268 21.3655 99.7114 21.2018 100.031C21.0381 100.35 20.8131 100.612 20.5267 100.816C20.2403 101.013 19.9006 101.156 19.5078 101.246C19.115 101.336 18.6895 101.381 18.2312 101.381H15.3588V92.5796ZM16.2304 93.3775V96.4585H18.1576C18.7877 96.4585 19.2992 96.3276 19.692 96.0657C20.0848 95.7957 20.2812 95.362 20.2812 94.7646C20.2812 94.249 20.1093 93.8889 19.7656 93.6844C19.4301 93.4798 18.9391 93.3775 18.2926 93.3775H16.2304ZM16.2304 97.2441V100.595H18.2312C18.5749 100.595 18.89 100.567 19.1764 100.509C19.4628 100.452 19.7042 100.358 19.9006 100.227C20.1052 100.088 20.2607 99.9119 20.3671 99.6992C20.4817 99.4782 20.539 99.2123 20.539 98.9013C20.539 98.3121 20.3507 97.8906 19.9743 97.6369C19.606 97.3751 19.025 97.2441 18.2312 97.2441H16.2304Z" fill="black"/>
<rect x="20.9402" y="39.467" width="37.0667" height="37.0667" rx="1.65503" stroke="black" stroke-width="1.6"/>
<path d="M34.9931 53.9136H37.9023C38.8761 53.9136 39.6208 54.11 40.1364 54.5028C40.6519 54.8956 40.9097 55.5134 40.9097 56.3563C40.9097 57.1256 40.7174 57.7107 40.3328 58.1117C39.9481 58.5127 39.4367 58.7745 38.7984 58.8973L41.2411 62.7148H40.2468L37.8655 58.9832H35.8646V62.7148H34.9931V53.9136ZM35.8646 54.7115V58.1976H37.7427C38.0864 58.1976 38.3974 58.1649 38.6756 58.0994C38.9539 58.0339 39.1912 57.9275 39.3876 57.7802C39.584 57.6329 39.7354 57.4447 39.8418 57.2156C39.9563 56.9783 40.0136 56.6878 40.0136 56.344C40.0136 55.763 39.8336 55.3457 39.4735 55.092C39.1216 54.8383 38.5979 54.7115 37.9023 54.7115H35.8646Z" fill="black"/>
<rect x="107.48" y="78.133" width="37.0667" height="37.0667" rx="1.65503" stroke="black" stroke-width="1.6"/>
<path d="M122.043 92.5796H124.965C125.537 92.5796 126.073 92.6532 126.573 92.8005C127.072 92.9397 127.506 93.1729 127.874 93.5002C128.242 93.8194 128.533 94.2449 128.745 94.7768C128.958 95.3006 129.065 95.9471 129.065 96.7163C129.065 97.4937 128.958 98.173 128.745 98.754C128.533 99.335 128.238 99.8219 127.862 100.215C127.485 100.599 127.035 100.89 126.511 101.086C125.996 101.283 125.435 101.381 124.83 101.381H122.043V92.5796ZM122.915 93.3775V100.595H124.842C125.317 100.595 125.754 100.518 126.155 100.362C126.556 100.207 126.904 99.9733 127.199 99.6623C127.493 99.3432 127.722 98.9463 127.886 98.4717C128.05 97.9888 128.132 97.4201 128.132 96.7654C128.132 96.1189 128.05 95.5788 127.886 95.1451C127.722 94.7032 127.497 94.3554 127.211 94.1017C126.933 93.8398 126.601 93.6557 126.217 93.5493C125.832 93.4348 125.419 93.3775 124.977 93.3775H122.915Z" fill="black"/>
<rect x="79.2471" y="39.467" width="37.0667" height="37.0667" rx="1.65503" stroke="black" stroke-width="1.6"/>
<path d="M100.03 62.7148H98.8267L93.9289 54.9079V62.7148H93.1064V53.9136H94.2849L99.2072 61.7574V53.9136H100.03V62.7148Z" fill="black"/>
<rect x="47.9455" y="0.800031" width="37.0667" height="37.0667" rx="1.65503" fill="#9D85F4" stroke="black" stroke-width="1.6"/>
<path d="M65.1189 15.2464H66.371L69.673 24.0477H68.7524L67.7581 21.384H63.6705L62.6762 24.0477H61.8538L65.1189 15.2464ZM67.4635 20.5984L65.6959 15.897L63.9528 20.5984H67.4635Z" fill="black"/>
</g>
<defs>
<clipPath id="clip0_396_12983">
<rect width="145" height="116" fill="white" transform="translate(0.5)"/>
</clipPath>
</defs>
</svg>
