<svg width="60" height="60" viewBox="0 0 60 60" fill="none" xmlns="http://www.w3.org/2000/svg">
<circle cx="30" cy="30" r="30" fill="black"/>
<mask id="mask0_364_6102" style="mask-type:alpha" maskUnits="userSpaceOnUse" x="21" y="18" width="15" height="24">
<path fill-rule="evenodd" clip-rule="evenodd" d="M21.0004 30.0224C21.0042 30.3589 21.1504 30.6945 21.4391 30.9512C21.4892 30.9958 21.5419 31.0365 21.5969 31.0735L33.4426 41.6096C34.0276 42.1299 34.976 42.1299 35.5609 41.6096C36.1459 41.0894 36.1459 40.2458 35.5609 39.7255L24.6268 30.0001L35.5613 20.2744C36.1462 19.7541 36.1462 18.9105 35.5613 18.3902C34.9763 17.8699 34.0279 17.8699 33.443 18.3902L21.5994 28.9245C21.5434 28.9619 21.4897 29.0033 21.4387 29.0486C21.1372 29.3168 20.9911 29.6709 21.0004 30.0224Z" fill="#232427"/>
</mask>
<g mask="url(#mask0_364_6102)">
<path fill-rule="evenodd" clip-rule="evenodd" d="M21.0004 30.0224C21.0042 30.3589 21.1504 30.6945 21.4391 30.9512C21.4892 30.9958 21.5419 31.0365 21.5969 31.0735L33.4426 41.6096C34.0276 42.1299 34.976 42.1299 35.5609 41.6096C36.1459 41.0894 36.1459 40.2458 35.5609 39.7255L24.6268 30.0001L35.5613 20.2744C36.1462 19.7541 36.1462 18.9105 35.5613 18.3902C34.9763 17.8699 34.0279 17.8699 33.443 18.3902L21.5994 28.9245C21.5434 28.9619 21.4897 29.0033 21.4387 29.0486C21.1372 29.3168 20.9911 29.6709 21.0004 30.0224Z" fill="white"/>
</g>
</svg>
