<svg width="60" height="60" viewBox="0 0 60 60" fill="none" xmlns="http://www.w3.org/2000/svg">
<circle cx="30" cy="30" r="30" fill="black"/>
<mask id="mask0_275_8492" style="mask-type:alpha" maskUnits="userSpaceOnUse" x="23" y="18" width="15" height="24">
<path fill-rule="evenodd" clip-rule="evenodd" d="M37.9996 29.9776C37.9959 29.6411 37.8496 29.3055 37.5609 29.0488C37.5108 29.0042 37.4581 28.9635 37.4031 28.9265L25.5574 18.3904C24.9724 17.8701 24.024 17.8701 23.4391 18.3904C22.8541 18.9106 22.8541 19.7542 23.4391 20.2745L34.3732 29.9999L23.4387 39.7256C22.8538 40.2459 22.8538 41.0895 23.4387 41.6098C24.0237 42.1301 24.9721 42.1301 25.5571 41.6098L37.4006 31.0755C37.4566 31.0381 37.5103 30.9967 37.5613 30.9514C37.8628 30.6832 38.0089 30.3291 37.9996 29.9776Z" fill="#232427"/>
</mask>
<g mask="url(#mask0_275_8492)">
<path fill-rule="evenodd" clip-rule="evenodd" d="M37.9996 29.9776C37.9959 29.6411 37.8496 29.3055 37.5609 29.0488C37.5108 29.0042 37.4581 28.9635 37.4031 28.9265L25.5574 18.3904C24.9724 17.8701 24.024 17.8701 23.4391 18.3904C22.8541 18.9106 22.8541 19.7542 23.4391 20.2745L34.3732 29.9999L23.4387 39.7256C22.8538 40.2459 22.8538 41.0895 23.4387 41.6098C24.0237 42.1301 24.9721 42.1301 25.5571 41.6098L37.4006 31.0755C37.4566 31.0381 37.5103 30.9967 37.5613 30.9514C37.8628 30.6832 38.0089 30.3291 37.9996 29.9776Z" fill="#858585"/>
</g>
</svg>
