<svg width="24" height="24" viewBox="0 0 24 24" fill="none" xmlns="http://www.w3.org/2000/svg">
<path fill-rule="evenodd" clip-rule="evenodd" d="M11.7252 18.9333H13.0425C13.0425 18.9333 13.4394 18.8851 13.642 18.6424C13.8345 18.4161 13.8345 17.9973 13.8345 17.9973C13.8345 17.9973 13.8061 16.0239 14.6311 15.7341C15.4442 15.4464 16.4754 17.6389 17.5745 18.4816C18.4142 19.1258 19.0458 18.9875 19.0458 18.9875L21.9892 18.9425C21.9892 18.9425 23.531 18.8349 22.8023 17.4822C22.7464 17.3746 22.3889 16.4837 20.6288 14.6558C18.7845 12.75 19.032 13.0572 21.2485 9.75366C22.5951 7.74139 23.146 6.51151 22.9673 5.98924C22.8151 5.4977 21.8123 5.61956 21.8123 5.61956L18.5104 5.65131C18.5104 5.65131 18.2629 5.61956 18.0842 5.74347C17.9054 5.86533 17.7963 6.14387 17.7963 6.14387C17.7963 6.14387 17.272 7.70965 16.5717 9.0317C15.0839 11.8263 14.4926 11.9799 14.2589 11.7956C13.7052 11.3952 13.8473 10.1776 13.8473 9.30512C13.8473 6.6006 14.2176 5.46493 13.1314 5.17307C12.7739 5.07988 12.5071 5.01947 11.5868 5.00308C10.4043 4.98874 9.40695 5.01332 8.84136 5.32156C8.47011 5.52944 8.18136 5.98924 8.34728 6.0128C8.56728 6.04352 9.06137 6.16231 9.32262 6.56271C9.66637 7.08088 9.6517 8.23806 9.6517 8.23806C9.6517 8.23806 9.84512 11.429 9.19887 11.8253C8.74511 12.0936 8.14011 11.5386 6.8201 9.00303C6.14635 7.71272 5.63668 6.26881 5.63668 6.26881C5.63668 6.26881 5.54043 6.00665 5.3626 5.85304C5.15451 5.68408 4.85201 5.62263 4.85201 5.62263L1.70324 5.65335C1.70324 5.65335 1.23574 5.66974 1.07165 5.89913C0.919486 6.09882 1.05699 6.52892 1.05699 6.52892C1.05699 6.52892 3.51917 12.9671 6.31135 16.2093C8.86887 19.1811 11.771 18.9896 11.771 18.9896L11.7252 18.9333Z" fill="black" fill-opacity="0.85"/>
</svg>
