<svg width="1355" height="491" viewBox="0 0 1355 491" fill="none" xmlns="http://www.w3.org/2000/svg">
<line x1="10.8001" y1="3.14713e-08" x2="10.8" y2="491" stroke="#EAEAEA" stroke-width="1.43996"/>
<line x1="56.8782" y1="3.14713e-08" x2="56.8782" y2="491" stroke="#EAEAEA" stroke-width="1.43996"/>
<line x1="102.958" y1="3.14713e-08" x2="102.958" y2="491" stroke="#EAEAEA" stroke-width="1.43996"/>
<line x1="149.036" y1="3.14713e-08" x2="149.036" y2="491" stroke="#EAEAEA" stroke-width="1.43996"/>
<path d="M194.395 0L194.395 491" stroke="#EAEAEA" stroke-width="1.43996"/>
<path d="M240.473 0L240.473 491" stroke="#EAEAEA" stroke-width="1.43996"/>
<line x1="287.273" y1="3.14713e-08" x2="287.273" y2="491" stroke="#EAEAEA" stroke-width="1.43996"/>
<line x1="333.351" y1="3.14713e-08" x2="333.351" y2="491" stroke="#EAEAEA" stroke-width="1.43996"/>
<line x1="379.429" y1="3.14713e-08" x2="379.429" y2="491" stroke="#EAEAEA" stroke-width="1.43996"/>
<line x1="425.509" y1="3.14713e-08" x2="425.509" y2="491" stroke="#EAEAEA" stroke-width="1.43996"/>
<line x1="471.587" y1="3.14713e-08" x2="471.587" y2="491" stroke="#EAEAEA" stroke-width="1.43996"/>
<line x1="517.665" y1="3.14713e-08" x2="517.665" y2="491" stroke="#EAEAEA" stroke-width="1.43996"/>
<line x1="563.743" y1="3.14713e-08" x2="563.743" y2="491" stroke="#EAEAEA" stroke-width="1.43996"/>
<line x1="609.823" y1="3.14713e-08" x2="609.823" y2="491" stroke="#EAEAEA" stroke-width="1.43996"/>
<line x1="655.902" y1="3.14713e-08" x2="655.902" y2="491" stroke="#EAEAEA" stroke-width="1.43996"/>
<path d="M701.26 0L701.26 491" stroke="#EAEAEA" stroke-width="1.43996"/>
<path d="M747.338 0L747.338 491" stroke="#EAEAEA" stroke-width="1.43996"/>
<line x1="794.138" y1="3.14713e-08" x2="794.138" y2="491" stroke="#EAEAEA" stroke-width="1.43996"/>
<line x1="840.216" y1="3.14713e-08" x2="840.216" y2="491" stroke="#EAEAEA" stroke-width="1.43996"/>
<line x1="886.294" y1="3.14713e-08" x2="886.294" y2="491" stroke="#EAEAEA" stroke-width="1.43996"/>
<line x1="932.374" y1="3.14713e-08" x2="932.374" y2="491" stroke="#EAEAEA" stroke-width="1.43996"/>
<line x1="978.452" y1="3.14713e-08" x2="978.452" y2="491" stroke="#EAEAEA" stroke-width="1.43996"/>
<line x1="1024.53" y1="3.14713e-08" x2="1024.53" y2="491" stroke="#EAEAEA" stroke-width="1.43996"/>
<line x1="1070.61" y1="3.14713e-08" x2="1070.61" y2="491" stroke="#EAEAEA" stroke-width="1.43996"/>
<line x1="1116.69" y1="3.14713e-08" x2="1116.69" y2="491" stroke="#EAEAEA" stroke-width="1.43996"/>
<line x1="1162.77" y1="3.14713e-08" x2="1162.77" y2="491" stroke="#EAEAEA" stroke-width="1.43996"/>
<path d="M1208.12 0L1208.12 491" stroke="#EAEAEA" stroke-width="1.43996"/>
<path d="M1254.2 0L1254.2 491" stroke="#EAEAEA" stroke-width="1.43996"/>
<line x1="1301" y1="3.14713e-08" x2="1301" y2="491" stroke="#EAEAEA" stroke-width="1.43996"/>
<line x1="1347.08" y1="3.14713e-08" x2="1347.08" y2="491" stroke="#EAEAEA" stroke-width="1.43996"/>
<line x1="-1.76146e-08" y1="476.588" x2="1355" y2="476.588" stroke="#EAEAEA" stroke-width="1.43996"/>
<line x1="-1.76146e-08" y1="430.509" x2="1355" y2="430.509" stroke="#EAEAEA" stroke-width="1.43996"/>
<line x1="-1.76146e-08" y1="384.43" x2="1355" y2="384.43" stroke="#EAEAEA" stroke-width="1.43996"/>
<line x1="-1.76146e-08" y1="338.352" x2="1355" y2="338.352" stroke="#EAEAEA" stroke-width="1.43996"/>
<line x1="-1.76146e-08" y1="292.273" x2="1355" y2="292.273" stroke="#EAEAEA" stroke-width="1.43996"/>
<line x1="-1.76146e-08" y1="246.194" x2="1355" y2="246.194" stroke="#EAEAEA" stroke-width="1.43996"/>
<path d="M0 200.836L1355 200.836" stroke="#EAEAEA" stroke-width="1.43996"/>
<path d="M0 154.757L1355 154.757" stroke="#EAEAEA" stroke-width="1.43996"/>
<line x1="-1.76146e-08" y1="107.958" x2="1355" y2="107.958" stroke="#EAEAEA" stroke-width="1.43996"/>
<line x1="-1.76146e-08" y1="61.8796" x2="1355" y2="61.8797" stroke="#EAEAEA" stroke-width="1.43996"/>
<line x1="-1.76146e-08" y1="15.8008" x2="1355" y2="15.8008" stroke="#EAEAEA" stroke-width="1.43996"/>
</svg>
