<?xml version="1.0" encoding="utf-8"?>
<!-- Generator: Adobe Illustrator 26.1.0, SVG Export Plug-In . SVG Version: 6.00 Build 0)  -->
<svg version="1.1" id="Слой_1" xmlns="http://www.w3.org/2000/svg" xmlns:xlink="http://www.w3.org/1999/xlink" x="0px" y="0px"
	 viewBox="0 0 36 36" style="enable-background:new 0 0 36 36;" xml:space="preserve">
<style type="text/css">
	.st0{fill-rule:evenodd;clip-rule:evenodd;fill:#6740ED;fill-opacity:0.85;}
</style>
<path class="st0" d="M17.7,24.9H19c0,0,0.4,0,0.6-0.3c0.2-0.2,0.2-0.6,0.2-0.6s0-2,0.8-2.3c0.8-0.3,1.8,1.9,2.9,2.7
	C24.4,25.1,25,25,25,25l2.9,0c0,0,1.5-0.1,0.8-1.5c-0.1-0.1-0.4-1-2.2-2.8c-1.8-1.9-1.6-1.6,0.6-4.9c1.3-2,1.9-3.2,1.7-3.8
	c-0.2-0.5-1.2-0.4-1.2-0.4l-3.3,0c0,0-0.2,0-0.4,0.1c-0.2,0.1-0.3,0.4-0.3,0.4s-0.5,1.6-1.2,2.9c-1.5,2.8-2.1,2.9-2.3,2.8
	c-0.6-0.4-0.4-1.6-0.4-2.5c0-2.7,0.4-3.8-0.7-4.1c-0.4-0.1-0.6-0.2-1.5-0.2c-1.2,0-2.2,0-2.7,0.3c-0.4,0.2-0.7,0.7-0.5,0.7
	c0.2,0,0.7,0.1,1,0.5c0.3,0.5,0.3,1.7,0.3,1.7s0.2,3.2-0.5,3.6c-0.5,0.3-1.1-0.3-2.4-2.8c-0.7-1.3-1.2-2.7-1.2-2.7s-0.1-0.3-0.3-0.4
	c-0.2-0.2-0.5-0.2-0.5-0.2l-3.1,0c0,0-0.5,0-0.6,0.2c-0.2,0.2,0,0.6,0,0.6s2.5,6.4,5.3,9.7C14.9,25.2,17.8,25,17.7,24.9L17.7,24.9z"
	/>
</svg>
