<svg width="36" height="36" viewBox="0 0 36 36" fill="none" xmlns="http://www.w3.org/2000/svg">
<path fill-rule="evenodd" clip-rule="evenodd" d="M17.7252 24.9333H19.0425C19.0425 24.9333 19.4394 24.8851 19.642 24.6424C19.8345 24.4161 19.8345 23.9973 19.8345 23.9973C19.8345 23.9973 19.8061 22.0239 20.6311 21.7341C21.4442 21.4464 22.4754 23.6389 23.5745 24.4816C24.4142 25.1258 25.0458 24.9875 25.0458 24.9875L27.9892 24.9425C27.9892 24.9425 29.531 24.8349 28.8023 23.4822C28.7464 23.3746 28.3889 22.4837 26.6288 20.6558C24.7845 18.75 25.032 19.0572 27.2485 15.7537C28.5951 13.7414 29.146 12.5115 28.9673 11.9892C28.8151 11.4977 27.8123 11.6196 27.8123 11.6196L24.5104 11.6513C24.5104 11.6513 24.2629 11.6196 24.0842 11.7435C23.9054 11.8653 23.7963 12.1439 23.7963 12.1439C23.7963 12.1439 23.272 13.7096 22.5717 15.0317C21.0839 17.8263 20.4926 17.9799 20.2589 17.7956C19.7052 17.3952 19.8473 16.1776 19.8473 15.3051C19.8473 12.6006 20.2176 11.4649 19.1314 11.1731C18.7739 11.0799 18.5071 11.0195 17.5868 11.0031C16.4043 10.9887 15.407 11.0133 14.8414 11.3216C14.4701 11.5294 14.1814 11.9892 14.3473 12.0128C14.5673 12.0435 15.0614 12.1623 15.3226 12.5627C15.6664 13.0809 15.6517 14.2381 15.6517 14.2381C15.6517 14.2381 15.8451 17.429 15.1989 17.8253C14.7451 18.0936 14.1401 17.5386 12.8201 15.003C12.1463 13.7127 11.6367 12.2688 11.6367 12.2688C11.6367 12.2688 11.5404 12.0067 11.3626 11.853C11.1545 11.6841 10.852 11.6226 10.852 11.6226L7.70324 11.6534C7.70324 11.6534 7.23574 11.6697 7.07165 11.8991C6.91949 12.0988 7.05699 12.5289 7.05699 12.5289C7.05699 12.5289 9.51917 18.9671 12.3114 22.2093C14.8689 25.1811 17.771 24.9896 17.771 24.9896L17.7252 24.9333Z" fill="black" fill-opacity="0.85"/>
</svg>
