<svg width="170" height="266" viewBox="0 0 170 266" fill="none" xmlns="http://www.w3.org/2000/svg">
<g clip-path="url(#clip0_262_9434)">
<path fill-rule="evenodd" clip-rule="evenodd" d="M169.185 195.438C169.185 197.47 169.881 199.732 169.185 201.664C169.115 202.637 169.289 204.905 169.115 206.902C169.115 206.966 169.115 207.038 169.059 207.102C169.004 207.309 168.941 207.517 168.885 207.724C168.746 208.204 168.614 208.69 168.481 209.156L168.293 209.871C168.223 210.122 168.154 210.372 168.091 210.587C167.898 210.638 167.699 210.664 167.499 210.665C167.263 210.669 167.027 210.633 166.802 210.558C165.527 210.122 164.315 209.485 163.075 208.934C162.225 208.476 160.902 208.29 160.686 207.166C156.367 206.315 152.103 205.02 147.721 204.605C145.13 204.433 142.573 205.02 140.058 205.478H139.87C138.045 209.549 135.454 213.478 131.511 215.603C131.453 215.885 131.33 216.148 131.152 216.37C130.973 216.591 130.745 216.765 130.487 216.877C128.529 218.057 126.251 218.429 124.085 218.987C121.996 219.534 119.866 219.9 117.717 220.082C115.077 219.903 112.501 219.172 110.145 217.936C105.721 217.406 101.667 215.474 97.6473 213.642C93.0634 211.495 88.5423 209.106 84.6481 205.771C83.0459 204.419 81.4715 203.03 79.8623 201.692C79.8794 201.526 79.8581 201.357 79.8 201.2C79.7419 201.044 79.6486 200.903 79.5278 200.791C78.9612 200.261 78.404 199.724 77.8559 199.181C77.6797 199.003 77.5123 198.817 77.3543 198.623L77.1801 198.372V198.286C77.5354 198.286 77.8768 198.286 78.253 198.286C78.6537 198.277 79.0536 198.246 79.4512 198.193C79.655 198.176 79.8575 198.145 80.0572 198.1L80.2106 198.057C80.4683 198.25 80.7261 198.465 80.9769 198.673C81.1627 198.787 81.3377 198.918 81.4993 199.066C82.1054 198.25 83.3454 198.072 83.7007 196.984C84.3974 193.878 82.9553 190.73 83.0041 187.596C82.8787 179.531 80.6703 171.81 78.5734 164.111C78.3673 164.048 78.1776 163.938 78.0184 163.789C77.8593 163.64 77.7347 163.457 77.6539 163.252C75.3202 152.769 72.8959 154.086 82.9135 148.869C87.0933 146.615 91.1199 143.574 93.6069 139.41C94.4637 137.778 96.8532 138.83 96.5745 140.576C96.5745 141.292 96.6303 142.007 96.6721 142.665C96.927 143.028 97.2088 143.37 97.515 143.689C100.302 147.267 105.073 146.265 108.989 146.215C111.42 145.256 114.213 144.919 116.408 143.274C118.045 142.436 118.665 139.302 120.803 139.911C121.15 140.091 121.43 140.383 121.601 140.742C121.772 141.101 121.825 141.508 121.751 141.9C121.995 142.429 122.27 142.942 122.573 143.438C123.799 146.422 126.021 146.551 128.794 146.859C132.033 147.345 135.238 148.011 138.477 148.476C141.072 148.816 143.585 149.635 145.896 150.894C146.26 151.046 146.551 151.337 146.707 151.707C146.863 152.076 146.872 152.493 146.732 152.869C146.654 153.069 146.532 153.247 146.377 153.392C146.886 153.885 147.366 154.415 147.868 154.823C149.359 154.73 155.607 160.705 158.317 164.97C159.457 166.418 160.493 167.948 161.417 169.549C161.738 170.098 162.037 170.656 162.316 171.224C164.423 174.265 165.891 177.722 166.628 181.377C166.896 182.005 167.128 182.648 167.325 183.302C168.425 187.216 168.802 191.345 169.185 195.438Z" fill="#F4AD7C"/>
<path fill-rule="evenodd" clip-rule="evenodd" d="M78.4341 221.556C79.3049 222.551 82.9762 225.485 81.778 225.485C81.7014 225.485 101.82 240.998 128.989 240.791C132.472 240.791 140.776 237.299 140.922 240.018C141.292 246.78 140.922 262.415 141.131 265.857C141.131 266.165 131.149 265.857 130.856 265.857C122.935 265.32 72.039 264.834 70.7641 264.776C70.0257 264.855 70.4298 225.048 70.4367 223.818C70.2138 221.828 69.7888 220.955 69.6147 219.617C69.673 219.487 69.7062 219.346 69.7122 219.202C69.7122 218.351 69.7122 217.499 69.7122 216.648C69.7122 215.796 69.7122 215.145 69.7122 214.386C69.9769 214.221 70.2877 214.151 70.5956 214.187C70.9034 214.223 71.1907 214.364 71.412 214.587C72.1923 215.453 73.0213 216.268 73.8503 217.084C75.348 218.608 76.9642 220.039 78.4341 221.556Z" fill="#F4AD7C"/>
<path fill-rule="evenodd" clip-rule="evenodd" d="M119.313 100.712C119.125 100.938 118.92 101.148 118.7 101.342C118.299 101.611 117.866 101.825 117.411 101.979C117.015 102.183 116.645 102.438 116.31 102.737C116.115 102.93 115.927 103.123 115.746 103.324L115.433 103.674C115.09 104.073 114.727 104.453 114.346 104.812C113.898 105.217 113.474 105.649 113.078 106.107V106.107C113.291 105.067 113.65 104.065 114.144 103.131C114.786 102.047 115.72 101.177 116.833 100.626C117.205 100.377 117.642 100.251 118.086 100.267C118.53 100.282 118.958 100.438 119.313 100.712V100.712Z" fill="black"/>
<path fill-rule="evenodd" clip-rule="evenodd" d="M116.115 104.597C115.739 104.261 115.558 103.71 115.161 103.402C115.161 103.445 115.161 103.402 115.161 103.402C115.436 103.326 115.727 103.332 115.999 103.421C116.271 103.51 116.512 103.677 116.693 103.903C116.808 104.018 116.885 104.166 116.915 104.327C116.945 104.488 116.926 104.655 116.861 104.805C116.729 104.837 116.592 104.835 116.462 104.799C116.332 104.762 116.213 104.693 116.115 104.597V104.597Z" fill="black"/>
<path fill-rule="evenodd" clip-rule="evenodd" d="M87.7553 111.36C86.0416 111.231 82.6629 110.58 82.8789 108.247C83.0637 107.643 83.3833 107.091 83.8123 106.637C84.1268 106.228 84.4131 105.798 84.6692 105.349C85.3035 104.063 85.7987 102.71 86.146 101.313C86.4386 100.483 86.6616 99.5814 86.9402 98.7656C87.1435 99.9466 87.1811 101.151 87.0517 102.343C86.716 104.301 85.909 106.141 84.704 107.696C84.5304 107.925 84.3699 108.163 84.2234 108.411C84.1949 108.457 84.1797 108.511 84.1797 108.565C84.1797 108.62 84.1949 108.673 84.2234 108.719C84.7528 109.685 86.4665 109.964 87.4557 110.15C87.9503 110.215 88.5216 110.15 88.9953 110.207L89.5039 110.265C89.3597 110.612 89.1137 110.903 88.8003 111.1C88.4868 111.296 88.1215 111.387 87.7553 111.36Z" fill="black"/>
<path fill-rule="evenodd" clip-rule="evenodd" d="M90.0333 118.973C88.9166 118.802 87.8923 118.238 87.1352 117.378C87.0308 117.227 87.1353 117.127 87.3373 117.249H87.2815C87.2815 117.249 87.3443 117.249 87.3303 117.249C87.9682 117.375 88.6175 117.431 89.267 117.413C90.0548 117.488 90.8477 117.488 91.6355 117.413C92.7768 117.25 93.8584 116.789 94.7773 116.075C95.1224 115.756 95.4904 115.464 95.8781 115.202C96.2222 115.008 96.6071 114.903 96.9996 114.895C97.0065 115.023 97.0065 115.152 96.9996 115.281C96.916 116.454 95.8084 117.141 94.9654 117.757C93.5116 118.745 91.7654 119.176 90.0333 118.973V118.973Z" fill="black"/>
<path fill-rule="evenodd" clip-rule="evenodd" d="M21.9509 119.925C21.2543 119.732 21.3169 118.937 21.4702 118.379C21.6235 117.821 21.7141 117.249 21.8743 116.698C22.4525 114.837 22.752 112.898 23.4486 111.08C22.9749 110.365 23.4487 109.535 23.8527 108.891C24.3264 108.089 24.828 107.317 25.3226 106.529C27.299 103.198 29.4841 100.002 31.864 96.9623C33.529 95.0231 35.1104 93.0053 36.7405 91.0303C37.5388 90.0897 38.3975 89.2052 39.311 88.3827C39.9589 87.8675 40.4814 86.9087 41.4009 86.9516C41.9791 87.097 42.4996 87.4218 42.8918 87.8818C43.9297 88.8621 44.8354 89.9713 45.8803 90.9444C46.5073 91.5527 47.0785 91.982 47.6637 92.5759C48.2767 93.2915 47.5731 94.1788 47.1342 94.7942C44.8771 97.7924 42.4529 100.662 40.2237 103.681C38.7468 105.771 37.3048 107.889 35.7931 109.957C34.6924 111.474 33.5569 112.969 32.3099 114.372C31.9466 114.856 31.5032 115.27 31.0002 115.596C30.6742 115.788 30.3035 115.887 29.9274 115.882C29.9373 115.654 29.9748 115.428 30.0389 115.209C30.2314 114.657 30.5574 114.165 30.9863 113.778C31.6063 113.113 32.1357 112.454 32.693 111.753C33.8982 110.243 35.0198 108.662 36.1205 107.08C38.1802 103.913 40.4178 100.871 42.8221 97.9713C44.0482 96.4257 45.4206 94.9945 46.5143 93.3416C45.6852 92.6708 44.8921 91.9541 44.1388 91.1949C43.1913 90.2289 42.4042 89.0482 41.2965 88.2754C40.2028 89.406 39.0603 90.4936 38.0153 91.6743C36.3852 93.6206 34.7829 95.5813 33.1389 97.4918C30.9057 100.302 28.8331 103.243 26.9318 106.3C26.1585 107.581 25.232 108.776 24.5841 110.136C25.6012 111.023 26.5348 111.989 27.5101 112.919C28.2067 113.692 30.5614 114.816 29.2796 115.982C27.8115 117.146 26.2284 118.149 24.5563 118.973C23.926 119.317 23.2744 119.618 22.6057 119.875C22.4087 119.955 22.1926 119.973 21.9857 119.925H21.9509ZM24.1384 112.834C23.7761 114.758 23.2606 116.64 22.7451 118.515C24.6147 117.57 26.4124 116.481 28.1231 115.259C26.7527 114.27 25.46 113.172 24.2568 111.975C24.2319 112.263 24.1924 112.55 24.1384 112.834V112.834Z" fill="black"/>
<path fill-rule="evenodd" clip-rule="evenodd" d="M48.5626 94.4508C48.304 94.4182 48.0612 94.3059 47.866 94.1288C47.7386 94.007 47.6387 93.858 47.5733 93.6923C48.0524 93.4537 48.5055 93.1634 48.9249 92.8264C48.6982 92.0695 48.3472 91.358 47.8869 90.7227C47.3324 89.8327 46.6854 89.0074 45.9572 88.2611C44.7938 87.2808 43.5329 86.2218 42.0351 85.8926C41.234 85.7781 41.2619 86.3291 41.1713 86.9588C41.1713 87.2737 40.9066 87.9534 41.2619 88.1037C40.6628 88.2755 40.0428 86.3935 40.1264 85.8855C40.1951 85.4387 40.4326 85.0378 40.7874 84.7698C41.1421 84.5019 41.5855 84.3885 42.0212 84.4543C42.9025 84.5815 43.7438 84.9144 44.4803 85.4275C45.5331 86.0316 46.499 86.7829 47.3505 87.6601C48.2909 88.8264 51.0357 92.1538 50.1788 93.6279C50.0136 93.9088 49.7738 94.1354 49.4875 94.2812C49.2012 94.427 48.8803 94.4858 48.5626 94.4508V94.4508Z" fill="black"/>
<path fill-rule="evenodd" clip-rule="evenodd" d="M48.6391 90.0715C48.4882 90.0468 48.3392 90.0109 48.1933 89.9642C48.2796 89.6325 48.4294 89.3219 48.634 89.0503C48.8385 88.7788 49.0937 88.5519 49.3846 88.3828C50.0778 87.9045 50.6759 87.295 51.147 86.5868C51.4343 86.1027 51.5988 85.5523 51.6256 84.9861C51.6524 84.4198 51.5406 83.8557 51.3003 83.3453C51.1988 83.0909 51.0317 82.8698 50.8168 82.7059C50.602 82.542 50.3476 82.4414 50.0812 82.415C48.675 82.2584 47.256 82.5534 46.0198 83.2594C45.2535 83.7245 44.32 84.0537 43.8254 84.8408C43.8411 84.8634 43.8629 84.8808 43.8881 84.8909C43.8881 84.8909 43.9508 84.8909 43.9438 84.8909C43.8254 84.8909 43.707 84.8909 43.6791 84.7764C43.7348 83.7674 44.529 82.9732 45.2674 82.3864C46.3631 81.6531 47.6262 81.2264 48.9318 81.1485C49.8629 81.0194 50.808 81.2405 51.5929 81.771C52.1547 82.4098 52.5329 83.1961 52.6854 84.0426C52.838 84.889 52.7587 85.7623 52.4567 86.5653C51.9481 87.8962 50.1369 90.1574 48.6391 90.0715Z" fill="black"/>
<path fill-rule="evenodd" clip-rule="evenodd" d="M26.9807 113.521C27.0713 112.454 27.8306 111.717 28.4924 110.98C30.0459 109.184 31.5297 107.331 32.9996 105.463C35.5842 102.179 38.099 98.8372 40.8716 95.7245C42.1674 94.1654 43.5966 92.7285 45.142 91.4312C45.1907 91.3882 45.2813 91.3453 45.3301 91.4312C45.3788 91.517 45.3301 91.4312 45.3301 91.4312H45.2883C44.7859 92.4331 44.2033 93.3905 43.5467 94.2934C42.8501 95.1235 42.1534 95.8963 41.408 96.6977C39.2763 99.0949 37.3397 101.635 35.3543 104.154C33.3689 106.673 31.5506 109.091 29.5234 111.445C28.792 112.24 28.1441 113.349 26.9807 113.521Z" fill="black"/>
<path fill-rule="evenodd" clip-rule="evenodd" d="M24.863 112.147C24.8865 111.165 25.2755 110.231 25.9498 109.535C27.1062 107.861 28.2765 106.193 29.4887 104.526C31.9251 101.053 34.5315 97.7095 37.298 94.5081C38.5207 93.034 39.8232 91.6316 41.1992 90.3077C41.5614 89.9428 41.9794 89.6494 42.2998 89.2702C42.3044 89.2654 42.3098 89.2616 42.3157 89.259C42.3217 89.2565 42.3282 89.2551 42.3347 89.2551C42.3412 89.2551 42.3476 89.2565 42.3536 89.259C42.3596 89.2616 42.3649 89.2654 42.3695 89.2702C42.4043 89.3346 42.3695 89.4347 42.3277 89.492C42.1775 89.8685 42.003 90.2342 41.8053 90.5868C40.9275 91.9622 39.9244 93.2488 38.8097 94.4294C35.6539 98.0859 32.6445 101.878 29.844 105.843C28.7503 107.367 27.6635 108.891 26.6116 110.451C26.2593 111.224 25.6342 111.83 24.863 112.147Z" fill="black"/>
<path fill-rule="evenodd" clip-rule="evenodd" d="M19.4848 121.814C19.443 121.814 19.4431 121.814 19.4291 121.757C19.36 121.407 19.4027 121.044 19.5508 120.722C19.699 120.4 19.9446 120.135 20.2511 119.968C20.6134 119.724 21.3658 119.152 21.7838 119.417C21.9509 119.589 21.7419 119.767 21.6374 119.911C21.1219 120.755 20.5994 121.928 19.4848 121.814Z" fill="black"/>
<path fill-rule="evenodd" clip-rule="evenodd" d="M86.7377 39.5547C86.2275 38.807 85.8414 37.9776 85.5952 37.1003C84.7719 34.9454 84.106 32.7306 83.6028 30.4742C83.1152 28.1343 82.5509 25.8087 81.9587 23.4903C81.3666 21.1718 80.7745 18.6817 80.0569 16.3346C79.6863 15.1959 79.5096 14.0001 79.5345 12.7997C79.5345 12.6352 79.5344 12.4205 79.6459 12.2989C79.6889 12.2846 79.7352 12.2846 79.7783 12.2989V12.2989C79.4648 12.2559 79.9524 13.0144 79.9524 13.1289C80.2381 13.7658 80.5097 14.3883 80.7396 15.0395C81.6871 17.9518 82.4254 20.9214 83.1221 23.9053C84.1949 27.7765 84.7383 31.7765 86.1873 35.5547C86.5008 36.4205 86.8213 37.2863 87.1905 38.1307C87.3716 38.603 87.5805 38.9751 88.0891 39.0108C89.7192 39.0108 91.2867 38.4885 92.8611 38.1235C94.0733 37.823 95.3342 37.5225 96.5254 37.1575C99.7857 36.0985 103.018 34.9321 106.355 34.1593C110.063 33.3373 113.723 32.3053 117.32 31.0681C118.393 30.7103 119.493 30.4384 120.573 30.1092C121.131 29.9232 121.702 29.7586 122.245 29.5368C122.348 29.4985 122.436 29.4252 122.493 29.3288C122.55 29.2325 122.573 29.119 122.559 29.0073C122.74 25.959 121.583 23.0538 120.831 20.1557C120.134 18.009 119.535 15.7765 118.741 13.6441C117.508 10.3024 115.801 7.16111 114.624 3.81227C113.016 3.96696 111.419 4.23231 109.845 4.60655C106.828 5.26537 103.853 6.11129 100.935 7.13964C98.3227 7.9697 95.7033 8.76397 93.1327 9.72283C90.0536 10.7604 86.9397 11.6978 83.7909 12.4777C83.1361 12.6781 82.5091 12.9214 81.8752 13.1933C81.302 13.3933 80.6842 13.4157 80.0987 13.2577C80.3707 12.8259 80.751 12.4774 81.1994 12.2488C82.7367 11.6274 84.321 11.1368 85.9365 10.7819C90.3671 9.66558 94.6305 7.9697 98.9915 6.61728C103.29 5.06117 107.699 3.84592 112.179 2.98222C113.061 2.75878 113.966 2.64112 114.875 2.63159C115.62 2.63159 115.871 3.4688 116.066 4.06272C116.373 4.91424 116.763 5.65127 117.076 6.46701C118.219 9.15753 119.417 11.8337 120.378 14.603C121.033 16.7497 121.709 18.8463 122.266 20.993C123.039 23.7836 123.952 26.6459 123.569 29.5797C123.262 30.925 121.479 30.9607 120.441 31.3686C118.205 31.9339 116.073 32.8427 113.865 33.5153C111.078 34.2452 108.306 34.9417 105.547 35.6048C103.011 36.1844 100.545 36.9858 98.0929 37.8158C95.9472 38.5314 93.7597 39.0609 91.5792 39.6191C90.172 39.8337 87.9289 40.6709 86.7377 39.5547Z" fill="black"/>
<path fill-rule="evenodd" clip-rule="evenodd" d="M85.581 13.7729C84.9366 13.3736 84.4024 12.8115 84.0292 12.1401C83.6561 11.4688 83.4565 10.7105 83.4494 9.93748C83.31 8.59937 83.3519 6.81046 84.766 6.20939C86.5982 5.43658 88.4721 6.7246 89.0572 8.54213C89.1871 9.01523 89.1576 9.51949 88.9736 9.97325C88.0471 9.42227 87.7615 8.27021 86.8837 7.64052C86.6516 7.47507 86.3833 7.37089 86.1027 7.3372C85.822 7.3035 85.5376 7.34132 85.2746 7.44732C84.4595 7.91959 84.7521 9.48667 84.8217 10.3096C84.8914 11.1325 85.1422 11.9339 85.3581 12.7353C85.4482 13.1467 85.6293 13.5311 85.8876 13.8588V13.8588C85.8876 13.8588 85.6786 13.8158 85.581 13.7729Z" fill="black"/>
<path fill-rule="evenodd" clip-rule="evenodd" d="M94.4703 10.8463C92.861 10.3668 92.0669 8.53498 92.053 6.91781C91.9903 5.7586 92.1644 4.33462 93.3069 3.76933C95.0206 2.97505 96.8667 4.62085 97.3753 6.24518C97.4903 6.63718 97.4903 7.05532 97.3753 7.44733C97.0774 7.26189 96.8055 7.03559 96.5671 6.7747C95.968 6.15216 95.5919 5.20046 94.742 4.89992C92.5476 4.18436 93.7249 8.77112 93.9966 9.83015C94.1263 10.1852 94.2995 10.5219 94.5121 10.8319C94.5121 10.8319 94.5121 10.8677 94.5121 10.8677L94.4703 10.8463Z" fill="black"/>
<path fill-rule="evenodd" clip-rule="evenodd" d="M101.876 8.77111C101.21 8.30434 100.687 7.65306 100.368 6.89302C100.048 6.13297 99.9454 5.29541 100.071 4.47772C100.301 3.0466 100.852 1.20044 102.433 0.814039C103.058 0.730101 103.693 0.799862 104.287 1.01758C104.88 1.23529 105.415 1.59473 105.846 2.06628C106.123 2.31245 106.317 2.64298 106.398 3.00976C106.479 3.37655 106.445 3.76045 106.299 4.10563C105.693 3.67629 105.198 3.16109 104.641 2.6745C102.551 1.18613 101.75 2.60295 101.458 4.67093C101.401 6.08843 101.597 7.50464 102.036 8.84982C101.994 8.89275 101.91 8.79973 101.876 8.77111Z" fill="black"/>
<path fill-rule="evenodd" clip-rule="evenodd" d="M110.34 6.96082C109.766 6.7145 109.269 6.31273 108.901 5.79848C108.533 5.28422 108.308 4.67684 108.25 4.04132C108.152 2.50286 108.772 0.577991 110.34 0.134342C110.639 0.0275252 110.957 -0.0163186 111.274 0.00541345C111.59 0.0271455 111.899 0.11401 112.183 0.26085C112.466 0.407689 112.718 0.611509 112.923 0.860206C113.128 1.1089 113.282 1.39741 113.377 1.70858C113.48 2.09393 113.448 2.50427 113.286 2.86779C112.833 2.48431 112.407 2.06823 112.011 1.62271C110.667 0.51359 109.692 2.06636 109.566 3.37584C109.524 4.68422 109.877 5.97402 110.576 7.06815C110.494 7.04106 110.415 7.00508 110.34 6.96082Z" fill="black"/>
<path fill-rule="evenodd" clip-rule="evenodd" d="M106.167 4.41351C106.167 4.14876 105.902 3.86969 106.055 3.59777C106.209 3.32586 106.411 3.72657 106.383 3.90546C106.387 4.00146 106.37 4.09715 106.332 4.18521C106.295 4.27328 106.238 4.35137 106.167 4.41351V4.41351Z" fill="black"/>
<path fill-rule="evenodd" clip-rule="evenodd" d="M86.0619 17.4151C88.4513 15.6262 91.5095 15.2112 94.31 14.4312C97.2823 13.6489 100.259 12.8856 103.241 12.1414C105.184 11.619 107.114 11.0037 109.079 10.5529C109.998 10.3668 110.911 9.92316 111.865 10.0377C112.152 10.0841 112.431 10.1707 112.694 10.2953C112.367 10.6604 111.962 10.9422 111.51 11.1182C109.044 11.6978 106.578 12.2845 104.14 12.9786C100.176 13.9804 96.2257 15.0251 92.2967 16.0484C90.2884 16.7032 88.224 17.1608 86.1315 17.4151V17.4151C86.1315 17.4151 86.0619 17.4294 86.0619 17.4151Z" fill="black"/>
<path fill-rule="evenodd" clip-rule="evenodd" d="M91.7812 31.7837C91.1788 31.2286 90.7295 30.5202 90.4785 29.73C89.8236 28.2273 89.1827 26.7175 88.6603 25.1575C87.9218 22.7103 86.4659 20.3847 86.5703 17.7443C86.5703 17.7014 86.5703 17.2863 86.6957 17.4008C86.8211 17.5153 86.6957 17.4008 86.6957 17.4008C87.0858 18.4742 87.7825 19.4617 88.2144 20.5422C88.8414 22.0663 89.3499 23.6406 89.8933 25.2005C90.4367 26.7604 91.0775 28.2273 91.6627 29.637C91.8318 30.1331 92.125 30.5748 92.5127 30.9178C95.0415 31.9482 102.788 29.3293 105.602 28.4778C108.417 27.6262 111.273 26.7318 114.101 25.8731C114.519 25.7781 114.918 25.6085 115.279 25.3722C115.483 24.8054 115.507 24.1867 115.348 23.6048C115.137 22.1771 114.787 20.7748 114.303 19.4187C113.816 17.8445 113.203 16.3203 112.604 14.789C112.2 13.6012 111.21 12.3275 111.823 11.0466C112.736 11.6048 113.029 12.6924 113.412 13.6513C114.025 15.2255 114.707 16.7783 115.188 18.4026C115.761 20.0518 116.169 21.7564 116.407 23.4903C116.63 24.6781 116.707 26.188 115.327 26.603C113.711 27.1397 112.032 27.5475 110.451 28.0341C108.521 28.6996 106.487 29.2506 104.557 29.8302C101.757 30.6817 94.094 33.2792 91.7812 31.7837Z" fill="black"/>
<path fill-rule="evenodd" clip-rule="evenodd" d="M87.9147 21.2722C88.5278 20.2776 91.6836 19.7767 92.833 19.4475C96.8317 18.4242 100.879 17.6228 104.871 16.5852C106.821 16.0915 108.779 15.6335 110.716 15.0754C111.392 14.8287 112.13 14.8287 112.806 15.0754C112.344 15.6607 111.69 16.0525 110.966 16.1774C108.8 16.757 106.606 17.2436 104.425 17.8017C101.43 18.689 98.3643 19.2328 95.32 19.9484C93.7942 20.3801 92.245 20.7194 90.6804 20.9645C89.7957 21.1219 88.8553 21.0647 87.9914 21.265C87.9914 21.265 88.0472 21.3008 88.0541 21.3223C88.0611 21.3437 87.9217 21.3151 87.9147 21.2722Z" fill="black"/>
<path fill-rule="evenodd" clip-rule="evenodd" d="M97.5284 31.0323C96.7156 30.4772 96.1304 29.634 95.8844 28.6638C95.2295 26.925 94.6861 25.1432 94.1985 23.34C93.5018 20.8212 92.3037 18.3883 92.2549 15.7335C92.2549 15.6763 92.2549 15.4545 92.3733 15.569C92.4917 15.6835 92.3733 15.569 92.3315 15.569C92.9431 16.4725 93.4746 17.4304 93.9198 18.4312C94.6868 20.5977 95.3403 22.8048 95.8774 25.043C96.1839 26.0377 96.574 27.0108 96.8945 27.9983C97.2149 28.9858 97.9325 29.9804 97.5284 31.0323Z" fill="black"/>
<path fill-rule="evenodd" clip-rule="evenodd" d="M19.241 136.626C19.032 135.102 20.6342 134.479 21.5468 133.599C22.0136 133.113 22.6614 132.533 22.2435 131.81C20.3347 128.354 16.2106 129.807 14.4272 127.259C13.4171 125.564 14.6223 123.753 16.0086 122.759C16.9266 122.242 17.9451 121.941 18.9902 121.878C18.9693 121.832 18.9393 121.79 18.9022 121.755C18.8651 121.721 18.8216 121.695 18.7742 121.678C18.88 121.662 18.9879 121.675 19.0878 121.714C19.3664 121.785 19.3733 122.1 19.1922 122.286C18.0218 123.496 16.0086 123.996 15.4443 125.75C15.3189 127.732 18.2796 127.603 19.5545 128.182C20.4492 128.5 21.2871 128.967 22.0345 129.564C23.4278 130.816 24.4518 132.469 23.0167 134.136C22.4323 134.831 21.7517 135.434 20.9965 135.925C20.4697 136.29 19.8698 136.53 19.241 136.626V136.626Z" fill="black"/>
<path fill-rule="evenodd" clip-rule="evenodd" d="M105.83 92.3364C105.889 92.3677 105.935 92.4069 105.964 92.4509C105.993 92.4949 106.005 92.5425 105.998 92.5897C105.991 92.6369 105.966 92.6825 105.925 92.7227C105.883 92.763 105.826 92.7968 105.759 92.8214C105.279 92.9701 104.736 93.028 104.201 92.9874C102.882 92.9533 101.563 92.9065 100.237 92.9406C97.9589 92.9746 93.8895 92.9406 94.0023 91.6216C94.0023 91.5535 94.0023 91.494 94.228 91.3365C95.166 90.8643 96.7599 91.0217 98.0153 91.0387C99.6093 91.1122 101.187 91.2804 102.727 91.5408C103.219 91.6181 103.703 91.7162 104.172 91.8343C104.766 91.9469 105.326 92.1165 105.83 92.3364Z" fill="black"/>
<path fill-rule="evenodd" clip-rule="evenodd" d="M89.7331 42.8105C89.6425 42.3526 90.165 42.3025 90.4785 42.2023C92.4848 41.4868 94.5608 40.8284 96.574 40.1987C98.5873 39.569 100.601 38.925 102.607 38.2882C102.9 38.188 103.304 37.9805 103.492 38.3812C103.528 38.478 103.526 38.5858 103.486 38.6809C103.445 38.7761 103.37 38.851 103.276 38.8893C100.176 39.9268 97.0756 40.8571 93.9756 41.8589C92.7077 42.2596 91.4746 42.739 90.1998 43.1039C90.1001 43.1277 89.9953 43.1103 89.9079 43.0554C89.8206 43.0005 89.7579 42.9126 89.7331 42.8105V42.8105Z" fill="black"/>
<path fill-rule="evenodd" clip-rule="evenodd" d="M106.613 37.959C106.264 37.2434 107.407 37.1647 107.818 36.9715C108.988 36.5923 110.193 36.3203 111.392 36.0341C111.726 35.9769 112.255 35.7121 112.395 36.1915C112.416 36.2919 112.399 36.397 112.347 36.4849C112.295 36.5728 112.213 36.6368 112.116 36.6638C110.723 36.9787 109.406 37.3078 108.076 37.7157C107.756 37.8108 107.442 37.9255 107.135 38.0592C107.052 38.1134 106.952 38.1332 106.855 38.1146C106.758 38.096 106.671 38.0404 106.613 37.959V37.959Z" fill="black"/>
<path fill-rule="evenodd" clip-rule="evenodd" d="M47.5732 137.091C46.9602 136.783 47.7265 135.996 47.8798 135.574C48.4859 134.465 49.1337 133.37 49.7607 132.275C50.0045 131.946 50.1648 131.181 50.6873 131.431C50.7777 131.482 50.8446 131.568 50.8733 131.67C50.9021 131.772 50.8903 131.882 50.8405 131.975C50.0254 133.47 49.1128 134.916 48.3187 136.426C48.1515 136.719 47.9982 137.256 47.5732 137.091Z" fill="black"/>
<path fill-rule="evenodd" clip-rule="evenodd" d="M41.9096 134.658C41.9723 132.977 41.9932 131.288 42.0211 129.607C42.0211 128.934 42.0212 128.261 42.0769 127.632C42.0769 127.331 42.0769 126.973 42.2441 126.73C42.2866 126.681 42.3403 126.644 42.4002 126.622C42.4602 126.6 42.5245 126.594 42.5874 126.604C42.6503 126.614 42.7099 126.64 42.7606 126.679C42.8113 126.719 42.8516 126.771 42.878 126.83C42.9616 127.038 42.8362 127.274 42.878 127.481C42.7595 129.886 42.8222 132.29 42.6968 134.694C42.6922 134.801 42.6464 134.902 42.5693 134.975C42.4922 135.047 42.3902 135.085 42.2858 135.081C42.1814 135.076 42.0832 135.029 42.0126 134.95C41.9421 134.87 41.905 134.766 41.9096 134.658Z" fill="black"/>
<path fill-rule="evenodd" clip-rule="evenodd" d="M35.8838 135.03C35.3962 133.893 34.9643 132.719 34.5463 131.546C34.4418 131.095 33.78 129.986 34.5463 129.878C34.5963 129.877 34.6459 129.887 34.6924 129.906C34.7388 129.925 34.7811 129.953 34.8168 129.989C34.8525 130.025 34.8808 130.068 34.9001 130.115C34.9195 130.162 34.9295 130.213 34.9295 130.265C35.022 130.619 35.1336 130.968 35.2638 131.309C35.6748 132.461 36.1137 133.585 36.5735 134.715C36.5953 134.805 36.5856 134.9 36.546 134.983C36.5065 135.066 36.4397 135.133 36.3573 135.17C36.275 135.208 36.1824 135.214 36.0958 135.189C36.0092 135.163 35.9341 135.107 35.8838 135.03V135.03Z" fill="black"/>
<path d="M96.2246 100.646C96.6411 98.8787 96.2451 97.2639 95.3402 97.0389C94.4353 96.8138 93.364 98.0638 92.9476 99.8306C92.5311 101.597 92.9271 103.212 93.832 103.437C94.737 103.662 95.8082 102.412 96.2246 100.646Z" fill="black"/>
<path d="M83.5329 99.1388C83.9494 97.3719 83.5534 95.7572 82.6485 95.5321C81.7435 95.3071 80.6723 96.557 80.2559 98.3238C79.8394 100.091 80.2354 101.705 81.1403 101.93C82.0453 102.155 83.1165 100.906 83.5329 99.1388Z" fill="black"/>
<path d="M169.568 190.107C168.815 185.071 167.448 180.153 165.5 175.467C163.9 171.558 161.803 167.884 159.265 164.54C157.138 161.951 154.841 159.514 152.389 157.249C151.414 156.39 150.343 155.652 149.198 155.052V155.009C150.327 154.615 150.731 153.07 151.212 152.025C152.251 149.19 152.834 146.201 152.939 143.174C153.111 141.029 153.091 138.874 152.877 136.733C152.722 133.92 152.293 131.13 151.595 128.404C151.059 126.399 150.339 124.451 149.442 122.587C148.496 120.791 147.452 119.052 146.314 117.377C144.064 113.95 140.922 110.673 140.574 106.351C140.511 103.424 141.271 100.555 141.765 97.6923C142.359 94.6458 142.523 91.5274 142.253 88.4329C141.923 81.095 139.252 74.0723 134.653 68.4472C132.112 65.4446 128.999 63.0092 125.506 61.2916C121.865 59.6315 117.833 59.0945 113.9 59.746C114.353 58.6583 115.042 56.7478 114.276 55.703C114.048 55.4679 113.748 55.3216 113.426 55.2889C113.105 55.2563 112.782 55.3394 112.514 55.5241C111.262 56.45 110.169 57.5843 109.281 58.8801C108.829 57.9571 108.459 56.8766 107.575 56.2898C106.181 55.6386 105.659 57.4275 105.645 58.5295C105.629 59.0082 105.657 59.4873 105.728 59.9606C105.506 59.8226 105.273 59.703 105.032 59.6029C103.462 59.0353 101.818 58.7098 100.155 58.6368C96.4731 58.2454 92.7523 58.7075 89.267 59.9893C86.7031 60.9729 84.2946 62.3401 82.1195 64.0465C79.2086 66.3398 76.7517 69.184 74.8815 72.4258C73.8567 74.0174 72.9262 75.6709 72.0949 77.3775C71.3187 79.1289 70.7391 80.9654 70.3673 82.8515C69.8462 85.6416 69.8014 88.5036 70.2349 91.3095C70.5065 93.0912 71.0011 94.8229 71.3495 96.5903C71.6325 97.7606 71.6823 98.9776 71.4958 100.168C70.9246 102.565 69.6636 104.705 68.6465 106.916C66.9588 110.227 65.9623 113.863 65.7207 117.592C65.6423 121.32 66.5758 124.997 68.4167 128.211C69.7263 130.651 71.245 132.998 72.1158 135.66C72.9797 138.215 72.7637 141.005 72.2412 143.617C72.0357 144.562 71.8822 145.517 71.7814 146.479C71.7383 146.855 71.8037 147.236 71.9695 147.574C71.216 147.341 70.451 147.15 69.6776 147.002C63.1292 145.664 56.6296 144.089 50.0464 142.987C46.194 142.415 42.3346 141.95 38.4822 141.377C34.1492 140.848 29.7952 140.383 25.4412 140.125C24.048 140.082 22.585 140.125 21.1569 140.125C18.9916 140.061 16.8426 140.527 14.8872 141.485C13.4243 142.2 12.9714 145.349 13.1177 147.925C12.8243 147.733 12.5017 147.593 12.1633 147.51C11.8772 147.414 11.5743 147.383 11.2753 147.418C10.9764 147.454 10.6883 147.555 10.431 147.715C10.1737 147.876 9.95309 148.091 9.78437 148.347C9.61564 148.603 9.50276 148.894 9.4534 149.199C9.39778 150.026 9.52646 150.856 9.82961 151.624C9.7011 151.8 9.59565 151.993 9.51607 152.197C8.61741 154.458 9.20259 156.934 10.3102 159.03C10.0316 159.703 10.2475 161.692 10.3102 162.25C10.6102 163.888 11.158 165.467 11.9335 166.93C11.9124 167.056 11.9124 167.184 11.9335 167.309C12.4109 169.167 13.0113 170.989 13.7308 172.762C14.2271 174.449 15.0335 176.023 16.1063 177.399C16.5993 178.152 17.2399 178.79 17.9872 179.274C18.1011 179.315 18.222 179.332 18.3425 179.324C18.1879 180.464 18.2208 181.622 18.44 182.751C18.5923 183.544 18.7877 184.328 19.0252 185.098C19.1305 185.377 19.3032 185.623 19.5268 185.814C19.6004 186.064 19.7033 186.305 19.8333 186.53C20.5299 187.868 22.3829 188.919 24.5007 189.742C24.5657 190.861 24.8008 191.962 25.1973 193.005C25.8358 194.908 26.6016 196.764 27.4893 198.558C30.4355 204.62 34.0617 210.306 38.2941 215.503C39.7079 217.06 41.2106 218.529 42.7944 219.903C45.5461 221.885 48.0052 221.664 52.2756 222.05C56.6551 222.451 61.0393 222.844 65.4281 223.231L69.4407 223.589H69.6358C70.0328 223.624 70.3324 223.674 70.7434 223.71C70.7434 223.71 70.7852 222.415 70.7434 222.415C70.7434 221.857 70.7434 221.292 70.7434 220.762C70.7851 218.777 70.5506 216.797 70.0468 214.88C70.416 215.181 70.7853 215.467 71.1614 215.746L72.0043 216.59C74.0316 218.601 76.0727 220.612 78.072 222.658L78.5945 223.123C79.1873 223.643 79.8134 224.121 80.4685 224.555C81.2348 225.098 82.015 225.628 82.7673 226.2C86.6755 229.063 90.5697 232.032 94.8888 234.236C98.3396 235.927 101.909 237.347 105.568 238.487C111.243 240.131 117.091 241.06 122.984 241.256C128.125 241.465 133.272 241.028 138.31 239.953C141.125 239.457 143.892 238.707 146.579 237.714C148.309 237.022 149.968 236.156 151.532 235.131C152.041 234.794 152.57 234.472 153.1 234.136C153.41 233.998 153.71 233.837 153.998 233.657C155.112 233.03 156.156 232.282 157.112 231.424L158.331 230.272C158.924 229.671 159.488 229.041 160.024 228.39C161.657 226.548 163.074 224.517 164.246 222.336C166.144 218.528 167.634 214.518 168.69 210.379C169.436 207.044 169.847 203.639 169.916 200.218C170.106 196.844 169.989 193.459 169.568 190.107ZM96.0104 142.351C96.2006 142.957 96.5276 143.509 96.9648 143.961C98.9571 145.907 102.183 146.823 104.892 146.866C107.408 146.907 109.911 146.51 112.298 145.692C113.484 145.321 114.647 144.877 115.781 144.361C116.843 143.826 117.812 143.115 118.651 142.258C118.93 141.889 119.066 141.428 119.034 140.962C119.187 141.12 119.334 141.277 119.48 141.442C120.804 143.088 121.431 145.22 122.831 146.809C122.236 147.061 121.702 147.441 121.263 147.925C119.039 149.881 116.444 151.343 113.642 152.218C109.765 153.586 105.596 153.834 101.59 152.934C98.0748 152.315 94.7845 150.741 92.0605 148.376C91.1634 147.607 90.5148 146.576 90.2005 145.42C90.343 144.855 90.6072 144.329 90.9737 143.882C91.7897 142.614 92.7228 141.43 93.7603 140.347C94.1958 139.739 94.7899 139.27 95.474 138.995C95.474 139.281 95.474 139.567 95.474 139.853C95.3766 140.724 95.5654 141.603 96.0104 142.351ZM76.7902 107.696C76.9505 105.606 78.4722 93.3739 78.5001 92C79.6426 91.6708 80.0001 91 81.5001 91C82.2733 90.7066 85.6169 91.7943 86.0001 91C86.0001 90.5365 83.6445 89.7782 82.5001 89.5C81.476 89.4499 79.9878 89.6637 78.6015 89.7782C78.5142 88.6747 78.3606 87.5778 78.1417 86.4937C80.768 86.3435 83.2968 85.3846 85.8046 84.712C87.5745 84.1741 89.3063 83.5118 90.9877 82.7299C92.1437 82.2521 93.2367 81.6271 94.241 80.8694C95.3213 80.1559 96.2061 79.1706 96.8115 78.0072C97.4415 79.2341 98.3233 80.3059 99.396 81.1485C101.423 82.9875 104.07 83.8032 106.718 84.1324C107.251 84.16 107.782 84.2269 108.306 84.3327C108.661 84.6404 108.724 85.1914 108.905 85.6136C109.086 86.0358 109.177 86.4937 109.302 86.9302C110.187 90.0286 111.538 93.127 113.879 95.3739C114.297 95.8296 114.796 96.1989 115.349 96.4615L115.258 96.5188C114.547 96.9533 113.943 97.5495 113.491 98.2616C113.04 98.9736 112.753 99.7825 112.653 100.626C112.643 100.721 112.643 100.817 112.653 100.912C113.461 99.9377 114.342 99.0286 115.286 98.1932C115.827 97.6806 116.492 97.3271 117.212 97.1697C117.931 97.0123 118.679 97.0569 119.376 97.2987C120.358 97.7639 120.602 98.9803 120.873 99.9535C121.179 101.879 120.772 103.853 119.731 105.485C118.63 107.009 117.146 108.433 115.293 108.862C114.297 109.084 113.294 108.669 112.284 108.819C112.329 109.266 112.531 109.68 112.851 109.985C113.171 110.291 113.589 110.466 114.025 110.479C114.257 110.493 114.49 110.493 114.722 110.479C113.329 112.29 112.82 114.637 112.312 116.862C112.026 118.079 111.768 119.302 111.552 120.54C111.247 122.366 111.133 124.221 111.211 126.072C111.377 127.971 111.729 129.848 112.263 131.674C112.748 133.84 113.74 135.852 115.154 137.535C116.255 138.608 117.516 139.503 118.637 140.562C118.244 140.693 117.882 140.905 117.571 141.184C117.341 141.406 117.16 141.671 116.916 141.9C115.696 142.948 114.271 143.714 112.737 144.147C106.697 146.179 101.716 146.451 96.5189 142.25C96.8814 141.688 97.0324 141.009 96.9438 140.34C96.9438 139.488 96.9021 138.644 96.8255 137.792C96.6752 135.626 96.1688 133.502 95.3277 131.51C95.0729 130.974 94.7622 130.467 94.4012 130C95.2396 129.851 96.0645 129.631 96.8672 129.342C99.8501 128.211 102.614 126.547 105.032 124.426C106.626 123.119 108.097 121.662 109.428 120.075C110.068 119.231 110.64 118.365 110.473 117.213C109.912 117.461 109.429 117.865 109.079 118.379C107.856 120.072 106.439 121.607 104.858 122.952C102.096 125.62 98.7516 127.568 95.1048 128.633C94.659 128.741 94.2061 128.848 93.7463 128.934C93.7493 128.924 93.7547 128.914 93.762 128.907C93.7693 128.899 93.7783 128.894 93.7882 128.891C93.7464 128.891 93.7185 128.891 93.6976 128.948C92.1425 129.285 90.543 129.348 88.9674 129.134C86.7935 128.799 84.7122 128 82.8579 126.787C80.666 125.198 78.9717 122.987 77.9814 120.426C76.4976 116.419 76.5185 111.989 76.7902 107.696ZM72.8055 150.215L72.9587 150.093C73.6554 150.966 74.1987 152.354 74.7909 154.78C75.8846 159.073 77.1246 163.367 78.2184 167.66C78.9707 170.05 79.6116 172.469 80.1341 174.916C81.3838 179.572 82.2277 184.332 82.6559 189.141C82.7813 190.623 82.9624 192.104 83.0809 193.585C83.1366 194.63 83.3804 195.732 83.039 196.741C82.9723 196.897 82.883 197.041 82.7743 197.17C82.7941 196.576 82.7545 195.981 82.6559 195.395C82.5096 194.243 82.3842 193.07 82.2101 191.925C81.6876 188.762 81.3114 185.571 80.5938 182.444C78.4134 173.213 75.8637 164.061 73.1399 154.98C72.7715 153.543 72.1812 152.176 71.3913 150.93C71.897 150.781 72.375 150.547 72.8055 150.236V150.215ZM16.4616 142.479C19.0113 141.463 21.8675 141.657 24.5565 141.606C27.9003 141.699 31.2303 142.079 34.5671 142.322C38.8863 142.787 43.2124 143.474 47.5385 144.032C53.9615 144.97 60.3914 146.436 66.7308 147.868C69.7054 148.526 71.3704 148.676 72.5059 149.614C72.3387 149.657 72.1854 149.692 72.0531 149.714C71.2921 149.834 70.5241 149.901 69.7542 149.914C68.0614 149.664 66.4382 149.041 64.7733 148.633C61.1717 147.574 57.4446 147.202 53.7734 146.487C46.5023 144.929 39.1428 143.844 31.7388 143.238C29.3075 143.009 26.8623 142.787 24.438 142.651C23.1771 142.544 21.8535 142.372 20.516 142.365C19.3596 142.365 18.2031 142.422 17.0328 142.444L16.4198 142.479H16.4616ZM12.1494 148.919C12.5859 149.167 12.9888 149.473 13.3476 149.828C13.1481 149.739 12.9608 149.624 12.7903 149.485C12.7854 149.476 12.7828 149.466 12.7828 149.456C12.7828 149.446 12.7854 149.436 12.7903 149.428C12.7873 149.442 12.7873 149.456 12.7903 149.47C12.935 149.817 13.1273 150.139 13.3615 150.429L13.7168 150.945V150.987C13.835 151.193 13.9803 151.381 14.1487 151.546C14.8454 152.44 15.5768 153.292 16.2386 154.2C16.7193 154.916 20.927 160.297 19.2272 160.504C16.3431 160.304 12.6162 154.78 11.411 152.275C11.0129 151.392 10.7767 150.442 10.7143 149.47C10.8746 148.784 11.5572 148.676 12.1494 148.941V148.919ZM10.2685 154.852C10.2058 153.986 9.99681 153.077 10.0177 152.182C10.1361 152.483 10.2685 152.776 10.4008 153.063C11.7105 155.467 14.1487 159.238 16.789 160.934C17.0119 161.292 17.2488 161.649 17.4856 162.014C17.9733 162.952 18.7535 164.34 18.1823 165.377C16.6497 165.048 14.8175 163.002 13.7447 161.8C12.0379 159.932 10.5402 157.542 10.2685 154.873V154.852ZM11.9125 163.932C11.5991 162.98 11.3692 162.007 11.0348 161.07C10.8467 160.504 10.6168 159.953 10.4636 159.381C10.6768 159.761 10.9093 160.128 11.1602 160.483C12.4211 162.407 13.9869 164.1 15.7928 165.492C15.849 165.622 15.9167 165.747 15.9948 165.864C16.162 166.093 16.3431 166.322 16.5173 166.544C17.4598 167.581 18.0974 168.871 18.3564 170.265C18.3564 170.68 18.454 171.195 18.1266 171.503C17.4299 171.903 15.1937 169.585 14.727 168.991C13.497 167.503 12.543 165.795 11.9125 163.953V163.932ZM11.9613 167.002C12.0634 167.202 12.175 167.402 12.2957 167.603C12.1717 167.418 12.0599 167.224 11.9613 167.023V167.002ZM18.3216 178.193C17.4158 177.367 16.6404 176.401 16.0227 175.331C15.3261 173.979 14.8663 172.469 14.2532 171.038C13.979 170.333 13.6529 169.652 13.2779 168.998C14.1277 170.234 15.1817 171.306 16.3919 172.168C16.4609 172.394 16.5567 172.61 16.6775 172.812C17.3532 174.286 18.642 176.655 18.3216 178.215V178.193ZM21.4356 186.63C21.0125 186.114 20.665 185.538 20.4045 184.919C20.4013 184.702 20.3637 184.487 20.2931 184.283C20.049 183.114 19.7349 181.962 19.3526 180.834C19.1715 180.318 18.9207 179.818 18.7814 179.288C18.9298 179.211 19.0607 179.102 19.1651 178.968C19.2696 178.835 19.3454 178.681 19.3874 178.515C19.7706 176.819 18.9068 174.544 18.029 172.826C18.2241 172.82 18.4155 172.769 18.5899 172.679C18.7642 172.589 18.9175 172.461 19.0391 172.304C20.1537 170.966 19.3387 168.526 18.5445 167.188C18.4125 166.974 18.2682 166.769 18.1126 166.572C19.9378 166.572 19.7218 163.674 19.1018 162.408C19.0252 162.2 18.9416 162 18.858 161.8C19.2908 161.892 19.7415 161.806 20.1137 161.562C20.486 161.317 20.7504 160.932 20.8503 160.49C20.9225 159.763 20.7819 159.031 20.4463 158.386C19.5589 156.679 18.5088 155.066 17.3115 153.571C16.557 152.495 15.6615 151.532 14.6504 150.708C14.6504 150.708 14.6504 150.673 14.6504 150.651C14.647 150.623 14.647 150.594 14.6504 150.565C14.7274 150.239 14.7128 149.896 14.6085 149.578V149.199C14.4622 147.924 14.4622 146.637 14.6085 145.363C14.6728 144.848 14.7824 144.341 14.9359 143.846C15.1924 143.862 15.4496 143.83 15.6953 143.753C16.5731 143.624 17.3742 143.624 18.3007 143.56C20.5372 143.474 22.7768 143.553 25.0024 143.796C27.0923 143.903 29.1473 144.089 31.2233 144.283C38.6313 144.868 45.9956 145.937 53.2718 147.481C55.7309 147.946 58.2179 148.275 60.6631 148.798C63.5402 149.392 66.5079 150.272 69.385 151.038C70.0088 151.146 70.6481 151.114 71.2589 150.945C71.3963 152.521 71.6976 154.078 72.1576 155.589C74.6724 164.333 77.3545 173.027 79.4444 181.893C80.3918 186 80.8934 190.2 81.4786 194.372C81.5552 195.088 81.6318 195.803 81.7154 196.519C81.7305 196.89 81.8231 197.254 81.9871 197.585C81.1399 197.646 80.2891 197.632 79.4444 197.542C78.8453 197.542 78.2531 197.542 77.6471 197.542C77.5565 197.542 77.4659 197.542 77.3754 197.542C77.2709 197.27 77.1734 196.984 77.0759 196.712C76.3786 194.945 75.7945 193.133 75.3273 191.288C74.6068 188.419 73.4876 185.672 72.0043 183.131C71.0581 181.672 69.9577 180.326 68.7232 179.116C67.6504 178.029 65.1564 176.104 64.8569 178.852C64.7245 180.347 65.247 181.792 65.6371 183.209C66.0099 184.405 66.2254 185.647 66.278 186.902V187.002C66.069 186.694 65.8461 186.386 65.5814 186.086C64.0836 184.404 62.6346 182.68 61.0811 181.077C59.9107 179.903 58.6986 178.773 57.5073 177.621C55.919 176.075 54.3655 174.494 52.798 172.919C52.1214 172.126 51.3435 171.431 50.4853 170.852C50.1757 170.659 49.8327 170.53 49.4752 170.472H48.9527C48.6995 170.512 48.4653 170.635 48.2848 170.821C48.1043 171.008 47.9867 171.249 47.9495 171.51C47.8753 171.857 47.8542 172.215 47.8868 172.569C47.7628 172.393 47.6228 172.231 47.4689 172.082C46.5772 171.216 45.5601 171.596 45.1003 172.691C45.0604 172.815 45.0278 172.941 45.0027 173.07V174.286C45.0534 174.605 45.1209 174.92 45.2048 175.231C45.0462 175.064 44.8476 174.943 44.6291 174.879C44.4105 174.816 44.1796 174.813 43.9595 174.87C43.7394 174.927 43.5377 175.043 43.3748 175.206C43.2119 175.368 43.0935 175.572 43.0313 175.796C42.4531 177.392 43.1636 179.131 43.7279 180.64C43.7837 180.769 43.8394 180.898 43.9021 181.02C43.6144 181.244 43.3828 181.536 43.2265 181.871C43.0703 182.205 42.9938 182.573 43.0034 182.945C43.0034 184.376 43.9438 185.528 44.6265 186.694C45.6297 188.211 46.7165 189.678 47.7266 191.166C48.5486 192.268 49.4054 193.313 50.2832 194.394C49.4333 194.172 48.5416 194.072 47.7057 193.835C45.6158 193.327 43.4701 192.984 41.3454 192.569C39.2207 192.154 36.9914 191.646 34.811 191.202C31.0004 190.472 24.3615 189.313 21.4356 186.651V186.63ZM69.3501 219.682C69.3954 220.528 69.3954 221.376 69.3501 222.222C69.3501 222.222 69.3501 222.265 69.3501 222.286C61.2366 221.547 53.1092 220.812 44.9679 220.082H44.8286C43.6513 219.095 42.5297 218.043 41.4081 216.991C40.3516 215.991 39.3755 214.904 38.4892 213.742C36.2282 210.921 34.1744 207.932 32.3448 204.798C30.6026 201.926 29.03 198.948 27.6356 195.882C26.9389 194.25 26.3817 192.54 25.699 190.873C25.5945 190.615 25.4761 190.365 25.3576 190.157C27.887 190.974 30.4593 191.643 33.0624 192.161C36.5456 192.877 39.9521 193.635 43.4074 194.308C43.5119 194.558 43.6373 194.801 43.7557 195.023C45.149 197.671 47.6082 199.453 49.8165 201.327C52.8329 203.803 56.0862 206.165 59.7923 207.345C60.3458 207.47 60.9236 207.413 61.4433 207.181C61.2622 207.009 61.0602 206.837 60.8582 206.673C60.6261 206.491 60.3706 206.344 60.0989 206.236C59.1179 205.866 58.1595 205.436 57.2287 204.948C55.4066 203.935 53.6745 202.759 52.0527 201.435C50.2554 200.004 48.4789 198.572 46.8 196.991C45.9292 196.118 45.1142 195.281 44.2155 194.458L46.0337 194.809C47.5872 195.116 49.1129 195.61 50.6803 195.86C50.9398 195.882 51.201 195.861 51.4536 195.796C53.3206 197.979 55.2433 200.089 57.0963 202.301C58.6638 204.147 60.475 205.75 62.133 207.51C63.791 209.27 65.456 210.801 67.2045 212.347C67.9011 213.063 68.6675 213.699 69.4199 214.336C69.2391 216.119 69.2157 217.916 69.3501 219.703V219.682ZM163.514 220.948C161.592 224.689 159.035 228.048 155.963 230.866L155.58 231.209L155.482 231.281C155.224 231.51 154.96 231.724 154.688 231.939C151.602 233.9 148.474 235.868 145.019 237.063C141.63 238.113 138.167 238.888 134.66 239.381C131.289 239.942 127.876 240.193 124.461 240.132C120.33 240.015 116.212 239.599 112.138 238.887C108.065 238.084 104.079 236.869 100.239 235.259C94.1156 232.948 88.6958 229.12 83.5198 225.12C82.7395 224.512 81.9244 223.946 81.1233 223.36C80.3773 222.828 79.6588 222.258 78.9707 221.649C75.9821 218.708 73.0771 215.696 69.9771 212.884L67.8872 210.909C67.3014 210.272 66.6221 209.734 65.8739 209.313C65.0728 208.597 64.2856 207.789 63.5402 206.973C61.9449 205.227 60.2034 203.631 58.615 201.878C56.7341 199.732 54.8462 197.585 53.0419 195.402C51.4472 193.625 49.9539 191.754 48.5695 189.8C47.218 187.789 45.6854 185.885 44.6544 183.66C44.4197 183.132 44.319 182.551 44.3618 181.971C44.3647 181.936 44.3647 181.9 44.3618 181.864C45.4451 183.936 46.7238 185.894 48.1793 187.71C49.003 188.795 49.8844 189.831 50.8196 190.816C51.3217 191.494 52.0431 191.966 52.8538 192.147C52.6727 190.823 51.4606 190.043 50.7639 189.048C50.1091 188.268 49.4612 187.453 48.8273 186.63C47.3016 184.748 42.9825 178.379 44.32 176.054C44.9352 176.232 45.4929 176.575 45.9362 177.048C46.7865 178.795 47.7694 180.47 48.876 182.057C50.103 183.928 51.4604 185.705 52.9374 187.374C53.6828 188.197 54.3307 189.22 55.4871 189.47C55.3199 188.147 54.1914 187.324 53.3972 186.315C52.0014 184.646 50.7144 182.884 49.5448 181.041C48.3048 178.973 46.8071 176.934 46.3403 174.508C46.2823 174.167 46.2451 173.823 46.2288 173.478C46.2498 173.241 46.3567 173.021 46.5283 172.862C46.6746 172.769 46.8907 172.948 47.0439 172.998C47.4201 173.213 47.7823 173.435 48.1446 173.671C48.7228 175.946 50.4852 178.558 51.5232 180.111C52.8318 181.971 54.3235 183.688 55.9748 185.234C56.5376 185.884 57.1818 186.454 57.8905 186.93C58.1341 187.045 58.3885 187.134 58.6498 187.195C58.5397 186.665 58.2999 186.172 57.9532 185.764C56.6017 184.333 55.1666 182.902 53.8779 181.406C52.4846 179.732 48.1237 173.75 49.1338 171.653H49.1756H49.2243C49.9793 171.829 50.6501 172.272 51.1192 172.905C52.6657 174.465 54.2193 176.011 55.7449 177.592C58.0995 179.932 60.5447 182.165 62.7112 184.698C63.9003 186.143 65.268 187.423 66.7796 188.504C66.9152 188.72 67.0874 188.909 67.2881 189.063L67.3926 188.855C67.4489 188.876 67.5105 188.876 67.5668 188.855C67.5158 188.833 67.4704 188.798 67.4344 188.755C67.5357 188.545 67.6129 188.324 67.6643 188.097C67.7341 187.706 67.7341 187.306 67.6643 186.916C67.6303 185.768 67.4476 184.63 67.1209 183.531C66.7169 182.007 65.9436 180.476 66.1317 178.866C67.6782 179.667 68.8277 181.07 69.9841 182.365C71.5288 184.393 72.6783 186.709 73.3697 189.184C73.9061 190.801 74.3451 192.447 74.8048 194.093C75.1198 195.587 75.75 196.991 76.6509 198.207C77.0689 199.331 78.0442 200.097 78.8035 200.991C80.5135 202.731 82.3159 204.372 84.2024 205.907C88.8211 209.485 93.4747 213.098 98.8318 215.417C105.269 217.864 111.929 220.376 118.874 220.383C126.718 220.526 135.029 216.805 138.923 209.571C139.499 208.427 139.965 207.229 140.316 205.993H140.456C142.19 205.993 143.939 205.642 145.66 205.75C150.926 205.993 156.126 207.065 161.076 208.927C162.662 209.476 164.201 210.156 165.681 210.959C166.174 211.151 166.706 211.21 167.227 211.131C166.287 214.521 165.044 217.814 163.514 220.97V220.948ZM168.642 201.499C168.502 203.923 168.209 206.335 167.764 208.719C167.597 209.492 167.409 210.272 167.2 211.038C167.062 210.569 166.815 210.143 166.482 209.794C166.148 209.445 165.737 209.184 165.284 209.034C164.339 208.539 163.359 208.121 162.351 207.782C160.491 207.116 158.638 206.386 156.722 205.914C151.846 204.769 146.767 203.767 141.765 204.483C141.359 204.568 140.959 204.681 140.567 204.819C141.576 200.018 141.442 195.037 140.177 190.301C139.908 189.412 139.48 188.582 138.916 187.853C138.874 187.81 138.812 187.717 138.749 187.703C138.836 187.931 138.879 188.174 138.874 188.419C138.937 189.327 138.965 190.301 139.104 191.216C139.372 192.55 139.575 193.897 139.71 195.252C140.056 198.75 139.763 202.283 138.846 205.671C138.743 205.741 138.643 205.818 138.547 205.9H138.777C138.328 207.365 137.688 208.761 136.875 210.05C132.103 217.256 123.019 219.81 114.924 218.637C110.097 217.824 105.37 216.478 100.824 214.623C98.6048 213.799 96.4621 212.771 94.422 211.553C92.6277 210.496 90.9012 209.323 89.2531 208.039C87.3791 206.673 85.4982 205.327 83.7496 203.789C82.7674 202.909 81.7642 202.043 80.775 201.17C79.7857 200.297 78.8035 199.231 77.7097 198.386C77.6836 198.333 77.6604 198.278 77.6401 198.222C78.8039 198.793 80.0707 199.11 81.3601 199.152C83.8053 199.238 84.8434 197.313 84.6622 195.03C84.5787 193.499 84.3766 191.975 84.2164 190.444C83.9553 187.114 83.5087 183.803 82.8788 180.526C82.4051 178.336 81.9035 176.233 81.381 174.086C80.8586 171.939 80.3082 169.649 79.6325 167.467C78.9567 165.284 78.5248 163.174 77.9048 161.027C77.2082 158.458 76.6021 155.868 75.9264 153.299C76.268 153.254 76.6057 153.182 76.9365 153.084C77.9396 152.576 78.8453 151.653 79.8345 151.073C81.0625 150.245 82.3399 149.497 83.659 148.834C84.7946 148.254 86.0067 147.71 87.1422 147.059C87.8058 146.625 88.4162 146.111 88.9604 145.528C88.9736 145.776 89.0352 146.02 89.1416 146.243C90.1378 148.834 92.4994 150.537 94.8331 151.782C98.0211 153.423 101.495 154.396 105.053 154.644C109.885 154.796 114.671 153.638 118.93 151.288C120.415 150.401 121.796 149.343 123.047 148.132C123.219 147.902 123.351 147.643 123.437 147.367C125.172 149.034 127.617 149.614 129.909 149.9C132.333 150.157 134.785 149.742 137.202 149.864C138.425 149.932 139.616 150.284 140.686 150.894C141.995 151.61 143.284 152.326 144.524 153.177C145.442 153.861 146.419 154.457 147.443 154.959C147.737 155.108 148.063 155.179 148.39 155.166C148.822 155.617 149.219 156.104 149.665 156.533C150.675 157.485 151.818 158.265 152.793 159.252C155.092 161.493 157.25 163.883 159.251 166.408C162.089 170.532 164.347 175.046 165.96 179.818C167.139 183.552 168.009 187.382 168.558 191.267C168.852 194.677 168.88 198.106 168.642 201.521V201.499Z" fill="black"/>
<path d="M70.7644 221.764H69.3572V264.769H70.7644V221.764Z" fill="black"/>
<path d="M141.417 238.53H140.421V265.857H141.417V238.53Z" fill="black"/>
</g>
<defs>
<clipPath id="clip0_262_9434">
<rect width="170" height="266" fill="white"/>
</clipPath>
</defs>
</svg>
