<svg width="232" height="185" viewBox="0 0 232 185" fill="none" xmlns="http://www.w3.org/2000/svg">
<g clip-path="url(#clip0_262_9756)">
<path d="M231.698 185L166 183.292L184.256 166.239L168.473 159.462C170.855 155.936 173.108 152.612 175.426 149.205L184.119 154.015V140.683L185.145 140L232 183.947L231.698 185ZM220.98 181.436C209.576 176.728 198.528 172.148 187.453 167.587C186.821 167.329 185.686 167.209 185.328 167.587C181.224 171.696 177.221 175.897 173.191 180.107L173.86 181.399L220.98 181.436ZM186.739 145.429C186.739 151.892 186.537 156.997 186.876 162.048C187.039 162.851 187.376 163.608 187.864 164.265C188.352 164.921 188.978 165.46 189.698 165.842C194.91 168.335 200.278 170.459 205.627 172.665C210.803 174.789 216.024 176.801 221.2 178.87L221.576 178.159L186.739 145.429ZM176.232 152.243L171.789 158.567L183.945 163.571C184.87 156.739 184.87 156.739 176.232 152.243Z" fill="black"/>
<path d="M71.0721 73.517C45.0683 51.0865 21.6897 26.3595 0 0C11.5746 12.4142 22.9472 25.0775 34.7971 37.1782C46.647 49.2788 59.3965 61.029 71.7054 72.8991C80.1591 66.2769 88.6863 62.6892 98.6821 63.1319C111.771 63.7129 119.133 76.0903 113.277 87.8681C111.22 92.0185 107.099 93.6325 101.968 92.2768C92.2385 89.7404 84.4916 83.6624 76.6345 77.8519C75.2943 76.8558 73.9726 75.8228 72.6784 74.8267C65.5188 80.7479 63.426 89.8326 67.4005 98.0873C72.2102 108.113 80.8843 114.099 89.9805 119.632C104.345 128.367 120.271 133.329 135.948 138.936C145.439 142.343 154.924 145.724 164.403 149.082C164.817 149.225 165.185 149.48 165.466 149.818C165.748 150.156 165.932 150.565 166 151C161.649 149.469 157.262 148.03 152.957 146.388C134.131 139.287 115.186 132.416 96.571 124.714C87.1861 120.842 78.7769 114.919 71.9532 107.375C61.728 96.1135 61.3149 85.959 71.0721 73.517ZM74.1194 73.517C79.0852 78.8941 93.5144 88.4307 99.8937 90.3122C101.907 91.0045 104.042 91.2683 106.163 91.087C108.08 90.8311 109.847 89.9074 111.156 88.4769C116.599 81.5503 113.231 69.3113 105.153 65.8896C96.1946 62.0897 81.5911 65.6867 74.1194 73.517Z" fill="black"/>
<path d="M165 171C156.256 162.002 144.294 159.168 133 155C145 157.852 156.944 160.704 165 171Z" fill="black"/>
<path d="M179.479 143L163 135.299C163.189 134.866 163.377 134.433 163.557 134L180 141.816L179.479 143Z" fill="black"/>
<path d="M221 181H173.672L173 179.712C177.048 175.534 181.069 171.328 185.191 167.233C185.55 166.865 186.691 166.985 187.325 167.233C198.449 171.696 209.545 176.298 221 181Z" fill="#FDEE93"/>
<path d="M187.057 145L222 178.277L221.623 179C216.416 176.896 211.182 174.847 206.012 172.687C200.648 170.46 195.267 168.28 190.041 165.744C189.32 165.355 188.692 164.806 188.203 164.138C187.714 163.471 187.376 162.7 187.213 161.883C186.855 156.772 187.057 151.623 187.057 145Z" fill="#FDEE93"/>
<path d="M176.246 152C184.502 156.366 184.502 156.366 183.618 163L172 158.141L176.246 152Z" fill="#FDEE93"/>
</g>
<defs>
<clipPath id="clip0_262_9756">
<rect width="232" height="185" fill="white"/>
</clipPath>
</defs>
</svg>
